<?xml version="1.0" encoding="UTF-8" standalone="no"?>
<svg
   id="ico_health_cluster_kritz.svg"
   width="256"
   height="256"
   viewBox="0 0 256 256"
   version="1.1"
   sodipodi:docname="ico_health_cluster_kritz.svg"
   inkscape:version="1.4.2 (f4327f4, 2025-05-13)"
   xmlns:inkscape="http://www.inkscape.org/namespaces/inkscape"
   xmlns:sodipodi="http://sodipodi.sourceforge.net/DTD/sodipodi-0.dtd"
   xmlns="http://www.w3.org/2000/svg"
   xmlns:svg="http://www.w3.org/2000/svg">
  <sodipodi:namedview
     id="namedview1"
     pagecolor="#ffffff"
     bordercolor="#000000"
     borderopacity="0.25"
     inkscape:showpageshadow="2"
     inkscape:pageopacity="0.0"
     inkscape:pagecheckerboard="0"
     inkscape:deskcolor="#d1d1d1"
     showguides="false"
     inkscape:zoom="2.2649514"
     inkscape:cx="84.549275"
     inkscape:cy="126.71354"
     inkscape:window-width="1920"
     inkscape:window-height="1022"
     inkscape:window-x="-8"
     inkscape:window-y="-8"
     inkscape:window-maximized="1"
     inkscape:current-layer="ico_health_cluster_kritz.svg" />
  <defs
     id="defs1">
    <style
       id="style1">
      .cls-1, .cls-2, .cls-3, .cls-4, .cls-5 {
        fill: #ece3cb;
        fill-rule: evenodd;
      }

      .cls-1 {
        opacity: 0.61;
      }

      .cls-2 {
        opacity: 0.4;
      }

      .cls-3 {
        opacity: 0.19;
      }

      .cls-4 {
        opacity: 0.08;
      }
    </style>
  </defs>
  <path
     id="a"
     class="cls-1"
     d="M 146.28627,235.10204 V 256 h -20.89796 v -20.89796 h -19.85306 v -20.89796 h 19.85306 v -20.89796 h 5.74693 l 15.15103,16.71837 v 4.17959 h 21.94285 v 20.89796 z m 0,-41.79592 v 9.92653 l -5.22449,-9.92653 z"
     style="stroke-width:0.522449" />
  <path
     id="b"
     class="cls-2"
     d="m 189.12708,161.95918 v 15.67347 l -15.67347,-9.40408 v -6.26939 h -10.44898 l -7.83673,-4.70204 10.44898,-6.79183 -5.74694,-4.1796 h 13.58367 v -20.89795 h 15.67347 v 20.89795 h 20.89796 v 15.67347 z M 120.16382,101.3551 v 9.40408 L 109.19239,81.502041 95.60871,98.742857 73.143408,89.861224 V 80.457143 H 99.26586 V 54.334694 h 20.89796 v 26.122449 h 27.16734 v 14.106122 l -5.74694,6.791835 z m -42.31837,0 h -4.702042 v -6.269386 z m 2.61224,61.64898 h 13.58368 v 22.98776 h 24.03265 v 13.58367 H 94.04137 v 24.03265 H 80.45769 V 199.57551 H 56.425041 V 185.99184 H 80.45769 Z m 108.66939,18.80816 h -15.67347 v -6.79183 l 15.67347,5.74694 z"
     style="stroke-width:0.522449" />
  <path
     id="c"
     class="cls-3"
     d="m 166.13933,85.681633 v 12.016326 l -1.56735,-0.522449 -4.70204,-15.673469 -8.35918,8.881632 V 76.277551 H 124.34341 V 61.64898 h 17.76326 V 34.481633 h 24.03266 V 61.64898 h 27.16734 V 85.681633 Z M 72.09851,166.13878 H 58.514837 V 151.5102 H 43.886265 V 137.92653 H 58.514837 V 122.25306 H 72.09851 v 15.67347 H 87.77198 V 151.5102 H 72.09851 Z M 54.335245,95.085714 H 40.751571 V 80.457143 H 26.123 V 66.873469 H 40.751571 V 51.2 H 54.335245 V 66.873469 H 70.008714 V 80.457143 H 54.335245 Z"
     style="stroke-width:0.522449" />
  <path
     id="d"
     class="cls-4"
     d="M 214.20463,53.289796 V 68.963265 H 200.62096 V 53.289796 H 184.94749 V 39.706122 h 15.67347 V 24.032653 h 13.58367 V 39.706122 H 229.8781 V 53.289796 Z M 91.95157,43.885714 H 79.4128 V 28.212245 H 63.739327 V 15.673469 H 79.4128 V 0 h 12.53877 v 15.673469 h 15.67347 V 28.212245 H 91.95157 Z"
     style="stroke-width:0.522449" />
  <path
     id="K"
     class="cls-5"
     d="m 79.4128,96.995265 25.03732,35.670725 -14.30727,-3.56885 21.46064,28.53669 -10.73006,-3.56363 35.76738,39.23592 -14.30674,-28.53668 10.73006,3.56728 -10.73006,-21.40265 17.88395,7.13613 -7.15389,3.56676 32.19121,10.70133 -17.88395,-10.70133 10.73006,-7.13404 -21.46064,-14.26808 35.7679,-32.10553 -10.73005,-3.56676 L 158.10145,89.861224 122.33407,129.09714 108.0268,89.861224 97.29675,104.12931 Z"
     style="stroke-width:0.522449" />
</svg>
