<?xml version="1.0" encoding="UTF-8" standalone="no"?>
<svg
   id="ico_health_cluster_invuln.svg"
   width="256"
   height="256"
   viewBox="0 0 256 256"
   version="1.1"
   sodipodi:docname="ico_health_cluster_invuln.svg"
   inkscape:version="1.4.2 (f4327f4, 2025-05-13)"
   xmlns:inkscape="http://www.inkscape.org/namespaces/inkscape"
   xmlns:sodipodi="http://sodipodi.sourceforge.net/DTD/sodipodi-0.dtd"
   xmlns="http://www.w3.org/2000/svg"
   xmlns:svg="http://www.w3.org/2000/svg">
  <sodipodi:namedview
     id="namedview1"
     pagecolor="#ffffff"
     bordercolor="#000000"
     borderopacity="0.25"
     inkscape:showpageshadow="2"
     inkscape:pageopacity="0.0"
     inkscape:pagecheckerboard="0"
     inkscape:deskcolor="#d1d1d1"
     inkscape:zoom="2.2649514"
     inkscape:cx="141.50414"
     inkscape:cy="147.46453"
     inkscape:window-width="1920"
     inkscape:window-height="1022"
     inkscape:window-x="-8"
     inkscape:window-y="-8"
     inkscape:window-maximized="1"
     inkscape:current-layer="ico_health_cluster_invuln.svg" />
  <defs
     id="defs1">
    <style
       id="style1">
      .cls-1, .cls-2, .cls-3, .cls-4, .cls-5 {
        fill: #ece3cb;
        fill-rule: evenodd;
      }

      .cls-1 {
        opacity: 0.61;
      }

      .cls-2 {
        opacity: 0.4;
      }

      .cls-3 {
        opacity: 0.19;
      }

      .cls-4 {
        opacity: 0.08;
      }
    </style>
  </defs>
  <path
     id="a"
     class="cls-1"
     d="M 168.22912,235.10204 H 146.28627 V 256 h -20.89796 v -20.89796 h -19.85306 v -20.89796 h 19.85306 v -20.89796 h 20.89796 v 20.89796 h 21.94285 z"
     style="stroke-width:0.522449" />
  <path
     id="b"
     class="cls-2"
     d="m 189.12708,161.95918 v 19.85306 h -15.67347 v -19.85306 h -10.97143 v -15.67347 h 10.97143 v -20.89795 h 15.67347 v 20.89795 h 20.89796 v 15.67347 z M 123.82096,80.457143 h 9.40408 v 15.673469 h -9.40408 z M 99.26586,54.334694 h 20.89796 V 74.187755 H 99.26586 Z M 85.15973,101.3551 H 73.143408 V 80.457143 H 98.74341 V 96.130612 H 85.15973 Z m -4.70204,61.64898 h 13.58368 v 22.98776 h 24.03265 v 13.58367 H 94.04137 v 24.03265 H 80.45769 V 199.57551 H 56.425041 V 185.99184 H 80.45769 Z"
     style="stroke-width:0.522449" />
  <path
     id="c"
     class="cls-3"
     d="m 166.13933,85.681633 v 10.448979 h -7.83674 V 74.187755 h -25.07755 v 2.089796 h -8.88163 V 61.64898 h 17.76326 V 34.481633 h 24.03266 V 61.64898 h 27.16734 V 85.681633 Z M 72.09851,166.13878 H 58.514837 V 151.5102 H 43.886265 V 137.92653 H 58.514837 V 122.25306 H 72.09851 v 15.67347 H 87.77198 V 151.5102 H 72.09851 Z M 54.335245,95.085714 H 40.751571 V 80.457143 H 26.123 V 66.873469 H 40.751571 V 51.2 H 54.335245 V 66.873469 H 70.008714 V 80.457143 H 54.335245 Z"
     style="stroke-width:0.522449" />
  <path
     id="d"
     class="cls-4"
     d="M 214.20463,53.289796 V 68.963265 H 200.62096 V 53.289796 H 184.94749 V 39.706122 h 15.67347 V 24.032653 h 13.58367 V 39.706122 H 229.8781 V 53.289796 Z M 91.95157,43.885714 H 79.4128 V 28.212245 H 63.739327 V 15.673469 H 79.4128 V 0 h 12.53877 v 15.673469 h 15.67347 V 28.212245 H 91.95157 Z"
     style="stroke-width:0.522449" />
  <path
     id="U"
     class="cls-5"
     d="m 158.30259,117.02857 v 50.1551 l -9.55559,9.41088 h -40.448 l -9.55559,-9.41088 v -50.1551 H 89.33933 V 100.3102 h 36.57142 v 16.71837 h -9.40408 v 42.84082 h 24.03266 v -42.84082 h -9.40409 V 100.3102 h 36.57143 v 16.71837 z M 137.40463,78.367347 H 154.123 v 16.718367 h -16.71837 z m -34.48163,0 h 16.71837 V 95.085714 H 102.923 Z"
     style="stroke-width:0.522449" />
</svg>
