<?xml version="1.0" encoding="UTF-8" standalone="no"?>
<svg
   id="ico_health_cluster_bubble.svg"
   width="256"
   height="256"
   viewBox="0 0 256 256"
   version="1.1"
   xmlns="http://www.w3.org/2000/svg"
   xmlns:svg="http://www.w3.org/2000/svg">
  <defs
     id="defs1">
    <style
       id="style1">
      .cls-1, .cls-2, .cls-3, .cls-4, .cls-5 {
        fill: #ece3cb;
        fill-rule: evenodd;
      }

      .cls-1 {
        opacity: 0.61;
      }

      .cls-2 {
        opacity: 0.4;
      }

      .cls-3 {
        opacity: 0.19;
      }

      .cls-4 {
        opacity: 0.08;
      }
    </style>
  </defs>
  <path
     id="a"
     class="cls-1"
     d="M 168.22812,235.10204 H 146.28527 V 256 h -20.89796 v -20.89796 h -19.85307 v -20.89796 h 19.85307 v -20.89796 h 20.89796 v 20.89796 h 21.94285 z"
     style="stroke-width:0.522449" />
  <path
     id="b"
     class="cls-2"
     d="m 189.12608,161.95918 v 19.85306 h -15.67347 v -7.99346 a 62.605061,62.605061 0 0 0 15.67347,-27.60725 v 0.0742 h 20.89796 V 161.9592 Z M 99.264857,54.334694 H 120.16282 V 67.957551 A 62.269649,62.269649 0 0 0 99.264857,74.639673 Z M 118.07302,191.91641 v 7.6591 H 94.040367 v 24.03265 H 80.456694 V 199.57551 H 56.424041 v -13.58367 h 24.032653 v -15.65466 a 63.02302,63.02302 0 0 0 13.583673,12.11715 v 3.53751 h 6.069293 a 62.250318,62.250318 0 0 0 17.96336,5.92457 z M 73.142408,100.69943 V 80.457143 H 90.232237 A 62.968686,62.968686 0 0 0 73.142408,100.69943 Z"
     style="stroke-width:0.522449" />
  <path
     id="c"
     class="cls-3"
     d="m 172.77343,85.681633 a 62.495869,62.495869 0 0 0 -44.24725,-18.28049 c -1.40696,0 -2.80137,0.05224 -4.18482,0.142106 V 61.64898 h 17.76327 V 34.481633 h 24.03265 V 61.64898 h 27.16735 V 85.681633 Z M 58.513837,151.5102 H 43.885265 v -13.58367 h 14.628572 v -15.67347 h 7.806955 a 63.262824,63.262824 0 0 0 -0.487445,7.84196 62.439445,62.439445 0 0 0 6.264163,27.3455 v 8.69826 H 58.513837 Z M 54.334245,95.085714 H 40.750571 V 80.457143 H 26.122 V 66.873469 H 40.750571 V 51.2 H 54.334245 V 66.873469 H 70.007714 V 80.457143 H 54.334245 Z"
     style="stroke-width:0.522449" />
  <path
     id="d"
     class="cls-4"
     d="M 214.20363,53.289796 V 68.963265 H 200.61996 V 53.289796 H 184.94649 V 39.706122 h 15.67347 V 24.032653 h 13.58367 V 39.706122 H 229.8771 V 53.289796 Z M 91.950571,43.885714 H 79.411796 V 28.212245 H 63.738327 V 15.673469 H 79.411796 V 0 H 91.950571 V 15.673469 H 107.62404 V 28.212245 H 91.950571 Z"
     style="stroke-width:0.522449" />
  <path
     id="OU"
     class="cls-5"
     d="m 128.52722,188.60931 a 58.514286,58.514286 0 1 1 58.51429,-58.51429 58.514286,58.514286 0 0 1 -58.51429,58.51429 z m -7.31951,-95.090943 h -12.1903 v 12.190303 h 12.1903 z m 26.81888,0 h -12.1903 v 12.190303 h 12.1903 z m 9.75255,17.066843 h -26.81887 v 12.1903 h 7.31429 v 32.18286 h -19.50512 v -32.18286 h 7.31429 v -12.1903 H 99.264857 v 12.1903 h 7.314283 v 37.05887 l 7.31429,7.31429 h 29.25714 l 7.31429,-7.31429 v -37.05887 h 7.31428 z m -18.18122,65.99419 c -31.74557,0 -57.480361,-25.47984 -57.480361,-56.91089 A 56.21551,56.21551 0 0 1 89.068743,92.519445 54.1184,54.1184 0 0 0 73.783453,130.1969 c 0,30.17404 24.705045,54.63458 55.181057,54.63458 a 55.234351,55.234351 0 0 0 38.05414,-15.1343 57.670531,57.670531 0 0 1 -27.42073,6.88222 z"
     style="stroke-width:0.522449" />
</svg>
