<svg id="ico_shock_active" xmlns="http://www.w3.org/2000/svg" width="128" height="128" viewBox="0 0 128 128">
  <defs>
    <style>
      .cls-1 {
        fill: #fff;
        fill-rule: evenodd;
      }
    </style>
  </defs>
  <path id="Shape_24_copy_3" data-name="Shape 24 copy 3" class="cls-1" d="M93.15,68.992L82,112H70L86.743,66.794A10,10,0,1,1,93.15,68.992ZM93,45a13.941,13.941,0,0,0-5.59,1.168L86,37,73,43l-8-7L54,47,43,43,41.252,53.487a13.816,13.816,0,0,0-8.863-1.235L26,38l17-4,1-18L62,26,77,16l7,12,15,2L94.871,45.139A14.044,14.044,0,0,0,93,45ZM35,56a9.992,9.992,0,0,1,5.85,18.1L54,112H42L33.9,75.937A10,10,0,0,1,35,56Zm22,8,6,10,9-14,7,18-8-4L63,87,56,75l-8,5Z"/>
</svg>
