<svg id="ico_mine_inactive" xmlns="http://www.w3.org/2000/svg" width="128" height="128" viewBox="0 0 128 128">
  <defs>
    <style>
      .cls-1 {
        fill: #fff;
        fill-rule: evenodd;
      }
    </style>
  </defs>
  <path id="Shape_17_copy_4" data-name="Shape 17 copy 4" class="cls-1" d="M106,75c0,9.389-18.8,17-42,17S22,84.389,22,75c0-6.318,8.531-11.821,21.171-14.751L44,54c0-4.006,9.207-7,20-7s20,3,20,7l0.828,6.242C97.472,63.171,106,68.68,106,75ZM64,50.984c-7.173,0-12.988,1.349-12.988,3.014S56.827,57.013,64,57.013,76.988,55.663,76.988,54,71.173,50.984,64,50.984ZM80,58a39.587,39.587,0,0,1-16,3,39.587,39.587,0,0,1-16-3l-1,9c0,2.225,7.127,5,17,5s17-2.775,17-5Zm5.432,6.791,0.422,3.183a2.522,2.522,0,0,1,.131.78c0,4.006-9.843,7.253-21.985,7.253S42.015,72.76,42.015,68.754a2.522,2.522,0,0,1,.131-0.78l0.424-3.2C36.677,66.6,33,69.16,33,72c0,5.523,13.879,10,31,10s31-4.477,31-10C95,69.163,91.319,66.609,85.432,64.791ZM104,86c-1.264,4.916-3.057,10.085-3.09,10.293C99.506,105.075,83.517,112,64,112c-19.449,0-35.394-6.877-36.894-15.615C27.067,96.161,25.27,90.948,24,86c8.353,6.06,23.425,10,40,10S95.647,92.058,104,86Z"/>
</svg>
