<svg id="ico_sandvich_active" xmlns="http://www.w3.org/2000/svg" width="128" height="128" viewBox="0 0 128 128">
  <defs>
    <style>
      .cls-1 {
        fill: #fff;
        fill-rule: evenodd;
      }
    </style>
  </defs>
  <path id="Shape_28_copy_4" data-name="Shape 28 copy 4" class="cls-1" d="M111,78s-5.75,5.885-8,8a16.488,16.488,0,0,1-11,16L30,83V77L18,72l10.075-6.975L28,65l-1-8L59.015,43.726a6.384,6.384,0,0,1-3.381-3.913c-1-3.731,2.132-7.906,7.212-10.044L62,23l3-7,4,6,0.206,6.392c4.753-.123,8.713,1.862,9.61,5.209,0.957,3.569-1.876,7.54-6.572,9.749L87,55c11.128-1.728,14.834,5.171,15,11.057a13.512,13.512,0,0,1-.988,5.285ZM58,85a25.368,25.368,0,0,0,22.326-4.523L45.046,70.213C45.4,74.164,47.434,82.274,58,85ZM26,71l15.286,4.939a20.293,20.293,0,0,1-1.373-7.218L34,67ZM64,35c-2.768,0-5.011,1.567-5.011,3.5S61.236,42,64,42s5.011-1.567,5.011-3.5S66.772,35,64,35ZM85,58L69.756,45.446,70,53l-4,2-1.2-9.627L33,59,89,75c5.654-1.308,8.417-5.7,8.118-9.932C96.8,60.511,92.865,56.526,85,58Zm4,25-4.348-1.265A24.424,24.424,0,0,1,77.074,87.5L91,92l14-13-5.954-3.969A21.356,21.356,0,0,1,89,83Z"/>
</svg>
