<svg id="ico_chekov_tier_1" xmlns="http://www.w3.org/2000/svg" width="128" height="128" viewBox="0 0 128 128">
  <defs>
    <style>
      .cls-1 {
        fill: #fff;
        fill-rule: evenodd;
      }
    </style>
  </defs>
  <path id="Shape_35_copy_3" data-name="Shape 35 copy 3" class="cls-1" d="M48,85l9,6c-8.163,6.008-22,8-22,8l8,5c-7.327,3.016-25,5-25,5s19.6,5.836,46,1l-6-6s16.892-.675,26-7l-6-5s7.826-1.183,17-8a63.72,63.72,0,0,0,12-12l4-31-3-15-5-3-5,1-1-5-7-2-4,2-4-3H75L56,26,55,43l4,3,4-4,1-13,16-7L70,31v5l3-2,5,2,1-7,14-3-9,6v5l6,3,3,4,1-8,4,7,7-4-5,10,4,3-9,4L88,46,75,39l-6,2-3,6L77,60l12,4L79,66l-6,8V63L64,51l-4,3v8l4,6A44.173,44.173,0,0,1,48,85Z"/>
</svg>
