<svg id="ico_stickybomb_inactive" xmlns="http://www.w3.org/2000/svg" width="128" height="128" viewBox="0 0 128 128">
  <defs>
    <style>
      .cls-1 {
        fill: #fff;
        fill-rule: evenodd;
      }
    </style>
  </defs>
  <path id="Active_copy" data-name="Active copy" class="cls-1" d="M86.894,60.251l10.557,12L83.123,76c-0.712,2.347-4.575,6.237-6.787,7.5l-3.77,13.5L59.747,85.745a8.777,8.777,0,0,1-3.77-.75L40.141,88.745l3.77-16.5A14.5,14.5,0,0,1,42.4,67L32.6,55.752,46.174,52a22.042,22.042,0,0,1,6.033-6l3.77-13.5,10.557,9.748a12.918,12.918,0,0,1,6.033,1.5l16.59-3.749-3.77,16.5A15.8,15.8,0,0,1,86.894,60.251Zm-6.114,12.9L90.9,70.46l-7.417-8.041a7.991,7.991,0,0,0-3.026,4.813A8.552,8.552,0,0,0,80.78,73.149ZM70.811,90.811l2.77-10.317a8.434,8.434,0,0,0-5.952-.354A8.838,8.838,0,0,0,62.5,83.245ZM49.265,54.929L39.2,57.6l7.382,8.014a7.954,7.954,0,0,0,3.019-4.8A8.454,8.454,0,0,0,49.265,54.929ZM48.14,72.456l-2.8,11.125L56.533,80.8a8.327,8.327,0,0,0-2.739-5.5A8.96,8.96,0,0,0,48.14,72.456Zm9.72-33.322-2.675,9.883a8.133,8.133,0,0,0,5.739.353,8.3,8.3,0,0,0,4.934-3.088Zm6.788,17.36a7.881,7.881,0,1,0,7.926,7.881A7.9,7.9,0,0,0,64.648,56.494Zm8.209-8.323a8,8,0,0,0,2.632,5.29,8.608,8.608,0,0,0,5.431,2.729L83.608,45.5Z"/>
</svg>
