<svg id="ico_anchor_active" xmlns="http://www.w3.org/2000/svg" width="128" height="128" viewBox="0 0 128 128">
  <defs>
    <style>
      .cls-1, .cls-2 {
        fill: #fff;
        fill-rule: evenodd;
      }

      .cls-1 {
        opacity: 0.5;
      }
    </style>
  </defs>
  <path class="cls-1" d="M104,39l-3,10L97,28,94.192,57.03,91,44,89,66l15-5S98.963,82.346,74,93l-10,8L54,93A54.861,54.861,0,0,1,24,61l11,3L31,25,27,55,24,42a130.938,130.938,0,0,0-2,20c0,16.019,17.965,41,42,41,24.7,0,42-22.025,42-41C106,55.526,104,39,104,39Z"/>
  <path id="Shape_8_copy_2" data-name="Shape 8 copy 2" class="cls-2" d="M75,89L73,79c7.669,0,16-6,16-6V70l9-4S93.38,78.306,75,89ZM55,40H73v5H55V40Zm9-3.992a10,10,0,1,1,10-10A10,10,0,0,1,64,36.008ZM64,21.99A5.007,5.007,0,1,0,69.01,27,5.007,5.007,0,0,0,64,21.99ZM53.145,88.783C34.588,78.165,30,66,30,66l9,4v3s8.359,6,16,6ZM67,49s0.493,22.074,5,41l-8,7-8-7c4.738-18.667,5-41,5-41h6Zm-3,59c31.961,0,42-28,42-28s-4.053,32-42,32S22,80,22,80,32.039,108,64,108Z"/>
</svg>
