<svg id="ico_anchor_inactive" xmlns="http://www.w3.org/2000/svg" width="128" height="128" viewBox="0 0 128 128">
  <defs>
    <style>
      .cls-1 {
        fill: #fff;
        fill-rule: evenodd;
      }
    </style>
  </defs>
  <path id="Shape_8_copy_4" data-name="Shape 8 copy 4" class="cls-1" d="M85.757,86L78.79,79c6.652-3.861,9.953-13,9.953-13l-1-3,5.972-8S96.345,67.419,85.757,86Zm-42.8-31,14.93-9,2.986,4-14.93,9Zm1.006-7.007a10,10,0,1,1,9.955-10.005A9.97,9.97,0,0,1,43.964,47.993ZM44.445,34a5.25,5.25,0,0,0-5.468,5,5.242,5.242,0,0,0,5.464,4.993,5.25,5.25,0,0,0,5.468-5A5.242,5.242,0,0,0,44.445,34ZM63.86,98C42.446,98.083,34,90,34,90l8.958-1,1.991,3s9.3,0.847,15.925-3ZM57.888,57s11.5,18.765,24.883,33l-2.986,10L68.837,98C63.6,79.335,52.911,60,52.911,60Z"/>
</svg>
