<svg id="ico_stickybomb_active" xmlns="http://www.w3.org/2000/svg" width="128" height="128" viewBox="0 0 128 128">
  <defs>
    <style>
      .cls-1 {
        fill: #fff;
        fill-rule: evenodd;
      }
    </style>
  </defs>
  <path id="Active_copy_2" data-name="Active copy 2" class="cls-1" d="M89.91,46.754s2.853,0.989,3.77,7.5c0.692,4.91-.7,7.744-0.7,7.744L103,73.906l-9.4,3.117a21.486,21.486,0,0,1-4.931,12.724c-6.74,8.33-14.341,6.246-14.341,6.246L78.6,109.74,70.3,99.992l-2.262,12L62.009,96.243s-7.689,7.326-15.836,3.749a9.943,9.943,0,0,1-6.033-7.5l-4.524.75,1.508-5.249s-7.857-1.976-9.049-9A10.515,10.515,0,0,1,32.6,68.5l-16.59-9,16.136,2.05-5.82-7.68,8.451-2.616A5.633,5.633,0,0,1,37.125,46a10.064,10.064,0,0,1,9.8-1.5S44.383,28.933,59.655,26.493c12.961-2.071,16.682,12.013,16.682,12.013l15.836-22.5L83.877,39.255l10.557-5.249Zm-17.344-3a12.918,12.918,0,0,0-6.033-1.5L55.977,32.507,52.206,46a22.042,22.042,0,0,0-6.033,6L32.6,55.752,42.4,67a14.5,14.5,0,0,0,1.508,5.249l-3.77,16.5L55.977,85a8.777,8.777,0,0,0,3.77.75L72.566,96.993l3.77-13.5c2.212-1.262,6.075-5.151,6.787-7.5l14.328-3.749-10.557-12A15.8,15.8,0,0,0,85.386,56.5l3.77-16.5Zm2.923,9.706a8,8,0,0,1-2.632-5.29L83.608,45.5,80.92,56.189A8.608,8.608,0,0,1,75.489,53.461Zm-10.841,18.8a7.881,7.881,0,1,1,7.926-7.881A7.9,7.9,0,0,1,64.648,72.256ZM60.924,49.37a8.133,8.133,0,0,1-5.739-.353l2.675-9.883,8,7.148A8.3,8.3,0,0,1,60.924,49.37ZM45.343,83.581l2.8-11.125A8.96,8.96,0,0,1,53.794,75.3a8.327,8.327,0,0,1,2.739,5.5Zm1.238-17.967L39.2,57.6l10.066-2.671a8.454,8.454,0,0,1,.334,5.889A7.954,7.954,0,0,1,46.581,65.615ZM67.629,80.139a8.434,8.434,0,0,1,5.952.354l-2.77,10.317L62.5,83.245A8.838,8.838,0,0,1,67.629,80.139ZM83.483,62.419L90.9,70.46,80.78,73.149a8.552,8.552,0,0,1-.322-5.917A7.991,7.991,0,0,1,83.483,62.419ZM40.141,39.255a2.841,2.841,0,0,1-3.016-2.624,3.046,3.046,0,0,1,6.033,0A2.841,2.841,0,0,1,40.141,39.255ZM27.6,50.567a4.013,4.013,0,1,1,3.977-4.012A4,4,0,0,1,27.6,50.567Zm63.325,42.8a3.787,3.787,0,1,1-3.51,3.776A3.65,3.65,0,0,1,90.925,93.366Z"/>
</svg>
