<svg id="ico_battery_active" xmlns="http://www.w3.org/2000/svg" width="128" height="128" viewBox="0 0 128 128">
  <defs>
    <style>
      .cls-1 {
        fill: #fff;
        fill-rule: evenodd;
      }
    </style>
  </defs>
  <path class="cls-1" d="M85,96c-0.126,1.87-2.158,4-4,4H47c-1.842,0-3.883-2.13-4-4L39,40c-0.163-2.6,1.791-4,4-4H56V32a4,4,0,0,1,4-4h8a4,4,0,0,1,4,4v4H85c2.209,0,4.175,1.4,4,4ZM43,40l4,56H81l4-56H43ZM76,52c2.281-4.521-1.959-6.79-6-3-0.257.241-1.527,1.39-3.312,3H47.857l-0.571-8H80.714l-0.571,8H76ZM50,67a6.106,6.106,0,0,0-.992,1.113L48.143,56h14.1C56.973,60.747,50.823,66.271,50,67Zm6,7s-1.437,2.115-4,6H49.857l-0.488-6.838A4.1,4.1,0,0,0,52,74h4Zm2,11c0.169-.151.575-0.505,1.144-1H77.857l-0.571,8H50.714l-0.571-8h1.216C52.188,86.338,55.193,87.506,58,85ZM79.087,66.787L78.143,80H63.766C69.1,75.39,76.526,68.993,79.087,66.787ZM76,64L55,83l7-13H52L73,51,66,64H76Zm1-4H72s0.859-1.732,1.992-4h5.865l-0.409,5.729A2.93,2.93,0,0,0,77,60Z"/>
</svg>
