<svg id="ico_dynamite_inactive" xmlns="http://www.w3.org/2000/svg" width="128" height="128" viewBox="0 0 128 128">
  <defs>
    <style>
      .cls-1 {
        fill: #fff;
        fill-rule: evenodd;
      }
    </style>
  </defs>
  <path id="Ellipse_1_copy_3" data-name="Ellipse 1 copy 3" class="cls-1" d="M87.654,66L88,60a6,6,0,0,0-6-6H79V52a4,4,0,0,1,4-4H93a4,4,0,0,1,4,4L95.5,66H87.654ZM61,42h4c0-7.732,4-9.582,4-14a8,8,0,0,0-16,0c0,4.418,4,6.268,4,14V58H80a3.742,3.742,0,0,1,4,4l-3,46a4.548,4.548,0,0,1-4,4H51a4.554,4.554,0,0,1-4-4L44,62a3.737,3.737,0,0,1,4-4h5V42c0-6.627-4-7.373-4-14a12,12,0,0,1,24,0c0,6.627-4,7.373-4,14h2a4,4,0,0,1,4,4v8H61V42Zm10,66h6v-6H71v6Zm0-10h6V92H71v6Zm0-10h6V82H71v6ZM51,108H67v-6H51v6ZM61,92v6h6V92H61Zm6-4V82H61v6h6ZM51,98h6V92H51v6Zm0-10h6V82H51v6Zm0-10H77V62H51V78ZM49,54H46a6,6,0,0,0-6,6l0.346,6H32.5L31,52a4,4,0,0,1,4-4H45a4,4,0,0,1,4,4v2ZM41.615,88H29L27,70H40.577Zm1.154,20H37L35.286,92h6.56ZM92.714,92L91,108H85.231l0.923-16h6.56ZM87.423,70H101L99,88H86.385Z"/>
</svg>
