<svg id="ico_boost_inactive" xmlns="http://www.w3.org/2000/svg" width="128" height="128" viewBox="0 0 128 128">
  <defs>
    <style>
      .cls-1 {
        fill: #fff;
        fill-rule: evenodd;
      }
    </style>
  </defs>
  <path id="Shape_34_copy_2" data-name="Shape 34 copy 2" class="cls-1" d="M100.063,81.341a36.685,36.685,0,0,1-14.01,12.49L88,106H72l-3.181-6.626a60.606,60.606,0,0,1-8.824.641A59.343,59.343,0,0,1,45.7,98.288L42,106H26l2.5-15.6C20.768,84.668,16,76.839,16,68.2a25.19,25.19,0,0,1,4.674-14.344A16,16,0,0,1,33.986,28.985c0.271,0,.536.027,0.8,0.041a8.951,8.951,0,0,0-3.7,14.987,50.158,50.158,0,0,1,15.482-6.43L49.5,43.8c-5.751,1.178-8.641,3.33-9.5,4.182-2.917,2.908.008,7.018,4,3.988a15.619,15.619,0,0,1,6.746-2.431L49,67h9L52,87,72,59H60l5.488-9.407A15.789,15.789,0,0,1,72,52c4.03,2.964,6.917-1.083,4-4-0.831-.831-3.57-2.9-9-4.1V36.43c1.8,0.215,3.564.5,5.282,0.866C77.355,28.944,86.439,24,98.065,24l-6.73,21.7a35.879,35.879,0,0,1,7.154,7L112,57V77ZM84.012,55.006a8,8,0,0,0-2.684,15.529C80.138,74.064,79,77.763,79,79a5,5,0,0,0,10,0c0-1.237-1.136-4.93-2.326-8.457A8,8,0,0,0,84.012,55.006Z"/>
</svg>
