<svg id="ico_brick_active" xmlns="http://www.w3.org/2000/svg" width="128" height="128" viewBox="0 0 128 128">
  <defs>
    <style>
      .cls-1 {
        fill: #fff;
        fill-rule: evenodd;
      }
    </style>
  </defs>
  <path id="Whole" class="cls-1" d="M95.751,101.15l-25.7,6.78-4.656-2.646L62.7,109.867,55.36,111.8a5.711,5.711,0,0,1-6.984-3.969L32.634,50l2.2-6.391-5.148-4.454-1.476-5.422a5.605,5.605,0,0,1,4.032-6.875L72.63,16.2a5.712,5.712,0,0,1,6.984,3.969l4.919,18.074-2.688,4.583L86.5,45.475l7.871,28.918L94.5,82.108l3.8,6.745,1.476,5.422A5.6,5.6,0,0,1,95.751,101.15ZM68.616,37.6A8.568,8.568,0,0,0,58.14,31.648L50.8,33.585A8.407,8.407,0,0,0,44.748,43.9a8.568,8.568,0,0,0,10.475,5.954l7.344-1.937A8.407,8.407,0,0,0,68.616,37.6Zm6.4,23.5a8.568,8.568,0,0,0-10.476-5.954l-7.344,1.937a8.407,8.407,0,0,0-6.048,10.313,8.568,8.568,0,0,0,10.475,5.954l7.344-1.937A8.407,8.407,0,0,0,75.011,61.1Zm6.4,23.5A8.568,8.568,0,0,0,70.931,78.64l-7.344,1.937A8.407,8.407,0,0,0,57.539,90.89a8.568,8.568,0,0,0,10.475,5.954l7.344-1.937A8.407,8.407,0,0,0,81.406,84.594Z"/>
</svg>
