<svg id="ico_sandvich_inactive" xmlns="http://www.w3.org/2000/svg" width="128" height="128" viewBox="0 0 128 128">
  <defs>
    <style>
      .cls-1 {
        fill: #fff;
        fill-rule: evenodd;
      }
    </style>
  </defs>
  <path id="Ellipse_9_copy_7" data-name="Ellipse 9 copy 7" class="cls-1" d="M111,78s-5.75,5.885-8,8a16.488,16.488,0,0,1-11,16L66,94c2.332-12.894-10.528-15.064-20-6L30,83V77L18,72l10.075-6.975L28,65l-1-8L59.015,43.726a6.384,6.384,0,0,1-3.381-3.913c-1-3.731,2.132-7.906,7.212-10.044L62,23l3-7,4,6,0.206,6.392c4.753-.123,8.713,1.862,9.61,5.209,0.956,3.569-1.876,7.54-6.572,9.749L87,55c11.128-1.728,14.834,5.171,15,11.057a13.512,13.512,0,0,1-.988,5.285ZM91,92l14-13-5.954-3.969A21.356,21.356,0,0,1,89,83L67.806,77.471A10.261,10.261,0,0,1,69,85ZM26,71l20,7c4.852-5.063,15.086-6.552,20.188-2.34C67.41,63.969,55.133,62.261,46,71L34,67ZM64,35c-2.768,0-5.011,1.567-5.011,3.5S61.236,42,64,42s5.011-1.567,5.011-3.5S66.772,35,64,35ZM85,58L69.756,45.446,70,53l-4,2-1.2-9.627L33,59l13,4c7.034-7.34,25.386-7.175,23,7l20,5c5.654-1.308,8.417-5.7,8.118-9.932C96.8,60.511,92.865,56.526,85,58ZM21.8,88.3c1.544,0,2.8,1.66,2.8,3.708s-1.252,3.708-2.8,3.708S19,94.06,19,92.012,20.252,88.3,21.8,88.3Zm8.92,11.993c2.228-1.28,5.5.2,7.3,3.3s1.455,6.657-.774,7.937-5.495-.2-7.3-3.3S28.488,101.577,30.716,100.3Zm22-4.743c2.983-.795,5.832.164,6.365,2.142s-1.453,4.226-4.436,5.021-5.832-.164-6.365-2.142S49.735,96.349,52.717,95.554Z"/>
</svg>
