<svg id="ico_harvester_inactive" xmlns="http://www.w3.org/2000/svg" width="128" height="128" viewBox="0 0 128 128">
  <defs>
    <style>
      .cls-1 {
        fill: #fff;
        fill-rule: evenodd;
      }
    </style>
  </defs>
  <path id="Ellipse_2_copy_2" data-name="Ellipse 2 copy 2" class="cls-1" d="M64,76c-12.877,0-23.926,3.2-29,8l2-11c7.045-4.287,11-9.852,11-18,0-4.293,2.575-8.082,6.515-10.448a11,11,0,1,1,18.97,0C77.426,46.918,80,50.707,80,55c0,8.148,3.955,13.713,11,18l2,11C87.926,79.2,76.877,76,64,76Zm0-42a5,5,0,1,0,5,5A5,5,0,0,0,64,34ZM58,86a6,6,0,1,1,6,6A6,6,0,0,1,58,86ZM44.725,82.759c1.927,2.545,5.357,4.628,9.643,5.9a9.989,9.989,0,0,0,19.264,0c4.286-1.269,7.716-3.352,9.643-5.9C88.639,84.581,92,87.148,92,90c0,5.523-12.536,10-28,10S36,95.523,36,90C36,87.148,39.361,84.581,44.725,82.759Z"/>
</svg>
