<svg id="ico_chekov_tier_2" xmlns="http://www.w3.org/2000/svg" width="128" height="128" viewBox="0 0 128 128">
  <defs>
    <style>
      .cls-1, .cls-2 {
        fill: #fff;
        fill-rule: evenodd;
      }

      .cls-1 {
        opacity: 0.5;
      }
    </style>
  </defs>
  <path id="Shape_35_copy_5" data-name="Shape 35 copy 5" class="cls-1" d="M44.116,89.808L56,94.36,63.92,76.151,69.465,94.36l8.714-5.121,1.584,7.4,30.894-4.552L72.634,112l-2.377-7.4-8.714,5.121-3.961-4.552L53.622,112,25.9,95.5l19.8,1.707-1.584-7.4"/>
  <path id="Shape_35_copy_6" data-name="Shape 35 copy 6" class="cls-2" d="M112,36l-4-2s3.435,7.558,3,13l-4-1a60.546,60.546,0,0,1,1,10l1,4-2,3,2,2v4l-3,2,2,2v5l-4,2,1,2-1,4-4,3L81,87l-2-4,15-1,2-3L77,80l-1-5,17-1,2-3L76,72l1-5,17-1,2-3L78,64l2-5,9-4-6-1-7,3L73,67l-5-3,1-11,14-5,6,3c2.913-2.471,8.3-8.187,8-16l4,2c0.536-4.96-2-11-2-11l5,2c-0.541-3.871-4-12-4-12A52,52,0,0,1,112,36ZM52,57l-7-3-6,1,9,4,2,5L32,63l2,3,17,1,1,5L33,71l2,3,17,1-1,5L32,79l2,3,15,1-2,4L28,89l-4-3-1-4,1-2-4-2V73l2-2-3-2V65l2-2-2-3,1-4a60.546,60.546,0,0,1,1-10l-4,1c-0.435-5.442,3-13,3-13l-4,2A51.994,51.994,0,0,1,28,16s-3.459,8.129-4,12l5-2s-2.536,6.04-2,11l4-2c-0.3,7.813,5.087,13.529,8,16l6-3,14,5,1,11-5,3Z"/>
</svg>
