<svg id="ico_brick_inactive" xmlns="http://www.w3.org/2000/svg" width="128" height="128" viewBox="0 0 128 128">
  <defs>
    <style>
      .cls-1 {
        fill: #fff;
        fill-rule: evenodd;
      }
    </style>
  </defs>
  <path id="Broken" class="cls-1" d="M87.914,100l4.014-7,4.014-1,6.022,4,1-5,4.014-2L111,91l1,9H87.914ZM95,86l-5,1-6,9H68V89l8-5V73l5-3,2-7H98l5,4v5l-8,3,8,3v7l-3,4ZM58.81,82l-7.025,2-5.018,5-4.014,2c-2.444,1.389-6.618.406-8.029-2L22.68,69l2.007-5-5.018-1-3.011-5a5.182,5.182,0,0,1,2.007-7L55.8,29l9.032,5-5.018,9a8.821,8.821,0,0,0-6.021,1c-3.666,2.084-4.123,6.391-2.007,10L54.8,60c1.956,3.336,6.524,4.466,10.036,3l5.018,4-1,9ZM49.092,63.215l-3.406-5.809a7.729,7.729,0,0,0-10.469-2.762,7.483,7.483,0,0,0-2.805,10.308l3.406,5.809a7.729,7.729,0,0,0,10.469,2.762A7.483,7.483,0,0,0,49.092,63.215ZM56.8,89l5.018,2,2.007,7H47.77l2.007-5Z"/>
</svg>
