<svg id="ico_harvester_active" xmlns="http://www.w3.org/2000/svg" width="128" height="128" viewBox="0 0 128 128">
  <defs>
    <style>
      .cls-1 {
        fill: #fff;
        fill-rule: evenodd;
      }
    </style>
  </defs>
  <path id="Ellipse_2_copy_4" data-name="Ellipse 2 copy 4" class="cls-1" d="M108.25,73C105.5,86.554,95.5,89.5,95.5,89.5s5.665-9.021,7.5-18a50.519,50.519,0,0,0,.142-19.5S111.4,57.512,108.25,73ZM88,80.5s4.179-8.582,5.25-15a62.127,62.127,0,0,0,.75-15s5.7,4.6,3.75,16.5C95.9,78.277,88,80.5,88,80.5ZM82.475,50.653c2.222,4.042,2.556,8.637.416,12.376-4.059,7.1-3.419,13.932.524,21.208l-3.8,10.712c-1.988-6.73-9.882-15.2-20.995-21.676s-22.328-9.14-29.1-7.513l7.292-8.677h0c8.215-.191,14.4-3.049,18.46-10.146,2.139-3.739,6.248-5.745,10.827-5.824a11.075,11.075,0,0,1,1.459-5.6,10.906,10.906,0,0,1,14.973-4.049,11.119,11.119,0,0,1,4.012,15.112A10.942,10.942,0,0,1,82.475,50.653ZM79.547,36.693a4.957,4.957,0,0,0-6.806,1.841A5.054,5.054,0,0,0,74.565,45.4a4.957,4.957,0,0,0,6.806-1.841A5.054,5.054,0,0,0,79.547,36.693ZM34.269,53A20.894,20.894,0,0,1,41.5,37.75c8.687-7.5,15.75-4.949,15.75-4.949A60.866,60.866,0,0,0,44.5,40.75C39.46,44.865,34.269,53,34.269,53ZM22.725,51S21.6,38.867,31,31c10.466-8.755,20.38-5.366,20.38-5.366a48.692,48.692,0,0,0-16.238,9.375C28.331,40.824,22.725,51,22.725,51ZM58.782,93.107a6.065,6.065,0,0,1-2.188-8.243,5.949,5.949,0,0,1,8.167-2.209A6.065,6.065,0,0,1,66.949,90.9,5.949,5.949,0,0,1,58.782,93.107Zm-20.16-23.64c0.661,5.331,5.572,11.656,13.026,16,0.132,0.077.266,0.146,0.4,0.221a10.1,10.1,0,0,0,4.744,10.9A9.914,9.914,0,0,0,70.4,92.91a10.073,10.073,0,0,0,1.275-3.979c0.069-.028.144-0.05,0.212-0.079,3.721,4.284,5.342,8.209,3.921,10.694-2.752,4.81-15.8,2.406-29.144-5.37S24.734,76.2,27.485,71.387C28.906,68.9,33.085,68.357,38.621,69.467Z"/>
</svg>
