<svg id="ico_mine_active" xmlns="http://www.w3.org/2000/svg" width="128" height="128" viewBox="0 0 128 128">
  <defs>
    <style>
      .cls-1 {
        fill: #fff;
        fill-rule: evenodd;
      }
    </style>
  </defs>
  <path id="Shape_2_copy_5" data-name="Shape 2 copy 5" class="cls-1" d="M103.9,54.951c0-17.1-17.865-30.956-39.9-30.956S24.1,37.854,24.1,54.951A26.282,26.282,0,0,0,25,61a24.338,24.338,0,0,1-3-12c0-18.054,18.8-33,42-33s42,14.946,42,33a24.334,24.334,0,0,1-3,12A26.287,26.287,0,0,0,103.9,54.951ZM64,33c15.005,0,27.633,7.6,28,17-4.675-5.586-15.459-9-28-9-11.792,0-21.934,2.943-27,8C38.144,40.064,49.521,33,64,33ZM47,55c0-2.761,7.611-5,17-5s17,2.239,17,5-7.611,5-17,5S47,57.761,47,55ZM83.765,68.966C83.765,71.479,74.916,74,64,74s-19.765-2.521-19.765-5.034c0-.158,1.111-5.571,1.858-9.2C50.141,62.331,56.644,64,64,64s13.862-1.67,17.91-4.232C82.657,63.376,83.765,68.756,83.765,68.966ZM42.084,60.5l-0.783,4.7C36.153,66.978,33,69.37,33,72c0,5.523,13.879,10,31,10s31-4.477,31-10c0-2.63-3.153-5.022-8.3-6.808l-0.783-4.7C97.962,63.485,106,68.862,106,75c0,9.389-18.8,17-42,17S22,84.389,22,75C22,68.862,30.038,63.485,42.084,60.5ZM104,86c-1.264,4.916-3.057,10.085-3.09,10.293C99.506,105.075,83.517,112,64,112c-19.449,0-35.394-6.877-36.894-15.615C27.067,96.161,25.27,90.948,24,86c8.353,6.06,23.425,10,40,10S95.647,92.058,104,86Z"/>
</svg>
