<svg id="ico_chekov_tier_0" xmlns="http://www.w3.org/2000/svg" width="128" height="128" viewBox="0 0 128 128">
  <defs>
    <style>
      .cls-1 {
        fill: #fff;
        fill-rule: evenodd;
      }
    </style>
  </defs>
  <path id="Shape_18_copy_2" data-name="Shape 18 copy 2" class="cls-1" d="M104,77c-3.452-3.809-6.114-4.395-13-4-5.877.337-8.814-6.332-8-11a7.5,7.5,0,0,0,8,4L89,54l7,8,6-2-1,8,5,3,6-6V61s-7.219-11.276-9-14c-2.594-3.969-8.447-4.11-11-3-1.793.78-7.533,3.651-13,6-1.615.694-9.2,1.042-13,1-7.4-.083-16,0-16,0l4,7L33,56l4,7L16,61,49,75l-2-6L69,79l-2-7a24.413,24.413,0,0,1,10,6c5.361,5.345,14,7,14,7l7-2,5,2,3-4A10.017,10.017,0,0,0,104,77Z"/>
</svg>
