<svg id="eng_status_alert_ico_wrench" xmlns="http://www.w3.org/2000/svg" width="128" height="128" viewBox="0 0 128 128">
  <defs>
    <style>
      .cls-1 {
        fill: #fff;
        fill-rule: evenodd;
      }
    </style>
  </defs>
  <path class="cls-1" d="M36.952,50.8l-6.965-8.765,12.19-10.517,12.19-3.506,2.612,2.629ZM75.262,77.1c1.923-1.936,4.509-2.3,6.095-.876L96.01,89.214a6.144,6.144,0,0,1,.155,8.911,6.069,6.069,0,0,1-8.866-.143L74.391,83.233C72.972,81.64,73.338,79.034,75.262,77.1ZM91.8,93.75a2.491,2.491,0,0,0,0-3.506,2.451,2.451,0,0,0-3.483,0,2.49,2.49,0,0,0,0,3.506A2.451,2.451,0,0,0,91.8,93.75Zm-9.577-9.641a2.491,2.491,0,0,0,0-3.506,2.451,2.451,0,0,0-3.483,0,2.491,2.491,0,0,0,0,3.506A2.451,2.451,0,0,0,82.227,84.109ZM76.768,73.29A8.654,8.654,0,0,0,71.5,78.565L57.848,64.827l3.483-3.506L71.779,71.839,77,66.58l1.741,1.753L77,70.086A2.7,2.7,0,0,0,76.768,73.29Zm-7.6-7.587,1.741-1.753L68.3,61.321l1.741-1.753L72.65,62.2l1.741-1.753L77,63.074l-5.224,5.259Zm0-8.765-3.483,3.506-1.741-1.753,3.483-3.506Zm-20.9-14.023,2.612,2.629L60.46,35.9,62.2,37.656,59.589,47.3,62.2,51.68l0.871-.876a1.226,1.226,0,0,1,1.741,0l0.871,0.876a1.245,1.245,0,0,1,0,1.753L55.236,63.95a1.225,1.225,0,0,1-1.741,0l-0.871-.876a1.245,1.245,0,0,1,0-1.753l1.741-1.753-3.483-3.506-2.612,2.629-5.224-5.259,3.483-3.506L43.917,47.3Z"/>
</svg>
