<svg id="hud_obj_status_sentry_2" xmlns="http://www.w3.org/2000/svg" width="128" height="128" viewBox="0 0 128 128">
  <defs>
    <style>
      .cls-1 {
        fill: #fff;
        fill-rule: evenodd;
      }
    </style>
  </defs>
  <path id="Ellipse_6_copy_15" data-name="Ellipse 6 copy 15" class="cls-1" d="M117,52V50h2v2h-2Zm0-6h2v2h-2V46Zm0-4h2v2h-2V42Zm-4-2h2V54h-2V40Zm-4,10h2v2h-2V50Zm0-4h2v2h-2V46Zm0-4h2v2h-2V42Zm-4-2h2V54h-2V40ZM95,50h8v2H95V50Zm0-4h8v2H95V46Zm0-4h8v2H95V42Zm3,68L88,120l-2-2,2-2L70,98V94l-3.493-3.493a4.492,4.492,0,0,0,2-2L72,92h3l0.088-.088c-0.016.03-.039,0.058-0.056,0.088H76l18,18,2-2ZM91,40h2V54H91V40ZM87,50h2v2H87V50Zm0-4h2v2H87V46Zm0-4h2v2H87V42Zm-4-2h2V54H83V40ZM77,50h4v2H77V50Zm0-4h4v2H77V46Zm0-4h4v2H77V42Zm-9,6a17.458,17.458,0,0,1,.241-3H71V41H50v4h1.16A12.752,12.752,0,0,0,51,47c0,2.725-.1,5.4-0.292,8H48a2,2,0,0,1-2-2V41a2,2,0,0,1,2-2H75V55H67.742C67.909,52.713,68,50.378,68,48ZM47,33l3-3,7,7H51Zm-6.6-8.223A9.025,9.025,0,0,0,34,22c-5.523,0-10,5.373-10,12s4.477,12,10,12h2V45a1,1,0,0,1,1-1h7v6H37a1,1,0,0,1-1-1V48H34c-6.627,0-12-6.268-12-14s5.373-14,12-14a11.013,11.013,0,0,1,7.823,3.384c2.557,2.567,3.9,3.891,6,6-0.536.536-.94,0.906-1.426,1.393ZM34,50a2,2,0,0,0,2,2h2.556l0.111,1H9.476l1.143-12H21.426C23.7,46.323,28.468,50,34,50ZM11,37l6-1h3.121a17.862,17.862,0,0,0,.586,3h-9.9Zm6-3a2,2,0,0,1,2-2h1.121A18.341,18.341,0,0,0,20,34H17ZM41,55l-0.375-3H44v1a3.959,3.959,0,0,0,.555,2H41Zm3-15v2H39.375L39,39h5.184A2.972,2.972,0,0,0,44,40Zm-6.556,2H36a2,2,0,0,0-2,2,7.3,7.3,0,0,1-5.709-3h9.042ZM26.161,32H36a2,2,0,0,1,2,2H26A12.471,12.471,0,0,1,26.161,32ZM44,37H38a1,1,0,0,0-1,1l0.111,1H27.079a11.527,11.527,0,0,1-.918-3H38ZM39,56a1,1,0,0,0,1,1h5.9L46,58H40l-2,2H17l-2-2H9l0.286-3h29.6ZM25,125H10v-3H22Zm3-23a7.009,7.009,0,0,1,5,2l7.348-4.593,2.215,3.836L34,108H32a4.448,4.448,0,0,0-4-2,4.6,4.6,0,0,0-1.216.176l-4.3-2.485A11.315,11.315,0,0,1,28,102ZM70.777,75.9l-3.864,1.035L67.135,77.7l-4.382.313q0.635-1.6,1.2-3.307L71,73ZM67,43a8.687,8.687,0,0,0-.965,4H53a7.657,7.657,0,0,1,1-4H67Zm-1.012,6q-0.025,2.466-.174,4.864l-13.023-.814q0.124-1.994.168-4.049H65.988Zm-0.317,6.859c-0.139,1.686-.336,3.33-0.56,4.95L52.175,59.151c0.177-1.345.335-2.709,0.453-4.107Zm-0.86,6.928c-0.3,1.869-.677,3.67-1.087,5.428l-12.6-2.952c0.286-1.346.551-2.716,0.772-4.132Zm-1.562,7.371c-0.456,1.739-.968,3.407-1.523,5.008L49.435,71.689q0.685-2.156,1.247-4.475ZM61.03,77.046a51.247,51.247,0,0,1-2.253,5.035L47.084,77.769c0.608-1.335,1.19-2.713,1.712-4.182ZM46.97,71.722a4.444,4.444,0,0,0-1.528-1.912l2.722-1.945C47.795,69.188,47.4,70.481,46.97,71.722ZM57.811,83.856a33.157,33.157,0,0,1-3.4,4.881L43.745,83.807a39.233,39.233,0,0,0,2.484-4.222ZM42.875,71a2.5,2.5,0,1,1-2.5,2.5A2.5,2.5,0,0,1,42.875,71Zm10.12,19.285a17.727,17.727,0,0,1-4.722,3.453l-8.414-5.3a27.22,27.22,0,0,0,2.695-2.974ZM38.6,72.232c-0.187-1.288-.323-2.607-0.422-3.946l2.134,1.524A4.453,4.453,0,0,0,38.6,72.232ZM43,95a14.809,14.809,0,0,1-8-3,19.5,19.5,0,0,0,3.3-2.187l7.61,4.8A11.463,11.463,0,0,1,43,95ZM29.027,87.074l10.836-2.963c0.15,0.357.282,0.736,0.441,1.082-2.688,2.986-5.779,4.718-9.074,4.8A27.328,27.328,0,0,1,29.027,87.074ZM39.1,82.245L27.922,85.3a37.034,37.034,0,0,1-2.047-4.08l12.189-2.2Q38.536,80.681,39.1,82.245ZM37.558,77.08L25.123,79.326a46.939,46.939,0,0,1-1.409-4.53l13.041-1.625C36.973,74.511,37.251,75.808,37.558,77.08Zm-1.084-5.89L23.266,72.836c-0.292-1.356-.553-2.736-0.745-4.164l13.636-.631C36.231,69.108,36.344,70.154,36.474,71.19ZM16.7,119.99l-5.2-3L19,104l5.2,3Zm3.9-12.758a1,1,0,0,0-1.366.366l-4.5,7.794a1,1,0,0,0,1.732,1l4.5-7.794A1,1,0,0,0,20.6,107.232ZM22.291,66.68c-0.15-1.53-.246-3.091-0.273-4.68H36.042C36.02,62.663,36,63.328,36,64c0,0.689.028,1.365,0.051,2.044ZM62,86.5A2.5,2.5,0,1,1,64.5,89,2.5,2.5,0,0,1,62,86.5ZM43,97c7.545,0,14.3-6.561,18.889-16.921L77,79s0.918,3.379-.584,9.432q-0.2.792-.472,1.568H73.733a11.892,11.892,0,0,0,.946-7.126H74.655a1.483,1.483,0,0,0-1.1-1.373,1.5,1.5,0,0,0-1.826,1.08,1.475,1.475,0,0,0-.01.654l-0.02,0a8.841,8.841,0,0,1-.465,4.992l-2.286-2.286a4.489,4.489,0,1,0-5,5l2.322,2.322a8.947,8.947,0,0,1-5.649.4,1.5,1.5,0,1,0-.747,2.906A11.948,11.948,0,0,0,68,95.787v1.955a23.654,23.654,0,0,1-3.536,1.041c-6.836,1.467-17.151,3.55-19.808,4.085L41.187,96.86A12.934,12.934,0,0,0,43,97Zm25.528,2.528,5.722,5.722L69,107l-1.964-7.126,0.428-.091C67.836,99.7,68.179,99.614,68.528,99.528ZM93.05,120a2.5,2.5,0,1,1,4.9,0H98l3,1v4H90v-4l3-1h0.05Z"/>
</svg>
