<svg id="hud_obj_status_dispenser_0" xmlns="http://www.w3.org/2000/svg" width="128" height="128" viewBox="0 0 128 128">
  <defs>
    <style>
      .cls-1 {
        fill: #fff;
        fill-rule: evenodd;
      }
    </style>
  </defs>
  <path id="Shape_47_copy" data-name="Shape 47 copy" class="cls-1" d="M99,63H95c1.6-3,6.43-6,9.985-6L107,60A11.424,11.424,0,0,0,99,63Zm-5,0H91V57.221A2.981,2.981,0,0,0,92,55V54a2.975,2.975,0,0,0-.586-1.767C92.433,48.689,95,45.77,95,42a8.49,8.49,0,0,0-5-8V31s8,1.484,8,11c0,6.641-4,8.266-4,13v8Zm-4-8a1,1,0,0,1-1,1H41a1,1,0,0,1-1-1V54a1,1,0,0,1,1-1H89a1,1,0,0,1,1,1v1ZM85,28a2,2,0,0,0-2-2H47a2,2,0,0,0-2,2V51H42V15a2,2,0,0,1,2-2H86a2,2,0,0,1,2,2V51H85V28ZM81,17a2,2,0,0,0-2-2H51a2,2,0,0,0-2,2v5a2,2,0,0,0,2,2H79a2,2,0,0,0,2-2V17ZM51,17H79v5H51V17ZM21,62H39v6H21V62Zm6-18h6v3H27V44Zm6.973,7A3.022,3.022,0,0,1,37,54v6H23V54a3,3,0,0,1,3-3c1.023,0,1-2,1-2h6S33.013,51,33.973,51ZM32,38.769V42H28V38.769A9,9,0,1,1,32,38.769ZM30,23a7,7,0,1,0,7,7A7,7,0,0,0,30,23Zm0,12a5,5,0,1,1,3.36-8.68L30,28a2,2,0,1,0,2,2l1.68-3.36A4.982,4.982,0,0,1,30,35ZM21,89h5V87h8v6H26V91H21v3H19V86h2v3Zm7,9.627V95h5v3.627A5.3,5.3,0,0,0,28,98.627ZM30.5,100a3.5,3.5,0,1,1-3.5,3.5A3.5,3.5,0,0,1,30.5,100ZM23,83V70H37V83a2,2,0,0,1-2,2H25A2,2,0,0,1,23,83Zm12.373,18H38v5H35.373A5.3,5.3,0,0,0,35.373,101ZM41,58H89V92H41V58ZM52,87a2,2,0,0,0,2,2H76a2,2,0,0,0,2-2V79a2,2,0,0,0-2-2H54a2,2,0,0,0-2,2v8ZM47,67a2,2,0,0,0,2,2H81a2,2,0,0,0,2-2V62a2,2,0,0,0-2-2H49a2,2,0,0,0-2,2v5Zm5.5-5A2.5,2.5,0,1,1,50,64.5,2.5,2.5,0,0,1,52.5,62ZM65,62a2.5,2.5,0,1,1-2.5,2.5A2.5,2.5,0,0,1,65,62Zm12.5,0A2.5,2.5,0,1,1,75,64.5,2.5,2.5,0,0,1,77.5,62ZM55,79H75a1,1,0,0,1,1,1v6a1,1,0,0,1-1,1H55a1,1,0,0,1-1-1V80A1,1,0,0,1,55,79ZM41,94H89a1,1,0,0,1,1,1v23H40V95A1,1,0,0,1,41,94Zm60-24H91V65h10v5ZM94,81c0,1.422.781,3,2,3a2.767,2.767,0,0,0,3-3c0-1.94-3-4.759-3-9h3c-0.031,2.966,3,5.033,3,9a5.861,5.861,0,0,1-6,6c-3.719,0-5-2.953-5-6V72h3v9Z"/>
</svg>
