<svg id="hud_upgrade_b" xmlns="http://www.w3.org/2000/svg" width="128" height="128" viewBox="0 0 128 128">
  <defs>
    <style>
      .cls-1 {
        fill: #fff;
        fill-rule: evenodd;
      }
    </style>
  </defs>
  <path id="B" class="cls-1" d="M64,100a36,36,0,1,1,36-36A36,36,0,0,1,64,100Zm6-39.5s6.323-2.767,5.489-11.053C74.592,40.521,63.075,39,57.5,39H49l0.5,7H53L52.5,82h-2L51,89s3.511,0.277,9.17.277c12.454,0,22.33-5.649,22.33-14.777C82.5,61.926,70,60.5,70,60.5Zm-9.5,22L60,66s15-.787,15,8C75,83.107,60.5,82.5,60.5,82.5ZM59.66,58.638L59,46s9.851-.564,9.851,4.468C68.851,57,59.66,58.638,59.66,58.638Z"/>
</svg>
