<svg id="hud_obj_status_kill_128" xmlns="http://www.w3.org/2000/svg" width="128" height="128" viewBox="0 0 128 128">
  <defs>
    <style>
      .cls-1 {
        fill: #fff;
        fill-rule: evenodd;
      }
    </style>
  </defs>
  <path id="Ellipse_1_copy_10" data-name="Ellipse 1 copy 10" class="cls-1" d="M64,100a36,36,0,1,1,36-36A36,36,0,0,1,64,100ZM48.25,86.5s6.392,5.245,7.875,6.75c2.32,2.356,13.43,2.356,15.75,0,1.483-1.505,7.875-6.75,7.875-6.75l1.125-10.125-4.5-1.125S77.508,86.5,64,86.5,51.625,75.25,51.625,75.25l-4.5,1.125Zm36-45c-2.039-4.184-10.055-9-20.25-9s-18.211,4.816-20.25,9-2.977,11.933-1.125,15.75c1.6,3.3-3.293,8.7,2.25,12.375a16.164,16.164,0,0,0,7.875,2.25l1.125,3.375,3.375,3.375h13.5l3.375-3.375,1.125-3.375a16.164,16.164,0,0,0,7.875-2.25c5.543-3.679.65-9.077,2.25-12.375C87.227,53.433,86.289,45.684,84.25,41.5ZM76.313,66.146a6.959,6.959,0,0,1-7.262-4.458C68.016,58.652,68.408,55,71.126,55c3.065,0,7.264,1.423,8.3,4.458S78.989,65.636,76.313,66.146ZM64,73c-7.58,0,0-7.875,0-7.875S71.6,73,64,73ZM51.687,66.146c-2.676-.51-4.148-3.652-3.112-6.687S53.809,55,56.874,55c2.718,0,3.111,3.652,2.075,6.687A6.959,6.959,0,0,1,51.687,66.146Z"/>
</svg>
