<svg id="hud_obj_status_sentry_3" xmlns="http://www.w3.org/2000/svg" width="128" height="128" viewBox="0 0 128 128">
  <defs>
    <style>
      .cls-1 {
        fill: #fff;
        fill-rule: evenodd;
      }
    </style>
  </defs>
  <path class="cls-1" d="M78.907,116.275L72.893,97.249l-0.85-6.008-2.276-7.2c0.4-.844.8-1.794,1.194-2.858l2.989,9.457L76.76,92.9l6.315,19.977,2.861-.9,0.6,1.9ZM79,86.952l-2.253,3.8-0.89-.714L74.95,87.171A9.3,9.3,0,0,0,77.4,74.278a9.942,9.942,0,0,0-3.085-2.965,1.67,1.67,0,0,0-.939-0.3q0.143-1.074.255-2.22A14.306,14.306,0,0,1,79,72.987C82.206,76.973,82,81.883,79,86.952Zm-4.873-2.383-2.116-6.693c0.366-1.341.7-2.815,0.986-4.428a7.631,7.631,0,0,1,2.158,2.12A6.933,6.933,0,0,1,74.128,84.569Zm-6.8,3.6c0.335-.447.715-1,1.119-1.663l1.688,5.34,0.85,6.008,0.543,1.716L66,108.9,62,106.9,67,93A8.687,8.687,0,0,0,67.329,88.165ZM81.05,120a2.5,2.5,0,1,1,4.9,0H86l3,1v4H78v-4l3-1h0.05ZM17,124H38v2H17v-2Zm23-3H52l3,3H40v-3Zm1.375-10.969-0.625,4.063L38,113ZM24,120h8v2H24v-2Zm2.5-2L33,92l4,1-6.5,25h-4Zm21.575,1H42l2.343-14.816,5.926,0.937Zm-1.081-12.372a1,1,0,0,0-1.144.832l-1.406,8.889a1,1,0,0,0,1.975.313l1.406-8.89A1,1,0,0,0,46.994,106.628Zm22.921-.414,2.427-4.08,0.951,3.024ZM40.743,114.1L38,113s1.342-1.3,3.37-2.954ZM52.469,104h3.969l3.406,2.938-0.344.968L61.718,109H58a3.383,3.383,0,0,0-3-2,7.207,7.207,0,0,0-3.155,1.055Zm-16.094-.594,1.094-4.25L52,96.375v4.906ZM54,102h2l1-7c0-.654-3-0.639-3,0v7Zm4.813-5.594,3.781,2.969-2.031,5.563-2.625-2.282ZM59,55H72v4H59V55Zm0-6H72v4H59V49Zm0-6H72v4H59V43Zm0-6H72v4H59V37Zm0-6H72v4H59V31ZM72,61q0,2.094-.1,4H58.916Q59,63.071,59,61H72ZM71.343,71H58.459q0.212-1.906.35-4H71.776Q71.612,69.121,71.343,71Zm-1.2,6H57.564c0.235-1.243.455-2.576,0.648-4H71.025C70.768,74.448,70.471,75.778,70.147,77Zm-2.123,6H56.153c0.334-1.17.677-2.5,1-4H69.564A34.775,34.775,0,0,1,68.024,83ZM55.542,85H67a14.91,14.91,0,0,1-3,4H54A32.713,32.713,0,0,0,55.542,85ZM117,45V43h2v2h-2Zm0-6h2v2h-2V39Zm0-4h2v2h-2V35Zm-4-2h2V47h-2V33Zm-4,10h2v2h-2V43Zm0-4h2v2h-2V39Zm0-4h2v2h-2V35Zm-4-2h2V47h-2V33ZM97,43h6v2H97V43Zm0-4h6v2H97V39Zm0-4h6v2H97V35Zm-4-2h2V47H93V33ZM89,43h2v2H89V43Zm0-4h2v2H89V39Zm0-4h2v2H89V35Zm-4-2h2V47H85V33ZM81,43h2v2H81V43Zm0-4h2v2H81V39Zm0-4h2v2H81V35ZM78,47V42H74V35h2V33h3V47H78ZM57,42H53v4.829A3,3,0,0,1,51,44V36a3,3,0,0,1,3-3h1v2h2v7Zm-2,2h2v6H55V44Zm19,0h2v6H74V44ZM47.909,76.338c-0.463-.614-0.956-1.213-1.478-1.788l8.545-8.207c0.643,0.858,1.209,1.686,1.7,2.449q-0.07.81-.152,1.589Zm-4.633-4.616L50.47,61.363a33.86,33.86,0,0,1,3.259,3.4l-8.71,8.366A18.392,18.392,0,0,0,43.276,71.722Zm-3.964-2.033,5.161-12.458a25.344,25.344,0,0,1,4.462,2.835l-7.36,10.6A14.268,14.268,0,0,0,39.312,69.689ZM39,55.378a21.186,21.186,0,0,1,3.642,1.048L39,65.217V55.378Zm16.431,22.17L50.339,80.1c-0.392-.706-0.819-1.419-1.281-2.126L56.2,73.037C55.972,74.665,55.71,76.169,55.431,77.548Zm-0.56,2.518a52.963,52.963,0,0,1-1.816,6.005,43.929,43.929,0,0,0-1.79-4.2ZM37,73l-2,2v4l-3-.286v-28.6L33,50a1,1,0,0,0,1-1V47.1l1-.1v4l2,2V73ZM17,50V43H32v5Zm0,27.286L14,77l-1-4V53l1-4,1-.1V51a1,1,0,0,0,1,1l1-.118v25.4Zm13,1.238L19,77.476V51.647l11-1.294V78.524ZM43,39h6v4H45a2,2,0,0,1-2-2V39ZM32.91,23l-1.816-4.125L26.969,17.5l-2.531-1.781L19.625,14.5C18.817,14.295,17,14.094,17,14.094V4H48V23H32.91ZM18,20.313l1.625,2.531L19.893,23H17V20.141Zm32-3.969L52,17v2l-2,.656V16.344Zm0-9L52,8v2l-2,.656V7.344Zm-30.562,11.5,1.625,2.531,2.563,1.5,1.25,1.938,3.563-4.719-2.375-.781-2.469-1.719-3.031-.781-1.125,2.031M26.5,26.031L30,21.344l2,4.531L30,27.25Zm7.813,0.125L33.813,25H40.3a10.627,10.627,0,0,1-5.549,1.946ZM25,34l2.207,2.758c-0.35.039-1.887,0.2-3.585,0.235a4,4,0,1,0-5.894-.717,18.883,18.883,0,0,1-2.336-.769A4.225,4.225,0,0,1,16.6,30.391c1.094-.807,4.24-3.208,6.356-4.826l1.106,1.717,4.1,1.449Zm-4-2a2,2,0,1,1-2,2A2,2,0,0,1,21,32Zm13,9.344,1.906-.688a13.129,13.129,0,0,1-.531,2.188A12.166,12.166,0,0,1,34,45.406V41.344Zm2.719,3.469a13.592,13.592,0,0,0,2.125-2.437,14.928,14.928,0,0,0,1.625-3.031,15.668,15.668,0,0,0-2.5.625,8.952,8.952,0,0,1-.313,2.125A16.778,16.778,0,0,1,36.719,44.813ZM49,37V35.875A4.2,4.2,0,0,1,49.094,35H44.75C34.5,35,34.189,39,23,39,12.349,39,5,31.548,5,26.031,5,20.444,10.5,18,15.063,18a9.435,9.435,0,0,1,2.438.188l1.031-1.844A20.832,20.832,0,0,0,15.063,16C9.4,15.91,3,19.326,3,26.031,3,32.631,11.285,41,23,41c11.7,0,11.668-4,21.75-4H49ZM31.219,28.844l1.656-1.125a21.631,21.631,0,0,1,1.406,2.969c0.629,1.654,1.156,3.75,1.156,3.75s-0.492.141-.969,0.313-0.906.375-.906,0.375-0.368-1.561-.906-3.062A27.9,27.9,0,0,0,31.219,28.844Zm8.75,4.5s0.06-1.574-.031-3.063a23.958,23.958,0,0,0-.312-2.562,8.229,8.229,0,0,0,.938-0.469,9.509,9.509,0,0,0,.906-0.625s0.311,1.643.437,3.281a31.633,31.633,0,0,1,.063,3.188s-0.489.034-1,.1C40.481,33.252,39.969,33.344,39.969,33.344Z"/>
</svg>
