<svg id="hud_obj_status_teleport_128" xmlns="http://www.w3.org/2000/svg" width="128" height="128" viewBox="0 0 128 128">
  <defs>
    <style>
      .cls-1 {
        fill: #fff;
        fill-rule: evenodd;
      }
    </style>
  </defs>
  <path id="Ellipse_2_copy_3" data-name="Ellipse 2 copy 3" class="cls-1" d="M64,100a36,36,0,1,1,36-36A36,36,0,0,1,64,100ZM91,55c0-4.418-12.088-8-27-8s-27,3.582-27,8c0,1.669,1.729,3.218,4.68,4.5C38.729,60.782,37,62.331,37,64s1.729,3.218,4.68,4.5C38.729,69.782,37,71.331,37,73c0,4.418,12.088,8,27,8s27-3.582,27-8c0-1.669-1.729-3.218-4.68-4.5C89.271,67.218,91,65.669,91,64s-1.729-3.218-4.68-4.5C89.271,58.218,91,56.669,91,55ZM80.379,66.651A75.873,75.873,0,0,0,64,65a75.873,75.873,0,0,0-16.379,1.651C45.346,65.758,44,64.673,44,63.5c0-.9.8-1.747,2.195-2.5A72.96,72.96,0,0,0,64,63a72.96,72.96,0,0,0,17.805-2C83.2,61.753,84,62.6,84,63.5,84,64.673,82.654,65.758,80.379,66.651ZM75.477,59A61.8,61.8,0,0,1,64,60a61.8,61.8,0,0,1-11.477-1A61.792,61.792,0,0,1,64,58,61.793,61.793,0,0,1,75.477,59Zm4.9-1.349A75.873,75.873,0,0,0,64,56a75.873,75.873,0,0,0-16.379,1.651C45.346,56.758,44,55.673,44,54.5c0-3.038,8.954-5.5,20-5.5s20,2.462,20,5.5C84,55.673,82.654,56.758,80.379,57.651ZM52.523,68A61.792,61.792,0,0,1,64,67a61.793,61.793,0,0,1,11.477,1A61.8,61.8,0,0,1,64,69,61.8,61.8,0,0,1,52.523,68Zm29.282,2C83.2,70.753,84,71.6,84,72.5c0,3.038-8.954,5.5-20,5.5s-20-2.462-20-5.5c0-.9.8-1.747,2.195-2.5A72.96,72.96,0,0,0,64,72,72.96,72.96,0,0,0,81.805,70Z"/>
</svg>
