<svg id="hud_upgrade_3" xmlns="http://www.w3.org/2000/svg" width="128" height="128" viewBox="0 0 128 128">
  <defs>
    <style>
      .cls-1 {
        fill: #fff;
        fill-rule: evenodd;
      }
    </style>
  </defs>
  <path id="_3" data-name="3" class="cls-1" d="M64,100a36,36,0,1,1,36-36A36,36,0,0,1,64,100Zm0.5-62A31.03,31.03,0,0,0,50,41.5l2.5,9S57.17,46,67,46c7.4,0,8,3.3,8,6,0,8.957-17.5,8-17.5,8v7.5H65c5.745,0,8,3.043,8,6,0,2.617-4.4,6.5-13,6.5-3.191,0-7.5-.5-7.5-0.5l1,7a57.987,57.987,0,0,0,12.5,0c9.449-1.151,16-5.2,16-12.5,0-8.959-7.021-11.106-7.021-11.106S84,60.053,84,50.5C84,42.5,74.758,38,64.5,38Z"/>
</svg>
