<svg id="hud_obj_status_tele_entrance" xmlns="http://www.w3.org/2000/svg" width="128" height="128" viewBox="0 0 128 128">
  <defs>
    <style>
      .cls-1 {
        fill: #fff;
        fill-rule: evenodd;
      }
    </style>
  </defs>
  <path id="Rectangle_20_copy_3" data-name="Rectangle 20 copy 3" class="cls-1" d="M109,83h11l2,3H107ZM93.083,88H127s-5.9,12.766-7,15c-1.06,2.145-3.742,2.568-5.763,2.053L116,98h-2l-1.645,6.578c-0.534-.128-1.176-0.277-1.89-0.437L112,98h-2l-1.432,5.728c-0.6-.127-1.245-0.259-1.9-0.392L108,98h-2l-1.241,4.964A95.627,95.627,0,0,0,89,101H71a4,4,0,0,1,0-8h7l3-5h5.155l2.381-4.124a3,3,0,0,1,5.2,3Zm-1.449-3.49a1,1,0,0,0-1.366.366L83.845,96H72.723a2,2,0,1,0,0,2H85l7-12.124A1,1,0,0,0,91.634,84.51ZM47,59H57V29H71V59H81L64,76Zm3,34h7a4,4,0,0,1,0,8H39a95.629,95.629,0,0,0-15.759,1.964L22,98H20l1.334,5.336c-0.658.133-1.3,0.265-1.9,0.392L18,98H16l1.535,6.141c-0.715.16-1.357,0.309-1.891,0.437L14,98H12l1.763,7.053c-2.021.515-4.7,0.092-5.763-2.053-1.1-2.234-7-15-7-15H34.917l-0.649-1.124a3,3,0,0,1,5.2-3L41.845,88H47ZM37.732,84.876a1,1,0,1,0-1.732,1L43,98H55.277a2,2,0,1,0,0-2H44.155ZM8,83H19l2,3H6Zm49,8H54V89H74v2H71a5.91,5.91,0,0,0-5.9,7H62.9A5.91,5.91,0,0,0,57,91ZM39,103H57a5.974,5.974,0,0,0,5.168-3h3.664A5.974,5.974,0,0,0,71,103H89c8.073,0,9,4.594,9,6v2H93v-3a3,3,0,0,0-3-3H86a3,3,0,0,0-3,3v3H78l-3-3H53l-3,3H45v-3a3,3,0,0,0-3-3H38a3,3,0,0,0-3,3v3H30v-2C30,107.594,30.927,103,39,103Zm-2,5a1,1,0,0,1,1-1h4a1,1,0,0,1,1,1v4H37v-4Zm1,8v-2h4v2h2l2,2H34l2-2h2Zm47-8a1,1,0,0,1,1-1h4a1,1,0,0,1,1,1v4H85v-4Zm1,8v-2h4v2h2l2,2H82l2-2h2Z"/>
</svg>
