<svg id="hud_obj_status_jumppad" xmlns="http://www.w3.org/2000/svg" width="128" height="128" viewBox="0 0 128 128">
  <defs>
    <style>
      .cls-1 {
        fill: #fff;
        fill-rule: evenodd;
      }
    </style>
  </defs>
  <path id="Shape_15_copy_5" data-name="Shape 15 copy 5" class="cls-1" d="M115.962,107.61A5.11,5.11,0,0,0,116,107a5.013,5.013,0,0,0-.2-1.411c1.564-.315,3.2-0.827,3.2-1.589,0-1.885-7.872-10-13-10-6.2,0-12.464,12-26,12-0.817,0-.834-2,0-2,13.126,0,18.631-12,26-12,5.7,0,15,8.652,15,12C121,106.138,118.24,107.144,115.962,107.61ZM67,81.028v-2c18.554,0.326,35,3.685,35,9.973h-2C100,84.806,85.478,81.367,67,81.028ZM70,28c0,4.866,8,3.3,8,7,0,4.935-13,6-13,6,0-5.315-7-1.377-7-10V23H47L64,6,81,23H70v5ZM61,81.028C42.522,81.367,28,84.806,28,89H26c0-6.3,16.442-9.649,35-9.973v2ZM65,79V89H63V79A1,1,0,0,1,65,79ZM40.476,85H61v2H33.287A30.851,30.851,0,0,1,40.476,85ZM48,63V51c0-11.993,32-4.007,32-16V47C80,58.993,48,51.007,48,63Zm2,0c0-4.934,13-6,13-6,0,3.435,4,4,4,4V73S50,68.993,50,63ZM87.524,85a30.851,30.851,0,0,1,7.189,2H67V85H87.524Zm-1.543,16H82.556L82,93H46.125l-0.611,8H19.177L20,94a3,3,0,0,1,3-3h78.743C96.828,93.26,92.54,98.741,85.981,101ZM44.75,111H18l0.941-8h26.42ZM30,115v-2h4v2h2l3,3H25l3-3h2Zm24-12.625L53.375,111h-6.5l1-14.75ZM57,114a1,1,0,0,0,1,1H70a1,1,0,0,0,0-2h9v3a1,1,0,0,1-1,1H50a1,1,0,0,1-1-1v-3h9A1,1,0,0,0,57,114Zm15.125-11,0.5,8H55.375L56,103H72.125Zm-22.75-8h29.25l-5.083,5.083L72,97H68l-2,4-2-4H56l-1.542,3.083ZM79.5,110a2,2,0,0,0,1.6-1.167L81.25,111H74.625L74,102.375l6.25-6.25,0.291,4.331A1.539,1.539,0,0,0,79.5,100c-1.381,0-2.5,2.239-2.5,5S78.119,110,79.5,110Zm28.811-13.357L108.824,101H97.841c3.426-2.632,5.988-5,8.159-5A5.963,5.963,0,0,1,108.311,96.643ZM109.059,103L110,111H83.25l-0.222-3.189A27.285,27.285,0,0,0,95.088,103h13.971ZM94,115v-2h4v2h2l3,3H89l3-3h2Zm20-8a3,3,0,0,1-2.133,2.872l-0.689-5.863A3,3,0,0,1,114,107Z"/>
</svg>
