<svg id="hud_obj_status_jump_128" xmlns="http://www.w3.org/2000/svg" width="128" height="128" viewBox="0 0 128 128">
  <defs>
    <style>
      .cls-1 {
        fill: #fff;
        fill-rule: evenodd;
      }
    </style>
  </defs>
  <path id="Ellipse_4_copy" data-name="Ellipse 4 copy" class="cls-1" d="M64,100a36,36,0,1,1,36-36A36,36,0,0,1,64,100ZM78.59,86.692c-0.105-.056-0.213-0.1-0.317-0.162a10.07,10.07,0,0,1-3.216-2.953c-5.879,4.735-13.716,7.111-20.66,6.057A28.164,28.164,0,0,0,78.59,86.692Zm-4.122-4.064a10.161,10.161,0,0,1-1.2-3.856,21.64,21.64,0,0,1-16.079,5.491A21.4,21.4,0,0,0,74.468,82.628ZM37.054,65.289c0.1-.063.2-0.133,0.3-0.194a10.07,10.07,0,0,1,4.165-1.308c-1.161-7.459.7-15.434,5.085-20.92A28.163,28.163,0,0,0,37.054,65.289Zm5.581-1.537a10.16,10.16,0,0,1,3.939.891,21.641,21.641,0,0,1,3.284-16.67A21.4,21.4,0,0,0,42.634,63.752ZM65.125,33.625c-6.834,0-12.375,6.548-12.375,14.625a15.92,15.92,0,0,0,3.871,10.606,8.978,8.978,0,0,0-1.444,6.92,5.369,5.369,0,0,1-2.045,1.9c-2.152,1.243-10.67-2.933-14.167-.914s-4.318,7.145-1.833,11.451c3.417,5.919,11.858,7.443,18.853,3.4a15.92,15.92,0,0,0,7.25-8.656C63.488,72.983,63.742,73,64,73a8.956,8.956,0,0,0,5.936-2.247,5.352,5.352,0,0,1,2.682.82C74.77,72.816,75.413,82.281,78.91,84.3s8.347,0.167,10.833-4.138c3.417-5.919.517-13.991-6.478-18.03a15.919,15.919,0,0,0-11.124-1.95,9.014,9.014,0,0,0-5.263-4.7,5.358,5.358,0,0,1-.628-2.728c0-2.485,7.875-7.774,7.875-11.812S70.1,33.625,65.125,33.625Zm7.032,14.962A21.64,21.64,0,0,1,84.952,59.766,21.4,21.4,0,0,0,74.9,45.621,10.162,10.162,0,0,1,72.157,48.587Zm4.2-8.567c0,0.119.018,0.236,0.018,0.356a10.069,10.069,0,0,1-.95,4.261C82.465,47.36,88.442,52.959,91,59.5A28.164,28.164,0,0,0,76.357,40.019ZM68.5,64A4.5,4.5,0,1,1,64,59.5,4.5,4.5,0,0,1,68.5,64Z"/>
</svg>
