<svg id="hud_obj_status_sapper_128" xmlns="http://www.w3.org/2000/svg" width="128" height="128" viewBox="0 0 128 128">
  <defs>
    <style>
      .cls-1 {
        fill: #fff;
        fill-rule: evenodd;
      }
    </style>
  </defs>
  <path class="cls-1" d="M107,30l-7,5,3,2-7,6,2-6-3-3ZM97,49v9H94V50a1,1,0,0,0-1-1H35a1,1,0,0,0-1,1v8H31V49a3,3,0,0,1,3-3H94A3,3,0,0,1,97,49ZM79,40l4-8-3-1,6-9-1,8,4,2ZM43,33l-5,1,1-10,2,5h6L45,40ZM26,38L22,28l5,5,3-3,3,13-4-7ZM94,61h6V86H94v24H34V86H28V61H94Zm-4,47a2,2,0,1,0-2-2A2,2,0,0,0,90,108Zm-4-5a3,3,0,0,0,3-3V84.029A3.025,3.025,0,0,0,86,81H78v7h6v8H76.506l-2.626,7H86ZM75,92.018V81H72V92.018l1.5,4ZM60,100a3,3,0,0,0,3,3H73.12l-2.626-7H65V88h4V81H63a3,3,0,0,0-3,3v16Zm-12.487,4.006a7.493,7.493,0,1,0-7.494-7.493A7.494,7.494,0,0,0,47.513,104.006ZM38,108a2,2,0,1,0-2-2A2,2,0,0,0,38,108ZM31,83.027h3V67H94v3H38V86.024H57V77H94v6.027h3V64H31V83.027Zm20.5,0a2.5,2.5,0,1,1,2.511-2.5A2.5,2.5,0,0,1,51.5,83.027Zm-7.995,0a2.5,2.5,0,1,1,2.511-2.5A2.5,2.5,0,0,1,43.5,83.027Zm4,8.991a4.5,4.5,0,1,1-4.5,4.5A4.5,4.5,0,0,1,47.5,92.018Z"/>
</svg>
