<svg id="hud_upgrade_2" xmlns="http://www.w3.org/2000/svg" width="128" height="128" viewBox="0 0 128 128">
  <defs>
    <style>
      .cls-1 {
        fill: #fff;
        fill-rule: evenodd;
      }
    </style>
  </defs>
  <path id="_2" data-name="2" class="cls-1" d="M64,100a36,36,0,1,1,36-36A36,36,0,0,1,64,100ZM82,73.5l-6.5,6L66,80S80.5,65.33,80.5,52.5c0-9.936-7.468-14.5-17-14.5C51.287,38,45,44,45,44l5,8a19.384,19.384,0,0,1,13.5-5.5c5.66,0,8,3.436,8,7.5,0,3.115-1.246,11.372-20.5,30.5L53,87H82V73.5Z"/>
</svg>
