<svg id="hud_obj_status_sentry_1" xmlns="http://www.w3.org/2000/svg" width="128" height="128" viewBox="0 0 128 128">
  <defs>
    <style>
      .cls-1 {
        fill: #fff;
        fill-rule: evenodd;
      }
    </style>
  </defs>
  <path id="Shape_4_copy_9" data-name="Shape 4 copy 9" class="cls-1" d="M85,126v-4l3-1h0.05a2.5,2.5,0,1,1,4.9,0H93l3,1v4H85Zm-4-7,2-2L72,106v-4l-3.493-3.493a4.492,4.492,0,0,0,2-2L74,100l5,1,11,11,2-2,2,2-11,9Zm4-64h4v6h2V55h3v9H85V55ZM73,58a4,4,0,0,0-4-4H62V50H83V67H73.818Zm-9-2h5a2,2,0,0,1,2,2l1,11h1l1,3H59l1-3h1l1-11A2,2,0,0,1,64,56Zm2.5,8A3.5,3.5,0,1,0,63,60.5,3.5,3.5,0,0,0,66.5,64Zm0-5A1.5,1.5,0,1,1,65,60.5,1.5,1.5,0,0,1,66.5,59ZM55,67L53,50h7v8l-0.818,9H55ZM51,50l0.118,1H25.7L26,48a50.352,50.352,0,0,1,15-2c9.194,0,14,2,14,2H53A2,2,0,0,0,51,50Zm1.529,13H24.5l1-10H51.353ZM53,67a1.98,1.98,0,0,0,.277,1H53l-3,2H33l-3-2H24l0.3-3H52.765ZM27,114l-8,4-4-2,9-5Zm5,0a7.483,7.483,0,0,1,5,2l9.073-5.444,2.367,4.78L39,121H37a4.837,4.837,0,0,0-4-2c-3.929,0-9,6-9,6H18S26.634,114,32,114ZM70,74v7l3,1v0.714L63,87l-1-.333V84H58V82l3-1V78H59l-4.092,4.092a4.991,4.991,0,0,0-4-4L55,74H70ZM50,80a3,3,0,1,1-3,3A3,3,0,0,1,50,80Zm-4.375.625-4.671-4.671C40.8,75.967,40.656,76,40.5,76a5.483,5.483,0,0,1-5.267-4H45.766a5.526,5.526,0,0,1-1.925,2.841l3.784,3.784A4.987,4.987,0,0,0,45.625,80.625ZM64,94.5A2.5,2.5,0,1,1,66.5,97,2.5,2.5,0,0,1,64,94.5ZM57,102a4.343,4.343,0,0,0,2-5c-0.042-.118-0.1-0.263-0.159-0.42L54,99l-2-4,5.089-2.545C56.495,91.1,56,90,56,90l4-2,3,1,14-6s3,1.8,3,10a14.526,14.526,0,0,1-.948,5.675l-2.295-.382a11.961,11.961,0,0,0,.177-10.243l-0.024.006A1.483,1.483,0,0,0,75.5,87,1.5,1.5,0,0,0,74,88.5a1.474,1.474,0,0,0,.153.636l-0.018.009a8.975,8.975,0,0,1-.1,7.891l-3.092-3.092a4.489,4.489,0,1,0-5,5l2.668,2.668A9.01,9.01,0,0,1,66,102a1.5,1.5,0,1,0,0,3,11.966,11.966,0,0,0,4-.7v2.2c-7.343,3.667-19,9.5-19,9.5l-3.97-8.018C47.354,107.793,55.173,103.217,57,102Zm13,6.754V116H61v-2.762Z"/>
</svg>
