<svg id="ico_metal" xmlns="http://www.w3.org/2000/svg" width="128" height="128" viewBox="0 0 128 128">
  <defs>
    <style>
      .cls-1 {
        fill: #fff;
        fill-rule: evenodd;
      }
    </style>
  </defs>
  <path id="_" data-name="$" class="cls-1" d="M50.206,30.881A36.69,36.69,0,0,0,30.882,50.2,34.852,34.852,0,0,0,28,64.284,34.268,34.268,0,0,0,32.3,81.2,35.8,35.8,0,0,0,43.78,93.765l8.6-27.686a17.148,17.148,0,0,1-3.213-17.292,15.259,15.259,0,0,1,4.725-7.748A18.269,18.269,0,0,1,61.45,37.07L56.915,51.244l7.654,8.5L75.908,57.48,81.01,43.4a17.593,17.593,0,0,1,3.591,7.89,15.629,15.629,0,0,1-.945,8.929,16.263,16.263,0,0,1-4.866,7.843,20.951,20.951,0,0,1-7.8,4.347L59.749,99.718a15.715,15.715,0,0,0,2.032.236q0.992,0.047,2.5.047a33.9,33.9,0,0,0,13.749-2.835A36.869,36.869,0,0,0,97.168,78.032,33.888,33.888,0,0,0,100,64.284,35.366,35.366,0,0,0,97.168,50.2,36.437,36.437,0,0,0,89.42,38.676a37.6,37.6,0,0,0-11.386-7.8A33.43,33.43,0,0,0,64.285,28,34.865,34.865,0,0,0,50.206,30.881Z"/>
</svg>
