<?xml version="1.0" encoding="UTF-8" standalone="no"?>
<svg
   id="icon_loop.svg"
   width="128"
   height="128"
   viewBox="0 0 128 128"
   version="1.1"
   xmlns="http://www.w3.org/2000/svg"
   xmlns:svg="http://www.w3.org/2000/svg">
  <defs
     id="defs1">
    <style
       id="style1">
      .cls-1 {
        fill: #fff;
        fill-rule: evenodd;
      }
    </style>
  </defs>
  <path
     id="Shape_35_copy_2"
     data-name="Shape 35 copy 2"
     class="cls-1"
     d="M 100.57143,105.143 H 86.857143 v 13.71429 L 61.714286,93.71443 86.857143,68.571571 V 82.285857 H 96 A 9.1428571,9.1428571 0 0 0 105.14286,73.143 v -32 A 9.1428571,9.1428571 0 0 0 96,32.000143 H 32 A 9.1428571,9.1428571 0 0 0 22.857143,41.143 v 32 A 9.1428571,9.1428571 0 0 0 32,82.285857 H 45.714286 V 105.143 H 27.428571 A 27.428571,27.428571 0 0 1 0,77.714429 V 36.571571 A 27.428571,27.428571 0 0 1 27.428571,9.143 H 100.57143 A 27.428571,27.428571 0 0 1 128,36.571571 V 77.714429 A 27.428571,27.428571 0 0 1 100.57143,105.143 Z"
     style="stroke-width:4.57143" />
</svg>
