<?xml version="1.0" encoding="UTF-8" standalone="no"?>
<svg
   version="1.2"
   viewBox="0 0 128 128"
   width="128"
   height="128"
   id="svg1"
   xmlns="http://www.w3.org/2000/svg"
   xmlns:svg="http://www.w3.org/2000/svg"
   xmlns:rdf="http://www.w3.org/1999/02/22-rdf-syntax-ns#"
   xmlns:cc="http://creativecommons.org/ns#"
   xmlns:dc="http://purl.org/dc/elements/1.1/">
  <defs
     id="defs1" />
  <title
     id="title1">icons_menu_final</title>
  <style
     id="style1">
		.s0 { fill: #ffffff } 
	</style>
  <g
     id="icon_anvil"
     transform="matrix(1.3333333,0,0,1.3333333,-13.333333,-17.333333)">
    <path
       id="Ellipse 13 copy"
       fill-rule="evenodd"
       class="s0"
       d="m 106,55 v 12 c -9.9,0 -18,8.1 -18,18 0,9.9 8.1,18 18,18 v 6 H 52 c 0,0 0,-4 0,-6 9.9,0 12,-5.3 12,-12 0,-6.7 -5.3,-12 -12,-12 0,4.5 0,-24 0,-24 z" />
    <path
       id="Shape 14"
       fill-rule="evenodd"
       class="s0"
       d="M 46,61 V 79 C 28.1,79 10,69.9 10,61 Z" />
    <path
       id="Shape 15"
       fill-rule="evenodd"
       class="s0"
       d="M 46,13 H 40 L 28,25 v 24 h 18 z" />
    <path
       id="Rectangle 18"
       fill-rule="evenodd"
       class="s0"
       d="m 52,25 h 48 V 37 H 52 Z" />
  </g>
  <metadata
     id="metadata1">
    <rdf:RDF>
      <cc:Work
         rdf:about="">
        <dc:title>icons_menu_final</dc:title>
      </cc:Work>
    </rdf:RDF>
  </metadata>
</svg>
