<?xml version="1.0" encoding="UTF-8" standalone="no"?>
<svg
   version="1.2"
   viewBox="0 0 128 128"
   width="128"
   height="128"
   id="svg1"
   xmlns="http://www.w3.org/2000/svg"
   xmlns:svg="http://www.w3.org/2000/svg"
   xmlns:rdf="http://www.w3.org/1999/02/22-rdf-syntax-ns#"
   xmlns:cc="http://creativecommons.org/ns#"
   xmlns:dc="http://purl.org/dc/elements/1.1/">
  <defs
     id="defs1" />
  <title
     id="title1">icons_menu_final</title>
  <style
     id="style1">
		.s0 { fill: #ffffff } 
	</style>
  <g
     id="icon_people"
     transform="matrix(1.122807,0,0,1.122807,-7.859491,-11.228068)">
    <g
       id="v2">
      <g
         id="on">
        <path
           id="Rectangle 12"
           fill-rule="evenodd"
           class="s0"
           d="m 19,103 c -3.3,0 -6,-2.7 -6,-6 V 86.5 c 0,-12.7 7.6,-23.7 18.4,-28.7 3.9,2.1 8.4,3.2 13.1,3.2 3.9,0 7.6,-0.8 11,-2.2 1.2,6.4 4.6,12.1 9.3,16.2 -10,5.8 -17.1,16 -18.5,28 z M 44.5,10 c 11.7,0 21.3,8.9 22.4,20.3 -7,5 -11.6,13 -11.9,22.1 C 51.8,54.1 48.3,55 44.5,55 32,55 22,44.9 22,32.5 22,20.1 32,10 44.5,10 Z M 115,107.5 V 118 c 0,3.3 -2.7,6 -6,6 H 58 c -3.3,0 -6,-2.7 -6,-6 v -10.5 c 0,-12.7 7.5,-23.7 18.4,-28.7 3.9,2.1 8.4,3.2 13.1,3.2 4.7,0 9.1,-1.1 13,-3.2 10.9,5 18.5,16 18.5,28.7 z" />
        <path
           id="Ellipse 8"
           fill-rule="evenodd"
           class="s0"
           d="M 83.5,31 C 95.9,31 106,41.1 106,53.5 106,65.9 95.9,76 83.5,76 71.1,76 61,65.9 61,53.5 61,41.1 71.1,31 83.5,31 Z" />
      </g>
    </g>
  </g>
  <metadata
     id="metadata1">
    <rdf:RDF>
      <cc:Work
         rdf:about="">
        <dc:title>icons_menu_final</dc:title>
      </cc:Work>
    </rdf:RDF>
  </metadata>
</svg>
