<?xml version="1.0" encoding="UTF-8" standalone="no"?>
<svg
   id="icon_check.svg"
   width="128"
   height="128"
   viewBox="0 0 128 128"
   version="1.1"
   xmlns="http://www.w3.org/2000/svg"
   xmlns:svg="http://www.w3.org/2000/svg">
  <defs
     id="defs1">
    <style
       id="style1">
      .cls-1 {
        fill: #fff;
        fill-rule: evenodd;
      }
    </style>
  </defs>
  <path
     class="cls-1"
     d="M 110,128 H 18 A 18,18 0 0 1 0,110 V 18 A 18,18 0 0 1 18,0 h 92 a 18,18 0 0 1 18,18 v 92 a 18,18 0 0 1 -18,18 z m 6,-110 a 6,6 0 0 0 -6,-6 H 18 a 6,6 0 0 0 -6,6 v 92 a 6,6 0 0 0 6,6 h 92 a 6,6 0 0 0 6,-6 z M 22,72 40,54 52,76 96,24 106,34 52,104 Z"
     id="path1"
     style="stroke-width:4" />
</svg>
