<?xml version="1.0" encoding="UTF-8" standalone="no"?>
<svg
   id="icon_loop_off.svg"
   width="128"
   height="128"
   viewBox="0 0 128 128"
   version="1.1"
   xmlns="http://www.w3.org/2000/svg"
   xmlns:svg="http://www.w3.org/2000/svg">
  <defs
     id="defs1">
    <style
       id="style1">
      .cls-1 {
        fill: #fff;
        fill-rule: evenodd;
      }
    </style>
  </defs>
  <path
     class="cls-1"
     d="M 12,128 0,116 15.124,100.876 A 23.652,23.652 0 0 1 8,84 V 48 A 24,24 0 0 1 32,24 H 92 L 116,0 128,12 Z M 36,44 a 8,8 0 0 0 -8,8 v 28 a 7.976,7.976 0 0 0 2.344,5.656 L 72,44 Z m 48,44 h 8 a 8,8 0 0 0 8,-8 V 60 L 118.88,41.12 A 23.744,23.744 0 0 1 120,48 V 84 A 24,24 0 0 1 96,108 H 84 v 12 L 62,98 84,76 Z"
     id="path1"
     style="stroke-width:4" />
</svg>
