<?xml version="1.0" encoding="UTF-8" standalone="no"?>
<svg
   version="1.2"
   viewBox="0 0 128 128"
   width="128"
   height="128"
   id="svg1"
   xmlns="http://www.w3.org/2000/svg"
   xmlns:svg="http://www.w3.org/2000/svg"
   xmlns:rdf="http://www.w3.org/1999/02/22-rdf-syntax-ns#"
   xmlns:cc="http://creativecommons.org/ns#"
   xmlns:dc="http://purl.org/dc/elements/1.1/">
  <defs
     id="defs1" />
  <title
     id="title1">icons_menu_final</title>
  <style
     id="style1">
		.s0 { fill: #ffffff } 
	</style>
  <g
     id="icon_link">
    <g
       id="globe">
      <path
         id="Rectangle 7"
         fill-rule="evenodd"
         class="s0"
         d="m94.5 43h30c1.6 4.8 2.7 9.8 3.2 15h-31.8c-0.2-5.2-0.7-10.2-1.4-15zm-17-41.6c19.8 4.3 36.2 17.7 44.5 35.6h-28.5c-3.1-15.7-8.8-28.4-16-35.6zm-77.5 62.6c0-7.4 1.2-14.4 3.5-21h30c-1 6.6-1.5 13.7-1.5 21 0 7.3 0.5 14.4 1.5 21h-30c-2.3-6.6-3.5-13.6-3.5-21zm50.5 62.6c-19.8-4.3-36.2-17.7-44.5-35.6h28.5c3.1 15.7 8.8 28.4 16 35.6zm0-125.2c-7.2 7.2-12.9 19.9-16 35.6h-28.5c8.3-17.9 24.7-31.3 44.5-35.6zm13.5 0.6c9.9 0 18.5 14.3 22.5 35h-45c4-20.7 12.6-35 22.5-35zm-23.5 83c-1-6.6-1.5-13.6-1.5-21 0-7.4 0.5-14.4 1.5-21h47c0.7 4.8 1.2 9.8 1.4 15h-9.9c-9.9 0-18 8.1-18 18v9zm23.5 41c-9.9 0-18.4-14.3-22.5-35h19.5v22c0 5 2.1 9.5 5.3 12.7q-1.1 0.3-2.3 0.3z" />
      <path
         id="Shape 8"
         fill-rule="evenodd"
         class="s0"
         d="m79 64h15l10 10-2 2h-23v37h37v-23l2-2 10 10v15c0 6.6-5.4 12-12 12h-37c-6.6 0-12-5.4-12-12v-37c0-6.6 5.4-12 12-12z" />
      <path
         id="Shape 7"
         class="s0"
         d="m100 64h28v28zm12 8l-23 23 8 8 23-23z" />
    </g>
  </g>
  <metadata
     id="metadata1">
    <rdf:RDF>
      <cc:Work
         rdf:about="">
        <dc:title>icons_menu_final</dc:title>
      </cc:Work>
    </rdf:RDF>
  </metadata>
</svg>
