<?xml version="1.0" encoding="UTF-8" standalone="no"?>
<svg
   version="1.2"
   viewBox="0 0 128 128"
   width="128"
   height="128"
   id="svg1"
   xmlns="http://www.w3.org/2000/svg"
   xmlns:svg="http://www.w3.org/2000/svg"
   xmlns:rdf="http://www.w3.org/1999/02/22-rdf-syntax-ns#"
   xmlns:cc="http://creativecommons.org/ns#"
   xmlns:dc="http://purl.org/dc/elements/1.1/">
  <defs
     id="defs1" />
  <title
     id="title1">icons_menu_final</title>
  <style
     id="style1">
		.s0 { fill: #ffffff } 
	</style>
  <g
     id="icon_burst"
     transform="matrix(1.1126129,0,0,1.1126129,-8.4932964,-3.1500147)">
    <g
       id="Group 21">
      <path
         id="Shape 9 copy 9"
         fill-rule="evenodd"
         class="s0"
         d="M 54.4,63 C 54.4,63 16.2,50.6 11.4,49 1.2,45.7 14,29.9 22.8,32.7 c 16.8,5.5 35.6,23.2 35.6,23.2 0,0 -14.8,-23.5 -16.7,-26 -3.9,-5.4 8.5,-8.8 11.9,-4.1 6.5,8.9 8.4,28.6 8.4,28.6 0,0 0,-40.3 0,-45.4 C 62,-1.8 81,5.5 81,14.9 81,32.6 70,56 70,56 c 0,0 17.7,-21.2 19.6,-23.7 3.9,-5.4 10.9,5.3 7.5,10 -6.5,8.9 -24.7,16.8 -24.7,16.8 0,0 38.2,-12.4 43,-13.9 10.2,-3.3 9.1,17 0.3,19.9 -16.8,5.4 -42.4,2.2 -42.4,2.2 0,0 25.8,10.2 28.8,11.2 6.3,2.1 -1.7,12.1 -7.2,10.3 C 84.4,85.4 71.2,70.5 71.2,70.5 c 0,0 23.6,32.5 26.6,36.5 6.3,8.7 -13.4,14 -18.8,6.5 C 68.6,99.2 63.8,73.9 63.8,73.9 c 0,0 -1.8,27.7 -1.8,30.8 0,6.8 -11.9,2.2 -11.9,-3.6 0,-11.1 10,-28.2 10,-28.2 0,0 -23.6,32.5 -26.6,36.5 -6.3,8.7 -17.4,-8.4 -12,-15.9 10.4,-14.3 33,-26.7 33,-26.7 0,0 -26.8,6.9 -29.8,7.8 -6.4,2.1 -5.8,-10.7 -0.3,-12.5 10.6,-3.4 30,0.9 30,0.9 z m 0.6,1 c 0,5 4,9 9,9 5,0 9,-4 9,-9 0,-5 -4,-9 -9,-9 -5,0 -9,4 -9,9 z" />
    </g>
  </g>
  <metadata
     id="metadata1">
    <rdf:RDF>
      <cc:Work
         rdf:about="">
        <dc:title>icons_menu_final</dc:title>
      </cc:Work>
    </rdf:RDF>
  </metadata>
</svg>
