<svg id="icon_bug" xmlns="http://www.w3.org/2000/svg" width="128" height="128" viewBox="0 0 128 128">
  <defs>
    <style>
      .cls-1 {
        fill: #fff;
        fill-rule: evenodd;
      }
    </style>
  </defs>
  <path id="Shape_2_copy_3" data-name="Shape 2 copy 3" class="cls-1" d="M112,73V85H89.435c-0.105.4-.193,0.8-0.308,1.19A48.134,48.134,0,0,1,108.478,109H95.145A35.991,35.991,0,0,0,84,97.163c-4.309,6.331-10.284,10.611-17,11.6V58H87.744a35.984,35.984,0,0,0,7.4-9h13.334A48.134,48.134,0,0,1,90.9,70.7c0.037,0.766.1,1.525,0.1,2.3h21ZM76.195,40.9A31.237,31.237,0,0,1,85.9,52H42.1a31.237,31.237,0,0,1,9.7-11.1A12,12,0,0,0,40,31V19A23.988,23.988,0,0,1,63.222,37.032C63.481,37.022,63.739,37,64,37s0.519,0.022.778,0.032A23.988,23.988,0,0,1,88,19V31A12,12,0,0,0,76.195,40.9ZM61,58v50.765c-6.72-.991-12.7-5.271-17-11.6A35.991,35.991,0,0,0,32.856,109H19.522A48.133,48.133,0,0,1,38.874,86.19C38.759,85.8,38.67,85.4,38.565,85H16V73H37c0-.779.059-1.538,0.1-2.3A48.134,48.134,0,0,1,19.522,49H32.856a35.984,35.984,0,0,0,7.4,9H61Z"/>
</svg>
