<?xml version="1.0" encoding="UTF-8" standalone="no"?>
<svg
   id="icon_graph.svg"
   width="128"
   height="128"
   viewBox="0 0 128 128"
   version="1.1"
   xmlns="http://www.w3.org/2000/svg"
   xmlns:svg="http://www.w3.org/2000/svg">
  <defs
     id="defs1">
    <style
       id="style1">
      .cls-1 {
        fill: #fff;
        fill-rule: evenodd;
      }
    </style>
  </defs>
  <path
     id="Shape_46_copy_7"
     data-name="Shape 46 copy 7"
     class="cls-1"
     d="M 0,114 V 98 h 128 v 16 z M 88,36 a 6,6 0 0 1 6,-6 h 20 a 6,6 0 0 1 6,6 V 90 H 88 Z M 48,20 a 6,6 0 0 1 6,-6 h 20 a 6,6 0 0 1 6,6 V 90 H 48 Z M 8,58 a 4,4 0 0 1 4,-4 h 24 a 4,4 0 0 1 4,4 V 90 H 8 Z"
     style="stroke-width:4" />
</svg>
