<?xml version="1.0" encoding="UTF-8" standalone="no"?>
<svg
   id="icon_bot.svg"
   width="128"
   height="128"
   viewBox="0 0 128 128"
   version="1.1"
   xmlns="http://www.w3.org/2000/svg"
   xmlns:svg="http://www.w3.org/2000/svg">
  <defs
     id="defs1">
    <style
       id="style1">
      .cls-1 {
        fill: #fff;
        fill-rule: evenodd;
      }
    </style>
  </defs>
  <path
     class="cls-1"
     d="m 120,108.00873 h -8 V 72.024463 h 8 a 7.9999999,7.9965059 0 0 1 8,7.996505 v 19.991262 a 7.9999999,7.9965059 0 0 1 -8,7.9965 z M 95.999998,128 H 31.999999 A 7.9999999,7.9965059 0 0 1 24,120.00349 V 56.031451 a 7.9999999,7.9965059 0 0 1 7.999999,-7.996506 H 60 V 31.47818 a 16,15.993012 0 1 1 7.999999,0 V 48.034945 H 95.999998 A 7.9999999,7.9965059 0 0 1 104,56.031451 V 120.00349 A 7.9999999,7.9965059 0 0 1 95.999998,128 Z M 31.999999,120.00349 H 48 V 96.013981 H 31.999999 Z M 46,60.029704 A 14,13.993886 0 1 0 60,74.023589 14,13.993886 0 0 0 46,60.029704 Z m 9.999999,35.984277 v 23.989509 h 16 V 96.013981 Z M 81.999998,60.029704 a 14,13.993886 0 1 0 14,13.993885 14,13.993886 0 0 0 -14,-13.993885 z m 14,35.984277 H 79.999999 V 120.00349 H 95.999998 Z M 0,100.01223 V 80.020968 A 7.9999999,7.9965059 0 0 1 7.9999999,72.024463 H 16 V 108.00873 H 7.9999999 A 7.9999999,7.9965059 0 0 1 0,100.01223 Z"
     id="path1"
     style="stroke-width:3.99913" />
</svg>
