<?xml version="1.0" encoding="UTF-8" standalone="no"?>
<svg
   id="icon_target.svg"
   width="128"
   height="128"
   viewBox="0 0 128 128"
   version="1.1"
   xmlns="http://www.w3.org/2000/svg"
   xmlns:svg="http://www.w3.org/2000/svg">
  <defs
     id="defs1">
    <style
       id="style1">
      .cls-1 {
        fill: #fff;
        fill-rule: evenodd;
      }
    </style>
  </defs>
  <path
     class="cls-1"
     d="M 64,128 A 64,64 0 1 1 128,64 64,64 0 0 1 64,128 Z M 64,16 A 48,48 0 1 0 112,64 48,48 0 0 0 64,16 Z m 0,88 A 40,40 0 1 1 104,64 40,40 0 0 1 64,104 Z M 64,40 A 24,24 0 1 0 88,64 24,24 0 0 0 64,40 Z m 0,40 A 16,16 0 1 1 80,64 16,16 0 0 1 64,80 Z"
     id="path1"
     style="stroke-width:4" />
</svg>
