<?xml version="1.0" encoding="UTF-8" standalone="no"?>
<svg
   id="icon_copy.svg"
   width="128"
   height="128"
   viewBox="0 0 128 128"
   version="1.1"
   sodipodi:docname="icon_copy.svg"
   inkscape:version="1.4.2 (f4327f4, 2025-05-13)"
   xmlns:inkscape="http://www.inkscape.org/namespaces/inkscape"
   xmlns:sodipodi="http://sodipodi.sourceforge.net/DTD/sodipodi-0.dtd"
   xmlns="http://www.w3.org/2000/svg"
   xmlns:svg="http://www.w3.org/2000/svg">
  <sodipodi:namedview
     id="namedview1"
     pagecolor="#ffffff"
     bordercolor="#000000"
     borderopacity="0.25"
     inkscape:showpageshadow="2"
     inkscape:pageopacity="0.0"
     inkscape:pagecheckerboard="0"
     inkscape:deskcolor="#d1d1d1"
     inkscape:zoom="6.40625"
     inkscape:cx="63.921951"
     inkscape:cy="64"
     inkscape:window-width="1920"
     inkscape:window-height="1022"
     inkscape:window-x="-8"
     inkscape:window-y="-8"
     inkscape:window-maximized="1"
     inkscape:current-layer="icon_copy.svg" />
  <defs
     id="defs1">
    <style
       id="style1">
      .cls-1 {
        fill: #fff;
        fill-rule: evenodd;
      }
    </style>
  </defs>
  <path
     id="Rectangle_660_copy"
     data-name="Rectangle 660 copy"
     class="cls-1"
     d="M 104,128 H 56 A 16,16 0 0 1 40,112 V 96 H 24 A 16,16 0 0 1 8,80 V 16 A 16,16 0 0 1 24,0 h 48 a 16,16 0 0 1 16,16 v 16 h 16 a 16,16 0 0 1 16,16 v 64 a 16,16 0 0 1 -16,16 z M 72,16 H 24 V 80 H 40 V 48 A 16,16 0 0 1 56,32 h 16 z m 32,32 H 56 v 64 h 48 z"
     style="stroke-width:4" />
</svg>
