<?xml version="1.0" encoding="UTF-8" standalone="no"?>
<svg
   id="icon_people_off.svg"
   width="128"
   height="128"
   viewBox="0 0 128 128"
   version="1.1"
   xmlns="http://www.w3.org/2000/svg"
   xmlns:svg="http://www.w3.org/2000/svg">
  <defs
     id="defs1">
    <style
       id="style1">
      .cls-1 {
        fill: #fff;
        fill-rule: evenodd;
      }
    </style>
  </defs>
  <path
     id="Shape_46_copy_12"
     data-name="Shape 46 copy 12"
     class="cls-1"
     d="M 128,12 12,128 0,116 12,104 A 8,8 0 0 1 4,96 V 80 a 31.916,31.916 0 0 1 12.82,-25.572 35.796,35.796 0 0 0 38.36,0 c 0.608,0.456 1.148,0.996 1.724,1.492 0.188,0.844 0.46,1.652 0.704,2.468 L 68,48 v 0 A 24,24 0 0 1 92,24 v 0 L 116,0 Z M 36,48 A 24,24 0 1 1 60,24 24,24 0 0 1 36,48 Z M 92,72 A 23.808,23.808 0 0 1 88.368,71.632 L 115.636,44.364 A 23.808,23.808 0 0 1 116,48 24,24 0 0 1 92,72 Z M 78.66,81.34 A 35.372,35.372 0 0 0 111.176,78.428 31.916,31.916 0 0 1 124,104 v 16 a 8,8 0 0 1 -8,8 H 68 a 8,8 0 0 1 -8,-8 v -16 a 31.96,31.96 0 0 1 0.316,-4.312 z"
     style="stroke-width:4" />
</svg>
