<?xml version="1.0" encoding="UTF-8" standalone="no"?>
<svg
   version="1.2"
   viewBox="0 0 128 128"
   width="128"
   height="128"
   id="svg1"
   xmlns="http://www.w3.org/2000/svg"
   xmlns:svg="http://www.w3.org/2000/svg"
   xmlns:rdf="http://www.w3.org/1999/02/22-rdf-syntax-ns#"
   xmlns:cc="http://creativecommons.org/ns#"
   xmlns:dc="http://purl.org/dc/elements/1.1/">
  <defs
     id="defs1" />
  <title
     id="title1">icons_menu_final</title>
  <style
     id="style1">
		.s0 { fill: #ffffff } 
	</style>
  <g
     id="icon_hat"
     transform="matrix(1.1812118,0,0,1.1812118,-8.675615,-11.812118)">
    <path
       id="Shape 22 copy 3"
       fill-rule="evenodd"
       class="s0"
       d="m 71.1,113.5 c -4.2,7.2 -19.1,6.3 -33.5,-2 C 23.3,103.3 15,90.7 19.1,83.5 q 1.1,-1.8 3,-2.9 -0.1,0 -0.1,0 l 16.4,-14 q 3.9,1.5 7.9,3.8 C 64.8,81 70.6,98.7 72.5,107.8 l -0.3,1.8 q 0,0 0,-0.1 -0.1,2.2 -1.1,4 z M 58.4,49.6 c 9.7,5.7 16,13.3 19.9,20.5 L 75.6,87.6 C 72.1,78.6 65.4,67.5 52.3,60 Q 50.4,58.9 48.5,58 Z M 85.1,27 80.9,54.1 C 77.7,49.6 73.5,45.2 68,41.5 Z M 24.4,86.5 c -2.5,4.3 4.8,13.2 16.3,19.8 11.5,6.6 22.8,8.5 25.3,4.2 C 68.5,106.2 61.2,97.4 49.7,90.7 38.2,84.1 26.9,82.2 24.4,86.5 Z" />
    <path
       id="Shape 30"
       class="s0"
       d="M 81,34 69,16 81,10 87,28 Z m 0,0 12,-24 12,6 -12,12 z m 0,0 18,6 6,-12 H 87 Z" />
  </g>
  <metadata
     id="metadata1">
    <rdf:RDF>
      <cc:Work
         rdf:about="">
        <dc:title>icons_menu_final</dc:title>
      </cc:Work>
    </rdf:RDF>
  </metadata>
</svg>
