<?xml version="1.0" encoding="UTF-8" standalone="no"?>
<svg
   id="icon_trash.svg"
   width="128"
   height="128"
   viewBox="0 0 128 128"
   version="1.1"
   xmlns="http://www.w3.org/2000/svg"
   xmlns:svg="http://www.w3.org/2000/svg">
  <defs
     id="defs1">
    <style
       id="style1">
      .cls-1 {
        fill: #fff;
        fill-rule: evenodd;
      }
    </style>
  </defs>
  <path
     class="cls-1"
     d="M 0,32 V 24 A 8,8 0 0 1 8,16 H 32 V 8 a 8,8 0 0 1 8,-8 h 48 a 8,8 0 0 1 8,8 v 8 h 24 a 8,8 0 0 1 8,8 v 8 z m 108,80 c -1.748,10.088 -7.164,16 -16,16 H 36 c -8.836,0 -14,-5.912 -16,-16 L 12,48 H 116 Z M 52.608,64 a 8.612,8.612 0 0 0 -8.484,-8 7.444,7.444 0 0 0 -7.516,8 l 2.908,48 a 8.612,8.612 0 0 0 8.484,8 7.444,7.444 0 0 0 7.516,-8 z M 84,56 a 8.636,8.636 0 0 0 -8.5,8 l -3,48 a 7.428,7.428 0 0 0 7.5,8 8.636,8.636 0 0 0 8.5,-8 l 3,-48 A 7.428,7.428 0 0 0 84,56 Z"
     id="path1"
     style="stroke-width:4" />
</svg>
