<?xml version="1.0" encoding="UTF-8" standalone="no"?>
<svg
   id="icon_link.svg"
   width="128"
   height="128"
   viewBox="0 0 128 128"
   version="1.1"
   xmlns="http://www.w3.org/2000/svg"
   xmlns:svg="http://www.w3.org/2000/svg">
  <defs
     id="defs1">
    <style
       id="style1">
      .cls-1 {
        fill: #fff;
        fill-rule: evenodd;
      }
    </style>
  </defs>
  <path
     class="cls-1"
     d="M 116.00209,127.19716 H 76.003622 A 11.999541,11.999541 0 0 1 64.004081,115.19762 V 75.199154 A 11.999541,11.999541 0 0 1 76.003622,63.199613 h 7.999694 L 96.002857,75.199154 H 76.003622 V 115.19762 H 116.00209 V 95.198389 l 11.99954,11.999541 v 7.99969 a 11.999541,11.999541 0 0 1 -11.99954,11.99954 z m 0,-43.998312 L 92.00301,107.19793 84.003316,99.198236 108.0024,75.199154 96.002857,63.199613 H 128.00163 V 95.198389 Z M 98.166774,43.200378 h 26.586976 a 64.657526,64.657526 0 0 1 2.6799,11.999541 H 99.58272 C 99.274732,51.084076 98.826749,47.05623 98.166774,43.200378 Z M 78.14354,0.802 a 64.109547,64.109547 0 0 1 43.36234,34.398684 H 96.530837 C 92.770981,19.825272 86.219231,7.5377423 78.14354,0.802 Z M 39.509019,35.200684 C 44.280836,16.125414 53.456485,3.2019082 64.004081,3.2019082 c 10.547597,0 19.723246,12.9235058 24.499063,31.9987758 z m -8.031693,0 H 6.5022809 A 64.109547,64.109547 0 0 1 49.864622,0.802 C 41.788931,7.5377423 35.237182,19.825272 31.477326,35.200684 Z m -3.471867,29.998852 a 132.87492,132.87492 0 0 0 1.199954,17.999312 H 3.206407 A 63.597567,63.597567 0 0 1 3.246405,43.200378 H 29.841388 A 131.27098,131.27098 0 0 0 28.005459,65.199536 Z M 44.70482,124.22128 A 64.153546,64.153546 0 0 1 6.4942812,91.198542 H 30.58936 A 78.600993,78.600993 0 0 0 44.70482,124.22128 Z M 56.004387,91.198542 v 25.999008 a 17.799319,17.799319 0 0 0 2.331911,8.69566 C 49.556634,121.89337 42.288912,108.76987 38.613053,91.198542 Z M 37.205107,83.198848 A 133.04291,133.04291 0 0 1 36.005153,65.199536 130.33101,130.33101 0 0 1 37.853082,43.200378 h 52.301999 c 0.655975,3.827853 1.107958,7.859699 1.419946,11.999541 H 74.003699 A 17.999311,17.999311 0 0 0 56.004387,73.19923 v 9.999618 z"
     id="path1"
     style="stroke-width:3.99985" />
</svg>
