<?xml version="1.0" encoding="UTF-8" standalone="no"?>
<svg
   version="1.2"
   viewBox="0 0 128 128"
   width="128"
   height="128"
   id="svg1"
   xmlns="http://www.w3.org/2000/svg"
   xmlns:svg="http://www.w3.org/2000/svg"
   xmlns:rdf="http://www.w3.org/1999/02/22-rdf-syntax-ns#"
   xmlns:cc="http://creativecommons.org/ns#"
   xmlns:dc="http://purl.org/dc/elements/1.1/">
  <defs
     id="defs1" />
  <title
     id="title1">icons_menu_final</title>
  <style
     id="style1">
		.s0 { fill: #ffffff } 
	</style>
  <g
     id="icon_cleft"
     transform="matrix(1.4222222,0,0,1.4222222,-18.488889,-27.022222)">
    <g
       id="on">
      <path
         id="Shape 38"
         class="s0"
         d="m 28,67 c 8.3,0 15,6.7 15,15 0,8.3 -6.7,15 -15,15 C 19.7,97 13,90.3 13,82 13,73.7 19.7,67 28,67 Z M 43,82 V 43 l 48,12 v 36 l 12,3 V 37 L 31,19 v 60 z m 45,-3 c 8.3,0 15,6.7 15,15 0,8.3 -6.7,15 -15,15 -8.3,0 -15,-6.7 -15,-15 0,-8.3 6.7,-15 15,-15 z" />
    </g>
  </g>
  <metadata
     id="metadata1">
    <rdf:RDF>
      <cc:Work
         rdf:about="">
        <dc:title>icons_menu_final</dc:title>
      </cc:Work>
    </rdf:RDF>
  </metadata>
</svg>
