<?xml version="1.0" encoding="UTF-8" standalone="no"?>
<svg
   id="icon_backpack.svg"
   width="128"
   height="128"
   viewBox="0 0 128 128"
   version="1.1"
   xmlns="http://www.w3.org/2000/svg"
   xmlns:svg="http://www.w3.org/2000/svg">
  <defs
     id="defs1">
    <style
       id="style1">
      .cls-1 {
        fill: #fff;
        fill-rule: evenodd;
      }
    </style>
  </defs>
  <path
     id="Rectangle_30_copy_3"
     data-name="Rectangle 30 copy 3"
     class="cls-1"
     d="m 125.958,80 h -45.2 l 3.2,-16 h -36 l 3.2,16 h -49.2 l -2,-12 8,-16 h 112.084 l 7.916,16 z m -46,-44 v -8 h -32 v 8 a 8.028,8.028 0 0 1 -8,8 h -24 V 28 h 16 v -8 a 8.028,8.028 0 0 1 8,-8 h 48 a 8.028,8.028 0 0 1 8,8 v 8 h 16 v 16 h -24 a 8.028,8.028 0 0 1 -8,-8 z m -24,68 h 20 l 3.2,-16 h 45.468 l -4.668,28 h -112 L 3.29,88 h 49.468 z"
     style="stroke-width:4" />
</svg>
