<?xml version="1.0" encoding="UTF-8" standalone="no"?>
<svg
   id="icon_spectate.svg"
   width="128"
   height="128"
   viewBox="0 0 128 128"
   version="1.1"
   xmlns="http://www.w3.org/2000/svg"
   xmlns:svg="http://www.w3.org/2000/svg">
  <defs
     id="defs1">
    <style
       id="style1">
      .cls-1 {
        fill: #fff;
        fill-rule: evenodd;
      }
    </style>
  </defs>
  <path
     class="cls-1"
     d="m 104.01722,100.72748 v 11.19197 a 7.9942607,7.9942607 0 0 1 -7.994263,7.99426 H 8.0860899 A 7.9942607,7.9942607 0 0 1 0.09182923,111.91945 V 63.953884 A 7.9942607,7.9942607 0 0 1 8.0860899,55.959624 H 28.071742 A 27.979912,27.979912 0 1 1 52.054524,13.77391 27.935944,27.935944 0 1 1 76.037306,55.959624 h 19.985651 a 7.9942607,7.9942607 0 0 1 7.994263,7.99426 V 75.145849 L 128,55.959624 V 119.91371 Z M 28.071742,15.98832 A 11.991391,11.991391 0 1 0 40.063133,27.979711 11.991391,11.991391 0 0 0 28.071742,15.98832 Z M 88.028697,27.979711 A 11.991391,11.991391 0 1 0 76.037306,39.971102 11.991391,11.991391 0 0 0 88.028697,27.979711 Z"
     id="path1"
     style="stroke-width:3.99713" />
</svg>
