<?xml version="1.0" encoding="UTF-8" standalone="no"?>
<svg
   id="icon_graph_off.svg"
   width="128"
   height="128"
   viewBox="0 0 128 128"
   version="1.1"
   xmlns="http://www.w3.org/2000/svg"
   xmlns:svg="http://www.w3.org/2000/svg">
  <defs
     id="defs1">
    <style
       id="style1">
      .cls-1 {
        fill: #fff;
        fill-rule: evenodd;
      }
    </style>
  </defs>
  <path
     id="Shape_46_copy_9"
     data-name="Shape 46 copy 9"
     class="cls-1"
     d="m 44,116 16,-16 h 68 v 16 z M 88,92 V 72 L 120,40 V 92 Z M 68,92 80,80 V 92 Z M 0,116 v -16 h 16 l 8,-8 H 8 V 60 a 4,4 0 0 1 4,-4 h 24 a 4,4 0 0 1 4,4 v 16 l 8,-8 V 22 a 6,6 0 0 1 6,-6 h 20 a 6,6 0 0 1 6,6 V 36 L 116,0 128,12 12,128 Z"
     style="stroke-width:4" />
</svg>
