<?xml version="1.0" encoding="UTF-8" standalone="no"?>
<svg
   version="1.2"
   viewBox="0 0 128 128"
   width="128"
   height="128"
   id="svg1"
   xmlns="http://www.w3.org/2000/svg"
   xmlns:svg="http://www.w3.org/2000/svg"
   xmlns:rdf="http://www.w3.org/1999/02/22-rdf-syntax-ns#"
   xmlns:cc="http://creativecommons.org/ns#"
   xmlns:dc="http://purl.org/dc/elements/1.1/">
  <defs
     id="defs1" />
  <title
     id="title1">icons_menu_final</title>
  <style
     id="style1">
		.s0 { fill: #ffffff } 
	</style>
  <g
     id="icon_people_off"
     transform="matrix(1.122807,0,0,1.0940171,-7.8596491,-7.6581197)">
    <g
       id="v2">
      <g
         id="off">
        <path
           id="Shape 46 copy 5"
           fill-rule="evenodd"
           class="s0"
           d="m 19,103 c -3.3,0 -6,-2.7 -6,-6 V 86.5 c 0,-12.7 7.6,-23.7 18.4,-28.7 3.9,2.1 8.4,3.2 13.1,3.2 3.9,0 7.6,-0.8 11,-2.2 0.8,4.3 2.6,8.2 5.1,11.6 L 28,103 Z M 44.5,10 C 56.2,10 65.8,18.9 66.9,30.3 60,35.3 55.4,43.3 55,52.4 51.9,54.1 48.3,55 44.5,55 32.1,55 22,44.9 22,32.5 22,20.1 32.1,10 44.5,10 Z M 115,107.5 V 118 c 0,3.3 -2.7,6 -6,6 H 58 c -3.3,0 -6,-2.7 -6,-6 v -10.5 c 0,-4.9 1.1,-9.5 3.1,-13.6 L 69.9,79.1 q 0.3,-0.2 0.5,-0.3 c 3.9,2.1 8.4,3.2 13.1,3.2 4.7,0 9.2,-1.1 13.1,-3.2 10.8,5 18.4,16 18.4,28.7 z M 83.5,31 c 4.7,0 9,1.4 12.6,3.9 L 64.9,66.1 C 62.4,62.5 61,58.2 61,53.5 61,41.1 71.1,31 83.5,31 Z M 106,53.5 C 106,65.9 95.9,76 83.5,76 80.4,76 77.4,75.4 74.8,74.2 l 29.4,-29.4 c 1.2,2.6 1.8,5.6 1.8,8.7 z" />
        <path
           id="Shape 46 copy 4"
           fill-rule="evenodd"
           class="s0"
           d="m 7,112 9,9 105,-105 -9,-9 z" />
      </g>
    </g>
  </g>
  <metadata
     id="metadata1">
    <rdf:RDF>
      <cc:Work
         rdf:about="">
        <dc:title>icons_menu_final</dc:title>
      </cc:Work>
    </rdf:RDF>
  </metadata>
</svg>
