<?xml version="1.0" encoding="UTF-8" standalone="no"?>
<svg
   id="icon_mic.svg"
   width="128"
   height="128"
   viewBox="0 0 128 128"
   version="1.1"
   xmlns="http://www.w3.org/2000/svg"
   xmlns:svg="http://www.w3.org/2000/svg">
  <defs
     id="defs1">
    <style
       id="style1">
      .cls-1 {
        fill: #fff;
        fill-rule: evenodd;
      }
    </style>
  </defs>
  <path
     class="cls-1"
     d="M 72,95.28 V 112 h 16 v 16 H 40 V 112 H 56 V 95.28 A 47.972,47.972 0 0 1 16,48 h 16 a 32,32 0 0 0 64,0 h 16 A 47.972,47.972 0 0 1 72,95.28 Z M 64,72 A 24,24 0 0 1 40,48 V 24 a 24,24 0 0 1 48,0 V 48 A 24,24 0 0 1 64,72 Z M 64,0 Z"
     id="path1"
     style="stroke-width:4" />
</svg>
