<svg id="icon_link.svg" xmlns="http://www.w3.org/2000/svg" width="128" height="128" viewBox="0 0 128 128">
  <defs>
    <style>
      .cls-1 {
        fill: #fff;
        fill-rule: evenodd;
      }
    </style>
  </defs>
  <path class="cls-1" d="M103,112H73a9,9,0,0,1-9-9V73a9,9,0,0,1,9-9h6l9,9H73v30h30V88l9,9v6A9,9,0,0,1,103,112Zm0-33L85,97l-6-6L97,73l-9-9h24V88ZM89.624,49h19.942a48.533,48.533,0,0,1,2.011,9H90.684C90.453,54.912,90.117,51.892,89.624,49ZM74.6,17.215A48.085,48.085,0,0,1,107.129,43H88.4C85.577,31.469,80.661,22.251,74.6,17.215ZM45.627,43C49.208,28.694,56.09,19,64,19s14.792,9.694,18.373,24H45.627ZM39.6,43H20.871A48.084,48.084,0,0,1,53.4,17.215C47.339,22.251,42.423,31.469,39.6,43ZM37,65.5A99.659,99.659,0,0,0,37.905,79h-19.5a47.7,47.7,0,0,1,.029-30H38.376A98.464,98.464,0,0,0,37,65.5Zm12.526,44.269A48.118,48.118,0,0,1,20.867,85H38.939C41.058,95.249,44.789,103.9,49.526,109.769ZM58,85v19.5a13.355,13.355,0,0,0,1.748,6.521C53.164,108.011,47.712,98.178,44.955,85H58ZM43.906,79A99.78,99.78,0,0,1,43,65.5,97.758,97.758,0,0,1,44.386,49H83.614c0.493,2.871.832,5.9,1.066,9H71.5A13.5,13.5,0,0,0,58,71.5V79H43.906Z"/>
</svg>
