<?xml version="1.0" encoding="UTF-8" standalone="no"?>
<svg
   id="icon_servers_off.svg"
   width="128"
   height="128"
   viewBox="0 0 128 128"
   version="1.1"
   xmlns="http://www.w3.org/2000/svg"
   xmlns:svg="http://www.w3.org/2000/svg">
  <defs
     id="defs1">
    <style
       id="style1">
      .cls-1 {
        fill: #fff;
        fill-rule: evenodd;
      }
    </style>
  </defs>
  <path
     id="Shape_46_copy_2"
     data-name="Shape 46 copy 2"
     class="cls-1"
     d="M 128,12 12,128 0,116 8,108 V 94 a 6,6 0 0 1 6,-6 h 14 l 8,-8 H 14 A 6,6 0 0 1 8,74 V 54 a 6,6 0 0 1 6,-6 h 54 l 8,-8 H 14 A 6,6 0 0 1 8,34 V 14 a 6,6 0 0 1 6,-6 h 94 l 8,-8 z M 28,56 a 8,8 0 1 0 8,8 8,8 0 0 0 -8,-8 z m 0,-40 a 8,8 0 1 0 8,8 8,8 0 0 0 -8,-8 z m 28,0 a 8,8 0 1 0 8,8 8,8 0 0 0 -8,-8 z m 42,0 H 82 a 6,6 0 0 0 -6,6 v 4 a 6,6 0 0 0 6,6 h 2 L 99.664,16.336 A 5.82,5.82 0 0 0 98,16 Z M 102.244,57.756 112,48 h 2 a 6,6 0 0 1 6,6 v 20 a 6,6 0 0 1 -6,6 H 80 l 8,-8 h 10 a 6,6 0 0 0 6,-6 v -4 a 6,6 0 0 0 -1.756,-4.244 z M 56,112 A 8,8 0 0 0 61.656,98.344 L 72,88 h 42 a 6,6 0 0 1 6,6 v 20 a 6,6 0 0 1 -6,6 H 40 L 50.344,109.656 A 7.976,7.976 0 0 0 56,112 Z m 20,-6 a 6,6 0 0 0 6,6 h 16 a 6,6 0 0 0 6,-6 v -4 A 6,6 0 0 0 98,96 H 82 a 6,6 0 0 0 -6,6 z"
     style="stroke-width:4" />
</svg>
