<?xml version="1.0" encoding="UTF-8" standalone="no"?>
<svg
   version="1.2"
   viewBox="0 0 128 128"
   width="128"
   height="128"
   id="svg1"
   xmlns="http://www.w3.org/2000/svg"
   xmlns:svg="http://www.w3.org/2000/svg"
   xmlns:rdf="http://www.w3.org/1999/02/22-rdf-syntax-ns#"
   xmlns:cc="http://creativecommons.org/ns#"
   xmlns:dc="http://purl.org/dc/elements/1.1/">
  <defs
     id="defs1" />
  <title
     id="title1">icons_menu_final</title>
  <style
     id="style1">
		.s0 { fill: #ffffff } 
	</style>
  <g
     id="icon_audio"
     transform="matrix(1.1985019,0,0,1.1985019,-12.224719,-13.18352)">
    <g
       id="speaker">
      <path
         id="Shape 4 copy 3"
         fill-rule="evenodd"
         class="s0"
         d="m 62,11 h 14 l -3,24 h -0.2 q -4.3,-3.7 -8.7,-7 z m 55,41 V 66 L 100,63.9 Q 96.8,59.5 93,55.2 V 55 Z m -20.4,-30.4 9.9,9.9 -19.1,14.9 -5.7,-5.7 z" />
      <path
         id="Shape 3"
         fill-rule="evenodd"
         class="s0"
         d="M 38.2,117.8 C 23.6,116 12,104.4 10.2,89.8 l 6.7,-16 c 5.8,17.6 19.7,31.5 37.3,37.3 z" />
      <path
         id="Ellipse 4"
         fill-rule="evenodd"
         class="s0"
         d="M 101.4,103.6 C 89,113.2 55.3,111.5 35.5,92.5 16.1,74 15.1,38.3 24.2,26.8 c 5.7,-7.2 28.9,4.3 50.8,25.7 21.9,21.4 33.6,45.6 26.4,51.1 z M 51.2,77 C 68,93.8 86.1,102.9 91.7,97.3 97.3,91.7 88.2,73.6 71.4,56.8 54.6,40 36.5,30.9 30.9,36.5 25.3,42.1 34.4,60.2 51.2,77 Z" />
      <path
         id="Ellipse 6"
         fill-rule="evenodd"
         class="s0"
         d="m 57,55 c 8.8,0 16,7.2 16,16 0,4.1 -1.5,7.9 -4.1,10.7 C 64.8,79.9 60.1,76.6 55.8,72.3 51.4,67.9 48.1,63.2 46.3,59.1 49.1,56.5 52.9,55 57,55 Z" />
    </g>
  </g>
  <metadata
     id="metadata1">
    <rdf:RDF>
      <cc:Work
         rdf:about="">
        <dc:title>icons_menu_final</dc:title>
      </cc:Work>
    </rdf:RDF>
  </metadata>
</svg>
