<?xml version="1.0" encoding="UTF-8" standalone="no"?>
<svg
   version="1.2"
   viewBox="0 0 128 128"
   width="128"
   height="128"
   id="svg1"
   xmlns="http://www.w3.org/2000/svg"
   xmlns:svg="http://www.w3.org/2000/svg"
   xmlns:rdf="http://www.w3.org/1999/02/22-rdf-syntax-ns#"
   xmlns:cc="http://creativecommons.org/ns#"
   xmlns:dc="http://purl.org/dc/elements/1.1/">
  <defs
     id="defs1" />
  <title
     id="title1">icons_menu_final</title>
  <style
     id="style1">
		.s0 { fill: #ffffff } 
		.s1 { fill: none;stroke: #ffffff;stroke-miterlimit:100;stroke-width: 6 } 
	</style>
  <g
     id="icon_balloons"
     transform="matrix(1.0790204,0,0,1.0790204,-7.2151632,-5.5444524)">
    <path
       id="Triangle 2"
       class="s0"
       d="M 46.5,55.9 60.4,71.5 42.3,76.4 Z" />
    <path
       id="Ellipse 17 copy"
       fill-rule="evenodd"
       class="s0"
       d="m 31.6,25.5 c 8.8,-4.8 20.6,-0.4 26.2,9.8 5.7,10.3 3.1,22.5 -5.7,27.3 C 43.3,67.5 31.6,63.1 25.9,52.8 20.3,42.6 22.8,30.3 31.6,25.5 Z M 51.2,37.7 C 46.6,30.1 37.9,26.9 31.9,30.5 c -1.6,1 -2.8,2.3 -3.7,3.8 4.4,-2.3 11.8,1.1 16.9,7.9 4.1,5.6 5.5,11.7 3.8,15.6 5.7,-3.8 6.7,-12.7 2.3,-20.1 z" />
    <path
       id="Shape 32"
       fill-rule="evenodd"
       class="s0"
       d="m 48,29 -10,9 -12,2 1,-8 6,-5 z" />
    <path
       id="Shape 31 copy 2"
       fill-rule="evenodd"
       class="s1"
       d="m 54,80 c 0,0 1.2,3.9 -4,10 -6.7,7.8 0,12.9 1,16 3,9.1 -11,15 -11,15" />
    <path
       id="Ellipse 17"
       fill-rule="evenodd"
       class="s0"
       d="m 89,5.2 c 11.6,-1 22,10.3 23.2,25 C 113.5,45 105.1,57.8 93.5,58.7 81.9,59.6 71.5,48.4 70.3,33.6 69,18.8 77.4,6.1 89,5.2 Z m 17.5,25 c -1.1,-11.6 -9,-20.4 -17.6,-19.6 -3,0.3 -5.8,1.8 -8,4.1 q 0.2,0 0.4,-0.1 c 6.4,-1.7 14,5.6 16.8,16.4 2.6,9.3 0.7,18.2 -4,21.5 7.9,-1.6 13.4,-11.3 12.4,-22.3 z" />
    <path
       id="Rectangle 27"
       fill-rule="evenodd"
       class="s0"
       d="M 111.3,95.4 98.6,82.7 111.3,70 124,82.7 Z" />
    <path
       id="Rectangle 27 copy"
       fill-rule="evenodd"
       class="s0"
       d="m 24.7,94.1 -8.4,8.5 8.4,8.4 8.3,-8.4 z" />
    <path
       id="Ellipse 18"
       fill-rule="evenodd"
       class="s0"
       d="M 16.8,65 C 12,65 8,69 8,74 c 0,4.9 4,8.9 8.8,8.9 4.9,0 8.8,-4 8.8,-8.9 0,-5 -3.9,-9 -8.8,-9 z" />
    <path
       id="Shape 31"
       fill-rule="evenodd"
       class="s0"
       d="m 76,19 4,-8 10,-4 14,6 1,3 -16,10 z" />
    <path
       id="Ellipse 19"
       fill-rule="evenodd"
       class="s0"
       d="m 98.3,118.7 c -3.3,0 -6,-2.7 -6,-6 0,-3.3 2.7,-6 6,-6 3.3,0 6,2.7 6,6 0,3.3 -2.7,6 -6,6 z" />
    <path
       id="Triangle 1"
       class="s0"
       d="m 91,53.4 -1.2,20.1 -15.6,-9 z" />
    <path
       id="Shape 31 copy"
       fill-rule="evenodd"
       class="s1"
       d="m 78,75 c 0,0 -10.6,11.7 -1,18 12.8,8.5 -4.5,13.1 -16.2,17.7 -11.7,4.7 -16.4,7.6 -16.4,7.6" />
  </g>
  <metadata
     id="metadata1">
    <rdf:RDF>
      <cc:Work
         rdf:about="">
        <dc:title>icons_menu_final</dc:title>
      </cc:Work>
    </rdf:RDF>
  </metadata>
</svg>
