<?xml version="1.0" encoding="UTF-8" standalone="no"?>
<svg
   id="icon_puzzle.svg"
   width="128"
   height="128"
   viewBox="0 0 128 128"
   version="1.1"
   xmlns="http://www.w3.org/2000/svg"
   xmlns:svg="http://www.w3.org/2000/svg">
  <defs
     id="defs1">
    <style
       id="style1">
      .cls-1 {
        fill: #fff;
        fill-rule: evenodd;
      }
    </style>
  </defs>
  <path
     id="Ellipse_11_copy"
     data-name="Ellipse 11 copy"
     class="cls-1"
     d="m 114.00329,96.002477 a 17.886961,17.886614 0 0 0 13.99919,-6.799473 V 116.00093 A 11.999303,11.999071 0 0 1 116.00318,128 H 89.204732 a 17.998954,17.998605 0 1 0 -22.398699,0 H 40.00759 A 11.999303,11.999071 0 0 1 28.008287,116.00093 V 92.962713 a 17.998954,17.998605 0 1 1 0,-29.917682 V 40.006815 A 11.999303,11.999071 0 0 1 40.00759,28.007744 h 23.038662 a 17.998954,17.998605 0 1 1 29.918262,0 h 23.038666 a 11.999303,11.999071 0 0 1 11.9993,11.999071 v 26.797924 a 17.966956,17.966608 0 1 0 -13.99919,29.197738 z"
     style="stroke-width:3.99973" />
</svg>
