<?xml version="1.0" encoding="UTF-8" standalone="no"?>
<svg
   id="icon_gear.svg"
   width="128"
   height="128"
   viewBox="0 0 128 128"
   version="1.1"
   xmlns="http://www.w3.org/2000/svg"
   xmlns:svg="http://www.w3.org/2000/svg">
  <defs
     id="defs1">
    <style
       id="style1">
      .cls-1 {
        fill: #fff;
        fill-rule: evenodd;
      }
    </style>
  </defs>
  <path
     id="Polygon_1"
     data-name="Polygon 1"
     class="cls-1"
     d="m 128,58.833639 v 10.328716 l -17.58297,4.579864 a 48.892635,48.981327 0 0 1 -3.28481,10.32471 l 11.61274,14.316079 -5.92226,8.355052 -16.871652,-6.901825 a 47.553932,47.640196 0 0 1 -8.5677,6.377385 L 88.582186,124.7973 78.991477,128 69.296868,112.24671 a 45.555867,45.638506 0 0 1 -10.585744,0 l -9.698605,15.74128 -9.590709,-3.2027 1.198839,-18.58368 a 47.553932,47.640196 0 0 1 -8.5677,-6.377386 L 15.177297,106.73806 9.2510381,98.383008 20.867785,84.066929 A 48.860666,48.9493 0 0 1 17.582966,73.742219 L 0,69.162355 V 58.833639 L 17.582966,54.253775 A 48.860666,48.9493 0 0 1 20.867785,43.929064 L 9.2510381,29.612985 15.177297,21.257936 32.052949,28.15976 a 47.553932,47.640196 0 0 1 8.5677,-6.373378 L 39.42181,3.2027022 49.012519,0 58.707127,15.753291 a 45.523899,45.60648 0 0 1 10.585746,0 L 78.987481,0 88.57819,3.2027022 87.379351,21.786382 a 47.553932,47.640196 0 0 1 8.5677,6.37738 l 16.875649,-6.901823 5.92226,8.351046 -11.61674,14.316079 a 48.892635,48.981327 0 0 1 3.28482,10.324711 z M 63.998002,31.970975 a 31.96903,32.027022 0 1 0 31.96903,32.027022 31.96903,32.027022 0 0 0 -31.96903,-32.027022 z m 0,56.047289 A 23.976772,24.020266 0 1 1 87.974774,63.997997 23.976772,24.020266 0 0 1 63.998002,88.018264 Z m 0,-32.027023 a 7.9922575,8.0067555 0 1 0 7.992258,8.006756 7.9922575,8.0067555 0 0 0 -7.992258,-8.006756 z"
     style="stroke-width:3.99976" />
</svg>
