<?xml version="1.0" encoding="UTF-8" standalone="no"?>
<svg
   id="icon_people.svg"
   width="128"
   height="128"
   viewBox="0 0 128 128"
   version="1.1"
   xmlns="http://www.w3.org/2000/svg"
   xmlns:svg="http://www.w3.org/2000/svg">
  <defs
     id="defs1">
    <style
       id="style1">
      .cls-1 {
        fill: #fff;
        fill-rule: evenodd;
      }
    </style>
  </defs>
  <path
     class="cls-1"
     d="M 116,128 H 68 a 8,8 0 0 1 -8,-8 v -16 a 31.916,31.916 0 0 1 12.82,-25.572 35.796,35.796 0 0 0 38.36,0 A 31.916,31.916 0 0 1 124,104 v 16 a 8,8 0 0 1 -8,8 z M 92,72 A 24,24 0 1 1 116,48 24,24 0 0 1 92,72 Z M 48,104 H 12 A 8,8 0 0 1 4,96 V 80 a 31.916,31.916 0 0 1 12.82,-25.572 35.796,35.796 0 0 0 38.36,0 c 0.608,0.456 1.148,0.996 1.724,1.492 A 35.828,35.828 0 0 0 63.82,70.364 43.764,43.764 0 0 0 48,104 Z M 36,48 A 24,24 0 1 1 60,24 24,24 0 0 1 36,48 Z"
     id="path1"
     style="stroke-width:4" />
</svg>
