<?xml version="1.0" encoding="UTF-8" standalone="no"?>
<!-- Created with Inkscape (http://www.inkscape.org/) -->

<svg
   version="1.1"
   id="svg1"
   width="128"
   height="128"
   viewBox="0 0 128 128"
   xmlns="http://www.w3.org/2000/svg"
   xmlns:svg="http://www.w3.org/2000/svg"
   xmlns:rdf="http://www.w3.org/1999/02/22-rdf-syntax-ns#"
   xmlns:cc="http://creativecommons.org/ns#"
   xmlns:dc="http://purl.org/dc/elements/1.1/">
  <title
     id="title1">icons_menu_final</title>
  <defs
     id="defs1" />
  <g
     id="g1">
    <path
       style="opacity:1;fill:#ffffff;stroke-width:1.0683"
       d="M 50.646182,126.32952 C 26.18875,121.16052 6.6007834,101.30292 1.5756225,76.583491 c -2.10083,-10.334257 -2.10083,-14.860993 0,-25.195249 C 4.1671873,38.639997 9.6453316,28.543587 19.101525,19.087393 31.845895,6.3430228 45.955964,0.5023844 63.999998,0.5023844 c 18.044035,0 32.154103,5.8406384 44.898472,18.5850086 9.4562,9.456194 14.93434,19.552604 17.52591,32.300849 2.10083,10.334256 2.10083,14.860992 0,25.195249 -5.09872,25.081279 -24.74548,44.728039 -49.826757,49.826759 -9.958122,2.02435 -16.081182,2.00531 -25.951441,-0.0808 z m 31.861379,-14.20355 c 14.14957,-5.49384 26.291369,-18.643758 30.741079,-33.293466 2.96463,-9.760356 2.48579,-24.026198 -1.11952,-33.3542 C 106.66804,31.348876 93.502763,19.18888 78.846635,14.737219 69.08628,11.772601 54.820438,12.25143 45.492435,15.856742 31.363008,21.317825 19.203012,34.483102 14.751351,49.139229 c -2.964617,9.760356 -2.485789,24.026198 1.119523,33.3542 5.29486,13.69936 18.344111,26.026421 32.393161,30.600391 9.140231,2.97582 25.259915,2.52021 34.243526,-0.96785 z M 52.467598,97.281142 C 37.443792,91.919694 27.747156,77.057416 29.009853,61.326873 30.015034,48.804422 37.529518,37.805885 48.892552,32.225651 c 5.150299,-2.529243 7.347544,-2.959705 15.107446,-2.959705 7.759903,0 9.957146,0.430462 15.107446,2.959705 7.038855,3.456688 14.043008,10.619212 17.29355,17.684578 3.584087,7.79037 3.290119,21.178578 -0.640781,29.183084 C 92.275442,86.189356 85.0684,93.203065 78.075635,96.30349 70.998789,99.441197 59.726412,99.871548 52.467598,97.281142 Z M 71.798263,81.484077 c 4.855385,-2.458671 7.094264,-4.642339 9.408298,-9.176286 6.283515,-12.311458 -3.228425,-27.55142 -17.19607,-27.55142 -13.988106,0 -23.505552,15.230199 -17.217055,27.55142 4.835133,9.473606 16.18922,13.640335 25.004827,9.176286 z M 58.075759,69.910105 c -1.652921,-1.652922 -2.622203,-3.842781 -2.622203,-5.924238 0,-2.081458 0.969282,-4.271317 2.622203,-5.924239 5.299,-5.299 14.470682,-1.54415 14.470682,5.924239 0,2.081457 -0.969282,4.271316 -2.622205,5.924238 -1.652922,1.652921 -3.84278,2.622203 -5.924238,2.622203 -2.081457,0 -4.271316,-0.969282 -5.924239,-2.622203 z"
       id="path1" />
  </g>
  <metadata
     id="metadata1">
    <rdf:RDF>
      <cc:Work
         rdf:about="">
        <dc:title>icons_menu_final</dc:title>
      </cc:Work>
    </rdf:RDF>
  </metadata>
</svg>
