<?xml version="1.0" encoding="UTF-8" standalone="no"?>
<svg
   version="1.2"
   viewBox="0 0 128 128"
   width="128"
   height="128"
   id="svg1"
   xmlns="http://www.w3.org/2000/svg"
   xmlns:svg="http://www.w3.org/2000/svg"
   xmlns:rdf="http://www.w3.org/1999/02/22-rdf-syntax-ns#"
   xmlns:cc="http://creativecommons.org/ns#"
   xmlns:dc="http://purl.org/dc/elements/1.1/">
  <defs
     id="defs1" />
  <title
     id="title1">icons_menu_final</title>
  <style
     id="style1">
		.s0 { fill: #ffffff } 
	</style>
  <g
     id="icon_palette"
     transform="matrix(1.0765349,0,0,1.0765349,-6.4592092,-6.3910847)">
    <path
       id="Rectangle 19"
       fill-rule="evenodd"
       class="s0"
       d="m 87.9,107.9 c -18.7,18.8 -49.1,18.8 -67.8,0 -18.8,-18.7 -18.8,-49.1 0,-67.8 18.7,-18.8 49.1,-18.8 67.8,0 15.1,15 -9.1,23.4 -9.1,38.9 0,12.9 27.9,10.2 9.1,28.9 z M 54,89.6 c -4.7,4.6 -4.7,12.2 0,16.9 4.7,4.7 12.3,4.7 17,0 4.7,-4.7 4.7,-12.3 0,-16.9 -4.7,-4.7 -12.3,-4.7 -17,0 z m 9.2,-41.8 c -3.5,3.6 -3.5,9.3 0,12.8 3.5,3.5 9.2,3.5 12.7,0 3.5,-3.5 3.5,-9.2 0,-12.8 -3.5,-3.5 -9.2,-3.5 -12.7,0 z m -25.5,-7 c -3.5,3.5 -3.5,9.2 0,12.7 3.6,3.5 9.2,3.5 12.8,0 3.5,-3.5 3.5,-9.2 0,-12.7 -3.6,-3.5 -9.2,-3.5 -12.8,0 z M 18.6,59.9 c -3.5,3.5 -3.5,9.2 0,12.7 3.6,3.5 9.3,3.5 12.8,0 3.5,-3.5 3.5,-9.2 0,-12.7 -3.5,-3.6 -9.2,-3.6 -12.8,0 z" />
    <path
       id="Ellipse 12"
       fill-rule="evenodd"
       class="s0"
       d="m 113,9 c 5,0 9,28.1 9,48 H 103.9 C 103.9,37.1 108,9 113,9 Z" />
    <path
       id="Shape 16"
       fill-rule="evenodd"
       class="s0"
       d="M 103.9,63 H 122 l -6,18 h -6 z" />
    <path
       id="Ellipse 11"
       fill-rule="evenodd"
       class="s0"
       d="m 101,99 c 0,-6.6 5.4,-11.9 12,-11.9 6.6,0 11.9,5.3 11.9,11.9 0,15.7 -11.9,21 -11.9,21 0,-11.1 -12,-14.5 -12,-21 z" />
  </g>
  <metadata
     id="metadata1">
    <rdf:RDF>
      <cc:Work
         rdf:about="">
        <dc:title>icons_menu_final</dc:title>
      </cc:Work>
    </rdf:RDF>
  </metadata>
</svg>
