<?xml version="1.0" encoding="UTF-8" standalone="no"?>
<svg
   id="icon_burst.svg"
   width="128"
   height="128"
   viewBox="0 0 128 128"
   version="1.1"
   xmlns="http://www.w3.org/2000/svg"
   xmlns:svg="http://www.w3.org/2000/svg">
  <defs
     id="defs1">
    <style
       id="style1">
      .cls-1 {
        fill: #fff;
        fill-rule: evenodd;
      }
    </style>
  </defs>
  <path
     id="Shape_9_copy_9"
     data-name="Shape 9 copy 9"
     class="cls-1"
     d="m 120.24004,69.225036 c -18.71444,6.071494 -47.144074,2.423798 -47.144074,2.423798 0,0 28.633614,11.419048 31.965334,12.498958 7.08341,2.299808 -1.82784,13.386884 -7.971334,11.39505 C 85.40294,91.751158 70.756161,75.220536 70.756161,75.220536 L 100.3097,115.83315 c 7.00741,9.6312 -14.866763,15.5427 -20.950256,7.1994 C 67.792408,107.13787 62.484851,79.01222 62.484851,79.01222 c 0,0 -1.999834,30.76143 -1.999834,34.27314 0,7.46338 -13.290892,2.3998 -13.290892,-4.06366 0,-12.318972 11.151071,-31.325387 11.151071,-31.325387 L 28.815657,118.48893 c -7.007416,9.6312 -19.398384,-9.31523 -13.31489,-17.67453 11.567036,-15.894673 36.71294,-29.625528 36.71294,-29.625528 0,0 -29.885509,7.567369 -33.221231,8.651279 -7.08341,2.299808 -6.399467,-11.903008 -0.259978,-13.894842 11.683026,-3.775685 33.281226,0.983918 33.281226,0.983918 L 4.1817094,51.41852 C -7.1573455,47.738827 7.0614694,30.120295 16.90065,33.312029 c 18.71444,6.059495 39.564702,25.705857 39.564702,25.705857 0,0 -16.450628,-26.045828 -18.502457,-28.873593 -4.375636,-5.9995 9.35922,-9.759186 13.154903,-4.539621 7.223398,9.927172 9.383218,31.733354 9.383218,31.733354 V 6.9462265 c 0,-11.9510038 21.134238,-3.863678 21.134238,6.5074585 0,19.722356 -12.23498,45.692191 -12.23498,45.692191 0,0 19.698358,-23.506041 21.758187,-26.337805 4.375635,-5.9995 12.186989,5.871511 8.399299,11.091076 -7.223397,9.927172 -27.493708,18.726439 -27.493708,18.726439 L 119.88007,47.110879 c 11.32705,-3.679693 10.19915,18.922423 0.35997,22.114157 z M 62.72883,58.025969 a 9.9991665,9.9991665 0 1 0 9.999167,9.999167 9.9991665,9.9991665 0 0 0 -10.003166,-9.991168 z"
     style="stroke-width:3.99967" />
</svg>
