<?xml version="1.0" encoding="UTF-8" standalone="no"?>
<svg
   id="icon_random_off_a.svg"
   width="128"
   height="128"
   viewBox="0 0 128 128"
   version="1.1"
   xmlns="http://www.w3.org/2000/svg"
   xmlns:svg="http://www.w3.org/2000/svg">
  <defs
     id="defs1">
    <style
       id="style1">
      .cls-1 {
        fill: #fff;
        fill-rule: evenodd;
      }
    </style>
  </defs>
  <path
     id="Ellipse_2_copy_2"
     data-name="Ellipse 2 copy 2"
     class="cls-1"
     d="m 48,120 v -16 h 80 v 16 z m 0,-64 h 80 V 72 H 48 Z M 48,8 h 80 V 24 H 48 Z M 16,128 A 16,16 0 1 1 32,112 16,16 0 0 1 16,128 Z M 16,80 A 16,16 0 1 1 32,64 16,16 0 0 1 16,80 Z M 16,32 A 16,16 0 1 1 32,16 16,16 0 0 1 16,32 Z"
     style="stroke-width:4" />
</svg>
