<svg id="icon_alert.svg" xmlns="http://www.w3.org/2000/svg" width="128" height="128" viewBox="0 0 128 128">
  <defs>
    <style>
      .cls-1 {
        fill: #fff;
        fill-rule: evenodd;
      }
    </style>
  </defs>
  <path id="_" data-name="!" class="cls-1" d="M99.96,103H28.04a12,12,0,0,1-9.99-18.649L54.01,30.324a12,12,0,0,1,19.979,0l35.96,54.028A12,12,0,0,1,99.96,103ZM56.306,83.247a5.834,5.834,0,0,0-.413,2.135,4.476,4.476,0,0,0,.52,2.153A5.57,5.57,0,0,0,57.778,89.2a6.513,6.513,0,0,0,1.9,1.095,6.158,6.158,0,0,0,2.171.395A6.556,6.556,0,0,0,66,89.2a5.585,5.585,0,0,0,1.364-1.669,5.163,5.163,0,0,0,.592-2.153,5.888,5.888,0,0,0-.323-2.1,5.385,5.385,0,0,0-1.148-1.92,6.064,6.064,0,0,0-1.956-1.4,5.972,5.972,0,0,0-2.674-.5,6.032,6.032,0,0,0-4.361,1.9A5.834,5.834,0,0,0,56.306,83.247Zm3.5-42.514L58.478,74.11l8.721,0.5,3.015-33.376Z"/>
</svg>
