<?xml version="1.0" encoding="UTF-8" standalone="no"?>
<svg
   version="1.2"
   viewBox="0 0 128 128"
   width="128"
   height="128"
   id="svg1"
   xmlns="http://www.w3.org/2000/svg"
   xmlns:svg="http://www.w3.org/2000/svg"
   xmlns:rdf="http://www.w3.org/1999/02/22-rdf-syntax-ns#"
   xmlns:cc="http://creativecommons.org/ns#"
   xmlns:dc="http://purl.org/dc/elements/1.1/">
  <defs
     id="defs1" />
  <title
     id="title1">icons_menu_final</title>
  <style
     id="style1">
		.s0 { fill: #ffffff } 
	</style>
  <g
     id="icon_puzzle"
     transform="matrix(1.3748657,0,0,1.3733906,-17.622033,-17.579399)">
    <path
       id="Ellipse 11 copy"
       fill-rule="evenodd"
       class="s0"
       d="m 46,34 h 15.7 c -2.4,-2.2 -3.9,-5.4 -3.9,-9 0,-6.7 5.5,-12.2 12.2,-12.2 6.7,0 12.2,5.5 12.2,12.2 0,3.6 -1.5,6.8 -3.9,9 H 94 c 6.6,0 12,5.4 12,12 v 17 c -2.2,-2.5 -5.4,-4.1 -9,-4.1 -6.7,0 -12.1,5.4 -12.1,12.1 0,6.7 5.4,12.1 12.1,12.1 3.6,0 6.8,-1.6 9,-4.1 v 15 c 0,6.6 -5.4,12 -12,12 H 77.6 c 2.6,-2.2 4.2,-5.4 4.2,-9 0,-6.5 -5.3,-11.8 -11.8,-11.8 -6.5,0 -11.8,5.3 -11.8,11.8 0,3.6 1.6,6.8 4.2,9 H 46 C 39.4,106 34,100.6 34,94 V 78 c -2.2,2.5 -5.4,4.1 -9,4.1 -6.7,0 -12.1,-5.4 -12.1,-12.1 0,-6.7 5.4,-12.1 12.1,-12.1 3.6,0 6.8,1.6 9,4.1 V 46 c 0,-6.6 5.4,-12 12,-12 z" />
  </g>
  <metadata
     id="metadata1">
    <rdf:RDF>
      <cc:Work
         rdf:about="">
        <dc:title>icons_menu_final</dc:title>
      </cc:Work>
    </rdf:RDF>
  </metadata>
</svg>
