<?xml version="1.0" encoding="UTF-8" standalone="no"?>
<svg
   id="icon_suitcase.svg"
   width="128"
   height="128"
   viewBox="0 0 128 128"
   version="1.1"
   xmlns="http://www.w3.org/2000/svg"
   xmlns:svg="http://www.w3.org/2000/svg">
  <defs
     id="defs1">
    <style
       id="style1">
      .cls-1 {
        fill: #fff;
        fill-rule: evenodd;
      }
    </style>
  </defs>
  <path
     class="cls-1"
     d="M 120,128 H 8 A 8,8 0 0 1 0,120 V 96 h 48 v 16 H 80 V 96 h 48 v 24 a 8,8 0 0 1 -8,8 z M 96,88 112,64 H 80 V 80 H 48 V 64 H 16 L 32,88 H 16 L 0,64 V 48 a 8,8 0 0 1 8,-8 h 112 a 8,8 0 0 1 8,8 V 64 L 112,88 Z M 84,16 H 48 V 32 H 32 V 12 A 12,12 0 0 1 44,0 h 44 a 12,12 0 0 1 12,12 V 32 H 84 Z"
     id="path1"
     style="stroke-width:4" />
</svg>
