<?xml version="1.0" encoding="UTF-8" standalone="no"?>
<svg
   id="icon_servers.svg"
   width="128"
   height="128"
   viewBox="0 0 128 128"
   version="1.1"
   xmlns="http://www.w3.org/2000/svg"
   xmlns:svg="http://www.w3.org/2000/svg">
  <defs
     id="defs1">
    <style
       id="style1">
      .cls-1 {
        fill: #fff;
        fill-rule: evenodd;
      }
    </style>
  </defs>
  <path
     id="Rectangle_42_copy_5"
     data-name="Rectangle 42 copy 5"
     class="cls-1"
     d="M 121.14286,128 H 6.8571429 A 6.8571429,6.8571429 0 0 1 0,121.14286 V 98.285714 A 6.8571429,6.8571429 0 0 1 6.8571429,91.428571 H 121.14286 A 6.8571429,6.8571429 0 0 1 128,98.285714 V 121.14286 A 6.8571429,6.8571429 0 0 1 121.14286,128 Z M 22.857143,100.57143 A 9.1428571,9.1428571 0 1 0 32,109.71429 9.1428571,9.1428571 0 0 0 22.857143,100.57143 Z m 32,0 A 9.1428571,9.1428571 0 1 0 64,109.71429 9.1428571,9.1428571 0 0 0 54.857143,100.57143 Z m 54.857147,6.85714 a 6.8571429,6.8571429 0 0 0 -6.85715,-6.85714 H 84.571429 a 6.8571429,6.8571429 0 0 0 -6.857143,6.85714 V 112 a 6.8571429,6.8571429 0 0 0 6.857143,6.85714 H 102.85714 A 6.8571429,6.8571429 0 0 0 109.71429,112 Z M 121.14286,82.285714 H 6.8571429 A 6.8571429,6.8571429 0 0 1 0,75.428571 V 52.571429 A 6.8571429,6.8571429 0 0 1 6.8571429,45.714286 H 121.14286 A 6.8571429,6.8571429 0 0 1 128,52.571429 v 22.857142 a 6.8571429,6.8571429 0 0 1 -6.85714,6.857143 z M 22.857143,54.857143 A 9.1428571,9.1428571 0 1 0 32,64 9.1428571,9.1428571 0 0 0 22.857143,54.857143 Z m 32,0 A 9.1428571,9.1428571 0 1 0 64,64 9.1428571,9.1428571 0 0 0 54.857143,54.857143 Z m 54.857147,6.857143 a 6.8571429,6.8571429 0 0 0 -6.85715,-6.857143 H 84.571429 a 6.8571429,6.8571429 0 0 0 -6.857143,6.857143 v 4.571428 a 6.8571429,6.8571429 0 0 0 6.857143,6.857143 h 18.285711 a 6.8571429,6.8571429 0 0 0 6.85715,-6.857143 z M 121.14286,36.571429 H 6.8571429 A 6.8571429,6.8571429 0 0 1 0,29.714286 V 6.8571429 A 6.8571429,6.8571429 0 0 1 6.8571429,0 H 121.14286 A 6.8571429,6.8571429 0 0 1 128,6.8571429 V 29.714286 a 6.8571429,6.8571429 0 0 1 -6.85714,6.857143 z M 22.857143,9.1428571 A 9.1428571,9.1428571 0 1 0 32,18.285714 9.1428571,9.1428571 0 0 0 22.857143,9.1428571 Z m 32,0 A 9.1428571,9.1428571 0 1 0 64,18.285714 9.1428571,9.1428571 0 0 0 54.857143,9.1428571 Z M 109.71429,16 A 6.8571429,6.8571429 0 0 0 102.85714,9.1428571 H 84.571429 A 6.8571429,6.8571429 0 0 0 77.714286,16 v 4.571429 a 6.8571429,6.8571429 0 0 0 6.857143,6.857142 h 18.285711 a 6.8571429,6.8571429 0 0 0 6.85715,-6.857142 z"
     style="stroke-width:4.57143" />
</svg>
