<?xml version="1.0" encoding="UTF-8" standalone="no"?>
<svg
   version="1.2"
   viewBox="0 0 128 128"
   width="128"
   height="128"
   id="svg1"
   xmlns="http://www.w3.org/2000/svg"
   xmlns:svg="http://www.w3.org/2000/svg"
   xmlns:rdf="http://www.w3.org/1999/02/22-rdf-syntax-ns#"
   xmlns:cc="http://creativecommons.org/ns#"
   xmlns:dc="http://purl.org/dc/elements/1.1/">
  <defs
     id="defs1" />
  <title
     id="title1">icons_menu_final</title>
  <style
     id="style1">
		.s0 { fill: #ffffff } 
	</style>
  <g
     id="icon_blacklist"
     transform="matrix(1.3328955,0,0,1.3328955,-21.305314,-22.638209)">
    <path
       id="Ellipse 11"
       fill-rule="evenodd"
       class="s0"
       d="M 105.6,41 C 118.8,64 111,93.3 88,106.6 65,119.8 35.7,112 22.4,89 9.2,66 17,36.7 40,23.4 63,10.2 92.3,18 105.6,41 Z M 46,33.8 C 30.6,42.7 24.2,61.4 30.3,77.6 L 91.7,42.1 C 80.8,28.7 61.4,24.9 46,33.8 Z M 82,96.2 C 97.4,87.3 103.8,68.6 97.7,52.4 L 36.3,87.9 c 10.9,13.4 30.3,17.2 45.7,8.3 z" />
  </g>
  <metadata
     id="metadata1">
    <rdf:RDF>
      <cc:Work
         rdf:about="">
        <dc:title>icons_menu_final</dc:title>
      </cc:Work>
    </rdf:RDF>
  </metadata>
</svg>
