<?xml version="1.0" encoding="UTF-8" standalone="no"?>
<svg
   id="icon_party.svg"
   width="128"
   height="128"
   viewBox="0 0 128 128"
   version="1.1"
   xmlns="http://www.w3.org/2000/svg"
   xmlns:svg="http://www.w3.org/2000/svg">
  <defs
     id="defs1">
    <style
       id="style1">
      .cls-1 {
        fill: #fff;
        fill-rule: evenodd;
      }
    </style>
  </defs>
  <path
     class="cls-1"
     d="m 128,98 h -20 v 20 H 92 V 98 H 72 V 82 H 92 V 62 h 16 v 20 h 20 z M 84,62 V 74 H 70.7 A 27.876,27.876 0 0 0 61.168,60.104 19.364,19.364 0 0 0 61.748,40.96 19.452,19.452 0 0 0 68,42 19.828,19.828 0 0 0 79.892,38 19.912,19.912 0 0 1 88,54 v 1.108 A 7.964,7.964 0 0 0 84,62 Z M 68,34 A 12,12 0 1 1 80,22 12,12 0 0 1 68,34 Z M 44,62 A 12,12 0 1 1 56,50 12,12 0 0 1 44,62 Z M 20,34 A 12,12 0 1 1 32,22 12,12 0 0 1 20,34 Z m 0,8 a 19.448,19.448 0 0 0 6.252,-1.04 19.364,19.364 0 0 0 0.58,19.144 A 27.876,27.876 0 0 0 17.3,74 H 4 A 4,4 0 0 1 0,70 V 54 A 19.912,19.912 0 0 1 8.108,38 19.828,19.828 0 0 0 20,42 Z M 44,70 A 19.828,19.828 0 0 0 55.892,66 19.912,19.912 0 0 1 64,82 v 16 a 4,4 0 0 1 -4,4 H 28 A 4,4 0 0 1 24,98 V 82 A 19.912,19.912 0 0 1 32.108,66 19.828,19.828 0 0 0 44,70 Z"
     id="path1"
     style="stroke-width:4" />
</svg>
