<?xml version="1.0" encoding="UTF-8" standalone="no"?>
<svg
   id="icon_mic_off.svg"
   width="128"
   height="128"
   viewBox="0 0 128 128"
   version="1.1"
   xmlns="http://www.w3.org/2000/svg"
   xmlns:svg="http://www.w3.org/2000/svg">
  <defs
     id="defs1">
    <style
       id="style1">
      .cls-1 {
        fill: #fff;
        fill-rule: evenodd;
      }
    </style>
  </defs>
  <path
     id="Shape_46_copy_11"
     data-name="Shape 46 copy 11"
     class="cls-1"
     d="M 128,12 12,128 0,116 32.192,83.812 A 47.688,47.688 0 0 1 16,48 h 16 a 31.808,31.808 0 0 0 11.52,24.48 l 5.7,-5.7 A 23.86,23.86 0 0 1 40,48 V 24 a 24,24 0 0 1 48,0 v 4 L 116,0 Z M 64,0 Z m -8,112 v -8 L 112,48 A 47.972,47.972 0 0 1 72,95.28 V 112 h 16 v 16 H 40 v -8 l 8,-8 z"
     style="stroke-width:4" />
</svg>
