<?xml version="1.0" encoding="UTF-8"?>
<svg xmlns="http://www.w3.org/2000/svg" width="512" height="512" xmlns:xlink="http://www.w3.org/1999/xlink" viewBox="0 0 512 512">
  <defs>
    <linearGradient id="c" data-name="Dégradé sans nom 5" x1="256" y1="1.903" x2="256" y2="505.139" gradientUnits="userSpaceOnUse">
      <stop offset="0" stop-color="#4a2a13"/>
      <stop offset="1" stop-color="#230e0b"/>
    </linearGradient>
    <mask id="e" data-name="mask" x="463.567" y="-99.516" width="756.049" height="725.1" maskUnits="userSpaceOnUse"/>
    <clipPath id="f">
      <rect x="572" width="512" height="512" fill="none"/>
    </clipPath>
  </defs>
  <g id="a" data-name="Calque 1">
    <image width="512" height="512" xlink:href="5.png"/>
  </g>
  <g id="b" data-name="Calque 2">
    <rect width="512" height="512" fill="url(#c)"/>
  </g>
  <g id="d" data-name="Calque 3">
    <g mask="url(#e)">
      <g opacity=".5">
        <g clip-path="url(#f)">
          <polygon points="828 256 518.355 42.161 463.567 109.082 828 256" fill="#c2592b"/>
          <polygon points="828 256 492.419 198.625 506.871 223.611 828 256" fill="#c2592b"/>
        </g>
      </g>
    </g>
    <g>
      <polygon points="0 280.355 28.677 289.387 56.806 286.806 138.097 230.548 187.387 240.355 253.71 316.484 279 329.903 283.387 343.065 261.194 379.968 251.903 405.258 228.419 406.806 226.871 440.613 281.065 455.452 293.065 464.613 305.065 478.548 304.161 512 161.645 512 145.581 507.452 119.452 485 100.871 394.419 133.774 346.032 181.194 341.968 202.097 352.806 216.419 376.226 219.516 391.903 209.839 439.323 215.645 439.903 207.129 445.323 193.194 467.968 222.613 439.516 219.323 435.452 224.548 397.71 245.645 397.903 253.387 374.871 275.258 345.065 272.355 336.742 253.194 326.871 228.613 382.032 244.29 318.935 182.548 247.71 140.161 238.806 60.419 293.968 29.645 297.839 0 289.71 0 280.355" fill="#e8dbae"/>
      <polygon points="86.742 367.129 109.387 487.71 118.871 496.226 117.71 512 93.323 512 96.032 502.032 86.742 367.129" fill="#e8dbae"/>
      <polygon points="229.968 436.613 239.258 417 251.323 417 266.806 440.548 243.516 430.484 245.774 437 229.968 436.613" fill="#e8dbae"/>
      <g>
        <path d="M144.595,270.911c-15.537,2.644-26.528,14.214-24.55,25.843,1.979,11.629,16.178,18.912,31.715,16.269,15.537-2.644,26.528-14.214,24.55-25.843-1.979-11.629-16.178-18.912-31.715-16.269ZM151.081,309.029c-12.59,2.142-24.097-3.76-25.7-13.183s7.303-18.799,19.894-20.941c12.59-2.142,24.097,3.76,25.7,13.183s-7.303,18.799-19.894,20.941Z" fill="#e8dbae"/>
        <path d="M199.581,279.645c-5.419-11.226-15.484-22.452-36.968-27.677-21.484-5.226-41.226,7.161-41.226,7.161l-28.645,18.194-25.935,28.258-5.613,17.032,12.387,15.484,12.968,10.452-3.871-20.71,3.871-27.097,14.129-12.581-7.742,17.032c-1.935,30.968,2.129,61.161,2.129,61.161l34.065-35.226,46.839-6.194,31.089,15.29,11.739,26.129-19.215-86.71ZM152.601,317.965c-19.184,3.264-36.717-5.729-39.16-20.087-2.443-14.358,11.128-28.644,30.312-31.909,19.184-3.264,36.717,5.729,39.16,20.087,2.443,14.358-11.128,28.644-30.312,31.909Z" fill="#e8dbae"/>
      </g>
      <path d="M352.419,401.645s-10.526,9.271-25.032,10.71l-4.968,27.484s17.806-3.29,27.226-9.355c0,0,4.645-8.581,4.71-15.419s-1.935-13.419-1.935-13.419Z" fill="#e8dbae"/>
      <path d="M291.613,450.742s11.613,5.129,16.161,8.516l24.677-.387-9.71-7.452-16.661-4.645s-10.984,2.806-14.468,3.968Z" fill="#e8dbae"/>
      <path d="M382.355,363.452l-13.935-14.065-22.581-9.677-26.71,1.29s-4.387-8-10.452-8-19.935,4.452-21.548,9.097l-.129,3.742-3.613-2.774-4.71,3.161-.183,4.974-19.365,52.123,12.645,36.645,14.581,9.677,27.806-8.202s5.831-3.443,2.347-14.54c-3.484-11.097-18.992-23.387-18.992-23.387l-5.742-3.094.645-3.939,8.774,2.581,17.419,16.839,6.452-21.355,2.323-1.677s7.871,9.548,7.097,14.839l3.355.258,23.097-13.935-2.323,3.742s6.452,14.065,6.452,15.355-3.871,5.774-3.871,5.774h5.903l14.226-18.481,5.032-19.164-4-17.806ZM312.677,429.129c-6.968,1.419-13.677,8.774-13.677,8.774,2.839-9.29-3.097-22-3.097-22,11.806,12.387,16.774,13.226,16.774,13.226ZM295.147,345.55c-1.466-4.608,5.68-5.888,7.412-6.09s6.52.234,6.52.234l.214-2.646-5.765-.06-8.102,3.103-1.209-.551,9.471-3.795,7.655.233.358,4.502-4.99,3.18-11.564,1.89ZM320.548,393.452c-6.556-2.258-14.468-7.984-14.468-7.984,15.145-1.452,20.855.435,20.855.435-.774.29-6.387,7.548-6.387,7.548ZM354.758,386.048s-4.161-.145-7.548,1.21l-5.661-11.903s-1.258-3.677-8.032-5.323l3.774-1.79,6.581,4.306,2.903,6.461,2.565-.074-2.274-7.258-6.919-10.306,10.79,8.613,3.919,15.435,5.903,2.129-6-1.5Z" fill="#e8dbae"/>
      <path d="M359.645,430.806l-12.677,3.774s17.226-.194,28.548,2.71l-15.871-6.484Z" fill="#e8dbae"/>
      <path d="M343.29,437.903l7.258.839,14.032,9.871,16.645-2.71,19.548,12.484-17.613-17.129s-19-5.29-39.871-3.355Z" fill="#e8dbae"/>
      <polygon points="366.516 450.452 378.032 460.419 391.871 460.419 409.774 472.323 396.71 457.903 382.097 450.452 366.516 450.452" fill="#e8dbae"/>
      <polygon points="381.419 464.194 389.548 472.806 386.355 491.871 396.032 487.903 408.226 494.677 417.613 494.677 424.581 490.129 423.71 482.29 392.548 464.194 381.419 464.194" fill="#e8dbae"/>
      <polygon points="394.677 491.581 388.145 495.742 396.71 508.903 384.806 498.065 379.387 498.935 385 506.387 385 512 416.355 512 420.806 499.903 418 496.71 406.097 497.484 394.677 491.581" fill="#e8dbae"/>
    </g>
    <polygon points="426.688 326.947 426.804 338.119 462.597 337.122 432.972 368.514 432.285 375.133 478.823 374.697 479.673 366.144 455.608 366.362 483.884 334.647 483.94 324.976 426.688 326.947" fill="#c2592b"/>
    <polygon points="442.734 435.176 443.781 427.885 420.359 424.938 442.817 407.461 443.93 403.217 413.563 398.824 412.15 404.311 427.852 406.588 406.24 424.41 405.232 430.706 442.734 435.176" fill="#c2592b"/>
    <polygon points="446.464 291.987 366.42 306.989 364.311 296.198 403.29 249.152 351.988 260.09 347.137 238.256 429.043 223.611 434.114 244.857 410.516 285.277 444.898 280.426 446.464 291.987" fill="#c2592b"/>
    <polygon points="439.878 198.876 330.434 170.711 334.229 147.625 425.052 75.855 340.233 57.057 345.682 19.19 480.029 52.715 476.042 83.034 389.881 159.558 444.998 174.674 439.878 198.876" fill="#c2592b"/>
    <g>
      <path d="M210.438,40.039c6.889,0,13.558.982,20.007,2.944,6.448,1.964,12.476,4.747,18.085,8.351,5.606,3.605,10.755,7.931,15.441,12.978s8.691,10.655,12.016,16.823c3.323,6.17,5.907,12.797,7.751,19.887,1.842,7.09,2.764,14.48,2.764,22.17s-.922,15.062-2.764,22.11c-1.844,7.05-4.427,13.62-7.751,19.707-3.325,6.089-7.33,11.637-12.016,16.643-4.686,5.007-9.835,9.294-15.441,12.857-5.608,3.565-11.637,6.308-18.085,8.231-6.449,1.923-13.118,2.884-20.007,2.884-6.969,0-13.68-.962-20.127-2.884-6.449-1.923-12.497-4.666-18.145-8.231-5.648-3.563-10.815-7.85-15.501-12.857-4.686-5.006-8.693-10.554-12.017-16.643-3.325-6.087-5.909-12.656-7.75-19.707-1.844-7.048-2.764-14.419-2.764-22.11s.92-15.08,2.764-22.17c1.842-7.089,4.425-13.717,7.75-19.887,3.323-6.168,7.33-11.776,12.017-16.823,4.686-5.047,9.854-9.373,15.501-12.978,5.648-3.605,11.695-6.387,18.145-8.351,6.447-1.962,13.158-2.944,20.127-2.944ZM210.438,175.823c3.846,0,7.889-.92,12.136-2.764,4.245-1.842,8.171-4.545,11.776-8.111,3.605-3.563,6.588-7.991,8.952-13.278,2.362-5.287,3.545-11.416,3.545-18.385,0-6.889-1.042-13.017-3.124-18.385-2.084-5.366-4.848-9.893-8.291-13.579-3.445-3.683-7.33-6.488-11.656-8.411-4.326-1.923-8.772-2.884-13.338-2.884-4.647,0-9.132.961-13.458,2.884-4.326,1.923-8.171,4.728-11.536,8.411-3.365,3.686-6.068,8.213-8.111,13.579-2.043,5.368-3.064,11.496-3.064,18.385,0,6.969,1.121,13.098,3.365,18.385,2.242,5.287,5.126,9.714,8.652,13.278,3.524,3.566,7.409,6.269,11.656,8.111,4.245,1.844,8.411,2.764,12.497,2.764Z" fill="#e8dbae"/>
      <path d="M113.958,43.43l-6.969,161.139-41.576-2.163,4.205-112.473-10.814,11.055-19.947-23.913,36.649-36.169,38.452,2.523Z" fill="#e8dbae"/>
    </g>
  </g>
</svg>