<?xml version="1.0" encoding="UTF-8" standalone="no"?>
<svg
   width="512"
   height="512"
   viewBox="0 0 512 512"
   version="1.1"
   id="svg20"
   sodipodi:docname="tf2c_achievement_airhockey.svg"
   inkscape:version="1.4.3 (0d15f75, 2025-12-25)"
   xmlns:inkscape="http://www.inkscape.org/namespaces/inkscape"
   xmlns:sodipodi="http://sodipodi.sourceforge.net/DTD/sodipodi-0.dtd"
   xmlns:xlink="http://www.w3.org/1999/xlink"
   xmlns="http://www.w3.org/2000/svg"
   xmlns:svg="http://www.w3.org/2000/svg">
  <sodipodi:namedview
     id="namedview20"
     pagecolor="#ffffff"
     bordercolor="#000000"
     borderopacity="0.25"
     inkscape:showpageshadow="2"
     inkscape:pageopacity="0.0"
     inkscape:pagecheckerboard="0"
     inkscape:deskcolor="#d1d1d1"
     showgrid="false"
     inkscape:zoom="2.2949219"
     inkscape:cx="256"
     inkscape:cy="256"
     inkscape:window-width="2560"
     inkscape:window-height="1377"
     inkscape:window-x="-8"
     inkscape:window-y="534"
     inkscape:window-maximized="1"
     inkscape:current-layer="svg20" />
  <defs
     id="defs2">
    <linearGradient
       id="c"
       data-name="Dégradé sans nom 5"
       x1="256"
       y1="1.903"
       x2="256"
       y2="505.139"
       gradientUnits="userSpaceOnUse">
      <stop
         offset="0"
         stop-color="#4a2a13"
         id="stop1" />
      <stop
         offset="1"
         stop-color="#230e0b"
         id="stop2" />
    </linearGradient>
    <linearGradient
       data-name="Dégradé sans nom 5"
       x1="256"
       y1="1.903"
       x2="256"
       y2="505.139"
       gradientUnits="userSpaceOnUse"
       id="linearGradient7672">
      <stop
         offset="0"
         stop-color="#4a2a13"
         id="stop1-1"
         style="stop-color:#2e2e2e" />
      <stop
         offset="1"
         stop-color="#230e0b"
         id="stop2-1"
         style="stop-color:#171717" />
    </linearGradient>
  </defs>
  <g
     id="a"
     data-name="Calque 1">
    <image
       width="512"
       height="512"
       xlink:href="../../../../Alexander/Documents/GitHub/tf2classified-steam/depots/tf2classic_shared/tf2classic/resource/svgs/achievements/BW/25.png"
       id="image2" />
  </g>
  <g
     id="b"
     data-name="Calque 2">
    <rect
       width="512"
       height="512"
       fill="url(#c)"
       id="rect2"
       style="fill:url(#linearGradient7672)" />
  </g>
  <g
     id="d"
     data-name="Calque 3">
    <g
       id="g11">
      <path
         d="M449,0l-90.302,186.602c-6.901,14.26-12.841,27.969-21.235,41.268-7.855,12.445-42.226,18.324-54.53,15.99l-108.057-20.5-5.43-15.175-11.936,11.533-9.895-1.805-1.812-34.39-16.441,30.957c-21.481-4.084-44.17-6.117-56.95-25.822-2.687-4.143-6.108-12.511-5.758-17.598,1.421-20.667,3.889-39.786,6.337-60.218,1.242-10.362,8.222-19.21,17.516-24.107,7.693-4.053,14.169-4.985,20.994-4.979,11.225.011,22.344,2.187,32.883,6.051l82.551,30.27,6.23,26.271,10.144-20.151,28.444,10.112c7.622,2.71,23.506.44,31.992-2.875,3.689-3.5,8.711-8.623,11.384-13.202,8.918-15.283,17.928-29.405,25.626-45.329L376,0h73ZM408.364,59.708l16.522-32.593-40.76-16.219-16.552,33.121,40.789,15.691ZM382.941,115.872l17.312-34.615-44.33-17.477-17.427,34.334,44.444,17.758Z"
         fill="#e8dbae"
         id="path2"
         style="fill:#cbcbcb" />
      <path
         d="M341.606,498.183c-34.492,10.195-67.034,9.22-102.568,6.896-26.207-5.129-55.462-9.299-78.621-22.717-5.364-3.108-9.999-9.216-13.365-14.316l2.111-49.022c.462-10.735,28.302-15.247,36.833-16.276,41.411-4.994,82.754-3.189,123.766,4.487,15.185,2.842,57.312,9.06,55.454,28.707l-4.695,49.637c-2.824,6.013-13.548,11.015-18.917,12.602ZM316.764,493.737c8.492-1.114,26.559-5.582,33.635-11.673l4.571-48.443c-8.406-10.008-35.885-14.513-48.951-16.961-39.439-7.389-79.211-9.067-119.045-3.969-10.09,1.291-19.292,3.103-27.609,8.468l-1.634,43.012c2.476,6.094,9.648,10.95,15.56,13.347,6.744,2.733,12.882,5.612,19.731,7.42,46.106,12.174,75.85,15.083,123.742,8.799Z"
         fill="#e8dbae"
         id="path3"
         style="fill:#cbcbcb" />
      <path
         d="M453.652,379.661c-26.055,9.242-47.048,12.103-74.785,11.533-11.394-.234-23.636-2.202-31.963-10.054l-11.257-32.762c-3.456-10.058,13.207-17.94,20.829-21.225,32.653-14.072,67.689-20.711,103.44-20.953,6.743-.046,20.588,2.093,22.336,9.294l8.879,36.595c2.769,11.413-28.808,24.497-37.48,27.573ZM468.684,364.526c6.088-3.093,11.514-7.106,14.75-12.13l-8.684-34.868c-3.685-2.06-8.395-3.635-12.79-3.65-35.627-.122-70.436,6.623-102.855,20.915-6.376,2.811-11.682,6.001-16.259,11.046,3.737,10.498,6.235,20.125,10.724,30.068,2.246,4.974,11.165,6.658,16.56,7.173,34.14,3.26,67.817-2.94,98.553-18.554Z"
         fill="#e8dbae"
         id="path4"
         style="fill:#cbcbcb" />
      <path
         d="M183.371,342.773c-1.245,6.06-17.812,8.07-23.511,8.369-35.604,1.869-70.8-4.42-103.355-18.59-7.201-3.134-12.471-7.168-16.495-13.952l3.571-28.997c.804-6.531,20.985-7.117,25.758-7.1,35.665.122,70.334,6.273,104.003,17.887,6.613,2.281,17.245,7.269,15.543,15.55l-5.514,26.833ZM159.209,344.881c6.433-.374,12.487-1.652,17.077-4.394l5.573-27.316c-3.451-2.954-6.95-5.342-11.319-6.863-32.425-11.287-65.961-17.324-100.421-17.471-6.91-.029-12.998.706-19.299,2.92l-2.807,25.816c3.383,5.207,9.418,8.309,15.084,10.669,30.354,12.646,62.684,18.581,96.113,16.638Z"
         fill="#e8dbae"
         id="path5"
         style="fill:#cbcbcb" />
      <path
         d="M212.13,484.849c-7.997-1.248-15.154-3.094-22.513-5.534l-15.557-5.158,2.35-37.559,38.931,8.972-3.211,39.278Z"
         fill="#e8dbae"
         id="path6"
         style="fill:#cbcbcb" />
      <polygon
         points="237.509 489.229 220.887 487.04 224.503 447.105 242.694 449.821 237.509 489.229"
         fill="#e8dbae"
         id="polygon6"
         style="fill:#cbcbcb" />
      <path
         d="M343.291,434.036c-8.425-.841-15.073-3.077-22.955-4.477-38.321-6.808-76.295-10.172-115.305-9.709-1.928.023-3.721-.693-4.859-2.353,22.698-1.247,49.75-2.262,72.405.307,15.572,1.766,58.469,7.895,70.714,16.232Z"
         fill="#e8dbae"
         id="path7"
         style="fill:#cbcbcb" />
      <path
         d="M393.816,380.696c-9.673.651-18.212.237-27.881-.46l-8.392-26.53,28.391-1.102,7.882,28.093Z"
         fill="#e8dbae"
         id="path8"
         style="fill:#cbcbcb" />
      <path
         d="M467.833,321.86c-29.377-2.39-67.431,7.889-95.21,16.799-6.206,1.991-10.61,7.908-17.842,6.683,22.998-18.509,69.865-26.148,97.087-27.294,5.801-.244,11.631-.055,15.964,3.812Z"
         fill="#e8dbae"
         id="path9"
         style="fill:#cbcbcb" />
      <polygon
         points="411.489 378.912 399.645 380.449 391.717 351.885 404.799 350.2 411.489 378.912"
         fill="#e8dbae"
         id="polygon9"
         style="fill:#cbcbcb" />
      <path
         d="M83.808,333.393c-9.002-2.491-16.554-5.423-25.638-8.981l3.283-22.56,26.418,8.211-4.063,23.33Z"
         fill="#e8dbae"
         id="path10"
         style="fill:#cbcbcb" />
      <path
         d="M161.846,310.198c-32.238-8.611-63.817-14.113-96.757-15.263-.527-.018-2.77.345-2.71.863l.36,3.122c-.036.069-2.435-.414-3.334-.721-.889-.304-1.32-2.507-1.21-3.44.132-1.12,2.464-2.852,3.897-2.876,33.443-.577,66.228,4.32,97.719,15.243,1.475.512,2.765,1.641,2.035,3.073Z"
         fill="#e8dbae"
         id="path11"
         style="fill:#cbcbcb" />
      <polygon
         points="100.739 337.718 89.285 335.101 93.628 311.514 106.179 314.375 100.739 337.718"
         fill="#e8dbae"
         id="polygon11"
         style="fill:#cbcbcb" />
    </g>
    <path
       d="M29.258,319l-29.258-1.377v3.893l29.258,11.877-11.613,16.807,33.29-7.587,26.71,19.355,58.645-2.71-6.774,10.065,41.806-13.161s-39.677,1.397-84.194-7.43-57.871-29.731-57.871-29.731Z"
       fill="#c2592b"
       id="path12"
       style="fill:#767676" />
    <path
       d="M149.065,286.806l30.581-31.742-26.323,32.774s-1.29-.645-4.258-1.032Z"
       fill="#c2592b"
       id="path13"
       style="fill:#767676" />
    <path
       d="M163.516,290.677l29.806-41.935,4.387.645-20.774,46.581s-4.774-3.097-13.419-5.29Z"
       fill="#c2592b"
       id="path14"
       style="fill:#767676" />
    <path
       d="M63.129,487.581l77.806-9.548,9.935,11.196s37.29,20.61,74.71,22.771h-66.323l-16.516-15.044-79.613-9.375Z"
       fill="#c2592b"
       id="path15"
       style="fill:#767676" />
    <path
       d="M366.419,491.935s-12.097,20.065-49.452,20.065h75.29l-25.839-20.065Z"
       fill="#c2592b"
       id="path16"
       style="fill:#767676" />
    <path
       d="M428.806,413.516l3.742-16.774s67.871-13.548,66.452-42.065l13-21.548v22.452l-7.065,13.419,7.065,5.548v9.375l-9.258.69,2.839,26.194-62.452-10.857-14.323,13.566Z"
       fill="#c2592b"
       id="path17"
       style="fill:#767676" />
    <polygon
       points="229.065 394.935 229.065 329.774 233.581 316.226 237.71 393.516 229.065 394.935"
       fill="#c2592b"
       id="polygon17"
       style="fill:#767676" />
    <polygon
       points="243.129 362.29 238.355 257.258 244.935 258.419 263.645 365.324 243.129 362.29"
       fill="#c2592b"
       id="polygon18"
       style="fill:#767676" />
    <path
       d="M283.258,395.452l-28.129-112.949v-6.793s25.935,71.742,35.355,121.548l-7.226-1.806Z"
       fill="#c2592b"
       id="path18"
       style="fill:#767676" />
    <polygon
       points="292.968 266.161 300.516 274 346.387 303.516 339.129 295.677 294.613 266.161 292.968 266.161"
       fill="#c2592b"
       id="polygon19"
       style="fill:#767676" />
    <polygon
       points="303.903 267.516 377.258 312.419 387.71 312.419 311.742 266.935 303.903 267.516"
       fill="#c2592b"
       id="polygon20"
       style="fill:#767676" />
    <path
       d="M338.645,274.29l60.29,34.355,7.548-.968s-42.387-25.742-67.839-33.387Z"
       fill="#c2592b"
       id="path20"
       style="fill:#767676" />
  </g>
</svg>
