<?xml version="1.0" encoding="UTF-8"?>
<svg xmlns="http://www.w3.org/2000/svg" version="1.1" xmlns:xlink="http://www.w3.org/1999/xlink" viewBox="0 0 512 512">
  <!-- Generator: Adobe Illustrator 30.1.0, SVG Export Plug-In . SVG Version: 2.1.1 Build 136)  -->
  <defs>
    <linearGradient id="Dégradé_sans_nom_5" data-name="Dégradé sans nom 5" x1="256" y1="1.9" x2="256" y2="505.1" gradientUnits="userSpaceOnUse">
      <stop offset="0" stop-color="#4a2a13"/>
      <stop offset="1" stop-color="#230e0b"/>
    </linearGradient>
  </defs>
  <g id="Calque_2">
    <rect width="512" height="512" fill="url(#Dégradé_sans_nom_5)"/>
  </g>
  <g id="Calque_3">
    <g>
      <path d="M496.8,512h-24.8l-66.1-26.5c-4.5-1.8-10.7-.7-15.5.3l-71.6,13.9c-5.6,1.1-18.4,7.7-21.9,12.3h-162.4l5.2-7.8,102.1-62.2c3.1-1.9,5.9-3.2,9.1-4.8l56.3-28.5,72.2-36.5c18.4-9.3,9.8-11.5,26.2-5.6l9.7,20.9c5.9,12.6-7.4,13,1.4,16.1s9.6,7.3,13.8,11.8l9.2,10,8,8.8,8,8.8,8.8,9.6,8,8.8c2.2,2.4,14.6,15.6,15,17l9.5,33.7ZM304.3,478.4l41.4-20.6c15.2-7.6,28.1-17.6,40.6-28.9l8.5-7.6c1.5-1.4,18.7-16,13.1-17.9l-91.3,52.7-78.7,51.3-1,1.9c-.2.3,2,.9,2.4.9l23.9-11.6,41.1-20.1Z" fill="#c2592b"/>
      <g>
        <path d="M372.8,205.6c-.3-7,.5-14-.3-21.4-6.9-63.7-62.5-109.3-126.7-103-55.9,5.4-99.1,50.6-103.4,106h-7.2c-4.1.2-7.9.7-12,1l-13.6.9-12.1.8-13.6.9c-2.9.2-6.6,0-9.4.9l-27.9,8.9c1.8,3.8,3.9,5.8,5.6,9s5.7,3,6.8.2-1.8-3.6-.5-4.5c2.7-1.7,6.1-3,9.4-3.4l38.3-5c-6,11.6-5.6,18.1-5.6,30.4l-51.4-11.5-8.6-13.2c-.8-1.1-2.9-4.6-1.3-5.4l34.8-14.9,47.4-6c2.8-.4,5.6,0,8-2.2-3.6-1.4-7.3-1-11.3-1.4l-9.6-.8c-17.5-1.5-15.5.6-33.2,1.9l4.7-24.8c.5-2.6.9-6.4,2.2-8.8,5.1-8.6,9.1-17.6,15.2-25.6,5.8-7.6,11.4-15.8,18.9-21.9l54.8-44.4c6.7-5.5,15.3-10.4,23.8-11.8l53.6-9c3.4-.6,7.5-.6,11,0l58.1,9c4.1.6,8.3,1.7,12,3.2s18.2,10.2,22.4,14.4l46.1,45.7,15.5,27.6c2.5,4.5,9.6,25.5,10.5,32l4.3,31.4c-14.2-4.2-27.3-2.1-41.7-2.7.4,1.7,1.7,1.5,3.1,1.9l46.1,11,45.9,17.9c4.1,4.3-3.8,15-6.3,20.4-6.5,2.5-13,8.3-20.1,9.2l-61.4.6,4.4-30c1.6-.3,3.2-2.1,4.7-1.8l36.6,6.1,18.8,4.4c12.1,2.8,8.3,7.2,12.1,7.7s7.3-8.8,6.6-11.9l-47.8-9.1-56.9-8.8Z" fill="#c2592b"/>
        <g>
          <g>
            <path d="M372.8,205.6c0,1.7-.6,3.4-.9,5.5l16,3.3c1.2,9.4-1.7,19.6-3.8,29l-19.6-3.7c-.9,2.3-1.6,4.6-3.3,6.9l12,3.4c2,.6,3.5,4,4.4,5.9l-9.1,37.2c-2.9,11.8-3,25.3-.2,37.2l5.9,25.6c-3.7,10.5-7.3,9.7-18.5,15.2l-31.7,15.5c-14.3,7-28.3,13.3-42.1,21.1l-41,23-35,18.7c-1.6.9-5.8-.7-6.7-2.2-2.9-4.8-2.1-13-6.1-16.7s-9.6-10.6-14.8-14.1c-8.4-2.7-17-3.4-25.7-5.1l-59.8-12c-1.8-3.6-4.6-6.5-5.8-10.2-2.4-7.7-3.6-15.5-5.4-23.5s10.6-22.9,11.5-28.8-2.8-15.3,1.3-21.6,8.4-1.2,11.6-.6l38.6,8c.8.2,2.2,0,2.4-.5s.2-1.7-.4-2-1.1,0-1.7-.3l-21.9-8.4c-6.4-2.5-14.2-2.3-16.1-6.1s1.9-8.7,3.7-13.5l-13.7-3.8c-5.5-1.5-8-5.2-9.2-10.3-.7-3.4-.5-4.9,2.2-7.4s6.7-8,10.6-12v-30.9c0-12.3-.4-18.8,5.6-30.4,3.9-.5,8-2.2,12.4-1.3-2,3.5-5.5,4.6-6.6,7.9s-3.1,7.3-3.2,10.9c-.4,12.7-.3,24.9,0,37.4s1.8,5.3,2.6,7.9c1.9,5.7,7.1,11.3,12.9,12.2,4.6.8,8.6,0,11.7-3l19.1-19.1c-10.1-18.9-14.5-42.3-12.9-62.6,4.3-55.4,47.6-100.6,103.4-106,64.2-6.3,119.8,39.4,126.7,103,.8,7.4,0,14.4.3,21.4ZM361.9,195.2c0-57.6-46.7-104.3-104.3-104.3s-104.3,46.7-104.3,104.3,46.7,104.3,104.3,104.3,104.3-46.7,104.3-104.3ZM369.1,356.7c-4.8-9.8-7.2-18.9-8.2-28.9v-25.8c.6-7.3,2-14.1,3.8-21.1.3-1.4-2-1.8-2.8-1.7s-1.4,1.3-1.7,2.7c-10.4,14.2-17.8,29.3-22.5,46.3-4.5,15.5-6.9,30.9-9.2,47.3l40.6-18.7ZM182.5,410c5.2,6.1,11.3,10.3,15.8,16.5,3.2,4.3,3.2,18.3,8.5,16l39.9-98.3c-.9-1.3-2-1.7-3.1-1.7s-2,.6-2.9,1.6l-37.8,44.5c-4.8-.3-8.8,1.5-13.3,1.7s-7.4.4-11.2.8l-42.7,4.7c-4.2.5-8.4.3-12.4,2.9l59.2,11.4Z" fill="#e8dbae"/>
            <path d="M118.7,254.3c-4.1.3-6.2-3.9-6.4-7.5-.5-9.4-.5-18.7,0-28.1s2.4-7.5,6.1-7.5c3.7,0,5.9,3.9,6.1,7.5.5,9.4.5,18.7,0,28.1-.2,3.3-2,7.2-5.8,7.5Z" fill="#e8dbae"/>
          </g>
          <g>
            <path d="M335.9,194.9c0,43.2-35,78.3-78.3,78.3s-78.3-35-78.3-78.3,35-78.3,78.3-78.3,78.3,35,78.3,78.3ZM323.8,195.3c0-36.6-29.7-66.2-66.2-66.2s-66.2,29.7-66.2,66.2,29.7,66.2,66.2,66.2,66.2-29.7,66.2-66.2Z" fill="#e8dbae"/>
            <path d="M299,195.6c0,22.9-18.5,41.4-41.4,41.4s-41.4-18.5-41.4-41.4,18.5-41.4,41.4-41.4,41.4,18.5,41.4,41.4ZM287.7,195.2c0-16.6-13.5-30.1-30.1-30.1s-30.1,13.5-30.1,30.1,13.5,30.1,30.1,30.1,30.1-13.5,30.1-30.1Z" fill="#e8dbae"/>
            <circle cx="257.6" cy="195.2" r="30.1" fill="#c2592b"/>
          </g>
        </g>
      </g>
    </g>
  </g>
</svg>