<?xml version="1.0" encoding="UTF-8"?>
<svg xmlns="http://www.w3.org/2000/svg" width="512" height="512" xmlns:xlink="http://www.w3.org/1999/xlink" viewBox="0 0 512 512">
  <defs>
    <linearGradient id="c" data-name="Dégradé sans nom 5" x1="256" y1="1.903" x2="256" y2="505.139" gradientUnits="userSpaceOnUse">
      <stop offset="0" stop-color="#4a2a13"/>
      <stop offset="1" stop-color="#230e0b"/>
    </linearGradient>
  </defs>
  <g id="a" data-name="Calque 1">
    <image width="512" height="512" xlink:href="14.png"/>
  </g>
  <g id="b" data-name="Calque 2">
    <rect width="512" height="512" fill="url(#c)"/>
  </g>
  <g id="d" data-name="Calque 3">
    <path d="M292.29,392.226s65.032-20.387,110.968-44.645l18,13.871-12-15.29,45.097-19.548v17.419l-7.355,29.419-24.194,17.226-40.258,17.419-88.258,10.839-2-26.71Z" fill="#c2592b"/>
    <path d="M357.581,283.452s-.581-18.387-19.742-35.032l9.871-20.839s28.71.516,28.065-21.161-23.871-20.387-23.871-20.387c0,0,2.065-30.968-21.419-59.097l11.355-7.484h-17.548l-9.548-9.548-2.839-9.548h-3.355s-4.645-26.581-35.355-26.581c-19.87,0-30.968,11.613-30.968,11.613l-10.839-.258,10.065-9.548,17.29-7.226h27.871s14.968,0,26.839,22.71l4.774,3.484,3.613,13.935,2.581,2.839,23.484-1.677,15.226,24.258,27.226-11.226,10.323-.129,20.387,8.129,28.903,5.548,22.839,49.806,2.065,27.935-.968,61.161h-7.161s3.677-41.419.774-49.742c-2.903-8.323-7.548-28.452-7.548-28.452l-14.516-37.935-25.161-12-23.419,14.323-12.581,16.839-.581,30.194-20.71,75.097h-5.419Z" fill="#c2592b"/>
    <path d="M131.903,430.935s-8.258,11.871-18.71,10.839l-9.29,3.484s4.774,6.581,14,5.677,19.161-13.806,19.161-13.806l-5.161-6.194Z" fill="#c2592b"/>
    <path d="M74.097,418.935s4.258,21.032,24.258,21.032,18.452-18.839,18.452-18.839c0,0-1.677-8.516-7.613-8.516s-10.839,11.161-10.839,14.323h3.935s.323-8.774,6.452-8.774c3.871,0,3.032,5.613,3.032,5.613,0,0-1.097,9.161-12.452,9.161s-16.839-9.742-16.839-9.742l-8.387-4.258Z" fill="#c2592b"/>
    <path d="M81.677,383.903s-4.548,6.484-4.548,15.677,11.903,10.742,11.903,10.742c0,0,3.968-.581,3.968-3.968s-1.935-3.774-4.548-3.774-3.387,1.452-3.387,1.452l-4.161-3.387s2.032-4.742,7.839-4.742,10.161,6.097,10.161,12.484-5.952,10.137-10.137,10.137-18.992-7.137-18.992-19.234,6.484-18.968,6.484-18.968c0,0,1.548,2.903,5.419,3.581Z" fill="#c2592b"/>
    <path d="M92.806,378.097l-25.161-33.677s-1.161-6-1.161-13.548l-16.645-16.452-1.935.968s-.968,23.613,5.806,31.935,28.258,30.774,28.258,30.774h10.839Z" fill="#c2592b"/>
    <path d="M283.065,393.581c-50.323,6-78.774-31.355-78.774-31.355h-9.097c-20.903,13.548-46.258,14.903-46.258,14.903,1.935,14.129-8.71,14.903-8.71,14.903v24c17.226.774,13.935,7.935,13.935,7.935,23.226,9.29,83.613,21.871,83.613,21.871l41.806-18.194,6.581-12.581-3.097-21.484ZM184.355,397.258l-29.613-1.742v-3.871l28.065,1.645,37.742-3.968-36.194,7.935Z" fill="#c2592b"/>
    <path d="M191.323,452.032l48.774,9.097,46.839-25.548,16.839-2.323-7.742,63.29-96.581-3.484,108.968,18.935h-100.839s1.548-8.29,2.129-10.032l-17.032-1.935-1.355-48Z" fill="#c2592b"/>
    <path d="M311.645,512l14.452-81.065,58.581-7.161,57.677-28.645,21.677-23.613v-49.548l6-2.516v46.258s6.387,0,6,5.419-5.806,51.29-5.806,51.29l-20.71,13.548,18.774,2.903,6.968,26.903-4.645,6.855,3.097,39.371h-7.161l-2.903-42.548,4.452-6.387-71.806-3.29-7.548,8.129,62.129,44.097h-66l-3.29-61.71,2.903-7.742,78.581,4.452-.774-2.903-80.323-6.194-5.613,11.419v62.677h-45.29l10.645-20.677-11.806-35.419.194,33.871-12.194,22.226h-6.258Z" fill="#c2592b"/>
    <path d="M205.839,333.387s34.839,55.935,75.097,46.935c53.979-12.068,227.226-92.613,227.226-92.613l-162.581,10.065s2.968-26.323-27.226-47.742c0,0,19.097-22.194,19.097-60.387s-30.968-91.355-101.161-91.355-87.484,72.258-87.484,93.419c0,0-14.452-6.71-35.871-2.839l-48.516-98.581s-29.419,196.129-6.452,205.935c0,0,7.226-22.71,39.226-21.419l-5.419-52.903,29.161,43.613s13.677-2.065,23.226,4.387l10.581-4.387,71.226-97.806-10.581,102.968,91.355,7.742-71.742,31.742,113.032,14.194-142.194,9.032Z" fill="#e8dbae"/>
    <path d="M134.355,136.484L97.194,12.355l58.581,77.935L161.194,0h39.226l24.516,77.387s-65.29,5.935-90.581,59.097Z" fill="#e8dbae"/>
    <path d="M236.806,66.871l-10.065-30.968,3.677-35.903h39.484l12.581,44.613L310.742,0h62.903l-8.129,40.935L424.355,0h32.903l-93.871,99.774,5.613-34.839-37.161,13.742-2.129-55.161-44.516,33.677-23.419-2.323s-18.581,4.065-24.968,12Z" fill="#e8dbae" opacity=".5"/>
    <polygon points="388.806 93.129 493.065 0 512 0 512 42.548 465.71 107.065 388.806 93.129" fill="#e8dbae"/>
    <polygon points="512 90.29 474.871 135 485.903 186.484 483.968 259.645 512 242.806 512 196.548 497.516 190.742 512 150.871 512 90.29" fill="#e8dbae" opacity=".5"/>
    <polygon points="512 303.452 495.903 309.129 483.774 319.452 493.435 350.677 480.161 422.161 491.516 460.355 480.161 476.613 484.29 512 512 512 512 303.452" fill="#e8dbae" opacity=".5"/>
    <path d="M174.226,297.774l16.387,32.258,3.871-5.806-18.194-40.774s-4.645-8.903-17.419-8.903-21.935,9.548-21.935,9.548c0,0,.645-5.032-14.581-5.032s-20,7.355-20,7.355c0,0-3.452-3.871-13.935-3.871-16.774,0-25.548,16.903-25.548,25.419s10.323,17.29,10.323,17.29c-5.032,13.032,3.742,20.387,3.742,20.387l70.452,96.032c9.097,3.097,18.774-3.774,18.774-3.774l-17.484-6.323-.258-8.516-13.677-2.839v-15.484l-29.677-48.387c8.903.129,13.419-10.097,13.419-10.097l24.645,39,.774-12.903,11.871-3.097-12-26.968c13.419-1.161,13.032-13.935,13.032-13.935l17.806,37.032,19.871-10.968-25.419-50.065,5.161-6.581ZM65.188,309.983c-2.332-6.233,3.206-14.065,12.369-17.493,9.163-3.428,18.482-1.155,20.814,5.078,2.332,6.233-3.206,14.065-12.369,17.493-9.163,3.428-18.482,1.155-20.814-5.078ZM97.185,341.733c-9.163,3.428-18.482,1.155-20.814-5.078s3.206-14.065,12.369-17.493c9.163-3.428,18.482-1.155,20.814,5.078s-3.206,14.065-12.369,17.493ZM101.248,304.59c-2.332-6.233,3.206-14.065,12.369-17.493,9.163-3.428,18.482-1.155,20.814,5.078s-3.206,14.065-12.369,17.493c-9.163,3.428-18.482,1.155-20.814-5.078ZM135.707,337.538c-9.163,3.428-18.482,1.155-20.814-5.078-2.332-6.233,3.206-14.065,12.369-17.493,9.163-3.428,18.482-1.155,20.814,5.078s-3.206,14.065-12.369,17.493ZM159.32,304.151c-9.163,3.428-18.482,1.155-20.814-5.078s3.206-14.065,12.369-17.493c9.163-3.428,18.482-1.155,20.814,5.078s-3.206,14.065-12.369,17.493Z" fill="#e8dbae"/>
    <ellipse cx="425.72" cy="254.577" rx="15.568" ry="22.186" transform="translate(-59.128 149.844) rotate(-18.69)" fill="none" stroke="#c2592b" stroke-miterlimit="10" stroke-width="5"/>
    <path d="M455.129,258.484l-6.581-64.452-11.806-14.516-15.097-2.516-14.903,7.161-13.935,28.065-17.032,70.065,35.399-2.18c-4.499-4.261-8.249-10.027-10.554-16.842-5.977-17.669-.002-35.653,13.346-40.169,13.348-4.515,29.014,6.148,34.991,23.817,3.875,11.456,2.721,23.039-2.204,31.003l7.601-.468.774-18.968Z" fill="#c2592b"/>
  </g>
</svg>