<?xml version="1.0" encoding="UTF-8" standalone="no"?>
<svg
   width="512"
   height="512"
   viewBox="0 0 512 512"
   version="1.1"
   id="svg38"
   sodipodi:docname="tf2c_achievement_extinguish_bomblets.svg"
   inkscape:version="1.4.3 (0d15f75, 2025-12-25)"
   xmlns:inkscape="http://www.inkscape.org/namespaces/inkscape"
   xmlns:sodipodi="http://sodipodi.sourceforge.net/DTD/sodipodi-0.dtd"
   xmlns:xlink="http://www.w3.org/1999/xlink"
   xmlns="http://www.w3.org/2000/svg"
   xmlns:svg="http://www.w3.org/2000/svg">
  <sodipodi:namedview
     id="namedview38"
     pagecolor="#ffffff"
     bordercolor="#000000"
     borderopacity="0.25"
     inkscape:showpageshadow="2"
     inkscape:pageopacity="0.0"
     inkscape:pagecheckerboard="0"
     inkscape:deskcolor="#d1d1d1"
     inkscape:zoom="2.2949219"
     inkscape:cx="256"
     inkscape:cy="256"
     inkscape:window-width="2560"
     inkscape:window-height="1377"
     inkscape:window-x="-8"
     inkscape:window-y="534"
     inkscape:window-maximized="1"
     inkscape:current-layer="svg38" />
  <defs
     id="defs15">
    <linearGradient
       id="c"
       data-name="Dégradé sans nom 5"
       x1="256"
       y1="1.903"
       x2="256"
       y2="505.139"
       gradientUnits="userSpaceOnUse">
      <stop
         offset="0"
         stop-color="#4a2a13"
         id="stop1" />
      <stop
         offset="1"
         stop-color="#230e0b"
         id="stop2" />
    </linearGradient>
    <mask
       id="e"
       data-name="mask"
       x="-108.433"
       y="-99.516"
       width="756.049"
       height="725.1"
       maskUnits="userSpaceOnUse">
      <g
         id="g11">
        <rect
           x="-23.839"
           y="-15.903"
           width="553.548"
           height="546.581"
           fill="#fff"
           id="rect2"
           style="fill:#ffffff" />
        <g
           id="g2">
          <polygon
             points="91.377 183.43 100.865 173.819 189.384 163.803 198.031 242.547 101.84 253.433 91.377 183.43"
             id="polygon2" />
          <path
             d="M183.192,171.548l7.12,64.828-82.547,9.341-8.947-59.861,5.292-5.36,79.083-8.949M195.575,156.057l-13.957,1.579-79.083,8.949-4.914.556-3.474,3.519-5.292,5.36-4.919,4.982,1.035,6.924,8.947,59.861,1.997,13.361,13.423-1.519,82.547-9.341,13.865-1.569-1.523-13.87-7.12-64.828-1.533-13.962h0Z"
             id="path2" />
        </g>
        <path
           d="M387.354,148.444l6.272,4.051,4.687,60.343-81.362,9.207-7.544-64.78,77.947-8.821M390.749,133.97l-4.969.562-77.947,8.821-13.957,1.579,1.625,13.951,7.544,64.78,1.614,13.861,13.866-1.569,81.362-9.207,13.43-1.52-1.047-13.475-4.687-60.343-.537-6.914-5.825-3.762-6.272-4.051-4.201-2.713h0Z"
           id="path3" />
        <g
           id="g4">
          <polygon
             points="132.738 419.823 109.715 253.475 399.49 220.682 414.222 387.969 406.951 402.63 143.103 432.488 132.738 419.823"
             id="polygon3" />
          <path
             d="M393.146,228.445l13.93,158.177-4.702,9.481-128.134,14.5-128.134,14.5-6.702-8.19-21.77-157.29,137.757-15.589,137.757-15.589M405.833,212.92l-14.261,1.614-137.757,15.589-137.757,15.589-14.261,1.614,1.968,14.217,21.77,157.29.54,3.9,2.493,3.047,6.702,8.19,4.83,5.903,7.579-.858,128.134-14.5,128.134-14.5,7.579-.858,3.389-6.833,4.702-9.481,1.749-3.527-.345-3.922-13.93-158.177-1.259-14.297h0Z"
             id="path4" />
        </g>
        <path
           d="M410.077,298.838l2.064,39.838-291.358,32.972-6.891-39.292,296.184-33.518M422.345,284.367l-13.729,1.554-296.184,33.518-13.729,1.554,2.387,13.609,6.891,39.291,2.113,12.047,12.154-1.375,291.358-32.972,12.154-1.375-.633-12.215-2.064-39.838-.715-13.799h0Z"
           id="path5" />
        <path
           d="M267.47,114.882l3.346,29.568-54.251,6.139-3.346-29.568,54.251-6.139M280.179,98.929l-14.331,1.622-54.251,6.139-14.331,1.622,1.622,14.331,3.346,29.568,1.622,14.331,14.331-1.622,54.251-6.139,14.331-1.622-1.622-14.331-3.346-29.568-1.622-14.331h0Z"
           id="path6" />
        <g
           id="g8">
          <path
             d="M203.254,126.354s-14.719,1.038-47.475-22.466c-14.633-10.5-33.703-15.5-53.037-13.657-.85.081-1.321.137-1.321.137,0,0-38.729.232-34.595,36.762,4.134,36.53,52.476,33.766,65.369,32.307,12.894-1.459,45.124-11.243,73.19-14.238l-2.132-18.844Z"
             fill="none"
             stroke="#000"
             stroke-miterlimit="10"
             stroke-width="22"
             id="path7"
             style="stroke:#000000" />
          <path
             d="M110.632,114.854h0c11.316,0,22.175,3.319,30.572,9.345,3.045,2.185,5.982,4.2,8.806,6.055-.127.029-.255.059-.381.088-8.135,1.885-16.547,3.834-20.244,4.252-1.854.21-5.662.562-10.324.562-8.928,0-16.628-1.28-21.68-3.603-4.803-2.208-5.38-4.299-5.712-7.236-.385-3.403.056-5.313.446-5.767,1.356-1.577,6.258-2.996,9.568-3.179l.872.044,1.804-.223c.113-.013.373-.04.757-.077,1.83-.174,3.687-.263,5.518-.263M110.633,89.854c-2.619,0-5.251.124-7.891.376-.85.081-1.321.137-1.321.137,0,0-38.729.232-34.595,36.762,3.206,28.332,33.005,33.028,52.234,33.028,5.564,0,10.242-.393,13.136-.721,12.894-1.459,45.124-11.243,73.19-14.238l-2.133-18.844s-.097.007-.293.007c-2.216,0-17.085-.876-47.182-22.473-12.635-9.067-28.582-14.032-45.146-14.033h0Z"
             id="path8" />
        </g>
        <g
           id="g10">
          <path
             d="M278.649,115.48s14.488-2.799,40.061-33.967c11.424-13.924,28.556-23.68,47.709-26.893.842-.141,1.311-.209,1.311-.209,0,0,37.475-9.78,42.917,26.578,5.442,36.358-41.973,46.175-54.806,48.096-12.833,1.921-46.497.795-74.384,5.15l-2.807-18.755Z"
             fill="none"
             stroke="#000"
             stroke-miterlimit="10"
             stroke-width="22"
             id="path9"
             style="stroke:#000000" />
          <path
             d="M378.511,78.215c2.892,0,4.748.538,5.459.999.604.392,1.472,2.272,1.952,5.476.401,2.682.951,6.354-8.149,11.509-9.625,5.453-22.054,7.625-25.634,8.161-3.68.551-12.31.841-20.655,1.121-.131.004-.261.009-.393.013,2.251-2.522,4.566-5.224,6.945-8.124,7.643-9.315,19.496-15.911,32.518-18.096.362-.061.613-.1.734-.119l.99-.038,1.594-.468c.556-.111,2.381-.436,4.638-.436M378.511,53.215c-6.196,0-10.781,1.197-10.781,1.197,0,0-.469.067-1.311.209-19.153,3.213-36.285,12.97-47.709,26.893-25.573,31.168-40.061,33.967-40.061,33.967l2.807,18.755c27.887-4.356,61.551-3.229,74.384-5.15,12.833-1.921,60.248-11.738,54.806-48.096-3.539-23.64-20.619-27.775-32.136-27.775h0Z"
             id="path10" />
        </g>
      </g>
    </mask>
    <clipPath
       id="f">
      <rect
         width="512"
         height="512"
         fill="none"
         id="rect11" />
    </clipPath>
    <mask
       id="g"
       data-name="mask-1"
       x="36.161"
       y="84.355"
       width="427.742"
       height="371.226"
       maskUnits="userSpaceOnUse">
      <g
         id="g14">
        <rect
           x="36.161"
           y="84.355"
           width="427.742"
           height="371.226"
           fill="#fff"
           id="rect12"
           style="fill:#ffffff" />
        <path
           d="M295.637,155.587l28.224,249.401-99.242,11.231-28.224-249.402,99.242-11.231M306.211,142.314l-11.924,1.349-99.242,11.231-11.924,1.349,1.349,11.924,28.224,249.401,1.349,11.924,11.924-1.349,99.242-11.231,11.924-1.349-1.349-11.924-28.224-249.401-1.349-11.924h0Z"
           id="path12" />
        <g
           id="g13">
          <polygon
             points="106.881 327.112 415.739 292.159 418.425 344.003 115.849 378.244 106.881 327.112"
             id="polygon12" />
          <path
             d="M410.077,298.838l2.064,39.838-291.358,32.972-6.891-39.291,296.184-33.518M421.401,285.48l-12.673,1.434-296.184,33.518-12.673,1.434,2.203,12.563,6.891,39.291,1.95,11.121,11.219-1.27,291.358-32.972,11.219-1.27-.584-11.275-2.064-39.838-.66-12.737h0Z"
             id="path13" />
        </g>
      </g>
    </mask>
    <mask
       id="h"
       data-name="mask-2"
       x="51.516"
       y="222.045"
       width="421.161"
       height="215.471"
       maskUnits="userSpaceOnUse">
      <g
         id="g15">
        <rect
           x="51.516"
           y="222.045"
           width="421.161"
           height="215.471"
           fill="#fff"
           id="rect14"
           style="fill:#ffffff" />
        <path
           d="M184.518,317.053s.893,34.463,25.836,50.915"
           fill="none"
           stroke="#000"
           stroke-miterlimit="10"
           stroke-width="9"
           id="path14"
           style="stroke:#000000" />
        <path
           d="M339.736,298.838s7.002,34.33-14.107,55.477"
           fill="none"
           stroke="#000"
           stroke-miterlimit="10"
           stroke-width="9"
           id="path15"
           style="stroke:#000000" />
      </g>
    </mask>
    <linearGradient
       data-name="Dégradé sans nom 5"
       x1="256"
       y1="1.903"
       x2="256"
       y2="505.139"
       gradientUnits="userSpaceOnUse"
       id="linearGradient7633">
      <stop
         offset="0"
         stop-color="#4a2a13"
         id="stop1-1"
         style="stop-color:#2e2e2e" />
      <stop
         offset="1"
         stop-color="#230e0b"
         id="stop2-1"
         style="stop-color:#171717" />
    </linearGradient>
  </defs>
  <g
     id="a"
     data-name="Calque 1">
    <image
       width="512"
       height="512"
       xlink:href="../../../../Alexander/Documents/GitHub/tf2classified-steam/depots/tf2classic_shared/tf2classic/resource/svgs/achievements/BW/6.png"
       id="image15" />
  </g>
  <g
     id="b"
     data-name="Calque 2">
    <rect
       width="512"
       height="512"
       fill="url(#c)"
       id="rect15"
       style="fill:url(#linearGradient7633)" />
  </g>
  <g
     id="d"
     data-name="Calque 3">
    <g
       mask="url(#e)"
       id="g26">
      <g
         opacity=".5"
         id="g25">
        <g
           clip-path="url(#f)"
           id="g24">
          <polygon
             points="256 256 -54.806 449.645 66.517 583.71 256 256"
             fill="#c2592b"
             id="polygon15"
             style="fill:#767676" />
          <polygon
             points="256 256 -53.645 42.161 -108.433 109.082 256 256"
             fill="#c2592b"
             id="polygon16"
             style="fill:#767676" />
          <polygon
             points="256 256 163.194 -99.516 102.19 -94.596 256 256"
             fill="#c2592b"
             id="polygon17"
             style="fill:#767676" />
          <polygon
             points="256 256 611 182.797 545.733 -9.427 256 256"
             fill="#c2592b"
             id="polygon18"
             style="fill:#767676" />
          <polygon
             points="256 256 505.79 -11.776 429.522 -96.543 256 256"
             fill="#c2592b"
             id="polygon19"
             style="fill:#767676" />
          <polygon
             points="256 256 596.721 390.194 647.616 288.155 256 256"
             fill="#c2592b"
             id="polygon20"
             style="fill:#767676" />
          <polygon
             points="256 256 490.202 537.511 578.484 501.79 256 256"
             fill="#c2592b"
             id="polygon21"
             style="fill:#767676" />
          <polygon
             points="256 256 110.811 605.247 234.46 625.584 256 256"
             fill="#c2592b"
             id="polygon22"
             style="fill:#767676" />
          <polygon
             points="256 256 442.166 587.768 472.866 578.631 256 256"
             fill="#c2592b"
             id="polygon23"
             style="fill:#767676" />
          <polygon
             points="256 256 -79.581 198.625 -65.129 223.611 256 256"
             fill="#c2592b"
             id="polygon24"
             style="fill:#767676" />
        </g>
      </g>
    </g>
    <g
       mask="url(#g)"
       id="g29">
      <g
         id="g28">
        <polygon
           points="107.764 245.718 98.817 185.857 104.109 180.497 183.192 171.548 183.192 171.548 190.312 236.376 107.764 245.718"
           fill="#e8dbae"
           id="polygon26"
           style="fill:#cbcbcb" />
        <polygon
           points="398.313 212.838 393.626 152.495 387.354 148.444 309.407 157.265 309.407 157.265 316.951 222.045 398.313 212.838"
           fill="#e8dbae"
           id="polygon27"
           style="fill:#cbcbcb" />
        <polygon
           points="393.146 228.445 255.389 244.034 117.633 259.624 139.403 416.914 146.105 425.104 274.239 410.604 402.374 396.103 407.076 386.622 393.146 228.445"
           fill="#e8dbae"
           id="polygon28"
           style="fill:#cbcbcb" />
        <rect
           x="210.19"
           y="160.406"
           width="99.876"
           height="250.993"
           transform="translate(-30.499 31.064) rotate(-6.456)"
           fill="#c2592b"
           id="rect28"
           style="fill:#767676" />
      </g>
    </g>
    <rect
       x="214.719"
       y="117.857"
       width="54.597"
       height="29.757"
       transform="translate(-13.391 28.056) rotate(-6.456)"
       fill="#c2592b"
       id="rect29"
       style="fill:#767676" />
    <path
       d="M110.632,103.367c13.699,0,26.935,4.084,37.268,11.499,14.472,10.384,25.997,16.507,34.814,20.091-10.806,2.014-21.328,4.452-30.493,6.575-8.841,2.048-17.191,3.983-21.545,4.476-2.095.237-6.391.635-11.617.635-10.703,0-19.859-1.609-26.479-4.654-7.641-3.514-11.443-8.566-12.327-16.381-.738-6.522.316-11.308,3.223-14.631,4.886-5.586,14.635-7.013,18.063-7.098l.628.005.839-.098c.068-.008.425-.048,1.019-.105,2.191-.209,4.414-.315,6.608-.315h0M110.633,89.854c-2.619,0-5.251.124-7.891.376-.85.081-1.321.137-1.321.137,0,0-38.729.232-34.595,36.762,3.206,28.332,33.005,33.028,52.234,33.028,5.564,0,10.242-.393,13.136-.721,12.894-1.459,45.124-11.243,73.19-14.238l-2.133-18.844s-.097.007-.293.007c-2.216,0-17.085-.876-47.182-22.473-12.635-9.067-28.581-14.033-45.146-14.033h0Z"
       fill="#c2592b"
       id="path29"
       style="fill:#767676" />
    <path
       d="M378.511,66.728c14.397,0,17.568,8.221,18.772,16.262.987,6.592.305,15.187-13.847,23.204-11.346,6.428-25.521,8.917-29.596,9.527-4.333.649-12.9.936-21.97,1.241-9.395.315-20.176.678-31.125,1.522,7.577-5.738,17.111-14.628,28.411-28.4,9.379-11.431,23.776-19.5,39.498-22.138.589-.099.945-.152.997-.16l.662-.072.782-.216c.409-.095,3.468-.771,7.414-.771M378.511,53.215c-6.196,0-10.781,1.197-10.781,1.197,0,0-.469.067-1.311.209-19.153,3.213-36.285,12.97-47.709,26.893-25.573,31.168-40.061,33.967-40.061,33.967l2.807,18.755c27.887-4.356,61.551-3.229,74.384-5.15,12.833-1.921,60.248-11.738,54.806-48.096-3.539-23.64-20.619-27.775-32.136-27.775h0Z"
       fill="#c2592b"
       id="path30"
       style="fill:#767676" />
    <g
       id="g31">
      <polygon
         points="218.358 342.424 244.285 364.388 213.017 398.805 191.489 401.242 218.358 342.424"
         fill="#e8dbae"
         id="polygon30"
         style="fill:#cbcbcb" />
      <path
         d="M220.343,351.314l16.043,13.59-26.047,28.67-9.806,1.11,19.811-43.369M216.372,333.534l-6.034,13.21-19.811,43.369-8.08,17.687,19.322-2.187,9.806-1.11,4.118-.466,2.787-3.067,26.047-28.67,7.658-8.429-8.69-7.361-16.042-13.59-11.081-9.387h0Z"
         fill="#2a130d"
         id="path31"
         style="fill:#1b1b1b" />
    </g>
    <g
       id="g32">
      <polygon
         points="293.107 358.863 313.471 331.661 352.805 382.987 331.277 385.422 293.107 358.863"
         fill="#e8dbae"
         id="polygon31"
         style="fill:#cbcbcb" />
      <path
         d="M313.523,340.769l29.002,37.845-9.806,1.11-31.795-22.124,12.6-16.831M313.42,322.551l-8.703,11.626-12.6,16.831-6.825,9.117,9.348,6.505,31.795,22.124,3.402,2.367,4.118-.466,9.806-1.11,19.322-2.187-11.828-15.435-29.002-37.845-8.834-11.527h0Z"
         fill="#2a130d"
         id="path32"
         style="fill:#1b1b1b" />
    </g>
    <g
       id="g34">
      <path
         d="M307.058,265.712l15.214-41.972c1.717-4.736-.375-10.235-4.685-12.229-11.227-5.193-34.448-13.04-67.027-9.353l1.472-.167c-32.579,3.687-53.459,16.525-63.242,24.095-3.756,2.907-4.566,8.734-1.834,12.967l24.209,37.511"
         fill="none"
         stroke="#381d0f"
         stroke-miterlimit="10"
         stroke-width="26.819"
         id="path33"
         style="stroke:#232323" />
      <path
         d="M307.058,265.712l15.214-41.972c1.717-4.736-.375-10.235-4.685-12.229-11.227-5.193-34.448-13.04-67.027-9.353l1.472-.167c-32.579,3.687-53.459,16.525-63.242,24.095-3.756,2.907-4.566,8.734-1.834,12.967l24.209,37.511"
         fill="none"
         stroke="#e8dbae"
         stroke-miterlimit="10"
         stroke-width="6.705"
         id="path34"
         style="stroke:#cbcbcb" />
    </g>
    <circle
       cx="262.763"
       cy="309.192"
       r="75.131"
       fill="#341a0e"
       id="circle34"
       style="fill:#212121" />
    <circle
       cx="262.763"
       cy="309.192"
       r="63.634"
       fill="none"
       stroke="#e8dbae"
       stroke-miterlimit="10"
       stroke-width="7"
       id="circle35"
       style="stroke:#cbcbcb" />
    <polygon
       points="282.9 281.95 278.926 279.42 257.256 305.685 268.27 312.698 282.9 281.95"
       fill="#e8dbae"
       id="polygon35"
       style="fill:#cbcbcb" />
    <polygon
       points="228.335 278.999 225.813 282.195 259.383 313.271 266.371 304.413 228.335 278.999"
       fill="#e8dbae"
       id="polygon36"
       style="fill:#cbcbcb" />
    <g
       id="g37">
      <path
         d="M262.754,319.077c-5.028,0-9.247-3.771-9.812-8.773-.613-5.416,3.294-10.32,8.71-10.934.376-.042.751-.063,1.12-.063,5.028,0,9.247,3.771,9.812,8.773.297,2.624-.445,5.206-2.09,7.271-1.646,2.065-3.996,3.366-6.62,3.663-.376.042-.751.063-1.12.063Z"
         fill="#e8dbae"
         id="path36"
         style="fill:#cbcbcb" />
      <path
         d="M262.773,301.331c3.946,0,7.347,2.964,7.801,6.977.488,4.314-2.613,8.206-6.927,8.694-.3.034-.599.051-.894.051-3.946,0-7.347-2.964-7.801-6.977-.488-4.314,2.613-8.206,6.927-8.694.3-.034.599-.051.894-.051M262.773,297.283h0c-.448,0-.902.026-1.349.076-3.161.358-5.993,1.925-7.975,4.413-1.982,2.488-2.877,5.599-2.519,8.759.682,6.026,5.765,10.57,11.823,10.57.448,0,.902-.026,1.349-.076,3.161-.358,5.993-1.925,7.975-4.413,1.982-2.488,2.877-5.599,2.519-8.759-.682-6.026-5.765-10.57-11.823-10.57h0Z"
         fill="#341a0e"
         id="path37"
         style="fill:#212121" />
    </g>
    <g
       mask="url(#h)"
       id="g38">
      <polygon
         points="120.783 371.648 113.893 332.356 410.077 298.838 412.141 338.676 120.783 371.648"
         fill="#c2592b"
         id="polygon37"
         style="fill:#767676" />
    </g>
  </g>
</svg>
