<?xml version="1.0" encoding="UTF-8"?>
<svg xmlns="http://www.w3.org/2000/svg" width="512" height="512" xmlns:xlink="http://www.w3.org/1999/xlink" viewBox="0 0 512 512">
  <defs>
    <linearGradient id="c" data-name="Dégradé sans nom 5" x1="256" y1="1.903" x2="256" y2="505.139" gradientUnits="userSpaceOnUse">
      <stop offset="0" stop-color="#4a2a13"/>
      <stop offset="1" stop-color="#230e0b"/>
    </linearGradient>
    <mask id="e" data-name="mask" x="15.516" y="46.032" width="491.613" height="413.419" maskUnits="userSpaceOnUse">
      <g>
        <polygon points="222.871 216.355 174.613 239.323 164.806 310.548 181.323 318.032 187.516 250.945 222.871 234.935 222.871 216.355" fill="none"/>
        <rect x="15.516" y="46.032" width="491.613" height="413.419" fill="#fff"/>
        <path d="M256,115.097c43.289,0,83.987,16.858,114.597,47.468,30.61,30.61,47.467,71.308,47.467,114.597,0,26.275-6.077,51.319-18.063,74.436-6.602,12.733-14.945,24.599-24.684,35.196l-94.164-53.385-25.153-14.26-25.153,14.26-94.164,53.385c-9.739-10.596-18.083-22.463-24.684-35.196-11.986-23.117-18.063-48.161-18.063-74.436,0-43.289,16.858-83.987,47.468-114.597,30.61-30.61,71.308-47.468,114.597-47.468M256,64.097c-117.672,0-213.064,95.392-213.064,213.065,0,70.604,34.351,133.176,87.242,171.945l125.822-71.332,125.822,71.332c52.891-38.769,87.242-101.341,87.242-171.945,0-117.672-95.392-213.065-213.064-213.065h0Z"/>
        <polygon points="145.194 237.258 145.194 234.161 154.403 172.032 192.419 146.097 228.226 167.194 238.677 122.097 265.581 125.387 278.935 130.806 282.032 167.774 312.226 145.903 351.903 172.226 363.903 252.742 145.194 237.258"/>
        <path d="M256,252.742v66.406l-119.317,67.644,17.72-118.309,101.597-15.742M270,236.406l-16.144,2.501-101.597,15.742-10.177,1.577-1.525,10.184-17.72,118.309,20.75,14.253,119.317-67.644,7.095-4.023v-90.899h0Z"/>
        <path d="M256,252.742l101.597,15.742,17.72,118.309-119.317-67.644v-66.406M242,236.406v90.899l7.095,4.023,119.317,67.644,20.75-14.253-17.72-118.309-1.525-10.184-10.177-1.577-101.597-15.742-16.144-2.501h0Z"/>
      </g>
    </mask>
  </defs>
  <g id="a" data-name="Calque 1">
    <image width="512" height="512" xlink:href="2.png"/>
  </g>
  <g id="b" data-name="Calque 2">
    <rect width="512" height="512" fill="url(#c)"/>
  </g>
  <g id="d" data-name="Calque 3">
    <g mask="url(#e)">
      <g>
        <g>
          <path d="M425.71,234.161l-21.161-43.613-20.903-27.871-21.419-20.903s-60.645-32.516-62.194-33.032c-.85-.283-7.771-1.656-13.839-2.837l10,128.256h129.516Z" fill="#e8dbae"/>
          <polygon points="224.161 105.387 180.806 120.355 158.097 138.677 123.516 162.935 83 234.161 215.806 234.161 225.806 105.347 224.161 105.387" fill="#e8dbae"/>
        </g>
        <polygon points="419.947 297.645 367.194 297.645 379.774 393.258 407.645 368.355 419.947 297.645" fill="#e8dbae"/>
        <polygon points="89.452 297.645 144.161 297.645 124.806 391.065 86.355 309.516 89.452 297.645" fill="#e8dbae"/>
      </g>
    </g>
    <path d="M256,95.097c48.631,0,94.352,18.938,128.739,53.325,34.387,34.387,53.325,80.108,53.325,128.739,0,29.511-6.833,57.652-20.308,83.641-9.873,19.042-23.212,36.356-39.1,50.874l-107.368-60.87-15.289-8.668-15.289,8.668-107.368,60.87c-15.888-14.517-29.227-31.832-39.1-50.874-13.475-25.99-20.308-54.131-20.308-83.641,0-48.631,18.938-94.352,53.326-128.739,34.387-34.387,80.108-53.325,128.739-53.325M256,64.097c-117.672,0-213.064,95.392-213.064,213.065,0,70.604,34.351,133.176,87.242,171.945l125.822-71.332,125.822,71.332c52.891-38.769,87.242-101.341,87.242-171.945,0-117.672-95.392-213.065-213.064-213.065h0Z" fill="#c2592b"/>
    <path d="M233.968,145.645l-1.548,26.323-49.032,23.484,2.323-25.548-18.064,8-30.962,208.889,119.317-67.644v-182.277l-22.032,8.774ZM223.774,235.452l-36.774,15.871-5.29,67.226-16.903-7.871,9.548-71.097,49.419-24v19.871Z" fill="#e8dbae"/>
    <polygon points="349.323 330.548 306.871 302.935 306.871 296.484 335 312.484 335.129 271.968 344.548 277.129 349.323 330.548" fill="#e8dbae"/>
  </g>
</svg>