<?xml version="1.0" encoding="UTF-8" standalone="no"?>
<svg
   version="1.1"
   viewBox="0 0 512 512"
   id="svg7"
   sodipodi:docname="tf2c_achievement_ssg_meatshots.svg"
   inkscape:version="1.4.3 (0d15f75, 2025-12-25)"
   xmlns:inkscape="http://www.inkscape.org/namespaces/inkscape"
   xmlns:sodipodi="http://sodipodi.sourceforge.net/DTD/sodipodi-0.dtd"
   xmlns="http://www.w3.org/2000/svg"
   xmlns:svg="http://www.w3.org/2000/svg">
  <sodipodi:namedview
     id="namedview7"
     pagecolor="#ffffff"
     bordercolor="#000000"
     borderopacity="0.25"
     inkscape:showpageshadow="2"
     inkscape:pageopacity="0.0"
     inkscape:pagecheckerboard="0"
     inkscape:deskcolor="#d1d1d1"
     inkscape:zoom="2.2949219"
     inkscape:cx="256"
     inkscape:cy="256"
     inkscape:window-width="2560"
     inkscape:window-height="1377"
     inkscape:window-x="-8"
     inkscape:window-y="534"
     inkscape:window-maximized="1"
     inkscape:current-layer="svg7" />
  <!-- Generator: Adobe Illustrator 30.1.0, SVG Export Plug-In . SVG Version: 2.1.1 Build 136)  -->
  <defs
     id="defs2">
    <linearGradient
       id="Dégradé_sans_nom_5"
       data-name="Dégradé sans nom 5"
       x1="256"
       y1="1.9"
       x2="256"
       y2="505.1"
       gradientUnits="userSpaceOnUse">
      <stop
         offset="0"
         stop-color="#4a2a13"
         id="stop1" />
      <stop
         offset="1"
         stop-color="#230e0b"
         id="stop2" />
    </linearGradient>
    <linearGradient
       data-name="Dégradé sans nom 5"
       x1="256"
       y1="1.9"
       x2="256"
       y2="505.1"
       gradientUnits="userSpaceOnUse"
       id="linearGradient5020">
      <stop
         offset="0"
         stop-color="#4a2a13"
         id="stop1-1"
         style="stop-color:#2e2e2e" />
      <stop
         offset="1"
         stop-color="#230e0b"
         id="stop2-1"
         style="stop-color:#171717" />
    </linearGradient>
  </defs>
  <g
     id="Calque_2">
    <rect
       width="512"
       height="512"
       fill="url(#Dégradé_sans_nom_5)"
       id="rect2"
       style="fill:url(#linearGradient5020)" />
  </g>
  <g
     id="Calque_3">
    <g
       id="g3">
      <path
         d="M492.8,248.3l-39.4-54.1c-.8-1.1-1.7-2.1-2.8-3-11.2-9.9-27.5-16.7-50.2-5.2-17.6,8.9-21.2,28.5-21.9,38.1-.2,3.4.5,6.7,2,9.7l31.3,60.3c0,15.7,15.5,37.7,45.1,37.7s52.6-24.4,52.6-49.7-16.8-33.9-16.8-33.9ZM403.9,262.8l-16.8-34.2c-.5-1.1-.8-2.3-.7-3.5.4-8,4.1-37.3,38.9-37.3,0,0,13.3,1.4,19.1,8.5l19.8,26.6s-2.3-.6-9.3-.6c0,0-38.7.6-50.9,40.6ZM477.3,318.3c-21,10.7-44.8,6-53.2-10.6-8.4-16.5,1.8-38.6,22.8-49.2,21-10.7,44.8-6,53.2,10.6,8.4,16.5-1.8,38.6-22.8,49.2Z"
         fill="#e8dbae"
         id="path2"
         style="fill:#cbcbcb" />
      <path
         d="M486.3,282.2c-4.3-8.5-17.6-10.4-29.6-4.3-12,6.1-18.2,18-13.9,26.5,4.3,8.5,17.6,10.4,29.6,4.3,12-6.1,18.2-18,13.9-26.5ZM468.3,300.7c-8,4.1-16.8,3-19.6-2.5-2.8-5.5,1.5-13.2,9.5-17.3,8-4.1,16.8-3,19.6,2.5,2.8,5.5-1.5,13.2-9.5,17.3Z"
         fill="#e8dbae"
         id="path3"
         style="fill:#cbcbcb" />
    </g>
    <g
       id="g5">
      <path
         d="M2.9,299.4c-12,22.3-3.3,54.7,22.7,68.8,26.1,14.1,50.2,2,57.6-11.8l56.2-38.3c2.8-1.9,5-4.5,6.4-7.6,4-8.8,10.1-27.8-1.2-43.9-14.5-20.8-32.1-22.6-46.7-19.2-1.3.3-2.6.8-3.9,1.4l-60.3,28.9s-18.9-.5-30.9,21.8ZM79.5,272.6c-6.2-3.3-8.5-3.8-8.5-3.8l30-14.1c8.4-3.4,20.9,1.7,20.9,1.7,30.6,16.5,20,44.1,16.5,51.3-.5,1.1-1.3,2.1-2.3,2.8l-31.1,22.1c8.3-41.1-25.5-59.9-25.5-59.9ZM17.5,292.4c15.2-10.5,38.5-3.4,51.8,16,13.4,19.4,11.9,43.6-3.3,54.1-15.2,10.5-38.5,3.4-51.8-16-13.4-19.4-11.9-43.6,3.3-54.1Z"
         fill="#e8dbae"
         id="path4"
         style="fill:#cbcbcb" />
      <path
         d="M23.1,340.3c7.7,11.1,20.2,15.7,28.1,10.2,7.8-5.4,8-18.8.3-29.9-7.7-11.1-20.2-15.7-28.1-10.2-7.8,5.4-8,18.8-.3,29.9ZM30.3,315.5c5-3.5,13.3-.3,18.4,7.1,5.1,7.4,5.2,16.2.1,19.7-5,3.5-13.3.3-18.4-7.1-5.1-7.4-5.2-16.2-.1-19.7Z"
         fill="#e8dbae"
         id="path5"
         style="fill:#cbcbcb" />
    </g>
    <path
       d="M399.7,439.1l-62.3-106.4c-10.2-17.3-28.7-28-48.9-28h-5.2v-3.6c0-5.7-4.6-10.3-10.3-10.3h-34.1c-5.7,0-10.3,4.6-10.3,10.3v3.6h-5.2c-20.1,0-38.7,10.7-48.9,28l-62.3,106.4s-56.3,24.8-62.2,72.9h21.7s27.5-70.2,109.5-63.4l-23.4,63.4h15.5l19.4-65.3,26.3,11-3.7,33.1h81.2l-3.7-33.1,26.3-11,19.4,65.3h15.5l-23.4-63.4c82.1-6.8,109.5,63.4,109.5,63.4h21.7c-5.9-48.1-62.2-72.9-62.2-72.9ZM200.5,437.8s-7-5.6-28.8-5.6-46.6,9.3-46.6,9.3l62-104.3c7.4-12.5,20.9-20.1,35.4-20.1h6.8l-28.6,120.8ZM284.6,482.5h-57.2l2.9-29-6.8-3.3,15.7-148.6h33.5l15.7,148.6-6.8,3.3,2.9,29ZM340.3,432.2c-21.9,0-28.8,5.6-28.8,5.6l-28.6-120.8h6.8c14.5,0,28,7.7,35.4,20.1l62,104.3s-24.8-9.3-46.6-9.3Z"
       fill="#e8dbae"
       id="path6"
       style="fill:#cbcbcb" />
    <path
       d="M512,428l-56-62.2,25-25c-8.1,3.5-16.9,5.4-26,5.4-16.4,0-31.3-5.8-42.1-16.5-8.5-8.4-14-19.5-14.9-30.1l-30.1-58c-.7-1.3-1.3-2.7-1.8-4.1l-10.5,6.1-60.4-197.9-39.4,182.7-38.8-119.2-43.4,125.8-112-57.7,19.9,64.9,9.1-4.3c2-1,4.2-1.7,6.3-2.2,4.7-1.1,9.4-1.7,13.9-1.7,12.5,0,30.5,4.5,45.3,25.7,10.6,15.1,11.4,35.5,2.3,55.7-2.3,5.1-6,9.5-10.6,12.6l-54,36.8c-8.5,13.1-25.3,21.6-42.9,21.6s-11.1-.8-16.5-2.4L0,416v27.6l103-22.3,56.9-97.2c11.7-20,32.3-33.2,55-35.9,4.6-8.6,13.7-14.4,24.1-14.4h34.1c10.4,0,19.5,5.9,24.1,14.4,22.7,2.7,43.3,15.9,55,35.9l55.4,94.6,104.5,21.1v-11.7Z"
       fill="#c2592b"
       id="path7"
       style="fill:#767676" />
  </g>
</svg>
