<?xml version="1.0" encoding="UTF-8" standalone="no"?>
<svg
   width="512"
   height="512"
   viewBox="0 0 512 512"
   version="1.1"
   id="svg39"
   sodipodi:docname="tf2c_achievement_defuse_mirv.svg"
   inkscape:version="1.4.3 (0d15f75, 2025-12-25)"
   xmlns:inkscape="http://www.inkscape.org/namespaces/inkscape"
   xmlns:sodipodi="http://sodipodi.sourceforge.net/DTD/sodipodi-0.dtd"
   xmlns:xlink="http://www.w3.org/1999/xlink"
   xmlns="http://www.w3.org/2000/svg"
   xmlns:svg="http://www.w3.org/2000/svg">
  <sodipodi:namedview
     id="namedview39"
     pagecolor="#ffffff"
     bordercolor="#000000"
     borderopacity="0.25"
     inkscape:showpageshadow="2"
     inkscape:pageopacity="0.0"
     inkscape:pagecheckerboard="0"
     inkscape:deskcolor="#d1d1d1"
     inkscape:zoom="2.2949219"
     inkscape:cx="256"
     inkscape:cy="256"
     inkscape:window-width="2560"
     inkscape:window-height="1377"
     inkscape:window-x="-8"
     inkscape:window-y="534"
     inkscape:window-maximized="1"
     inkscape:current-layer="svg39" />
  <defs
     id="defs2">
    <linearGradient
       id="c"
       data-name="Dégradé sans nom 5"
       x1="256"
       y1="1.903"
       x2="256"
       y2="505.139"
       gradientUnits="userSpaceOnUse">
      <stop
         offset="0"
         stop-color="#4a2a13"
         id="stop1" />
      <stop
         offset="1"
         stop-color="#230e0b"
         id="stop2" />
    </linearGradient>
    <clipPath
       id="e">
      <rect
         x="-5.914"
         y="-5.914"
         width="523.828"
         height="523.828"
         fill="none"
         id="rect2" />
    </clipPath>
    <linearGradient
       data-name="Dégradé sans nom 5"
       x1="256"
       y1="1.903"
       x2="256"
       y2="505.139"
       gradientUnits="userSpaceOnUse"
       id="linearGradient100">
      <stop
         offset="0"
         stop-color="#4a2a13"
         id="stop1-1"
         style="stop-color:#2e2e2e" />
      <stop
         offset="1"
         stop-color="#230e0b"
         id="stop2-1"
         style="stop-color:#171717" />
    </linearGradient>
  </defs>
  <g
     id="a"
     data-name="Calque 1">
    <image
       width="512"
       height="512"
       xlink:href="../../../../Alexander/Documents/GitHub/tf2classified-steam/depots/tf2classic_shared/tf2classic/resource/svgs/achievements/BW/4.png"
       id="image2" />
  </g>
  <g
     id="b"
     data-name="Calque 2">
    <rect
       width="512"
       height="512"
       fill="url(#c)"
       id="rect3"
       style="fill:url(#linearGradient100)" />
  </g>
  <g
     id="d"
     data-name="Calque 3">
    <g
       id="g20">
      <path
         d="M345.409,316.138l-67.574-86.196-113.512,99.607,37.11,74.048,143.976-87.459ZM272.191,256.905l38.249,57.917-25.669,18.332-34.377-58.541,21.797-17.708ZM182.592,328.007l55.6-44.652,32.421,59.09-60.564,38.5-27.458-52.939Z"
         fill="#c2592b"
         id="path3"
         style="fill:#767676" />
      <polygon
         points="206.613 410.006 348.376 323.312 348.881 336.958 217.075 421.638 206.613 410.006"
         fill="#c2592b"
         id="polygon3"
         style="fill:#767676" />
      <polygon
         points="310.87 369.867 331.113 402.501 280.919 429.955 260.028 400.726 310.87 369.867"
         fill="#c2592b"
         id="polygon4"
         style="fill:#767676" />
      <polygon
         points="314.456 365.6 356.163 339.251 353.837 318.051 375.858 300.522 404.85 337.363 403.217 356.475 332.642 394.836 314.456 365.6"
         fill="#c2592b"
         id="polygon5"
         style="fill:#767676" />
      <path
         d="M273.175,427.026l-43.466,25.522s-19.474,1.678-33.586-16.113c-14.112-17.791-10.195-25.929-10.195-25.929l8.28-7.526,2.649,8.102,19.888,17.229,39.173-25.549,17.258,24.265Z"
         fill="#c2592b"
         id="path5"
         style="fill:#767676" />
      <path
         d="M183.051,405.527s-15.791-9.781-11.148-26.885l8.768-6.729,11.276,25.385-8.896,8.229Z"
         fill="#c2592b"
         id="path6"
         style="fill:#767676" />
      <path
         d="M168.035,374.573s-11.341-9.719-7.527-27.371l5.197-4.806,12.016,24.016-9.686,8.162Z"
         fill="#c2592b"
         id="path7"
         style="fill:#767676" />
      <path
         d="M291.237,237.889l15.507-12.517s5.291-1.875,9.507.454l8.923,10.785-22.161,14.276-11.777-12.998Z"
         fill="#c2592b"
         id="path8"
         style="fill:#767676" />
      <path
         d="M318.029,263.684l-9.431-10.192,36.192-25.109s11.618-3.303,25.354-18.836c13.736-15.532,17.894-20.905,37.244-19.73s29.954,15.326,28.497,32.384-19.905,29.086-19.905,29.086c0,0-20.117,12.004-33.566,26.964l-9.487-10.475s26-24.998,39.625-32.24c8.42-4.982,8.387-14.372,8.387-14.372,0,0-.624-16.441-16.34-17.783-8.349-.713-15.774,5.366-20.9,11.221-7.65,8.739-16.245,16.612-25.84,23.155-3.356,2.289-6.49,4.376-8.712,5.754-7.896,4.894-31.116,20.173-31.116,20.173Z"
         fill="#c2592b"
         id="path9"
         style="fill:#767676" />
      <path
         d="M370.889,297.233s-10.807-26.22-27.305-34.231l-19.832,14.256,27.241,34.982,19.896-15.006Z"
         fill="#c2592b"
         id="path10"
         style="fill:#767676" />
      <path
         d="M340.231,260.807l-19.182,13.635s-3.395-.767-2.432-7.844l20.173-12.656s2.128,1.767,1.442,6.865Z"
         fill="#c2592b"
         id="path11"
         style="fill:#767676" />
      <polygon
         points="190.812 328.629 202.454 319.919 207.159 330.026 195.012 338.136 190.812 328.629"
         fill="#c2592b"
         id="polygon11"
         style="fill:#767676" />
      <polygon
         points="196.689 341.78 208.871 333.274 216.693 347.863 203.788 356.466 196.689 341.78"
         fill="#c2592b"
         id="polygon12"
         style="fill:#767676" />
      <polygon
         points="205.413 359.787 218.536 351.441 225.559 364.212 211.823 373.222 205.413 359.787"
         fill="#c2592b"
         id="polygon13"
         style="fill:#767676" />
      <polygon
         points="205.312 317.657 220.234 306.402 226.215 317.414 211.147 327.582 205.312 317.657"
         fill="#c2592b"
         id="polygon14"
         style="fill:#767676" />
      <polygon
         points="213.341 331.23 227.796 321.248 235.704 336.242 220.825 345.591 213.341 331.23"
         fill="#c2592b"
         id="polygon15"
         style="fill:#767676" />
      <polygon
         points="223.187 349.373 237.77 339.998 244.4 351.781 229.995 361.17 223.187 349.373"
         fill="#c2592b"
         id="polygon16"
         style="fill:#767676" />
      <polygon
         points="242.098 338.22 255.751 329.243 261.583 340.6 248.298 349.449 242.098 338.22"
         fill="#c2592b"
         id="polygon17"
         style="fill:#767676" />
      <polygon
         points="239.639 333.476 231.069 319.26 244.506 310.026 253.014 325.669 239.639 333.476"
         fill="#c2592b"
         id="polygon18"
         style="fill:#767676" />
      <polygon
         points="229.724 315.446 223.527 304.178 235.84 294.132 242.538 306.517 229.724 315.446"
         fill="#c2592b"
         id="polygon19"
         style="fill:#767676" />
      <polygon
         points="379.563 285.087 367.496 269.897 362.441 269.465 378.915 292.669 379.563 285.087"
         fill="#c2592b"
         id="polygon20"
         style="fill:#767676" />
    </g>
    <polygon
       points="389.903 292.669 422.613 335.968 422.613 361.17 325.174 417.452 336.871 450.742 356.419 421.638 416.419 475.71 415.839 394.836 503.516 372.475 422.226 316.77 462.484 276.161 391.258 286.226 389.903 292.669"
       fill="#c2592b"
       id="polygon21"
       style="fill:#767676" />
    <polygon
       points="404.677 183.581 421.194 155.839 436.017 159.581 436.806 131.452 414.742 106.161 450.097 68.097 424.806 102.032 434.484 117.774 443.645 102.29 459.903 110.548 486.742 86.032 512 72.871 512 75.194 490.226 90.548 464.161 122.677 448.806 117.516 440.806 124.484 453.194 152.097 440.548 164.484 448.161 169.387 466.097 167.065 487.645 145.645 485.968 134.29 499 109 512 111.323 512 118.935 507.387 114.677 492.548 131.968 492.935 157.774 484.548 170.161 463.516 175.452 437.452 174.677 423.903 169.645 404.677 183.581"
       fill="#c2592b"
       id="polygon22"
       style="fill:#767676" />
    <polygon
       points="408.677 275.581 419.903 260.613 442.742 241.645 443.258 245.645 437.323 254.548 458.339 254.935 473.065 244.871 499.129 245.129 512 242.548 512 247.71 493.581 254.548 471.129 257.645 483.129 267.968 469.839 295.452 501.71 287.621 499.258 303.839 512 303.839 512 311.71 487.774 312.24 496.032 295.968 455.129 308.097 476.032 274.032 458.339 263.002 434.613 264.742 425.194 258.032 408.677 275.581"
       fill="#c2592b"
       id="polygon23"
       style="fill:#767676" />
    <polygon
       points="297.452 432.355 292.032 450.935 295.57 468.484 311.129 477.903 347 477.129 311.129 483.452 283.258 472.226 283.903 456.613 275.645 459.71 266.226 467.968 251.129 487.71 270.097 452.591 284.548 445.258 297.452 432.355"
       fill="#c2592b"
       id="polygon24"
       style="fill:#767676" />
    <polygon
       points="189.097 438.355 188.032 447.935 171.049 465.452 153 471.935 138.968 504.355 154.161 483.839 172.548 476.387 191.948 473.29 195.097 458 189.097 438.355"
       fill="#c2592b"
       id="polygon25"
       style="fill:#767676" />
    <polygon
       points="0 241.645 30.097 222.032 32.935 252.484 0 271.839 0 241.645"
       fill="#e8dbae"
       id="polygon26"
       style="fill:#cbcbcb" />
    <polygon
       points="39.129 217.387 114.484 173 118.871 195.194 117.29 200.871 53.968 239.71 53.968 242.677 65.065 236.871 67.903 238.806 71.129 253.129 52.29 262.419 39.129 248.097 39.129 217.387"
       fill="#e8dbae"
       id="polygon27"
       style="fill:#cbcbcb" />
    <path
       d="M76.355,248.581l38.419-23.129s-.677-7.258-3.194-8.516l-37.742,23.516s-1.742,5.806,2.516,8.129Z"
       fill="#e8dbae"
       id="path27"
       style="fill:#cbcbcb" />
    <path
       d="M122.29,221.065s-3.355,2.065-5.484,0-1.355-7.226-.645-7.871,3.484-2.968,4.774-2.774,3.355,2.581,3.226,4.71-.645,4.452-1.871,5.935Z"
       fill="#e8dbae"
       id="path28"
       style="fill:#cbcbcb" />
    <polygon
       points="116.71 156.839 127.161 211.032 140.032 214.129 130.355 152.387 126.29 149.29 116.71 156.839"
       fill="#e8dbae"
       id="polygon28"
       style="fill:#cbcbcb" />
    <polygon
       points="134.323 155.387 143.71 204.065 147.387 205.71 156.484 201.548 145.403 150.742 140.903 150.161 134.323 155.387"
       fill="#e8dbae"
       id="polygon29"
       style="fill:#cbcbcb" />
    <path
       d="M217.323,159.968l-4.258.774-16.387-8.903-10.581-43.613-5.29-2.968-31.226,15.871-2.387,4.71,10.645,66.258,44.258,49.419,18.581,10.194,14.065-9.677-17.419-82.065ZM208.161,166.226l5.806-2.516,13.258,62.806-22.065-14.806-8.226-52.452,11.226,6.968ZM221.032,241.419l-24.097-13.452,6.968-5.986,22.699,14.405-5.57,5.032Z"
       fill="#e8dbae"
       id="path29"
       style="fill:#cbcbcb" />
    <polygon
       points="207 150.161 201.774 146.774 193.548 111.935 203.71 105.839 213.194 145.323 207 150.161"
       fill="#e8dbae"
       id="polygon30"
       style="fill:#cbcbcb" />
    <path
       d="M288.29,67.581l-37.29-28.903-47.629,28.774,32.274,144,28.774,21.032,9.032-5.968,26.839-83.194-12-75.742ZM264.742,222.742l-23.548-16.903v-2.258h4.452l21.548,16.129-2.452,3.032ZM270.484,211.452l-23.613-16.387,18.968-65.935,26.452,16.387-21.806,65.935Z"
       fill="#e8dbae"
       id="path30"
       style="fill:#cbcbcb" />
    <polyline
       points="-11.555 298.975 35.645 267.093 45.968 278.677 64.096 273.868 72.097 280.046 89.323 271.839 90.612 257.883 121.774 236.939 129.903 236.939 134.161 233.513 146.935 233.513 157 226.19 158.935 218.448 163.29 214.835"
       fill="none"
       stroke="#e8dbae"
       stroke-miterlimit="10"
       stroke-width="10"
       id="polyline30"
       style="stroke:#cbcbcb" />
    <path
       d="M426.742,0h-9.806l-21.419,44.484-23.208,10.065-35.63-2.581-12.926,14.452v27.355l25.13,9.29,12.054,14.71-8.516,17.806,2.839,21.419-18.065,19.871,3.173,12.79-5.238,17.662,12.191,11.871-3.417-7.484-.774-27.871,22.194-24.903-5.032-29.032,12.018-4.774-8.921-23.742,11.859-4.774-8.763-30.194,12.645-8.387,16.387-.129,14.323,15.871-.774-36.258L426.742,0ZM353.581,95.71l-16.903-10.194-4.516-16,12.387-10.452,13.161,7.871,1.935,21.677-6.065,7.097Z"
       fill="#c2592b"
       id="path31"
       style="fill:#767676" />
    <g
       opacity=".5"
       id="g39">
      <g
         clip-path="url(#e)"
         id="g38">
        <g
           id="g37">
          <path
             d="M159.806,98.546S90.601,17.035-20.578-30.99"
             fill="none"
             stroke="#e8dbae"
             stroke-miterlimit="10"
             stroke-width="23.949"
             id="path32"
             style="stroke:#cbcbcb" />
          <path
             d="M207.72,49.029S128.45-47.239-30.652-101.432"
             fill="none"
             stroke="#e8dbae"
             stroke-miterlimit="10"
             stroke-width="23.949"
             id="path33"
             style="stroke:#cbcbcb" />
          <path
             d="M84.766,164.486S27.478,104.898-74.478,50.675"
             fill="none"
             stroke="#e8dbae"
             stroke-miterlimit="10"
             stroke-width="35"
             id="path34"
             style="stroke:#cbcbcb" />
          <path
             d="M47.582,186.634S-2.328,139.017-70.691,122.737"
             fill="none"
             stroke="#e8dbae"
             stroke-miterlimit="10"
             stroke-width="13"
             id="path35"
             style="stroke:#cbcbcb" />
          <path
             d="M125.467,126.61S95.049,64.648-77.065-20.28"
             fill="none"
             stroke="#e8dbae"
             stroke-miterlimit="10"
             stroke-width="7.185"
             id="path36"
             style="stroke:#cbcbcb" />
          <path
             d="M125.467,126.61S71.581,62.171-77.065.236"
             fill="none"
             stroke="#e8dbae"
             stroke-miterlimit="10"
             stroke-width="7.185"
             id="path37"
             style="stroke:#cbcbcb" />
        </g>
      </g>
    </g>
  </g>
</svg>
