<?xml version="1.0" encoding="UTF-8"?>
<svg xmlns="http://www.w3.org/2000/svg" width="512" height="512" xmlns:xlink="http://www.w3.org/1999/xlink" viewBox="0 0 512 512">
  <defs>
    <linearGradient id="c" data-name="Dégradé sans nom 5" x1="256" y1="1.903" x2="256" y2="505.139" gradientUnits="userSpaceOnUse">
      <stop offset="0" stop-color="#4a2a13"/>
      <stop offset="1" stop-color="#230e0b"/>
    </linearGradient>
    <mask id="e" data-name="mask" x="0" y="0" width="512" height="512" maskUnits="userSpaceOnUse">
      <g>
        <rect width="512" height="512" fill="#fff"/>
        <g>
          <path d="M72.734,313.742c-1.65,3.892-3.271,7.072-4.86,9.544-1.591,2.47-3.242,4.355-4.953,5.652-1.713,1.297-3.485,2.085-5.319,2.363-1.835.277-3.884.139-6.146-.417-.673-.125-1.421-.403-2.247-.834-.825-.434-1.65-1.035-2.476-1.808-.826-.772-1.605-1.684-2.339-2.733-.734-1.051-1.316-2.256-1.743-3.613l5.411-2.688c.367,1.05.748,1.93,1.146,2.641.397.71.748,1.281,1.055,1.715.306.431.643.787,1.009,1.065.367.277.794.54,1.284.787,1.161.741,2.354.987,3.577.741,1.223-.247,2.369-.88,3.439-1.899,1.069-1.019,2.078-2.286,3.026-3.799.947-1.515,1.803-3.136,2.568-4.865.764-1.729,1.436-3.475,2.018-5.235.581-1.76,1.055-3.319,1.422-4.679l-25.772-35.026,5.503-3.429,22.654,32.062,10.456-34.656,7.245,2.132-15.959,46.979Z" stroke="#000" stroke-miterlimit="10" stroke-width="5"/>
          <path d="M144.517,287.487c-.18,3.741-.988,7.089-2.425,10.044-1.436,2.956-3.353,5.414-5.747,7.374-2.395,1.96-5.06,3.483-7.993,4.568-2.934,1.086-5.688,1.629-8.262,1.629-3.054.06-6.212-.513-9.475-1.718-3.264-1.206-6.077-2.85-8.441-4.932-2.366-2.081-4.162-4.614-5.388-7.6-1.228-2.986-1.662-6.166-1.302-9.545.36-3.377,1.287-6.409,2.784-9.093,1.496-2.683,3.442-4.946,5.838-6.786,2.394-1.839,5.148-3.287,8.263-4.342,3.111-1.055,6.136-1.552,9.07-1.493,2.394,0,5.088.543,8.083,1.629,2.993,1.086,5.613,2.61,7.858,4.569,2.245,1.96,4.041,4.268,5.388,6.921,1.347,2.656,1.931,5.58,1.751,8.776ZM119.192,306.669c1.676.061,3.263-.15,4.76-.633,1.495-.482,2.978-1.177,4.445-2.082,1.466-.904,2.739-1.975,3.816-3.211,1.079-1.236,1.945-2.548,2.605-3.935.658-1.387,1.107-2.805,1.347-4.253.238-1.447.388-2.895.448-4.343.12-2.171-.12-4.281-.718-6.333-.599-2.049-1.587-3.89-2.963-5.519-1.378-1.629-3.158-2.986-5.343-4.071-2.187-1.086-4.387-1.659-6.601-1.719-1.497-.12-3.309.135-5.433.769-2.127.633-4.102,1.645-5.927,3.031-1.827,1.388-3.368,3.182-4.625,5.384s-1.916,4.811-1.976,7.826c-.12,2.051.104,4.177.673,6.379s1.512,4.222,2.829,6.062c1.316,1.84,3.023,3.378,5.119,4.614,2.095,1.237,4.61,1.916,7.543,2.036Z" stroke="#000" stroke-miterlimit="10" stroke-width="5"/>
          <path d="M163.289,265.465c-.062,1.483-.169,3.197-.32,5.144-.153,1.945-.307,4.016-.459,6.208-.153,2.193-.229,4.464-.229,6.811s.122,4.618.367,6.811c.244,2.193.672,4.263,1.284,6.208.61,1.946,1.468,3.646,2.568,5.097,1.101,1.452,2.476,2.595,4.127,3.429,1.65.834,3.698,1.221,6.145,1.158,2.323,0,4.448-.432,6.375-1.297,1.926-.865,3.606-2.085,5.044-3.66,1.437-1.575,2.583-3.521,3.439-5.838.855-2.316,1.345-4.988,1.468-8.016l.275-21.497,7.337.186-.642,43.365-6.879-.186v-4.911c-2.079,1.793-4.235,3.243-6.466,4.355-2.233,1.111-4.632,1.729-7.2,1.854-3.976.185-7.354-.062-10.135-.742-2.783-.679-5.076-1.821-6.879-3.428-1.804-1.605-3.195-3.66-4.173-6.162-.979-2.502-1.713-5.467-2.201-8.896-.49-3.429-.733-7.32-.733-11.676s.029-9.22.091-14.594l7.796.277Z" stroke="#000" stroke-miterlimit="10" stroke-width="5"/>
          <path d="M262.871,271.674l.825,38.177-7.429.277-.184-37.991-8.988-.093.092-6.022,9.354.37-.091-15.289h5.686l.367,15.475,11.648.278v4.911l-11.281-.093Z" stroke="#000" stroke-miterlimit="10" stroke-width="5"/>
          <path d="M294.521,309.943l-6.97.371-.275-43.551,6.512-.186.092,7.506c.488-.68,1.146-1.421,1.972-2.224s1.772-1.59,2.844-2.363c1.068-.771,2.276-1.451,3.622-2.038,1.345-.587,2.812-1.004,4.403-1.251,1.589-.246,3.315-.232,5.182.046,1.864.278,3.836.88,5.916,1.807l-1.835,6.672c-1.712-.927-3.439-1.605-5.182-2.038-1.743-.432-3.471-.557-5.182-.371-1.713.186-3.303.681-4.77,1.482-1.468.804-2.752,1.978-3.853,3.521-1.101,1.545-1.941,3.46-2.522,5.745-.581,2.286-.811,4.973-.688,8.062l.733,18.81Z" stroke="#000" stroke-miterlimit="10" stroke-width="5"/>
          <g>
            <path d="M336.016,257.265c1.101,0,2.063-.4,2.89-1.204.825-.803,1.238-1.761,1.238-2.873,0-.556-.107-1.08-.321-1.575-.215-.493-.505-.927-.871-1.297-.367-.371-.812-.663-1.33-.881-.521-.215-1.055-.324-1.605-.324-.49,0-.994.109-1.513.324-.521.218-.963.51-1.33.881-.367.37-.658.804-.871,1.297-.215.495-.321,1.02-.321,1.575,0,1.112.413,2.07,1.238,2.873.825.804,1.757,1.204,2.797,1.204Z" stroke="#000" stroke-miterlimit="10" stroke-width="7"/>
            <polygon points="332.354 267.69 330.886 310.221 340.975 310.314 341.801 267.597 332.354 267.69" stroke="#000" stroke-miterlimit="10" stroke-width="5"/>
          </g>
          <path d="M405.209,289.372c.367.062.046.093-.963.093h-39.622c-1.375,0-2.125.031-2.247.093.306,1.915.902,3.646,1.789,5.188.886,1.545,1.94,2.889,3.164,4.031,1.223,1.144,2.568,2.101,4.035,2.872,1.468.773,2.904,1.313,4.312,1.622.855.185,1.895.324,3.118.417,1.223.093,2.659.093,4.311,0s3.5-.355,5.549-.788c2.048-.432,4.295-1.111,6.741-2.038l1.376,7.598c-1.835.866-3.898,1.515-6.191,1.946s-4.617.663-6.97.695c-2.355.03-4.586-.109-6.695-.417-2.11-.311-3.838-.803-5.183-1.483-1.712-.741-3.379-1.605-4.998-2.594-1.621-.988-3.119-2.192-4.494-3.614-1.376-1.42-2.584-3.088-3.623-5.004-1.041-1.914-1.774-4.107-2.201-6.579-.49-3.025-.521-5.806-.092-8.339.427-2.532,1.207-4.833,2.339-6.903,1.131-2.069,2.536-3.906,4.219-5.514,1.681-1.605,3.546-2.919,5.595-3.938,2.048-1.019,4.173-1.774,6.374-2.27,2.201-.494,4.371-.741,6.513-.741,3.852.124,7.306.834,10.363,2.131,3.057,1.297,5.609,3.074,7.658,5.328,2.048,2.256,3.562,4.927,4.54,8.016.978,3.089,1.406,6.485,1.284,10.192ZM397.137,284.832c-.489-2.348-1.086-4.416-1.788-6.209-.703-1.791-1.82-3.319-3.348-4.587-1.529-1.265-3.149-2.284-4.861-3.058-1.712-.771-3.517-1.281-5.411-1.528-2.324-.371-4.602-.278-6.833.277-2.232.557-4.25,1.482-6.053,2.78-1.805,1.297-3.242,2.904-4.311,4.818-1.071,1.915-1.637,4.016-1.697,6.301l34.302,1.205Z" stroke="#000" stroke-miterlimit="10" stroke-width="5"/>
          <path d="M469.613,246.294l-.528,63.036-9.689-.089.264-6.543c-2.29,2.064-4.933,3.625-7.928,4.686-2.995,1.061-6.137,1.622-9.425,1.68-3.583.058-6.901-.486-9.954-1.635-3.054-1.15-5.653-2.755-7.796-4.819-2.144-2.062-3.743-4.509-4.8-7.337s-1.44-5.893-1.145-9.194c.293-3.3,1.189-6.203,2.686-8.708,1.498-2.505,3.405-4.611,5.726-6.322,2.319-1.709,4.961-2.975,7.928-3.801,2.965-.825,6.151-1.237,9.557-1.237,2.995,0,5.886.53,8.676,1.591,2.788,1.06,5.241,2.563,7.355,4.509l.088-25.816h8.984ZM440.897,304.821c3.347.118,6.195-.339,8.544-1.371,2.348-1.03,4.286-2.372,5.814-4.023,1.526-1.649,2.656-3.521,3.391-5.614.733-2.091,1.129-4.111,1.188-6.055.117-2.122-.147-4.184-.793-6.189-.646-2.003-1.644-3.815-2.995-5.438-1.352-1.62-3.083-2.946-5.197-3.979-2.114-1.03-4.581-1.576-7.399-1.635-1.176,0-2.409.118-3.7.354-1.292.236-2.57.619-3.831,1.149-1.263.53-2.482,1.224-3.656,2.078-1.175.855-2.217,1.872-3.127,3.05-.911,1.18-1.66,2.55-2.246,4.112-.588,1.562-.911,3.286-.969,5.171-.118,2.005.044,4.053.485,6.145.44,2.093,1.246,4.037,2.422,5.835,1.174,1.799,2.744,3.286,4.713,4.465,1.967,1.18,4.418,1.827,7.355,1.945Z" stroke="#000" stroke-miterlimit="10" stroke-width="5"/>
        </g>
      </g>
    </mask>
  </defs>
  <g id="a" data-name="Calque 1">
    <image width="512" height="512" xlink:href="29.png"/>
  </g>
  <g id="b" data-name="Calque 2">
    <rect width="512" height="512" fill="url(#c)"/>
  </g>
  <g id="d" data-name="Calque 3">
    <g mask="url(#e)">
      <g>
        <polygon points="256 36.873 312.346 210.287 494.684 210.287 347.169 317.463 403.515 490.877 256 383.701 108.485 490.877 164.831 317.463 17.316 210.287 199.654 210.287 256 36.873" fill="#c2592b"/>
        <path d="M213.839,253.188l-1.935,69.238-126.323-3.484s-6.839,23.355-29.548,23.355-28.774-28.774-28.774-28.774l19.871-10.71-24-36.387,29.806-16.774,12.736,17.806,6.361-18.452,29.032,8s5.935-6.581,21.548-6.581,91.226,2.762,91.226,2.762Z" fill="#e8dbae"/>
        <path d="M242.613,323.847l-1.032-36.442-8.258-.592v-35.226h9.29v-13.29l33.032.645v14.968l43.355-.722s-.714-17.342,17.063-17.342,19.961,15.226,19.961,25.419c0,0,5.17-10.162,26.718-10.162s29.548,14.085,29.548,14.085c0,0,9.677-13.213,34.71-13.213v-19.226h37.032v91.098l-47.484-.905s-13.677-.387-22.452-9.806c0,0-6.71,10.711-29.548,10.711s-30.452-10.711-30.452-10.711v9.419l-111.484,1.292Z" fill="#e8dbae"/>
      </g>
    </g>
    <path d="M131.903,26.853l4.666,24.716c7.32,38.775,37.65,69.105,76.425,76.425l24.716,4.666-24.716,4.666c-38.775,7.32-69.105,37.65-76.425,76.425l-4.666,24.716-4.666-24.716c-7.32-38.775-37.65-69.105-76.425-76.425l-24.716-4.666,24.716-4.666c38.775-7.32,69.105-37.65,76.425-76.425l4.666-24.716Z" fill="#e8dbae"/>
    <path d="M418.452,79.148l.629,3.33c6.283,33.282,32.316,59.316,65.598,65.598l3.33.629-3.33.629c-33.282,6.283-59.316,32.316-65.598,65.598l-.629,3.33-.629-3.33c-6.283-33.282-32.316-59.316-65.598-65.598l-3.33-.629,3.33-.629c33.282-6.283,59.316-32.316,65.598-65.598l.629-3.33Z" fill="#e8dbae"/>
    <path d="M329.778,352.625l.493,2.614c6.283,33.282,32.316,59.316,65.598,65.598l2.614.493-2.614.493c-33.282,6.283-59.316,32.316-65.598,65.598l-.493,2.614-.493-2.614c-6.283-33.282-32.316-59.316-65.598-65.598l-2.614-.493,2.614-.493c33.282-6.283,59.316-32.316,65.598-65.598l.493-2.614Z" fill="#e8dbae"/>
  </g>
</svg>