<?xml version="1.0" encoding="UTF-8"?>
<svg xmlns="http://www.w3.org/2000/svg" width="512" height="512" xmlns:xlink="http://www.w3.org/1999/xlink" viewBox="0 0 512 512">
  <defs>
    <linearGradient id="c" data-name="Dégradé sans nom 5" x1="256" y1="1.903" x2="256" y2="505.139" gradientUnits="userSpaceOnUse">
      <stop offset="0" stop-color="#4a2a13"/>
      <stop offset="1" stop-color="#230e0b"/>
    </linearGradient>
  </defs>
  <g id="a" data-name="Calque 1">
    <image width="512" height="512" xlink:href="8.png"/>
  </g>
  <g id="b" data-name="Calque 2">
    <rect width="512" height="512" fill="url(#c)"/>
  </g>
  <g id="d" data-name="Calque 3">
    <path d="M302.201,429.092l-7.299-28.104-12.289-20.891v-26.428l-30.656-118.044-15.408-17.721,5.711-19.617-22.412-86.298c-1.515-5.832-7.47-9.332-13.302-7.817l-161.026,41.819c-5.832,1.515-9.332,7.47-7.817,13.302l6.148,23.675,9.601,9.775-1.417,21.734,68.021,261.92c1.515,5.832,7.47,9.332,13.302,7.817l13.443-3.491,12.716-13.916,19.771,5.479,115.096-29.891c5.832-1.515,9.332-7.47,7.818-13.302ZM106.317,216.737l-3.908-15.046c-3.605-13.88,4.725-28.054,18.605-31.658l31.276-8.122c13.88-3.605,28.054,4.725,31.658,18.605l3.908,15.046c3.604,13.88-4.725,28.054-18.605,31.658l-31.276,8.123c-13.88,3.605-28.054-4.725-31.658-18.605ZM131.135,312.303l-3.907-15.046c-3.605-13.88,4.725-28.054,18.605-31.658l31.276-8.122c13.88-3.605,28.054,4.725,31.658,18.605l3.908,15.046c3.604,13.88-4.725,28.054-18.605,31.658l-31.276,8.123c-13.88,3.605-28.054-4.725-31.658-18.605ZM218.889,418.352l-31.276,8.123c-13.88,3.605-28.054-4.725-31.658-18.605l-3.907-15.046c-3.605-13.88,4.725-28.054,18.605-31.658l31.276-8.122c13.88-3.605,28.054,4.725,31.658,18.605l3.908,15.046c3.605,13.88-4.725,28.054-18.605,31.658Z" fill="#e8dbae"/>
    <polygon points="321.71 485.774 332.548 475.226 342.032 472.419 359.355 475.226 363.806 485.774 321.71 485.774" fill="#e8dbae"/>
    <polygon points="386.452 485.774 393.806 468.645 401.548 461.871 422.935 454.032 437.645 463.613 449.742 485.774 386.452 485.774" fill="#e8dbae"/>
  </g>
</svg>