<?xml version="1.0" encoding="UTF-8" standalone="no"?>
<svg
   width="512"
   height="512"
   viewBox="0 0 512 512"
   version="1.1"
   id="svg21"
   sodipodi:docname="tf2c_achievement_chicken_envkill.svg"
   inkscape:version="1.4.3 (0d15f75, 2025-12-25)"
   xmlns:inkscape="http://www.inkscape.org/namespaces/inkscape"
   xmlns:sodipodi="http://sodipodi.sourceforge.net/DTD/sodipodi-0.dtd"
   xmlns:xlink="http://www.w3.org/1999/xlink"
   xmlns="http://www.w3.org/2000/svg"
   xmlns:svg="http://www.w3.org/2000/svg">
  <sodipodi:namedview
     id="namedview21"
     pagecolor="#ffffff"
     bordercolor="#000000"
     borderopacity="0.25"
     inkscape:showpageshadow="2"
     inkscape:pageopacity="0.0"
     inkscape:pagecheckerboard="0"
     inkscape:deskcolor="#d1d1d1"
     inkscape:zoom="2.2949219"
     inkscape:cx="256"
     inkscape:cy="256"
     inkscape:window-width="2560"
     inkscape:window-height="1377"
     inkscape:window-x="-8"
     inkscape:window-y="534"
     inkscape:window-maximized="1"
     inkscape:current-layer="svg21" />
  <defs
     id="defs2">
    <linearGradient
       id="c"
       data-name="Dégradé sans nom 5"
       x1="256"
       y1="1.903"
       x2="256"
       y2="505.139"
       gradientUnits="userSpaceOnUse">
      <stop
         offset="0"
         stop-color="#4a2a13"
         id="stop1" />
      <stop
         offset="1"
         stop-color="#230e0b"
         id="stop2" />
    </linearGradient>
    <linearGradient
       data-name="Dégradé sans nom 5"
       x1="256"
       y1="1.903"
       x2="256"
       y2="505.139"
       gradientUnits="userSpaceOnUse"
       id="linearGradient2006">
      <stop
         offset="0"
         stop-color="#4a2a13"
         id="stop1-1"
         style="stop-color:#2e2e2e" />
      <stop
         offset="1"
         stop-color="#230e0b"
         id="stop2-1"
         style="stop-color:#171717" />
    </linearGradient>
  </defs>
  <g
     id="a"
     data-name="Calque 1">
    <image
       width="512"
       height="512"
       xlink:href="../../../../Alexander/Documents/GitHub/tf2classified-steam/depots/tf2classic_shared/tf2classic/resource/svgs/achievements/BW/26.png"
       id="image2" />
  </g>
  <g
     id="b"
     data-name="Calque 2">
    <rect
       width="512"
       height="512"
       fill="url(#c)"
       id="rect2"
       style="fill:url(#linearGradient2006)" />
  </g>
  <g
     id="d"
     data-name="Calque 3">
    <path
       d="M199.387,252.226s-6.436-10.323-7.347-15.484-4.008-11.871-4.008-21.161-2.065-18.839-1.806-24.258.516-13.935,1.032-19.097-.774-15.226-.774-18.323-.045-24.258-.28-25.806,2.877-3.097,5.837-3.355,25.153,16.516,26.96,20.645,1.29,17.29,4.387,32-1.29,13.935,0,26.065,0,9.806,1.806,21.935,3.355,10.1,1.806,15.115-.516,5.531-3.871,8.111.258,2.065-6.968,3.613-16.774,0-16.774,0Z"
       fill="#c2592b"
       id="path2"
       style="fill:#767676" />
    <g
       id="g16">
      <path
         d="M465,0c.445,1.357,1.426,4.261,1.425,5.911l-.044,56.137c-.003,3.652-2.278,6.537-5.138,7.505-1.994.675-5.156-1.711-7.186-4.234l-.069-60.156,2.012-5.163h9Z"
         fill="#e8dbae"
         id="path3"
         style="fill:#cbcbcb" />
      <path
         d="M490,0l-.27,8.108c-.138,4.154-.16,9.075-3.444,12.362-1.953,1.955-7.311,2.354-10.122,1.345-.759-7.667-.756-14.917-.164-21.815h14Z"
         fill="#e8dbae"
         id="path4"
         style="fill:#cbcbcb" />
      <path
         d="M444,0l.383,22.515c-13.023-2.45-14.365-11.984-14.383-22.515h14Z"
         fill="#e8dbae"
         id="path5"
         style="fill:#cbcbcb" />
      <path
         d="M398.097,192.419l4.258,15.677,1.548,8.323-5.323,10.07c-28.162,17.444-54.668,10.633-82.976,29.278l-6.905,9.983c-2.454-3.59-6.506-7.422-7.672-11.288-3.607-11.967-6.002-28.16,4.061-37.1,10.473-2.293,19.564-3.89,29.713-8.249l-15.274-16.067,14.351-12.898c-16.588,2.025-15.192,3.905-25.59,14.384,4.28,5.405,8.804,8.766,14.628,12.679-13.424,2.387-9.798.993-22.422-1.959l-9,11.276c-6.976,30.953,3.897,30.303-18.243,55.343,5.469.27,11.408-1.903,16.909-4.274l10.499,13.001-2.235,18.443c-.661,5.452.509,11.319,1.782,16.749,1.198,5.108,4.746,10.146,6.456,15.174-9.357,17.134-13.835,28.493-10.038,48.663.925,4.912,4.119,9.698,6.491,14.482,10.71-14.622,8.143-13.027,23.081-23.671,8.304-.428,15.403,2.386,22.331,6.88l-18.877,9.509,10.536,10.293c-9.662,1.845-19.192,1.126-27.406,6.765-6.995,4.802-12.724,12.183-20.469,16.104-11.444,5.794-31.903,10.346-45,8.536l-50.942-24.751-7.957-10.12-.589-17.028c-5.92,2.923-7.737,7.95-11.274,13.705-5.948-17.013-4.645-10.854-.783-27.528l-6.626-3.939-3.739-8.637c22.268.432,15.237-.417,34.59-8.702l8.062-15.928c-1.387-8.585-2.736-16.551-4.934-25.123-2.277-4.047-6.508-10.159-10.234-13.202l-21.651-17.685,20.067-6.395-29.568-11.178c-1.268-8.865-5.25-18.246-3.832-27.007l4.361-26.954c1.319-8.154-.433-16.705-1.685-25.023-1.583-5.781-6.525-10.686-8.877-16.721l15.788,3.529c-5.992-40.064-1.199-24.13-21.247-57.401l17.252,2.505c-9.753-31.379-8.572-22.599-27.063-46.964,4.63.24,10.992-.919,15.37.586,33.792,11.617,23.279,8.909,48.694,32.402l.067-14.606c9.243,14.265,19.055,27.38,27.509,42.333,5.74,10.152,7.117,22.396,11.906,32.998-6.929,18.405-4.444,16.796-3.591,35.391l10.564-17.263c1.828,7.126,3.916,13.384,4.541,20.303,1.542,17.065-.122,24.002-7.468,39.105-3.139,6.454-6.695,11.151-10.529,18.034l14.08.109c-1.24,3.866-2.077,9.365-4.565,12.742l-7.336,9.956c3.158-.515,7.22-1.507,9.02-3.298,17.219-17.136,16.47-12.79,25.628-36.338l-11.475.995,4.663-17.961c3.677-14.163,1.377-25.404-2.338-39.578,8.718-5.115,16.093-12.864,25.418-16.906,8.504-3.686,18.514-7.472,27.561-7.125l20.794.796c-5-5.023-10.232-8.232-16.764-10.96,9.42-3.678,19.596-5.833,29.883-3.396,4.079.966,9.282,2.013,12.834,4.006,10.207,5.728,25.903,22.319,34.382,31.41,2.213,2.373,4.512,8.347,4.823,11.396s-2.003,9.312-2.003,9.312ZM211.459,245.804c13.872-2.934,7.986-27.782,8.057-36.159l-2.065-33.29c.1-11.863-5.583-19.171-8-30.968-2.539-4.59-13.542-11.842-17.31-16.042-.835,7.54,3.732,13.089,4.175,19.794.639,9.657,1.815,19.152,1.319,28.86l-1.891,37.062c-.435,8.534,1.816,17.285,3.692,25.576,1,4.417,8.65,5.879,12.022,5.166ZM260.692,346.763l29.211-1.861c-16.618-20.16-9.528-13.65-31.21-24.301-3.217-15.399-3.85-18.049-11.048-33.185l-14.184,24.017,14.094-5.465,4.392,22.726,20.631,7.968-11.885,10.101ZM234.706,356.384l7.23,7.381-6.619-17.245-11.665-6.663-5.329,21.076,8.816-7.738c2.102.423,6.215,1.808,7.566,3.188Z"
         fill="#e8dbae"
         id="path6"
         style="fill:#cbcbcb" />
      <path
         d="M403.482,239.208l-11.712,5.557c-13.958,2.659-27.886,3.176-41.217,8.219-7.584,2.869-15.712,6.675-22.238,11.497-6.11,4.515-11.267,11.557-15.998,17.623-6.388,20.411-6.82,32.343,8.735,48.64l7.01-20.775,22.617-16.9,4.15,5.084c6.591-2.741,12.292-6.72,19.112-8.406,14.592-3.609,33.572-.767,35.897-14.495l-4.968-12.962-1.355-9.677-.034-13.405Z"
         fill="#e8dbae"
         id="path7"
         style="fill:#cbcbcb" />
      <path
         d="M388.274,296.38c-26.46,6.916-17.706,4.887-38.252,20.992l-8.835-10.76-10.131,21.446.289,15.898c-6.875-.394-10.733-2.578-15.59-7.064l-7.876,14.328,11.312-.166-15.198,13.195,1.589,11.123c36.815-27.656,36.454-16.487,75.575-27.649,3.893-2.299,8.797-5.961,12.035-9.489l3.937-12.461-7.161-13.742-1.694-15.652Z"
         fill="#e8dbae"
         id="path8"
         style="fill:#cbcbcb" />
      <path
         d="M98.349,48.408c-6.118,9.21-5.238,11.015-14.545,15.385-14.7,14.327-15.795,23.055-37.761,27.702-6.092,1.289-12.829-.106-18.988-.478-1.325-2.517-3.794-8.098-2.91-10.738,3.141-9.384,10.97-24.184,17.458-29.515,5.136-4.22,12.364-7.884,18.547-9.887,9.069-2.937,18.984-.07,27.666-4.164,5.696-2.686,10.706-7.022,16.357-10.731l9.691,4.295-27.412,16.018c-3.618,2.114-10.155.434-14.06,2.117-15.161,6.533-14.325,6.654-23.465,21.861l14.541-9.502c7.507-4.906,16.232-5.947,24.936-7.399l9.946-4.963Z"
         fill="#e8dbae"
         id="path9"
         style="fill:#cbcbcb" />
      <path
         d="M290.351,87.3c16.257-11.062,21.158-18.612,20.425-39.543l-7.967,16.026c-4.054,8.154-11.127,13.39-18.091,19.081l-6.29,10.153,1.28-15.485,3.897-5.897c2.76-9.147,3.24-18.756,6.847-27.628,11.872-18.201,10.249-15.165,28.91-24.847l8.001,7.313c1.572,8.774,2.205,27.305-.536,34.812-2.316,6.344-6.78,13.271-11.237,18.171-6.336,6.967-16.291,9.525-21.807,17.389-3.737,5.327-5.91,11.768-8.999,17.729l-10.299.803,15.867-28.076Z"
         fill="#e8dbae"
         id="path10"
         style="fill:#cbcbcb" />
      <path
         d="M60.161,233.751c-14.722-5.715-10.176-3-21.332-13.54l-4.34-20.124c.762-3.493,2.442-8.134,4.074-12.424l7.179,28.873c5.578,6.642,7.656,12.137,17.281,8.799l14.275-4.951c-8.031-1.77-15.826.377-22.438-4.698-8.82-6.769-9.137-25.918-14.012-36.438-5.651-12.192.674.496-4.092-17.979-.316-1.224,3.488-2.378,4.199-1.315,1.567,2.343,4.646,5.895,5.122,8.458l2.154,11.623,8.807,7.643c3.303,2.866,3.647,8.444,5.65,12.756,25.133,9.837,13.926-4.04,33.765.391,9.41,6.522,7.954,6.866,11.734,18.278-5.836,3.59-11.823,8.338-17.686,11.016-10.247,1.68-20.025,2.602-30.338,3.63Z"
         fill="#e8dbae"
         id="path11"
         style="fill:#cbcbcb" />
      <path
         d="M481.686,277.669c-2.083,1.866-6.678,5.486-9.539,6.249l-26.732,7.134c-1.105.295-3.506,2.84-4.839,2.817-9.523-.169-15.153,3.281-15.294.584-.308-5.885,13.016-10.416,19.973-9.384,12.236-14.35,3.602-7.143,20.703-15.298,10.01-23.082-3.526-15.105.609-33.483,5.979-9.559,7.7-8.402,18.322-12.014,3.06,6.054,8.933,11.48,10.718,17.788,2.243,9.929,2.831,19.693,3.756,29.927-4.268,13.191-4.008,12.056-13.597,21.715-14.894,2.827-17.919,7.08-32.087.132l29.068-7.093,7.93-7.444c2.058-1.932,1.313-7.568.412-10.012l-4.747-12.878c-1.974,7.891-.44,14.464-4.657,21.259Z"
         fill="#e8dbae"
         id="path12"
         style="fill:#cbcbcb" />
      <path
         d="M488.664,143.167l-.12,35.695c-.012,3.637-1.391,8.983-2.082,12.601l-5.697,4.397-44.374-.048-6.025-13.979-.091-37.891c4.507-7.209,3.638-10.872,12.351-9.527l.091,39.71c.006,2.772,3.626,5.233,6.071,5.232l22.379-.006c2.904,0,5.964-2.092,5.969-5.273l.051-39.415c5.894-.244,8.695,2.96,11.478,8.503Z"
         fill="#e8dbae"
         id="path13"
         style="fill:#cbcbcb" />
      <path
         d="M459.907,157.078c-1.66-.214-4.272-2.756-5.939-4.344l.173-60.421c.014-4.883,6.268-7.278,9.491-5.673,1.495.745,2.799,4.385,2.796,6.295l-.064,56.094c-.005,4.072-2.026,8.084-6.458,8.049Z"
         fill="#e8dbae"
         id="path14"
         style="fill:#cbcbcb" />
      <path
         d="M444.391,109.958c-8.91-.89-14.229-8.537-14.141-16.927l.392-37.442c.056-5.301,4.424-8.15,8.604-8.116,1.246.01,3.318-.536,3.648.173l1.539,3.313-.041,58.999Z"
         fill="#e8dbae"
         id="path15"
         style="fill:#cbcbcb" />
      <path
         d="M489.332,101.813c-.066,5.166-4.406,8.001-8.19,7.914l-3.984-.092c-.847-.019-1.555-2.718-1.555-3.618l-.021-58.662c9.115.691,14.334,8.775,14.221,17.611l-.471,36.846Z"
         fill="#e8dbae"
         id="path16"
         style="fill:#cbcbcb" />
    </g>
    <path
       d="M393.71,198.032c-12.192,10.657-23.406,10.992-38.194,17.032-14.11,5.763-27.898,16.464-43.871,34.839,5.59-.727,27.366-13.058,32.793-14.361,12.077-2.9,24.101-4.521,35.945-8.386,5.169-1.687,9.458-5.713,14.881-8.187"
       fill="#c2592b"
       id="path17"
       style="fill:#767676" />
    <path
       d="M400.035,262.044l-32.648,6.344c-24.337,3.895-29.808,19.151-47.484,38.806,8.238-1.618,30.615-19.006,37.986-21.236,22.228-6.724,29.217-.756,44.49-10.195"
       fill="#c2592b"
       id="path18"
       style="fill:#767676" />
    <path
       d="M383.054,311.291c-2.323,6.71-20.741,10.002-27.022,19.453-18.195,11.591-20.003,9.544-31.56,26.548l28.552-9.715c10.346-3.52,20.963-3.586,31.007-8.411l6.501-6.992"
       fill="#c2592b"
       id="path19"
       style="fill:#767676" />
    <path
       d="M0,306.199s41.581-31.134,42.742-31.134h63.097l-8.129,21.316s-21.29,2.684-16.645,23.588,42.968,11.775,42.968,11.775l32.903-3.646,17.032,11.76s-19.742,1.788-22.452-2.083,2.323,19.742,2.323,19.742l10.065,11.226s-6.581,24.774,4.645,32.516,61.581,31.742,61.581,31.742l25.87,54.968h-20.484s-15.097-14.71-26.323-5.419-2.323,29.452-2.323,29.452H64.419s-1.871-59.258-64.419-60.806v-144.995Z"
       fill="#c2592b"
       id="path20"
       style="fill:#767676" />
    <path
       d="M269.065,512l8-21.323,35.355-17.29s15.484-15.742,11.097-27.097-22.968-6.452-22.968-6.452l-8.774-5.161s35.605-35.871,67.222-24.516l-2.706-9.29s33.161,2.704,33.548-18.581c.249-13.677-12.387-14.71-12.387-14.71l-5.497-5.161s23.562-6.796,31.949-15.656l13.29-1.118,37.935,22.452,21.935-.258s12.387-13.161,0-25.806l-1.548-18.065,36.484,15.889v168.627s-16.355-19.355-43.452-19.355-40,22.871-40,22.871h-159.484Z"
       fill="#c2592b"
       id="path21"
       style="fill:#767676" />
  </g>
</svg>
