<?xml version="1.0" encoding="UTF-8" standalone="no"?>
<svg
   width="512"
   height="512"
   viewBox="0 0 512 512"
   version="1.1"
   id="svg40"
   sodipodi:docname="tf2c_achievement_cyclops_combo.svg"
   inkscape:version="1.4.3 (0d15f75, 2025-12-25)"
   xmlns:inkscape="http://www.inkscape.org/namespaces/inkscape"
   xmlns:sodipodi="http://sodipodi.sourceforge.net/DTD/sodipodi-0.dtd"
   xmlns:xlink="http://www.w3.org/1999/xlink"
   xmlns="http://www.w3.org/2000/svg"
   xmlns:svg="http://www.w3.org/2000/svg">
  <sodipodi:namedview
     id="namedview40"
     pagecolor="#ffffff"
     bordercolor="#000000"
     borderopacity="0.25"
     inkscape:showpageshadow="2"
     inkscape:pageopacity="0.0"
     inkscape:pagecheckerboard="0"
     inkscape:deskcolor="#d1d1d1"
     inkscape:zoom="2.2949219"
     inkscape:cx="256"
     inkscape:cy="256"
     inkscape:window-width="2560"
     inkscape:window-height="1377"
     inkscape:window-x="-8"
     inkscape:window-y="534"
     inkscape:window-maximized="1"
     inkscape:current-layer="svg40" />
  <defs
     id="defs4">
    <linearGradient
       id="c"
       data-name="Dégradé sans nom 5"
       x1="256"
       y1="1.903"
       x2="256"
       y2="505.139"
       gradientUnits="userSpaceOnUse">
      <stop
         offset="0"
         stop-color="#4a2a13"
         id="stop1" />
      <stop
         offset="1"
         stop-color="#230e0b"
         id="stop2" />
    </linearGradient>
    <mask
       id="e"
       data-name="mask"
       x="178.484"
       y="229.065"
       width="215.742"
       height="153.871"
       maskUnits="userSpaceOnUse">
      <g
         id="g2">
        <rect
           x="178.484"
           y="229.065"
           width="215.742"
           height="153.871"
           fill="#fff"
           id="rect2"
           style="fill:#ffffff" />
        <path
           d="M239.355,295.452s9.968,6.097,32.516,6.097,27.29-6.097,27.29-6.097c0,0-2.806,12.871-27.29,12.871s-31.645-7.548-32.516-12.871Z"
           id="path2" />
      </g>
    </mask>
    <clipPath
       id="f">
      <path
         d="M220.387,332.129s2.419,16.548,51.871,16.548,45.774-18.194,45.774-18.194l-13.548-42.484s-8.161-15.581-34.323-15.581-35.452,14.226-35.452,14.226l-14.323,45.484Z"
         fill="#c2592b"
         id="path3"
         style="fill:#767676" />
    </clipPath>
    <clipPath
       id="g">
      <path
         d="M428.806,137.71l4.645-46.258-6.839-6.71,9.161-.903-2.323-10.581,7.871,5.806,1.935-8.645,4.774,6.581,5.935-6.581,1.419,9.548,19.742,16.129s13.032.903,20-8.387c6.968-9.29,4.129-11.742,4.129-11.742l-27.613-26.581-11.742-1.161-11.484-11.355-13.548,9.161-17.29-2.581-2.194,14.581-14.194,5.935,5.419,12.129-6.839,7.355v52s11.823,5.73,29.032,2.258Z"
         fill="#e8dbae"
         id="path4"
         style="fill:#cbcbcb" />
    </clipPath>
    <linearGradient
       data-name="Dégradé sans nom 5"
       x1="256"
       y1="1.903"
       x2="256"
       y2="505.139"
       gradientUnits="userSpaceOnUse"
       id="linearGradient2471">
      <stop
         offset="0"
         stop-color="#4a2a13"
         id="stop1-1"
         style="stop-color:#2e2e2e" />
      <stop
         offset="1"
         stop-color="#230e0b"
         id="stop2-1"
         style="stop-color:#171717" />
    </linearGradient>
  </defs>
  <g
     id="a"
     data-name="Calque 1">
    <image
       width="512"
       height="512"
       xlink:href="../../../../Alexander/Documents/GitHub/tf2classified-steam/depots/tf2classic_shared/tf2classic/resource/svgs/achievements/BW/12.png"
       id="image4" />
  </g>
  <g
     id="b"
     data-name="Calque 2">
    <rect
       width="512"
       height="512"
       fill="url(#c)"
       id="rect4"
       style="fill:url(#linearGradient2471)" />
  </g>
  <g
     id="d"
     data-name="Calque 3">
    <g
       mask="url(#e)"
       id="g7">
      <g
         id="g6">
        <path
           d="M220.387,332.129s2.419,16.548,51.871,16.548,45.774-18.194,45.774-18.194l-13.548-42.484s-8.161-15.581-34.323-15.581-35.452,14.226-35.452,14.226l-14.323,45.484Z"
           fill="#c2592b"
           id="path5"
           style="fill:#767676" />
        <g
           clip-path="url(#f)"
           id="g5">
          <polygon
             points="270.71 286.452 271.968 305.129 270.161 351.194 291.903 357.194 301.581 346.935 289.194 302.226 270.71 286.452"
             fill="#e8dbae"
             id="polygon5"
             style="fill:#cbcbcb" />
        </g>
      </g>
    </g>
    <g
       id="g9">
      <path
         d="M428.806,137.71l4.645-46.258-6.839-6.71,9.161-.903-2.323-10.581,7.871,5.806,1.935-8.645,4.774,6.581,5.935-6.581,1.419,9.548,19.742,16.129s13.032.903,20-8.387c6.968-9.29,4.129-11.742,4.129-11.742l-27.613-26.581-11.742-1.161-11.484-11.355-13.548,9.161-17.29-2.581-2.194,14.581-14.194,5.935,5.419,12.129-6.839,7.355v52s11.823,5.73,29.032,2.258Z"
         fill="#e8dbae"
         id="path7"
         style="fill:#cbcbcb" />
      <g
         clip-path="url(#g)"
         id="g8">
        <path
           d="M410.984,147.387l-.217-59.538,8.491-7.623-4.839-11.032,9.871-1.548,2.903-13.742,11.806,4.645,8.323-9.484,8.581,12.387,11.613-1.355,42.323,42.968s25.161-37.742,22.065-40.258-51.161-42-57.419-43.935c-6.258-1.935-47.097-11.419-57.548-8.71-10.452,2.71-24.774.774-36.194,14.903-11.419,14.129-24.968,48-27.677,55.742-2.71,7.742-2.903,36-1.355,43.742,1.548,7.742,50.323,40.258,50.71,40.258s8.564-17.419,8.564-17.419Z"
           fill="#c2592b"
           id="path8"
           style="fill:#767676" />
      </g>
    </g>
    <path
       d="M360.935,196.871s17.419,17.806,57.548,17.806c25.548,0,32.774-9.419,32.774-9.419l3.613-14.839,1.032-6.129s-8,4.29-45.29,4.29-50.065-15.258-50.065-15.258l.387,23.548Z"
       fill="#c2592b"
       id="path9"
       style="fill:#767676" />
    <path
       d="M467.516,207.452s-1.806-10.452-12.645-17.032l-2.065,8.645s6.065,3.613,6.065,9.806-15.871,16-45.419,16-57.419-12.774-61.29-26.581c0,0-.129-5.935,8.774-9.29l-.387-9.032s-16.645,6.323-16.645,20.129-3.613,92.516-3.613,92.516c0,0,61.677,15.871,61.677,50.194,0,4.387-1.032,8.516-1.032,8.516,0,0,17.677,1.806,34.71-4.774l-1.807,15.484,9.548,7.097-2.581,14.194s-11.355,11.097-42.839,10.968l3.355,7.613s29.936.387,46.839-14.323l4.645-21.548-10.71-8,25.419-150.581ZM415.258,279.065c-40.856,0-66.323-17.548-66.323-17.548l2.71-48s22.71,19.419,64.387,19.419c26.839,0,39.871-8.065,39.871-8.065l-8,48.645s-12.774,5.548-32.645,5.548Z"
       fill="#e8dbae"
       id="path10"
       style="fill:#cbcbcb" />
    <path
       d="M303.387,437.903s22.968-17.935,64.774-15.484c0,0,1.677,5.548,1.677,8.903s-1.29,18.452-27.226,18.452-39.226-11.871-39.226-11.871Z"
       fill="#e8dbae"
       id="path11"
       style="fill:#cbcbcb" />
    <path
       d="M228.935,435.71s-12.387,6.323-30.71,6.323-27.484-8.129-29.419-16.387c0,0,34.194-3.484,60.129,10.065Z"
       fill="#e8dbae"
       id="path12"
       style="fill:#cbcbcb" />
    <path
       d="M146.097,428.806l4.129,32.516s22.76,42.387,122.323,42.387,117.097-42.387,117.097-42.387l4.581-34.839-5.419-1.548-1.677,8.323-8.323,7.935s-3.097,33.29-36,33.29-38.516-8.71-38.516-8.71c0,0-42.387,4.839-86.903-2.323,0,0-11.806,2.71-22.645,2.71s-31.742-3.677-35.226-27.871l-5.613-6.323-.581-4.516-7.226,1.355Z"
       fill="#e8dbae"
       id="path13"
       style="fill:#cbcbcb" />
    <path
       d="M185.355,417.581s-27.484-.29-43.645,3.871c0,0,2.806-14.613,11.226-25.065,0,0,5.226,2.516,20.226,2.516,6,0,12.194,18.677,12.194,18.677Z"
       fill="#c2592b"
       id="path14"
       style="fill:#767676" />
    <path
       d="M338.613,415.581s-32,4-65.548,37.032c0,0-31.484-26.452-71.355-33.677,0,0,7.742-5.29,15.742-5.29s10.452,13.806,27.484,13.806,14.166-9.419,24.18-9.419,24.594,7.484,34.53,7.484,18.968-14.194,24.903-14.194,10.065,4.258,10.065,4.258Z"
       fill="#c2592b"
       id="path15"
       style="fill:#767676" />
    <path
       d="M398.613,418.935s-2.065-12.129-8.903-22.839c0,0-1.548,4.387-20.129,2.581,0,0-2.194,9.29-6.71,14.968,0,0,24.774.903,35.742,5.29Z"
       fill="#c2592b"
       id="path16"
       style="fill:#767676" />
    <path
       d="M153.516,370.355s27.29,26.903,123.097,26.903c74.323,0,108.774-26.903,108.774-26.903,0,0,3.419,5.613,3.419,12.323s-3.871,8.516-9.419,8.516-12-1.29-15.613,1.419c-3.613,2.71-3.613,18.323-13.29,18.323s-10.839-7.871-21.677-7.871-14.968,14.452-27.484,14.452-19.226-7.226-32.258-7.226-12.903,9.419-25.161,9.419-13.677-14.323-26.581-14.323-13.419,6.839-23.355,6.839-6.968-21.806-24-21.806-26.452-3.355-16.452-20.065Z"
       fill="#e8dbae"
       id="path17"
       style="fill:#cbcbcb" />
    <path
       d="M187.258,305.129s-41.161,14.855-41.161,38.065,45.548,46.194,126.581,46.194,121.548-25.935,121.548-45.806-31.871-41.548-79.613-49.419l5.161,17.032s22.452,9.419,22.452,21.032-34.065,24.774-67.355,24.774-76.903-9.806-76.903-24.774c0-10.839,20.129-19.871,20.129-19.871l5.742-17.677s-17.871,3.742-24.839,5.806l2.516,10.71s-1.677,4.581-7.613,4.581c-3.323,0-3.871-2-3.871-2l-2.774-8.645Z"
       fill="#e8dbae"
       id="path18"
       style="fill:#cbcbcb" />
    <path
       d="M168.032,281s-24.645,1.355-24.645-25c0-20.355,19.484-25.581,19.484-25.581l3.742,6.484s6.452,2.871,12.516-2.871l-.71-7.032h10.258s17.226,2.71,17.226,20.581-22.452,33.419-37.871,33.419Z"
       fill="#e8dbae"
       id="path19"
       style="fill:#cbcbcb" />
    <path
       d="M210.177,115.21s-1.79-13.935-6.532-21.048c0,0,1.742-5.661,8.806-5.661s9.387,5.855,9.581,26.71h-11.855Z"
       fill="#e8dbae"
       id="path20"
       style="fill:#cbcbcb" />
    <path
       d="M166.29,107.387h-11.355s-1.806-9.226-1.806-18.516.645-25.806,11.161-25.806,10.516,5.097,10.516,5.097c0,0-8.258,7.226-8.258,16s-.258,23.226-.258,23.226Z"
       fill="#e8dbae"
       id="path21"
       style="fill:#cbcbcb" />
    <path
       d="M96.806,71.71s-10.742-.774-13.935,2.419c0,0-2.71-31.161,26.129-37.161,0,0,7.065,1.742,7.065,9.677s-4.742,9.774-4.742,9.774h-4.452s-10.065.774-10.065,15.29Z"
       fill="#e8dbae"
       id="path22"
       style="fill:#cbcbcb" />
    <path
       d="M52.419,133.387s-6.065-21.548-24.645-33.806c0,0-11.806-2.903-13.355,7.871v2.581s23.161,10.194,26.968,27.806c0,0,6.387,2.774,11.032-4.452Z"
       fill="#e8dbae"
       id="path23"
       style="fill:#cbcbcb" />
    <path
       d="M226.742,197l8.258-60.129s-4.516-13.806-19.097-13.806-17.935,10.065-17.935,10.065l-3.742,76.903s11.097-.903,32.516-13.032Z"
       fill="#c2592b"
       id="path24"
       style="fill:#767676" />
    <path
       d="M162.097,117s-27.097-1.935-16.516-12v-8.258s-9.548,3.097-9.548,6.968,9.935,108.774,9.935,108.774l10.323.645-7.226-15.613,7.355-15.355,14.452,5.419,4.645,25.548,10.323-.645v-108.516s-3.742-7.226-11.742-7.226v6.968s4.645,1.677,4.645,5.161-5.419,8.129-16.645,8.129Z"
       fill="#c2592b"
       id="path25"
       style="fill:#767676" />
    <path
       d="M119.645,88.355s-8.323-10.452-28.065-8.516-21.677,16.645-21.677,16.645l28.065,109.935,40.452,5.419-18.774-123.484Z"
       fill="#c2592b"
       id="path26"
       style="fill:#767676" />
    <path
       d="M30.032,132.871s-5.484,5.806-1.226,14.065,24.774,59.484,24.774,59.484l23.226-5.419,13.806,3.226-23.355-74.194s-1.29-7.613-10.968-8.774l2.609,6.452s4.487,2.581,4.1,5.419-8.181,13.445-21.032,13.935-9.29-10.452-9.29-10.452l-2.645-3.742Z"
       fill="#c2592b"
       id="path27"
       style="fill:#767676" />
    <path
       d="M159.613,222.774s-26.613,2.806-82.742-11.903l-42.387,8.323,51.484,162.774,35.613,17.419,22.839-7.742s-8.516-9.871,3.097-26.903c0,0-9.29-5.226-9.29-22.065s18.774-34.258,46.452-45.677l-3.677-10.839s-6,2.71-13.742,2.71-31.548-4.194-31.548-32.871,23.903-33.226,23.903-33.226Z"
       fill="#e8dbae"
       id="path28"
       style="fill:#cbcbcb" />
    <path
       d="M252.29,184.613l-2.581,82.29s-18.581,8.29-22.968,19c0,0-20.387,3.226-29.419,6.968l-3.742-12.774s20-10.323,20-33.677-20-25.677-20-25.677c0,0,41.161-9.032,58.71-36.129Z"
       fill="#e8dbae"
       id="path29"
       style="fill:#cbcbcb" />
    <path
       d="M266.161,259.065h59.419l-.871,15.677h-21.484s-14.419-10.452-37.065-10.161v-5.516Z"
       fill="#e8dbae"
       id="path30"
       style="fill:#cbcbcb" />
    <polygon
       points="267.032 232.935 326.548 232.935 326.548 240.871 266.645 240.871 267.032 232.935"
       fill="#e8dbae"
       id="polygon30"
       style="fill:#cbcbcb" />
    <polygon
       points="512 337.129 474.484 259.968 477.065 248.097 512 318.161 512 337.129"
       fill="#e8dbae"
       id="polygon31"
       style="fill:#cbcbcb" />
    <polygon
       points="470.484 287.968 512 373.129 512 410.935 465.968 315.968 470.484 287.968"
       fill="#e8dbae"
       id="polygon32"
       style="fill:#cbcbcb" />
    <path
       d="M334.484,512s53.032-10.032,70.258-47.581l3.871-25.742,11.806,3.871-5.613-25.935s26.323-.194,47.613-21.097l7.742-35.806-11.032-8.129,4.452-22.839,48.419,99.677v83.581h-177.516Z"
       fill="#c2592b"
       id="path32"
       style="fill:#767676" />
    <path
       d="M47.129,313.774L0,411.323v100.677h202.742s-48-8.548-67.097-45.968l-3.871-26.581-10.839,2.839,5.935-27.871-6.194,2.839-47.742-23.29-25.806-80.194Z"
       fill="#c2592b"
       id="path33"
       style="fill:#767676" />
    <polygon
       points="36.806 280.935 0 356.613 0 393.968 44.355 302.613 36.806 280.935"
       fill="#e8dbae"
       id="polygon33"
       style="fill:#cbcbcb" />
    <polygon
       points="25.774 248.226 0 302.226 0 321.194 30.032 258.484 25.774 248.226"
       fill="#e8dbae"
       id="polygon34"
       style="fill:#cbcbcb" />
    <path
       d="M438.742,120.613l-.419,8.968s9.484,3.581,9.484,8.226-18.581,8.903-29.129,8.903-33.262-3.784-37.355-13.258c-1.161-3.871,10.452-7.548,10.452-7.548l-.258-8.258s-32.129,6.71-40.645,45.935c16.258,31.419,70.06,27.852,70.06,27.852,0,0,34.198,1.051,49.553-14.174,0,0,4.516-38.452-31.742-56.645ZM423.032,183.774c-49.742.968-63.581-21.194-63.581-21.194,2.71-12.677,14.129-24.871,14.129-24.871,8.516,11.613,24.387,15.968,49.548,15.968s30.29-9.29,30.29-9.29c8.903,10.161,9.097,28.742,9.097,28.742,0,0-11.032,10.645-39.484,10.645Z"
       fill="#e8dbae"
       id="path34"
       style="fill:#cbcbcb" />
    <ellipse
       cx="162.355"
       cy="259.949"
       rx="10.106"
       ry="14.516"
       transform="translate(-46.699 35.831) rotate(-11.021)"
       fill="#c2592b"
       id="ellipse34"
       style="fill:#767676" />
    <polygon
       points="19.581 234.677 0 230.613 0 262.935 4.871 262.935 19.581 234.677"
       fill="#c2592b"
       opacity=".5"
       id="polygon35"
       style="fill:#767676" />
    <path
       d="M20.935,169.516l-20.935-6.581v-41.677l13.839,6.065s-2.839,4.774-2.839,13.161,9.935,29.032,9.935,29.032Z"
       fill="#c2592b"
       opacity=".5"
       id="path35"
       style="fill:#767676" />
    <path
       d="M57.323,83.323L0,32.806V0h42.806l29.613,47.129s-6.774,11.226-5.419,27c0,0-6.194,2.613-9.677,9.194Z"
       fill="#c2592b"
       opacity=".5"
       id="path36"
       style="fill:#767676" />
    <path
       d="M124.484,0l23.613,52.355s9.484-6.968,18.774-5.226l9.29,1.742L169.387,0h-44.903Z"
       fill="#c2592b"
       opacity=".5"
       id="path37"
       style="fill:#767676" />
    <polygon
       points="262.097 115.21 246.871 0 285.839 0 262.097 115.21"
       fill="#c2592b"
       opacity=".5"
       id="polygon37"
       style="fill:#767676" />
    <polygon
       points="318.097 135.452 362.484 0 410.767 0 318.097 135.452"
       fill="#c2592b"
       opacity=".5"
       id="polygon38"
       style="fill:#767676" />
    <polygon
       points="464.677 31.968 496.161 0 512 0 512 57.871 505.581 61.742 476.645 33.581 464.677 31.968"
       fill="#c2592b"
       opacity=".5"
       id="polygon39"
       style="fill:#767676" />
    <path
       d="M512,136.355l-32.742,14.516s4.645,9.968,6.774,32.032l25.968-3.968v-42.581Z"
       fill="#c2592b"
       opacity=".5"
       id="path39"
       style="fill:#767676" />
    <polygon
       points="512 241.903 488.984 242.806 502.484 270.935 512 272.355 512 241.903"
       fill="#c2592b"
       opacity=".5"
       id="polygon40"
       style="fill:#767676" />
  </g>
</svg>
