<?xml version="1.0" encoding="UTF-8"?>
<svg xmlns="http://www.w3.org/2000/svg" width="512" height="512" xmlns:xlink="http://www.w3.org/1999/xlink" viewBox="0 0 512 512">
  <defs>
    <linearGradient id="c" data-name="Dégradé sans nom 5" x1="256" y1="1.903" x2="256" y2="505.139" gradientUnits="userSpaceOnUse">
      <stop offset="0" stop-color="#4a2a13"/>
      <stop offset="1" stop-color="#230e0b"/>
    </linearGradient>
  </defs>
  <g id="a" data-name="Calque 1">
    <image width="512" height="512" xlink:href="1.png"/>
  </g>
  <g id="b" data-name="Calque 2">
    <rect width="512" height="512" fill="url(#c)"/>
  </g>
  <g id="d" data-name="Calque 3">
    <g>
      <path d="M465.968,446.935l-13.677,11.613,6.71,7.097-3.613,7.871-3.484-.258-6.968-7.613-3.355,2.581,8.774,9.677,12.129,1.032,12.774-11.871v-11.484l-9.29-8.645ZM472.548,465.258l-9.742,9.742-3.677-.516c4.387-9.419,13.419-12.129,13.419-12.129v2.903Z" fill="#e8dbae"/>
      <path d="M452.548,396.097l-25.032-24.387-38.71-15.484-36.903-39.742.774-4.903-11.613-13.419c-31.226-3.097-29.936,29.29-29.936,29.29l11.903,13.258h4.839l35.903,39.871,6.968,35.226,25.064,27.871,40.645,20.032,27.064-23.226-10.968-44.387ZM324.677,335.387l-10.742-11.032s-.832-9.58,8.613-17.806l9.968,10.839s-7.161,8.032-7.839,18ZM329.516,335.677s-.484-7.839,7.258-14.516l37.065,39.484s-7.161,5.419-9.387,12.484l-34.936-37.452ZM366.677,377.968s3.194-8.613,8.419-11.419l16.645,16.065s-11.516,11.129-16.548,24.484l-8.516-29.129ZM378.226,412.226s6.452-15.355,20.387-27.484l21.677,23.226s-14.064,14.323-22.451,26.581l-19.613-22.323ZM438.742,456.226l-35.613-17.677,16.774-21.032,26.193,31.484-7.355,7.226ZM448.806,398.097h-2.71l-22.968-22.645,2.323-1.419,23.355,22.452v1.613Z" fill="#e8dbae"/>
    </g>
    <g>
      <path d="M175.52,344.326l-6.906,9.053,5.121,3.491-1.173,5.369-2.195.312-5.351-3.776-1.73,2.055,6.751,4.811,7.659-1.003,6.311-9.09-1.556-7.12-6.931-4.101ZM182.083,354.794l-4.72,7.36-2.35.178c1.444-6.434,6.676-9.338,6.676-9.338l.393,1.8Z" fill="#e8dbae"/>
      <path d="M160.312,314.626l-18.823-11.727-26.097-4.354-28.263-19.638-.184-3.145-9.018-6.746c-19.778,2.311-14.59,22.215-14.59,22.215l9.176,6.607,3-.656,27.661,19.854,9.093,20.894,19.315,13.883,27.913,6.912,13.632-18.066-12.814-26.032ZM72.811,294.315l-8.154-5.384s-1.814-5.826,2.927-12.206l7.648,5.369s-3.351,5.95-2.421,12.221ZM75.85,293.84s-1.362-4.794,2.533-9.983l28.329,19.456s-3.705,4.33-4.128,9.011l-26.733-18.485ZM104.619,315.023s.813-5.772,3.672-8.22l12.496,7.704s-5.632,8.46-6.942,17.421l-9.227-16.905ZM116.421,334.697s1.919-10.394,8.915-19.801l16.586,11.462s-6.779,10.785-10.317,19.521l-15.184-11.182ZM159.9,353.775l-24.474-6.134,7.55-15.312,20.505,15.97-3.581,5.476ZM158.263,316.373l-1.68.367-17.308-10.927,1.248-1.195,17.521,10.755.219,1Z" fill="#e8dbae"/>
    </g>
    <g>
      <path d="M454.972,208.933l-7.229,12.327,6.91,3.571-.646,6.867-2.687.722-7.24-3.891-1.844,2.822,9.141,4.968,9.39-2.413,6.482-12.284-3.02-8.633-9.258-4.056ZM464.738,220.977l-4.762,9.886-2.9.579c.821-8.235,6.899-12.647,6.899-12.647l.763,2.183Z" fill="#e8dbae"/>
      <path d="M431.515,174.242l-25.232-11.751-33.173-1.461-38.194-20.173-.707-3.89-12.259-7.035c-24.289,5.883-14.803,29.892-14.803,29.892l12.435,6.837,3.638-1.272,37.476,20.533,14.501,24.65,26.172,14.362,35.824,4.371,14.239-24.578-19.918-30.485ZM319.419,162.228l-10.977-5.469s-3.145-6.983,1.792-15.651l10.344,5.527s-3.271,7.922-1.16,15.593ZM323.133,161.173s-2.425-5.766,1.639-12.822l38.247,19.936s-3.959,5.957-3.774,11.854l-36.112-18.968ZM362.192,183.194s.136-7.315,3.326-10.799l16.738,7.7s-5.731,11.395-6.002,22.758l-14.062-19.659ZM379.882,205.912s.812-13.24,8.099-26.023l22.404,11.76s-6.807,14.466-9.889,25.887l-20.615-11.624ZM436.947,223.077l-31.422-3.925,7.08-20.223,27.971,16.781-3.629,7.366ZM429.228,176.73l-2.037.713-23.222-10.984,1.373-1.678,23.462,10.737.424,1.213Z" fill="#e8dbae"/>
    </g>
    <path d="M0,27.874c178.989,72.136,247.774,110.056,247.774,110.056l-18.387,9.871,42.387,1.935,17.548-40.516-18.452-35.226.903,26.452C205.886,64.62,93.096,17.561,50.19,0H0s0,27.874,0,27.874Z" fill="#c2592b"/>
    <path d="M0,68.448c39.913,18.167,167.193,79.198,275.289,165.096l4.645-37.935,40.645,76.258-47.226,40.548-93.484-27.774,52.839-4.839S138.982,204.505,0,137.148" fill="#c2592b"/>
    <path d="M0,213.127c11.546,7.548,31.372,20.623,46.742,31.356l1.806-20.645,11.097,29.548-18.065,29.419-32.774-5.935,14.968-5.806S12.75,263.263,0,254.456" fill="#c2592b"/>
    <polygon points="392.082 495.581 338.405 407.839 343.05 481.903 185.631 470.29 347.695 512 416.598 512 352.276 500.226 392.082 495.581" fill="#c2592b"/>
    <polygon points="500.419 421.112 432.806 329.628 484.677 363.951 512 288.854 512 365.072 500.419 421.112" fill="#c2592b"/>
  </g>
</svg>