<?xml version="1.0" encoding="UTF-8" standalone="no"?>
<svg
   width="512"
   height="512"
   viewBox="0 0 512 512"
   version="1.1"
   id="svg26"
   sodipodi:docname="tf2c_achievement_chekhov_shock.svg"
   inkscape:version="1.4.3 (0d15f75, 2025-12-25)"
   xmlns:inkscape="http://www.inkscape.org/namespaces/inkscape"
   xmlns:sodipodi="http://sodipodi.sourceforge.net/DTD/sodipodi-0.dtd"
   xmlns:xlink="http://www.w3.org/1999/xlink"
   xmlns="http://www.w3.org/2000/svg"
   xmlns:svg="http://www.w3.org/2000/svg">
  <sodipodi:namedview
     id="namedview26"
     pagecolor="#ffffff"
     bordercolor="#000000"
     borderopacity="0.25"
     inkscape:showpageshadow="2"
     inkscape:pageopacity="0.0"
     inkscape:pagecheckerboard="0"
     inkscape:deskcolor="#d1d1d1"
     inkscape:zoom="2.2949219"
     inkscape:cx="256"
     inkscape:cy="256"
     inkscape:window-width="2560"
     inkscape:window-height="1377"
     inkscape:window-x="-8"
     inkscape:window-y="534"
     inkscape:window-maximized="1"
     inkscape:current-layer="svg26" />
  <defs
     id="defs2">
    <linearGradient
       id="c"
       data-name="Dégradé sans nom 5"
       x1="256"
       y1="1.903"
       x2="256"
       y2="505.139"
       gradientUnits="userSpaceOnUse">
      <stop
         offset="0"
         stop-color="#4a2a13"
         id="stop1" />
      <stop
         offset="1"
         stop-color="#230e0b"
         id="stop2" />
    </linearGradient>
    <mask
       id="e"
       data-name="mask"
       x="-100.097"
       y="0"
       width="702.968"
       height="552.226"
       maskUnits="userSpaceOnUse">
      <g
         id="g2">
        <rect
           width="512"
           height="512"
           fill="#fff"
           id="rect2"
           style="fill:#ffffff" />
        <polygon
           points="0 466.548 60.161 433.774 68.677 433.774 193.839 340.871 197.194 311.71 160.032 291.065 171.387 216.484 160.806 205.387 183.516 147.323 204.419 112.226 224.548 100.355 257.097 94.419 292.71 103.452 314.097 121.774 351.258 205.387 334.742 221.323 349.71 293.903 314.613 315.581 320.871 350.419 417.065 433 442.613 435.581 489.065 457.258 512 480.226 512 512 0 512 0 466.548"
           id="polygon2" />
      </g>
    </mask>
    <linearGradient
       data-name="Dégradé sans nom 5"
       x1="256"
       y1="1.903"
       x2="256"
       y2="505.139"
       gradientUnits="userSpaceOnUse"
       id="linearGradient3259">
      <stop
         offset="0"
         stop-color="#4a2a13"
         id="stop1-1"
         style="stop-color:#2e2e2e" />
      <stop
         offset="1"
         stop-color="#230e0b"
         id="stop2-1"
         style="stop-color:#171717" />
    </linearGradient>
  </defs>
  <g
     id="a"
     data-name="Calque 1">
    <image
       width="512"
       height="512"
       xlink:href="../../../../Alexander/Documents/GitHub/tf2classified-steam/depots/tf2classic_shared/tf2classic/resource/svgs/achievements/BW/19.png"
       id="image2" />
  </g>
  <g
     id="b"
     data-name="Calque 2">
    <rect
       width="512"
       height="512"
       fill="url(#c)"
       id="rect3"
       style="fill:url(#linearGradient3259)" />
  </g>
  <g
     id="d"
     data-name="Calque 3">
    <polygon
       points="0 292.161 58.226 339 58.226 315.581 0 278.226 0 292.161"
       fill="#c2592b"
       opacity=".5"
       id="polygon3"
       style="fill:#767676" />
    <polygon
       points="72.494 306.079 86.097 200.226 160.032 180.871 181.71 119.323 162.218 91.687 136.419 65.516 175.516 0 58.226 0 131.387 8.226 92.571 70.161 135.645 127.839 49.71 167.323 33.839 55.839 0 108.484 0 149.129 18.355 132.097 18.742 228.355 58.226 212.226 60.935 316.935 72.494 306.079"
       fill="#c2592b"
       opacity=".5"
       id="polygon4"
       style="fill:#767676" />
    <polygon
       points="210.097 0 249.548 76.922 316.675 107.295 372.419 37.645 474.613 129 512 87.968 512 59.839 474.097 93.387 391.908 0 350.649 0 288.806 55.452 261.645 0 210.097 0"
       fill="#c2592b"
       opacity=".5"
       id="polygon5"
       style="fill:#767676" />
    <polygon
       points="367.903 156 415.516 181.645 395.774 225 367.903 222.653 356.677 175.452 367.903 156"
       fill="#c2592b"
       opacity=".5"
       id="polygon6"
       style="fill:#767676" />
    <polygon
       points="442.613 333.774 512 365.516 487.903 204.484 512 216.484 512 170.323 444.548 156 488.29 326.032 417.065 307.452 410.484 337.258 442.613 333.774"
       fill="#c2592b"
       opacity=".5"
       id="polygon7"
       style="fill:#767676" />
    <g
       mask="url(#e)"
       id="g9">
      <g
         id="g8">
        <polygon
           points="-26.377 531.5 -85.387 394.87 1.641 387.803 68.226 370.981 68.226 317.515 120.007 304.104 135.059 253.499 117.84 243.21 122.299 186.208 146.449 176.176 157.586 131.63 173.747 89.564 234.273 50.427 303.218 60.98 346.287 102.99 368.065 176.104 388.876 193.887 397.857 244.57 377.154 256.342 393.417 306.181 441.738 317.883 448.926 371.605 508.306 398.044 592.3 427.503 583.315 542.064 -26.377 531.5"
           fill="#c2592b"
           id="polygon8"
           style="fill:#767676" />
        <path
           d="M236.514,60.887l62.019,9.493,38.912,37.955,20.194,67.794,1.686,5.659,4.489,3.836,15.841,13.537,7.125,40.205-7.472,4.249-14.192,8.07,5.064,15.52,12,36.774,3.461,10.607,10.844,2.626,36.247,8.779,5.54,41.404,1.482,11.074,10.207,4.544,53.903,24,.746.332.77.27,76.348,26.777-7.648,97.511-593.835-10.289-50.922-117.905,72.296-5.871,1.662-.135,1.617-.409,58.226-14.71,15.101-3.815v-53.515l38.821-10.054,10.935-2.832,3.22-10.827,11.226-37.742,4.431-14.897-13.342-7.973-5.224-3.122,3.497-44.713,13.849-5.753,9.291-3.859,2.44-9.76,9.769-39.074,14.774-38.455,54.601-35.305M232.032,39.968l-66.452,42.968-17.548,45.677-10.064,40.258-25.161,10.452-5.419,69.29,15.871,9.484-11.226,37.742-53.806,13.935v53.419L0,377.903l-100.097,8.129,67.097,155.355,625.548,10.839,10.323-131.613-90.871-31.871-53.903-24-7.355-54.968-49.548-12-12-36.774,19.742-11.226-10.839-61.161-21.29-18.194-21.677-72.774-47.226-46.065-75.871-11.613h0Z"
           fill="#e8dbae"
           id="path8"
           style="fill:#cbcbcb" />
      </g>
    </g>
    <polygon
       points="7.323 512 2.484 496.161 7.323 488.806 72.161 461.129 211.903 476.613 228.548 506.806 223.323 512 159.065 512 74.484 494.226 29.194 508.161 22.806 512 7.323 512"
       fill="#e8dbae"
       id="polygon9"
       style="fill:#cbcbcb" />
    <polygon
       points="277.323 512 273.065 506.032 287.774 479.71 420.935 468.871 476.29 477.581 493.71 492.097 489.645 512 481.516 512 461.774 504.097 415.323 495.387 352.419 512 277.323 512"
       fill="#e8dbae"
       id="polygon10"
       style="fill:#cbcbcb" />
    <polygon
       points="244.419 492.29 230.29 461.129 273.065 459.581 258.161 495 244.419 492.29"
       fill="#e8dbae"
       id="polygon11"
       style="fill:#cbcbcb" />
    <polygon
       points="91.71 435.968 136.226 440.226 171.839 413.516 205.903 419.129 202.226 378.29 156.548 389.71 91.71 435.968"
       fill="#e8dbae"
       id="polygon12"
       style="fill:#cbcbcb" />
    <polygon
       points="283.323 441.774 227.387 439.065 227.387 403.839 282.355 403.839 283.323 441.774"
       fill="#e8dbae"
       id="polygon13"
       style="fill:#cbcbcb" />
    <polygon
       points="300.935 419.516 306.935 381.968 343.323 393.387 392.484 438.871 366.355 447.194 331.516 419.323 300.935 419.516"
       fill="#e8dbae"
       id="polygon14"
       style="fill:#cbcbcb" />
    <polygon
       points="227.387 386.032 281.581 386.032 279.065 351.774 228.548 350.419 227.387 386.032"
       fill="#e8dbae"
       id="polygon15"
       style="fill:#cbcbcb" />
    <polygon
       points="228.548 332.032 279.645 339 279.645 327.581 252.742 317.71 228.548 322.161 228.548 332.032"
       fill="#e8dbae"
       id="polygon16"
       style="fill:#cbcbcb" />
    <polygon
       points="188.871 287.323 188.871 212.226 194.677 214.548 215.581 295.839 209.581 297 188.871 287.323"
       fill="#e8dbae"
       id="polygon17"
       style="fill:#cbcbcb" />
    <polygon
       points="226.226 294.097 254.097 289.839 281.581 295.839 286.226 287.129 280.806 262.355 266.871 258.29 239 257.323 212.871 261.194 226.226 294.097"
       fill="#e8dbae"
       id="polygon18"
       style="fill:#cbcbcb" />
    <polygon
       points="303.452 259.065 311.774 223.258 316.226 221.323 320.871 273.968 308.871 258.484 303.452 259.065"
       fill="#e8dbae"
       id="polygon19"
       style="fill:#cbcbcb" />
    <polygon
       points="290.677 260.419 288.742 254.613 281.194 252.871 278.677 250.742 271.129 249.387 272.29 257.323 290.677 260.419"
       fill="#e8dbae"
       id="polygon20"
       style="fill:#cbcbcb" />
    <polygon
       points="268.613 254.613 239.387 253.645 243.258 245.903 251.774 245.903 254 250.258 256 250.258 256 246.484 267.065 247.645 268.613 254.613"
       fill="#e8dbae"
       id="polygon21"
       style="fill:#cbcbcb" />
    <polygon
       points="232.419 254.613 233.387 247.645 227.194 249.387 222.161 254.903 232.419 254.613"
       fill="#e8dbae"
       id="polygon22"
       style="fill:#cbcbcb" />
    <polygon
       points="211.903 257.565 211.661 254.903 221.097 249.726 220.71 251.468 214.468 257.806 211.903 257.565"
       fill="#e8dbae"
       id="polygon23"
       style="fill:#cbcbcb" />
    <polygon
       points="218.629 229.597 222.645 234.532 234.306 233.177 231.452 221.758 218.629 229.597"
       fill="#e8dbae"
       id="polygon24"
       style="fill:#cbcbcb" />
    <polygon
       points="236.435 230.177 236.435 215.323 251.677 215.323 255.452 216.823 257.339 213.919 274.71 219.194 274.71 226.984 259.952 231.387 255.161 219.484 255.21 230.226 236.435 230.177"
       fill="#e8dbae"
       id="polygon25"
       style="fill:#cbcbcb" />
    <polygon
       points="278.581 223.258 278.581 230.177 287.968 238.645 292.71 233.952 278.581 223.258"
       fill="#e8dbae"
       id="polygon26"
       style="fill:#cbcbcb" />
    <path
       d="M328.516,190.161l-11.323-10.452,2.903-8.516-14.323-40.645-18.097-14.806-32.516-7.258-29.419,7.645-22.355,18.484-14.516,38.806,4.742,4.355-11.903,12.871v10.839l14.516,3.677,11.806-7.742,6.484,30.726,21.29-15.532,19.766-1.452,20.589,2.758,21.581,18.242,12.194-28.065,10.936,6.194,11.613-5.613-3.968-14.516ZM212.581,175.452l-14.226-5.129v-6.968l8.613-15.968,23.613-10.839,10.548,5.903,4.258,10.161-5.516,12.968-27.291,9.871ZM237.452,189.774l-2.516-8.032,14.613-16.161,8.129,1.839,11.903,22.839-32.129-.484ZM294.645,175.452l-26.516-9.29-6.484-12.677,3.242-10.355,11.371-6.581,22.839,10.161,9.097,16.839.677,6.774-14.226,5.129Z"
       fill="#e8dbae"
       id="path26"
       style="fill:#cbcbcb" />
  </g>
</svg>
