<?xml version="1.0" encoding="UTF-8" standalone="no"?>
<svg
   width="512"
   height="512"
   viewBox="0 0 512 512"
   version="1.1"
   id="svg6"
   sodipodi:docname="tf2c_achievement_archaeology.svg"
   inkscape:version="1.4.3 (0d15f75, 2025-12-25)"
   xmlns:inkscape="http://www.inkscape.org/namespaces/inkscape"
   xmlns:sodipodi="http://sodipodi.sourceforge.net/DTD/sodipodi-0.dtd"
   xmlns:xlink="http://www.w3.org/1999/xlink"
   xmlns="http://www.w3.org/2000/svg"
   xmlns:svg="http://www.w3.org/2000/svg">
  <sodipodi:namedview
     id="namedview6"
     pagecolor="#ffffff"
     bordercolor="#000000"
     borderopacity="0.25"
     inkscape:showpageshadow="2"
     inkscape:pageopacity="0.0"
     inkscape:pagecheckerboard="0"
     inkscape:deskcolor="#d1d1d1"
     inkscape:zoom="2.2949219"
     inkscape:cx="256"
     inkscape:cy="256"
     inkscape:window-width="2560"
     inkscape:window-height="1377"
     inkscape:window-x="-8"
     inkscape:window-y="534"
     inkscape:window-maximized="1"
     inkscape:current-layer="svg6" />
  <defs
     id="defs2">
    <linearGradient
       id="c"
       data-name="Dégradé sans nom 5"
       x1="256"
       y1="1.903"
       x2="256"
       y2="505.139"
       gradientUnits="userSpaceOnUse">
      <stop
         offset="0"
         stop-color="#4a2a13"
         id="stop1" />
      <stop
         offset="1"
         stop-color="#230e0b"
         id="stop2" />
    </linearGradient>
    <linearGradient
       data-name="Dégradé sans nom 5"
       x1="256"
       y1="1.903"
       x2="256"
       y2="505.139"
       gradientUnits="userSpaceOnUse"
       id="linearGradient9304">
      <stop
         offset="0"
         stop-color="#4a2a13"
         id="stop1-1"
         style="stop-color:#2e2e2e" />
      <stop
         offset="1"
         stop-color="#230e0b"
         id="stop2-1"
         style="stop-color:#171717" />
    </linearGradient>
  </defs>
  <g
     id="a"
     data-name="Calque 1">
    <image
       width="512"
       height="512"
       xlink:href="../../../../Alexander/Documents/GitHub/tf2classified-steam/depots/tf2classic_shared/tf2classic/resource/svgs/achievements/BW/24.png"
       id="image2" />
  </g>
  <g
     id="b"
     data-name="Calque 2">
    <rect
       width="512"
       height="512"
       fill="url(#c)"
       id="rect2"
       style="fill:url(#linearGradient9304)" />
  </g>
  <g
     id="d"
     data-name="Calque 3">
    <polygon
       points="243.094 41.882 205.613 73.818 283.197 73.818 243.094 41.882"
       fill="#c2592b"
       id="polygon2"
       style="fill:#767676" />
    <g
       id="g4">
      <polygon
         points="287.055 88.742 196.147 88.742 77.872 189.516 171.919 188.527 170.775 155.064 298.158 151.318 323.667 117.898 287.055 88.742"
         fill="#c2592b"
         id="polygon3"
         style="fill:#767676" />
      <polygon
         points="422.226 193.774 361.942 145.768 330.634 185.336 331.366 194.729 422.226 193.774"
         fill="#c2592b"
         id="polygon4"
         style="fill:#767676" />
    </g>
    <polygon
       points="325.107 212.742 328.935 261.903 270.097 262.29 270.097 335.839 354.484 335.839 356.806 364.484 390.484 365.258 398.226 476.742 119.903 476.742 115.645 364.484 151.258 364.484 155.129 335.839 233.323 335.839 233.323 262.29 179.903 262.29 178.209 212.742 0 212.742 0 512 512 512 512 212.742 325.107 212.742"
       fill="#c2592b"
       id="polygon5"
       style="fill:#767676" />
    <path
       d="M286.624,449.868l-31.63-26.063-21.88,34.298-18.698-13.451,23.652-35.415-33.034-25.957,15.706-19.762,30.905,25.781,18.759-30.783,15.103,9.869-20.296,32.875,37.749,29.753-16.336,18.854Z"
       fill="#e8dbae"
       id="path5"
       style="fill:#cbcbcb" />
    <path
       d="M469.323,0c-48.516,34.484-102.194,90.935-102.194,90.935l-1.139-.251-1.882-22.614c-.113-1.357-1.305-2.366-2.662-2.253l-15.988,1.33c-1.357.113-2.366,1.305-2.253,2.662l4.517,54.282c.22,2.644,2.366,4.715,5.016,4.84l47.387,2.248c1.36.065,2.515-.986,2.58-2.346l.725-15.29c.065-1.36-.986-2.515-2.346-2.58l-22.949-1.089.349-.877C484.161,8.742,512,9.516,512,9.516V0h-42.677Z"
       fill="#e8dbae"
       id="path6"
       style="fill:#cbcbcb" />
  </g>
</svg>
