<?xml version="1.0" encoding="UTF-8"?>
<svg xmlns="http://www.w3.org/2000/svg" width="512" height="512" xmlns:xlink="http://www.w3.org/1999/xlink" viewBox="0 0 512 512">
  <defs>
    <linearGradient id="c" data-name="Dégradé sans nom 5" x1="256" y1="1.903" x2="256" y2="505.139" gradientUnits="userSpaceOnUse">
      <stop offset="0" stop-color="#4a2a13"/>
      <stop offset="1" stop-color="#230e0b"/>
    </linearGradient>
    <mask id="e" data-name="mask" x="-672.097" y="0" width="702.968" height="552.226" maskUnits="userSpaceOnUse"/>
    <mask id="f" data-name="mask-1" x="-4.742" y="6.677" width="627.613" height="505.323" maskUnits="userSpaceOnUse">
      <g>
        <rect x="59.129" y="6.677" width="563.742" height="505.323" fill="#fff"/>
        <path d="M6.355,201s3.097,60.387,66.065,52.129,76.903-24.258,76.903-24.258c0,0-2.323-21.419,19.355-33.806,0,0-21.29,25.097-11.613,56.065l9.29,31.742-8.323,21.677s-8.71,5.613-6.645,13.871c2.065,8.258,13.548,32.903,15.871,42.065,2.323,9.161,11.097,24.645,29.032,23.226,0,0,5.29-4.903-14.71-18.71,0,0-4.129-31.484-9.677-40.516-5.548-9.032,3.871-23.226,15.613-24.903s29.806-7.097,29.806-7.097c0,0,13.032-9.032,18.71-14.323l.645-17.935-25.935-17.548,31.097,15.484v23.484l-4.774,2.968,3.613,3.226,13.548-18.581,18.839-6.839-17.065,12.129s-19.323,24.903-28.742,46.194c0,0-5.419,11.097-9.935,4l-7.613,8.903,2.581,5.935,12-.645s22.065-22.065,30.71-26.968c8.645-4.903,22.581-8.903,22.581-8.903,0,0,19.742-15.355,29.806-19.355,10.065-4,28-16.903,29.419-19.484,0,0,16.903,4.516,29.677.516,0,0,4.645,3.613,5.806,5.032,1.161,1.419,8.645-3.613,8.645-3.613,0,0,2.065-6.194,1.806-7.226s-23.097-22.065-23.871-22.968-4.387-7.871-12.903-11.613c0,0-5.032-4.129-10.968-12.258s-21.548-9.032-21.548-9.032c0,0-1.677,13.677,18.323,27.871,0,0-7.097,6.839-20.645,6.839s-23.226-14.581-23.226-14.581c0,0-24.516-72.258-60.258-72.258s-52,10.581-52,10.581c0,0-37.935,18.774-49.742,26.71-11.806,7.935-43.935,44.516-74.903,44.516s-38.903-32.516-38.903-32.516c0,0-.839-2.258-3.677-1.29s-2.065,2.065-2.065,2.065Z" stroke="#000" stroke-miterlimit="10" stroke-width="22"/>
      </g>
    </mask>
    <mask id="g" data-name="mask-2" x="110.871" y="37.129" width="521.806" height="429.032" maskUnits="userSpaceOnUse">
      <g>
        <rect x="110.871" y="37.129" width="521.806" height="429.032" fill="#fff"/>
        <g>
          <g>
            <path d="M337.911,81.952c-93.056,0-168.492,75.436-168.492,168.492s75.436,168.492,168.492,168.492,168.492-75.436,168.492-168.492-75.437-168.492-168.492-168.492ZM337.911,394.935c-79.801,0-144.492-64.691-144.492-144.492s64.691-144.492,144.492-144.492,144.492,64.691,144.492,144.492-64.691,144.492-144.492,144.492Z" stroke="#000" stroke-miterlimit="10" stroke-width="16"/>
            <path d="M337.911,182.597c-37.471,0-67.847,30.376-67.847,67.847s30.376,67.847,67.847,67.847,67.847-30.376,67.847-67.847-30.376-67.847-67.847-67.847ZM337.911,304.46c-29.832,0-54.016-24.184-54.016-54.016s24.184-54.016,54.016-54.016,54.016,24.184,54.016,54.016-24.184,54.016-54.016,54.016Z" stroke="#000" stroke-miterlimit="10" stroke-width="16"/>
          </g>
          <rect x="332.355" y="90.468" width="11.113" height="319.952" transform="translate(588.355 -87.468) rotate(90)" stroke="#000" stroke-miterlimit="10" stroke-width="16"/>
          <rect x="332.355" y="90.468" width="11.113" height="319.952" transform="translate(675.823 500.887) rotate(180)" stroke="#000" stroke-miterlimit="10" stroke-width="16"/>
          <rect x="309.726" y="348.871" width="56.371" height="15.484" rx="7.742" ry="7.742" stroke="#000" stroke-miterlimit="10" stroke-width="16"/>
          <rect x="415.895" y="242.702" width="56.371" height="15.484" rx="7.742" ry="7.742" transform="translate(193.637 694.524) rotate(-90)" stroke="#000" stroke-miterlimit="10" stroke-width="16"/>
          <rect x="309.726" y="136.532" width="56.371" height="15.484" rx="7.742" ry="7.742" transform="translate(675.823 288.548) rotate(-180)" stroke="#000" stroke-miterlimit="10" stroke-width="16"/>
          <rect x="203.557" y="242.701" width="56.371" height="15.484" rx="7.742" ry="7.742" transform="translate(482.185 18.701) rotate(90)" stroke="#000" stroke-miterlimit="10" stroke-width="16"/>
        </g>
      </g>
    </mask>
    <mask id="h" data-name="mask-3" x="-32.097" y="-13.968" width="603.871" height="538.839" maskUnits="userSpaceOnUse">
      <g>
        <rect x="-32.097" y="-13.968" width="603.871" height="538.839" fill="#fff"/>
        <polygon points="341.839 242.548 341.839 236.032 348.484 236.032 353.71 241.516 351.194 245.516 341.839 242.548"/>
      </g>
    </mask>
  </defs>
  <g id="a" data-name="Calque 1">
    <image width="512" height="512" xlink:href="20.png"/>
  </g>
  <g id="b" data-name="Calque 2">
    <rect width="512" height="512" fill="url(#c)"/>
  </g>
  <g id="d" data-name="Calque 3">
    <g mask="url(#e)">
      <g>
        <polygon points="-598.377 531.5 -657.387 394.87 -570.359 387.803 -503.774 370.981 -503.774 317.515 -451.993 304.104 -436.941 253.499 -454.16 243.21 -449.701 186.208 -425.551 176.176 -414.414 131.63 -398.253 89.564 -337.727 50.427 -268.782 60.98 -225.713 102.99 -203.935 176.104 -183.124 193.887 -174.143 244.57 -194.846 256.342 -178.583 306.181 -130.262 317.883 -123.074 371.605 -63.694 398.044 20.3 427.503 11.315 542.064 -598.377 531.5" fill="#c2592b"/>
        <path d="M-335.486,60.887l62.019,9.493,38.912,37.955,20.194,67.794,1.686,5.659,4.489,3.836,15.841,13.537,7.125,40.205-7.472,4.249-14.192,8.07,5.064,15.52,12,36.774,3.461,10.607,10.844,2.626,36.247,8.779,5.54,41.404,1.482,11.074,10.207,4.544,53.903,24,.746.332.77.27,76.348,26.777-7.648,97.511-593.835-10.289-50.922-117.905,72.296-5.871,1.662-.135,1.617-.409,58.226-14.71,15.101-3.815v-53.515l38.821-10.054,10.935-2.832,3.22-10.827,11.226-37.742,4.431-14.897-13.342-7.973-5.224-3.122,3.497-44.713,13.849-5.753,9.291-3.859,2.44-9.76,9.769-39.074,14.774-38.455,54.601-35.305M-339.968,39.968l-66.452,42.968-17.548,45.677-10.064,40.258-25.161,10.452-5.419,69.29,15.871,9.484-11.226,37.742-53.806,13.935v53.419l-58.226,14.71-100.097,8.129,67.097,155.355,625.548,10.839,10.323-131.613-90.871-31.871-53.903-24-7.355-54.968-49.548-12-12-36.774,19.742-11.226-10.839-61.161-21.29-18.194-21.677-72.774-47.226-46.065-75.871-11.613h0Z" fill="#e8dbae"/>
      </g>
    </g>
    <path d="M220.032,512l-128-23.774,64-40.774-64,13.677,86.968-71.742s-5.677-2.968-6.581-3.484l-113.29,88.581h34.258l-25.935,24.194,76.645,13.323h75.935Z" fill="#e8dbae" opacity=".5"/>
    <polygon points="100.161 512 52.355 501.968 68.419 483.968 29.129 483 160.742 369.774 155.516 355.065 42.677 446.806 151.258 344.032 145.839 332.613 9.387 456.097 6.258 435.387 0 445.452 0 512 100.161 512" fill="#e8dbae" opacity=".5"/>
    <path d="M46.355,222.871s29.59-24.145-20.71-51.29c-12.194-6.581-25.645-7.548-25.645-7.548v-21.484s35.323,20.645,48.484,8.387C61.645,138.677,0,96.677,0,96.677v-42.194s37.793,31.551,82.935,49.161C118.161,117.387,22.935,30.29,0,11.903L.677,0s34.839,44.806,94.452,93.387c59.613,48.581,27.871-11.032,16.645-23.032-11.226-12-24.774-24.968-24.774-24.968,0,0-3.484-3.032-.71-5.871,2.774-2.839,18.452,14,18.452,14,0,0,3.806,4.258,5.806,2.258s-4.258-9.097-4.258-9.097c0,0-26.387-35.387-35.29-41.032,0,0-2.435.79-1.952,5.048.484,4.258-8.903-6.435-8.903-6.435,0,0-2.516-2.613,6.435-2.177,0,0,1.887-.387.29-2.081h9s56.419,75.968,76.677,69.903c20.258-6.065-9.032-69.903-9.032-69.903h38.516s15.774,30.581,21.677,26.419c5.903-4.161,6.387-5.806,4.065-26.419h8.226s31.161,63.581,59.419,63.581c19.548,0,47.613-63.581,47.613-63.581h11.032s-11.323,24.484,3.871,21c15.194-3.484,36.774-21,36.774-21h34.258s-44.419,37.774-72.419,75.968c0,0-81.742-8.323-139.419,67.161,0,0-49.368,11.377-97.742,53.226-41.37,35.789-53.032,26.516-53.032,26.516Z" fill="#c2592b" opacity=".5"/>
    <path d="M247.645,404.613s75.097,48.516,163.097,8l62.71,99.387h-12.645s-26.839-53.71-62.452-80.806c0,0-15.742,3.097,13.161,44.903l19.871,35.903h-29.29s-3.318-37.096-34.194-44.29c-13.29-3.097-7.871,44.29-7.871,44.29h-69.419s-3.29-18.355-21.387-18.355-15.774,18.355-15.774,18.355h-5.032s7.355-36.548-9.774-36.839-15.194,36.839-15.194,36.839h-17.419l41.613-107.387Z" fill="#c2592b" opacity=".5"/>
    <g mask="url(#f)">
      <g>
        <g mask="url(#g)">
          <path d="M316.806,102.935s27.613,24,32.516,24,15.226,7.484,15.226,7.484l13.419-31.484,43.355,24.516s-24.21-5.677-29.395,3.097c-5.186,8.774-9.766,27.871,17.04,25.806,26.806-2.065,42.855-6.968,42.855-6.968l25.242,38.194-20.129,12.129s-20.645,15.484,9.548,20.387,25.548,15.484,25.548,15.484l-11.613,82.71-14.71,17.936s-42.581-32.258-58.581-15.484,30.452,55.742,30.452,55.742l-17.032,2.065-14.79-14.194s-7.145-5.677-12.565,0,17.032,29.419,17.032,29.419l-147.097-2.581-58.645-58.581-22.903-58.581,4.645-50.081,23.742-61.919,38.71-40.774,50.065-18.323h18.065Z" fill="#c2592b" opacity=".5"/>
        </g>
        <g>
          <g>
            <path d="M337.911,81.952c-93.056,0-168.492,75.436-168.492,168.492s75.436,168.492,168.492,168.492,168.492-75.436,168.492-168.492-75.437-168.492-168.492-168.492ZM337.911,394.935c-79.801,0-144.492-64.691-144.492-144.492s64.691-144.492,144.492-144.492,144.492,64.691,144.492,144.492-64.691,144.492-144.492,144.492Z" fill="#c2592b"/>
            <path d="M337.911,182.597c-37.471,0-67.847,30.376-67.847,67.847s30.376,67.847,67.847,67.847,67.847-30.376,67.847-67.847-30.376-67.847-67.847-67.847ZM337.911,304.46c-29.832,0-54.016-24.184-54.016-54.016s24.184-54.016,54.016-54.016,54.016,24.184,54.016,54.016-24.184,54.016-54.016,54.016Z" fill="#c2592b"/>
          </g>
          <rect x="332.355" y="90.468" width="11.113" height="319.952" transform="translate(588.355 -87.468) rotate(90)" fill="#c2592b"/>
          <rect x="332.355" y="90.468" width="11.113" height="319.952" transform="translate(675.823 500.887) rotate(180)" fill="#c2592b"/>
          <rect x="309.726" y="348.871" width="56.371" height="15.484" rx="7.742" ry="7.742" fill="#c2592b"/>
          <rect x="415.895" y="242.702" width="56.371" height="15.484" rx="7.742" ry="7.742" transform="translate(193.637 694.524) rotate(-90)" fill="#c2592b"/>
          <rect x="309.726" y="136.532" width="56.371" height="15.484" rx="7.742" ry="7.742" transform="translate(675.823 288.548) rotate(-180)" fill="#c2592b"/>
          <rect x="203.557" y="242.701" width="56.371" height="15.484" rx="7.742" ry="7.742" transform="translate(482.185 18.701) rotate(90)" fill="#c2592b"/>
        </g>
      </g>
    </g>
    <g mask="url(#h)">
      <path d="M6.355,201s3.097,60.387,66.065,52.129,76.903-24.258,76.903-24.258c0,0-2.323-21.419,19.355-33.806,0,0-21.29,25.097-11.613,56.065l9.29,31.742-8.323,21.677s-8.71,5.613-6.645,13.871c2.065,8.258,13.548,32.903,15.871,42.065,2.323,9.161,11.097,24.645,29.032,23.226,0,0,5.29-4.903-14.71-18.71,0,0-4.129-31.484-9.677-40.516-5.548-9.032,3.871-23.226,15.613-24.903s29.806-7.097,29.806-7.097c0,0,13.032-9.032,18.71-14.323l.645-17.935-25.935-17.548,31.097,15.484v23.484l-4.774,2.968,3.613,3.226,13.548-18.581,18.839-6.839-17.065,12.129s-19.323,24.903-28.742,46.194c0,0-5.419,11.097-9.935,4l-7.613,8.903,2.581,5.935,12-.645s22.065-22.065,30.71-26.968c8.645-4.903,22.581-8.903,22.581-8.903,0,0,19.742-15.355,29.806-19.355,10.065-4,28-16.903,29.419-19.484,0,0,16.903,4.516,29.677.516,0,0,4.645,3.613,5.806,5.032,1.161,1.419,8.645-3.613,8.645-3.613,0,0,2.065-6.194,1.806-7.226s-23.097-22.065-23.871-22.968-4.387-7.871-12.903-11.613c0,0-5.032-4.129-10.968-12.258s-21.548-9.032-21.548-9.032c0,0-1.677,13.677,18.323,27.871,0,0-7.097,6.839-20.645,6.839s-23.226-14.581-23.226-14.581c0,0-24.516-72.258-60.258-72.258s-52,10.581-52,10.581c0,0-37.935,18.774-49.742,26.71-11.806,7.935-43.935,44.516-74.903,44.516s-38.903-32.516-38.903-32.516c0,0-.839-2.258-3.677-1.29s-2.065,2.065-2.065,2.065Z" fill="#e8dbae"/>
    </g>
    <path d="M446.613,391.645l65.387,64.645v9.871s-46.71-56.903-67.032-73.258l1.645-1.258Z" fill="#c2592b" opacity=".5"/>
    <path d="M491.226,339.194s20.161,9.194,20.774,14.323,0,12.387,0,12.387c0,0-2.774,2.129-7.129,2.129s-16.548-9.484-20.419-17.419l6.774-11.419Z" fill="#c2592b" opacity=".5"/>
    <path d="M474.871,141.484l37.129-13.645v10.065s-25.419,9.29-30.065,11.806l-7.065-8.226Z" fill="#c2592b" opacity=".5"/>
  </g>
</svg>