<?xml version="1.0" encoding="UTF-8" standalone="no"?>
<svg
   width="512"
   height="512"
   viewBox="0 0 512 512"
   version="1.1"
   id="svg10"
   sodipodi:docname="tf2c_achievement_sandvich_mines.svg"
   inkscape:version="1.4.3 (0d15f75, 2025-12-25)"
   xmlns:inkscape="http://www.inkscape.org/namespaces/inkscape"
   xmlns:sodipodi="http://sodipodi.sourceforge.net/DTD/sodipodi-0.dtd"
   xmlns:xlink="http://www.w3.org/1999/xlink"
   xmlns="http://www.w3.org/2000/svg"
   xmlns:svg="http://www.w3.org/2000/svg">
  <sodipodi:namedview
     id="namedview10"
     pagecolor="#ffffff"
     bordercolor="#000000"
     borderopacity="0.25"
     inkscape:showpageshadow="2"
     inkscape:pageopacity="0.0"
     inkscape:pagecheckerboard="0"
     inkscape:deskcolor="#d1d1d1"
     inkscape:zoom="2.2949219"
     inkscape:cx="256"
     inkscape:cy="256"
     inkscape:window-width="2560"
     inkscape:window-height="1377"
     inkscape:window-x="-8"
     inkscape:window-y="534"
     inkscape:window-maximized="1"
     inkscape:current-layer="svg10" />
  <defs
     id="defs2">
    <linearGradient
       id="c"
       data-name="Dégradé sans nom 5"
       x1="256"
       y1="1.903"
       x2="256"
       y2="505.139"
       gradientUnits="userSpaceOnUse">
      <stop
         offset="0"
         stop-color="#4a2a13"
         id="stop1" />
      <stop
         offset="1"
         stop-color="#230e0b"
         id="stop2" />
    </linearGradient>
    <linearGradient
       data-name="Dégradé sans nom 5"
       x1="256"
       y1="1.903"
       x2="256"
       y2="505.139"
       gradientUnits="userSpaceOnUse"
       id="linearGradient1239">
      <stop
         offset="0"
         stop-color="#4a2a13"
         id="stop1-1"
         style="stop-color:#2e2e2e" />
      <stop
         offset="1"
         stop-color="#230e0b"
         id="stop2-1"
         style="stop-color:#171717" />
    </linearGradient>
  </defs>
  <g
     id="a"
     data-name="Calque 1">
    <image
       width="512"
       height="512"
       xlink:href="../../../../Alexander/Documents/GitHub/tf2classified-steam/depots/tf2classic_shared/tf2classic/resource/svgs/achievements/BW/13.png"
       id="image2" />
  </g>
  <g
     id="b"
     data-name="Calque 2">
    <rect
       width="512"
       height="512"
       fill="url(#c)"
       id="rect2"
       style="fill:url(#linearGradient1239)" />
  </g>
  <g
     id="d"
     data-name="Calque 3">
    <path
       d="M230.044,159.183v10h0c9.067,0,18.78.508,28.87,1.51,102.889,10.216,129.856,42.002,129.57,59.173-.35,21.016-7.395,29.728-14.24,35.477l-7.193,6.06,5.596,7.558c4.439,5.996,11.404,18.327,11.194,25.89-.352,12.662-8.753,121.149-9.908,136.019-1.629,3.448-7.15,13.571-16.552,15.494-1.613.33-5.932.884-16.729.884-20.499,0-55.638-1.971-101.62-5.699-56.37-4.571-94.529-9.235-113.564-13.877l-6.942-9.917c-.065-16.961.152-99.905,10.148-142.118.07-.297.133-.596.193-.894.005-.026.01-.052.016-.078,6.416-17.159,14.148-25.053,14.729-25.629l5.599-4.956-3.486-6.89c-4.853-9.591-11.482-26.908-10.298-33.614.092-.519,2.419-12.838,17.858-24.546,17.121-12.984,43.663-19.847,76.757-19.847v-10M230.043,159.183c-83.608,0-102.369,40.793-104.463,52.656-2.323,13.161,11.226,39.871,11.226,39.871,0,0-9.677,8.903-17.419,29.806-.214.577-.297,1.202-.442,1.816-11.53,48.692-10.397,147.604-10.397,147.604l10.839,15.484c26.323,7.355,90.194,12.774,118.839,15.097,22.313,1.809,73.039,5.732,102.428,5.732,8.341,0,14.968-.316,18.733-1.086,17.032-3.484,24.387-22.839,24.387-22.839,0,0,9.677-124.258,10.065-138.194.387-13.935-13.161-32.129-13.161-32.129,9.677-8.129,17.419-19.742,17.807-42.968s-29.419-58.452-138.581-69.29c-10.774-1.07-20.705-1.559-29.86-1.559h0Z"
       fill="#c2592b"
       id="path2"
       style="fill:#767676" />
    <path
       d="M361.839,292.097s-15.484-26.065-1.548-29.677c13.936-3.613,19.355-28.645,19.355-28.645,0,0-28.237-52.645-128-55.484-99.763-2.839-104.397,28.129-104.397,28.129v13.161c-1.688,14.71,9.688,23.742,9.688,23.742l5.935,15.226c-22.452,27.097-31.246,69.161-31.246,69.161l2.085,21.419c-6.452,37.419,4.129,82.581,4.129,82.581,36.903,4.387,96.516,3.613,96.516,3.613,0,0,52.645,9.548,85.161,11.097,32.516,1.548,41.548-13.161,41.548-13.161,13.161-44.129,6.968-93.161,6.968-93.161,7.742-25.032-6.193-48-6.193-48ZM342.484,351.968c-1.032,1.806-13.161,0-13.161,0,0,0,1.548,28.387-3.613,32.774-4.377,3.72-21.746,4.286-26.923,4.372-.819.014-1.484.663-1.52,1.48-.189,4.302-.913,16.704-3.041,18.406-2.2,1.76-46.394,11.768-59.398,14.686-2.311.519-4.723.221-6.841-.838l-2.333-1.167c-.372-.186-.64-.531-.727-.938l-.366-1.699c-.153-.71.269-1.413.969-1.607,3.858-1.066,8.729-2.806,8.729-4.793,0-3.29-1.355-5.806-1.355-5.806l4.355-.484s3.29-13.548-2.032-13.548-10.452,3.387-10.452,3.387v4.645l-4.059.338-4.425-20.564s.516-12.903,3.097-13.935c1.232-.493,2.347-.927,3.175-1.246.387-.149.323-.713-.088-.769-2.744-.371-8.791-1.202-15.547-2.223,3.304-1.649,6.621-3.596,6.621-4.762-.097-8.516-4.935-8.71-5.613-8.806-.677-.097-11.807,3.484-12.968,5.129-.859,1.218-.024,4.815.469,6.606-3.117-.53-6.077-1.069-8.625-1.589-4.661-.952-7.762-5.376-7.071-10.083l7.631-51.932c.283-1.925-1.082-3.701-3.016-3.909-3.848-.414-10.331-1.376-16.934-3.54-1.705-.559-2.675-2.361-2.235-4.1l14.819-58.569c.368-1.454,1.857-2.323,3.305-1.93,5.864,1.592,20.873,5.507,38.36,8.848-.295,5.315-4.347,9.894-4.347,17.038,0,8.323,10.258,12.387,15.677,12.387s10.548-5.613,10.548-13.355c0-5.346-6.319-11.013-10.232-14.01,7.777,1.259,16.847,2.537,24.697,3.181,1.396.114,2.64-.864,2.864-2.246l1.386-8.581c1.049-3.588,4.338-6.053,8.076-6.053h58.725s6.194,1.806,6.968,8.387c.724,6.155,2.125,32.96,2.303,36.404-2.4-2.631-6.208-6.34-8.626-6.34-3.742,0-4,8.903-4,8.903,0,0,2.259,17.766,14.259,19.246l1.999,26.561,3.871,21.161s-2.323,13.677-3.355,15.484Z"
       fill="#e8dbae"
       id="path3"
       style="fill:#cbcbcb" />
    <path
       d="M281,324.387c0,7.91-7.671,14.71-15.581,14.71s-13.645-4.961-13.645-12.871,7.283-15.194,15.194-15.194,14.032,5.445,14.032,13.355Z"
       fill="#e8dbae"
       id="path4"
       style="fill:#cbcbcb" />
    <path
       d="M303.757,350.243c.076-1.977-.58-3.903-1.839-5.429-2.551-3.092-7.594-7.81-13.95-6.685-9.29,1.645-5.903,17.032-5.903,17.032,0,0,5.323,9.387,14.032,8.516,6.299-.63,7.486-8.903,7.66-13.434Z"
       fill="#e8dbae"
       id="path5"
       style="fill:#cbcbcb" />
    <path
       d="M293.583,280.268c.681-.822,1.013-1.875.94-2.965-.146-2.209-.892-5.976-4.144-7.691-4.753-2.506-8.246,5.266-8.246,5.266,0,0-.654,5.867,3.582,8.505,3.064,1.907,6.306-1.231,7.867-3.115Z"
       fill="#e8dbae"
       id="path6"
       style="fill:#cbcbcb" />
    <path
       d="M214.484,270.161s-7.806-8.129-9.871-9.935c-2.065-1.806-4.258,5.419-4,7.419s7.742,9.29,9.871,10,5.648-5.776,4-7.484Z"
       fill="#e8dbae"
       id="path7"
       style="fill:#cbcbcb" />
    <path
       d="M201.065,134.161s12.645-9.032,12.645-19.355-16-29.935-23.226-38.71c-7.226-8.774,6.452-27.871,6.452-27.871,0,0-4.387-5.161-13.161,0-8.774,5.161-19.581,24.774-18.694,32s24.289,19.097,24.289,29.935-12.305,24-12.305,24h24Z"
       fill="#c2592b"
       id="path8"
       style="fill:#767676" />
    <path
       d="M350.489,138.723s12.645-9.032,12.645-19.355-16-29.935-23.226-38.71c-7.226-8.774,6.452-27.871,6.452-27.871,0,0-4.387-5.161-13.161,0-8.774,5.161-19.581,24.774-18.694,32s24.289,19.097,24.289,29.935-12.305,24-12.305,24h24Z"
       fill="#c2592b"
       id="path9"
       style="fill:#767676" />
    <path
       d="M271.717,115.496s14.251-10.268,14.251-22.003-18.032-34.032-26.175-44.006c-8.143-9.975,7.271-31.685,7.271-31.685,0,0-4.944-5.868-14.832,0s-22.067,28.164-21.067,36.379,27.373,21.71,27.373,34.032-13.868,27.284-13.868,27.284h27.047Z"
       fill="#c2592b"
       id="path10"
       style="fill:#767676" />
  </g>
</svg>
