<?xml version="1.0" encoding="UTF-8"?>
<svg xmlns="http://www.w3.org/2000/svg" width="512" height="512" xmlns:xlink="http://www.w3.org/1999/xlink" viewBox="0 0 512 512">
  <defs>
    <linearGradient id="c" data-name="Dégradé sans nom 5" x1="256" y1="1.903" x2="256" y2="505.139" gradientUnits="userSpaceOnUse">
      <stop offset="0" stop-color="#4a2a13"/>
      <stop offset="1" stop-color="#230e0b"/>
    </linearGradient>
    <clipPath id="e">
      <rect width="512" height="512" fill="none"/>
    </clipPath>
    <clipPath id="f">
      <circle cx="256" cy="430.474" r="184.258" fill="none"/>
    </clipPath>
  </defs>
  <g id="a" data-name="Calque 1">
    <image width="512" height="512" xlink:href="28.png"/>
  </g>
  <g id="b" data-name="Calque 2">
    <rect width="512" height="512" fill="url(#c)"/>
  </g>
  <g id="d" data-name="Calque 3">
    <path d="M256,32.613c6.226,0,14.677,6.839,20.355,10.452s6.581,9.161,6.581,9.161l-3.355,9.419,7.226,7.871-3.613,14.065-6.452,2.065.516,10.065c1.419,8.129,18.839,9.29,18.839,9.29l51.484.774,55.742,32.903,24.129,8.387,24.129,18.065,10.839,12.129v24.387c0,9.032,2.581,12.258,2.581,12.258,11.097,2.323,15.613,10.194,15.613,10.194v12.258c-8.387,5.161-.774,31.871-.774,31.871-2.065,4.129-3.613,16.774-3.613,16.774l-10.194,4.516-4.774-6.41c-.516-1.506,1.548-10.365,1.548-10.365-2.065-3.871-3.355-15.097-3.355-15.097l-10.71-10.71s-16.129-13.548-27.355-13.548-25.677,6.452-25.677,6.452c-8.258,12.516-14.71,7.871-15.226,6.839s1.548-15.871,1.548-15.871l10.323-14.581,8.903-9.161v-13.548s-7.355-8.903-7.355-8.903l-8.129-.129-20.774-6.968-10.323-8-9.29,4.516c-24.516,21.677-25.29,39.226-25.29,39.226v15.226c-33.29-12.903-64.097-11.097-64.097-11.097,0,0-30.806-1.806-64.097,11.097v-15.226s-.774-17.548-25.29-39.226l-9.29-4.516-10.323,8-20.774,6.968-8.129.129-7.355,8.903v13.548l8.903,9.161,10.323,14.581s2.065,14.839,1.548,15.871-6.968,5.677-15.226-6.839c0,0-14.452-6.452-25.677-6.452s-27.355,13.548-27.355,13.548l-10.71,10.71s-1.29,11.226-3.355,15.097c0,0,2.065,8.858,1.548,10.365l-4.774,6.41-10.194-4.516s-1.548-12.645-3.613-16.774c0,0,7.613-26.71-.774-31.871v-12.258s4.516-7.871,15.613-10.194c0,0,2.581-3.226,2.581-12.258v-24.387l10.839-12.129,24.129-18.065,24.129-8.387,55.742-32.903,51.484-.774s17.419-1.161,18.839-9.29l.516-10.065-6.452-2.065-3.613-14.065,7.226-7.871-3.355-9.419s.903-5.548,6.581-9.161,14.129-10.452,20.355-10.452Z" fill="#c2592b"/>
    <g clip-path="url(#e)">
      <g>
        <g clip-path="url(#f)">
          <path d="M326.399,146.791v16c20.525,0,43.329,5.583,65.945,16.145,23.842,11.134,47.117,27.692,67.309,47.884,31.927,31.927,53.675,69.903,61.238,106.933,7.073,34.631.714,63.959-17.908,82.581-13.541,13.541-32.99,20.698-56.246,20.698-20.529,0-43.334-5.582-65.952-16.143-23.845-11.134-47.122-27.693-67.315-47.886-31.927-31.927-53.675-69.903-61.238-106.932-7.073-34.631-.714-63.959,17.908-82.581,13.539-13.539,32.989-20.696,56.247-20.698l.011-16M326.386,146.791c-26.651.003-50.392,8.217-67.56,25.385-46.616,46.616-27.216,141.594,43.33,212.141,44.565,44.565,98.867,68.715,144.581,68.715,26.651,0,50.392-8.217,67.56-25.385,46.616-46.616,27.216-141.594-43.33-212.141-44.565-44.565-98.867-68.719-144.581-68.715h0Z" fill="#e8dbae"/>
          <path d="M45.734,435.368c41.469,0,93.696,26.466,136.301,69.071,32.164,32.164,55.096,69.367,64.571,104.756,4.377,16.348,5.577,31.234,3.567,44.244-1.905,12.326-6.676,22.381-14.181,29.886-10.029,10.029-24.355,15.115-42.581,15.115-41.472,0-93.702-26.466-136.306-69.071-32.164-32.164-55.096-69.367-64.571-104.757-4.377-16.348-5.577-31.234-3.567-44.244,1.905-12.326,6.676-22.381,14.181-29.886,10.028-10.028,24.355-15.114,42.584-15.115h.003M45.728,419.368c-21.682.001-40.474,6.381-53.894,19.801-40.747,40.747-16.59,130.968,53.957,201.514,47.312,47.312,103.468,73.757,147.62,73.757,21.682,0,40.474-6.381,53.894-19.801,40.747-40.747,16.59-130.968-53.957-201.514-47.312-47.312-103.468-73.76-147.62-73.757h0Z" fill="#e8dbae"/>
          <path d="M256,275.216c41.471,0,80.46,16.15,109.784,45.474,29.324,29.324,45.474,68.313,45.474,109.784s-16.15,80.46-45.474,109.784c-29.324,29.324-68.313,45.474-109.784,45.474s-80.46-16.15-109.784-45.474c-29.324-29.324-45.474-68.313-45.474-109.784s16.15-80.46,45.474-109.784c29.324-29.324,68.313-45.474,109.784-45.474M256,246.216c-101.763,0-184.258,82.495-184.258,184.258s82.495,184.258,184.258,184.258,184.258-82.495,184.258-184.258-82.495-184.258-184.258-184.258h0Z" fill="#e8dbae"/>
        </g>
        <rect x="73.325" y="420.004" width="365.349" height="20.939" transform="translate(379.372 -54.937) rotate(45)" fill="#e8dbae"/>
        <rect x="73.325" y="420.506" width="365.349" height="19.936" transform="translate(741.41 553.845) rotate(135)" fill="#e8dbae"/>
        <path d="M346.651,305.483c11.415,0,20.086,2.883,25.771,8.568,11.11,11.11,11.478,33.991,1.01,62.776-12.086,33.233-36.642,69.434-69.143,101.935-23.686,23.686-49.733,43.438-75.326,57.122-23.614,12.626-46.203,19.579-63.607,19.579-11.419,0-20.092-2.883-25.777-8.568-11.11-11.11-11.478-33.991-1.01-62.776,12.086-33.233,36.642-69.434,69.143-101.935,23.685-23.685,49.732-43.437,75.326-57.121,23.614-12.625,46.203-19.579,63.61-19.581h.003M346.644,289.483c-40.672.003-98.982,30.123-150.247,81.388-70.546,70.546-101.051,154.42-68.133,187.338,8.997,8.997,21.794,13.255,37.091,13.255,40.672,0,98.982-30.123,150.247-81.388,70.546-70.546,101.051-154.42,68.133-187.338-8.997-8.997-21.794-13.256-37.091-13.255h0Z" fill="#e8dbae"/>
      </g>
    </g>
  </g>
</svg>