<?xml version="1.0" encoding="UTF-8"?>
<svg xmlns="http://www.w3.org/2000/svg" width="512" height="512" xmlns:xlink="http://www.w3.org/1999/xlink" viewBox="0 0 512 512">
  <defs>
    <linearGradient id="c" data-name="Dégradé sans nom 5" x1="256" y1="1.903" x2="256" y2="505.139" gradientUnits="userSpaceOnUse">
      <stop offset="0" stop-color="#4a2a13"/>
      <stop offset="1" stop-color="#230e0b"/>
    </linearGradient>
    <mask id="e" data-name="mask" x="-108.433" y="-671.516" width="756.049" height="725.1" maskUnits="userSpaceOnUse"/>
    <clipPath id="f">
      <rect y="-572" width="512" height="512" fill="none"/>
    </clipPath>
  </defs>
  <g id="a" data-name="Calque 1">
    <image width="512" height="512" xlink:href="16.png"/>
  </g>
  <g id="b" data-name="Calque 2">
    <rect width="512" height="512" fill="url(#c)"/>
  </g>
  <g id="d" data-name="Calque 3">
    <g mask="url(#e)">
      <g opacity=".5">
        <g clip-path="url(#f)">
          <polygon points="256 -316 -54.806 -122.355 66.517 11.71 256 -316" fill="#c2592b"/>
          <polygon points="256 -316 110.811 33.247 234.46 53.584 256 -316" fill="#c2592b"/>
          <polygon points="256 -316 442.166 15.768 472.866 6.631 256 -316" fill="#c2592b"/>
        </g>
      </g>
    </g>
    <path d="M240.355,81.581s-33.871-26.323-52.065-37.161c-12.846-7.653-29.167-15.306-37.65-19.144-3.66-1.656-7.762-2.044-11.669-1.113l-55.003,13.096-19.161.968-12.581,8.516-12.774,17.419-8.129,16.258s-14.323,34.065-11.806,60.387l10.452,11.419,10.258,5.613s9.29-4.645,17.613-4.065l-17.032-10.065-2.129,5.419-4.968-2.581-8.516-9.677.258-13.032s5.677-27.613,18.194-50.452c0,0,12.645-11.484,19.355-14.452v-9.161l-6.323,1.806,10.968-7.226,20.129-1.935s27.097,15.484,52.387,43.355l1.161,15.871,14.71-2.452,14.065-24.129,3.613-15.226-.774,19.355-9.032,21.29-25.677,16,7.742,11.226s8.774,8,25.806,8,33.741-3.584,56.387-14.323c16.872-8,15.871-23.484,15.871-23.484,0,0,1.548-6.065-3.677-16.323Z" fill="#e8dbae"/>
    <path d="M86.473,88.285s-4.635,16.134,2.527,24.94c0,0-7.258,5.226-10.742,11.613l-10.161-4.355-9.095-16.119c-1.878-3.328-1.489-7.484,1-10.383,1.578-1.837,3.444-3.503,5.191-3.788,4.161-.677,11.312-2.005,21.28-1.908Z" fill="#e8dbae"/>
    <path d="M74.387,129.968l-3.131-1.323c-2.435-1.029-4.495-2.78-5.901-5.018l-10.129-16.111s-8.419,8.903-7.548,18.29l12.484,13.355,8.613,3.677s2.419-8.516,5.613-12.871Z" fill="#e8dbae"/>
    <path d="M46.548,128.613s-3.935,7.677-4.71,12.774l16.581,9.742s5.226-5.871,8.258-6.387c0,0-6.87-2.065-8.854-2.774s-11.275-13.355-11.275-13.355Z" fill="#e8dbae"/>
    <path d="M128.484,84.194v11.903l-7.355,7.161s2.419,7.161,2.419,12.677-5.516,8.419-5.516,8.419l2.806,9.968s16.065-12.194,16.065-24v-21.097l-8.419-5.032Z" fill="#e8dbae"/>
    <path d="M106.419,73.452s-10.129,6.839-10.903,10,.516,11.226,6.194,15.161l5.613.581s-4,1.935-4.968,7.677-5.484,28.71-5.484,28.71c0,0-1.496,3.944,4.446,4.645,4.651.548,5.231-4.516,5.231-4.516l5.613-31.29s.452-3.613-1.935-4.516l4.129.194,7.742-6.71v-10.258l-6.645-8.129-9.032-1.548Z" fill="#c2592b"/>
    <path d="M93.258,92.855s-3.871,14.952,5.081,21.629l2.419-11.952-7.5-9.677Z" fill="#c2592b"/>
    <path d="M114.306,103.161l-.968,17.032s4.258-.726,4.694-6.048-2.226-10.742-3.726-10.984Z" fill="#c2592b"/>
    <path d="M97.177,118.887s-6.387,1.403-10.839,8.371-9.242,14.371-9.242,14.371l10.645-.774,8.468-12.823.968-9.145Z" fill="#c2592b"/>
    <path d="M112.29,124.484l-4,15.387s-6.71,4.161-14,13.645c0,0-9.419.839-14.065,3.161,0,0,3.29,6.71,11.097,5.871s12.71-6.194,21.613-20.516c0,0,5.355-11.548-.645-17.548Z" fill="#c2592b"/>
    <path d="M87.645,143.552s-13.226-1.133-25.097,13.448c0,0-1.677,6.774,4.129,6.774,2.257,0,12.194-9.484,12.194-9.484,0,0,2.71-2.258,12.323-2.581,0,0,4.581-2.129,4.581-5.806s-8.129-2.351-8.129-2.351Z" fill="#c2592b"/>
    <path d="M36.548,160.839s-3.29,3.194-.774,8.677l-1.29,7.677s-5.548-2-5.548-10.645c0-4.839,3.097-8.387,3.097-8.387l4.516,2.677Z" fill="#c2592b"/>
    <path d="M38.097,177.194v-7.613s6.387-9.29,15.097-9.29,11.613,7.387,11.613,7.387l-5.419,5.065s-2.194-4.71-5.677-4.71-8.065,3.806-8.065,7.484l-7.548,1.677Z" fill="#c2592b"/>
    <path d="M41.839,190.29s.065,7.484-4.516,7.484-4.581-5.613-4.581-5.613l9.097-1.871Z" fill="#c2592b"/>
    <path d="M49.452,177.71s-10.839.581-22.194,5.871c0,0-3.29,2.194-.71,5.613s4.581,1.097,4.581,1.097c0,0,14.258-4.197,21.548-5.905l-3.226-6.676Z" fill="#c2592b"/>
    <path d="M70.516,180.774s-4.597,5.177-10.742,5.177-11.371.968-13.984,2.274c0,0,1.5,4.645,9.387,4.645s15.871-10.452,15.871-10.452l-.532-1.645Z" fill="#c2592b"/>
    <path d="M53.774,170.484s.839,5.161,4.645,5.161,11.548-9.226,16.645-16.194c0,0,3.548.532,5.484,3.169,0,0-9.151,20.766-20.194,20.766s-6.581-12.903-6.581-12.903Z" fill="#c2592b"/>
    <polygon points="83.129 163.774 81.677 167.226 88.677 165.5 83.129 163.774" fill="#c2592b"/>
    <path d="M115.253,173.568s-41.596,29.002-60.213,45.738c-13.146,11.817-27.51,27.556-34.818,35.787-3.153,3.551-5.03,8.045-5.35,12.783l-4.51,66.684-5.629,21.97,5.2,17.189,15.183,20.531,15.502,14.88s33.43,28.117,64.027,34.51l16.557-7.793,9.934-9.611s-1.985-12.117,1.59-21.308l-17.336,15.697,5.371,4.304-4.656,4.703-13.912,6.219-14.621-4.863s-29.18-16.095-50.571-38.235c0,0-8.528-18.303-9.525-26.918l-10.342-3.214-.179,7.771-4.31-14.916,4.876-23.402s26.984-25.157,67.318-43.93l18.323,4.256,2.392-17.465-22.305-24.341-15.92-9.419,21.577,7.663,20.865,17.664,9.055,34.599,15.388-4.802s12.109-7.099,18.083-26.326,7.789-39.346,3.611-68.677c-3.113-21.852-20.943-26.154-20.943-26.154,0,0-6.303-3.875-19.716-1.574Z" fill="#e8dbae"/>
    <path d="M68.843,349.63s16.587,10.891,29.04,5.896c0,0,3.353,10.026,9.341,16.2l-8.48,9.943-21.386,4.612c-4.416.952-8.971-.944-11.371-4.771-1.521-2.425-2.747-5.117-2.455-7.189.695-4.935,1.705-13.473,5.311-24.691Z" fill="#e8dbae"/>
    <path d="M111.657,377.895l-2.591,3.07c-2.015,2.388-4.715,4.099-7.735,4.902l-21.74,5.783s7.097,12.627,17.999,14.937l19.455-9.408,7.173-8.433s-8.765-5.718-12.561-10.851Z" fill="#e8dbae"/>
    <path d="M100.362,408.846s7.286,7.136,12.768,9.797l16.813-15.3s-4.794-7.959-4.313-11.563c0,0-4.74,7.031-6.238,9.022s-19.031,8.043-19.031,8.043Z" fill="#e8dbae"/>
    <path d="M78.961,300.771l13.437,4.175,5.504,10.815s8.933-.219,15.16,1.716c6.227,1.935,7.569,9.18,7.569,9.18l12.237.328s-8.13-22.412-21.457-26.553l-23.815-7.4-8.634,7.739Z" fill="#e8dbae"/>
    <path d="M59.095,321.911s4.167,13.833,7.464,15.816,12.853,3.355,19.288-1.673l2.624-6.132s.782,5.194,6.924,8.301c6.142,3.107,30.486,16.261,30.486,16.261,0,0,3.928,3.072,6.803-3.39,2.25-5.058-3.263-7.49-3.263-7.49l-33.353-17.312s-3.92-1.777-5.777.601l1.667-4.593-4.859-11.093-11.58-3.598-11.508,4.65-4.916,9.653Z" fill="#c2592b"/>
    <path d="M76.381,343.574s15.52,9.615,26.198,1.852l-12.643-6.924-13.555,5.072Z" fill="#c2592b"/>
    <path d="M95.399,323.429l18.888,7.067s.674-5.061-5.181-7.42c-5.856-2.359-12.907-1.255-13.706.353Z" fill="#c2592b"/>
    <path d="M107.143,348.281s-.656,7.702,5.648,15.172c6.304,7.469,12.981,15.474,12.981,15.474l2.86-12.288-11.505-14.057-9.984-4.3Z" fill="#c2592b"/>
    <path d="M118.762,333.184l15.967,9.913s2.344,9.034,10.493,20.59c0,0-2.357,10.927-1.365,16.986,0,0,8.728-1.361,10.52-10.467,1.792-9.107-2.533-16.52-15.578-31.595,0,0-11.158-10.096-20.036-5.427Z" fill="#c2592b"/>
    <path d="M131.643,367.694s-5.918,14.533,6.377,33.048c0,0,7.059,4.27,9.095-2.285.792-2.548-6.429-17.092-6.429-17.092,0,0-1.599-3.851,1.409-14.816,0,0-.797-5.918-4.948-7.208-4.151-1.29-5.505,8.352-5.505,8.352Z" fill="#c2592b"/>
    <path d="M133.233,431.439s2.451,4.835,9.524,3.918l8.214,4.15s-4.204,5.562-13.963,2.529c-5.462-1.697-8.382-6.438-8.382-6.438l4.607-4.159Z" fill="#c2592b"/>
    <path d="M152.238,435.428l-8.594-2.67s-8.247-10.469-5.192-20.301c3.055-9.832,12.413-10.518,12.413-10.518l3.816,7.894s-6.086.824-7.308,4.757,1.468,10.439,5.619,11.729l-.754,9.109Z" fill="#c2592b"/>
    <path d="M168.335,435.798s8.471,2.552,6.864,7.723c-1.607,5.171-7.943,3.202-7.943,3.202l1.079-10.925Z" fill="#c2592b"/>
    <path d="M156.804,422.791s-3.147,12.439-1.158,27.113c0,0,1.322,4.484,6.087,2.77s2.845-4.786,2.845-4.786c0,0,.263-17.568.893-26.396l-8.667,1.3Z" fill="#c2592b"/>
    <path d="M167.653,400.087s4.232,7.005,2.077,13.942-2.896,13.176-2.338,16.584c0,0,5.77-.064,8.537-8.967,2.767-8.903-6.231-21.582-6.231-21.582l-2.044.024Z" fill="#c2592b"/>
    <path d="M150.163,415.377s6.121.864,7.456-3.433-6.364-16.273-12.441-24.47c0,0,1.845-3.819,5.501-5.079,0,0,20.232,17.615,16.359,30.08-3.873,12.465-16.874,2.902-16.874,2.902Z" fill="#c2592b"/>
    <polygon points="152.886 379.885 156.273 382.735 156.781 374.228 152.886 379.885" fill="#c2592b"/>
    <path d="M495.839,205.065l-1.161-44.129-13.935-26.71c-19.355-23.032-63.484-49.355-63.484-49.355l-8.903-11.806-28.839-13.161-19.871,6.194-13.226,21.484,7.161,11.806c-1.935,6.581-21.29,23.419-21.29,23.419-3.677,3.29-6.774,2.323-6.774,2.323-12.194-3.484-16.452,10.258-16.452,10.258l-1.742,35.032,4.258,8.323s19.806,16.323,30.903,19.29c11.097,2.968,17.161,9.161,17.161,9.161l-56.774,101.045-8.516,23.713c-35.355-2.21-62.452,11.526-62.452,11.526l-30.968,27.07s-27.217,55.839,0,88.774,62.968,36.129,62.968,36.129c101.742-27.226,137.484-78.065,137.484-78.065,0,0,38.129-48.194,49.548-83.032,11.419-34.839,32.71-100.258,32.71-100.258l6-4.839c-.581-9.097,6.194-24.194,6.194-24.194ZM483.258,225.258l-1.935,1.548s-20.516-31.871-66.194-47.742c0,0-29.419-4-49.935,23.742,0,0-2.71-4-7.742-6.323-5.032-2.323-37.677-17.806-40.387-22.839-2.71-5.032-5.161-5.161-1.935-34.71,0,0,5.032-.387,9.935-5.935,0,0,7.097-.516,9.935-2.71s21.757-19.17,25.935-29.806c1.281-3.262-2.968-6.839-2.968-6.839l8.129-15.097s9.419-11.742,12.258-11.871c2.839-.129,10.452,3.742,10.452,3.742l15.613,8.258,7.742,10.839,42.968,28.903,19.484,19.871s13.032,18.839,14.065,25.29c1.032,6.452,1.419,39.226,1.419,39.226,0,0-6.452,17.935-6.839,22.452Z" fill="#e8dbae"/>
    <path d="M420.935,154.548s31.742,6.968,52.774,25.935c0,0,2.581-13.935-2.452-24.774s-29.419-23.484-29.419-23.484l-24.903-6.323s.516,17.032,4,28.645Z" fill="#e8dbae"/>
    <polygon points="308.774 112.935 300.645 107.613 305.871 95.71 321.161 75.484 328.806 80.419 324.645 92.71 308.774 112.935" fill="#c2592b"/>
    <path d="M314.726,116.226l12.339-3.29,9.29-17.226,1.645-14.226s-10.452-3.484-8.032-8.323,9.29-3.387,9.29-3.387c0,0,6.871,1.258,5.032,10.065s-4.548,17.806-4.548,17.806l-9.677,19.065-15.339,2.032v-2.516Z" fill="#c2592b"/>
    <path d="M317.258,74.29v-12s4.774-20.581,14-20.323,16.323,7.806,16.323,7.806h-11.161l-7.613,8.774-.903,11.484s-1.935,1.677-4.323,1.677-4.387-1.613-6.323,2.581Z" fill="#c2592b"/>
    <path d="M337.71,52.484l-3.935,7.677,2.452,2.71s21.032,1.806,44.258-6.065c0,0,4.516-4,1.677-8.129s-6.452-2.71-6.452-2.71c0,0-18.839,6.516-38,6.516Z" fill="#c2592b"/>
    <path d="M358.032,44.677s4.516-8.258,15.677-8.258,34.323,15.871,38.387,23.484,1.355,13.806,1.355,13.806c0,0-3.663-4.258-11.606-6.387,0,0-3.297-7.928-14.975-12.932v-7.649s-3.548-5.806-13.161-5.806-15.677,3.742-15.677,3.742Z" fill="#c2592b"/>
    <path d="M419.129,63.581s18.065,8.516,23.613,18.839c0,0-6.452-5.29-15.548-5.29-3.935,0-7.613.968-7.613.968l-2.258-1.29s3.871-4.065,1.806-13.226Z" fill="#c2592b"/>
    <path d="M422.097,84.484s9.387-7.161,30.677,10.839,20.613,16.548,19.839,24.581c0,0-22.554-24.173-50.516-35.419Z" fill="#c2592b"/>
    <path d="M465.839,100.355s7.839,4.548,9,6.387,1.548,8.419,1.258,10.065c0,0,11.032,10.355,12.29,15.871s0,7.742,0,7.742c0,0,5.806,9.387,6.774,11.806,0,0,6.774-6.677,6.29-14.903s-6.194-17.806-19.452-30.968l-9.106-6.387-7.055.387Z" fill="#c2592b"/>
    <path d="M501.476,150.871l-4.218,3.742s1.032,12.387,1.032,29.613l3.742-5.935-.556-27.419Z" fill="#c2592b"/>
    <polygon points="282.742 128.613 177.71 213.903 284.806 204.355 289.71 291.065 339.258 214.161 306.484 233.258 302.613 180.774 257.452 179.129 282.742 128.613" fill="#c2592b"/>
  </g>
</svg>