<?xml version="1.0" encoding="UTF-8"?>
<svg xmlns="http://www.w3.org/2000/svg" width="512" height="512" xmlns:xlink="http://www.w3.org/1999/xlink" viewBox="0 0 512 512">
  <defs>
    <linearGradient id="c" data-name="Dégradé sans nom 5" x1="256" y1="1.903" x2="256" y2="505.139" gradientUnits="userSpaceOnUse">
      <stop offset="0" stop-color="#4a2a13"/>
      <stop offset="1" stop-color="#230e0b"/>
    </linearGradient>
  </defs>
  <g id="a" data-name="Calque 1">
    <image width="512" height="512" xlink:href="9.png"/>
  </g>
  <g id="b" data-name="Calque 2">
    <rect width="512" height="512" fill="url(#c)"/>
  </g>
  <g id="d" data-name="Calque 3">
    <path d="M448.419,265c-41.419,0-66-23.677-66-23.677-23.71,20.71-48.387,22.065-48.387,22.065l-3.29,32.903-8.129,111.677-33.097,16.452h-19.355l-28.452-18.194,33.097-131.419,2.516-18.806c-10.194-3.065-24.774-14.677-24.774-14.677,0,0-23.742,24.124-61.936,24.124-43.742,0-67.355-24.124-67.355-24.124C57.839,292.806,0,245.871,0,245.871v266.129h512V241.323s-22.161,23.677-63.581,23.677ZM177.839,480.548l-36.387-1.548-47.419-43.935-16.452-73.355,14.903-23.032,18-4.065,73.161,86.323-1.935,10.258,22.258,28.452-26.129,20.903Z" fill="#c2592b"/>
    <polygon points="92.419 351.323 146.226 428.355 145.065 441.645 165.581 471.323 146.742 471.323 105.452 431.323 85.065 366.161 92.419 351.323" fill="#e8dbae"/>
    <polygon points="154.226 431.065 169 423.839 170.161 437.839 188.742 459.774 174.742 468.613 154.226 441.774 154.226 431.065" fill="#e8dbae"/>
    <polygon points="151.065 424.548 104.484 345.968 105.839 345.065 166.935 417.516 151.065 424.548" fill="#e8dbae"/>
    <polygon points="270.742 416.097 252.161 406.806 284.097 279.452 299.387 186.548 310.419 183.839 300.161 294.742 270.742 416.097" fill="#e8dbae"/>
    <polygon points="285.839 416.097 305.581 308.29 320.484 186.742 335.774 196.613 325.323 256.806 310.806 405.645 285.839 416.097" fill="#e8dbae"/>
    <polygon points="340.323 191.677 325.323 180.548 313.323 176.968 291.839 179.484 273.452 168.935 314.387 166.129 364.032 190.129 340.323 191.677" fill="#e8dbae"/>
    <polygon points="371 183.839 323.194 163.613 310.419 161.871 269.871 161.871 274.419 136.71 291.258 132.548 328.516 134.968 375.065 161.194 371 183.839" fill="#e8dbae"/>
    <path d="M361.806,55.226c-3.29-11.129-18.677-20.71-18.677-20.71l-12.774-2.323-16.355,6.29-11.516,19.935-2.032,24.097,4.064,23.419,9.871,20.032h15.581l10.452,6.581,18.387-13.742,8.419-33.968s-2.129-18.484-5.419-29.613ZM347.387,75.258l.097,19.548-5.903,8.613,7.839,8.226-12.774-1.742-9.484-9.581-5.613-17.323,2.613-25.452,6.29-8.323h7.742l12.387,8.226-10.548-.29,7.355,18.097Z" fill="#e8dbae"/>
    <polygon points="135.71 364.377 139.645 356.484 171.774 333.516 213.323 322.161 262.75 322.679 259.907 333.968 206.742 329.645 175.774 347.194 145.994 376.512 135.71 364.377" fill="#e8dbae"/>
    <path d="M328.502,327.061l37.208,11.487,99.548,65.161,3.29,21.097-36.968,38.516-41.613,30.774-79.548,13.161-1.742,4.742h-27.387l4.548-6.677-10.839-9.871-24.968-8.516-36,25.065h-109.548l-21.194-14.129-6.097-17.323,2.419-6.871,26.87-27.077,8.635,8.001-25.151,24.786-.774,8.129,28.548,12.29,79.452,1.742,37.935-26.419,4.065-8.323-20.516-23.613-28.056-.608-8.912-11.392,1.935-10.258-15.752-18.585,6.558-13.35,13.742-14.903,19.065-8.71,45.904-4.637-3.399,13.497-57.602,12.14-1.839,12,37.742,28.161,46.065,27.774,36.29-.387,36.581-7.065,35.419-24.581,5.419-6.194.387-10.065-63.177-31.533,1.283-17.632,58.7,29.81,20.032,15.677-1.355,23.613-48,33.968-40.161,9.097-44.419,4.355s8.323,14.226,34.645,18.097l16.742.194,51.097-6.581,40.548-20.419,33.581-34.839,3.774-17.226-4.258-6.677-86.806-60.097-32.943-5.125.994-13.653Z" fill="#e8dbae"/>
    <polygon points="89.286 413.904 70.613 416.097 26.871 450.742 12.935 473.774 15.258 512 52.419 512 27.258 496.806 27.065 475.323 42.355 449.968 80.677 428.29 92.571 428.551 89.286 413.904" fill="#e8dbae"/>
    <polygon points="244.698 394.36 230.355 403.323 235.516 417.129 265.452 433.516 296.29 434.935 311.387 430.806 332.161 413 332.161 403.968 323.207 399.807 322.613 407.968 289.516 424.419 270.161 424.419 241.71 406.226 244.698 394.36" fill="#e8dbae"/>
    <polygon points="130.241 468.613 126.613 470.29 127.774 480.548 138.355 485.258 179.516 488.484 213.581 462.419 211.774 457.258 199.23 450.032 196.173 449.681 203.968 459.645 177.839 480.548 141.452 479 130.241 468.613" fill="#e8dbae"/>
    <path d="M0,201.452s16.806,32.516,57.452,32.516,57.677-25.742,65.806-44.903c0,0,14.71,44.903,66,44.903s62.903-44.903,62.903-44.903c0,0,9.677,23.226,29.129,35.226l-2.419,18.871s-6.677-1.355-26.129-19.355c0,0-23.29,28.548-63.161,28.548s-52.645-17.184-66.452-28.774c0,0-21.419,28.774-65.419,28.774-37.806,0-57.71-22.452-57.71-22.452v-28.452Z" fill="#e8dbae"/>
    <path d="M339.452,230.871s30.581-8.323,43.548-41.806c0,0,15.097,45.097,67.161,45.097s61.839-45.871,61.839-45.871v37.161s-26.419,26.903-63.774,26.903-51.415-16.817-65.419-28.645c0,0-21.678,23.032-46.742,27.097l3.387-19.935Z" fill="#e8dbae"/>
  </g>
</svg>