<?xml version="1.0" encoding="UTF-8"?>
<svg xmlns="http://www.w3.org/2000/svg" version="1.1" xmlns:xlink="http://www.w3.org/1999/xlink" viewBox="0 0 512 512">
  <!-- Generator: Adobe Illustrator 30.1.0, SVG Export Plug-In . SVG Version: 2.1.1 Build 136)  -->
  <defs>
    <linearGradient id="Dégradé_sans_nom_5" data-name="Dégradé sans nom 5" x1="256" y1="1.9" x2="256" y2="505.1" gradientUnits="userSpaceOnUse">
      <stop offset="0" stop-color="#4a2a13"/>
      <stop offset="1" stop-color="#230e0b"/>
    </linearGradient>
    <mask id="mask" x="-47.7" y="-14.2" width="574.5" height="550.1" maskUnits="userSpaceOnUse">
      <g>
        <rect x="-47.7" y="-14.2" width="574.5" height="535.4" fill="#fff"/>
        <g>
          <g>
            <path d="M279,340.3c-2.1,0-4.1-.6-6-1.8l-36.9-24.1-36.2-21.6c-4.8-2.8-6.7-8.8-4.4-13.8l13.3-30.5c1.4-3.3,4.4-5.7,7.9-6.4.7-.1,1.4-.2,2.2-.2,2.8,0,5.6,1.1,7.6,3.1l6.6,6.4c2,2,3.2,4.6,3.4,7.4l.3,6.7c7.2,1.2,16.7,3.5,23.3,7.6,7.1,4.5,13.6,9.1,19.6,17.7l6.9-3.5c1.6-.8,3.3-1.2,5-1.2s2.7.3,4,.8l8.8,3.4c3.2,1.2,5.6,3.9,6.6,7.2s.3,6.8-1.7,9.6l-21.3,28.8c-2.1,2.9-5.5,4.5-8.8,4.5Z" fill="#9d9d9c"/>
            <path d="M218.9,252.9l6.6,6.4.7,15.9s18.8,1.4,28,7.2c9.2,5.8,15.1,10.5,21.2,23l16.2-8.3,8.8,3.4-21.3,28.8-37.1-24.2-36.3-21.7,13.3-30.5M218.9,230.9c-1.4,0-2.9.1-4.3.4-7.1,1.4-13,6.2-15.9,12.8l-13.3,30.5c-4.4,10.1-.6,22,8.9,27.7l36,21.5,36.7,24c3.7,2.4,7.9,3.6,12,3.6,6.8,0,13.4-3.1,17.7-8.9l21.3-28.8c4.1-5.5,5.4-12.6,3.5-19.2-1.9-6.6-6.7-11.9-13.1-14.4l-8.8-3.4c-2.6-1-5.3-1.5-8-1.5-3.1,0-6.1.6-8.9,1.9-5.4-5.7-11-9.6-16.7-13.2-5.5-3.5-12.3-5.8-18.6-7.4-.7-4.9-3-9.5-6.6-12.9l-6.6-6.4c-4.1-4-9.6-6.1-15.2-6.1h0Z" fill="#9d9d9c"/>
          </g>
          <g>
            <path d="M306.6,305.2c-1.6,0-3.2-.4-4.7-1.1l-14.3-6.8c-.5-.2-1-.5-1.5-.8-1.4.8-2.9,1.3-4.5,1.4-.3,0-.6,0-.9,0-3.4,0-6.7-1.6-8.8-4.4-2-2.6-8.7-10.2-15.9-13.8-7.2-3.5-17.4-4.4-20.7-4.4-3.5,0-6.8-1.7-8.9-4.5-2.1-2.8-2.7-6.5-1.6-9.8.3-1.1.7-2.2.9-3.4l-11.7-4.7c-5.2-2.1-8-7.7-6.5-13.1l3.7-13.2c1.2-4.2,4.7-7.3,9-7.9.8-.3,6-2.8,10.7-15.5,7.7-21.1,30.8-36.5,54.9-36.5s18.3,2.2,26.7,6.5c15.6,7.9,27,19.6,32.9,33.6,5.8,13.7,6,29,.5,43.1-5.5,14.1-10.9,22.3-15.2,26.9l1.2,8.1c.7,4.6-1.6,9.1-5.7,11.3l-14.4,7.7c-1.6.9-3.4,1.3-5.2,1.3Z" fill="#9d9d9c"/>
            <path d="M285.7,177.6c7.1,0,14.5,1.6,21.7,5.3,27.6,14,37.2,40,28.2,63-9,23-16.7,26.6-16.7,26.6l2.1,14.1-14.4,7.7-14.3-6.8s-2.2-6.9,6.5-6.9c1.5,0,3.2.2,5.4.7,0,0-1.3-1.6-3.2-2.6-1.3-.6-2.7-.9-4.3-.9-6.1,0-13.5,4.4-16,9.2,0,0-8.6-11.5-19.8-17-11.1-5.5-25.3-5.5-25.6-5.5h0s6.9-21.5-.9-23.4c0,0,2.5,5.7-.4,8.1l-15.8-6.4,3.7-13.2s11.4-.7,19.4-22.6c5.9-16.2,24.3-29.3,44.6-29.3M285.7,155.6c-14.2,0-28,4.3-40,12.3-11.8,7.9-20.8,19.1-25.3,31.4-2,5.5-3.9,8.1-4.8,9.1-7.2,2.1-13,7.8-15.1,15.3l-3.7,13.2c-3,10.8,2.6,22.1,13,26.3l3.4,1.4c0,4.6,1.4,9.1,4.2,12.9,4.1,5.7,10.7,9,17.8,9,3.7,0,11.3.9,15.9,3.2,4.5,2.3,9.8,7.6,12,10.5,4.2,5.6,10.7,8.8,17.6,8.8s1.2,0,1.8,0c1,0,2-.2,3-.4l11.7,5.6c3,1.4,6.2,2.1,9.4,2.1s7.1-.9,10.3-2.6l14.4-7.7c8.2-4.4,12.8-13.4,11.4-22.7l-.5-3.3c4.5-5.9,9.2-14.3,13.8-26.2,13.6-34.8-2.4-72-38.7-90.5-10-5.1-20.6-7.7-31.7-7.7h0Z" fill="#9d9d9c"/>
          </g>
        </g>
        <g>
          <g>
            <path d="M445.3,427.3c-1.4,0-2.8-.2-4.3-.7l-37.9-12.6-36.7-10.6c-6.5-1.9-10.6-8.3-9.6-15l4.6-29.8c.7-4.4,3.4-8.1,7.4-10.1,1.9-.9,3.9-1.4,5.9-1.4s4.5.6,6.6,1.7l7.3,4.1c3,1.7,5.3,4.5,6.3,7.8l1,3.1c2-.1,4-.2,6.1-.2,5.8,0,10.6.6,14.6,1.9,6.9,2.2,13.3,4.5,20.1,9.8l3-2.7c2.5-2.2,5.7-3.5,9-3.5s1,0,1.6,0l8.5,1c4.2.5,7.9,2.9,10,6.5,2.2,3.6,2.5,8,.9,11.9l-12.1,30.2c-2.1,5.3-7.2,8.5-12.5,8.5Z" fill="#9d9d9c"/>
            <path d="M374.9,360.7l7.3,4.1,4.3,13.8s7.7-1.4,15.7-1.4,7.6.3,10.6,1.3c9.4,2.9,15.7,5.7,23.9,15.3l12.3-11,8.5,1-12.1,30.2-38.1-12.7-36.9-10.7,4.6-29.8M374.9,333.7c-4.1,0-8.1.9-11.9,2.7-7.9,3.9-13.5,11.4-14.8,20.1l-4.6,29.8c-2.1,13.4,6.1,26.3,19.2,30.1l36.4,10.5,37.6,12.5c2.8.9,5.7,1.4,8.5,1.4,10.8,0,20.9-6.5,25.1-17l12.1-30.2c3.1-7.8,2.4-16.6-1.9-23.8-4.3-7.2-11.7-12-20.1-13l-8.5-1c-1-.1-2.1-.2-3.1-.2-4.4,0-8.8,1.1-12.7,3.2-5.3-2.8-10.4-4.6-15.4-6.2-4.7-1.5-9.9-2.3-15.9-2.5-2.4-3.7-5.7-6.8-9.6-9l-7.3-4.1c-4.1-2.3-8.6-3.4-13.1-3.4h0Z" fill="#9d9d9c"/>
          </g>
          <g>
            <path d="M461.4,388.2c-.7,0-1.4,0-2.1-.2l-14.1-2.7c-.3,0-.6-.1-.8-.2-1,.9-2.2,1.5-3.5,2-1.3.4-2.6.7-3.9.7-2.6,0-5.1-.8-7.1-2.5-2.3-1.8-9.7-6.7-16.5-8.1-1.8-.4-3.9-.6-6.2-.6-6.5,0-12.2,1.5-12.3,1.5-1,.3-2,.4-2.9.4-2.6,0-5.2-.9-7.3-2.6-2.9-2.3-4.4-5.9-4.2-9.5,0-.6,0-1.2,0-1.8l-10.1-1.3c-5.8-.7-10.1-5.7-10.1-11.6l.2-12.4c0-4.5,2.7-8.5,6.8-10.3.7-.6,4-3.9,5-14.9,1.1-12.1,7.4-24.1,17.3-33.1,10.4-9.5,23.7-14.7,37.4-14.7s7.9.4,11.8,1.3c31.8,6.9,51.7,32.1,48.3,61.3-1.5,13.3-4.3,21.7-7,27l2.7,6.2c1.9,4.5.8,9.7-2.8,13l-10.9,10.1c-2.1,2-4.9,3.1-7.8,3.1Z" fill="#9d9d9c"/>
            <path d="M427.1,277.8c3,0,6.2.3,9.4,1,27.5,5.9,41.9,26.5,39.3,48.7-2.5,22.2-8.5,27.2-8.5,27.2l5.1,11.9-10.9,10.1-14.1-2.7s-4.8-7.6,9-8.2c0,0-1.5-1.1-3.4-1.5-.5,0-1-.1-1.5-.1-6,0-13.1,6.5-14.4,12.1,0,0-10.2-8.1-21.3-10.3-2.8-.6-5.7-.8-8.5-.8-8.2,0-15.2,1.9-15.2,1.9,0,0,1.1-20.3-6.1-20.3s0,0,0,0c0,0,3.5,4.4,1.5,7.2l-15.3-1.9.2-12.4s9.8-3.2,11.8-24.4c1.7-18.7,20-37.4,43.2-37.4M427.1,254.8c-16.6,0-32.6,6.3-45.2,17.7-11.9,10.9-19.6,25.7-21,40.5-.4,3.9-1.1,6.1-1.5,7.3-6.3,4.1-10.3,11.2-10.4,18.9l-.2,12.4c-.1,11.7,8.5,21.6,20.1,23.1l1.3.2c1.4,3.9,3.8,7.4,7.1,10.1,4.1,3.3,9.2,5.1,14.3,5.1s4.1-.3,6.1-.8c.6-.1,4.8-1.1,9.4-1.1s3.2.2,3.9.3c4.3.9,10.1,4.7,11.7,5.9,4.1,3.3,9.2,5,14.3,5s5.2-.4,7.7-1.3c.6-.2,1.2-.4,1.7-.7l10.7,2c1.4.3,2.8.4,4.3.4,5.7,0,11.3-2.2,15.6-6.1l10.9-10.1c7.1-6.6,9.3-17,5.5-25.9l-.7-1.6c2.5-6.4,4.6-14.8,5.8-25.8,2-17-2.7-33.8-13.1-47.2-10.4-13.4-25.7-22.6-44.2-26.6-4.7-1-9.5-1.5-14.2-1.5h0Z" fill="#9d9d9c"/>
          </g>
        </g>
        <g>
          <g>
            <path d="M122.5,273.4c-.8,0-1.7,0-2.5-.3l-42.9-10.1-41.3-8.1c-5.4-1.1-9.2-6-8.9-11.5l2.2-33.2c.2-3.6,2.2-6.8,5.3-8.7,1.7-1,3.7-1.6,5.7-1.6s3.1.3,4.5,1l8.4,3.7c2.6,1.1,4.6,3.2,5.7,5.9l2.5,6.2c4.6-.8,10.2-1.6,15.5-1.6s6.3.3,8.9.9c8.2,1.8,15.9,3.9,24.5,10.1l5.3-5.6c2.1-2.2,5-3.5,8-3.5s.2,0,.3,0l9.4.3c3.4,0,6.6,1.8,8.6,4.6s2.6,6.3,1.6,9.6l-10.3,34.3c-1.4,4.7-5.8,7.8-10.5,7.8Z" fill="#9d9d9c"/>
            <path d="M40,210.9l8.4,3.7,6.1,14.7s12-3.3,22.2-3.3,4.6.2,6.6.6c10.6,2.3,17.8,4.8,27.7,14.5l12.4-13.3,9.4.3-10.3,34.3-43.1-10.2-41.5-8.1,2.2-33.2M40,188.9c-3.9,0-7.9,1.1-11.4,3.2-6.2,3.7-10.1,10.2-10.6,17.4l-2.2,33.2c-.7,11,6.9,20.9,17.7,23l41.1,8,42.7,10.1c1.7.4,3.4.6,5.1.6,9.5,0,18.2-6.2,21.1-15.7l10.3-34.3c2-6.6.8-13.7-3.2-19.2-4-5.6-10.4-8.9-17.2-9.1l-9.4-.3c-.2,0-.4,0-.6,0-5.7,0-11.1,2.2-15.2,6.1-7-3.6-13.6-5.3-20.2-6.8-3.4-.8-7.1-1.1-11.3-1.1s-5.9.2-8.7.5c-2.3-4.4-6-7.9-10.6-10l-8.4-3.7c-2.9-1.3-5.9-1.9-9-1.9h0Z" fill="#9d9d9c"/>
          </g>
          <g>
            <path d="M109.7,233c-2.1,0-4.2-.6-6-1.8-2.8-1.8-11.7-6.7-19.6-7.6-1.1-.1-2.2-.2-3.5-.2-8.7,0-17.4,3.1-17.5,3.1-1.2.4-2.5.6-3.7.6-2.2,0-4.3-.6-6.2-1.9-2.9-2-4.7-5.2-4.8-8.7,0-1.1-.1-2.3-.3-3.5l-12.7-.5c-5.6-.2-10.1-4.6-10.6-10.2l-1-13.7c-.3-4.4,2-8.5,5.8-10.5.6-.6,4.7-4.7,4.8-18.2.1-26.7,24.4-56.4,59-56.4s5,.2,7.6.5c17.3,2.2,32,9.3,42.4,20.5,10.1,10.9,15.5,25.3,15.1,40.4-.4,15.2-2.7,24.7-5.2,30.5l3.9,7.2c2.2,4.1,1.6,9.1-1.5,12.6l-11,12.1c-2.1,2.3-5.1,3.6-8.2,3.6s-.7,0-1.1,0l-15.7-1.5c-.6,0-1.1-.2-1.7-.3-1,1.2-2.3,2.2-3.8,2.8-1.5.7-3,1-4.6,1Z" fill="#9d9d9c"/>
            <path d="M93.5,114.6c2,0,4.1.1,6.2.4,30.7,3.9,48.5,25,47.9,49.7-.6,24.6-6.7,30.7-6.7,30.7l6.7,12.5-11,12.1-15.7-1.5s-6.1-7.8,9-9.9c0,0-1.7-1.1-3.9-1.3-.3,0-.6,0-.9,0-6.8,0-14.5,8.2-15.4,14.8,0,0-12-7.9-24.4-9.3-1.6-.2-3.2-.3-4.7-.3-10.9,0-21.2,3.7-21.2,3.7,0,0-.7-21.7-8.3-21.7s-.3,0-.5,0c0,0,4.3,4.5,2.3,7.7l-17-.6-1-13.7s10.5-4.5,10.6-27.9c.1-21.8,20.4-45.4,48-45.4M93.5,92.6c-18.8,0-36.5,7.5-50,21.1-12.7,12.8-20,29.6-20,46.2,0,5.9-1,8.9-1.5,10.2-6.1,4.4-9.6,11.8-9.1,19.5l1,13.7c.8,11.2,9.9,19.9,21.1,20.3h3.6c1.5,4.5,4.4,8.3,8.4,10.9,3.7,2.5,7.9,3.7,12.2,3.7s5.1-.4,7.6-1.4c2-.7,8.3-2.4,13.8-2.4s1.6,0,2.2.1c5.5.6,12.8,4.5,14.8,5.8,3.6,2.4,7.8,3.6,12.1,3.6s6.2-.7,9.2-2c.9-.4,1.7-.8,2.5-1.3l13.1,1.3c.7,0,1.4.1,2.2.1,6.2,0,12.1-2.6,16.3-7.2l11-12.1c6.2-6.9,7.5-17,3.1-25.2l-1.6-2.9c2.2-7.1,3.8-16.6,4.2-29.3,1-37.3-26.6-67-67.1-72.1-3-.4-6-.6-8.9-.6h0Z" fill="#9d9d9c"/>
          </g>
        </g>
        <circle cx="41.2" cy="287.8" r="44.5" fill="#9d9d9c"/>
        <circle cx="64.7" cy="101.2" r="25.3" fill="#9d9d9c"/>
        <circle cx="176.5" cy="260.6" r="13.4" fill="#9d9d9c"/>
        <circle cx="196.5" cy="284.9" r="21.9" fill="#9d9d9c"/>
        <circle cx="296.5" cy="375.8" r="24.2" fill="#9d9d9c"/>
        <circle cx="259.6" cy="377" r="24.2" fill="#9d9d9c"/>
        <circle cx="396.6" cy="188.9" r="24.2" fill="#9d9d9c"/>
        <circle cx="452" cy="492" r="43" fill="#9d9d9c"/>
        <circle cx="402" cy="492.9" r="43" fill="#9d9d9c"/>
        <circle cx="393.8" cy="423.9" r="9.5" fill="#9d9d9c"/>
        <circle cx="164.7" cy="303.2" r="9.8" fill="#9d9d9c"/>
        <circle cx="102.8" cy="67.4" r="14.5" fill="#9d9d9c"/>
        <g>
          <g>
            <g>
              <path d="M123.4,270.7c-.3,0-.5,0-.8,0l-43-10.2-41.5-8.1c-1.7-.3-2.9-1.9-2.8-3.7l2.2-33.2c0-1.1.7-2.2,1.7-2.8.6-.3,1.2-.5,1.8-.5s1,.1,1.4.3l8.4,3.7c.8.4,1.5,1,1.8,1.9l4.9,11.9c4.3-1,12.6-2.7,20.1-2.7s5.2.2,7.3.7c9.5,2.1,17.1,4.3,26.8,12.9l10-10.7c.7-.7,1.6-1.1,2.6-1.1s9.5.3,9.5.3c1.1,0,2.1.6,2.7,1.4.6.9.8,2,.5,3.1l-10.3,34.3c-.5,1.5-1.8,2.5-3.3,2.5Z" fill="#fff"/>
              <path d="M40.9,215.7l8.4,3.7,6.1,14.7s12-3.3,22.2-3.3,4.6.2,6.6.6c10.6,2.3,17.8,4.8,27.7,14.5l12.4-13.3,9.4.3-10.3,34.3-43.1-10.2-41.5-8.1,2.2-33.2M40.9,208.7c-1.3,0-2.5.3-3.6,1-2,1.2-3.2,3.2-3.4,5.5l-2.2,33.2c-.2,3.5,2.2,6.7,5.6,7.3l41.4,8.1,43,10.2c.5.1,1.1.2,1.6.2,3,0,5.8-2,6.7-5l10.3-34.3c.6-2.1.2-4.3-1-6.1-1.3-1.8-3.3-2.8-5.5-2.9l-9.4-.3c0,0-.1,0-.2,0-1.9,0-3.8.8-5.1,2.2l-7.7,8.3c-9.1-7.4-16.9-9.6-25.8-11.5-2.3-.5-5.1-.8-8.1-.8-6.4,0-13.2,1.1-18,2.1l-3.8-9.2c-.7-1.7-2-3-3.6-3.7l-8.4-3.7c-.9-.4-1.9-.6-2.9-.6h0Z"/>
            </g>
            <g>
              <path d="M110.6,230.3c-.7,0-1.3-.2-1.9-.6-.2-.1-11.5-7.4-22.9-8.7-1.4-.2-2.8-.2-4.3-.2-10.1,0-19.9,3.5-20,3.5-.4.1-.8.2-1.2.2-.7,0-1.4-.2-2-.6-.9-.6-1.5-1.7-1.5-2.8-.1-4.2-.7-7.9-1.4-10.9-.5.2-1,.4-1.6.4s-17.2-.6-17.2-.6c-1.8,0-3.2-1.5-3.4-3.2l-1-13.7c-.1-1.5.7-2.9,2.1-3.5,0,0,8.4-4.4,8.5-24.7.1-23.1,21.3-48.9,51.5-48.9s4.4.1,6.6.4c31.2,3.9,51.7,25.3,50.9,53.2-.5,18.4-4,27.2-6.1,30.8l5.7,10.6c.7,1.3.5,2.9-.5,4l-11,12.1c-.7.7-1.6,1.2-2.6,1.2s-.2,0-.3,0l-15.7-1.5c-1,0-1.8-.6-2.4-1.3-.2-.3-1.5-2-1.8-4.4-1.6,2-2.8,4.3-3,6.2-.2,1.2-.9,2.2-2,2.7-.5.2-1,.3-1.5.3ZM88,201.1c2.9,0,5.8.8,8.3,2.3l5,3-8.2-13.5-13,9.2,5.4-.8c.8-.1,1.7-.2,2.5-.2Z" fill="#fff"/>
              <path d="M94.4,119.4c2,0,4.1.1,6.2.4,30.7,3.9,48.5,25,47.9,49.7-.6,24.6-6.7,30.7-6.7,30.7l6.7,12.5-11,12.1-15.7-1.5s-6.1-7.8,9-9.9c0,0-1.7-1.1-3.9-1.3-.3,0-.6,0-.9,0-6.8,0-14.5,8.2-15.4,14.8,0,0-12-7.9-24.4-9.3-1.6-.2-3.2-.3-4.7-.3-10.9,0-21.2,3.7-21.2,3.7,0,0-.7-21.7-8.3-21.7s-.3,0-.5,0c0,0,4.3,4.5,2.3,7.7l-17-.6-1-13.7s10.5-4.5,10.6-27.9c.1-21.8,20.4-45.4,48-45.4M78.6,205.9c.2,0,.4,0,.5,0l6.9-1.1c.6-.1,1.3-.2,2-.2,2.3,0,4.5.6,6.5,1.8l6.5,3.9c.5.3,1.1.5,1.6.5,2.2,0,4-2.5,2.6-4.7l-10.3-16.9c-.3-.4-.7-.6-1.1-.6-.3,0-.5,0-.8.2l-16.2,11.5c-2.5,1.8-1.2,5.7,1.8,5.7M94.4,112.4c-32.2,0-54.9,27.6-55,52.4,0,16.1-5.6,20.8-6.5,21.5-3,1-4.3,3.7-4,6.9l1,13.7c.3,3.5,3.2,6.3,6.7,6.5l16,.6c.4,2.3.6,4.9.7,7.2,0,2.2,1.2,4.3,3.1,5.6,1.2.8,2.5,1.2,3.9,1.2s1.6-.1,2.4-.4c0,0,9.4-3.3,18.8-3.3s2.7,0,3.9.2c10.5,1.2,21.2,8.1,21.4,8.2,1.2.8,2.5,1.1,3.8,1.1s2-.2,2.9-.6c1.9-.9,3.2-2.5,3.8-4.4,1.1.8,2.3,1.4,3.7,1.5l15.7,1.5c.2,0,.5,0,.7,0,2,0,3.9-.8,5.2-2.3l11-12.1c2-2.2,2.4-5.4,1-8l-4.8-9c2.4-4.9,5.2-14.2,5.6-30.8.4-14.1-4.6-27.4-14-37.6-9.8-10.5-23.6-17.2-40-19.2-2.4-.3-4.7-.4-7.1-.4h0ZM92.1,198h0c0,0,0,0,0,0,0,0,0,0-.1,0h0Z"/>
            </g>
          </g>
          <path d="M103.7,233.9s0,0,.1,0c0,0,0,0,0,0-.1,0-.2-.1-.1-.1Z" fill="#fff"/>
        </g>
        <g>
          <g>
            <path d="M282.2,334.6c-.7,0-1.3-.2-1.9-.6l-37-24.2-36.3-21.7c-1.5-.9-2.1-2.8-1.4-4.4l13.3-30.5c.5-1,1.4-1.8,2.5-2,.2,0,.5,0,.7,0,.9,0,1.8.3,2.4,1l6.6,6.4c.6.6,1,1.5,1.1,2.4l.6,12.9c5.9.7,19,2.7,26.5,7.4,8.2,5.2,14.7,9.9,20.8,21.2l13-6.7c.5-.3,1-.4,1.6-.4s.9,0,1.3.2l8.8,3.4c1,.4,1.8,1.2,2.1,2.3.3,1,0,2.2-.6,3.1l-21.3,28.8c-.7.9-1.7,1.4-2.8,1.4Z" fill="#fff"/>
            <path d="M222.1,254.7l6.6,6.4.7,15.9s18.8,1.4,28,7.2c9.2,5.8,15.1,10.5,21.2,23l16.2-8.3,8.8,3.4-21.3,28.8-37.1-24.2-36.3-21.7,13.3-30.5M222.1,247.7c-.5,0-.9,0-1.4.1-2.2.4-4.1,2-5,4.1l-13.3,30.5c-1.4,3.2-.2,7,2.8,8.8l36.2,21.7,37,24.1c1.2.8,2.5,1.1,3.8,1.1,2.1,0,4.3-1,5.6-2.8l21.3-28.8c1.3-1.8,1.7-4,1.1-6.1-.6-2.1-2.1-3.8-4.2-4.6l-8.8-3.4c-.8-.3-1.7-.5-2.6-.5-1.1,0-2.2.3-3.2.8l-10.1,5.2c-6.1-10-12.7-14.7-20.4-19.6-7.1-4.5-18.1-6.6-25-7.6l-.4-9.9c0-1.8-.8-3.5-2.1-4.7l-6.6-6.4c-1.3-1.3-3.1-2-4.9-2h0Z"/>
          </g>
          <g>
            <path d="M309.9,299.7c-.5,0-1-.1-1.5-.3l-14.3-6.8c-.9-.4-1.5-1.2-1.8-2.1-.1-.3-.7-2.4-.2-4.8-2.2,1.3-4,3-4.9,4.8-.6,1.1-1.6,1.8-2.8,1.9,0,0-.2,0-.3,0-1.1,0-2.1-.5-2.8-1.4,0-.1-8.3-10.9-18.5-16-10.3-5.1-23.9-5.2-24-5.2-1.1,0-2.2-.5-2.8-1.4-.7-.9-.8-2.1-.5-3.1,1-3,1.9-7.1,2.4-10.7-.1,0-.3,0-.4,0-.4,0-.9,0-1.3-.3l-15.8-6.4c-1.7-.7-2.5-2.5-2.1-4.2l3.7-13.2c.4-1.4,1.7-2.5,3.2-2.6,0,0,9.3-1.3,16.3-20.3,6.7-18.3,26.8-31.6,47.8-31.6s15.9,1.9,23.3,5.7c28,14.3,40,41.3,29.9,67.4-6.7,17.1-12.9,24.2-16.2,26.9l1.8,11.9c.2,1.5-.5,2.9-1.8,3.6l-14.4,7.7c-.5.3-1.1.4-1.6.4ZM269,256.4c3.7.7,7.1,2.7,9.4,5.7l3.7,4.6-3.1-15.5-15.3,4.2,5.3,1Z" fill="#fff"/>
            <path d="M289.1,179.6c7.1,0,14.5,1.6,21.7,5.3,27.6,14.1,37.2,40,28.2,63-9,23-16.7,26.6-16.7,26.6l2.1,14.1-14.4,7.7-14.3-6.8s-2.2-6.9,6.5-6.9c1.5,0,3.2.2,5.4.7,0,0-1.3-1.6-3.2-2.6-1.3-.6-2.7-.9-4.3-.9-6.1,0-13.5,4.4-16,9.2,0,0-8.6-11.5-19.8-17-11.1-5.5-25.4-5.5-25.6-5.5h0s6.9-21.5-.9-23.4c0,0,2.5,5.7-.4,8.1l-15.8-6.4,3.7-13.2s11.4-.7,19.4-22.6c5.9-16.2,24.3-29.3,44.6-29.3M282.9,271.3c1.8,0,3.5-1.6,3.1-3.7l-3.9-19.4c-.1-.6-.7-1.1-1.3-1.1-.1,0-.2,0-.4,0l-19.1,5.3c-3.2.9-3,5.5.2,6.1l6.9,1.3c2.9.6,5.5,2.1,7.4,4.4l4.8,5.9c.7.8,1.5,1.2,2.4,1.2M289.1,172.6c-22.4,0-43.9,14.2-51.1,33.9-3.6,9.7-7.6,14.3-10.4,16.4-1.3,1-2.3,1.4-2.8,1.6,0,0,0,0,0,0-3,.2-5.5,2.2-6.3,5.1l-3.7,13.2c-1,3.4.8,7,4.1,8.4l14.9,6c-.4,2.3-1,4.8-1.8,7-.7,2.1-.3,4.5,1,6.3,1.3,1.8,3.4,2.9,5.7,2.9.1,0,13,0,22.5,4.8,9.5,4.7,17.2,14.8,17.3,14.9,1.3,1.8,3.4,2.8,5.6,2.8s.4,0,.6,0c2-.2,3.9-1.2,5.1-2.8.7,1.1,1.7,2.1,3,2.7l14.3,6.8c1,.5,2,.7,3,.7s2.3-.3,3.3-.8l14.4-7.7c2.6-1.4,4.1-4.3,3.6-7.2l-1.5-10.1c3.9-3.8,9.7-11.6,15.7-27,5.1-13.1,4.9-27.4-.5-40.1-5.6-13.2-16.4-24.1-31.1-31.6-7.9-4-16.2-6-24.9-6h0ZM276.3,255.6h0s0,0,0,0c0,0,0,0-.1,0h0Z"/>
          </g>
        </g>
        <g>
          <g>
            <path d="M448.3,417.9c-.4,0-.7,0-1.1-.2l-38.2-12.7-36.9-10.7c-1.7-.5-2.8-2.2-2.5-3.9l4.7-29.9c.2-1.1.9-2.1,1.9-2.6.5-.2,1-.4,1.5-.4s1.2.1,1.7.4l7.3,4.1c.8.4,1.4,1.2,1.6,2l3.4,10.9c3.1-.4,8.1-1,13.2-1s8.7.5,11.7,1.4c8.4,2.6,15.1,5.3,23.2,13.7l9.7-8.7c.6-.6,1.5-.9,2.3-.9s.3,0,.4,0l8.5,1c1.1.1,2,.8,2.6,1.7.6.9.6,2.1.2,3.1l-12.1,30.3c-.5,1.4-1.9,2.2-3.2,2.2Z" fill="#fff"/>
            <path d="M377.8,361.1l7.3,4.1,4.3,13.8s7.7-1.4,15.6-1.4c3.8,0,7.6.3,10.7,1.3,9.4,3,15.7,5.8,24,15.3l12.3-11,8.5,1-12.1,30.3-38.2-12.7-37-10.7,4.7-29.9M377.8,354.1c-1,0-2.1.2-3.1.7-2.1,1-3.5,2.9-3.9,5.2l-4.7,29.9c-.5,3.5,1.6,6.8,5,7.8l36.9,10.7,38.1,12.7c.7.2,1.5.4,2.2.4,2.8,0,5.4-1.7,6.5-4.4l12.1-30.3c.8-2,.6-4.3-.5-6.2-1.1-1.9-3-3.1-5.2-3.4l-8.5-1c-.3,0-.5,0-.8,0-1.7,0-3.4.6-4.7,1.8l-7.2,6.5c-7.6-7.2-14.4-9.8-22.3-12.3-3.4-1.1-7.7-1.6-12.8-1.6-3.9,0-7.7.3-10.7.6l-2.5-8.1c-.5-1.7-1.7-3.2-3.3-4l-7.3-4.1c-1.1-.6-2.2-.9-3.4-.9h0Z"/>
          </g>
          <g>
            <path d="M464.5,380.7c-.2,0-.4,0-.7,0l-14.1-2.7c-.9-.2-1.8-.7-2.3-1.6-.2-.2-1-1.7-1.3-3.6-1.3,1.5-2.3,3.2-2.7,4.7-.3,1.2-1.1,2.1-2.2,2.5-.4.1-.8.2-1.2.2-.8,0-1.5-.3-2.2-.8,0,0-9.7-7.6-19.9-9.7-2.3-.5-5-.7-7.9-.7-7.6,0-14.3,1.7-14.3,1.7-.3,0-.6.1-.9.1-.8,0-1.6-.3-2.2-.8-.9-.7-1.3-1.8-1.3-2.9.2-3.5,0-6.8-.3-9.6-.3,0-.6.1-.9.1s-.3,0-.4,0l-15.4-2c-1.8-.2-3.1-1.7-3.1-3.5l.2-12.5c0-1.6.9-2.9,2.4-3.3h0s7.7-3.3,9.5-21.4c1.9-19.6,21.1-40.6,46.8-40.6s6.8.4,10.2,1.1c28.1,6.1,45,27.3,42.1,52.7-1.9,16.4-5.7,24.1-8,27.4l4.2,9.9c.6,1.4.2,2.9-.8,3.9l-10.9,10.1c-.7.6-1.5.9-2.4.9ZM420.4,351.3c3.2,0,6.2,1,8.8,2.9l3.3,2.4-5.6-11.5-11.1,6.4,3.6-.2c.3,0,.7,0,1,0Z" fill="#fff"/>
            <path d="M430.1,278c3.1,0,6.2.3,9.4,1,27.5,6,41.9,26.6,39.3,48.9-2.6,22.3-8.6,27.3-8.6,27.3l5.1,11.9-10.9,10.1-14.1-2.7s-4.9-7.6,9-8.2c0,0-1.5-1.1-3.4-1.5-.5,0-1-.1-1.5-.1-6,0-13.2,6.5-14.4,12.2,0,0-10.2-8.1-21.3-10.4-2.8-.6-5.8-.8-8.6-.8-8.2,0-15.2,1.9-15.2,1.9,0,0,1.1-20.4-6.1-20.4s0,0,0,0c0,0,3.5,4.4,1.5,7.2l-15.4-2,.2-12.5s9.8-3.2,11.8-24.4c1.8-18.7,20.1-37.4,43.3-37.4M413,355.3c0,0,.1,0,.2,0l6.4-.4c.3,0,.5,0,.8,0,2.4,0,4.8.8,6.8,2.2l5.5,4.1c.5.4,1.1.6,1.7.6,1.9,0,3.5-2,2.5-4.1l-7.9-16.2c-.2-.4-.6-.7-1.1-.7-.2,0-.4,0-.6.2l-15.6,9.1c-2.5,1.5-1.4,5.3,1.4,5.3M430.1,271c-12.6,0-24.8,4.8-34.4,13.5-9,8.2-14.8,19.3-15.9,30.2-1.4,14.8-6.9,18.2-7.4,18.5-2.6,1-4.4,3.6-4.5,6.4l-.2,12.5c0,3.6,2.6,6.6,6.1,7l14,1.8c.1,2,.1,4.1,0,6-.1,2.2.8,4.4,2.6,5.8,1.3,1,2.8,1.6,4.4,1.6s1.2,0,1.8-.2c0,0,6.3-1.6,13.4-1.6s5,.2,7.2.7c9.3,1.9,18.3,9,18.4,9,1.3,1,2.8,1.5,4.3,1.5s1.6-.1,2.3-.4c1.6-.6,3-1.7,3.8-3.2.8.6,1.8,1.1,2.9,1.3l14.1,2.7c.4,0,.9.1,1.3.1,1.7,0,3.4-.7,4.7-1.9l10.9-10.1c2.2-2,2.9-5.2,1.7-7.9l-3.5-8.2c2.6-4.4,5.8-12.7,7.5-27.4,1.5-12.9-2-25.5-9.8-35.6-8.1-10.4-20.2-17.7-35-20.9-3.6-.8-7.3-1.2-10.9-1.2h0Z"/>
          </g>
        </g>
        <path d="M77.5,158c-11.7,0-24.4,7.4-24.4,21s4.1,9.3,7.8,9.3,5.5-1.1,5.5-1.1l23-14.1s.9-1.1.7-5.5c0,0-.8-9.7-12.6-9.7h0Z"/>
        <path d="M110.9,164c-6.1,0-9,4.8-9,4.8-2.1,3.9-1.8,5.3-1.8,5.3l14.4,22.8s3.9,4.3,8.2,4.3,5.2-1.4,7.4-5.9c6-12.3-2.1-24.5-12.6-29.6-2.5-1.2-4.7-1.7-6.6-1.7h0Z"/>
        <path d="M268.8,210.7c-8.6,0-17,4-20.3,13.2-4.2,11.8,7.4,12.3,9.4,12.3s.3,0,.3,0l26.4-5.5s1.2-.7,2.5-4.9c0,0,2.5-9.4-8.6-13.4-3.1-1.1-6.4-1.7-9.8-1.7h0Z"/>
        <path d="M304.4,228.6c-3.9,0-6.5,2.1-6.5,2.1-3.3,2.9-3.4,4.3-3.4,4.3l5.8,26.3s2.9,7.2,8.4,7.2,4.2-.9,6.8-3.4c9.8-9.5,6.3-23.7-1.9-32.2-3.3-3.4-6.6-4.5-9.2-4.5h0Z"/>
        <path d="M416.6,311.4c-10,0-20.5,5.7-21.5,17.2-.7,7.7,3.8,9.1,7.4,9.1s4-.6,4-.6l22-10.9s.9-.9,1.1-4.9c0,0,0-8.8-10.6-9.8-.8,0-1.5-.1-2.3-.1h0Z"/>
        <path d="M447.8,319.5c-4.9,0-7.6,3.7-7.6,3.7-2.2,3.3-2,4.6-2,4.6l11.2,21.8s3.4,4.6,7.6,4.6,4.4-1.2,6.6-4.8c6.4-10.6,0-22.3-9.1-27.9-2.6-1.5-4.8-2.1-6.7-2.1h0Z"/>
        <path d="M291.6,284.8l-5.1,6s-6.5.7-6.8.4-1.7-4.1-2.7-5.7c-1-1.7-5.7-5.3-7.3-5.9s-6.4-3.2-9-4-5.8-1.7-5.7-.5c.1,1.2,0,2.3,2.5,4.5s5.5,4.6,7,6.3c1.5,1.7,5,4.1,7,6,2,1.9,7.3,6.8,7.7,7s4.9,1.4,6,.6,2.8-1.4,4.2-2.2,1.9-1.5,3-3c1-1.5,1.5-1.3,1.4-2.8-.1-1.5-2.1-6.6-2.1-6.6Z"/>
        <path d="M78.1,220.1s-5.7,2.6-5.1,3.5c.6.9,4.8,2.6,7.9,3.5s12.8,2.7,15.5,4,10.1,3.7,10.8,4.4,4.7,3.2,5.4,3,3-.9,4.3-2.1c1.3-1.2,2.3-5.7,2.9-6.5s.7-3.2.4-4.2-1.3-1.4-1.7-1.4-1.2-.2-1.9.6-2.4,3.8-3.8,4.2-3.9.2-4.4-.1-1.7-1.5-4-2.6c-2.3-1-8.9-2.7-9.6-3.1s-6.9-2.2-8-2.4-2.6-.5-4.4-.8-4.2,0-4.2,0Z"/>
        <path d="M437.9,381.6s-.7,4.2-.5,4.3,1.3,1.4,2.7,1,3.2-1,3.8-1.8-2.7-4.1-2.7-4.1c0,0-1.7-.3-1.8-.3s-1.5.8-1.5.8Z"/>
      </g>
    </mask>
    <clipPath id="clippath">
      <path d="M459.9,512S327.7,333.9,0,270.9V0h128l-20.4,20.6,133.4,26.8-97.3,21.7s245.9,75.5,368.2,223.1v219.8h-52.1Z" fill="#c2592b"/>
    </clipPath>
  </defs>
  <g id="Calque_2">
    <rect width="512" height="512" fill="url(#Dégradé_sans_nom_5)"/>
  </g>
  <g id="Calque_3">
    <g mask="url(#mask)">
      <g>
        <path d="M459.9,512S327.7,333.9,0,270.9V0h128l-20.4,20.6,133.4,26.8-97.3,21.7s245.9,75.5,368.2,223.1v219.8h-52.1Z" fill="#c2592b"/>
        <g clip-path="url(#clippath)">
          <g>
            <g>
              <path d="M80.4,257l-41.5-8.1,2.2-33.2,8.4,3.7,6.1,14.7s18.2-5,28.8-2.7,17.8,4.8,27.7,14.5l12.4-13.3,9.4.3-10.3,34.3-43.1-10.2Z" fill="#e8dbae"/>
              <path d="M141.8,200.2s6.1-6.1,6.7-30.7c.6-24.6-17.2-45.8-47.9-49.7-30.7-3.9-54.1,21.7-54.2,45-.1,23.4-10.6,27.9-10.6,27.9l1,13.7,17,.6c1.9-3.2-2.3-7.7-2.3-7.7,8-.9,8.8,21.7,8.8,21.7,0,0,13.5-4.9,25.9-3.5,12.4,1.4,24.4,9.3,24.4,9.3.9-6.8,9.3-15.5,16.3-14.7s3.9,1.3,3.9,1.3c-15.1,2.1-9,9.9-9,9.9l15.7,1.5,11-12.1-6.7-12.5Z" fill="#e8dbae"/>
            </g>
            <path d="M103.8,233.9s0,0,.1,0c0,0,0,0,0,0-.1,0-.2-.1-.1-.1Z" fill="#e8dbae"/>
          </g>
          <g>
            <path d="M278.8,307.3c-6.1-12.5-12-17.2-21.2-23-9.2-5.8-28-7.2-28-7.2l-.7-15.9-6.6-6.4-13.3,30.5,36.3,21.7,37.1,24.2,21.3-28.8-8.8-3.4-16.2,8.3Z" fill="#e8dbae"/>
            <path d="M322.4,274.5s7.8-3.6,16.7-26.6c9-23-.6-48.9-28.2-63-27.6-14.1-58.2,2.1-66.3,24-8,21.9-19.4,22.6-19.4,22.6l-3.7,13.2,15.8,6.4c2.9-2.4.4-8.1.4-8.1,7.8,1.9.9,23.4.9,23.4,0,0,14.4,0,25.6,5.5,11.2,5.5,19.8,17,19.8,17,3.2-6.1,14-11.4,20.3-8.3,1.9,1,3.2,2.6,3.2,2.6-14.9-3.2-11.9,6.2-11.9,6.2l14.3,6.8,14.4-7.7-2.1-14.1Z" fill="#e8dbae"/>
          </g>
          <g>
            <path d="M439.7,394.2c-8.2-9.6-14.6-12.4-24-15.3-9.4-3-26.3.1-26.3.1l-4.3-13.8-7.3-4.1-4.7,29.9,37,10.7,38.2,12.7,12.1-30.3-8.5-1-12.3,11Z" fill="#e8dbae"/>
            <path d="M470.4,355.2s6-5,8.6-27.3c2.6-22.3-11.8-42.9-39.3-48.9-27.5-6-50.7,15.3-52.8,36.4-2,21.2-11.8,24.4-11.8,24.4l-.2,12.5,15.4,2c2-2.8-1.5-7.2-1.5-7.2,7.3-.2,6.2,20.4,6.2,20.4,0,0,12.7-3.3,23.8-1.1,11.1,2.3,21.3,10.4,21.3,10.4,1.4-6.1,9.7-13.3,15.9-12,1.9.4,3.4,1.5,3.4,1.5-13.8.6-9,8.2-9,8.2l14.1,2.7,10.9-10.1-5.1-11.9Z" fill="#e8dbae"/>
          </g>
        </g>
      </g>
    </g>
    <path d="M423.2,512S281.5,373.5,0,322.6v138.1l32-51.5,69.7,17.8-68.1-59s204.8,28.3,351.5,143.9h38.1Z" fill="#c2592b"/>
    <path d="M70,226.1c.1-.8,0-1.7-.5-2.4-.5-.8-1.1-1.6-2-1.8-.5-.1-1,0-1.6,0-.4,0-.8.1-1.1.2-.8.2-1.6.6-2.3,1.1-.8.6-1.2,1.5-1.3,2.5,0,.4,0,.8.1,1.1.8,1.5,2.8,1.8,4.3,1.8.7,0,1.4,0,2.2,0,.5,0,1,0,1.4-.3.7-.4,1-1.2.8-2,0,0,0-.1,0-.2Z" fill="#e8dbae"/>
    <path d="M79.5,220.8c-.7-.4-1.5-.4-2.3-.2-.4-.2-.9-.2-1.4,0-1,.5-1.9,1.3-2.5,2.3-.7,1.2-1.4,3.2,0,4.1.5.3,1.2.5,1.7.6.7.2,1.3.3,2,.4.6,0,1.2.1,1.8,0,.7,0,1.5,0,2.1-.4,1.4-.8,1.4-2.9.8-4.2-.5-1.1-1.4-2.1-2.4-2.7Z" fill="#e8dbae"/>
    <path d="M94.4,224c-1.1-.5-2.1-.9-3.2-1.3-.5-.2-1.1-.3-1.7-.2,0,0,0,0,0,0,0,0-.2,0-.3,0-.7-.2-1.7.2-1.8,1-.2,1.1-.3,2.2-.3,3.4,0,.7.2,1.3.7,1.8.5.5,1.2.7,1.8.9,1.1.4,2.1.6,3.2.7,1.1.1,2.6.4,3.4-.6.4-.4.6-1,.7-1.5.1-.5.3-1.2.3-1.7,0-1.5-1.6-1.9-2.7-2.4Z" fill="#e8dbae"/>
    <path d="M108.3,234.2c.1-.5.1-1,0-1.4-.3-1.1-1.2-1.8-2.1-2.4-.8-.5-1.6-.8-2.5-1.1-.4-.1-.7-.2-1.1-.2-.6,0-1.2-.2-1.8,0-.8.2-1.4,1-1.4,1.8,0,.9.5,1.4,1.2,1.8,1.7,1.1,3.5,2.2,5.3,3.2.4.5,1.4.7,1.9.3.7-.5.9-1.3.5-2.1,0,0,0,0,0,0Z" fill="#e8dbae"/>
    <path d="M247.7,273.1c-.1-.8-.4-1.8-1.1-2.2-.3-.2-.7-.3-1.1-.4-.5,0-.9-.2-1.4-.2-.7,0-1.5,0-2.2.2-.9.3-1.6.9-2,1.8,0,0,0,0,0,0-.2.3-.2.6-.2.9.1.9.9,1.6,1.6,2,.7.4,1.5.7,2.3.9.4.1.8.3,1.2.4.5.2,1,.4,1.5.3.7-.2,1.1-.8,1-1.5.1-.2.2-.4.3-.7.2-.5.1-1,0-1.5Z" fill="#e8dbae"/>
    <path d="M253.8,279.2c.6.3,1.1.5,1.7.7.6.2,1.2.4,1.8.4,1.4-.2,2.1-1.9,2-3.2,0-1.2-.6-2.5-1.4-3.4-.5-.5-1.2-.8-1.9-.8-.2-.3-.5-.5-.9-.4-1.2.1-2.3.6-3.2,1.3-1,.8-2.1,2.3-1.1,3.4.4.4.9.8,1.4,1.1.4.3.9.6,1.4.8Z" fill="#e8dbae"/>
    <path d="M265.2,284.9c.8.6,1.6,1.1,2.4,1.6.5.2,1,.5,1.4.7.6.3,1.2.4,1.9,0,.5-.2.8-.6,1.1-1.1.3-.5.7-1,.8-1.5.3-1.2-1-2-1.7-2.8-.8-.7-1.5-1.4-2.3-2.1-.4-.3-.8-.7-1.3-.8-.1,0-.3,0-.4,0,0-.1-.2-.2-.3-.3-.5-.3-1.2-.1-1.5.4-.5,1-1,2-1.4,3-.2.6-.2,1.2.2,1.7.3.5.8.8,1.2,1.1Z" fill="#e8dbae"/>
    <path d="M279.8,291.8c-.5-.6-1.1-1.2-1.8-1.7-.3-.2-.6-.4-1-.6-.5-.2-.9-.5-1.5-.5-.6,0-1.2.3-1.5.8-.4.7,0,1.3.3,1.9,1.3,1.7,2.6,3.4,4,5,.2.4.5.8,1,.7.6,0,1.2-.5,1.1-1.1,0-.1,0-.2,0-.4.3-.4.5-.9.5-1.5,0-1-.6-1.9-1.2-2.6Z" fill="#e8dbae"/>
    <path d="M405.1,371.4c-.4-.8-.9-1.6-1.8-1.9-.7-.2-1.5-.1-2.2,0-.8.1-1.7.3-2.4.8-.7.5-1.4,1.2-1.6,2.1,0,0,0,0,0,.1,0,0,0,.1,0,.2,0,.4,0,.8.2,1.2.5,1.2,2,1.7,3.2,1.8,1,.1,2,.2,3,.2,1.1,0,2.1-.9,1.8-2.1,0,0,0,0,0-.1,0-.2.1-.5.1-.8,0-.5-.1-1-.4-1.5Z" fill="#e8dbae"/>
    <path d="M411.3,376c.6.1,1.2.2,1.8.3.6,0,1.2,0,1.7,0,1.6-.4,1.9-2.4,1.6-3.8-.3-1.2-1.1-2.2-2.1-2.9-.6-.4-1.3-.5-2.1-.4-.3-.2-.7-.3-1.1-.1-1,.4-1.9,1-2.6,1.9-.8,1-1.6,2.7-.6,3.8.4.5,1.2.7,1.7.9.5.2,1,.3,1.5.5Z" fill="#e8dbae"/>
    <path d="M425.3,379.3c1.1.3,2.6.6,3.5-.3.4-.4.6-.9.8-1.4.2-.5.4-1.1.4-1.6,0-1.3-1.3-1.9-2.4-2.4-.9-.5-1.7-.9-2.6-1.4-.5-.3-1-.5-1.6-.4,0,0-.1,0-.2,0-.1,0-.2-.1-.4-.2-.8-.2-1.6.2-1.8,1-.2,1-.5,2-.5,3.1,0,.7.2,1.3.7,1.8.4.4.9.6,1.4.8.9.4,1.8.7,2.7.9Z" fill="#e8dbae"/>
    <path d="M439.5,382.6c-.2-1-1-1.7-1.8-2.3-.7-.5-1.4-.9-2.2-1.2-.3-.1-.7-.2-1-.3-.6-.1-1.2-.3-1.8-.1-.8.2-1.4.9-1.4,1.8,0,.5.2.9.5,1.3.1.2.3.3.5.4,1.5,1.2,3,2.3,4.6,3.4.4.5,1,.7,1.5.5.7-.2,1.3-1.1,1-1.8,0,0,0-.1,0-.2.2-.5.2-1,0-1.5Z" fill="#e8dbae"/>
  </g>
</svg>