<?xml version="1.0" encoding="UTF-8" standalone="no"?>
<svg
   width="512"
   height="512"
   viewBox="0 0 512 512"
   version="1.1"
   id="svg12"
   sodipodi:docname="tf2c_achievement_speedwatch_counter.svg"
   inkscape:version="1.4.3 (0d15f75, 2025-12-25)"
   xmlns:inkscape="http://www.inkscape.org/namespaces/inkscape"
   xmlns:sodipodi="http://sodipodi.sourceforge.net/DTD/sodipodi-0.dtd"
   xmlns:xlink="http://www.w3.org/1999/xlink"
   xmlns="http://www.w3.org/2000/svg"
   xmlns:svg="http://www.w3.org/2000/svg">
  <sodipodi:namedview
     id="namedview12"
     pagecolor="#ffffff"
     bordercolor="#000000"
     borderopacity="0.25"
     inkscape:showpageshadow="2"
     inkscape:pageopacity="0.0"
     inkscape:pagecheckerboard="0"
     inkscape:deskcolor="#d1d1d1"
     inkscape:zoom="2.2949219"
     inkscape:cx="256"
     inkscape:cy="256"
     inkscape:window-width="2560"
     inkscape:window-height="1377"
     inkscape:window-x="-8"
     inkscape:window-y="534"
     inkscape:window-maximized="1"
     inkscape:current-layer="svg12" />
  <defs
     id="defs8">
    <linearGradient
       id="c"
       data-name="Dégradé sans nom 5"
       x1="256"
       y1="1.903"
       x2="256"
       y2="505.139"
       gradientUnits="userSpaceOnUse">
      <stop
         offset="0"
         stop-color="#4a2a13"
         id="stop1" />
      <stop
         offset="1"
         stop-color="#230e0b"
         id="stop2" />
    </linearGradient>
    <mask
       id="e"
       data-name="mask"
       x="-31.968"
       y="-28.032"
       width="570.323"
       height="557.967"
       maskUnits="userSpaceOnUse">
      <g
         id="g8">
        <rect
           x="-31.968"
           y="-28.032"
           width="570.323"
           height="552.774"
           fill="#fff"
           id="rect2"
           style="fill:#ffffff" />
        <g
           id="g4">
          <path
             d="M258.921,253.443l-10.548,8.516-75.097,15.968-1.645-4.742-6.484,1.452-8.032-33.194,6-.581-.774-3.581,48.918-3.778-3.918-5.803s-6.871.677-8.419-9.097l-7.355.484-47.516,26.71-47.71-3.097v-2.613l-6.581.097-2.129-31.065,6,.484-.194-4.839,45.774,11.806,33.968-20.613,3.484-3.581-.677-3.677h9.677l5.71-4.065-.484-8.516-7.839-2.613s-6.968,1.839-11.419.581l1.452-12-3.677-8.129v-2.806l7.645-12.194,11.71-9.387h16.065l11.71,10.742,2.226,14.516-2.226,6.387,1.161,13.065,4.161-11.226,10.258-4.065,39.194-2.323,21.097,12.097,28.065,26.032,28.452,61.935,16.161,69.968-24.871,5.226-19.258-2.806,10.645,65.516,3.774,15.774s6.194,1.548,10.161,5.032c3.968,3.484,44.806,53.226,49.161,76.355l-4.258,2.516,10.548,18.677-15.774,5.806-6.839-2.323s-19.097,15.387-43,13.258l-8.419-6.097s30.387-.097,36.484-15l-2.806.581s-15.194-42.581-34.452-78.484c0,0-10.645-17.129-15.774-22.935-5.129-5.806-33.387-67.742-33.387-67.742l-7.135-27.709-7.187-39.162s8.082-11.17-3.774-19.742Z"
             id="path2" />
          <path
             d="M326.76,308.217l-12.968-20.323-23.419-12-27.677-2.71-47.613,13.355-9.097,6.581s-1.935,11.226,0,19.161c0,0,16.452,42.194,18.774,90.774l41.183-4.065s-12.731-56.129-30.538-88.645c0,0,88.645,6.968,91.355-2.129Z"
             id="path3" />
          <polygon
             points="264.631 405.765 268.373 413.249 260.115 418.927 249.534 418.927 241.405 429.894 215.082 444.991 200.115 447.959 199.34 445.378 227.986 421.636 233.857 406.281 233.857 395.581 255.258 391.968 264.631 405.765"
             id="polygon3" />
          <path
             d="M161.415,253.115s-16.397,13.425-27.236,13.167l-7.355,14.323,6.581,16.258h4.129l-.258-2.452,2.581,3.742,4.258-.774,1.161-.774,1.806,2.323,5.161-.516-5.935-9.032,5.806,3.613h7.097v-3.613l-5.161-1.29-.258-5.548,10.515-11.373-2.892-18.051Z"
             id="path4" />
          <polygon
             points="90.576 233.889 78.308 240.346 78.308 245.12 83.857 248.733 82.953 251.959 75.469 250.927 69.663 245.507 74.824 253.636 75.986 256.217 70.824 257.378 68.373 255.056 66.308 255.83 60.373 248.604 59.211 252.862 55.986 252.088 50.566 233.894 60.76 220.217 70.824 220.217 89.801 209.888 90.576 233.889"
             id="polygon4" />
        </g>
        <g
           id="g7">
          <path
             d="M253.581,101.516s-7,3.419-16.387,2.258v-2.806l7.645-12.194,11.71-9.387h16.065l11.71,10.742,2.226,14.516-2.226,6.387,1.161,13.065,4.161-11.226,10.258-4.065,39.194-2.323,21.097,12.097,28.065,26.032,28.452,61.935,16.161,69.968-24.871,5.226-19.258-2.806,10.645,65.516,3.774,15.774s6.194,1.548,10.161,5.032,44.806,53.226,49.161,76.355l-4.258,2.516,10.548,18.677-15.774,5.806-6.839-2.323s-19.097,15.387-43,13.258l-8.419-6.097s30.387-.097,36.484-15l-2.806.581s-15.194-42.581-34.452-78.484c0,0-10.645-17.129-15.774-22.935-5.129-5.806-47.323-92.742-47.323-92.742l74.419-5.194s-8.226-2.419-20.419-26.129l-25.742-12.484-25.452-.387,13.355-65.129-15.903,55.903-14.968.323-75.097,15.968-1.645-4.742-6.484,1.452-8.032-33.194,6-.581-.774-3.581,72.677-5.613,12-39.677,11.806-18.387-15.484,17.516-11.903,34.839-24.097,1.742s-6.871.677-8.419-9.097l-7.355.484-47.516,26.71-47.71-3.097v-2.613l-6.581.097-2.129-31.065,6,.484-.194-4.839,45.774,11.806,33.968-20.613,13.258,2.71,9-5.419,13.839,6.774-11.806-10.839-11.226,2.806-9.581.387-.677-3.677.534-4.226,2.176-4,4.129-2.839.226-4.129s-6.968,1.839-11.419.581l1.452-12,9.774,4.935.613-6.935,13.032-4.194-10.71-4.194Z"
             stroke="#000"
             stroke-miterlimit="6"
             stroke-width="11"
             id="path5"
             style="stroke:#000000" />
          <path
             d="M394.548,258.032l-12.968-20.323-23.419-12-27.677-2.71-47.613,13.355-9.097,6.581s-1.935,11.226,0,19.161c0,0,16.452,42.194,18.774,90.774l41.183-4.065s-12.731-56.129-30.538-88.645c0,0,88.645,6.968,91.355-2.129Z"
             stroke="#000"
             stroke-miterlimit="6"
             stroke-width="11"
             id="path6"
             style="stroke:#000000" />
          <polygon
             points="332.419 355.581 336.161 363.065 327.903 368.742 317.323 368.742 309.194 379.71 282.871 394.806 267.903 397.774 267.129 395.194 295.774 371.452 301.645 356.097 332.419 355.581"
             stroke="#000"
             stroke-miterlimit="6"
             stroke-width="11"
             id="polygon6"
             style="stroke:#000000" />
          <path
             d="M223.516,207.194s-10.71,9.161-21.548,8.903l-7.355,14.323,6.581,16.258h4.129l-.258-2.452,2.581,3.742,4.258-.774,1.161-.774,1.806,2.323,5.161-.516-5.935-9.032,5.806,3.613h7.097v-3.613l-5.161-1.29-.258-5.548,6.323-6.839-4.387-18.323Z"
             stroke="#000"
             stroke-miterlimit="6"
             stroke-width="11"
             id="path7"
             style="stroke:#000000" />
          <polygon
             points="151.645 185 146.097 190.161 152.613 192.161 150.523 195.919 149.903 204.161 143.258 200.742 137.452 195.323 140.348 199.884 143.774 206.032 138.613 207.194 136.29 206.355 134.097 205.645 128.161 198.419 127 202.677 123.774 201.903 118.355 183.71 128.548 170.032 138.613 170.032 148.806 164.484 151.645 185"
             stroke="#000"
             stroke-miterlimit="6"
             stroke-width="11"
             id="polygon7"
             style="stroke:#000000" />
        </g>
      </g>
    </mask>
    <linearGradient
       data-name="Dégradé sans nom 5"
       x1="256"
       y1="1.903"
       x2="256"
       y2="505.139"
       gradientUnits="userSpaceOnUse"
       id="linearGradient7960">
      <stop
         offset="0"
         stop-color="#4a2a13"
         id="stop1-1"
         style="stop-color:#2e2e2e" />
      <stop
         offset="1"
         stop-color="#230e0b"
         id="stop2-1"
         style="stop-color:#171717" />
    </linearGradient>
  </defs>
  <g
     id="a"
     data-name="Calque 1">
    <image
       width="512"
       height="512"
       xlink:href="../../../../Alexander/Documents/GitHub/tf2classified-steam/depots/tf2classic_shared/tf2classic/resource/svgs/achievements/BW/21.png"
       id="image8" />
  </g>
  <g
     id="b"
     data-name="Calque 2">
    <rect
       width="512"
       height="512"
       fill="url(#c)"
       id="rect8"
       style="fill:url(#linearGradient7960)" />
  </g>
  <g
     id="d"
     data-name="Calque 3">
    <g
       mask="url(#e)"
       id="g9">
      <path
         d="M354.613,0l-168.073,45.675c-2.852.705-5.678,1.472-8.478,2.304l-.406.11v.012C99.245,71.582,42.29,144.077,42.679,229.622c.475,104.195,85.837,188.275,190.662,187.797,64.67-.295,121.629-32.712,155.674-81.964l.007.007,122.978-153.946V0h-157.387Z"
         fill="#e8dbae"
         id="path8"
         style="fill:#cbcbcb" />
    </g>
    <path
       d="M394.548,258.032l-12.968-20.323-23.419-12-27.677-2.71-47.613,13.355-9.097,6.581s-1.935,11.226,0,19.161c0,0,16.452,42.194,18.774,90.774l41.183-4.065s-12.731-56.129-30.538-88.645c0,0,88.645,6.968,91.355-2.129Z"
       fill="#c2592b"
       id="path9"
       style="fill:#767676" />
    <polygon
       points="332.419 355.581 336.161 363.065 327.903 368.742 317.323 368.742 309.194 379.71 282.871 394.806 267.903 397.774 267.129 395.194 295.774 371.452 301.645 356.097 332.419 355.581"
       fill="#c2592b"
       id="polygon9"
       style="fill:#767676" />
    <path
       d="M223.516,207.194s-10.71,9.161-21.548,8.903l-7.355,14.323,6.581,16.258h4.129l-.258-2.452,2.581,3.742,4.258-.774,1.161-.774,1.806,2.323,5.161-.516-5.935-9.032,5.806,3.613h7.097v-3.613l-5.161-1.29-.258-5.548,6.323-6.839-4.387-18.323Z"
       fill="#c2592b"
       id="path10"
       style="fill:#767676" />
    <polygon
       points="151.645 185 146.097 190.161 146.097 194.935 151.645 198.548 150.742 201.774 143.258 200.742 137.452 195.323 142.613 203.452 143.774 206.032 138.613 207.194 136.161 204.871 134.097 205.645 128.161 198.419 127 202.677 123.774 201.903 118.355 183.71 128.548 170.032 138.613 170.032 148.806 164.484 151.645 185"
       fill="#c2592b"
       id="polygon10"
       style="fill:#767676" />
    <g
       id="g12">
      <path
         d="M398.674,362.931l.34,1.396,2.924.746c1.411.36,5.614,1.771,8.082,3.937,1.605,1.445,12.596,14.43,23.784,30.123,12.082,16.946,20.08,30.958,22.919,40.076l-1.04.615-4.221,2.494,2.411,4.269,7.657,13.558-8.596,3.164-5.164-1.754-2.599-.874-2.138,1.708c-.106.085-7.479,5.891-18.443,9.515,5.55-2.947,9.322-6.812,11.265-11.56l3.556-8.692-7.784,1.61c-4.326-11.592-17.504-45.719-33.251-75.078l-.075-.141-.084-.135c-.118-.19-2.422-3.892-5.407-8.445l5.866-6.532M401.314,352.506l-14.811,16.494c3.958,5.906,7.465,11.548,7.465,11.548,19.258,35.903,34.452,78.484,34.452,78.484l2.806-.581c-6.097,14.903-36.484,15-36.484,15l8.419,6.097c1.546.138,3.074.202,4.576.202,21.719,0,38.424-13.46,38.424-13.46l6.839,2.323,15.774-5.807-10.548-18.677,4.258-2.516c-4.355-23.129-45.194-72.871-49.161-76.355-3.968-3.484-10.161-5.032-10.161-5.032l-1.847-7.719h0Z"
         fill="#c2592b"
         id="path11"
         style="fill:#767676" />
      <path
         d="M399.387,344.452l-10.645-65.516,19.258,2.806,24.871-5.226-16.161-69.968-28.452-61.935-28.064-26.032-21.097-12.097-39.193,2.323-10.258,4.065-4.161,11.226-1.161-13.065,2.226-6.387-2.226-14.516-11.71-10.742h-16.064l-11.709,9.387-7.645,12.194v2.806c9.387,1.161,16.387-2.258,16.387-2.258l10.71,4.194-.774,4.935-12.871,6.194-9.774-4.935-1.452,12c4.452,1.258,11.419-.581,11.419-.581l7.839,2.613.484,8.516-5.71,4.065h-9.677l.677,3.677,9.581-.387,11.226-2.806,11.806,10.839-13.839-6.774-9,5.419-13.258-2.71-33.968,20.613-45.774-11.806.194,4.839-6-.484,2.129,31.065,6.581-.097v2.613l47.71,3.097,47.516-26.71,7.355-.484c1.548,9.774,8.419,9.097,8.419,9.097l24.097-1.742,11.903-34.839,15.484-17.516-11.806,18.387-12,39.677-72.677,5.613.774,3.581-6,.581,8.032,33.194,6.484-1.452,1.645,4.742,75.097-15.968,10.548-8.516,20.323-47.71-13.355,65.129,25.451.387,25.742,12.484c12.193,23.71,20.419,26.129,20.419,26.129l-60.484,30.194s28.258,61.935,33.387,67.742c2.185,2.474,5.371,7.003,8.31,11.388l14.811-16.494-1.927-8.055Z"
         fill="#c2592b"
         id="path12"
         style="fill:#767676" />
    </g>
  </g>
</svg>
