<?xml version="1.0" encoding="UTF-8"?>
<svg xmlns="http://www.w3.org/2000/svg" width="512" height="512" xmlns:xlink="http://www.w3.org/1999/xlink" viewBox="0 0 512 512">
  <defs>
    <linearGradient id="c" data-name="Dégradé sans nom 5" x1="256" y1="1.903" x2="256" y2="505.139" gradientUnits="userSpaceOnUse">
      <stop offset="0" stop-color="#4a2a13"/>
      <stop offset="1" stop-color="#230e0b"/>
    </linearGradient>
    <mask id="e" data-name="mask" x="463.567" y="-671.516" width="756.049" height="725.1" maskUnits="userSpaceOnUse"/>
  </defs>
  <g id="a" data-name="Calque 1">
    <image width="512" height="512" xlink:href="15.png"/>
  </g>
  <g id="b" data-name="Calque 2">
    <rect width="512" height="512" fill="url(#c)"/>
  </g>
  <g id="d" data-name="Calque 3">
    <g>
      <path d="M123.191,192.669c-3.421-.195-8.701-.836-12.104-.296-9.827,5.274-6.243,13.57-14.757,23.505l-36.803,5.148.624,4.707c.127.955-2.799,1.183-4.465,1.352-1.966.2-2.608,1.896-4.022,3.467l-23.224,25.783c-4.977,5.525-14.556,32.873-12.031,43.67,1.273,4.391,5.053,10.847,7.73,14.607,5.567,3.389,11.177,7.049,17.322,8.698l25.434,6.825,8.889,4.332c2.144,1.045,5.314,4.786,7.397,6.33l21.442,6.875c15.61-7.961,8.533-13.562,17.46-18.282l-17.645-18.557,3.103-4.105c-13.188-5.048-19.836.737-30.943-7.058-6.519-4.575-12.612-7.413-21.278-10.189l12.772-15.651c-1.211,5.457-3.562,9.215-5.828,13.951,1.985.681,5.024,1.278,6.574,2.238l16.61,10.283,27.13,2.307,9.363-9.788,20.642,26.645,15.308-.209.999,9.418,24.59-1.36,1.845-7.245-3.13-8.434c2.141-1.693,2.47-2.927,2.189-4.84l-.862-5.855,7.003,6.866c-1.155,7.406,1.211,12.838,4.726,19.339l5.364-3.782-4.637-22.249,22.086-3.226,5.464,31.285c.111.637,1.378,1.768,1.872,2.125,3.418,2.472.877-21.323.716-22.775-.386-3.491-3.016-9.693-5.465-11.752-3.374-2.838-6.141-5.373-9.255-8.362-11.33-10.876-24.06-19.736-36.732-29.028l-2.178-3.85-42.243-24.068s1.079-2.979,4.821-2.657l.839-10.258-2.71-2.903v-1.871h3.613s-.839-5.032-3.097-5.871v-2.129h1.742s-3.037-12.58-12.261-13.105Z" fill="#e8dbae"/>
      <path d="M262.825,362.59l.367,13.535-11.192.058-3.349,3.216-19.124.438c-.052,4.101-1.027,7.165-3.156,9.356-2.465,2.537-6.508,2.423-10.562,2.165l-1.895-39.96-49.78,1.098-.478,36.477c-1.263.89-6.832,1.718-7.581-.007l-3.966-9.124-18.91-5.612-.303-9.742-19.04,1.423c-.472-1.858-.658-3.775-1.527-3.839l-5.118-.38c-.364-1.504-.658-5.692-.531-8.035,3.904-2.757,9.148-4.519,11.701-8.261l6.91-10.129c2.901-4.253,17.798,5.157,10.938-3.019-.35-2.066.942-6.631,2.712-8.239,2.062-1.874,6.624-.186,8.945.381l7.05.036-.143,8.456-8.755.715,5.968,2.586,6.765,3.419.42-6.865,43.881-.852,3.005,12.477,19.024-2.479-.779-5.679,4.864-1.013.455-7.001,31.879.859c.029,2.763,1.173,4.762,3.476,5.911l.888,21.241-29.01,1.221,12.264,1.398,2.978,3.884,10.706-.113Z" fill="#e8dbae"/>
      <path d="M148.961,486.044l3.683,8.976c-10.423,1.464-21.613,1.939-31.815-1.686-3.51-1.247-7.544-2.245-10.88-3.132l1.924-10.008,3.565-7.747,3.608-21.571c.883-5.277-.492-10.661-2.058-15.932,6.854-11.706,9.308-18.02,20.34-27.116l-5.513-19.527-5.586-4.376-4.197-13.646,6.848-1.43,1.663,9.959,19.295,4.758,3.27,10.537,10.048-.56c2.393,7.732-7.972,33.729-7.674,44.977l.21,7.941c-3.537,2.266-4.923,5.193-3.413,10.025l-12.638-.687c-3.618,5.094-6.862,11.21-6.588,18.226l8.974,11.834,6.933.186Z" fill="#e8dbae"/>
      <polygon points="213.919 416.503 167.288 417.265 166.483 366.988 211.82 365.913 213.919 416.503" fill="#e8dbae"/>
      <path d="M228.417,482.326l-24.353,1.145c-1.812.085-5.414-2.201-7.165-2.961l-2.207,3.411-19.005-.157c.57-4.076.624-6.538.473-10.786l4.683-7.998-4.953-19.846-5.398-6.5.114-17.346,32.353,2.237c4.157.288.402,9.217,3.787,13.377l-11.312,7.691,2.413,18.561c3.852,2.841,8.933,6.453,13.147,8.943l14.498-.002,2.925,10.232Z" fill="#e8dbae"/>
      <polygon points="329.425 349.516 269.438 350.633 268.882 339.907 329.005 339.195 329.849 335.436 358.775 330.25 359.772 355.376 331.321 353.451 329.425 349.516" fill="#e8dbae"/>
      <polygon points="220.971 337.817 208.613 339.597 199.694 304.153 214.991 301.935 220.971 337.817" fill="#e8dbae"/>
      <path d="M384.468,347.572l-9.37-.273-1.862,5.235-9.593-.26-1.443-19.384,3.974-4.813-.133-12.154,6.707-.041c2.79,11.838-2.955,13.124,3.045,20.543l8.656-.505.02,11.652Z" fill="#e8dbae"/>
      <polygon points="128.978 330.758 111.084 310.98 122.41 300.965 138.233 320.219 128.978 330.758" fill="#e8dbae"/>
    </g>
    <path d="M15.993,183.968l18.104,12,58.645-6,6.581-16.258,37.161,2.129,15.484,21.871v24l78.581,42.581,15.484,52.839,94.839-4.065s-50.323-33.097-47.613-100.452c0,0-65.613-24-64.839-81.29,0,0-26.323,1.742-45.484-14.129L15.993,183.968Z" fill="#c2592b" opacity=".5"/>
    <polygon points="339.71 488.032 236.548 484.935 233.258 461.516 211.968 463.839 207.71 448.935 232.29 428.032 229 403.452 240.032 390.29 274.677 390.484 278.742 371.903 336.032 372.29 393.323 378.871 339.71 488.032" fill="#c2592b" opacity=".5"/>
    <polygon points="7.774 53.323 93.323 0 207.71 0 7.774 70.161 7.774 53.323" fill="#c2592b"/>
    <polygon points="7.774 143.323 225.71 0 247.774 0 247.774 5.129 7.774 150.871 7.774 143.323" fill="#c2592b"/>
    <path d="M7.774,162.484L247,33.774s4.452,16.452,13.161,30L7.774,177v-14.516Z" fill="#c2592b"/>
    <path d="M194.097,103.839l33.935-9.806s17.548,15.742,52.387,11.355c0,0-2.968,13.806-2.968,27.097s4.516,49.808,44,59.678c0,0-12.387,78.515,58.581,78.515,22.968,0,41.29-14.677,41.29-14.677,0,0-9.935,35.925,4.774,59.882l-9.29,20.344s-9.935-8-13.548-26.968c0,0-79.226,18.71-97.226-107.677,0,0-55.935-13.742-69.484-83.419,0,0-23.161,2.516-42.452-14.323Z" fill="#c2592b"/>
    <polygon points="512 499.323 479.258 499.323 499.903 342.813 400.29 499.323 368.548 499.323 495.258 269.917 512 269.917 512 499.323" fill="#c2592b"/>
    <path d="M362.2,499.323l117.316-233.806s-10.839-4.323-16.258-9.516l-107.871,243.323h6.813Z" fill="#c2592b"/>
    <path d="M512,221.129s-34.806,5.677-51.323-40.516c0,0-22.968,8.516-42.065,8.516s-64.516-9.032-64.516-66.323S416.032,4.871,416.032,4.871l-79.484,10.839,10.323-15.71h-89.032s-9.032,29.645,7.226,52.613,26.065,26.065,46.194,31.742c0,0-14.71,49.548,16.774,87.226s76.387,45.419,113.806,30.71c0,0,8.968,60.645,70.161,58.065v-39.226Z" fill="#c2592b"/>
  </g>
</svg>