<?xml version="1.0" encoding="UTF-8"?>
<svg xmlns="http://www.w3.org/2000/svg" width="512" height="512" xmlns:xlink="http://www.w3.org/1999/xlink" viewBox="0 0 512 512">
  <defs>
    <linearGradient id="c" data-name="Dégradé sans nom 5" x1="256" y1="1.903" x2="256" y2="505.139" gradientUnits="userSpaceOnUse">
      <stop offset="0" stop-color="#4a2a13"/>
      <stop offset="1" stop-color="#230e0b"/>
    </linearGradient>
  </defs>
  <g id="a" data-name="Calque 1">
    <image width="512" height="512" xlink:href="24.png"/>
  </g>
  <g id="b" data-name="Calque 2">
    <rect width="512" height="512" fill="url(#c)"/>
  </g>
  <g id="d" data-name="Calque 3">
    <polygon points="243.094 41.882 205.613 73.818 283.197 73.818 243.094 41.882" fill="#c2592b"/>
    <g>
      <polygon points="287.055 88.742 196.147 88.742 77.872 189.516 171.919 188.527 170.775 155.064 298.158 151.318 323.667 117.898 287.055 88.742" fill="#c2592b"/>
      <polygon points="422.226 193.774 361.942 145.768 330.634 185.336 331.366 194.729 422.226 193.774" fill="#c2592b"/>
    </g>
    <polygon points="325.107 212.742 328.935 261.903 270.097 262.29 270.097 335.839 354.484 335.839 356.806 364.484 390.484 365.258 398.226 476.742 119.903 476.742 115.645 364.484 151.258 364.484 155.129 335.839 233.323 335.839 233.323 262.29 179.903 262.29 178.209 212.742 0 212.742 0 512 512 512 512 212.742 325.107 212.742" fill="#c2592b"/>
    <path d="M286.624,449.868l-31.63-26.063-21.88,34.298-18.698-13.451,23.652-35.415-33.034-25.957,15.706-19.762,30.905,25.781,18.759-30.783,15.103,9.869-20.296,32.875,37.749,29.753-16.336,18.854Z" fill="#e8dbae"/>
    <path d="M469.323,0c-48.516,34.484-102.194,90.935-102.194,90.935l-1.139-.251-1.882-22.614c-.113-1.357-1.305-2.366-2.662-2.253l-15.988,1.33c-1.357.113-2.366,1.305-2.253,2.662l4.517,54.282c.22,2.644,2.366,4.715,5.016,4.84l47.387,2.248c1.36.065,2.515-.986,2.58-2.346l.725-15.29c.065-1.36-.986-2.515-2.346-2.58l-22.949-1.089.349-.877C484.161,8.742,512,9.516,512,9.516V0h-42.677Z" fill="#e8dbae"/>
  </g>
</svg>