<?xml version="1.0" encoding="UTF-8" standalone="no"?>
<svg
   width="512"
   height="512"
   viewBox="0 0 512 512"
   version="1.1"
   id="svg19"
   sodipodi:docname="tf2c_achievement_jumppad_stomp.svg"
   inkscape:version="1.4.3 (0d15f75, 2025-12-25)"
   xmlns:inkscape="http://www.inkscape.org/namespaces/inkscape"
   xmlns:sodipodi="http://sodipodi.sourceforge.net/DTD/sodipodi-0.dtd"
   xmlns:xlink="http://www.w3.org/1999/xlink"
   xmlns="http://www.w3.org/2000/svg"
   xmlns:svg="http://www.w3.org/2000/svg">
  <sodipodi:namedview
     id="namedview19"
     pagecolor="#ffffff"
     bordercolor="#000000"
     borderopacity="0.25"
     inkscape:showpageshadow="2"
     inkscape:pageopacity="0.0"
     inkscape:pagecheckerboard="0"
     inkscape:deskcolor="#d1d1d1"
     inkscape:zoom="2.2949219"
     inkscape:cx="256"
     inkscape:cy="256"
     inkscape:window-width="2560"
     inkscape:window-height="1377"
     inkscape:window-x="-8"
     inkscape:window-y="534"
     inkscape:window-maximized="1"
     inkscape:current-layer="svg19" />
  <defs
     id="defs2">
    <linearGradient
       id="c"
       data-name="Dégradé sans nom 5"
       x1="256"
       y1="1.903"
       x2="256"
       y2="505.139"
       gradientUnits="userSpaceOnUse">
      <stop
         offset="0"
         stop-color="#4a2a13"
         id="stop1" />
      <stop
         offset="1"
         stop-color="#230e0b"
         id="stop2" />
    </linearGradient>
    <mask
       id="e"
       data-name="mask"
       x="-680.433"
       y="-671.516"
       width="756.049"
       height="725.1"
       maskUnits="userSpaceOnUse" />
    <linearGradient
       data-name="Dégradé sans nom 5"
       x1="256"
       y1="1.903"
       x2="256"
       y2="505.139"
       gradientUnits="userSpaceOnUse"
       id="linearGradient9834">
      <stop
         offset="0"
         stop-color="#4a2a13"
         id="stop1-1"
         style="stop-color:#2e2e2e" />
      <stop
         offset="1"
         stop-color="#230e0b"
         id="stop2-1"
         style="stop-color:#171717" />
    </linearGradient>
  </defs>
  <g
     id="a"
     data-name="Calque 1">
    <image
       width="512"
       height="512"
       xlink:href="../../../../Alexander/Documents/GitHub/tf2classified-steam/depots/tf2classic_shared/tf2classic/resource/svgs/achievements/BW/17.png"
       id="image2" />
  </g>
  <g
     id="b"
     data-name="Calque 2">
    <rect
       width="512"
       height="512"
       fill="url(#c)"
       id="rect2"
       style="fill:url(#linearGradient9834)" />
  </g>
  <g
     id="d"
     data-name="Calque 3">
    <g
       id="g10">
      <polygon
         points="121.452 46.548 66.871 65.129 42.871 120.097 42.871 168.871 51.387 204.484 90.871 275.323 102.871 269.129 64.161 196.355 58.742 160.935 59.129 125.516 79.258 76.355 121.452 62.806 166.742 90.677 187.645 128.226 191.516 160.935 189.968 200.226 196.161 215.71 207.387 207.581 204.677 194.806 207.387 160.935 202.742 120.484 176.032 76.355 121.452 46.548"
         fill="#e8dbae"
         id="polygon2"
         style="fill:#cbcbcb" />
      <polygon
         points="101.968 292.613 126.742 385.774 171.129 414.161 204.677 408.742 235.903 388.871 243.645 331.065 239 292.613 225.581 261.387 211.129 261.387 224.548 297.258 229.71 328.484 225.839 379.323 204.419 393.774 178.613 399.71 140.419 377.258 115.129 289.774 101.968 292.613"
         fill="#e8dbae"
         id="polygon3"
         style="fill:#cbcbcb" />
      <polygon
         points="65.71 129.968 84.29 81.581 118.742 72.097 161.516 97.645 65.71 129.968"
         fill="#e8dbae"
         id="polygon4"
         style="fill:#cbcbcb" />
      <polygon
         points="65.71 148.935 68.226 170.226 178.935 132.097 170.613 115.645 65.71 148.935"
         fill="#e8dbae"
         id="polygon5"
         style="fill:#cbcbcb" />
      <polygon
         points="70.161 189.194 183 149.129 183 172.935 81.581 209.129 70.161 189.194"
         fill="#e8dbae"
         id="polygon6"
         style="fill:#cbcbcb" />
      <polygon
         points="87.774 226.742 109.645 261.387 188.806 219.387 183 204.871 183 191.903 87.774 226.742"
         fill="#e8dbae"
         id="polygon7"
         style="fill:#cbcbcb" />
      <polygon
         points="130.355 314.226 125.129 289.839 201.774 263.516 211.839 288.871 130.355 314.226"
         fill="#e8dbae"
         id="polygon8"
         style="fill:#cbcbcb" />
      <polygon
         points="131.71 325.065 215.71 302.032 220.548 322.742 136.935 347.129 131.71 325.065"
         fill="#e8dbae"
         id="polygon9"
         style="fill:#cbcbcb" />
      <polygon
         points="142.161 359.71 145.839 371.323 178.742 391.452 198.097 387 217.258 375.581 219.774 337.774 142.161 359.71"
         fill="#e8dbae"
         id="polygon10"
         style="fill:#cbcbcb" />
    </g>
    <g
       id="g19">
      <polygon
         points="364.527 98.822 420.588 112.293 449.552 164.814 454.048 213.381 448.85 249.627 416.064 323.803 403.544 318.742 435.381 242.71 437.513 206.942 433.863 171.709 409.288 124.612 366.026 115.011 323.497 146.937 306.144 186.253 305.304 219.18 310.467 258.16 305.727 274.149 293.8 267.089 295.321 254.12 289.5 220.643 290.397 179.935 312.926 133.532 364.527 98.822"
         fill="#e8dbae"
         id="polygon11"
         style="fill:#cbcbcb" />
      <polygon
         points="406.608 342.043 390.526 437.091 348.944 469.449 315.039 467.144 282.115 450.236 269.078 393.389 270.159 354.673 280.643 322.343 295.033 321.011 284.977 357.967 282.716 389.535 291.256 439.801 313.916 452.217 340.16 455.748 376.122 429.872 393.241 340.429 406.608 342.043"
         fill="#e8dbae"
         id="polygon12"
         style="fill:#cbcbcb" />
      <polygon
         points="427.721 176.748 404.759 130.28 369.58 124.012 329.343 153.394 427.721 176.748"
         fill="#e8dbae"
         id="polygon13"
         style="fill:#cbcbcb" />
      <polygon
         points="429.469 195.635 428.926 217.067 315.173 189.304 321.944 172.156 429.469 195.635"
         fill="#e8dbae"
         id="polygon14"
         style="fill:#cbcbcb" />
      <polygon
         points="428.747 236.132 312.696 206.639 314.89 230.344 419.213 257.035 428.747 236.132"
         fill="#e8dbae"
         id="polygon15"
         style="fill:#cbcbcb" />
      <polygon
         points="414.67 275.144 396.085 311.658 313.39 277.133 317.833 262.143 316.638 249.231 414.67 275.144"
         fill="#e8dbae"
         id="polygon16"
         style="fill:#cbcbcb" />
      <polygon
         points="380.334 366.18 383.289 341.415 304.544 322.269 296.86 348.444 380.334 366.18"
         fill="#e8dbae"
         id="polygon17"
         style="fill:#cbcbcb" />
      <polygon
         points="379.984 377.098 294.218 361.906 291.309 382.973 376.814 399.55 379.984 377.098"
         fill="#e8dbae"
         id="polygon18"
         style="fill:#cbcbcb" />
      <polygon
         points="372.77 412.559 370.178 424.461 339.27 447.537 319.588 444.889 299.455 435.284 293.465 397.87 372.77 412.559"
         fill="#e8dbae"
         id="polygon19"
         style="fill:#cbcbcb" />
    </g>
  </g>
</svg>
