<?xml version="1.0" encoding="UTF-8"?>
<svg xmlns="http://www.w3.org/2000/svg" width="512" height="512" xmlns:xlink="http://www.w3.org/1999/xlink" viewBox="0 0 512 512">
  <defs>
    <linearGradient id="c" data-name="Dégradé sans nom 5" x1="256" y1="1.903" x2="256" y2="505.139" gradientUnits="userSpaceOnUse">
      <stop offset="0" stop-color="#4a2a13"/>
      <stop offset="1" stop-color="#230e0b"/>
    </linearGradient>
    <clipPath id="e">
      <rect x="566.086" y="-5.914" width="523.828" height="523.828" fill="none"/>
    </clipPath>
  </defs>
  <g id="a" data-name="Calque 1">
    <image width="512" height="512" xlink:href="3.png"/>
  </g>
  <g id="b" data-name="Calque 2">
    <rect width="512" height="512" fill="url(#c)"/>
  </g>
  <g id="d" data-name="Calque 3">
    <g>
      <path d="M316.226,111.839l-65.226,60.774,88.645,85.161,57.484-35.226-80.903-110.71ZM273.258,175.323l44.323-35.032,16.645,19.548-45.097,31.935-15.871-16.452ZM337.129,243.065l-40.065-42,45.677-30.387,35.419,46.452-41.032,25.935Z" fill="#e8dbae"/>
      <polygon points="401.968 217.903 321.839 108.935 332.871 107.581 410.677 208.613 401.968 217.903" fill="#e8dbae"/>
      <polygon points="362.194 136.129 387.258 117.452 413 156.258 390.742 175.226 362.194 136.129" fill="#e8dbae"/>
      <polygon points="358.484 133.516 334.226 101.516 317.194 104.871 301.452 88.226 329.323 62.161 344.935 62.161 380.935 116.742 358.484 133.516" fill="#e8dbae"/>
      <path d="M411.161,162.742l23.71,33.484s2.71,15.677-10.742,28.355c-13.452,12.677-20.323,10.065-20.323,10.065l-6.677-6.194,6.387-2.71,12.596-17.323-23.434-30,18.484-15.677Z" fill="#e8dbae"/>
      <path d="M399.968,237.323s-6.839,13.484-21.032,10.903l-6.065-6.645,19.806-10.903,7.29,6.645Z" fill="#e8dbae"/>
      <path d="M375.903,251.645s-7.097,9.871-21.677,8l-4.258-3.882,18.645-11.408,7.29,7.29Z" fill="#e8dbae"/>
      <path d="M256.516,161.194l-11.226-11.71s-1.887-4.161-.29-7.742l8.129-7.984,13.113,16.984-9.726,10.452Z" fill="#e8dbae"/>
      <path d="M275.581,137.677l-7.613,8.355-22.871-27.613s-3.484-9.194-17.032-19.258c-13.548-10.065-18.194-13.065-18.581-28.839-.387-15.774,10.355-25.355,24.29-25.355s24.968,14.129,24.968,14.129c0,0,11.129,15.484,24.194,25.355l-7.839,8.419s-22.075-19.355-28.892-29.903c-4.624-6.484-12.237-5.806-12.237-5.806,0,0-13.29,1.645-13.29,14.484,0,6.821,5.444,12.421,10.548,16.173,7.617,5.599,14.597,12.024,20.569,19.353,2.089,2.563,3.999,4.96,5.27,6.667,4.516,6.065,18.516,23.839,18.516,23.839Z" fill="#e8dbae"/>
      <path d="M299.129,92.484s-20.516,10.581-25.871,24.516l12.935,15.097,26.484-24.516-13.548-15.097Z" fill="#e8dbae"/>
      <path d="M271.71,119.871l12.387,14.613s-.387,2.806-6.194,2.516l-11.661-15.484s1.285-1.848,5.468-1.645Z" fill="#e8dbae"/>
      <polygon points="337.065 236.355 329.194 227.516 337.065 223 344.484 232.29 337.065 236.355" fill="#e8dbae"/>
      <polygon points="347.323 230.677 339.581 221.387 350.871 214.032 358.742 223.903 347.323 230.677" fill="#e8dbae"/>
      <polygon points="361.323 222.355 353.645 212.29 363.516 205.71 371.774 216.226 361.323 222.355" fill="#e8dbae"/>
      <polygon points="327.161 225.355 317 214.032 325.516 208.419 334.806 219.935 327.161 225.355" fill="#e8dbae"/>
      <polygon points="337.613 217.903 328.516 206.871 340.129 199.419 348.742 210.839 337.613 217.903" fill="#e8dbae"/>
      <polygon points="351.645 208.661 343.032 197.484 352.129 191.29 360.742 202.323 351.645 208.661" fill="#e8dbae"/>
      <polygon points="341.29 194.097 333.065 183.645 341.871 178.129 349.968 188.29 341.29 194.097" fill="#e8dbae"/>
      <polygon points="337.613 196.419 326.677 204.355 318.258 194.097 330.355 186.113 337.613 196.419" fill="#e8dbae"/>
      <polygon points="323.677 205.71 314.968 211.516 305.968 202.226 315.548 195.935 323.677 205.71" fill="#e8dbae"/>
      <polygon points="288.677 86.29 277.194 97.129 277.194 101.258 294.871 86.29 288.677 86.29" fill="#e8dbae"/>
    </g>
    <polygon points="94.452 209.903 94.452 238.935 60 238.935 55.645 235.839 55.645 213.484 58.258 209.903 63.387 209.903 63.387 228 70.355 228 70.355 209.903 94.452 209.903" fill="#e8dbae"/>
    <polygon points="130.548 248.032 107.065 248.032 104.355 245.839 104.355 194.879 110.161 189 155.581 189 153.774 213.581 138.161 214.613 130.548 248.032" fill="#e8dbae"/>
    <path d="M167.258,189l36.645.645-10.323,69.161h-3.355l-15.484-41.919s-.774-3.484-6.71-3.484l-.774-24.403Z" fill="#e8dbae"/>
    <path d="M179.387,287.065h-17.677l-11.355,9.161v8.387s5.806,5.161,19.097,5.806l9.935-4.387v-18.968Z" fill="#e8dbae"/>
    <polygon points="189.194 280.871 221.065 301.516 215.129 310.419 215.258 319.065 184.419 294.419 189.194 280.871" fill="#e8dbae"/>
    <path d="M230.097,300.742s6.71-.516,11.226,7.097l20.387-20.774h-10.71l-11.742-4.903-9.161,18.581Z" fill="#e8dbae"/>
    <polygon points="233.194 268.484 235.516 277.129 249.839 282.161 274.871 283.581 284.548 277.129 284.548 267.71 233.194 268.484" fill="#e8dbae"/>
    <polygon points="43.258 483.323 94.613 483.323 94.613 474.548 85.194 467.581 54.032 466.355 43.258 475.903 43.258 483.323" fill="#e8dbae"/>
    <polygon points="298.097 448.484 334.355 472.613 332.161 489.258 313.323 489.258 291.387 458.548 298.097 448.484" fill="#e8dbae"/>
    <path d="M169.323,222.355h-21.161l-12.387,58.516h47.097l-13.548-58.516ZM153.051,264.355l-7.015-12.71,7.015-12.71h14.031l7.015,12.71-7.015,12.71h-14.031Z" fill="#e8dbae"/>
    <circle cx="169.194" cy="350.032" r="11.548" fill="#e8dbae"/>
    <g>
      <path d="M156.316,360.405l-30.864,26.789-60.129,54.194-4.323,17.419h16.581s12.774-1.484,46.258-28.194l39.387-62.516-2.096-3.218c-4.436-1.204-2.685-.503-4.814-4.474Z" fill="#e8dbae"/>
      <path d="M216.064,381.548c-14.71-11.71-18.355-16.742-18.355-23.839s1.226-8.581,1.226-8.581c0,0,2.258-3.161,2.258-6.71,0-11.484-8.258-14.065-8.258-14.065l-43.484-17.935-9.677,3.613-15.226,28.903,1.807,16.387,6.323,7.484,20.339-13.308c-.24-1.119-.372-2.277-.372-3.466,0-9.125,7.424-16.548,16.548-16.548s16.548,7.424,16.548,16.548c0,5.428-2.305,10.658-6.355,13.677h0l-9.32,7.945c-6.923,5.902-5.834,16.899,2.112,21.328l109.014,60.759h6.581l4.258-7.645s-61.258-52.839-75.968-64.548Z" fill="#e8dbae"/>
    </g>
    <ellipse cx="229.359" cy="315.061" rx="10.81" ry="10.448" fill="#e8dbae"/>
    <polygon points="202.742 257 209.474 264.355 320.29 264.355 238.036 181.323 223.129 181.323 213.645 189 202.742 257" fill="#e8dbae"/>
    <polygon points="158.227 243.065 152.471 252.684 154.79 257.774 163.264 257.774 167.661 251.858 162.384 243.065 158.227 243.065" fill="#e8dbae"/>
    <path d="M392.442,483.799l-4.882-27.508c6.509-.396,12.385-1.349,17.624-2.858,2.222-.635,4.425-1.429,6.609-2.382,2.183-.953,4.147-2.084,5.895-3.393,1.745-1.31,3.195-2.838,4.346-4.585,1.15-1.746,1.846-3.77,2.084-6.073.316-3.492-.417-6.291-2.203-8.395-1.786-2.103-4.328-3.692-7.621-4.763-3.295-1.072-7.166-1.746-11.611-2.025-4.447-.277-9.151-.357-14.111-.238-4.962.119-10.003.318-15.123.595-5.121.279-10.024.417-14.707.417v-103.125h118.487v47.276h-80.976v25.365c12.147,0,22.149.854,30.009,2.56,7.86,1.708,14.15,4.108,18.875,7.204,4.722,3.096,8.137,6.809,10.241,11.134,2.103,4.328,3.472,9.151,4.109,14.469.396,3.573.298,7.344-.298,11.313-.595,3.971-1.846,7.94-3.751,11.908-1.906,3.971-4.546,7.8-7.919,11.491-3.375,3.692-7.603,7.046-12.682,10.063-5.081,3.018-11.134,5.537-18.16,7.562-7.026,2.025-15.105,3.355-24.233,3.989Z" fill="#e8dbae"/>
    <path d="M371.001,74.513l19.742,32.645,6.452-2.839,29.419,45.548-3.742,5.032,15.097,21.29s6.065-26.71-11.226-57.935c-17.29-31.226-55.742-43.742-55.742-43.742Z" fill="#c2592b"/>
    <path d="M322.871,264.754s-33.032.972-60.774-29.35-24.061-54.484-24.061-54.484l84.835,83.834Z" fill="#c2592b"/>
    <g>
      <path d="M258.084,83.867c-3.051-2.995-6.211-6.225-9.033-9.354-.959.904-1.911,1.819-2.847,2.756-2.973,2.973-5.782,6.067-8.43,9.265,3.469,2.741,6.728,5.614,9.769,8.6" fill="#c2592b"/>
      <path d="M431.603,77.268c-24.761-24.761-57.682-38.397-92.699-38.397-26.212,0-51.249,7.643-72.569,21.871,2.157,2.669,5.176,6.224,8.701,9.876,18.414-11.862,40.336-18.747,63.868-18.747,65.223,0,118.097,52.874,118.097,118.097s-52.874,118.097-118.097,118.097-118.097-52.874-118.097-118.097c0-20.724,5.344-40.197,14.721-57.127-2.243-2.661-5.412-5.83-9.783-9.155-11.694,19.887-17.938,42.604-17.938,66.283,0,35.017,13.636,67.939,38.397,92.699,24.761,24.761,57.682,38.397,92.699,38.397s67.938-13.636,92.699-38.397c24.761-24.761,38.397-57.682,38.397-92.699s-13.636-67.938-38.397-92.699Z" fill="#c2592b"/>
    </g>
    <g opacity=".5">
      <g clip-path="url(#e)">
        <g>
          <path d="M656.766,164.486s-57.288-59.588-159.244-113.81" fill="none" stroke="#e8dbae" stroke-miterlimit="10" stroke-width="35"/>
          <path d="M619.582,186.634s-49.909-47.616-118.273-63.896" fill="none" stroke="#e8dbae" stroke-miterlimit="10" stroke-width="13"/>
          <path d="M697.467,126.61s-30.418-61.961-202.532-146.89" fill="none" stroke="#e8dbae" stroke-miterlimit="10" stroke-width="7.185"/>
          <path d="M697.467,126.61S643.581,62.171,494.935.236" fill="none" stroke="#e8dbae" stroke-miterlimit="10" stroke-width="7.185"/>
        </g>
      </g>
    </g>
  </g>
</svg>