<?xml version="1.0" encoding="UTF-8" standalone="no"?>
<svg
   version="1.1"
   viewBox="0 0 512 512"
   id="svg5"
   sodipodi:docname="tf2c_achievement_win_civilian_nodeaths.svg"
   inkscape:version="1.4.3 (0d15f75, 2025-12-25)"
   xmlns:inkscape="http://www.inkscape.org/namespaces/inkscape"
   xmlns:sodipodi="http://sodipodi.sourceforge.net/DTD/sodipodi-0.dtd"
   xmlns="http://www.w3.org/2000/svg"
   xmlns:svg="http://www.w3.org/2000/svg">
  <sodipodi:namedview
     id="namedview5"
     pagecolor="#ffffff"
     bordercolor="#000000"
     borderopacity="0.25"
     inkscape:showpageshadow="2"
     inkscape:pageopacity="0.0"
     inkscape:pagecheckerboard="0"
     inkscape:deskcolor="#d1d1d1"
     inkscape:zoom="2.2949219"
     inkscape:cx="256"
     inkscape:cy="256"
     inkscape:window-width="2560"
     inkscape:window-height="1377"
     inkscape:window-x="-8"
     inkscape:window-y="534"
     inkscape:window-maximized="1"
     inkscape:current-layer="svg5" />
  <!-- Generator: Adobe Illustrator 30.1.0, SVG Export Plug-In . SVG Version: 2.1.1 Build 136)  -->
  <defs
     id="defs2">
    <linearGradient
       id="Dégradé_sans_nom_5"
       data-name="Dégradé sans nom 5"
       x1="256"
       y1="1.9"
       x2="256"
       y2="505.1"
       gradientUnits="userSpaceOnUse">
      <stop
         offset="0"
         stop-color="#4a2a13"
         id="stop1" />
      <stop
         offset="1"
         stop-color="#230e0b"
         id="stop2" />
    </linearGradient>
    <linearGradient
       data-name="Dégradé sans nom 5"
       x1="256"
       y1="1.9"
       x2="256"
       y2="505.1"
       gradientUnits="userSpaceOnUse"
       id="linearGradient2862">
      <stop
         offset="0"
         stop-color="#4a2a13"
         id="stop1-1"
         style="stop-color:#2e2e2e" />
      <stop
         offset="1"
         stop-color="#230e0b"
         id="stop2-1"
         style="stop-color:#171717" />
    </linearGradient>
  </defs>
  <g
     id="Calque_2">
    <rect
       width="512"
       height="512"
       fill="url(#Dégradé_sans_nom_5)"
       id="rect2"
       style="fill:url(#linearGradient2862)" />
  </g>
  <g
     id="Calque_3">
    <ellipse
       cx="201.7"
       cy="92.1"
       rx="136.4"
       ry="24.8"
       transform="translate(-19.9 85.1) rotate(-22.7)"
       fill="none"
       stroke="#c2592b"
       stroke-miterlimit="10"
       stroke-width="20"
       id="ellipse2"
       style="stroke:#767676" />
    <g
       id="g5">
      <path
         d="M316,512H0v-32.3c1-.2,54.6-70.4,55.7-70.9l33.3-16.7c9.7,2.4,18.7,5,28,8.5l51.2,21.2,65.2,33.7,55.7,36.8c9.1,6.3,19.5,12.4,27,19.8Z"
         fill="#e8dbae"
         id="path2"
         style="fill:#cbcbcb" />
      <path
         d="M387.5,512h-46.3l-42-29.3-57.6-39.1-37.2-18.3c-12.7-6.3-24.8-12.2-38.2-17l-59.4-27.7,21.7-18.2,49.7,21.8,188.3,98.2c5.5,2.9,11.1,7.9,14.8,12.2,3.9,4.7,4,12.2,6.3,17.4Z"
         fill="#e8dbae"
         id="path3"
         style="fill:#cbcbcb" />
      <path
         d="M406,512h-12.7c-.8-10.3-4.8-19.4-10.1-29.4,1.5-.8,4.3-1.8,6-1.9,2,2.3,5.1,5.1,6.3,7.6,3.9,8.1,7.3,15.8,10.5,23.7Z"
         fill="#e8dbae"
         id="path4"
         style="fill:#cbcbcb" />
      <path
         d="M418.9,390.7c2.3,3.8,5.4,8.9,7.4,13.4-.5,5.1-1.8,11.6-3.3,16.5-4.4,5.5-10.3,9.9-15.6,14.2-5.8,27.3,2,23.7-21.4,40.4l-11.4,1.6-73.8-40.2c-8.7-4.7-17.1-8.3-25.6-13.3-4.5-2.7-9-5.2-13.7-7.4l-27.3-12.5-93.5-48.5-6.4-10.9c5.9-32.2.9-19.2,19.4-44.1l-5.1-66.1c-.7-9.5,3.9-20.8,8.3-28.9,5-9.5,12.6-16.8,18.8-25.2,6.4-8.6,14.5-14,24.2-18.2,13-5.7,25.5-11,38.9-15.5l38.7-12.9c5.6-1.9,33.8-2.8,39.8,0,7.5,3.5,11.7,9.9,16.9,15.9l10.6,6c13.4,7.5,39.9,37,50.7,51.2,3.7,4.9,6.7,13.2,7.2,19.3,1.2,14.8-4.4,27.2,3,35.6,7.1,8,11.2,18.6,18.8,26l14.9,14.6c7.1,6.9,4.2,17.6-3,23.5s-4.4,3.6-7.5,5.4l4.3,22.3c-12,5.8-24.3,12.9-31,24.6l18.3-11.2c2.1-1.3,5.9-2.3,7.8,1.1s.5,11.4-3,14.2-8.8,6-13.3,10.7l6.7-1.6ZM241.1,319.4c.5-.6,1.7-2.1,2.5-2.1l40.5,1.3c-6.2-14.4-10.3-29-8.4-44.6.4-3.5,1.6-6.5,4.2-8.9l10.1-8.5,20.5-44.5-9.1-14.1-41.8-18c-4.6-2-9.9-5.1-11.1-10.5s2.2-6.7,4.2-7.8c17.9-9.8,32.6-17.2,54.1-15.3l19.1,1.7-5.1-6.4c-1.8-2.3-5.5-5.1-8.6-5.1-6.2,0-12.5-.8-18.3.3-9.7,1.7-19.5,3.1-28.8,6.3-12.3,4.2-23.2,10.9-35.2,15.8-5.5,2.2-11.8,3-17,5.7-9.3,4.8-17.8,10.1-26.8,15.3l-20.2,26.6c-3.9,5.1-8.6,28.3-8.3,31.9l5.3,62.3c6.5,1.9,15.4-11.4,16.4-16.7,1.3-7.3,1.6-14.2,2.3-21.6.3-2.8,2.6-6.3,3.8-8.9,2.5-5.6,7-8.6,12.5-10.6,7.7-2.8,14.7-2.5,22.3.6,6.4,2.6,12.5,5.5,16.1,12.3,1.5,2.9,4.1,8.2,4.2,11.7.5,19.3-2.4,35.1.8,51.8ZM380.3,231.1l19.4-3.4-5-14.2c-10.4,2-20.3,5.1-29.9,9.2-5.8,10.6-10.5,22-14.6,33.4,6-5.9,9.2-13,15.9-17.3,4.3-2.7,9.2-6.7,14.3-7.6ZM368.1,266.3c5.2-1.9,8.9-6.3,13.4-7.2,4.3-.8,6.4-1.5,9.2-4.5,4.9-5.3,4.7-12.6-.9-17.7-21.7,12.6-13.7,3.7-25.1,23.8-.8,1.5,1.8,6.1,3.4,5.5ZM223,303.6c.6,1.3,4.4,2.2,5.5,1.6s3.1-2.5,3.3-3.9l-4.4-8.1,2.8-18,3.6,9.4c1.3-10.8.9-18.1-6.4-25.5-1.5-1.5-3.9-4.8-5.9-5.2-4.9-1-9.9-2.1-14.7-1.9-2.6.1-7.4,3.7-8.7,5.9-2.1,3.3-3.6,7.7-4.7,11.7,7.2-7.3,19.6-11.7,28-5.8l-12.8,16.5,1.5,8.8,5.7-4.1c2.6,1,5.8,2.4,8.5,3.8l-1.2,14.8ZM231.2,325.9c.2-1,1.7-2.6,1.9-3.4,1.6-6-11.8.7-21.9-5.1-10.2-5.9-17.6-16.1-21.1-27-2.2-6.8-2.6-13.6-4.3-20.3-5.8,37.2.2,26.6,9,49.8.6,1.7,2.9,3.8,4.5,4.4,7.8,3,15,6.4,21.1,12.3l4,16.8c1.8,7.7,5.2,14.2,8.8,21.3,0-16.9-4.7-34-2.1-48.8ZM375.6,411.3c6.6-9.2,11.7-18.4,17.4-28l11.5-46.4v-28.9c-.1,0-4.1,21.7-4.1,21.7l-11.3,48.3c-2.8,11.8-10.8,20.9-13.5,33.4ZM428.4,349.4l-4.2-20.3-11.7-3.8-7.3,39.5,23.2-15.4Z"
         fill="#e8dbae"
         id="path5"
         style="fill:#cbcbcb" />
    </g>
  </g>
</svg>
