<?xml version="1.0" encoding="UTF-8"?>
<svg xmlns="http://www.w3.org/2000/svg" width="512" height="512" xmlns:xlink="http://www.w3.org/1999/xlink" viewBox="0 0 512 512">
  <defs>
    <linearGradient id="c" data-name="Dégradé sans nom 5" x1="256" y1="1.903" x2="256" y2="505.139" gradientUnits="userSpaceOnUse">
      <stop offset="0" stop-color="#4a2a13"/>
      <stop offset="1" stop-color="#230e0b"/>
    </linearGradient>
    <mask id="e" data-name="mask" x="32.742" y="87.968" width="351.484" height="387.097" maskUnits="userSpaceOnUse">
      <g>
        <rect x="32.742" y="87.968" width="351.484" height="387.097" fill="#fff"/>
        <rect x="305.452" y="110.419" width="62.71" height="96.219" transform="translate(27.518 -48.62) rotate(8.607)"/>
      </g>
    </mask>
    <mask id="f" data-name="mask-1" x="126.871" y="133.129" width="325.935" height="390.452" maskUnits="userSpaceOnUse">
      <g>
        <rect x="126.871" y="133.129" width="325.935" height="390.452" fill="#fff"/>
        <path d="M325.839,194.161l12.387,7.484-55.097,100.387-14.968-11.805,57.677-96.066M321.745,177.668l-6.194,10.317-57.678,96.066-5.438,9.057,8.295,6.542,14.968,11.805,11.13,8.778,6.82-12.427,55.097-100.387,5.539-10.092-9.853-5.953-12.387-7.484-10.299-6.223h0Z"/>
      </g>
    </mask>
    <mask id="g" data-name="mask-2" x="471.903" y="0" width="702.968" height="552.226" maskUnits="userSpaceOnUse"/>
  </defs>
  <g id="a" data-name="Calque 1">
    <image width="512" height="512" xlink:href="18.png"/>
  </g>
  <g id="b" data-name="Calque 2">
    <rect width="512" height="512" fill="url(#c)"/>
  </g>
  <g id="d" data-name="Calque 3">
    <path d="M0,228.097s28.29-80.328,48.419-86.522c20.129-6.194,63.226-50.252,63.226-50.252l19.613-20.129s10.839-25.29,28.387-25.29,21.677,22.71,21.677,22.71v44.387l-21.677,30.452-28.903,16.516-20.645,27.871,1.548,36.645s-26.839,20.645-18.065,207.484l14.839-69.161s41.419,104.903,156.387,104.903c34.452,0,55.355-10.065,55.355-10.065,0,0-80.93,24.774-98.736,41.419,0,0-26.812,5.355-27.973,12.935H0V228.097Z" fill="#c2592b"/>
    <path d="M295.387,121.065s12.968-2.129,26.323-21.097c0,0,20.129-7.742,28.452-6.194s38.903,13.543,38.903,13.543l11.806,10.844,3.871,12.774-17.032,39.097-16.258,19.548h-8.903l-25.161-8.516s-13.935-7.161-14.129-9.29-6-7.548-4.258-15.29,5.419-18.194,5.419-18.194l-16.452-6.968-12.581-1.548v-8.71Z" fill="#c2592b"/>
    <polygon points="393.323 256 387.903 249 379 223.839 379 210.29 386.161 198.097 426.613 175.839 439.581 175.839 460.097 202.742 464.161 222.484 459.903 234.484 393.323 256" fill="#c2592b"/>
    <path d="M398.935,272.613l55.161-14.516,10.065,4.645,2.516,16.21s.387,10.694-1.161,16.306c-1.548,5.613-6.387,14.71-12,18,0,0-13.935,3.677-24.774,3.677s-15.677,0-21.677-3.29c0,0-4.452-10.645-6.581-27.871l-1.548-13.161Z" fill="#c2592b"/>
    <path d="M440.419,338.548s9.29,5.419,7.742,18.581c-1.548,13.161-4.903,36.903-4.903,36.903,0,0-4.903,7.742-12.387,8.516s-28.645-3.097-28.645-3.097l-23.226-3.613-5.419-12.903s6.452-30.968,12.129-44.387c0,0,6.71-5.677,12.129-4.903s42.581,4.903,42.581,4.903Z" fill="#c2592b"/>
    <path d="M317.839,70.161c0-23.303-21.583-42.194-48.207-42.194s-48.207,18.891-48.207,42.194c0,19.365,14.91,35.671,35.226,40.633v27.302h25.962v-27.302c20.316-4.962,35.226-21.269,35.226-40.633ZM269.632,99.194c-16.683,0-30.207-12.998-30.207-29.032s13.524-29.032,30.207-29.032,30.207,12.998,30.207,29.032-13.524,29.032-30.207,29.032Z" fill="#e8dbae"/>
    <g>
      <path d="M358.842,386.787c-23.225,22.08-54.634,35.632-89.21,35.632-71.519,0-129.497-57.978-129.497-129.497,0-.45.012-.897.017-1.346l-.008.002-27.459-1.351c-.015.897-.034,1.794-.034,2.695,0,86.698,70.283,156.981,156.981,156.981,42.699,0,81.409-17.056,109.71-44.717l-17.245-4.058-3.255-14.342Z" fill="#e8dbae"/>
      <g mask="url(#e)">
        <path d="M269.632,141.941c12.924,0,25.738,1.638,38.158,4.873l-.309,8.031-.302,7.86c-12.167-3.506-24.761-5.28-37.546-5.28-71.95,0-131.429,56.943-135.288,128.123l-15.487-.762c2.054-37.614,17.854-72.704,44.864-99.345,28.438-28.051,66.052-43.5,105.911-43.5M269.632,135.941c-85.797,0-155.541,69.093-156.981,154.547l27.459,1.351.042-.262c.723-70.898,58.411-128.152,129.48-128.152,15.164,0,29.715,2.615,43.238,7.405l.606-15.754.491-12.775c-14.061-4.132-28.937-6.36-44.336-6.36h0Z" fill="#e8dbae"/>
      </g>
    </g>
    <polygon points="181.839 165.516 175 153.516 199.258 109.645 211.903 133.645 200.548 139.968 207 151.452 181.839 165.516" fill="#e8dbae"/>
    <g mask="url(#f)">
      <g>
        <path d="M269.632,183.194c-60.601,0-109.729,49.127-109.729,109.729s49.127,109.729,109.729,109.729,109.729-49.127,109.729-109.729-49.127-109.729-109.729-109.729ZM269.632,393c-55.271,0-100.078-44.806-100.078-100.078s44.806-100.078,100.078-100.078,100.078,44.806,100.078,100.078-44.806,100.078-100.078,100.078Z" fill="#e8dbae"/>
        <polygon points="276.806 203.065 275.387 225.129 261.968 225.129 260.677 203.065 276.806 203.065" fill="#e8dbae"/>
        <polygon points="227.774 238.161 218.355 247.323 201.839 232.742 214.806 221 227.774 238.161" fill="#e8dbae"/>
        <polygon points="194.355 286.032 194.355 299.968 177.968 301 177.968 282.419 194.355 286.032" fill="#e8dbae"/>
        <polygon points="209.452 338.161 195.129 346.29 207.903 359.839 219.258 349 209.452 338.161" fill="#e8dbae"/>
        <polygon points="267 366.419 264.548 385.903 282.871 385.903 279 366.419 267 366.419" fill="#e8dbae"/>
        <polygon points="317.71 347.839 328.806 363.71 342.484 351.065 326.613 339.323 317.71 347.839" fill="#e8dbae"/>
        <polygon points="339 285 339 300.097 357.323 300.097 357.323 281.258 339 285" fill="#e8dbae"/>
        <polygon points="325.323 249.129 316.548 241.129 326.355 228.355 339.645 237.903 325.323 249.129" fill="#e8dbae"/>
      </g>
    </g>
    <polygon points="283.129 302.032 338.226 201.645 325.839 194.161 268.161 290.227 283.129 302.032" fill="#c2592b"/>
    <g mask="url(#g)">
      <g>
        <polygon points="545.623 531.5 486.613 394.87 573.641 387.803 640.226 370.981 640.226 317.515 692.007 304.104 707.059 253.499 689.84 243.21 694.299 186.208 718.449 176.176 729.586 131.63 745.747 89.564 806.273 50.427 875.218 60.98 918.287 102.99 940.065 176.104 960.876 193.887 969.857 244.57 949.154 256.342 965.417 306.181 1013.738 317.883 1020.926 371.605 1080.306 398.044 1164.3 427.503 1155.315 542.064 545.623 531.5" fill="#c2592b"/>
        <path d="M808.514,60.887l62.019,9.493,38.912,37.955,20.194,67.794,1.686,5.659,4.489,3.836,15.841,13.537,7.125,40.205-7.472,4.249-14.192,8.07,5.064,15.52,12,36.774,3.461,10.607,10.844,2.626,36.247,8.779,5.54,41.404,1.482,11.074,10.207,4.544,53.903,24,.746.332.77.27,76.348,26.777-7.648,97.511-593.835-10.289-50.922-117.905,72.296-5.871,1.662-.135,1.617-.409,58.226-14.71,15.101-3.815v-53.515l38.821-10.054,10.935-2.832,3.22-10.827,11.226-37.742,4.431-14.897-13.342-7.973-5.224-3.122,3.497-44.713,13.849-5.753,9.291-3.859,2.44-9.76,9.769-39.074,14.774-38.455,54.601-35.305M804.032,39.968l-66.452,42.968-17.548,45.677-10.064,40.258-25.161,10.452-5.419,69.29,15.871,9.484-11.226,37.742-53.806,13.935v53.419l-58.226,14.71-100.097,8.129,67.097,155.355,625.548,10.839,10.323-131.613-90.871-31.871-53.903-24-7.355-54.968-49.548-12-12-36.774,19.742-11.226-10.839-61.161-21.29-18.194-21.677-72.774-47.226-46.065-75.871-11.613h0Z" fill="#e8dbae"/>
      </g>
    </g>
  </g>
</svg>