<?xml version="1.0" encoding="UTF-8"?>
<svg id="Calque_1" xmlns="http://www.w3.org/2000/svg" version="1.1" xmlns:xlink="http://www.w3.org/1999/xlink" viewBox="0 0 512 512">
  <!-- Generator: Adobe Illustrator 30.1.0, SVG Export Plug-In . SVG Version: 2.1.1 Build 136)  -->
  <defs>
    <linearGradient id="Dégradé_sans_nom" data-name="Dégradé sans nom" x1="256" y1="510.1" x2="256" y2="6.9" gradientTransform="translate(0 512) scale(1 -1)" gradientUnits="userSpaceOnUse">
      <stop offset="0" stop-color="#4a2a13"/>
      <stop offset="1" stop-color="#230e0b"/>
    </linearGradient>
    <mask id="mask" x="0" y="0" width="512" height="512" maskUnits="userSpaceOnUse">
      <g id="mask1" data-name="mask">
        <g>
          <rect width="512" height="512" fill="#fff"/>
          <path d="M216.3,444.1l11-19c4.4,2.8,8.5,4.9,12.2,6.3,3.8,1.4,7.2,2.3,10.3,2.7,3.1.4,5.8.3,8.2-.2s4.4-1.2,6-2.2c1.6-.9,2.7-2,3.5-3.2s1.1-2.3.9-3.4c-.3-2.3-1.2-4.2-2.6-5.8-1.4-1.5-3.1-2.8-5.1-3.7-2-.9-4.3-1.6-6.8-2.1-2.5-.5-5.1-.8-7.7-.9-2.6-.2-5.1-.2-7.5-.2h-6.4l-.2-20.4c7.9,0,14.8-.7,20.5-2.1s10.1-3.2,13.3-5.5,5.1-4.9,5.8-7.8c.7-2.9,0-5.9-2.1-9-1.8-2.6-4.3-4.3-7.7-5-3.4-.7-7.2-.6-11.6.3-4.4.9-9,2.6-14,5s-9.8,5.4-14.6,9l-20.4-32.1c.8-.7,2.1-1.7,3.8-3,1.8-1.3,4-2.8,6.5-4.5,2.6-1.6,5.5-3.3,8.8-5.1,3.2-1.8,6.7-3.4,10.5-4.8,3.7-1.4,7.7-2.6,11.9-3.5s8.4-1.4,12.7-1.4,6.5.2,10.2.5c3.7.4,7.5,1,11.4,2.1,3.8,1,7.6,2.4,11.3,4.2,3.7,1.8,7.1,4.1,10.1,6.8,3,2.8,5.6,6.1,7.7,10s3.5,8.5,4.1,13.8c.5,3.7.3,7.2-.4,10.4-.8,3.2-1.9,6.2-3.4,8.9-1.5,2.7-3.3,5.1-5.4,7.3-2.1,2.2-4.3,4.2-6.5,6-5.3,4.1-11.5,7.4-18.5,10.1,4.7,1.6,8.6,3.8,11.9,6.6,1.4,1.2,2.7,2.5,3.9,4.1,1.2,1.5,2.3,3.3,3.1,5.2.8,1.9,1.3,4.1,1.5,6.4s0,4.9-.7,7.7c-1.1,4.5-3.2,8.4-6.3,11.8-3.1,3.4-6.9,6.2-11.4,8.4-4.5,2.2-9.4,3.7-14.7,4.6-5.3.9-10.8,1-16.3.3-5.5-.6-11-2.1-16.3-4.3-7.9-2.7-14.5-9.3-14.5-9.3Z" stroke="#000" stroke-miterlimit="10" stroke-width="37"/>
          <path d="M270.5,101.6v16.9h-29.1v-16.9h29.1M276.5,95.6h-41.1v28.9h41.1v-28.9h0Z"/>
        </g>
      </g>
    </mask>
    <mask id="mask-1" x="97.6" y="84.8" width="340.4" height="343.2" maskUnits="userSpaceOnUse">
      <g id="mask-11" data-name="mask-1">
        <g>
          <rect x="97.6" y="84.8" width="340.4" height="343.2" fill="#fff"/>
          <path d="M308.7,172l7.4,5.1-53.9,83.2-12.4-8.6,58.8-79.8M307.1,162.4l-4,5.5-58.8,79.8-4.3,5.8,5.9,4.1,12.4,8.6,5.9,4.1,3.9-6.1,53.9-83.2,3.7-5.7-5.6-3.9-7.4-5.1-5.6-3.9h0Z"/>
        </g>
      </g>
    </mask>
    <mask id="mask-2" x="169.1" y="150.2" width="164.1" height="165" maskUnits="userSpaceOnUse">
      <g id="mask-21" data-name="mask-2">
        <g>
          <rect x="169.1" y="167.6" width="164.1" height="147.6" fill="#fff"/>
          <g>
            <polygon points="244.4 256.8 272.1 154.4 287.5 158 266 262 244.4 256.8"/>
            <path d="M274.6,158.6l8.8,2.1-20.1,97.1-14.6-3.5,25.9-95.7M269.6,150.2l-1.8,6.6-25.9,95.7-1.9,7,7,1.7,14.6,3.5,7,1.7,1.5-7.1,20.1-97.1,1.4-6.7-6.6-1.6-8.8-2.1-6.6-1.6h0Z"/>
          </g>
        </g>
      </g>
    </mask>
    <mask id="mask-3" x="-6.9" y="-13.7" width="524.4" height="542.7" maskUnits="userSpaceOnUse">
      <g id="mask-31" data-name="mask-3">
        <g>
          <rect x="-6.9" y="-4.3" width="524.4" height="523.9" fill="#fff"/>
          <g>
            <rect x="234.5" y="94.6" width="43.1" height="36.1" fill="#fff"/>
            <path d="M270.5,101.6v22.1h-29.1v-22.1h29.1M284.5,87.6h-57.1v50.1h57.1v-50.1h0Z"/>
          </g>
          <g>
            <rect x="231.7" y="77.8" width="48.5" height="26.8" fill="#fff"/>
            <path d="M273.3,84.8v12.8h-34.5v-12.8h34.5M287.3,70.8h-62.5v40.8h62.5v-40.8h0Z"/>
          </g>
          <g>
            <rect x="231.7" y="69.3" width="48.5" height="18.5" fill="#fff"/>
            <path d="M273.3,76.3v4.5h-34.5v-4.5h34.5M287.3,62.3h-62.5v32.5h62.5v-32.5h0Z"/>
          </g>
          <g>
            <path d="M256,126.8c-24,0-43.5-19.5-43.5-43.5s19.5-43.5,43.5-43.5,43.5,19.5,43.5,43.5-19.5,43.5-43.5,43.5ZM256,63.8c-10.8,0-19.5,8.8-19.5,19.5s8.8,19.5,19.5,19.5,19.5-8.8,19.5-19.5-8.8-19.5-19.5-19.5Z" fill="#fff"/>
            <path d="M256,46.8c20.1,0,36.5,16.4,36.5,36.5s-16.4,36.5-36.5,36.5-36.5-16.4-36.5-36.5,16.4-36.5,36.5-36.5M256,109.8c14.6,0,26.5-11.9,26.5-26.5s-11.9-26.5-26.5-26.5-26.5,11.9-26.5,26.5,11.9,26.5,26.5,26.5M256,32.8c-27.9,0-50.5,22.7-50.5,50.5s22.7,50.5,50.5,50.5,50.5-22.7,50.5-50.5-22.7-50.5-50.5-50.5h0ZM256,95.8c-6.9,0-12.5-5.6-12.5-12.5s5.6-12.5,12.5-12.5,12.5,5.6,12.5,12.5-5.6,12.5-12.5,12.5h0Z"/>
          </g>
          <polyline points="306.2 521.7 248.5 446.2 298.2 381.1" fill="none" stroke="#000" stroke-miterlimit="10" stroke-width="24"/>
          <polyline points="509.4 345.6 415.1 357.8 383.7 282.2" fill="none" stroke="#000" stroke-miterlimit="10" stroke-width="24"/>
          <polyline points="458.5 81.5 421.9 169.3 340.7 158.7" fill="none" stroke="#000" stroke-miterlimit="10" stroke-width="24"/>
          <polyline points="204.3 -6.4 262 69.1 212.3 134.2" fill="none" stroke="#000" stroke-miterlimit="10" stroke-width="24"/>
          <polyline points="1.1 169.7 95.4 157.5 126.9 233.1" fill="none" stroke="#000" stroke-miterlimit="10" stroke-width="24"/>
          <polyline points="52 433.8 88.6 346 169.8 356.6" fill="none" stroke="#000" stroke-miterlimit="10" stroke-width="24"/>
          <circle cx="255.3" cy="82.4" r="41.3"/>
        </g>
      </g>
    </mask>
  </defs>
  <g id="Calque_2">
    <rect width="512" height="512" fill="url(#Dégradé_sans_nom)"/>
  </g>
  <g id="Calque_3">
    <g mask="url(#mask)">
      <g>
        <path d="M256,127.7c-70.9,0-128.3,57.4-128.3,128.3s57.4,128.3,128.3,128.3,128.3-57.4,128.3-128.3-57.4-128.3-128.3-128.3h0ZM256,361.6c-58.3,0-105.6-47.3-105.6-105.6s47.3-105.6,105.6-105.6,105.6,47.3,105.6,105.6-47.3,105.6-105.6,105.6Z" fill="#e8dbae"/>
        <g>
          <rect x="241.5" y="101.6" width="29.1" height="22.1" fill="#e8dbae"/>
          <rect x="238.7" y="84.8" width="34.5" height="12.8" fill="#e8dbae"/>
          <rect x="238.7" y="76.3" width="34.5" height="4.5" fill="#e8dbae"/>
          <path d="M256,119.8c-20.1,0-36.5-16.4-36.5-36.5s16.4-36.5,36.5-36.5,36.5,16.4,36.5,36.5-16.4,36.5-36.5,36.5ZM256,56.8c-14.6,0-26.5,11.9-26.5,26.5s11.9,26.5,26.5,26.5,26.5-11.9,26.5-26.5-11.9-26.5-26.5-26.5Z" fill="#e8dbae"/>
        </g>
        <rect x="252.1" y="156.9" width="7.8" height="18.5" fill="#e8dbae"/>
        <rect x="188.6" y="183.2" width="7.8" height="18.5" transform="translate(-79.7 192.5) rotate(-45)" fill="#e8dbae"/>
        <rect x="156.9" y="252.1" width="18.5" height="7.8" fill="#e8dbae"/>
        <rect x="183.2" y="315.6" width="18.5" height="7.8" transform="translate(-169.5 229.7) rotate(-45)" fill="#e8dbae"/>
        <rect x="252.1" y="336.6" width="7.8" height="18.5" fill="#e8dbae"/>
        <rect x="315.6" y="310.3" width="7.8" height="18.5" transform="translate(-132.4 319.5) rotate(-45)" fill="#e8dbae"/>
        <rect x="336.6" y="252.1" width="18.5" height="7.8" fill="#e8dbae"/>
        <rect x="310.3" y="188.6" width="18.5" height="7.8" transform="translate(-42.5 282.3) rotate(-45)" fill="#e8dbae"/>
        <g mask="url(#mask-1)">
          <g>
            <g mask="url(#mask-2)">
              <path d="M256,224.2c-17.5,0-31.8,14.2-31.8,31.8s14.2,31.8,31.8,31.8,31.8-14.2,31.8-31.8-14.2-31.8-31.8-31.8h0ZM256,277.6c-11.9,0-21.6-9.7-21.6-21.6s9.7-21.6,21.6-21.6,21.6,9.7,21.6,21.6-9.7,21.6-21.6,21.6Z" fill="#e8dbae"/>
            </g>
            <polygon points="283.4 160.7 274.6 158.6 248.7 254.2 263.3 257.7 283.4 160.7" fill="#c2592b"/>
          </g>
        </g>
        <polygon points="316.1 177.1 308.7 172 249.8 251.7 262.2 260.3 316.1 177.1" fill="#e8dbae"/>
        <g mask="url(#mask-3)">
          <g>
            <path d="M496.8,256c0-133-107.8-240.8-240.8-240.8,0,0-25.7,1-38.2,3l35.4,47.9-29.1,47.5c10.3-2.3,21-3.5,31.9-3.5,80.5,0,145.8,65.3,145.8,145.8s-53.7,133.6-123.9,144.2l-25.9,42,32.4,53c119.6-14.1,212.3-115.8,212.3-239.1h0Z" fill="#c2592b"/>
            <path d="M278,400.2c-7.2,1.1-14.5,1.6-22,1.6-80.5,0-145.8-65.3-145.8-145.8s48.7-127.8,113.9-142.3l29.1-47.5-35.4-47.9C103,36.5,15.2,136,15.2,256s107.8,240.8,240.8,240.8,19.2-.6,28.5-1.7l-32.4-53,25.9-42h0Z" fill="#c2592b" isolation="isolate" opacity=".5"/>
          </g>
        </g>
      </g>
    </g>
    <path d="M216.3,444.1l11-19c4.4,2.8,8.5,4.9,12.2,6.3,3.8,1.4,7.2,2.3,10.3,2.7,3.1.4,5.8.3,8.2-.2s4.4-1.2,6-2.2c1.6-.9,2.7-2,3.5-3.2s1.1-2.3.9-3.4c-.3-2.3-1.2-4.2-2.6-5.8-1.4-1.5-3.1-2.8-5.1-3.7-2-.9-4.3-1.6-6.8-2.1-2.5-.5-5.1-.8-7.7-.9-2.6-.2-5.1-.2-7.5-.2h-6.4l-.2-20.4c7.9,0,14.8-.7,20.5-2.1s10.1-3.2,13.3-5.5,5.1-4.9,5.8-7.8c.7-2.9,0-5.9-2.1-9-1.8-2.6-4.3-4.3-7.7-5-3.4-.7-7.2-.6-11.6.3-4.4.9-9,2.6-14,5s-9.8,5.4-14.6,9l-20.4-32.1c.8-.7,2.1-1.7,3.8-3,1.8-1.3,4-2.8,6.5-4.5,2.6-1.6,5.5-3.3,8.8-5.1,3.2-1.8,6.7-3.4,10.5-4.8,3.7-1.4,7.7-2.6,11.9-3.5s8.4-1.4,12.7-1.4,6.5.2,10.2.5c3.7.4,7.5,1,11.4,2.1,3.8,1,7.6,2.4,11.3,4.2,3.7,1.8,7.1,4.1,10.1,6.8,3,2.8,5.6,6.1,7.7,10s3.5,8.5,4.1,13.8c.5,3.7.3,7.2-.4,10.4-.8,3.2-1.9,6.2-3.4,8.9-1.5,2.7-3.3,5.1-5.4,7.3-2.1,2.2-4.3,4.2-6.5,6-5.3,4.1-11.5,7.4-18.5,10.1,4.7,1.6,8.6,3.8,11.9,6.6,1.4,1.2,2.7,2.5,3.9,4.1,1.2,1.5,2.3,3.3,3.1,5.2.8,1.9,1.3,4.1,1.5,6.4s0,4.9-.7,7.7c-1.1,4.5-3.2,8.4-6.3,11.8-3.1,3.4-6.9,6.2-11.4,8.4-4.5,2.2-9.4,3.7-14.7,4.6-5.3.9-10.8,1-16.3.3-5.5-.6-11-2.1-16.3-4.3-5.3-2.3-10.2-5.4-14.5-9.4h0Z" fill="#e8dbae"/>
  </g>
</svg>