<svg xmlns="http://www.w3.org/2000/svg" width="128" height="128" viewBox="0 0 128 128">
  <defs>
    <style>
      .cls-1 {
        fill: #fff;
        fill-rule: evenodd;
      }
    </style>
  </defs>
  <path class="cls-1" d="M94,105H34a2,2,0,0,1-2-2V71.014a2,2,0,0,1,2-2h3V68a2,2,0,0,1,2-2h6a2,2,0,0,1,2,2v1.014h4.657L55,64h3V60H56V55.685a24.985,24.985,0,0,0,16,0V60H70v4h3l3.343,5.014H80V67H92v2.014h2a2,2,0,0,1,2,2V103A2,2,0,0,1,94,105ZM70,66H58v6H70V66Zm-6,9A12,12,0,1,0,76,87,12,12,0,0,0,64,75Zm0,22A10,10,0,1,1,74,87,10,10,0,0,1,64,97Zm0-18a8,8,0,1,0,8,8A8,8,0,0,0,64,79Zm0-24A23,23,0,1,1,87,32,23,23,0,0,1,64,55Zm0-30a7,7,0,1,0,7,7A7,7,0,0,0,64,25Z"/>
</svg>
