<?xml version="1.0" encoding="UTF-8"?>
<svg id="killicon_vip" data-name="killicon vip" xmlns="http://www.w3.org/2000/svg" viewBox="0 0 96 96">
  <defs>
    <style>
      .cls-1 {
        fill: #fff;
        fill-rule: evenodd;
      }
    </style>
  </defs>
  <path id="Rectangle_1_copy_12" data-name="Rectangle 1 copy 12" class="cls-1" d="M48,0c3.68,0,10.65,1.16,12.82,2.4,2.18,1.24,4.81,5.7,4.81,5.7l9.27,7.2,6.98,2.7.9,16.2c2.27.79,4.48,1.77,6.59,2.93,1.72,1.23,2.7,3.24,2.61,5.36-.34,5.69-1.99,16.51-1.99,16.51l-4,1v6c0,9.98-.93,13.59-9.28,20.11-5.91,4.62-14.4,9.89-14.4,9.89h-28.66s-8.48-5.27-14.4-9.89c-8.34-6.52-9.27-10.13-9.27-20.11v-6l-4-1s-1.65-10.83-1.99-16.52c-.09-2.11.89-4.13,2.61-5.36,2.11-1.16,4.32-2.14,6.59-2.93l.9-16.2,6.98-2.7,9.27-7.2s2.64-4.46,4.82-5.7,9.14-2.4,12.82-2.4ZM79,44l1-5,6,3-1,12-4,1-2-11ZM17,44l-1-5-6,3,1,12,4,1,2-11ZM48,14c5.36,0,11.32-2.9,11.32-2.9l10.83,6.9,4.85,12-3,14,2,21s6.54.93,7,1c0,4.55.7,10.2-8,16-6.59,4.39-12,8-12,8h-26s-5.41-3.61-12-8c-8.7-5.8-8-11.45-8-16l7-1,2-21-3-14,4.85-12,10.83-6.9s5.96,2.9,11.32,2.9ZM44,71c-2.42.33-4.77,1-7,2-2.84,1.37-5.52,3.05-8,5-.19-3.45.5-6.89,2-10,1.24-2.89,3.33-5.34,6-7l7,2v8ZM44,53l-5,5-4-5-4,5-5-5,5-4-5-4,5-5,4,5,4-5,5,5-5,4,5,4ZM34,24c2.87-1.08,5.96-1.42,9-1l1,7s-3.74.24-7.33.72c-2.51.33-5.38,2.52-6.67,4.28-1.55,2.05-3.2,4.02-4.96,5.89l2.96-11.89c1.6-2.09,3.65-3.8,6-5ZM52,71c2.42.33,4.77,1,7,2,2.84,1.37,5.52,3.05,8,5,.19-3.45-.5-6.89-2-10-1.24-2.89-3.33-5.34-6-7l-7,2v8ZM52,53l5,5,4-5,4,5,5-5-5-4,5-4-5-5-4,5-4-5-5,5,5,4-5,4ZM62,24c-2.87-1.08-5.96-1.42-9-1l-1,7s3.74.24,7.33.72c2.51.33,5.38,2.52,6.67,4.28,1.55,2.05,3.2,4.02,4.96,5.89l-2.96-11.89c-1.6-2.09-3.65-3.8-6-5Z"/>
</svg>