<?xml version="1.0" encoding="UTF-8"?>
<svg id="Layer_1" data-name="Layer 1" class="color" xmlns="http://www.w3.org/2000/svg" xmlns:xlink="http://www.w3.org/1999/xlink" viewBox="0 0 117 32">
  <defs>
    <style>
      .cls-1 {
        fill: url(#linear-gradient);
      }
    </style>
    <linearGradient id="linear-gradient" x1="71.71" y1="16.59" x2="99.45" y2="16.59" gradientUnits="userSpaceOnUse">
      <stop offset=".68" stop-color="#000" stop-opacity=".5"/>
      <stop offset="1" stop-color="#000"/>
    </linearGradient>
  </defs>
  <g>
    <path d="M70.06,17.98h-1.77v-3.78h1.77c.4,0,.4,3.78,0,3.78Z"/>
    <path d="M44.36,20.54v2.15c0,.32-.23.57-.52.57h-1.27l-.66,1.01h-2.34c-.18,0-.33-.16-.33-.37v-.04h-3.43v-2.44l.68.27c.31.12.63.18.96.18.2,0,.41-.02.61-.07l3.72-.88c.45-.08.88-.28,1.22-.56.15-.12.28-.25.4-.39h.46c.29,0,.52.26.52.57Z"/>
    <path d="M42.52,13.66v4.97c-.07.25-.22.47-.42.64-.18.14-.39.24-.63.28l-3.76.89c-.24.06-.5.04-.73-.05l-1.19-.47v-7.56l1.19-.47c.23-.1.49-.11.73-.06l3.76.9c.52.08.93.46,1.05.93Z"/>
    <path d="M67.83,12.81h-.87v5.16c0,.25-.13.46-.31.47-1.05.05-2.1-.01-3.15-.18-.45-.07-.89-.24-1.32-.5l-.27-.17-.66.51c-.13.1-.31.1-.43-.01l-.97-.82-16.15.71v-3.78l16.15.71.97-.82c.12-.11.3-.11.43-.01l.66.5.27-.17c.26-.15.52-.27.79-.36l2.84-1.25c-.2-1.53-.2-3.06,0-4.59h2.02c.19,1.54.19,3.07,0,4.6Z"/>
    <path d="M16.42,26.97h-1.6v-3.92h1.51c0,.13-.01.26-.01.39-.04,1.18,0,2.36.11,3.53Z"/>
    <path d="M10.7,22.39l3.2.18v4.88l-3.2.18c-.89,0-.89-5.25,0-5.25Z"/>
    <path d="M16.64,19.86c-.13.84-.23,1.68-.29,2.53h-1.27l.36-2.53h1.2Z"/>
    <path d="M29.7,16.59h-2.65v15.41h2.65c.99,0,.99-15.41,0-15.41Z"/>
    <path d="M25.79,30.86h-6.11c-.77,0-1.43-.54-1.57-1.3-.69-3.5-.69-7.02,0-10.54.15-.75.81-1.3,1.57-1.3h6.1v13.14Z"/>
    <path d="M4.67,17.48h1.9s0-4.18,0-4.18h-1.9c-.89,0-.89,4.18,0,4.18Z"/>
    <path d="M32.65,9.01h-2.59l-1.02-7.71c-.07-.55.23-1.05.66-1.1L31.33,0c.43-.05.82.37.85.92l.47,8.08Z"/>
    <path d="M34.39,10.21v14.61c0,.6-.53,1.08-1.19,1.08h-1.45v-1.61c0-2.06-.07-3.98-.19-5.41-.15-1.69-.31-3.6-1.86-3.6h-3.96v1.14h-6.06c-1.39,0-2.59.99-2.86,2.35h0c0,.05-.02.1-.03.15h-2.17l-.39,2.73-3.49-.2h-.05c-.48,0-1.12.27-1.41,1.54-.1.44-.16.98-.18,1.58h-.8c-.36,0-.64-.3-.61-.66l.24-3.19c.02-.32.29-.57.61-.57h1.15v-1.53l-1.7-.18c-.29-.03-.51-.27-.51-.57v-5.64l17.18.02.32-1.38c.09-.4.45-.68.86-.68h8.56Z"/>
    <path d="M26.45,7.47h-3.17c-.55,0-1.09-.15-1.55-.43l-1.99-1.22c-.69-.42-1.53-.39-2.18.03l-2.14-1.72c-.95-.76-2.31-.74-3.23.06l-3.04,2.62c-.51.44-.8,1.08-.8,1.75v.3h-.88v1.49h.88v.87h1.49v-.87h4.21c1.01,0,1.96-.45,2.61-1.22l1.46-1.75c.25-.31.69-.38,1.03-.17l1.66,1.01c.79.49,1.71.74,2.64.74h4.25v-.24c0-.69-.56-1.25-1.25-1.25ZM15.46,8.23c-.33.4-.82.63-1.34.63h-4.28v-.05c0-.4.17-.77.47-1.03l2.82-2.44c.4-.34.98-.35,1.39-.02l2.02,1.62-1.08,1.29Z"/>
  </g>
  <g>
    <polygon points="99.45 14.33 102.56 14.33 103.41 14.7 109.51 14.7 112.98 15.56 113 16.46 109.42 17.51 103.46 17.5 102.44 17.85 99.45 17.85 99.45 14.33"/>
    <polygon class="cls-1" points="99.45 14.33 82.41 14.33 80.54 13.62 86.33 7.25 77.81 11.02 78.62 6.97 71.71 13.18 75.07 12.04 73.15 15.34 79.8 15.78 74.36 17.67 75.76 19.06 72.32 19.96 80.11 26.21 78.62 21.33 89.62 21.94 82.24 17.85 99.45 17.85 99.45 14.33"/>
  </g>
</svg>