<?xml version="1.0" encoding="UTF-8"?>
<svg id="Layer_1" class="color" data-name="Layer 1" xmlns="http://www.w3.org/2000/svg" viewBox="0 0 65 32">
  <defs>
    <style>
      .cls-1 {
        opacity: .5;
      }
    </style>
  </defs>
  <polygon class="cls-1" points="50.71 25.25 47.21 22.96 48.3 17.43 42.28 18.35 45.82 10.87 45.79 16 59.89 9.08 50.92 22.1 61 22.28 53.2 26.7 59.66 30.57 47.45 29.86 49.24 28.03 47.45 26.25 50.71 25.25"/>
  <g>
    <polygon points="18.55 26.49 18.55 26.5 17.56 23.43 23.91 19.33 32.04 15.77 29.12 11.23 22.52 17.18 16.17 21.28 13.78 19.1 10.81 20.06 16.45 28.81 18.55 26.49"/>
    <polygon points="39.49 12.61 39.49 12.61 39.38 7.83 35.07 5.76 29.89 8.79 29.62 9.99 33.39 15.83 34.59 16.08 39.49 12.61"/>
    <path d="M29.12,2.74c-1.85-.84-3.91-1.27-4.85-1.44l-2-1.29-5.35,1.27-1.29.83,4.54,1.76,3.54.17c.68.27,1.91.8,3.07,1.42,1.66.89,2.97,2.28,2.97,2.28l3.84-2.31s-2.35-1.73-4.48-2.69Z"/>
    <path d="M39.8,19.3c0,2.03-.45,4.09-.69,5.01l.35,2.36-3.36,4.35-1.29.83.27-4.86,1.31-3.3c.03-.73.06-2.07-.03-3.39-.13-1.88-.85-3.64-.85-3.64l3.69-2.55s.6,2.85.6,5.19Z"/>
    <path d="M12.46,26.71l1.14-.74-1.39-2.15-1.14.74c-1.35-1-3.34-1.07-4.96-.02-2.04,1.31-2.72,3.88-1.53,5.73s3.81,2.29,5.85.97c1.62-1.05,2.39-2.89,2.03-4.53ZM5.75,29.52c-.69-1.06-.38-2.48.68-3.16s2.48-.38,3.16.68.38,2.48-.68,3.16-2.48.38-3.16-.68Z"/>
  </g>
</svg>