<?xml version="1.0" encoding="UTF-8"?>
<svg id="Layer_1" data-name="Layer 1" class="color" xmlns="http://www.w3.org/2000/svg" viewBox="0 0 43 32">
  <defs>
    <style>
      .cls-1 {
        opacity: .5;
      }
    </style>
  </defs>
  <g>
    <path d="M24.23,20.05l-.54.66,4.75,3.43,10.76.2c1.42.02,2.57,1.19,2.57,2.62v.14c0,1.47-1.21,2.65-2.67,2.62h-10.64c-.88,0-1.75-.27-2.48-.78l-5.73-4.02-2.63,3.2c-.85,1.06-1.42,2.55-1.65,3.88H4.69l.19-1.45c.22-1.65.88-3.22,1.89-4.55l4.5-5.94,6.32-8.34c1.18-1.56,3.42-1.86,4.98-.64l7.07,5.56,9.84-3.64c.3-.11.61-.16.9-.16,1.04,0,2.03.63,2.43,1.65.55,1.37-.14,2.92-1.53,3.42l-5.48,2.14-4.5,1.75c-1.38.53-2.93.32-4.13-.55l-1.64-1.2-.82-.6-.49.6Z"/>
    <circle cx="27.38" cy="5.52" r="5.52"/>
  </g>
  <g>
    <path d="M14.15,14.83l-1.45,1.92-1.89-1.84.22-.32c.15-.2.23-.42.28-.65.22-.09.42-.21.6-.38l.15-.15,2.09,1.42Z"/>
    <path d="M11.93,12.89c.06-.06.07-.15.02-.2L3.45,4.16c-.05-.05-.14-.07-.22-.04-.58.22-1.1.69-1.56,1.34-.08.11-.07.25.02.32l9.13,7.59c.2.17.52.12.74-.11l.37-.37Z"/>
    <path d="M10.23,14.89l.32-.43c.18-.25.18-.58-.02-.74L1.4,6.12c-.08-.07-.23-.05-.32.04C.5,6.72.11,7.31,0,7.91c-.02.09.02.16.08.21l9.95,6.83c.06.04.15.01.19-.05Z"/>
  </g>
  <path class="cls-1" d="M10.39,18.17c-.82.09-1.42-.03-1.83-.17-.37-.13-.64-.29-1.24-.42-.72-.16-.99-.08-1.15,0-.08.04-.48.23-.55.62-.08.47.4.84.44.87.38.28.83.23,1.3.17.41-.05.59-.16,1.55-.52.38-.14.7-.26.89-.33l.58-.22Z"/>
  <path class="cls-1" d="M15.08,12.1c-.26-1.19-.97-1.89-1.36-2.39-.36-.46-.71-.75-1.18-1.53-.57-.92-.58-1.35-.55-1.61.01-.13.09-.78.61-1.06.62-.34,1.36.16,1.43.2.58.4.71,1.05.86,1.74.13.6.08.9.18,2.41.04.58.05.94.04,1.33l-.03.91Z"/>
</svg>