<?xml version="1.0" encoding="UTF-8"?>
<svg id="Layer_1" class="color" data-name="Layer 1" xmlns="http://www.w3.org/2000/svg" viewBox="0 0 101 32">
  <defs>
    <style>
      .cls-1 {
        opacity: .5;
      }
    </style>
  </defs>
  <g>
    <polygon points="21.65 21.09 24.59 20.24 25.54 25.28 23.14 25.87 21.65 21.09"/>
    <polygon points="18.25 22.06 20.71 21.36 22.19 26.11 19.51 26.78 18.25 22.06"/>
    <polygon points="14.88 23.03 16.43 22.58 17.67 27.23 16.3 27.57 14.88 23.03"/>
    <polygon points="10.49 24.28 13.54 23.41 14.95 27.91 11.35 28.8 10.49 24.28"/>
    <path d="M6.43,32c-.26,0-.53-.26-.63-.48l-1.8-6.73c-.03-.24.07-.61.3-.73.16-.08,1.44-.45,1.65-.48.97-.16,1.04.44,1.69.84.26.15.58.23.89.27.2.02.41,0,.61-.04l.87,4.56c-.08.04-.16.09-.23.14-.25.19-.49.42-.63.68-.37.67-.12,1.22-1.05,1.57-.2.07-1.5.4-1.67.4Z"/>
    <path d="M66.48,16.24l-4.53-.28c-.73-.05-1.46.13-2.1.49l-5.14,2.97c-.29.17-.59.29-.91.38l-7.86,2.08c-5.32.96-10.97,1.26-16.26,2.31-.94.19-1.85.48-2.78.73l-.96-5.05c.81-.2,1.62-.39,2.41-.65,5.1-1.72,10.16-4.28,15.25-6.11l27.18-7.31c2.68-.51,3.56,1.43,4.14,3.64.59,2.21.8,4.33-1.78,5.22l-5.47,1.45c-.39.1-.79.14-1.19.12Z"/>
  </g>
  <polygon class="cls-1" points="85.51 13.54 97 11.41 84.67 7.45 88.42 .14 79.95 3.26 79.28 0 78.36 5.39 81.76 5.45 81.2 8.6 84.16 10.23 80.83 10.88 82.83 14.06 80.63 13.7 80.63 16.28 77.83 15.19 74.25 19.92 77.93 18.57 79.31 26.44 80.38 20.62 85.87 25.23 83.6 18.01 90.76 19.67 85.51 13.54"/>
</svg>