<?xml version="1.0" encoding="UTF-8"?>
<svg id="Layer_1" data-name="Layer 1" xmlns="http://www.w3.org/2000/svg" viewBox="0 0 40 32">
  <defs>
    <style>
      .cls-1 {
        fill: #d63422;
      }
    </style>
  </defs>
  <path class="cls-1" d="M20,0c0,6.65-9.71,15.26-9.71,21.57s4.35,10.43,9.71,10.43,9.71-4.12,9.71-10.43S20,6.65,20,0ZM15.94,24.76c.46.59.31,1.66-.31,1.99l-.03.02c-.7.36-1.73.22-2.14-.38-3.51-5.04.64-11.02,5.48-17.62-3.76,6.64-6.12,11.91-3,15.99ZM22.33,29.69c-.12.04-.25.07-.37.07-.36,0-.7-.18-.87-.49-.26-.49.03-1.06.6-1.23,2.72-.81,4.62-3.58,6.03-7.51-.19,4.65-1.86,7.83-5.39,9.16Z"/>
</svg>