<?xml version="1.0" encoding="UTF-8"?>
<svg id="Layer_1" data-name="Layer 1" class="color" xmlns="http://www.w3.org/2000/svg" viewBox="0 0 79 32">
  <defs>
    <style>
      .cls-1 {
        opacity: .5;
      }
    </style>
  </defs>
  <g>
    <path d="M25.3,18.38l4.12-1.08-1.39-5.33,22.92-5.68c2.12-.55,3.4-2.73,2.84-4.85-.05-.2-.12-.4-.2-.59,1.42,0,2.79.39,3.98,1.09,1.75,1.03,3.12,2.72,3.67,4.84.62,2.39.09,4.8-1.25,6.66l-.86.15-.09.89-1.68-.31-.23,1.65-1.8-.91-.29,1.7-2.12-1.07-.29,1.7-2.12-1.07-.29,1.7-2.12-1.07-.29,1.7-2.12-1.07-.29,1.7-2.12-1.07-.29,1.7-2.12-1.07-.29,1.7-2.12-1.07-.29,1.7-2.12-1.07-.29,1.7-2.12-1.07-.29,1.7-2.12-1.07-.29,1.7-2.12-1.07-.29,1.7-2.12-1.07-1.04-4.11Z"/>
    <path d="M16.16,9.12c-.31.08-.56.29-.71.57-.5.91-1.33,1.52-2.26,1.76s-1.92.12-2.8-.41l-1.71-1.04c-.16-.09-.36-.1-.52,0-.36.22-.6.53-.74.91-.07.18-.01.39.13.53l1.16,1.11c1.29,1.23,1.53,3.2.58,4.71l-3.91,6.2c-2.85,4.25-.84,7.14,2.09,8.2,1.23.39,2.49.45,3.58.17,1.51-.39,2.69-1.45,3-3.2l1.65-9.27c.07-.41.25-.79.52-1.1.3-.35.69-.58,1.1-.68.62-.16,1.3-.05,1.84.34.24.18.42.44.51.73l.06.21c.12.4.44.74.85.82.19.04.38.04.58-.02l.62-.16-2.89-11.08-2.73.71ZM13.39,21.28l-1.35,6.22s-.46,2-3.07,1.93c-2.61-.08-2.62-2.05-2.62-2.05,0,0-.17-1.43,1.29-1.81,0,0-1.08-2.81,1.98-3.47,0,0-1.3-3.07,2.28-2.86,1.86.11,1.5,2.06,1.5,2.06ZM14.55,16.87c-1.16.3-2.31-.29-2.59-1.33s.44-2.13,1.6-2.43,3.26-.27,3.61,1.07-1.47,2.39-2.63,2.69Z"/>
    <path d="M49.32.08l-27.47,7.55-.94.24,2.46,9.42,4.18-1.09-1.4-5.34,24.4-6.05c1.31-.34,2.09-1.68,1.75-2.99h0c-.34-1.31-1.68-2.09-2.99-1.75Z"/>
  </g>
  <path class="cls-1" d="M72.01,21.42c-.61-.15-8.88-.71-8.88-.71l.08,6.29-5.36-7.2,6.85-1.09-2.47-1.5,4.47-4-3.37-1.33c.21-.89.34-1.82.38-2.78s-.01-1.92-.16-2.85l3.58-3.26-.04,7.05,7.9-1.47-8.24,7.66s4.84,4.79,5.25,5.18Z"/>
</svg>