<?xml version="1.0" encoding="UTF-8"?>
<svg id="Layer_1" data-name="Layer 1" class="color" xmlns="http://www.w3.org/2000/svg" viewBox="0 0 79 32">
  <defs>
    <style>
      .cls-1 {
        opacity: .5;
      }
    </style>
  </defs>
  <g>
    <path d="M4.46,22.4l2.18-.55,1.57,7.37-2.22.39c-1.25.27-2.79-6.95-1.54-7.21Z"/>
    <path d="M15.86,19.46c.73,2.69,1.32,5.42,1.77,8.17l-3.69.64-1.68-7.89,3.6-.92Z"/>
    <path d="M40.67,20.07c.36,1.55,1.11,5.43,1.26,10.54l-3.74,1.07c-2.43.7-5.05.23-7.09-1.27l-3.96-2.9c-1.04-.76-2.35-1.08-3.63-.86l-4.56.77c-.42-2.71-1.03-5.48-1.82-8.3l4.52-1.17c1.25-.32,2.32-1.14,2.96-2.27l2.43-4.28c1.25-2.2,3.45-3.69,5.96-4.05l3.9-.55c.22.27.76.97,1.19,1.93l-5.22,1.11.29.86s1.47,4.34,2.32,9.61l.13.84,5.05-1.08Z"/>
    <path d="M44.81,21.18l6.53,6.72-7.81,2.24c-.23-6.63-1.43-11.04-1.48-11.24l-.2-.73-4.91,1.05c-.65-3.68-1.53-6.75-1.97-8.17l5.24-1.12-.26-.84c-.33-1.05-.82-1.93-1.23-2.54l6.51-.93-1.25,4.73,7.36,1.1-6.53,9.73Z"/>
    <path d="M10.23,30.15l1.74-.24c.36-.05.6-.39.52-.74l-1.93-9.03c-.08-.35-.43-.56-.78-.46l-1.68.49c-.31.09-.5.41-.43.72l1.87,8.78c.07.32.37.53.69.48Z"/>
  </g>
  <polygon class="cls-1" points="48.13 6.62 52.59 6.23 52.59 10.2 56.34 10.6 51.8 19.02 54.03 20.66 51.72 24.63 63.04 27.74 57.7 22.48 75 17.86 59.61 16.11 67.9 3.27 54.75 7.09 56.02 0 48.13 6.62"/>
</svg>