<?xml version="1.0" encoding="UTF-8"?>
<svg id="Layer_1" class="color" data-name="Layer 1" xmlns="http://www.w3.org/2000/svg" xmlns:xlink="http://www.w3.org/1999/xlink" viewBox="0 0 55 32">
  <defs>
    <style>
      .cls-1 {
        fill: url(#linear-gradient);
      }

      .cls-1, .cls-2 {
        opacity: .5;
      }
    </style>
    <linearGradient id="linear-gradient" x1="0" y1="3.8" x2="21.3" y2="3.8" gradientUnits="userSpaceOnUse">
      <stop offset="0" stop-color="#000" stop-opacity="0"/>
      <stop offset=".8" stop-color="#000"/>
    </linearGradient>
  </defs>
  <g class="cls-2">
    <polygon points="37.23 0 40.24 7.17 38.09 5.84 37.39 8.6 35.3 7.35 35.98 9.89 33.43 10.48 36.36 12.54 35.59 14.53 36.8 15.66 32.08 17.98 34.62 13.46 26.88 12.13 33.79 8.71 30.46 2.9 36.66 4.98 37.23 0"/>
  </g>
  <path class="cls-1" d="M21.3,1.86l-1.59,5.18c-1.68-.46-3.38-.89-5.11-1.15-3.96-.6-8.04-.6-12,.01-.87.13-2.6.46-2.6.46V1.89c1.22-.25,2.44-.56,3.67-.75,4.78-.74,9.87-.81,14.62.08.76.14,3.01.63,3.01.63Z"/>
  <path d="M34.08,5l-10.23-3.42c-.55-.18-1.14.11-1.32.66l-1.76,5.27c-.18.55.11,1.14.66,1.32l10.23,3.42c.55.18,1.14-.11,1.32-.66l1.76-5.27c.18-.55-.11-1.14-.66-1.32ZM24.25,7.08c-.67-.22-1.03-.95-.81-1.61s.95-1.03,1.61-.81,1.03.95.81,1.61-.95,1.03-1.61.81ZM27.35,8.13c-.67-.22-1.03-.95-.81-1.61s.95-1.03,1.61-.81,1.03.95.81,1.61-.95,1.03-1.61.81ZM30.42,9.18c-.67-.22-1.03-.95-.81-1.61s.95-1.03,1.61-.81,1.03.95.81,1.61-.95,1.03-1.61.81Z"/>
  <path d="M23.54,15.82c-.36-1.85,2.09-3.6,3.59-2.32,1.19,1.01,1.6,3.16,2.48,4.32.32.42.82.56,1.35.59,3.89.18,11.07.07,13.74.01.64-.01,1.27.05,1.89.2.42.1.88.19,1.06.16.21-.03.56-.4.69-.57,1.01-1.31,2.29-4.37,4.08-4.56,1.51-.16,2.9,1.16,2.51,2.7-.21.83-1.38,2.75-1.86,3.58-.7,1.23-2.01,3.6-2.89,4.59-.19.21-.47.42-.77.4l-4.14-.48c-.21-.02-.4.09-.49.28l-3.29,7.29h-12.82l2.91-8.26-4.5-.03c-.26,0-.49-.16-.58-.4l-2.98-7.5Z"/>
  <circle cx="43.67" cy="12.74" r="4.95"/>
</svg>