<?xml version="1.0" encoding="UTF-8"?>
<svg id="Layer_1" data-name="Layer 1" class="color" xmlns="http://www.w3.org/2000/svg" xmlns:xlink="http://www.w3.org/1999/xlink" viewBox="0 0 61 32">
  <defs>
    <style>
      .cls-1 {
        fill: url(#linear-gradient);
      }

      .cls-1, .cls-2 {
        opacity: .5;
      }
    </style>
    <linearGradient id="linear-gradient" x1="0" y1="7.78" x2="29.74" y2="7.78" gradientUnits="userSpaceOnUse">
      <stop offset="0" stop-color="#000" stop-opacity="0"/>
      <stop offset=".8" stop-color="#000"/>
    </linearGradient>
  </defs>
  <g class="cls-2">
    <polygon points="55.64 0 61 12.76 57.17 10.4 55.58 15 49.58 12 53.41 17.6 47.58 20 54.08 22.32 52.71 25.86 54.88 27.87 46.48 32 50.99 23.95 37.21 21.59 46.58 15 43.59 5.17 54.62 8.87 55.64 0"/>
  </g>
  <g>
    <path class="cls-1" d="M29.74,5.06l-2.22,7.23c-2.35-.64-4.72-1.25-7.14-1.61-5.53-.83-11.23-.84-16.76.02-1.21.19-3.63.64-3.63.64v-6.24c1.7-.35,3.4-.78,5.12-1.05,6.68-1.04,13.77-1.13,20.42.12,1.05.2,4.2.88,4.2.88Z"/>
    <path d="M47.58,9.45l-14.29-4.77c-.77-.26-1.59.16-1.85.92l-2.46,7.36c-.26.77.16,1.59.92,1.85l14.29,4.77c.77.26,1.59-.16,1.85-.92l2.46-7.36c.26-.77-.16-1.59-.92-1.85ZM33.85,12.35c-.93-.31-1.44-1.32-1.12-2.25s1.32-1.44,2.25-1.12,1.44,1.32,1.12,2.25-1.32,1.44-2.25,1.12ZM38.19,13.82c-.93-.31-1.44-1.32-1.12-2.25s1.32-1.44,2.25-1.12,1.44,1.32,1.12,2.25-1.32,1.44-2.25,1.12ZM42.48,15.28c-.93-.31-1.44-1.32-1.12-2.25s1.32-1.44,2.25-1.12,1.44,1.32,1.12,2.25-1.32,1.44-2.25,1.12Z"/>
  </g>
</svg>