<?xml version="1.0" encoding="UTF-8"?>
<svg id="Layer_1" data-name="Layer 1" class="color" xmlns="http://www.w3.org/2000/svg" viewBox="0 0 83 32">
  <defs>
    <style>
      .cls-1 {
        opacity: .5;
      }
    </style>
  </defs>
  <g>
    <path d="M46.96,26.27c-.23,2.01-1.93,3.52-3.95,3.52h-3c-2.02,0-3.72-1.51-3.95-3.52l-.65-5.62-15.25-.11,1.35,11.46h39.95l1.31-11.14-15.19-.11-.64,5.53Z"/>
    <path d="M62.47,9.17h-9.29v-3.69c0-.29-.27-.52-.59-.5l-1.37.07c-.3.02-.53.24-.53.5v3.63h-18.38v-3.63c0-.27-.23-.49-.53-.5l-1.37-.07c-.32-.02-.59.21-.59.5v3.69h-9.29l-1.12,4.82.57,4.83,15.27.11c-.02-1,.33-1.97,1-2.73.75-.84,1.83-1.33,2.97-1.33h4.6c1.13,0,2.21.49,2.97,1.33.69.77,1.05,1.79,1,2.82l15.2.11.61-5.15-1.12-4.82Z"/>
    <path d="M40.02,28.8h3c1.51,0,2.78-1.13,2.96-2.64l.8-6.96c.1-.84-.17-1.69-.74-2.32-.56-.63-1.37-1-2.22-1h-4.6c-.85,0-1.66.36-2.22,1-.56.63-.83,1.48-.74,2.32l.8,6.96c.17,1.5,1.44,2.64,2.96,2.64ZM39.21,17.59h4.6c.76,0,1.34.66,1.26,1.41l-.8,6.96c-.07.64-.61,1.12-1.26,1.12h-3c-.64,0-1.18-.48-1.26-1.12l-.8-6.96c-.09-.75.5-1.41,1.26-1.41Z"/>
    <path d="M39.49,25.64c.06.36.42.63.85.63h2.29c.43,0,.79-.27.85-.63l.38-3.67c.02-.13,0-.26-.08-.37l-.54-.87c-.11-.17-.3-.28-.51-.28h-2.5c-.21,0-.4.11-.51.28l-.54.87c-.07.11-.1.24-.08.37l.38,3.67Z"/>
    <polygon points="28.96 5.71 27.93 5.66 27.93 8.27 28.96 8.23 28.96 5.71"/>
    <path d="M36.25,4.61v-.3c0-1.1.92-1.97,2.02-1.91l1.32.08c1.26.08,2.53.08,3.8,0l1.32-.08c1.1-.07,2.02.81,2.02,1.91v.3c0,1.78,1.34,3.26,3.09,3.45v-2.15h-.23c-.47.03-.86-.34-.86-.8v-.56c0-2.38-1.87-4.34-4.25-4.44l-1.62-.07c-.92-.04-1.83-.04-2.75,0l-1.62.07c-2.38.1-4.25,2.06-4.25,4.44v.56c0,.47-.39.84-.86.82h-.23s0,2.14,0,2.14c1.75-.19,3.09-1.67,3.09-3.45Z"/>
    <polygon points="55.07 5.66 54.04 5.71 54.04 8.23 55.07 8.27 55.07 5.66"/>
  </g>
  <path class="cls-1" d="M72.98,23.1c.12.37,5.53,8.9,5.53,8.9l-14.13-2.75.83-7.05.99-8.32-.74-3.16,13.05-4.52s-6.44,9.62-6.19,9.74c.25.13,6.68,2.39,6.68,2.39,0,0-6.15,4.4-6.02,4.77Z"/>
  <path class="cls-1" d="M5.18,32l4.82-7.81-5.41-5.15s5.36-5.55,5.57-5.73c.21-.17-6.16-7.11-6.16-7.11l13.74,3.61-.94,3.99.44,3.68,1.38,11.64-13.44,2.89Z"/>
</svg>