<?xml version="1.0" encoding="UTF-8"?>
<svg id="Layer_1" data-name="Layer 1" class="color" xmlns="http://www.w3.org/2000/svg" xmlns:xlink="http://www.w3.org/1999/xlink" viewBox="0 0 82 32">
  <defs>
    <style>
      .cls-1 {
        isolation: isolate;
        opacity: .5;
      }

      .cls-2 {
        fill: url(#linear-gradient);
      }
    </style>
    <linearGradient id="linear-gradient" x1="0" y1="18.98" x2="32.18" y2="18.98" gradientUnits="userSpaceOnUse">
      <stop offset=".1" stop-color="#231f20" stop-opacity="0"/>
      <stop offset=".5" stop-color="#000"/>
    </linearGradient>
  </defs>
  <polygon class="cls-1" points="74.02 22.73 78.5 32 67.52 28.83 73 27.83 70.28 22.41 73.66 19.93 71.36 16.26 74.09 13.48 70.53 11.98 73 7.77 69.28 6.61 81.44 0 74.44 9.44 82 11.44 74.33 16.16 80.44 22.26 74.02 22.73"/>
  <g>
    <path d="M43.56,10.35l1.05-.18c1.26-.21,2.28.99,2.12,2.49l-.89,8.1c-.16,1.47-1.39,2.51-2.58,2.18l-1.16-.32c-.95-.27-1.54-1.34-1.39-2.52l1-7.6c.15-1.11.91-2,1.84-2.16Z"/>
    <path d="M56.06,10.25c.06-.83.11-1.69.13-2.53.02-.94.28-1.8.73-2.48l-.62-.2c-.48-.13-.93-.37-1.3-.71l-.92-.84c-.34-.3-.74-.55-1.16-.67l-4.4-1.41c-.48-.14-.99-.02-1.37.32l-.63.6c-2.2,1.62-3.99,2.44-6.44,3.48l-2.77,1.29c.02-.07.02-.14.02-.2,0-.46-.35-.83-.81-.84-.29,0-.57-.01-.85-.01-.42-.01-.67.32-.83.69-2.75,6.5-4,12.94-4.34,19.28-.02.41.07.81.44.98.38.18.76.36,1.14.54.47.22,1.04-.04,1.18-.56.12-.43.13-.53.25-.96.14.19.34.34.6.4l2.3.43c.96.18,1.77.31,2.79.65.29.09.57.21.82.35l.89.48c1.6.88,3.36,1.47,5.17,1.77l5,.19c-.03-.05-.06-.11-.09-.16-.48-1.1-.4-2.35.25-3.52.41-.76.8-1.53,1.15-2.29.51-1.09,1.4-1.97,2.46-2.51-.48-.98-.59-2.16-.25-3.3.24-.81.46-1.63.64-2.46.25-1.06.81-1.97,1.58-2.62-.57-.93-.83-2.05-.74-3.2ZM48.48,11.67l-1.37,10.64c-.24,1.93-2.17,3.18-4.03,2.62l-1.84-.58c-1.5-.45-2.44-1.93-2.19-3.49l1.55-9.96c.21-1.44,1.42-2.54,2.87-2.65l1.66-.12c1.99-.14,3.6,1.57,3.34,3.54Z"/>
    <path d="M67.52,13.15c-.11.35-.59.55-1.13.43l-1.84-.38c.17-.44.27-.92.29-1.42.02-.91.02-1.84,0-2.78-.01-.28-.03-.55-.1-.81l1.75.61c.58.19.97.61.98,1.03l.04,3.33Z"/>
    <path d="M67.33,15.56l-.47,3.93c-.04.42-.48.71-.99.67l-2.04-.1c.16-.64.29-1.3.41-1.96.2-1.19-.05-2.39-.68-3.4.22-.2.42-.44.59-.69l2.33.56c.55.13.92.57.87.98Z"/>
    <path d="M65.05,22.51l-.8,2.94c-.11.38-.56.63-1.06.58l-1.27-.14c.07-.77-.09-1.54-.43-2.21.93-.52,1.65-1.35,2.01-2.34l.53.05c.66.06,1.15.61,1.02,1.12Z"/>
    <path d="M62.24,28.06l-.51,1.91c-.1.33-.44.57-.87.59l-.98.03c.25-.3.45-.62.62-.96.4-.8.77-1.65,1.12-2.5.01-.02.02-.05.02-.07.44.18.71.6.6,1Z"/>
    <path d="M58.97,3.77c-.42.1-.82.28-1.17.54-.33-.09-.64-.23-.88-.45l-.76-.78c-.63-.48-.8-.6-1.48-.8l-4.72-1.44c.35-.33.82-.51,1.32-.52l3.91-.11c1.25-.03,2.44.71,3,1.9l.78,1.66Z"/>
    <path class="cls-2" d="M0,30.45v.81c.18,0,.36-.01.54-.03-.2-.24-.4-.51-.54-.78ZM5.93,7.55c.05-.09.1-.17.15-.26-2.03-.08-3.78-.18-5.04-.28l-1.05-.06v17.66c.35-.83.97-1.5,1.8-1.93-.78-1.02-1.05-2.3-.69-3.54.24-.87.51-1.74.81-2.61.43-1.27,1.46-2.26,2.75-2.76-.63-1.09-.69-2.43-.08-3.67.42-.86.87-1.7,1.34-2.54ZM17.86,7.65c-1.04-.03-2.07-.05-3.12-.08.17.87.01,1.85-.45,2.76-.42.82-.82,1.62-1.19,2.44-.54,1.21-1.56,2.15-2.79,2.65.65,1.01.84,2.28.47,3.5-.26.83-.49,1.65-.69,2.48-.28,1.18-1.07,2.14-2.12,2.69.78.97,1.18,2.16,1.06,3.34-.09.81-.15,1.61-.19,2.42-.01.18-.03.36-.06.54,1.48-.22,2.95-.45,4.41-.68-.97-.91-1.52-2.11-1.41-3.32.06-.78.15-1.56.28-2.35.17-1.11.86-2.05,1.85-2.6-.68-.95-.91-2.11-.58-3.23.23-.78.49-1.57.77-2.37.4-1.14,1.33-2.06,2.49-2.53-.54-1-.56-2.21.01-3.34.4-.78.81-1.55,1.24-2.31ZM26.28,7.8c.13.81-.01,1.69-.45,2.51-.38.74-.75,1.48-1.1,2.22-.51,1.09-1.43,1.93-2.53,2.4.55.92.7,2.06.36,3.17-.23.75-.45,1.5-.63,2.24-.28,1.06-.97,1.93-1.92,2.45.68.88,1.02,1.96.92,3-.09.74-.14,1.47-.18,2.2,0,.12-.01.23-.04.33,2.47-.47,4.49-.91,5.72-1.18.79-.18,1.39-.82,1.5-1.62.86-6.16,1.53-12.8,4.26-17.64,0,0-2.4-.03-5.91-.09ZM11.75,6.05c-1.65-.42-3.81.51-4.71,2.11-.46.83-.9,1.66-1.3,2.49-.64,1.3-.2,2.65.9,3.35-.09.23-.18.46-.27.68-1.42.06-2.79.93-3.23,2.26-.29.84-.55,1.69-.79,2.53-.38,1.33.32,2.67,1.57,3.38-.04.2-.08.4-.12.59-1.41.06-2.6.95-2.79,2.25-.13.84-.22,1.67-.29,2.51-.14,1.62,1.39,3.26,3.32,3.7,1.93.43,3.45-.5,3.53-2.11.04-.82.1-1.65.19-2.49.14-1.3-.65-2.63-1.92-3.35.04-.19.08-.4.12-.59,1.41-.06,2.58-.93,2.9-2.25.22-.84.45-1.7.7-2.54.4-1.32-.13-2.66-1.24-3.38.08-.23.17-.45.26-.68,1.42-.06,2.77-.93,3.36-2.25.38-.83.78-1.67,1.21-2.51.82-1.61.26-3.26-1.41-3.7ZM5.88,26.86c-.1.83-.17,1.66-.22,2.49-.05.72-.75,1.14-1.6.95-.84-.2-1.51-.93-1.44-1.65.06-.83.14-1.67.26-2.51.05-.37.28-.66.59-.83-.06.43-.12.86-.17,1.28-.06.51.36,1.02.95,1.16.58.13,1.09-.17,1.14-.66.05-.42.1-.86.17-1.28.24.31.37.68.33,1.05ZM7.77,18.11c-.27.84-.51,1.69-.73,2.54-.09.37-.35.65-.68.83.08-.35.17-.68.26-1.02.13-.51-.2-1.04-.75-1.16-.55-.14-1.13.15-1.27.66-.09.35-.18.68-.27,1.02-.2-.31-.29-.69-.19-1.06.23-.84.49-1.69.77-2.53.13-.37.41-.66.75-.84-.14.43-.29.87-.43,1.3-.15.5.17,1.02.72,1.16.55.14,1.13-.17,1.28-.66.13-.43.27-.87.42-1.3.18.31.24.69.13,1.06ZM11.46,9.31c-.43.83-.86,1.66-1.24,2.51-.17.36-.49.65-.84.82.13-.31.27-.61.41-.92.24-.5.01-1.02-.51-1.15-.52-.14-1.15.15-1.39.65-.15.31-.29.63-.43.93-.15-.31-.17-.68.01-1.05.41-.83.83-1.67,1.28-2.49.4-.72,1.33-1.14,2.07-.95.74.19,1.02.93.65,1.65ZM23.39,6.36c-1.53-.4-3.57.46-4.4,1.92-.43.75-.84,1.51-1.23,2.26-.6,1.19-.19,2.4.84,3.04-.09.2-.18.42-.26.63-1.33.05-2.61.84-3.03,2.05-.27.77-.52,1.53-.74,2.31-.36,1.2.31,2.42,1.47,3.07-.04.18-.08.36-.12.54-1.3.05-2.43.84-2.6,2.05-.12.75-.2,1.52-.28,2.28-.13,1.47,1.32,2.97,3.11,3.36,1.82.38,3.23-.46,3.31-1.92.04-.75.1-1.51.18-2.26.13-1.19-.61-2.4-1.79-3.06.03-.18.06-.36.1-.54,1.32-.05,2.42-.84,2.72-2.05.19-.77.41-1.55.65-2.31.37-1.2-.13-2.42-1.16-3.07.08-.2.15-.41.24-.61,1.33-.06,2.6-.86,3.15-2.05.36-.77.73-1.52,1.14-2.28.77-1.47.23-2.98-1.32-3.36ZM17.89,25.27c-.09.75-.15,1.52-.2,2.28-.04.64-.69,1.02-1.48.86-.79-.18-1.42-.86-1.37-1.51.06-.75.14-1.51.24-2.28.05-.33.27-.59.56-.75-.06.4-.12.78-.17,1.18-.06.45.35.92.88,1.05.55.12,1.02-.15,1.07-.6.04-.4.09-.78.15-1.18.23.28.35.63.31.96ZM19.66,17.32c-.26.77-.49,1.55-.69,2.31-.09.33-.32.6-.63.75l.23-.92c.13-.46-.18-.95-.7-1.07-.51-.12-1.05.15-1.18.61-.09.31-.17.63-.26.93-.19-.28-.27-.63-.18-.96.22-.78.46-1.55.72-2.31.12-.33.38-.6.72-.75-.14.38-.28.78-.41,1.18-.15.46.15.93.66,1.06.52.13,1.05-.15,1.2-.61.12-.38.26-.78.38-1.18.18.28.23.63.13.96ZM23.1,9.31c-.41.75-.79,1.52-1.15,2.28-.17.35-.46.6-.81.75.13-.28.27-.56.4-.84.22-.45.01-.92-.49-1.05-.49-.12-1.07.15-1.3.6-.14.28-.27.56-.4.84-.14-.28-.15-.61.01-.95.37-.77.77-1.52,1.19-2.28.37-.65,1.25-1.04,1.94-.86.69.18.96.84.6,1.5Z"/>
    <path d="M62.01,20.38c.21-.85.39-1.71.54-2.58.24-1.36-.47-2.71-1.57-3.38.01-.09.02-.18.03-.27,1.16-.15,2.07-1.1,2.11-2.46.03-.89.03-1.77,0-2.66-.06-1.73-1.4-3.43-2.85-3.77-1.46-.35-2.55.76-2.59,2.47-.02.88-.06,1.76-.13,2.63-.12,1.39.57,2.75,1.69,3.42-.01.08-.02.15-.03.23-1.2.13-2.22,1.06-2.54,2.4-.2.86-.42,1.71-.67,2.55-.39,1.32.1,2.62,1.2,3.3-.06.18-.13.37-.2.55-1.37.08-2.7.94-3.29,2.2-.38.8-.78,1.6-1.21,2.38-.84,1.52-.14,3.06,1.69,3.5,1.83.44,4.02-.4,4.76-1.95.38-.79.74-1.59,1.08-2.41.52-1.27-.02-2.58-1.12-3.26.06-.18.13-.37.19-.55,1.36-.09,2.59-.97,2.91-2.31ZM59.1,10.72c.06-.88.09-1.76.1-2.64,0-.76.52-1.25,1.18-1.1.66.16,1.23.91,1.24,1.68.01.89,0,1.77-.04,2.66-.02.35-.16.63-.37.82.03-.45.06-.9.07-1.35.02-.53-.35-1.05-.82-1.16-.47-.11-.86.23-.89.75-.03.49-.06.98-.11,1.48-.24-.32-.39-.72-.36-1.14ZM57.67,19.34c.24-.85.45-1.7.63-2.56.08-.38.3-.68.59-.87-.08.44-.17.88-.27,1.32-.11.51.19,1.03.7,1.15.51.12,1.01-.2,1.12-.71.09-.44.17-.88.25-1.33.2.31.29.68.22,1.07-.17.86-.36,1.72-.58,2.57-.1.37-.35.67-.67.85.1-.35.2-.71.29-1.06.13-.51-.18-1.03-.69-1.15-.51-.12-1.02.19-1.16.7-.1.35-.2.71-.3,1.06-.18-.3-.24-.67-.13-1.04ZM58.28,26.07c-.35.81-.72,1.61-1.11,2.4-.34.68-1.29,1.07-2.09.88-.8-.19-1.14-.89-.78-1.57.42-.78.81-1.58,1.17-2.39.16-.35.47-.64.82-.8-.18.42-.36.83-.55,1.24-.22.48.03.97.57,1.11.54.13,1.17-.15,1.38-.64.18-.41.36-.83.52-1.24.17.3.2.66.05,1.01Z"/>
  </g>
</svg>