<?xml version="1.0" encoding="UTF-8"?>
<svg id="Layer_1" data-name="Layer 1" class="color" xmlns="http://www.w3.org/2000/svg" viewBox="0 0 93 32">
  <defs>
    <style>
      .cls-1 {
        opacity: .5;
      }
    </style>
  </defs>
  <g>
    <path d="M22.05,8.68L4.42,13.59c-.31.09-.49.42-.4.73l.9,3.22c.43,1.52,2.02,2.4,3.54,1.93l15.08-4.83c.41-.13.64-.56.52-.97l-1.28-4.57c-.09-.32-.42-.51-.74-.42ZM9.43,17.45c-.96.27-1.96-.29-2.22-1.25s.29-1.96,1.25-2.23,1.96.29,2.23,1.25-.3,1.95-1.25,2.22ZM20.33,13.86c-.82.23-1.67-.24-1.91-1.07s.25-1.67,1.07-1.9,1.67.25,1.9,1.07-.24,1.67-1.06,1.9Z"/>
    <path d="M70.51,0c-14.99,1.13-28.62,3.47-42.74,7.15l-.21-.8-3.42.96,2.02,7.21,2.95,1.15.62-1.18c6.16-2.22,11.21-3.13,14.61-3.52,1.79-.2,3.37-.39,5.54-.32,4.29.13,8.66,1.14,10.14,1.49.24.06.88.21,1.76.38.15.02,1.87.35,3.46.48,1.29.11,2.56.12,3.71.07l.6-2.11,2.33,1.85c.84-.11,1.44-.22,1.65-.27,2.13-.41,3.26-.62,4.69-1.31,2.67-1.29,4.32-3.25,5.2-4.5l-12.91-6.72Z"/>
  </g>
  <path class="cls-1" d="M78.5,19.35l3.61,12.65-14.39-10.53-1.76,9.21s-1.33-13.4-1.76-15.48l8.23,5.42,1.05-5.18c3.87-.55,6.26-1.57,8.75-3.36l6.75,9.18-10.48-1.91Z"/>
</svg>