<?xml version="1.0" encoding="UTF-8"?>
<svg id="Layer_1" data-name="Layer 1" class="color" xmlns="http://www.w3.org/2000/svg" xmlns:xlink="http://www.w3.org/1999/xlink" viewBox="0 0 77 32">
  <defs>
    <style>
      .cls-1 {
        fill: url(#linear-gradient);
      }
    </style>
    <linearGradient id="linear-gradient" x1="54.78" y1="9.06" x2="73" y2="9.06" gradientUnits="userSpaceOnUse">
      <stop offset=".4" stop-color="#00e1ff"/>
      <stop offset=".9" stop-color="#00e1ff" stop-opacity="0"/>
    </linearGradient>
  </defs>
  <g>
    <path d="M24.98,7.13v1.14l-10.52-.42v-.65h.67l-.45-2.08c-.09-.39.16-.77.55-.86h.02c.39-.09.78.16.86.55l.51,2.39h1.29l-.45-2.08c-.09-.39.16-.77.55-.86h.02c.39-.09.78.16.86.55l.51,2.39h1.29l-.45-2.08c-.09-.39.16-.77.55-.86h.02c.39-.09.78.16.86.55l.51,2.39h1.29l-.45-2.08c-.09-.39.16-.77.55-.86h.02c.39-.09.78.16.86.55l.5,2.32Z"/>
    <path d="M32.64,5.48h-2.77v-1.17l-2.16-1.41h-1.48v6.67l-13.03-.52V2.91h-1.62l-2.64,2.14v6.9l2.64,1.64,16.12,1.12,2.16-.91v-1.16h2.77c1.54,0,2.29-.99,2.29-2.22v-2.71c0-1.23-.75-2.22-2.29-2.22Z"/>
    <path d="M7.74,12.05l-2.61.49c-.36.07-.69-.16-.78-.52-.48-1.99-.48-3.98,0-5.97.08-.34.43-.55.77-.49l2.61.49v5.99Z"/>
    <path d="M53.23,6.02c-.07-.28-.28-.49-.56-.56l-.92-.24c-.45-.12-.91-.15-1.37-.1l-7.38.86c-.23.03-.41.22-.41.46v.76h-2.71v3.7h2.71v.76c0,.23.18.43.41.46l7.38.86c.46.05.92.02,1.37-.1l.92-.24c.27-.07.49-.29.56-.56.48-2.03.48-4.05,0-6.08Z"/>
    <rect x="36.18" y="7.72" width="2.51" height="2.68"/>
    <path d="M50.66,0v3.84c-.14,0-.28.01-.42.03l-4.51.53.21-1.11,2.88-1.18.69-2.11h1.14Z"/>
    <path d="M11.19,14.81l-2.24-1.39v2.18c0,.42.37.63.76.76l.94.32-4.53,11.53c-.41,1.03.09,2.2,1.1,2.63l2.35,1c1.02.43,2.2-.03,2.66-1.03l5.6-12.25h.69s0,.97,0,.97c0,.17.13.3.3.3h.61c0,1,.25,1.98.72,2.86l.93,1.76,1.25-.59-.62-2.05c-.18-.58-.27-1.19-.27-1.8v-2.79s4.3,0,4.3,0c.24,0,.52-.06.67-.22l.96-1.06-16.19-1.12Z"/>
    <path d="M25.78,25.74c.03,1.89-1.5,3.44-3.39,3.44h-8.58l.69-1.51h7.87c1.06,0,1.92-.87,1.9-1.93l-.11-7.77h1.51l.11,7.77Z"/>
  </g>
  <path class="cls-1" d="M73,8.4l-13.21-.74.98-2.9-2.76,1.42-.79-2.89-2.13,1.74c.91.7,1.87,2.02,1.86,3.81-.02,1.84-.53,3.14-1.93,4.34l-.24,1.63,1.77-1.56,1.65,1.19.59-2.11,2.34-.4-.93-1.95,12.81-.51v-1.08Z"/>
</svg>