<?xml version="1.0" encoding="UTF-8"?>
<svg id="Layer_1" data-name="Layer 1" class="color" xmlns="http://www.w3.org/2000/svg" viewBox="0 0 98 32">
  <defs>
    <style>
      .cls-1 {
        isolation: isolate;
        opacity: .5;
      }
    </style>
  </defs>
  <path d="M57.94,22.23l-.27,1.44c-.06.42-.4.75-.83.79l-8.58.92c-.8.07-1.48-.55-1.48-1.35v-1.8h11.14Z"/>
  <path d="M47.28,14.74h-6.11c-.16-.82-.16-1.64,0-2.46h6.11c.08.82.08,1.64,0,2.46Z"/>
  <path d="M55.8,13.47c-.4.62-1.39,1.08-2.66,1.23-.29.03-.59.04-.87.04-.83,0-1.57-.12-2-.21-.22-.04-.32-.08-.44-.11-.08-.02-.14-.04-.27-.08-.37-.09-.79-.15-1.25-.19.02-.35.02-.7,0-1.05.63.04,1.2.12,1.71.25.17.04.27.07.36.1.09.02.15.04.29.08.78.16,1.6.21,2.26.14.88-.1,1.43-.4,1.59-.64.16-.26.59-.37.94-.26.36.12.51.43.35.69Z"/>
  <path d="M70.27,13.41l-1.25-.9h-3.79l-1.22.89h-7c.02.21-.02.41-.14.61h0c-.53.91-1.8,1.57-3.39,1.77-.37.05-.74.05-1.03.05-1.02,0-1.89-.16-2.31-.26-.24-.05-.37-.1-.5-.14l-.29-.09c-.3-.08-.68-.14-1.1-.18l-.07.66h-7.84l-.15-.71c-.18-.89-.18-1.81,0-2.71l.15-.71h7.84l.08.81h.13c.42.04.82.09,1.19.16l-.14-2.34h-10l-.22.75c-.95-.24-1.73-1.03-1.88-2.03-.11-.75.31-1.45.8-1.95l-.56-.65c-1.19.72-1.91,1.9-1.77,3.14.16,1.39,1.36,2.7,2.91,3.14l-.2.67h-1.67c-.12,0-.23.08-.26.19-.64,2.33-.64,4.65,0,6.98.03.11.14.19.26.19h27.17l1.22.89h3.79l1.25-.9c.62-2.44.62-4.88,0-7.32Z"/>
  <g>
    <path d="M81.81,26.37c.31-.52.53-1.11.62-1.75.39-2.63-1.42-5.08-4.05-5.47-.56-.08-1.11-.07-1.63.04,3.15,1.22,4.95,3.77,5.06,7.17ZM75.66,20.37c-.54-.25-1.17-.11-1.57.33-.61.68-1.03,1.54-1.18,2.5-.39,2.63,1.42,5.07,4.04,5.47.9.14,1.78.01,2.56-.32.55-.23.9-.79.84-1.38-.29-3.03-1.93-5.34-4.69-6.6ZM77.5,27.35c-.6.68-2.1.34-3.1-.99-.99-1.33-.91-2.87-.08-3.25.83-.39,1.96.24,2.74,1.25.76,1.03,1.05,2.29.44,2.98Z"/>
    <path d="M76.43,24.85c.41.55.6,1.2.33,1.53-.27.33-1.01.09-1.54-.62-.53-.71-.55-1.49-.16-1.65.39-.17.96.2,1.37.74Z"/>
  </g>
  <path class="cls-1" d="M98,21.8l-6.32-4.12,5.51-11.23-11.2,8.11c-.77-1.59-1.61-2.27-2.83-2.53-1.6-.35-2.77.39-2.77.39,0,0-1.77-2.48-4.44-2-3.17.57-3.09,4.17-3.09,4.17,0,0,1.71-1.9,4.05-1.22,1.43.42,1.9,2.34,1.9,2.34,0,0,1.42-.85,3.04-.19,1.5.61,1.9,2.75,1.9,2.75l4.13-1.66-1.94,3.36,5.02,1.7-5.28,1,2.14,3.46-3.96-.28,4.56,6.19v-3.92l8.35.97-4.18-5.33,5.41-1.93h.01Z"/>
  <path d="M36.84,22.23c-.78,0-1.47-.52-1.68-1.27-.68-2.51-.7-5.05-.05-7.56h-.81c-.35,0-.7.04-1.04.14-.7.2-1.92.64-3.2,1.57-1.95,1.41-4.18.25-4.18.25l-.47,1.02s2.13,1.12,5.58.21c-.18.26-.34.56-.49.9-.66,1.55-1.8,2.75-1.8,2.75-.25.26-.39.44-.67.71-.36.34-.66.5-.9.69-.26.19-.62.3-1.43.31-1.61.02-2.23-1.13-2.23-1.13,0,0-.92-1.7-4.61-1.25-3.69.45-8.64,1.06-8.64,1.06,0,0-3.52.35-4.94-1.12s-2.95-1.58-2.95-1.58c0,0-.22-.14-1.27.13L0,18.31c.51,4.68,1.52,9.17,3.14,13.4l18.45-5.01c1-.27,1.84.81,1.33,1.71l-1.11,1.95,3.94,1.24c.36-1.75,1.3-3.38,2.39-4.79.53-.68,1.19-1.24,1.96-1.61.74-.35,1.67-.57,2.39-.1,0,0,.42.25.52.51l.04.09c.37,1.39,1.63,2.28,3.15,2.21,1.68-.07,2.96-1.54,2.96-3.22v-.78l4.26.52,1.41-1.41v-.83h-7.99ZM36.03,26.75c-1.07,0-1.95-.88-1.95-1.95,0-.11.02-.22.04-.33h1.03c.03.43.16.89.42,1.37l.77-.17c-.31-.82-.32-1.52-.11-2.13l1.43.19c.2.31.32.67.32,1.07,0,1.07-.88,1.95-1.96,1.95Z"/>
  <polygon points="63.54 11.74 63.46 12.13 59.91 12.13 59.91 7.32 59.4 7.32 59.29 4.43 59.91 4.43 59.92 0 62.09 0 61.85 4.43 62.44 4.43 62.26 7.32 61.69 7.32 61.53 10.38 62.69 10.61 63.54 11.74"/>
</svg>