<?xml version="1.0" encoding="UTF-8"?>
<svg id="Layer_1" data-name="Layer 1" class="color" xmlns="http://www.w3.org/2000/svg" xmlns:xlink="http://www.w3.org/1999/xlink" viewBox="0 0 68 32">
  <defs>
    <style>
      .cls-1 {
        fill: url(#linear-gradient-2);
      }

      .cls-2 {
        fill: url(#linear-gradient-4);
      }

      .cls-3 {
        fill: url(#linear-gradient-3);
      }

      .cls-4 {
        fill: url(#linear-gradient);
      }

      .cls-5 {
        opacity: .5;
      }
    </style>
    <linearGradient id="linear-gradient" x1="309.35" y1="-240.39" x2="341.62" y2="-240.39" gradientTransform="translate(-300.53 -226) scale(1 -1)" gradientUnits="userSpaceOnUse">
      <stop offset=".4" stop-color="#000"/>
      <stop offset=".9" stop-color="#000" stop-opacity="0"/>
    </linearGradient>
    <linearGradient id="linear-gradient-2" x1="309.22" y1="-242.41" x2="332.79" y2="-248.72" gradientTransform="translate(-300.53 -226) scale(1 -1)" gradientUnits="userSpaceOnUse">
      <stop offset=".3" stop-color="#000"/>
      <stop offset=".7" stop-color="#000" stop-opacity="0"/>
    </linearGradient>
    <linearGradient id="linear-gradient-3" x1="308.97" y1="-235.87" x2="317.52" y2="-235.87" gradientTransform="translate(-300.53 -226) scale(1 -1)" gradientUnits="userSpaceOnUse">
      <stop offset=".4" stop-color="#000"/>
      <stop offset=".8" stop-color="#000" stop-opacity="0"/>
    </linearGradient>
    <linearGradient id="linear-gradient-4" x1="304.24" y1="-226" x2="304.24" y2="-258" gradientTransform="translate(-300.53 -226) scale(1 -1)" gradientUnits="userSpaceOnUse">
      <stop offset=".05" stop-color="#000" stop-opacity="0"/>
      <stop offset=".2" stop-color="#000"/>
      <stop offset=".8" stop-color="#000"/>
      <stop offset=".95" stop-color="#000" stop-opacity="0"/>
    </linearGradient>
  </defs>
  <path class="cls-5" d="M59.73,9.53l8.27,2.28-7.61,4.19,5.68,5.88-8.25-.18.18,6.57-6.21-9.46,9.08.48-6.86-4.19,5.55-1.51-5.17-1.82,1.61-2.64-4.2.47c.17-1.62-.25-3.31-1.6-4.65-1.15-1.15-3.02-1.88-4.94-1.69.66-.92,2.09-1.45,3.3-1.7,2.51-.56,5.05.93,5.87,3.36l9.68-4.91-4.41,9.53Z"/>
  <g>
    <path d="M49.51,8.42c.69,1.27.82,2.77.33,4.1-.13-.13-.28-.26-.41-.4-2.17-2.01-4.5-3.79-7.02-5.35-.17-.1-.33-.2-.49-.29,1.15-.83,2.64-1.1,4.04-.77,1.28.78,2.46,1.68,3.56,2.7h0Z"/>
    <path d="M48.75,12.91c-.04.35-.16.67-.37.94s-.45.46-.77.58c-2.42-1.64-4.74-3.41-6.95-5.32.04-.33.15-.64.35-.89s.47-.48.8-.6c2.42,1.63,4.72,3.39,6.92,5.3h0Z"/>
    <path d="M43.45,16.32c1.4.33,2.89.05,4.04-.78-.17-.09-.32-.19-.49-.29-2.51-1.55-4.86-3.34-7.02-5.35-.14-.13-.28-.27-.41-.4-.49,1.33-.36,2.84.34,4.11,1.09,1.03,2.28,1.93,3.56,2.7h0Z"/>
  </g>
  <g>
    <path class="cls-4" d="M41.08,13.64l-30.32,2.5-1.88.18c.02-.19.02-.38.02-.56v-.14c0-.65-.03-1.29-.08-1.92l32.17-1.24.1,1.19h0Z"/>
    <path class="cls-1" d="M32.14,23.14l-23.3-5.84c.03-.32.05-.65.04-.98.02-.19.02-.38.02-.56v-.14l1.86.53,21.23,6.07.15.93h0Z"/>
    <path class="cls-3" d="M16.99,7.95l-8.28,4.78c-.07-.59-.16-1.15-.27-1.7l7.96-4.02.59.95h0Z"/>
    <path class="cls-2" d="M7.42,15.76C7.42,22.95,4.39,29.16,0,32c2.7-4.01,4.4-9.94,4.4-16.54C4.4,9.43,2.99,3.97.68,0c4.01,3.01,6.74,8.94,6.74,15.76Z"/>
  </g>
</svg>