<?xml version="1.0" encoding="UTF-8"?>
<svg id="Layer_1" data-name="Layer 1" class="color" xmlns="http://www.w3.org/2000/svg" xmlns:xlink="http://www.w3.org/1999/xlink" viewBox="0 0 68 32">
  <defs>
    <style>
      .cls-1 {
        fill: url(#linear-gradient-2);
      }

      .cls-2 {
        fill: url(#linear-gradient-4);
      }

      .cls-3 {
        fill: url(#linear-gradient-3);
      }

      .cls-4 {
        fill: url(#linear-gradient);
      }
    </style>
    <linearGradient id="linear-gradient" x1="8.68" y1="16.41" x2="32.25" y2="22.72" gradientUnits="userSpaceOnUse">
      <stop offset=".3" stop-color="#000"/>
      <stop offset=".7" stop-color="#000" stop-opacity="0"/>
    </linearGradient>
    <linearGradient id="linear-gradient-2" x1="8.44" y1="9.86" x2="16.99" y2="9.86" gradientUnits="userSpaceOnUse">
      <stop offset=".4" stop-color="#000"/>
      <stop offset=".8" stop-color="#000" stop-opacity="0"/>
    </linearGradient>
    <linearGradient id="linear-gradient-3" x1="3.71" y1="0" x2="3.71" y2="32" gradientUnits="userSpaceOnUse">
      <stop offset=".05" stop-color="#000" stop-opacity="0"/>
      <stop offset=".2" stop-color="#000"/>
      <stop offset=".8" stop-color="#000"/>
      <stop offset=".95" stop-color="#000" stop-opacity="0"/>
    </linearGradient>
    <linearGradient id="linear-gradient-4" x1="8.81" y1="11.95" x2="53.67" y2="11.95" gradientUnits="userSpaceOnUse">
      <stop offset=".3" stop-color="#000"/>
      <stop offset=".7" stop-color="#000" stop-opacity=".5"/>
    </linearGradient>
  </defs>
  <g>
    <path class="cls-4" d="M32.14,23.14l-23.3-5.84c.03-.32.05-.65.04-.98.02-.19.02-.38.02-.56v-.14l1.86.53,21.23,6.07.15.93Z"/>
    <path class="cls-1" d="M16.99,7.95l-8.28,4.78c-.07-.59-.16-1.15-.27-1.7l7.96-4.02.59.95Z"/>
    <path class="cls-3" d="M7.42,15.76c0,7.19-3.03,13.4-7.42,16.24,2.7-4.01,4.4-9.94,4.4-16.54C4.4,9.43,2.99,3.97.68,0c4.01,3.01,6.74,8.94,6.74,15.76Z"/>
  </g>
  <path class="cls-2" d="M49.71,16.71l-3.16-.13.9-2.14-3.19-1.08,3.46-1.12c-18.07-6.46-31.03-1.29-36.97,3.9l-1.88.18c.02-.19.02-.38.02-.56v-.15c0-.65-.02-1.29-.08-1.92,9.16-5.19,22.57-10.05,40-2.9l.27-3.54,2,3.1,2.57-2.21-.2,3.61-.5.65-1.43-.58-.43,1.56-1.98-.13,1.38,2.4-.81,1.06Z"/>
  <g>
    <path d="M66.65,27.05l-5.26-2.53c1.04-1.28,2.01-2.53,2.89-3.74l3.72,4.48c-.23.78-.68,1.37-1.35,1.79Z"/>
    <path d="M58.1,22.95c1.14-1.81,2.45-3.47,3.91-4.99l1.68,1.32c-1.2,1.76-2.5,3.42-3.91,4.99l-1.68-1.32Z"/>
    <path d="M60.36,17.87l-2.25-.57-4.61-3.57c-.78.46-1.3,1.16-1.6,2.06l4.66,3.62,1.03,1.98c.82-1.24,1.74-2.41,2.77-3.51Z"/>
  </g>
</svg>