<?xml version="1.0" encoding="UTF-8"?>
<svg id="Layer_1" data-name="Layer 1" class="color" xmlns="http://www.w3.org/2000/svg" xmlns:xlink="http://www.w3.org/1999/xlink" viewBox="0 0 68 32">
  <defs>
    <style>
      .cls-1 {
        fill: url(#linear-gradient-2);
      }

      .cls-2 {
        fill: url(#linear-gradient-4);
      }

      .cls-3 {
        fill: url(#linear-gradient-3);
      }

      .cls-4 {
        fill: url(#linear-gradient);
      }

      .cls-5 {
        opacity: .5;
      }
    </style>
    <linearGradient id="linear-gradient" x1="309.35" y1="-239.3" x2="342.99" y2="-239.3" gradientTransform="translate(-300.53 -226) scale(1 -1)" gradientUnits="userSpaceOnUse">
      <stop offset=".4" stop-color="#000"/>
      <stop offset=".9" stop-color="#000" stop-opacity="0"/>
    </linearGradient>
    <linearGradient id="linear-gradient-2" x1="309.22" y1="-242.41" x2="332.79" y2="-248.72" gradientTransform="translate(-300.53 -226) scale(1 -1)" gradientUnits="userSpaceOnUse">
      <stop offset=".3" stop-color="#000"/>
      <stop offset=".7" stop-color="#000" stop-opacity="0"/>
    </linearGradient>
    <linearGradient id="linear-gradient-3" x1="308.97" y1="-235.87" x2="317.52" y2="-235.87" gradientTransform="translate(-300.53 -226) scale(1 -1)" gradientUnits="userSpaceOnUse">
      <stop offset=".4" stop-color="#000"/>
      <stop offset=".8" stop-color="#000" stop-opacity="0"/>
    </linearGradient>
    <linearGradient id="linear-gradient-4" x1="304.24" y1="-226" x2="304.24" y2="-258" gradientTransform="translate(-300.53 -226) scale(1 -1)" gradientUnits="userSpaceOnUse">
      <stop offset=".05" stop-color="#000" stop-opacity="0"/>
      <stop offset=".2" stop-color="#000"/>
      <stop offset=".8" stop-color="#000"/>
      <stop offset=".95" stop-color="#000" stop-opacity="0"/>
    </linearGradient>
  </defs>
  <g>
    <path class="cls-4" d="M10.76,16.14l-1.88.18c.02-.19.02-.38.02-.56v-.14c0-.65-.03-1.29-.08-1.92,10.21-5.14,21.64-3.88,33.53-.22l.1,1.19c-12.01-2.56-23.24-3.48-31.69,1.47Z"/>
    <path class="cls-1" d="M32.14,23.14l-23.3-5.84c.03-.32.05-.65.04-.98.02-.19.02-.38.02-.56v-.14l1.86.53,21.23,6.07.15.93h0Z"/>
    <path class="cls-3" d="M16.99,7.95l-8.28,4.78c-.07-.59-.16-1.15-.27-1.7l7.96-4.02.59.95h0Z"/>
    <path class="cls-2" d="M7.42,15.76C7.42,22.95,4.39,29.16,0,32c2.7-4.01,4.4-9.94,4.4-16.54C4.4,9.43,2.99,3.97.68,0c4.01,3.01,6.74,8.94,6.74,15.76Z"/>
  </g>
  <g class="cls-5">
    <polygon points="57.11 32 54.08 24.46 56.21 25.02 56.89 22.79 61.63 25.07 58.43 20.19 61.87 18.58 58.03 17.02 59.51 14.27 57.56 13.3 64.31 9.53 61.04 15.37 68 18.2 62.68 21.76 66.02 29.91 57.71 26.05 57.11 32"/>
  </g>
  <path d="M56.03,14.83l-11.63-4.44c-.63-.24-1.32.08-1.56.69l-2.29,5.99c-.24.63.08,1.32.69,1.56l11.63,4.44c.63.24,1.32-.08,1.56-.69l2.29-5.99c.24-.63-.08-1.32-.69-1.56ZM44.6,16.74c-.76-.29-1.14-1.14-.85-1.9s1.14-1.14,1.9-.85,1.14,1.14.85,1.9-1.14,1.14-1.9.85ZM48.13,18.1c-.76-.29-1.14-1.14-.85-1.9s1.14-1.14,1.9-.85,1.14,1.14.85,1.9-1.14,1.14-1.9.85ZM51.62,19.46c-.76-.29-1.14-1.14-.85-1.9s1.14-1.14,1.9-.85,1.14,1.14.85,1.9-1.14,1.14-1.9.85Z"/>
</svg>