<?xml version="1.0" encoding="UTF-8"?>
<svg id="Layer_1" data-name="Layer 1" class="color" xmlns="http://www.w3.org/2000/svg" xmlns:xlink="http://www.w3.org/1999/xlink" viewBox="0 0 68 32">
  <defs>
    <style>
      .cls-1 {
        fill: url(#linear-gradient-2);
      }

      .cls-2 {
        fill: url(#linear-gradient-4);
      }

      .cls-3 {
        fill: url(#linear-gradient-3);
      }

      .cls-4 {
        fill: #e17800;
      }

      .cls-5 {
        fill: url(#linear-gradient);
      }
    </style>
    <linearGradient id="linear-gradient" x1="309.35" y1="-240.39" x2="341.62" y2="-240.39" gradientTransform="translate(-300.53 -226) scale(1 -1)" gradientUnits="userSpaceOnUse">
      <stop offset=".2" stop-color="#000"/>
      <stop offset=".4" stop-color="#000" stop-opacity="0"/>
    </linearGradient>
    <linearGradient id="linear-gradient-2" x1="309.22" y1="-242.41" x2="332.79" y2="-248.72" gradientTransform="translate(-300.53 -226) scale(1 -1)" gradientUnits="userSpaceOnUse">
      <stop offset=".3" stop-color="#000"/>
      <stop offset=".7" stop-color="#000" stop-opacity="0"/>
    </linearGradient>
    <linearGradient id="linear-gradient-3" x1="308.97" y1="-235.87" x2="317.52" y2="-235.87" gradientTransform="translate(-300.53 -226) scale(1 -1)" gradientUnits="userSpaceOnUse">
      <stop offset=".4" stop-color="#000"/>
      <stop offset=".8" stop-color="#000" stop-opacity="0"/>
    </linearGradient>
    <linearGradient id="linear-gradient-4" x1="304.24" y1="-226" x2="304.24" y2="-258" gradientTransform="translate(-300.53 -226) scale(1 -1)" gradientUnits="userSpaceOnUse">
      <stop offset=".05" stop-color="#000" stop-opacity="0"/>
      <stop offset=".2" stop-color="#000"/>
      <stop offset=".8" stop-color="#000"/>
      <stop offset=".95" stop-color="#000" stop-opacity="0"/>
    </linearGradient>
  </defs>
  <g>
    <path class="cls-5" d="M41.08,13.64l-30.32,2.5-1.88.18c.02-.19.02-.38.02-.56v-.14c0-.65-.03-1.29-.08-1.92l32.17-1.24.1,1.19h0Z"/>
    <path class="cls-1" d="M32.14,23.14l-23.3-5.84c.03-.32.05-.65.04-.98.02-.19.02-.38.02-.56v-.14l1.86.53,21.23,6.07.15.93h0Z"/>
    <path class="cls-3" d="M16.99,7.95l-8.28,4.78c-.07-.59-.16-1.15-.27-1.7l7.96-4.02.59.95h0Z"/>
    <path class="cls-2" d="M7.42,15.76c0,7.19-3.03,13.4-7.42,16.24,2.7-4.01,4.4-9.94,4.4-16.54C4.4,9.43,2.99,3.97.68,0c4.01,3.01,6.74,8.94,6.74,15.76Z"/>
  </g>
  <g>
    <g>
      <path d="M44.26,11.14h0s-.01,0-.02,0c-2.05.09-4.11.13-6.17.19l-1.45-3.44c2.35.82,4.62,1.26,6.82,1.2l.8,1.99.02.05Z"/>
      <path d="M44.51,15.25l-.61,2.18c-.92.07-1.86.21-2.79.48l-.61-1.19-1.01,1.69c-.74.27-1.5.58-2.25.93l1.15-3.88c2.06-.06,4.1-.13,6.14-.21h0Z"/>
      <path d="M59.31,13.44l.06,2.48,5.79-3.85-6.12-3.29.15,2.65c-7.31.51-14.86.83-22.61,1.01-.14.72-.12,1.4.09,2.05,7.7-.19,15.25-.53,22.63-1.04Z"/>
    </g>
    <path class="cls-4" d="M49.36,15.02c3.16-.14,5.95-.32,8.98-.51l.05,2.16c.01.47.54.74.94.48l6.69-4.44c.49-.33.46-1.06-.06-1.35l-7.06-3.79c-.42-.23-.92.09-.89.56l.14,2.36c-2.9.2-5.9.37-8.97.51-1.08-.19-1.66-.61-1.99-1-.38-.44-.41-.78-.82-1.32-.35-.45-.76-.77-1.17-1,.2.06.39.1.56.11.67.04,1.16-.1,1.48-.18.53-.13,1.65.11,2.24.73.7.74.61.7,1.5,1.14,1.15.56,2.48.13,2.88,0,1.24-.49,2.81-1.9,3.7-2.82.65-.67,1.74-.77,2.56-.28l6.92,4.06c1.23.74,1.3,2.39.13,3.21l-6.66,4.68c-.9.63-2.13.45-2.86-.36-.2-.23-.44-.46-.72-.69-.4-.32-1.12-1.71-3.23-1.36-1.16.19-2.04.82-2.3,1.01-.48.36-.7.64-1.03.95-.51.5-2.73,2.43-4.81,2.07,3.41-1.13.37-2.66,3.81-4.93Z"/>
    <path class="cls-4" d="M22.76,12.01c1.78.62,3.12.57,4.03.4.93-.17,1.56-.49,2.95-.53,1.73-.06,2.24.4,2.46.68.26.32.25.57.62.89.1.09.78.69,1.4.4.52-.24.7-1.01.66-1.53-.08-1.24-1.37-1.93-1.57-2.03-.21-.11-.63-.3-1.83-.36-1.45-.06-2.43-.11-3.56.37-1.13.47-1.15.95-2.39,1.41-.39.14-.76.24-1.09.29-.46.08-.94.08-1.4.03l-.29-.03h0Z"/>
    <path class="cls-4" d="M24.06,15.91c.23.16.61.36,1.13.46.18.03,1.03.19,1.79-.17.14-.07.49-.24.69-.58.08-.13.1-.23.12-.31.14-.46.79-.98,1.58-1.12.17-.03,1.14-.21,1.74.3.62.52.29,1.3.26,1.36-.28.62-1.02.87-1.43,1.01-.49.17-.95.19-1.87.22-1.29.05-1.98.07-2.77-.22-.01,0-.02,0-.04-.01-.52-.2-.92-.53-1.2-.93h0Z"/>
  </g>
  <path class="cls-4" d="M44.26,11.14h0s-.01,0-.02,0v-.06l.02.05Z"/>
  <path class="cls-4" d="M51.64,19.96c.27-.36.42-.69.5-.93.12-.35.1-.49.24-.76.19-.37.46-.58.62-.7.25-.19.87-.65,1.57-.46.12.03.64.18.79.64.13.41-.08.83-.3,1.06-.24.24-.6.29-1.32.41-.62.1-.9.08-1.37.27-.06.02-.11.05-.16.07-.22.1-.4.24-.58.4h0Z"/>
</svg>