<?xml version="1.0" encoding="UTF-8"?>
<svg id="Layer_1" data-name="Layer 1" class="color" xmlns="http://www.w3.org/2000/svg" xmlns:xlink="http://www.w3.org/1999/xlink" viewBox="0 0 68 32">
  <defs>
    <style>
      .cls-1 {
        fill: url(#linear-gradient-2);
      }

      .cls-2 {
        fill: url(#linear-gradient-4);
      }

      .cls-3 {
        fill: url(#linear-gradient-3);
      }

      .cls-4 {
        fill: url(#linear-gradient);
      }
    </style>
    <linearGradient id="linear-gradient" x1="8.68" y1="16.41" x2="32.25" y2="22.72" gradientUnits="userSpaceOnUse">
      <stop offset=".3" stop-color="#000"/>
      <stop offset=".7" stop-color="#000" stop-opacity="0"/>
    </linearGradient>
    <linearGradient id="linear-gradient-2" x1="8.44" y1="9.86" x2="16.99" y2="9.86" gradientUnits="userSpaceOnUse">
      <stop offset=".4" stop-color="#000"/>
      <stop offset=".8" stop-color="#000" stop-opacity="0"/>
    </linearGradient>
    <linearGradient id="linear-gradient-3" x1="3.71" y1="0" x2="3.71" y2="32" gradientUnits="userSpaceOnUse">
      <stop offset=".05" stop-color="#000" stop-opacity="0"/>
      <stop offset=".2" stop-color="#000"/>
      <stop offset=".8" stop-color="#000"/>
      <stop offset=".95" stop-color="#000" stop-opacity="0"/>
    </linearGradient>
    <linearGradient id="linear-gradient-4" x1="8.81" y1="12.49" x2="41.93" y2="12.49" gradientUnits="userSpaceOnUse">
      <stop offset=".3" stop-color="#000"/>
      <stop offset=".7" stop-color="#000" stop-opacity=".5"/>
    </linearGradient>
  </defs>
  <g>
    <path class="cls-4" d="M32.14,23.14l-23.3-5.84c.03-.32.05-.65.04-.98.02-.19.02-.38.02-.56v-.14l1.86.53,21.23,6.07.15.93Z"/>
    <path class="cls-1" d="M16.99,7.95l-8.28,4.78c-.07-.59-.16-1.15-.27-1.7l7.96-4.02.59.95Z"/>
    <path class="cls-3" d="M7.42,15.76c0,7.19-3.03,13.4-7.42,16.24,2.7-4.01,4.4-9.94,4.4-16.54C4.4,9.43,2.99,3.97.68,0c4.01,3.01,6.74,8.94,6.74,15.76Z"/>
  </g>
  <g>
    <rect x="50.95" y="10.13" width="2.54" height="4.26" transform="translate(-.49 2.31) rotate(-2.53)"/>
    <path d="M64.9,10.17l.14,3.14-3.48,1.57c-1.06.05-3.41.16-3.41.16l-2.59-1.25-.7.03-.14-3.26.7-.03,2.47-1.47s2.35-.09,3.41-.14l3.61,1.25Z"/>
    <polygon points="67.91 10.6 66.12 10.13 66.19 11.68 66.19 11.71 66.26 13.26 68 12.61 67.96 11.6 67.91 10.6"/>
    <polygon points="43.41 11.05 49.56 10.77 49.7 13.97 43.55 14.25 43.41 11.05"/>
  </g>
  <path class="cls-2" d="M41.93,16.08l-2.5,1.93-.69-2.22-3.14,1.22,1.93-3.08-26.78,2.21-1.88.18c.02-.19.02-.38.02-.56v-.15c0-.65-.02-1.29-.08-1.92l28.63-1.57-2.07-2.89,3.53,1.09.55-3.35,2.17,2.89.04.82-1.47.47.68,1.47-1.6,1.17,2.61.95.06,1.34Z"/>
</svg>