<?xml version="1.0" encoding="UTF-8"?>
<svg id="Layer_1" data-name="Layer 1" class="color" xmlns="http://www.w3.org/2000/svg" xmlns:xlink="http://www.w3.org/1999/xlink" viewBox="0 0 68 32">
  <defs>
    <style>
      .cls-1 {
        fill: url(#linear-gradient-2);
      }

      .cls-2 {
        fill: url(#linear-gradient-4);
      }

      .cls-3 {
        fill: url(#linear-gradient-3);
      }

      .cls-4 {
        fill: url(#linear-gradient);
      }

      .cls-5 {
        opacity: .5;
      }
    </style>
    <linearGradient id="linear-gradient" x1="8.81" y1="14.51" x2="34.71" y2="14.51" gradientUnits="userSpaceOnUse">
      <stop offset=".4" stop-color="#000"/>
      <stop offset=".9" stop-color="#000" stop-opacity="0"/>
    </linearGradient>
    <linearGradient id="linear-gradient-2" x1="8.68" y1="16.41" x2="32.25" y2="22.72" gradientUnits="userSpaceOnUse">
      <stop offset=".3" stop-color="#000"/>
      <stop offset=".7" stop-color="#000" stop-opacity="0"/>
    </linearGradient>
    <linearGradient id="linear-gradient-3" x1="8.44" y1="9.86" x2="16.99" y2="9.86" gradientUnits="userSpaceOnUse">
      <stop offset=".4" stop-color="#000"/>
      <stop offset=".8" stop-color="#000" stop-opacity="0"/>
    </linearGradient>
    <linearGradient id="linear-gradient-4" x1="3.71" y1="0" x2="3.71" y2="32" gradientUnits="userSpaceOnUse">
      <stop offset=".05" stop-color="#000" stop-opacity="0"/>
      <stop offset=".2" stop-color="#000"/>
      <stop offset=".8" stop-color="#000"/>
      <stop offset=".95" stop-color="#000" stop-opacity="0"/>
    </linearGradient>
  </defs>
  <g>
    <path d="M36.44,12.6l-.96.83-.19-.22-1.62,1.4c-.69.6,4.08,6.11,4.78,5.51l1.62-1.4-.19-.22.96-.83c-1.52-1.65-2.98-3.32-4.39-5.06h0Z"/>
    <path d="M42.44,7.42c-.3-.36-.78-.43-1.08-.18l-3.65,3.17c-.29.26-.28.73.02,1.09,1.38,1.75,2.82,3.41,4.33,5,.3.36.78.43,1.08.18l3.65-3.17c.29-.26.28-.73-.02-1.09-1.3-1.77-2.74-3.43-4.33-5Z"/>
    <path d="M45.47,5.61c-.66.02-1.35.19-2,.49,1.82,1.64,3.41,3.48,4.78,5.51.4-.6.67-1.26.77-1.9.18-1.08-.05-2.14-.76-2.94-.69-.8-1.71-1.18-2.8-1.16h.01Z"/>
  </g>
  <path class="cls-5" d="M59.73,9.53l8.27,2.28-7.61,4.19,5.68,5.88-8.25-.18.18,6.57-6.21-9.46,9.08.48-6.86-4.19,5.55-1.51-5.17-1.82,1.61-2.64-4.2.47c.17-1.62-.25-3.31-1.6-4.65-1.15-1.15-3.02-1.88-4.94-1.69.66-.92,2.09-1.45,3.3-1.7,2.51-.56,5.05.93,5.87,3.36l9.68-4.91-4.41,9.53Z"/>
  <g>
    <path class="cls-4" d="M34.71,13.89l-23.95,2.26-1.88.18c.02-.19.02-.38.02-.56v-.14c0-.65-.03-1.29-.08-1.92l25.79-1,.1,1.19Z"/>
    <path class="cls-1" d="M32.14,23.14l-23.3-5.84c.03-.32.05-.65.04-.98.02-.19.02-.38.02-.56v-.14l1.86.53,21.23,6.07.15.93Z"/>
    <path class="cls-3" d="M16.99,7.95l-8.28,4.78c-.07-.59-.16-1.15-.27-1.7l7.96-4.02.59.95Z"/>
    <path class="cls-2" d="M7.42,15.76c0,7.19-3.03,13.4-7.42,16.24,2.7-4.01,4.4-9.94,4.4-16.54C4.4,9.43,2.99,3.97.68,0c4.01,3.01,6.74,8.94,6.74,15.76Z"/>
  </g>
</svg>