<?xml version="1.0" encoding="UTF-8"?>
<svg id="Layer_1" data-name="Layer 1" class="color" xmlns="http://www.w3.org/2000/svg" xmlns:xlink="http://www.w3.org/1999/xlink" viewBox="0 0 68 32">
  <defs>
    <style>
      .cls-1 {
        fill: url(#linear-gradient-2);
      }

      .cls-2 {
        fill: url(#linear-gradient-4);
      }

      .cls-3 {
        fill: url(#linear-gradient-3);
      }

      .cls-4 {
        fill: url(#linear-gradient);
      }
    </style>
    <linearGradient id="linear-gradient" x1="309.35" y1="-240.39" x2="341.62" y2="-240.39" gradientTransform="translate(-300.53 -226) scale(1 -1)" gradientUnits="userSpaceOnUse">
      <stop offset=".4" stop-color="#000"/>
      <stop offset=".9" stop-color="#000" stop-opacity="0"/>
    </linearGradient>
    <linearGradient id="linear-gradient-2" x1="309.22" y1="-242.41" x2="332.79" y2="-248.72" gradientTransform="translate(-300.53 -226) scale(1 -1)" gradientUnits="userSpaceOnUse">
      <stop offset=".3" stop-color="#000"/>
      <stop offset=".7" stop-color="#000" stop-opacity="0"/>
    </linearGradient>
    <linearGradient id="linear-gradient-3" x1="308.97" y1="-235.87" x2="317.52" y2="-235.87" gradientTransform="translate(-300.53 -226) scale(1 -1)" gradientUnits="userSpaceOnUse">
      <stop offset=".4" stop-color="#000"/>
      <stop offset=".8" stop-color="#000" stop-opacity="0"/>
    </linearGradient>
    <linearGradient id="linear-gradient-4" x1="304.24" y1="-226" x2="304.24" y2="-258" gradientTransform="translate(-300.53 -226) scale(1 -1)" gradientUnits="userSpaceOnUse">
      <stop offset=".05" stop-color="#000" stop-opacity="0"/>
      <stop offset=".2" stop-color="#000"/>
      <stop offset=".8" stop-color="#000"/>
      <stop offset=".95" stop-color="#000" stop-opacity="0"/>
    </linearGradient>
  </defs>
  <g>
    <path d="M47.1,10.93c-2.06.08-4.12.13-6.19.18l-1.45-3.44c2.35.82,4.61,1.26,6.82,1.2l.81,2.05h0Z"/>
    <path d="M47.35,15.02l-.61,2.18c-.92.07-1.86.21-2.79.48l-.61-1.19-1.01,1.69c-.74.27-1.5.58-2.25.93l1.15-3.88c2.06-.06,4.1-.13,6.14-.21h0Z"/>
    <path d="M62.15,13.22l.06,2.48,5.79-3.85-6.12-3.29.15,2.65c-7.31.51-14.86.83-22.61,1.01-.14.72-.12,1.4.09,2.05,7.7-.19,15.25-.53,22.63-1.04Z"/>
  </g>
  <g>
    <path class="cls-4" d="M41.08,13.64l-30.32,2.5-1.88.18c.02-.19.02-.38.02-.56v-.14c0-.65-.03-1.29-.08-1.92l32.17-1.24.1,1.19h0Z"/>
    <path class="cls-1" d="M32.14,23.14l-23.3-5.84c.03-.32.05-.65.04-.98.02-.19.02-.38.02-.56v-.14l1.86.53,21.23,6.07.15.93h0Z"/>
    <path class="cls-3" d="M16.99,7.95l-8.28,4.78c-.07-.59-.16-1.15-.27-1.7l7.96-4.02.59.95h0Z"/>
    <path class="cls-2" d="M7.42,15.76c0,7.19-3.03,13.4-7.42,16.24,2.7-4.01,4.4-9.94,4.4-16.54C4.4,9.43,2.99,3.97.68,0c4.01,3.01,6.74,8.94,6.74,15.76Z"/>
  </g>
</svg>