<?xml version="1.0" encoding="UTF-8"?>
<svg id="Layer_1" class="color" data-name="Layer 1" xmlns="http://www.w3.org/2000/svg" viewBox="0 0 116 32">
  <defs>
    <style>
      .cls-1 {
        opacity: .5;
      }
    </style>
  </defs>
  <g>
    <path d="M48.34,4.85l16.01.07v5.63l-16.01.78c-1.79,0-3.24-1.46-3.24-3.24s1.45-3.24,3.24-3.24Z"/>
    <path d="M82.74,9.65l-8.31.41v-5.09l8.31.04c.55,1.62.52,3.17,0,4.65Z"/>
    <path d="M68.04,16.8l-1.75.4c-.26.06-.5-.14-.5-.4V4.43c0-.28.23-.51.51-.51h1.56c.28,0,.51.23.51.51v11.97c0,.19-.13.36-.32.4Z"/>
    <path d="M72.66,15.7l-1.75.4c-.26.06-.5-.14-.5-.4V4.43c0-.28.23-.51.51-.51h1.56c.28,0,.51.23.51.51v10.88c0,.19-.13.36-.32.4Z"/>
    <path d="M39.84,8.97l-3.84.7c-.43.05-.95-.03-1.38-.1-.91-.14-1.69-.06-1.89.55-.25.73.11.93,1.33,1.78.19.13.68.36.89.39-.49.42-.97.84-1.42,1.3l-.06.06c-1.2,1.22-2.99,1.65-4.62,1.12l-6.54-2.13c-2.6-.84-5.35-1.11-8.06-.77l-8.77,1.42c-1.05.13-1.72,1.19-1.38,2.19l5.78,15.37c.34,1.01,1.52,1.46,2.44.91l14.24-10,8.44,3.68,1.92-.91,1.08-3.57c.89-2.97,2.35-3.75,4.35-6.12l.47-.56-2.96-5.33Z"/>
    <g>
      <path d="M74.42,11.5v2.72l.53-.12c.94-.21,1.76-.77,2.31-1.56l.86-1.23-3.7.18Z"/>
      <path d="M48.37,12.78h-.03c-2.59,0-4.69-2.1-4.69-4.69,0-.44.06-.86.17-1.26l-2.71,1.46,2.96,5.31.48.87-.64.76-.47.56c-.74.88-1.4,1.81-1.98,2.78.11.07.2.15.28.25l.6.75c.13.2.28.39.45.56h.01c.78.82,1.93,1.34,3.2,1.34,2.36,0,4.28-1.74,4.28-3.89,0-.52-.12-1.02-.32-1.47-.14-.31-.35-.58-.57-.84l-.71-.8h5.82l.02-.1c0,1.02.83,1.84,1.85,1.84h7.96v-4.22l-15.94.78h-.03ZM46.01,19.87c-1.46,0-2.64-1.02-2.64-2.29,0-.26.05-.51.14-.74l.24.04c.36,1.14,1.16,2.1,2.27,2.55l.32-.59s-.67-.43-.78-.54-.52-.76-.59-.91c-.24-.53-.33-1.28-.13-1.87.35-.15.74-.23,1.15-.23,1.46,0,2.64,1.02,2.64,2.29s-1.18,2.29-2.64,2.29Z"/>
    </g>
  </g>
  <g>
    <polygon class="cls-1" points="84.67 3.59 93.67 .58 90.39 5.09 100.52 10.46 91.52 10.24 96.39 17.88 84.67 11.51 84.67 10.18 87.39 10.41 86.54 8.6 90.85 7.52 86.71 6.22 88.01 4.24 84.67 4.86 84.67 3.59"/>
    <polygon class="cls-1" points="98.61 16.42 97.45 15.17 101.18 15.63 97.56 12.29 106.45 10.25 96.03 6.31 97.73 3.4 94.07 4.83 95.16 2.44 101.69 0 99.03 5.77 112 10.02 101.3 13.45 106.11 18.46 98.61 16.42"/>
  </g>
</svg>