<?xml version="1.0" encoding="UTF-8"?>
<svg id="Layer_1" class="color" data-name="Layer 1" xmlns="http://www.w3.org/2000/svg" viewBox="0 0 85 32">
  <defs>
    <style>
      .cls-1 {
        opacity: .5;
      }
    </style>
  </defs>
  <g>
    <path d="M20.36,23.97c-.81.21-1.73.51-1.73.51l-3.68,1.35s-1.54.65-2.34,1.34c-.8.69-1.49,1.59-1.49,1.59l-1.39,1.71s-.38.47-.74.6-.67-.04-.67-.04l-3.85-2.26s-.3-.23-.41-.54-.05-.59-.05-.59c0,0,.16-.38.42-.81.26-.43.42-.62.42-.62,0,0,2.34-2.18,4.73-3.19,2.39-1.01,5.51-1.8,5.51-1.8l7.86-1.72s7.72-1.61,12.71-3.42c4.99-1.8,9-4.17,9-4.17l2.28-.23,1.81,7.55-1.6.65s-3.56.19-5.37.2c-1.8.02-5.4.76-5.4.76,0,0-7.73,1.41-9.34,1.68-1.6.27-3.75.75-3.75.75,0,0-2.12.49-2.92.71Z"/>
    <path d="M60.42,14.52l-2.92-5.76s-.13-.23-.31-.56l1.44-.51s1.03,1.46,1.83,3.22c.8,1.76.99,2.83.99,2.83l-1.03.77Z"/>
    <path d="M63.23,23.44s-1.75,1.93-4.91,3.06c-3.16,1.13-6.05.78-6.05.78l-4.47-18.68,3.48-1.22-2.52-7.38s2.24,1.3,3.89,3.69,3.51,5.81,3.51,5.81l7.08,13.94Z"/>
  </g>
  <polygon class="cls-1" points="71.53 29.54 65.33 28.78 67.12 32 60.56 28.84 66.22 27.33 65.88 23.8 69.71 22.49 65.76 19.01 73.74 15.14 70.81 20.28 81 22.66 70.43 24.35 71.53 29.54"/>
</svg>