<?xml version="1.0" encoding="UTF-8"?>
<svg id="Layer_1" data-name="Layer 1" class="color" xmlns="http://www.w3.org/2000/svg" viewBox="0 0 97 32">
  <defs>
    <style>
      .cls-1 {
        opacity: .5;
      }
    </style>
  </defs>
  <path class="cls-1" d="M82.52,19.35l3.61,12.65-14.39-10.53-1.77,9.2s-1.21-10.06-1.76-14.33c.6-.21,1.2-.37,1.73-.49l6.51,4.76,1.05-5.18c3.87-.55,6.25-1.57,8.74-3.36l6.76,9.19-10.48-1.91Z"/>
  <g>
    <path d="M84.42,9.88l-2.33,1.09c-.64.3-1.33.5-2.03.6l-5.41.74c-1.4.19-2.77.5-4.12.95l-3.72,1.22c-.87.28-1.67.75-2.34,1.38l-1.33,1.25c-.66.62-1.46,1.08-2.33,1.34l-4.28,1.27c-1.2.36-2.41.67-3.62.93l-7.28,1.54c-.2-1-.66-2.13-1.12-3.23-.41-1-.83-2-1.3-2.81l8.08-4.15c.35-.18.71-.35,1.07-.51l6.14-2.7,4.84-1.91c1.05-.94,1.67-1.84,1.97-2.71.02.8.05,1.62-.11,2.38,2.12-1.52,3.63-3.76,4.22-6.32.04,1.66-.24,3.29-.76,4.83l2.58-1.31,2.44.57.52-1.33,1.84-.32c.54-.66.67-1.52.63-2.45.47.18.95.56,1.29.88l2.43-.95c3.25-1.34,7.27,8.42,4.02,9.75Z"/>
    <path d="M40.72,25.05l2.45-1.01c.49-.2.77-.74.62-1.25-.57-2-1.35-3.9-2.36-5.72-.26-.46-.83-.65-1.32-.45l-2.45,1.01c-.54.22-.8.84-.57,1.38l2.25,5.47c.22.54.84.8,1.38.57Z"/>
    <path d="M25.35,23.99c.46-.23.93-.45,1.4-.66.65,1.82,1.21,3.65,1.68,5.51-.31.11-.63.22-.94.33l-2.14-5.18Z"/>
    <path d="M29.07,22.29c.92,1.75,1.76,3.53,2.51,5.37-.6.24-1.2.48-1.81.7-.44-1.9-1.03-3.77-1.77-5.6.35-.15.71-.31,1.06-.46Z"/>
    <path d="M31.92,21.12c.83,1.8,1.57,3.61,2.22,5.47-.36.16-.71.31-1.07.46-.7-1.86-1.54-3.66-2.52-5.39.45-.19.92-.37,1.37-.55Z"/>
    <path d="M35.53,19.79l2.14,5.18c-.73.35-1.47.7-2.22,1.03-.59-1.85-1.33-3.65-2.2-5.39.76-.29,1.52-.56,2.28-.82Z"/>
    <path d="M22.5,24.34l-2.13.88c-.43.18-.67.64-.54,1.09.08.27.17.54.25.81-.64.2-1.99.55-3.5.47-1.61-.08-3.17-.75-4.65-1.99-.63-.53-1.11-1.1-1.38-2.17-.26-1.03-.2-1.83.04-3.23.19-1.08.42-1.79.63-2.41.3-.89.56-1.67.43-2.9-.12-1.23-.52-1.91-.84-2.26-1.25-1.41-3.32-1.14-3.92-1.02-.47.09-1.72.33-2.42,1.42-.41.63-.44,1.26-.45,1.49-.14,2.73.51,5.82.54,5.95.26,1.22.43,2.06.55,2.68.24,1.22.33,1.68.67,2.64.77,2.16,1.43,2.97,1.98,3.49.88.84,1.74,1.17,3.05,1.68.88.34,2.52.98,4.69,1.04,1.5.04,2.63-.21,3.54-.4.6-.13.83-.21,1.15-.33.27-.1.63-.23,1.45-.45.08.16.16.31.24.47.22.4.72.57,1.15.39l2.13-.88c.47-.19.69-.73.5-1.2l-1.96-4.76c-.19-.47-.73-.69-1.2-.5ZM19.63,29.7c-.29.1-.45.16-.94.27-.87.19-1.85.4-3.15.37-1.88-.05-3.29-.6-4.13-.92-1.24-.48-1.87-.73-2.51-1.34-.24-.23-.81-.77-1.55-2.85-.3-.84-.37-1.2-.61-2.4-.12-.63-.29-1.47-.55-2.71,0-.03-.63-3.01-.5-5.52,0-.14.02-.42.19-.68.16-.24.41-.4.66-.5s.52-.16.68-.19c.28-.05,1.68-.28,2.37.49.16.18.36.62.43,1.32.09.88-.08,1.38-.36,2.21-.22.65-.49,1.46-.69,2.66-.27,1.57-.35,2.61-.01,3.92.32,1.27.9,2.18,1.93,3.04,1.77,1.48,3.67,2.28,5.64,2.38,1.8.09,3.4-.33,4.14-.57.08.2.17.41.26.61-.67.19-1.02.32-1.28.41Z"/>
  </g>
</svg>