<?xml version="1.0" encoding="UTF-8"?>
<svg id="Layer_1" data-name="Layer 1" class="color" xmlns="http://www.w3.org/2000/svg" xmlns:xlink="http://www.w3.org/1999/xlink" viewBox="0 0 77 32">
  <defs>
    <style>
      .cls-1 {
        fill: url(#linear-gradient);
      }

      .cls-2 {
        opacity: .5;
      }
    </style>
    <linearGradient id="linear-gradient" x1="4" y1="17.89" x2="32.82" y2="17.89" gradientUnits="userSpaceOnUse">
      <stop offset="0" stop-color="#000" stop-opacity="0"/>
      <stop offset=".4" stop-color="#000"/>
    </linearGradient>
  </defs>
  <g>
    <path d="M56.41,10.19c-4.27,2.29-5.25,5.43-5.45,7.14-.19,0-.38.01-.56.03l-.37.04c-.44-1.05-.71-2.16-.8-3.29l-.13-1.69-.54,1.64c-.44,1.36-.24,2.84.54,4.03-1.42,1.19-4.42,4.38-2.79,9.23-1.06-.15-2.11-.45-3.09-.88l-2.31-1.01c-.97-.42-2.03-.6-3.08-.52l-.31.02c-.69.05-1.38.06-2.06.02-.73-2.17-1.14-4.2-1.31-6.08-.16-1.68-.13-3.22,0-4.6.28-2.91,1.02-5.09,1.53-6.31,1.05-.08,2.09-.17,3.12-.27l-.13,1.77c-.07.95-.08,1.9-.03,2.85l.02.28c.04.75.63,1.36,1.38,1.4l.88.06c1.33.09,2.66-.12,3.9-.6l.6-.24c.48-.19.83-.6.94-1.1l.45-2.01c.27-1.2.43-2.42.51-3.64.59-.11,1.18-.24,1.76-.36.99-.13,1.99-.11,2.98.07,1.3.24,2.44,1,3.15,2.11l1.22,1.91Z"/>
    <path d="M60.39,19.93c-.14.22-.31.43-.5.6-.58.54-1.41.74-2.19.59h-.04c-.65-.13-1.27-.38-1.82-.74l-.39-.26c-.41-.27-.79-.59-1.12-.96l2.32-1.23-3.19.26c-.15-.16-.32-.3-.51-.41.08-1.14.68-3.86,4.55-5.89l2.89,4.51c.69,1.07.69,2.44,0,3.52Z"/>
    <path d="M60.53,25.6c.09.46-.02.96-.34,1.3,0,0,0,0,0,0-.41.44-1,.68-1.61.65l-2.38-.12c-.23-.01-.46-.02-.69-.02-.04-.6-.02-1.21.07-1.81l.11-.69c.04-.22.19-.41.41-.48.23-.08.48-.1.73-.06l2.17.31-.1-.1c-.23-.23-.51-.41-.81-.54-.55-.22-1.13-.37-1.72-.41l-.82-.07c-.39-.03-.73.24-.8.62l-.55,3.28c-.27.02-.54.04-.8.08l-.62.08c-1.2.15-2.42.16-3.62.02l-.56-.06c-.06-.13-.11-.25-.16-.37-1.49-3.65.36-6.1,1.55-7.22.1-.1.2-.18.29-.26.63.01,1.25.07,1.87.17,1.21.2,2.4.55,3.53,1.06l2.59,1.16c.52.23.97.56,1.36.96.37.38.6.88.69,1.4l.21,1.12Z"/>
    <path d="M39.99,11.61c-.05.35.34.81.76.87h0c.82.11,1.65.08,2.46-.1l.94-.21c.2-.04.38-.15.52-.3.17-.18.28-.43.3-.69l.62-4.41-5.12.76-.48,4.08Z"/>
    <path class="cls-1" d="M32.82,8.57c-.94,2.82-1.89,7.54-.7,13.41.16.78.35,1.57.59,2.39-.16.02-.31.05-.47.08-14.36,2.41-28.24,3.29-28.24,3.29V8.18c16.03-.38,25.53.15,28.82.39Z"/>
  </g>
  <polygon class="cls-2" points="67.11 22.66 72.25 32 61.6 28.14 66.79 27 64.22 21.99 66.19 19.99 63.48 17.76 65.58 14.48 61.79 13.74 62.67 7.37 58.99 6.47 68.94 0 64.88 11.59 73 11.3 66.37 17.05 72.18 21.99 67.11 22.66"/>
</svg>