<?xml version="1.0" encoding="UTF-8"?>
<svg id="Layer_1" data-name="Layer 1" class="color" xmlns="http://www.w3.org/2000/svg" viewBox="0 0 133 32">
  <defs>
    <style>
      .cls-1 {
        fill: #e17800;
      }
    </style>
  </defs>
  <rect x="50.9" y="10.53" width="3.03" height="13.37"/>
  <polygon points="61.59 22.29 63.07 22.42 63.07 12.01 61.59 12.14 61.59 22.29"/>
  <path d="M43.35,12.34v2.21s1.01.18,1.01.18l.97.18v4.59l-.97.18-1.02.18v2.22c.63,1.12,1.22,1.81,2.13,1.81h.53v-13.37h-.53c-.92,0-1.5.69-2.12,1.82Z"/>
  <path d="M58.83,10.56v13.3c.74-.14,1.4-.74,1.93-1.63v-10.05c-.53-.89-1.19-1.49-1.93-1.63Z"/>
  <path d="M78.66,11.84l-1.29.1-.41.75c1.07-.2,1.2,2.53-1.37,7.96l-1.3-.16c2.34-4.81,2.14-7.71,1.91-8.48l-12.29.87v8.68l11.53,1.01c1.02.25,2.56-1.95,3.45-4.92.89-2.96.79-5.57-.23-5.81ZM66.87,19.48c-.71-.02-1.27-.56-1.25-1.2.02-.64.61-1.14,1.33-1.11.71.02,1.27.56,1.25,1.19-.02.64-.61,1.14-1.33,1.12ZM67.68,14.52c-.02-.46.54-.86,1.26-.89.71-.04,1.3.31,1.32.77.03.46-.53.86-1.25.89-.71.04-1.3-.31-1.33-.77ZM71,19.58c-.71-.03-1.27-.56-1.25-1.2.02-.64.61-1.14,1.33-1.11.71.02,1.27.55,1.25,1.19-.02.64-.61,1.14-1.33,1.12ZM73.14,15.08c-.71.03-1.31-.32-1.33-.78s.54-.86,1.25-.89c.71-.03,1.31.31,1.33.77.02.46-.54.86-1.25.9Z"/>
  <polygon points="39.19 7.53 46 7.49 46 4.2 39.19 4.2 39.19 7.53"/>
  <rect x="50.9" y="4.2" width="3.03" height="4.56"/>
  <path d="M101.97,17.83c-.19.18-.41.27-.5.3-4.17.15-11.81.41-13.06.44-.09,0-.19-.04-.24-.12l-5.72-8.48c-.51-.69-1.24-.71-1.5-.7l-1.99-.05v-.96h-20.13v.53c1.04.1,2.01.65,2.8,1.58l1.38-.12,1.92-.17v.59h5.44l3.32-.23,2.1-.15.57-.04,2.18-.17.28-.02.27.06c.41.1.78.31,1.09.6l.89.02s.14,0,.21.09c.27.37,4.03,5.94,5.52,8.14.28.42.66,1.06,1.47,1.06.6,0,12.84-.42,13.36-.44l.12-.02c.07-.01.69-.15,1.24-.68.4-.37,1.09-.94,1.1-.95l-.94-1.14s-.74.61-1.17,1.02Z"/>
  <path d="M103.41,5.45l-1.6-.19-.26.61c.92.1,1.27,2.29.2,5.52l-1.35-.28c.55-1.73.82-4.57.36-5.93l-7.98-.84c.06.21.12.45.16.73v.04l-.77-.09c-.07-.31-.15-.57-.26-.77h-.04c-.45-.07-.96.72-1.34,1.91l-10.04-1.76c-.76-.14-1.54-.2-2.32-.2h-19.34v3.22h20.14c.6.04,1.21.12,1.81.23l9.22,1.74c-.02,1.27.23,2.19.67,2.26l.17.04c.31-.32.59-.88.83-1.58l.74.15c-.2.62-.45,1.18-.75,1.61l10.34,2.26c.8.13,1.76-1.71,2.15-4.11.39-2.39.05-4.44-.74-4.57ZM92.88,8.25c-.03.22-.07.43-.12.65l-.74-.12c.05-.21.09-.42.12-.64.1-.62.14-1.2.14-1.73l.74.11c0,.54-.05,1.13-.14,1.73Z"/>
  <path d="M35.98,3.08l-1.69-1.93c-.13-.15-.33-.23-.55-.22l-3.11.24-.18.05-5.57,3c-.11.06-.21.15-.27.26l-.27.49-8.16,2.66c-.4.12-.64.49-.65.88l.51,2.05c.14.4.52.65.93.63l2.96,6.64,9.78-3.61.49-.75c.57-.19,1.18-.32,1.76-.48l.44.26c.34.19.72.22,1.08.1l1.99-.66c.39-.13.65-.48.65-.89v-3.23l1.89-1.01v-3.39l-2.03-1.09ZM27.13,13.75l-5.75,2.1c-.19.08-.41-.02-.48-.22l-1.59-4.76,5.72-1.34c.22-.05.44-.01.63.1l.49.47c-.18.06-.36.15-.53.3l-3.78,3.27.55.65,3.52-2.68c.64-.45,1.24-.3,1.86.02l.51.5c.83.87-.48,1.32-1.15,1.59Z"/>
  <path d="M38.46,24.66c-.13.55-.29,1.02-.5,1.46-.64,1.39-1.58,2.21-1.95,2.5-.27.22-1.28.94-2.77,1.26-1.68.37-3.04.04-3.94-.17-1.45-.35-2.38-.86-3.94-1.69l-.34-.18c-3.38-1.82-5.08-2.73-6.38-3.29-2.77-1.18-6.54-2.33-7.64-2.66-.52-.15-2.11-.63-3.65-1.89-.4-.34-.93-.83-1.14-1.3-.63-1.33.02-2.8.15-3.09.52-1.08,1.47-1.69,3.27-2.58,1.78-.88,3.65-1.66,5.58-2.34l-.48-1.9c-2.06.73-4.05,1.55-5.96,2.5-1.85.91-3.33,1.75-4.16,3.48-.29.6-1.14,2.69-.17,4.76.3.64.85,1.29,1.67,1.97,1.84,1.52,3.72,2.08,4.34,2.27,1.06.32,4.75,1.44,7.42,2.59,1.23.52,2.9,1.42,6.24,3.22l.32.18c1.63.88,2.71,1.46,4.41,1.87.6.14,1.44.34,2.47.38.7.03,1.49-.02,2.34-.2,1.84-.41,3.09-1.27,3.55-1.63.48-.38,1.69-1.45,2.52-3.22.26-.57.46-1.15.62-1.84.25-1.06.38-2.23.43-3.36h-1.95c-.05,1-.16,2.01-.37,2.92Z"/>
  <polygon points="44.15 15.9 42.16 15.54 42.16 13.52 36.55 13.52 36.55 20.91 42.16 20.91 42.16 18.89 44.15 18.52 44.15 15.9"/>
  <rect x="47.18" y="3.48" width="2.54" height="21.18" rx=".45" ry=".45"/>
  <rect x="55.11" y="3.48" width="2.54" height="21.18" rx=".45" ry=".45"/>
  <path class="cls-1" d="M127.85,2.27c-.02-.26-.13-2.35-.26-2.27-.4.27-1.64,2.22-1.97,2.53-1.56,1.49-4.32,3.66-6.12,4.74l-1.59,1.02c-.28.13-1.89,1.04-2.13.81-.03-.03-.01-.33.02-.72.1-1.07-.19-2.13-.81-3l-1.1-1.41c-.24-.24-.51-.46-.62-.36-.14.13-.25,2.07-.38,2.51-.39,1.4-2.09,3.46-3.14,4.26-.2.15-.51.38-.71.51-.61.41-1.01.11-1.29,1.01-.47,1.51-.47,2.4.03,4.01.79,2.54,1.73,2.64,2.04,2.76,1.35.51,3.64.01,4.41-1.38.62-1.11,0-.7-.59-.85l-.45-.19c-1.16-.5-2.22-1.22-3.1-2.12l-.19-.2c-.27-.52.09-.42.16-.4.21.06,1.63.55,1.82.61,2.54.87,4.94,1.38,7.76.99,3.13-.43,8.78-4.09,9.29-7.4.32-2.05-.9-3.35-1.1-5.46Z"/>
</svg>