<?xml version="1.0" encoding="UTF-8"?>
<svg id="Layer_1" data-name="Layer 1" class="color" xmlns="http://www.w3.org/2000/svg" xmlns:xlink="http://www.w3.org/1999/xlink" viewBox="0 0 91 32">
  <defs>
    <style>
      .cls-1 {
        fill: url(#linear-gradient);
      }
    </style>
    <linearGradient id="linear-gradient" x1="44.63" y1="12.24" x2="73.08" y2="12.24" gradientUnits="userSpaceOnUse">
      <stop offset=".1" stop-color="#e17800" stop-opacity="0"/>
      <stop offset=".7" stop-color="#e17800"/>
    </linearGradient>
  </defs>
  <path d="M11.31,10.3c-.31.55-.5,1.15-.57,1.8v.1s-.11.07-.19.12c-.4.26-.65.38-.99.54-.27.13-.57.28-.97.5-.33-.06-.65-.09-.98-.09h-.89l-.68.73-3.82.77c-.07-.43-.08-.85,0-1.23l2.53-1.66c.1-.06.21-.08.32-.04l1.25.4c1.16.38,3.2-1.04,3.92-1.57.17-.13.38-.22.59-.26l.49-.11Z"/>
  <path d="M45.77,6.48c-.01-.15-.13-.27-.28-.28l-.66-.06c-.09,0-.18.03-.25.09l-.57.62c-.6.64-1.42,1.02-2.29,1.07l-20.9.34c-2.04,0-3.7,1.66-3.7,3.7s1.66,3.7,3.7,3.7l20.9.34c.87.04,1.7.43,2.29,1.07l.57.62c.06.07.15.1.25.09l.66-.06c.15-.01.27-.13.28-.28.25-3.65.25-7.31,0-10.96Z"/>
  <path d="M41.15,17.92l-.18,1.95c-.09.91-.82,1.64-1.73,1.69l-11.39.67c-.98.07-1.86-.64-1.99-1.62l-.41-2.94,15.72.24Z"/>
  <path d="M20.78,17.59c-3.07,0-5.59-2.52-5.59-5.63,0-.86.19-1.66.54-2.39-1.55.05-2.92,1.18-3.07,2.72v.03c0,.85-.47,1.24-1.09,1.63-.92.58-1.21.61-2.38,1.27-.41.23-.7.38-.86.46-2.66,1.37-4.62,3.41-4.62,3.41-.63.65-1.99,2.1-2.93,4.39-.43,1.07-.93,2.34-.76,3.99.07.65.19,1.67.94,2.67.9,1.17,2.11,1.55,2.55,1.68.35.11.8.23,1.38.15.33-.04,1.04-.13,1.57-.72.37-.4.42-.87.52-1.68.11-.84.02-1.16.04-1.82.05-1.42.53-2.5.63-2.7.59-1.28,1.44-2,1.98-2.45.63-.51,1.15-.93,1.85-.86.38.04.75.26,1.01.43.28.19.44.44.6.64.7,1.1,1.95,1.8,3.36,1.8,2.18,0,3.96-1.78,3.96-3.96v-.27c0-.72.59-1.32,1.32-1.32h.74c.74,0,1.34-.6,1.34-1.33v-.08l-3.03-.06ZM16.45,23.26c-1.45,0-2.63-1.17-2.63-2.62,0-.25.05-.49.11-.72h1.4c.04.67.11.96.52,1.72l.89-.25c-.56-1.47-.39-2.32.13-3.32,1.24.2,2.2,1.28,2.2,2.57,0,1.44-1.17,2.62-2.62,2.62Z"/>
  <path d="M32.96,5.07v1.07l-11.53.21c-.1,0-.2,0-.29.02v-.69h-.51c-.87,0-1.74-.34-2.38-1.01-1.26-1.31-1.22-3.41.08-4.66l.68.69c-.92.88-.94,2.36-.07,3.28.45.47,1.07.71,1.69.71h.51v-.05c0-.56.45-1.01,1.01-1.01h7.51c.56,0,1.01.45,1.01,1.01v.43h2.29Z"/>
  <g>
    <path class="cls-1" d="M73.08,15.83v-7.22c-2.11,3.24-4.27,3.37-5.96,2.47-.78-.44-1.49-1.08-2.14-1.61-1.17-1-2.63-1.79-4.47-.7-1.66.91-2.5,2.33-3.77,3.57-.46.45-.8.78-1.06,1.02-.4-.31-.94-.73-1.61-1.21-.4-.28-.69-.48-.93-.63-.83-.52-1.19-.69-2.28-.54-.27.04-.55.09-.82.16-2.16.6-4.39,1.23-5.41,1.29.85.02,1.73.06,2.63.14,1.25-.26,1.95-.5,2.31-.58.15.05.34.14.56.25.22.11.5.26.87.48,2.27,1.36,3.56,2.47,5.29,2.77,1.53.34,2-.15,2.44-.74.25-.34.56-.77,1.07-1.42.57-.69,1.34-2,1.77-2.28.27.09.81.5,1.2.81.76.61,1.74,1.51,3.03,2.39,2.24,1.48,4.82,2.64,7.27,1.57Z"/>
    <path d="M84.52,17.54h-6.76c-.36,0-.66-.35-.7-.82-.21-2.8-.21-5.61,0-8.41.04-.47.34-.82.7-.82h6.76c.61,0,1.14.58,1.21,1.37.23,2.44.23,4.88,0,7.32-.08.79-.6,1.37-1.21,1.37Z"/>
    <path d="M89.63,16.15h-2.32c.41-2.43.41-4.85,0-7.28h2.32c.54,0,1,.49,1.13,1.17.31,1.64.31,3.28,0,4.93-.13.68-.59,1.17-1.13,1.17Z"/>
    <path d="M73.78,16.79h1.45c-.25-2.85-.25-5.7,0-8.55h-1.45c-.52,0-.98.48-1.06,1.16-.25,2.08-.25,4.16,0,6.23.08.67.54,1.16,1.06,1.16Z"/>
  </g>
</svg>