<?xml version="1.0" encoding="UTF-8"?>
<svg id="Layer_1" class="color" data-name="Layer 1" xmlns="http://www.w3.org/2000/svg" viewBox="0 0 98 32">
  <defs>
    <style>
      .cls-1 {
        opacity: .5;
      }
    </style>
  </defs>
  <g>
    <path d="M48.64,8c-.26-.13-.55-.19-.75.03l-1.89,2.03c-.2.22-.2.64.03.75,1.08.59,1.95,1.38,2.58,2.4.12.19.55.19.75-.03l1.89-2.03c.2-.22.11-.47-.03-.75-.61-1.07-1.48-1.86-2.58-2.4Z"/>
    <path d="M43.25,7.22l2.1,1.98,1.65-1.77-2.71-2.56c-.1-.09-.27-.1-.36,0-.48.5-.74,1.22-.76,2.15,0,.07.03.15.09.2Z"/>
    <path d="M45.2,12.31c-.13-.07-.26-.15-.37-.26-3.85,3.09-9.03,4.04-9.09,4.05l-.12.03c-.07.02-7.23,1.87-16.31,4.18-8.65,2.2-14.03,8.16-15.19,9.54-.14.17-.16.41-.05.59.47.71,1.14,1.2,2,1.53.2.08.42.01.56-.15,1.07-1.24,5.94-6.51,13.47-8.42,8.6-2.19,15.48-3.97,16.25-4.17,0,0,.01,0,.02,0,.79-.15,6.53-1.33,10.85-5.02-.03-.03-.05-.06-.07-.1-.46-.74-1.1-1.34-1.95-1.8Z"/>
    <path d="M57.94,5.07s-.04.04-.06.06c-.3-.34-.6-.67-.9-.98.77-.81,1.37-1.44,1.68-1.78.15-.16.19-.42.07-.61-.44-.68-1.02-1.24-1.75-1.68-.2-.12-.46-.08-.62.09-.34.36-.97,1.03-1.79,1.9-.13-.09-.27-.17-.4-.24-.23-.12-.5-.17-.69.02l-.56.6c-.18.2-.17.58.02.69.13.07.25.15.38.24-.36.38-.74.78-1.14,1.2-.11-.07-.21-.13-.32-.19-.23-.12-.5-.17-.69.02l-.56.6c-.18.2-.17.58.02.69.1.06.2.12.29.18-.31.32-.61.64-.92.97.93.57,1.71,1.3,2.32,2.18.34-.36.69-.72,1.03-1.07.3.31.6.64.91.98-.3.32-.61.63-.91.96h0c1.88,1.49,6.41,5.02,10.64,10.22l1.96-.34-.9,1.68c2.29,3.01,4.42,6.52,5.88,10.46,1.35-11.68-9.73-23.57-13.02-26.82ZM55.53,7.61c-.3-.34-.6-.67-.9-.98.39-.41.76-.8,1.12-1.17.3.31.6.64.9.98-.36.37-.73.77-1.12,1.18Z"/>
  </g>
  <path class="cls-1" d="M71.09,17.8s1.05-12.38,1.05-12.19,2,8.61,2,8.61l12.86-10.32-6.91,15.62,13.91-2.14-13.57,8.62,8.33,5.9-13.91-.71,3.66-2.22-3.28-2.45,4.7-3.06-3.6-.65,1.37-6.58-6.62,1.57Z"/>
</svg>