<?xml version="1.0" encoding="UTF-8"?>
<svg id="Layer_1" data-name="Layer 1" class="color" xmlns="http://www.w3.org/2000/svg" xmlns:xlink="http://www.w3.org/1999/xlink" viewBox="0 0 59 32">
  <defs>
    <style>
      .cls-1 {
        fill: url(#linear-gradient);
      }

      .cls-2 {
        opacity: .5;
      }
    </style>
    <linearGradient id="linear-gradient" x1="4" y1="7.11" x2="35.82" y2="7.11" gradientUnits="userSpaceOnUse">
      <stop offset=".1" stop-color="#000" stop-opacity="0"/>
      <stop offset=".8" stop-color="#000"/>
      <stop offset=".88" stop-color="#000"/>
      <stop offset="1" stop-color="#000" stop-opacity="0"/>
    </linearGradient>
  </defs>
  <path d="M36.69,21.23c1.06.78,2.45.96,3.68.49l8.9-3.47c1.24-.45,1.86-1.83,1.37-3.06h0c-.47-1.18-1.79-1.77-2.98-1.33l-8.78,3.24-6.3-4.96c-1.38-1.09-3.38-.83-4.44.57l-9.65,12.74c-.9,1.19-1.48,2.59-1.69,4.06l-.39,2.49h10.12l.1-.94c.14-1.36.68-2.65,1.55-3.71l2.34-2.86,5.11,3.59c.65.46,1.42.7,2.21.7h9.49c1.31.03,2.38-1.03,2.38-2.34v-.11c0-1.27-1.02-2.31-2.29-2.34l-9.6-.18-4.23-3.07.92-1.12,2.19,1.61Z"/>
  <path d="M50.05,5.94h3.78c.64,0,1.17.52,1.17,1.17h0c0,.64-.52,1.17-1.17,1.17h-3.78v-2.34h0Z"/>
  <path class="cls-2" d="M48.66,11.62c-.06-.04-3.07-1.1-5.27-1.87.05-.13.11-.27.15-.4h3.52c.79,1.12,1.59,2.26,1.59,2.28Z"/>
  <path class="cls-2" d="M43.55,4.88c-.26-.74-.62-1.42-1.09-2.03l4.59-2.85-2.08,3.26,2.51,1.62h-3.92Z"/>
  <path class="cls-1" d="M35.82,7.11h0c0,.65-.52,1.17-1.17,1.17H4s0-2.34,0-2.34h30.65c.65,0,1.17.52,1.17,1.17Z"/>
  <path d="M47.84,5.95h-6.2c-.52-2.11-2.43-3.68-4.7-3.68-1.87,0-3.5,1.06-4.31,2.62h2.08c1.23,0,2.23,1,2.23,2.23,0,.62-.25,1.17-.65,1.58-.4.4-.96.65-1.58.65h-2.08c.81,1.55,2.43,2.62,4.31,2.62,2.27,0,4.18-1.57,4.7-3.68h6.2v-2.34Z"/>
</svg>