<?xml version="1.0" encoding="UTF-8"?>
<svg id="Layer_1" data-name="Layer 1" class="color" xmlns="http://www.w3.org/2000/svg" viewBox="0 0 122 32">
  <defs>
    <style>
      .cls-1 {
        fill: #e17800;
      }
    </style>
  </defs>
  <path class="cls-1" d="M78.2,12.59c-3.93.01-7.7,0-11.31-.04-.18-.21-.43-.45-.8-.77-.58-.48-1.12-.93-2-1.36-.86-.41-1.21-.4-1.66-.79-.63-.54-.69-1.22-.73-1.57-.14-1.49,1.04-2.63,1.44-2.99-.41.82-.34,1.75.27,2.5.43.53,1.07,1.11,2.03,1.55.37.17,1.73.78,3.47.68,1.47-.08,1.56-.58,3.21-.79.48-.07,2.51-.33,4.3.53.47.24,1.79.87,1.96,2,.06.39-.03.75-.17,1.04Z"/>
  <path class="cls-1" d="M116.11,18.43l-10.15,4.25c-3.57,1.5-7.66,1.02-10.79-1.26l-.66-.48c-.65-.48-1.44-.73-2.25-.72h0c-1.49.01-2.58.66-3.16,1.01-1.53.93-1.42,1.64-2.91,2.74-.48.36-1.93,1.4-3.96,1.57-2.12.19-3.77-.66-4.51-1.11l-1.29-.89c.68.27,1.8.57,3.1.37.41-.06,1-.16,1.64-.55.42-.26.79-.59,1.39-1.39,1-1.32.96-1.7,1.49-2.36.13-.16.27-.31.42-.44,3.22-.03,6.53-.08,9.91-.15.14.34.33.65.59.91.54.55,1.29.86,2.06.86h1.16c.93,0,1.76-.45,2.29-1.14.06.18.11.36.15.54l.57,2.51,12.19-4.57c2.43-.91,2.43-4.34,0-5.24l-12.2-4.56-.57,2.51c-.02.1-.06.21-.1.31,0,0,0-.01-.01-.02-.54-.57-1.3-.89-2.09-.89h-1.27c-1.35,0-2.46.9-2.78,2.14-3.62.07-7.15.12-10.58.15-1.74-1.63-2.9-3.65-3.65-5.93l1.13,1.02c3.13,2.82,4.27,2.67,5.95,1.6l1.02-.66c2.3-1.91,5.04-1.92,6.21.15l.24.36c.35.54,1.04.71,1.6.41l2.46-1.32c3.58-1.93,7.89-1.74,11.29.48l6.58,4.29c2.07,1.35,1.78,4.52-.49,5.48Z"/>
  <path class="cls-1" d="M77.06,20.08c-.07.66-.52,1.07-.74,1.27-.94.86-2.24.79-2.55.77-1.2-.07-1.34-.6-2.44-.67-.75-.04-1.23.17-2.44.67-2.34.96-3.51,1.44-3.86,1.52-1.1.26-2.77.21-5.16-1.3l-.74-.64c.82.42,1.56.62,2.06.71.34.06,1.47.24,2.9-.05.38-.08,1.11-.26,1.96-.68,1.56-.78,1.6-1.46,2.93-2.36.05-.04.1-.06.15-.09,1.16,0,2.34.01,3.53.01,1.39,0,2.81,0,4.25-.01.1.24.16.53.12.86Z"/>
  <path class="cls-1" d="M15.1,12.88c3.26,1.13,5.78,1.11,7.49.88,1.75-.24,2.97-.74,5.57-.73,3.24,0,4.15.79,4.53,1.26.45.54.42.96,1.08,1.52.17.15,1.4,1.2,2.57.75,1-.38,1.4-1.65,1.38-2.52-.03-2.07-2.37-3.29-2.73-3.47-.39-.2-1.14-.54-3.38-.69-2.7-.18-4.54-.31-6.69.42-2.15.73-2.25,1.52-4.61,2.23-.74.22-1.44.36-2.06.43-.87.11-1.76.09-2.63-.02l-.53-.07Z"/>
  <path class="cls-1" d="M12.46,19.71c.39.33,1.03.77,1.9.98.3.07,1.73.41,3-.37.23-.14.82-.52,1.15-1.23.13-.28.16-.49.2-.65.24-.98,1.33-2.08,2.65-2.39.29-.07,1.91-.45,2.91.63,1.04,1.11.48,2.77.43,2.89-.47,1.31-1.71,1.85-2.39,2.15-.82.36-1.6.4-3.14.47-2.16.1-3.32.14-4.64-.47-.02,0-.04-.02-.06-.03-.87-.42-1.55-1.13-2.02-1.97h0Z"/>
  <path class="cls-1" d="M4,19.3c.69-.49,1.1-.96,1.35-1.3.37-.5.39-.73.78-1.12.52-.52,1.14-.76,1.5-.9.58-.22,1.98-.75,3.29-.24.22.09,1.19.47,1.33,1.23.12.67-.48,1.27-1.01,1.56-.55.3-1.29.28-2.77.24-1.27-.03-1.81-.15-2.82,0-.12.02-.24.04-.35.06-.46.09-.89.25-1.29.45h0Z"/>
  <path class="cls-1" d="M70.11,28.93c.5-.45.81-.89.99-1.21.27-.47.29-.68.57-1.04.38-.48.83-.71,1.1-.84.42-.21,1.45-.7,2.41-.22.17.08.88.44.97,1.15.08.63-.35,1.19-.74,1.46-.41.28-.95.26-2.03.23-.93-.03-1.33-.14-2.07,0-.09.02-.17.04-.25.06-.34.08-.65.23-.95.42h0Z"/>
  <g>
    <path d="M57.91,13.36c-3.22-.08-6.31-.2-9.28-.33l-2.52-3.68c3.41.75,6.75,1.18,10.01,1.22l1.79,2.79Z"/>
    <path d="M57.81,18.03l-1.58,2.47c-1.37.02-2.76.1-4.16.26l-.5-2.16-1.94,2.48c-1.13.17-2.26.39-3.41.64l2.73-4.01c2.84.13,5.79.24,8.86.32Z"/>
    <path d="M47.22,14.23c-.11.68-.11,1.39-.04,2.13-1.19-.06-2.37-.13-3.52-.2-.36-.72-.38-1.43,0-2.12,1.17.07,2.35.13,3.56.18Z"/>
    <path d="M58.05,14.63c-.04.72-.05,1.43-.02,2.14-3.33-.09-6.53-.21-9.59-.35-.07-.72-.06-1.42.03-2.13,3.06.14,6.26.25,9.58.34Z"/>
    <path d="M95.49,14.63l-.06,2.13c-13.37.29-25.42.31-36.14.04-.03-.71-.03-1.43,0-2.15,10.75.26,22.82.25,36.19-.03Z"/>
    <path d="M113.98,15.53l-11.17,4.18c-.25-1.11-.72-2.14-1.43-3.09-.52.02-1.03.03-1.54.04l.11-2.13c.45-.01.91-.02,1.36-.03.73-.95,1.23-2,1.49-3.14l11.17,4.17Z"/>
    <path d="M97.01,18.56h1.15c.33,0,.61-.26.63-.6l.25-4.8c.02-.36-.27-.66-.63-.66h-1.28c-.34,0-.62.27-.63.61l-.12,4.8c0,.35.27.64.63.64Z"/>
  </g>
</svg>