<?xml version="1.0" encoding="UTF-8"?>
<svg id="Layer_1" data-name="Layer 1" class="color" xmlns="http://www.w3.org/2000/svg" xmlns:xlink="http://www.w3.org/1999/xlink" viewBox="0 0 59 32">
  <defs>
    <style>
      .cls-1 {
        fill: url(#linear-gradient-2);
      }

      .cls-2 {
        fill: url(#linear-gradient);
      }

      .cls-3 {
        opacity: .5;
      }
    </style>
    <linearGradient id="linear-gradient" x1="4" y1="7.31" x2="17.67" y2="7.31" gradientUnits="userSpaceOnUse">
      <stop offset=".2" stop-color="#000" stop-opacity="0"/>
      <stop offset=".9" stop-color="#000" stop-opacity=".5"/>
    </linearGradient>
    <linearGradient id="linear-gradient-2" x1="18.32" y1="7.1" x2="35.82" y2="7.1" gradientUnits="userSpaceOnUse">
      <stop offset=".81" stop-color="#000"/>
      <stop offset="1" stop-color="#000" stop-opacity="0"/>
    </linearGradient>
  </defs>
  <path d="M36.69,21.23c1.06.78,2.45.96,3.68.49l8.9-3.47c1.24-.45,1.86-1.83,1.37-3.06h0c-.47-1.18-1.79-1.77-2.98-1.33l-8.78,3.24-6.3-4.96c-1.38-1.09-3.38-.83-4.44.57l-9.65,12.74c-.9,1.19-1.48,2.59-1.69,4.06l-.39,2.49h10.12l.1-.94c.14-1.36.68-2.65,1.55-3.71l2.34-2.86,5.11,3.59c.65.46,1.42.7,2.21.7h9.49c1.31.03,2.38-1.03,2.38-2.34v-.11c0-1.27-1.02-2.31-2.29-2.34l-9.6-.18-4.23-3.07.92-1.12,2.19,1.61Z"/>
  <path class="cls-3" d="M48.66,11.62c-.06-.04-3.07-1.1-5.27-1.87.05-.13.11-.27.15-.4h3.52c.79,1.12,1.59,2.26,1.59,2.28Z"/>
  <path class="cls-3" d="M43.55,4.88c-.26-.74-.62-1.42-1.09-2.03l4.59-2.85-2.08,3.26,2.51,1.62h-3.92Z"/>
  <path class="cls-2" d="M17.67,10.07l-.43,1.23H4V3.32h13.25l.25.69-.61-.02-.37,1.57c-.26,1.06-.25,2.09,0,3.05l.4,1.45h.74Z"/>
  <g>
    <path d="M26.19,5.11c-2.06-.01-4.12-.06-6.19-.1l-1.29-3.5c2.31.93,4.55,1.47,6.76,1.51l.72,2.08Z"/>
    <path d="M26.25,9.21l-.71,2.15c-.92.03-1.87.12-2.81.35l-.56-1.22-1.09,1.64c-.75.24-1.52.51-2.29.83l1.33-3.82c2.06.03,4.1.06,6.14.07Z"/>
    <path class="cls-1" d="M35.82,7.17h0c0,.55-.44.99-.99,1-5.45.01-10.99,0-16.37-.08-.18-.66-.17-1.34,0-2.05,5.33.12,10.87.17,16.36.14.55,0,1,.44,1,.99Z"/>
  </g>
  <path d="M55,6.91l-5.96-3.57.03,2.65c-2.42.05-4.88.1-7.38.13-.45-2.21-2.41-3.87-4.75-3.87-1.88,0-3.51,1.07-4.31,2.63h2.08c1.23,0,2.23,1,2.23,2.23,0,.61-.25,1.17-.65,1.57-.41.4-.96.65-1.58.65h-2.08c.81,1.56,2.44,2.62,4.31,2.62,2.33,0,4.28-1.65,4.74-3.84,2.52-.03,5-.05,7.41-.1l-.05,2.48,5.96-3.58Z"/>
</svg>