<?xml version="1.0" encoding="UTF-8"?>
<svg id="Layer_1" data-name="Layer 1" class="color" xmlns="http://www.w3.org/2000/svg" viewBox="0 0 49 32">
  <defs>
    <style>
      .cls-1 {
        fill: #e17800;
      }
    </style>
  </defs>
  <path d="M34.83,21.18c1.07.78,2.46.97,3.69.49l8.94-3.48c1.24-.45,1.86-1.84,1.37-3.07h0c-.47-1.18-1.8-1.77-2.99-1.33l-8.81,3.25-6.33-4.98c-1.39-1.09-3.4-.83-4.46.57l-9.69,12.79c-.9,1.19-1.49,2.6-1.69,4.08l-.39,2.5h10.16l.1-.94c.14-1.37.68-2.66,1.55-3.73l2.35-2.87,5.13,3.6c.65.46,1.43.7,2.22.7h9.53c1.31.03,2.39-1.03,2.39-2.35v-.12c0-1.28-1.02-2.32-2.3-2.34l-9.64-.18-4.25-3.08.92-1.12,2.2,1.61Z"/>
  <circle cx="35.01" cy="7.08" r="4.94"/>
  <g>
    <path d="M7.89,16.45c-2.07-.01-4.14-.06-6.21-.1l-1.3-3.51c2.32.93,4.57,1.48,6.79,1.52l.72,2.09h0Z"/>
    <path d="M7.95,20.57l-.71,2.16c-.92.03-1.88.12-2.82.35l-.56-1.22-1.09,1.65c-.75.24-1.53.51-2.3.83l1.34-3.84c2.07.03,4.12.06,6.16.07h-.01Z"/>
    <path d="M20.82,17.53l-1.51,2c-6.35,0-15.49-.03-19.18-.08-.18-.66-.17-1.35,0-2.06,3.96.08,14.26.13,20.69.14Z"/>
  </g>
  <path class="cls-1" d="M12.15,21.27c1.64.01,3.41.01,5.33.02l-2.33,3.07c-.44.57-.81,1.19-1.11,1.85.19-.79.52-1.73,0-2.76-.51-1-1.48-1.54-1.89-2.18Z"/>
  <path class="cls-1" d="M24.52,12l-2.87,3.78h-.82c-2.02,0-4.51-.01-7.08-.02-.46-.84-1.17-1.41-3.26-1-1.46.28-1.35-2.6-2.67-3.16-1.61-.67-3.68-.54-3.68-.54,0,0,2.94-2.21,5.77-1.34.35.1,1.04.5,2.44,1.3,2.45,1.41,3.02,1.97,4.01,1.81.93-.16,1.87-.9,1.85-1.56-.02-.67-1.06-.74-2.17-2.1-.25-.31-.86-1.08-1.13-2.22-.41-1.75.31-3.39.42-3.62-.01.11-.05.53.05,1.02.24,1.18,1.44,2.06,2.51,2.39,1.26.38,1.5-.24,2.36.16.93.44.77,1.23,2.2,3.15.86,1.16,1.33,1.76,2.09,1.96Z"/>
  <path class="cls-1" d="M24.65,0c-.84.86-2.1,2.54-1.77,4.94.09.65.27,2,1.16,2.54.63.38,1.33.19,1.7-.05.84-.54.83-1.93.29-2.92-.41-.75-.89-.85-1.37-1.71-.41-.73-.48-1.41-.47-1.88l.45-.91Z"/>
</svg>