<?xml version="1.0" encoding="UTF-8"?>
<svg id="Layer_1" data-name="Layer 1" class="color" xmlns="http://www.w3.org/2000/svg" xmlns:xlink="http://www.w3.org/1999/xlink" viewBox="0 0 114 32">
  <defs>
    <style>
      .cls-1 {
        fill: url(#linear-gradient-2);
      }

      .cls-2 {
        fill: url(#linear-gradient-3);
      }

      .cls-3 {
        fill: url(#linear-gradient);
      }
    </style>
    <linearGradient id="linear-gradient" x1="4" y1="21.01" x2="33.43" y2="21.01" gradientUnits="userSpaceOnUse">
      <stop offset=".08" stop-color="#000" stop-opacity="0"/>
      <stop offset=".75" stop-color="#000" stop-opacity=".5"/>
    </linearGradient>
    <linearGradient id="linear-gradient-2" y1="10.69" x2="32.91" y2="10.69" xlink:href="#linear-gradient"/>
    <linearGradient id="linear-gradient-3" y1="14.78" x2="29.01" y2="14.78" xlink:href="#linear-gradient"/>
  </defs>
  <g>
    <path d="M46.5,13.54c-3.65-.1-7.15-.22-10.51-.37l-2.85-4.17c3.86.85,7.64,1.34,11.33,1.38l2.02,3.16Z"/>
    <path d="M46.38,18.82l-1.79,2.8c-1.55.02-3.13.11-4.72.29l-.56-2.45-2.2,2.81c-1.28.2-2.56.44-3.86.72l3.09-4.54c3.21.15,6.56.27,10.03.36Z"/>
    <path d="M34.39,14.53c-.12.77-.13,1.57-.04,2.41-1.35-.07-2.68-.15-3.99-.22-.41-.81-.43-1.62,0-2.4,1.32.08,2.67.15,4.04.21Z"/>
    <path d="M46.65,14.98c-.05.81-.06,1.62-.02,2.42-3.77-.1-7.39-.23-10.86-.4-.08-.81-.07-1.61.03-2.41,3.47.16,7.09.29,10.85.39Z"/>
    <path d="M89.06,14.98l-.06,2.42c-15.14.33-28.79.35-40.93.04-.04-.81-.03-1.62,0-2.43,12.18.29,25.84.28,40.98-.03Z"/>
    <path d="M110,16l-12.65,4.73c-.29-1.26-.82-2.42-1.62-3.5-.58.02-1.16.03-1.74.04l.13-2.41c.51-.01,1.03-.03,1.54-.04.83-1.08,1.4-2.27,1.69-3.55l12.65,4.73Z"/>
    <path d="M90.79,19.43h1.31c.38,0,.69-.3.71-.68l.28-5.43c.02-.41-.3-.75-.71-.75h-1.45c-.39,0-.7.31-.71.69l-.14,5.43c-.01.4.31.73.71.73Z"/>
  </g>
  <polygon class="cls-3" points="33.43 19.92 31.95 22.09 4 22.09 4 19.92 33.43 19.92"/>
  <polygon class="cls-1" points="32.91 11.48 4 11.48 4 9.91 31.84 9.91 32.91 11.48"/>
  <path class="cls-2" d="M28.96,13.55c-.44.81-.6,1.66-.47,2.53H4v-2.6h25.01l-.04.08Z"/>
</svg>