<?xml version="1.0" encoding="UTF-8"?>
<svg id="Layer_1" data-name="Layer 1" class="color" xmlns="http://www.w3.org/2000/svg" viewBox="0 0 126 32">
  <defs>
    <style>
      .cls-1 {
        opacity: .5;
      }
    </style>
  </defs>
  <polygon class="cls-1" points="107.81 8.76 111.56 12.13 99.51 8.8 101.38 7.81 100.42 6.38 102.56 5.43 99.65 4.49 110.06 0 106.99 4.63 122 6.62 107.81 8.76"/>
  <g>
    <path d="M41.21,6.45c-.17,1.19-.17,2.4-.02,3.59h-.72c-1.47,0-1.47-3.59,0-3.59h.74Z"/>
    <path d="M44.93,9.83h-2.88c-.1-1.05-.1-2.12,0-3.17h2.87c.16,1.06.16,2.11,0,3.17Z"/>
    <path d="M6.37,13.39c.05,3.72.49,7.4,1.3,11l-1.79.31c-1.17.15-2.61-11.15-1.44-11.29l1.93-.02Z"/>
    <path d="M72.11,12.73l-14.74,1.22c-1.04.09-2.09.13-3.13.13h-7.63c-.41,0-.74-.33-.74-.74h0c0-.41.33-.74.74-.74h0c.88,0,1.59-.71,1.59-1.59v-.99c0-1.23,1-2.22,2.23-2.22l21.38.16c.74,0,1.39.52,1.57,1.24h0c.2.81.2,1.66-.02,2.47h0c-.15.58-.66,1.01-1.26,1.06Z"/>
    <path d="M94.08,1.56l-3.41.13h0c0,.74-.66,1.33-1.47,1.33h-1.99v.9h8.75v-.94h-.29c-.87,0-1.58-.64-1.59-1.43h0Z"/>
    <path d="M88.69,11.73c-.25-.37-.66-.5-.81-.54-.52-.16-1.05-.06-1.41.12-.21.1-.34.22-.46.33-.68.65-1.05,1.32-1.06,1.33-.66,1.19-1.92,2.23-2.98,2.67-.21.09-.66.27-1.3.32-.42.03-.77,0-.99-.04l.17,1.1c.52,0,1.01-.03,1.48-.1-5.6,4.8-15.04,11.45-28.46,13.37-10.31,1.47-19.26-.56-25.62-2.45l-.18-.73c-.28.05-.7.11-1.21.08-.89-.05-1.51-.32-2.18-.62-.55-.24-1.36-.6-2.14-1.3-.33-.3-.39-.42-.68-.54-.62-.26-1.65-.25-2.19.31-.46.48-.3,1.1-.24,1.31.15.6.62.95.83,1.12.3.22.69.43,2.3.77.9.19,1.46.27,2.34.42.08.01.15.03.23.04.4.07.78.16,1.16.29,5.32,1.71,12.61,3.25,21.15,2.97,2.15-.07,4.38-.26,6.68-.59,18.61-2.66,29.97-13.05,34.1-17.59.22-.2.43-.29.61-.38.67-.36.8-.49.88-.63.18-.31.19-.72-.03-1.05Z"/>
    <path d="M36.74,12.54c-.81-1.06-1.84-1.92-3.03-2.53-.8-.41-1.78-.12-2.22.66l-1.42,2.47c-.76,1.3-2.62,1.38-3.48.14l-1.08-1.54c-.41-.59-1.08-.95-1.79-.97l-11.99-.29c-.7-.02-1.34.31-1.75.88l-.66.94c-.34.49-.85.84-1.42.99.03,3.65.46,7.27,1.28,10.85l8.6-1.49.6,1.19c.5-.47,1.16-.67,1.81-.68l-.2-.89,4.5-.78c.53-.09,1.05.18,1.28.67l.43.93c.21.44.63.72,1.11.76l2.1.14c.66.04,1.24-.4,1.38-1.04l.37-1.7c.57-2.66,2.08-5.01,4.24-6.65l1.2-.91c.35-.28.41-.78.15-1.13Z"/>
    <path d="M38.13,13.53c-.1.44-.35.85-.73,1.16l-1.22.92c-.91.7-1.69,1.52-2.3,2.46h.17c.18,0,.36-.07.49-.19l.62-.59c.72-.61,1.79-.54,2.43.15l.42.45c.44.42,1.03.68,1.68.68,1.16,0,2.11-.8,2.36-1.88l.18-1.03c.12-.73.71-1.3,1.44-1.41l.51-.08c.19-.03.35-.11.47-.25.04-.03.07-.07.09-.11l.18-.27h-6.8ZM39.69,17.7c-.86,0-1.56-.7-1.56-1.56,0-.07.01-.15.02-.22l1.26.22.21-1.55s.04,0,.06,0c.86,0,1.56.7,1.56,1.56s-.7,1.56-1.56,1.56Z"/>
    <g>
      <path d="M45.93,7.66h1.89c-.22.24-.41.51-.55.8h-1.34c0-.27,0-.53,0-.8Z"/>
      <path d="M54.89,3.86h-12.6l-.46-.78h-2.9l-.74,1.53h-1.18v.1c0,.71-.2,1.37-.56,1.93l-1.96-1.67c-.19-.16-.5-.1-.68.14l-.29.38c-.18.24-.16.55.04.7l2.05,1.4c-.5.4-1.11.67-1.79.75h-.1c-.16.03-.32.09-.44.21.34.04.69.14,1.02.31,1.35.69,2.55,1.69,3.47,2.9.11.16.21.31.27.48h6.88c.35-.55.98-.92,1.7-.92.16,0,.29-.14.29-.29v-.99c0-.15,0-.3.03-.45h-1.06c-.03.41-.09.82-.17,1.23h-3.28v.76h-2.14v-.76h-.75c-2.03,0-2.03-5.14,0-5.14h6.16c.07.38.13.76.17,1.14h3.13c.44-.19.91-.29,1.41-.29h.03l5.63.04v-1.53l-1.17-1.17Z"/>
      <path d="M97.37,4.81l-40,.31v1.46l14.45.1c1.01,0,1.92.53,2.44,1.34l12.42.09-.1,1.78c.46-.06.93,0,1.36.16.16.06.3.14.43.22l.64-2.15,8.35.06c.48,0,.48-3.39,0-3.39Z"/>
    </g>
  </g>
</svg>