<?xml version="1.0" encoding="UTF-8"?>
<svg id="Layer_1" data-name="Layer 1" class="color" xmlns="http://www.w3.org/2000/svg" xmlns:xlink="http://www.w3.org/1999/xlink" viewBox="0 0 64 32">
  <defs>
    <style>
      .cls-1 {
        fill: url(#linear-gradient);
      }

      .cls-2 {
        opacity: .5;
      }
    </style>
    <linearGradient id="linear-gradient" x1="-49.27" y1="-10.49" x2="-49.27" y2="-15.53" gradientTransform="translate(55.15 -3.37) rotate(-42.89) scale(.69 1.49)" gradientUnits="userSpaceOnUse">
      <stop offset=".3" stop-color="#000" stop-opacity=".5"/>
      <stop offset="1" stop-color="#000" stop-opacity="0"/>
    </linearGradient>
  </defs>
  <circle cx="41.26" cy="16.98" r="3.23"/>
  <path d="M51.66,18.64c-.75-.62-1.85-.58-2.61.02l-3.87,3.1c-.22.17-.49.25-.76.22l-.55-.06c-.41-.04-.81-.1-1.22-.18l-5.12-.97c-1.64-.31-3.28.52-3.98,2.04-1.22,2.64-3.33,6.7-5.74,9.19h10.02c.69-.4,1.3-.86,1.85-1.37l6.31,1.05c.11.02.23.03.34.03,1.05,0,1.97-.82,2.03-1.94.05-1.05-.76-1.95-1.79-2.12l-4.24-.71c.16-.34.31-.68.44-1.03l2.87.31c.27.03.55-.05.76-.22l5.22-4.19c.99-.79,1.04-2.31.01-3.17Z"/>
  <path d="M20.58,8.64c1.1-1.09,1.41-2.48.73-3.09-.66-.59-2-.22-3.02.79-1.02,1.01-1.4,2.35-.81,3.01.6.69,2,.38,3.1-.71ZM36.31,15.9l-10.45-8.7.72-.97c.08-.11.22-.18.33-.17l2.36.25c.63.07,1.38-.26,1.91-.78.25-.25.46-.55.57-.87.28-.78-.17-1.37-.95-1.42l-4.58-.26c-.1,0-.23.06-.31.17l-2.44,3.24c-.58.77-1.22,1.51-1.92,2.2l-1.02,1.01c-.7.69-1.45,1.33-2.22,1.91l-3.26,2.41c-.1.08-.18.21-.17.31l.22,4.58c.04.78.62,1.23,1.41.96.32-.11.62-.31.87-.56.53-.52.86-1.27.8-1.9l-.23-2.36c-.01-.11.06-.25.17-.33l.97-.71,8.61,10.53c.75.92,2.21.87,3.23-.14,1.02-1.01,1.16-2.55.34-3.4l-5.77-6.01,1.28-1.27,5.96,5.82c.85.83,2.38.7,3.4-.31s1.08-2.47.16-3.23Z"/>
  <path class="cls-2" d="M25.11,28.13l1.98,1.78c-.22.27-.44.51-.66.74l-.47.48-5.73.04,2.55-2.01-2.79-3.17,3.52-.58-1.35-5.26,4.94,5.72.03,2.26h-2.02Z"/>
  <path class="cls-2" d="M38.26,12.77l-.85-.97.17,1.55c-.37.37-.68.8-.92,1.26l-4.32-3.98,3.99.76.17-4.2,2.24,5.27c-.16.09-.32.19-.47.3Z"/>
  <path class="cls-1" d="M17.56,0l-.67.64,3.93,3.37c.77.03,1.58.22,2.38.52L17.56,0ZM16.27,1.22l-.5.46,2.75,2.63c.28-.12.57-.19.89-.24l-3.14-2.85ZM14.73,2.67l-1.44,1.36,2.47,3.02c.25-.69.64-1.3,1.18-1.8.04-.04.08-.07.13-.1l-2.34-2.48ZM11.59,5.61l4.29,6.19c-.36-1.06-.52-2.11-.45-3.08l-2.96-3.92-.87.81Z"/>
</svg>