<?xml version="1.0" encoding="UTF-8"?>
<svg id="Layer_1" data-name="Layer 1" class="color" xmlns="http://www.w3.org/2000/svg" viewBox="0 0 60 32">
  <defs>
    <style>
      .cls-1 {
        isolation: isolate;
        opacity: .5;
      }

      .cls-2 {
        fill-rule: evenodd;
      }
    </style>
  </defs>
  <path id="Rectangle_1_copy_12" data-name="Rectangle 1 copy 12" class="cls-2" d="M30,0c1.23,0,3.55.39,4.27.8.73.41,1.6,1.9,1.6,1.9l3.09,2.4,2.33.9.3,5.4c.76.26,1.49.59,2.2.98.57.41.9,1.08.87,1.79-.11,1.9-.66,5.5-.66,5.5l-1.33.33v2c0,3.33-.31,4.53-3.09,6.7-1.97,1.54-4.8,3.3-4.8,3.3h-9.55s-2.83-1.76-4.8-3.3c-2.78-2.17-3.09-3.38-3.09-6.7v-2l-1.33-.33s-.55-3.61-.66-5.51c-.03-.7.3-1.38.87-1.79.7-.39,1.44-.71,2.2-.98l.3-5.4,2.33-.9,3.09-2.4s.88-1.49,1.61-1.9,3.05-.8,4.27-.8ZM40.33,14.67l.33-1.67,2,1-.33,4-1.33.33-.67-3.67ZM19.67,14.67l-.33-1.67-2,1,.33,4,1.33.33.67-3.67ZM30,4.67c1.79,0,3.77-.97,3.77-.97l3.61,2.3,1.62,4-1,4.67.67,7s2.18.31,2.33.33c0,1.52.23,3.4-2.67,5.33-2.2,1.46-4,2.67-4,2.67h-8.67s-1.8-1.2-4-2.67c-2.9-1.93-2.67-3.82-2.67-5.33l2.33-.33.67-7-1-4.67,1.62-4,3.61-2.3s1.99.97,3.77.97ZM28.67,23.67c-.81.11-1.59.33-2.33.67-.95.46-1.84,1.02-2.67,1.67-.06-1.15.17-2.3.67-3.33.41-.96,1.11-1.78,2-2.33l2.33.67v2.67ZM28.67,17.67l-1.67,1.67-1.33-1.67-1.33,1.67-1.67-1.67,1.67-1.33-1.67-1.33,1.67-1.67,1.33,1.67,1.33-1.67,1.67,1.67-1.67,1.33,1.67,1.33ZM25.33,8c.96-.36,1.99-.47,3-.33l.33,2.33s-1.25.08-2.44.24c-.84.11-1.79.84-2.22,1.43-.52.68-1.07,1.34-1.65,1.96l.99-3.96c.53-.7,1.22-1.27,2-1.67ZM31.33,23.67c.81.11,1.59.33,2.33.67.95.46,1.84,1.02,2.67,1.67.06-1.15-.17-2.3-.67-3.33-.41-.96-1.11-1.78-2-2.33l-2.33.67v2.67ZM31.33,17.67l1.67,1.67,1.33-1.67,1.33,1.67,1.67-1.67-1.67-1.33,1.67-1.33-1.67-1.67-1.33,1.67-1.33-1.67-1.67,1.67,1.67,1.33-1.67,1.33ZM34.67,8c-.96-.36-1.99-.47-3-.33l-.33,2.33s1.25.08,2.44.24c.84.11,1.79.84,2.22,1.43.52.68,1.07,1.34,1.65,1.96l-.99-3.96c-.53-.7-1.22-1.27-2-1.67Z"/>
  <g>
    <path class="cls-1" d="M46.97,20.12c.02-.15.57-3.77.69-5.83.07-1.72-.72-3.35-2.12-4.35l-.31-.19c-.24-.14-.49-.27-.74-.39l-.23-4.07L58.48.13l-5.1,9.01,6.14,2.6-8.23,5.59,5.02,3.25-5.48.83,9.17,10.46-15.68-3.77h0c1.06-1.64,1.33-3.36,1.35-5.76l.99-.25.31-1.97Z"/>
    <path class="cls-1" d="M0,31.02l9.95-10.92L1.57,15.98l7.89-2.38L.65,1.72l15.08,3.76-.22,3.88c-.25.12-.5.25-.74.39l-.31.19c-1.4,1-2.19,2.62-2.12,4.4.12,2.01.67,5.63.69,5.78l.31,1.97.99.25c.03,2.51.32,4.28,1.51,5.98L0,31.02Z"/>
  </g>
</svg>