<?xml version="1.0" encoding="UTF-8"?>
<svg id="Layer_1" data-name="Layer 1" class="color" xmlns="http://www.w3.org/2000/svg" viewBox="0 0 51 32">
  <defs>
    <style>
      .cls-1 {
        isolation: isolate;
        opacity: .5;
      }
    </style>
  </defs>
  <g>
    <path d="M17.29,15.9c-.06-.1-.18-.13-.28-.07L.18,26.29C.07,26.36,0,26.48,0,26.6c.02.88.46,1.71,1.18,2.5.12.13.34.15.48.04l15.77-11.55c.34-.25.44-.72.21-1.09l-.36-.61ZM1.03,27.64c-.32-.43-.22-1.04.21-1.36.44-.31,1.04-.22,1.36.21s.22,1.04-.21,1.36-1.04.22-1.36-.21Z"/>
    <path d="M17.79,18.08L2.02,29.63c-.14.11-.19.32-.1.47.53.94,1.2,1.61,2.03,1.88.12.04.25,0,.34-.08l15.06-12.88c.09-.07.09-.21.02-.29l-.47-.54c-.28-.32-.75-.38-1.1-.12ZM3.48,29.34c.43-.32,1.04-.22,1.36.21s.22,1.04-.21,1.36-1.04.22-1.36-.21-.22-1.04.21-1.36Z"/>
    <path d="M31.02,10.79l-10.67,6.82-.36-.39c-.22-.24-.51-.42-.83-.52,0-.33-.08-.65-.24-.95l-.14-.23,11.67-10.01c2.38-.51,4.96-1.44,7.71-2.7.07,2.47-2.51,5.15-7.14,7.98h0Z"/>
  </g>
  <path class="cls-1" d="M41.69,8.79l.95,3.58-5.49-2.73c1.87-1.35,2.94-2.88,3.32-4.62l.64-3.03L45.81,0l-2.57,4.23,7.76,2.84-9.3,1.72h0Z"/>
  <polygon class="cls-1" points="35.8 10.75 39.7 14.52 37.57 16.72 35.8 10.75"/>
</svg>