<?xml version="1.0" encoding="UTF-8"?>
<svg id="Layer_1" data-name="Layer 1" class="color" xmlns="http://www.w3.org/2000/svg" viewBox="0 0 77 32">
  <defs>
    <style>
      .cls-1 {
        opacity: .5;
      }
    </style>
  </defs>
  <g>
    <path d="M52.8,15.67l-5.71-.56v-6.34l5.71-.56c1.26,0,1.26,7.46,0,7.46Z"/>
    <rect x="44.94" y="8.26" width="1.49" height="7.36" rx=".75" ry=".75"/>
    <path d="M23.01,6.78c-.31,0-.61-.09-.87-.26l-5.46-4.04c-.68-.45-1.6-.31-2.12.33l-.82,1.13-2.18-1.91c-.59-.52-1.48-.53-2.08-.02l-3.76,2.94c-.41.35-.62.88-.55,1.42l.2,1.53h-.84c-.15,0-.28.11-.31.26l-.19,1.02c-.04.19.11.36.29.36h3.19v1.3h1.64v-.65l.65-.65h1c.27,0,.52-.12.68-.33l3.81-4.7c.3-.37.83-.45,1.23-.19l5.03,3.75c.34.22.74.34,1.14.34l.72-.03v-1.63l-.38.02ZM10.42,7.9h-3.41l-.16-1.22c-.04-.31.08-.62.32-.82l2.72-2.06c.35-.3.86-.29,1.21,0l1.6,1.4-2.28,2.7ZM7.49,19.18l1.11,1.11h.09c.05-.9.13-1.73.24-2.43.04-.29.1-.67.2-1.06v-3.01h-1.64v5.39Z"/>
    <path d="M37.89,10.17v-.73h-4.26v-.87h-2.04c-.14,0-.26.12-.26.26v6.23c0,.15.12.26.26.26h2.04v-.87h4.26v-.86h-4.26v-1.2h4.26v-1.22h-4.26v-1.01h4.26Z"/>
    <path d="M40.6,10.17v-.73h-.69v-.87h-1.11c-.14,0-.26.12-.26.26v6.24c0,.14.12.26.26.26h1.11v-.87h.69v-.86h-.69v-1.2h.69v-1.22h-.69v-1.01h.69Z"/>
    <path d="M44.29,10.17v-.73h-1.66v-.87h-1.11c-.14,0-.26.12-.26.26v6.24c0,.14.12.26.26.26h1.11v-.87h1.66v-.86h-1.66v-1.2h1.66v-1.22h-1.66v-1.01h1.66Z"/>
    <polygon points="21.08 9.85 21.08 13.88 18.78 13.88 18.78 14.94 17.31 14.94 17.28 13.88 12.49 13.88 12.49 13.13 6.63 13.13 6.63 11.5 12.49 11.5 12.49 9.85 21.08 9.85"/>
    <path d="M25.33,12.24v2.71c-.27,0-.53.01-.8.02v-.02l-2.62-1.07v-4.05l1.5-.43v1.56c0,.7.57,1.28,1.28,1.28h.65Z"/>
    <path d="M30.14,11.19v4.04c-.48-.06-.95-.12-1.43-.16v-2.83h.13c.51,0,.97-.3,1.17-.77l.12-.28Z"/>
    <path d="M32.46,24.81c-.14,2-.49,3.61-1.04,3.77-3.48.86-6.97.91-10.45.15v-3.94c3.83.24,7.66.25,11.49.02Z"/>
    <path d="M32.5,24.13c-3.84.21-7.69.2-11.53-.02v-7.8c1.45-.23,2.9-.36,4.36-.38v1.81l3.38.12v-1.8c.9.08,1.81.2,2.71.37.87.2,1.24,4.32,1.08,7.7Z"/>
    <path d="M20.3,16.45v12.29c0,.29-.25.52-.55.52h-.62v-2.4h-8.69l-.08.74c-.04.38-.07.75-.08,1.11-.79-1.93-.87-8.49-.25-11.39l-.03.97h.41v4.03l6.64.11v-4.14h.35l-.06-2.37h2.41c.3,0,.55.24.55.52Z"/>
    <path d="M28.84,11.43h-4.17c-.25,0-.46-.21-.46-.46v-4.25c0-.25.21-.46.46-.46h4.1c.21,0,.4.15.45.36l.55,2.42c.09.39.05.81-.11,1.18l-.4.93c-.07.17-.24.28-.42.28Z"/>
    <polygon points="27.89 17.01 26.14 16.95 26.14 12.22 27.89 12.22 27.89 17.01"/>
    <path d="M16.49,14.7h-5.57l-.07,2.78h.39v4.05l5,.08v-4.13h.33l-.07-2.78ZM12.41,19.37h-.71v-1.88h.71v1.88ZM13.51,19.37h-.71v-1.88h.71v1.88ZM14.6,19.37h-.72v-1.88h.72v1.88ZM15.7,19.37h-.71v-1.88h.71v1.88Z"/>
    <path d="M29.09.39l-.57,5.21h-1.43l.28-5.35c0-.15.14-.26.28-.25l1.2.1c.15.01.26.14.24.29Z"/>
    <path d="M17.84,31.88l-6.23-.2c-.21,0-.4-.17-.42-.38-.15-1.16-.15-2.37-.02-3.62h7.14v3.74c0,.25-.21.46-.46.45Z"/>
    <g>
      <rect x="35.63" y="18.68" width="1.31" height="1.47"/>
      <path d="M36.94,23.37v.45c0,.23-.03.46-.1.67l-1.73,5.93c-.29.98-1.21,1.64-2.24,1.58l-13.75-.79v-1.31l13.61.78c.54.03,1.03-.31,1.18-.83l1.6-5.48c.08-.26.11-.53.11-.8v-.19h1.31Z"/>
    </g>
    <path d="M38.16,20.8c.2,0,.2,1.91,0,1.91h-3.44l-.92.69h-.62c.03-1.11,0-2.26-.08-3.3h.69l.92.69h3.44Z"/>
  </g>
  <g class="cls-1">
    <path d="M55.81,9.32c.43-.29,7.71-2.77,7.71-2.77l-.8,2.18,10.28,2.09-11.01,3.73,2.14,1.3-3.85,1.33-5.32-2.41,2.68-1.79-1.59-.85,2.55-1.02-2.78-1.79Z"/>
    <polygon points="55.81 15.89 60.92 18.72 57.26 19.87 55.81 15.89"/>
    <polygon points="55.56 8.57 59.7 2.8 59.39 7.05 55.56 8.57"/>
  </g>
</svg>