<?xml version="1.0" encoding="UTF-8"?>
<svg id="Layer_1" data-name="Layer 1" class="color" xmlns="http://www.w3.org/2000/svg" viewBox="0 0 45 32">
  <defs>
    <style>
      .cls-1 {
        fill: #e17800;
      }

      .cls-2 {
        opacity: .5;
      }
    </style>
  </defs>
  <path class="cls-2" d="M28.11,26.28s2.78,5.72,2.66,5.72-6.57-3.91-6.57-3.91l-5.11,3.43.53-4.07c2.03-.49,4.41-1.73,6.65-3.58,2.44-2.02,4.2-4.33,5-6.35l3.53-.49-3.62,3.57,5.31,3.02-8.38,2.66Z"/>
  <path class="cls-2" d="M20.68,2.88v4.4c-1.91.43-3.95,1.43-5.79,2.96-2.84,2.35-4.53,5.38-4.73,7.96l-3.59.74,2.82-4.54-5.39-.35,8.09-5.13-3.62-4.67,7.69,3.3,4.52-4.67Z"/>
  <path d="M32.02,7.52c-.82.36-2.72,1.28-4.35,2.41-1.12-1.17-2.46-2.01-3.07-1.47-4.43,4.98-9.47,10.3-14.85,15.81-1,.84,2.33,4.78,3.32,3.94,3.5-3.66,9.73-9.02,16.19-14.54.54-.48.07-1.64-.76-2.76,1.62-.9,3.51-1.51,4.02-1.66.21-.75.06-1.34-.5-1.74Z"/>
  <g>
    <path class="cls-1" d="M34.85,8.39c-1.52-.62-.58-2.64-.58-2.64,0,0,.2-.99,2.16-2.23s0-3.04,0-3.04c0,0,2.86.68,1.95,3.13s.18,1.49.18,1.49c0,0,.46-1.27,2.28-1.13,0,0-1.28.64-1.18,1.53.04.34.02.71-.02,1.03-.13,1.03-.7,1.65-1.78,2.01-.87.28-2,.28-3.01-.14Z"/>
    <path class="cls-1" d="M40.36,2.67c-1.47.38-.91-1.22-.91-1.22,0,0,.16-.61.8-.77s.75-.68.75-.68c0,0-.06.88-.03,1.45s-.16,1.11-.61,1.23Z"/>
  </g>
</svg>