<?xml version="1.0" encoding="UTF-8"?>
<svg id="Layer_1" data-name="Layer 1" class="color" xmlns="http://www.w3.org/2000/svg" viewBox="0 0 60 32">
  <defs>
    <style>
      .cls-1 {
        isolation: isolate;
        opacity: .5;
      }
    </style>
  </defs>
  <g>
    <path d="M22.88,16.41h-2.41s-.63-7.14-.63-7.14c-.05-.62,4.15-1.06,6.03-.85.07.08.12.15.17.23.4.57.58,1.37.53,2.39-.36.17-.62.51-.67.91l-.15,1.2c-.81.03-1.58.4-2.12,1.01-.55.62-.82,1.43-.75,2.25Z"/>
    <path d="M27.45,31.47c.02.41-5.59.69-5.61.28l-.67-7.56h2.62s.38,3.23.38,3.23c.15,1.3,1.25,2.28,2.56,2.27h.68s.05,1.78.05,1.78Z"/>
    <path d="M36.46,24.15h2.35s-.73,7.73-.73,7.73c-.02.32-5.4-.06-5.38-.38l.09-1.82h.75c1.3,0,2.4-.98,2.54-2.28l.37-3.25Z"/>
    <path d="M40.22,9.27l-.67,7.1h-2.2c.06-.81-.21-1.62-.76-2.24-.57-.64-1.4-1.01-2.26-1.01h-.74s.21-4.37.21-4.37c.07-.91,6.5-.39,6.42.52Z"/>
    <path d="M28.31,29.69h3.58s-.06,1.27-.06,1.27c-.67.13-2.69.15-3.49.03l-.04-1.3Z"/>
    <path d="M22.99,17.34l.68,5.91h-2.95c-.31,0-.58-.23-.61-.54l-.46-4.7c-.03-.36.24-.66.6-.67h2.73Z"/>
    <path d="M40.34,17.96l-.43,4.7c-.03.31-.29.55-.6.55h-2.75s.68-5.91.68-5.91h2.5c.36,0,.64.3.61.66Z"/>
    <path d="M27.85,22.86l.26,3.09c.02.27.24.47.51.47h2.97c.26,0,.48-.21.51-.47l.32-3.09c.03-.31-.21-.57-.51-.57h-3.56c-.3.01-.53.27-.51.57Z"/>
    <path d="M34.33,14.39h-5.17s-.31-2.36-.31-2.36c-.03-.21-.22-.36-.46-.36h-.12c.18-1.68-.1-3.05-.82-4.07-.12-.17-.24-.32-.37-.48-.23-.28-.49-.59-.84-1.14-.63-1-.98-1.55-1.03-2.32-.07-.98.18-1.71.75-2.17.73-.6,1.67-.46,1.77-.44.17.03.32.07.46.13.67.28,1.06.85,1.24,1.12.73,1.09.57,2.33.51,2.87-.03.27-.08.42-.13.61-.05.17-.11.38-.17.71h-.05c-.23,0-.42.17-.45.4l-.26,2.02c.17.67.24,1.4.21,2.21.28.18.48.48.52.82l.16,1.2h2.9s.18-3.98.18-3.98c-.32-.07-.84-.1-1.43-.12l-.29-2.16c-.03-.23-.23-.4-.45-.4h-.04c.04-.17.07-.29.11-.42.06-.21.12-.42.16-.77.07-.6.27-2.18-.68-3.59-.21-.31-.68-1.01-1.54-1.42-.24-.11-.5-.2-.8-.25-.24-.04-1.5-.2-2.53.65-.57.47-1.23,1.38-1.12,3.05.07,1.04.51,1.74,1.19,2.81.38.61.68.96.92,1.25.12.15.23.28.33.41.59.83.79,2,.62,3.47h-.17c-.23,0-.43.16-.46.37l-.3,2.37h-.48c-1.04,0-1.85.91-1.73,1.95l1.26,10.91c.07.65.63,1.15,1.29,1.14l6.83-.02c.66,0,1.21-.49,1.28-1.15l1.25-10.92c.12-1.04-.69-1.95-1.74-1.94ZM33.28,22.71l-.37,3.52c-.06.57-.53,1.01-1.1,1.01h-3.39c-.57.01-1.06-.44-1.11-1.02l-.3-3.52c-.03-.31.08-.62.29-.85.21-.23.51-.36.82-.37h4.06c.31-.01.62.12.83.36s.31.55.28.87ZM33.65,18.93c0,.33-.28.61-.63.61l-6.02.02c-.35,0-.63-.27-.63-.6v-1.44c0-.33.28-.61.62-.61l6.02-.02c.35,0,.63.27.63.6v1.44Z"/>
  </g>
  <g>
    <path class="cls-1" d="M42.91,22.93l.43-4.7c.08-.88-.19-1.76-.72-2.46l.6-6.26c.13-1.61-.7-2.59-1.8-3.19L58.48.13l-8.49,6.09,9.14,2.6-10.84,8.51,8.02,3.25-8.48.83,12.17,10.46-18.48-4.45.2-2.12c.66-.59,1.1-1.42,1.19-2.37Z"/>
    <path class="cls-1" d="M18.25,25.28l.23,2.59L0,31.02l14.12-11.05L1.57,15.98l12.06-2.51L.65,1.72l18.27,4.55c-.42.19-.79.42-1.08.7-.7.66-1.05,1.59-.98,2.57l.55,6.24c-.55.72-.82,1.62-.73,2.53l.45,4.69c.09.91.51,1.7,1.12,2.28Z"/>
  </g>
</svg>