<?xml version="1.0" encoding="UTF-8"?>
<svg id="Layer_1" data-name="Layer 1" class="color" xmlns="http://www.w3.org/2000/svg" xmlns:xlink="http://www.w3.org/1999/xlink" viewBox="0 0 67 32">
  <defs>
    <style>
      .cls-1 {
        fill: url(#linear-gradient-2);
      }

      .cls-2 {
        fill: url(#linear-gradient-4);
      }

      .cls-3 {
        fill: url(#linear-gradient-3);
      }

      .cls-4 {
        fill: url(#linear-gradient-5);
      }

      .cls-5 {
        fill: url(#linear-gradient);
      }

      .cls-6 {
        opacity: .5;
      }
    </style>
    <linearGradient id="linear-gradient" x1="4" y1="27.2" x2="33.77" y2="27.2" gradientUnits="userSpaceOnUse">
      <stop offset=".08" stop-color="#000" stop-opacity="0"/>
      <stop offset=".75" stop-color="#000" stop-opacity=".5"/>
    </linearGradient>
    <linearGradient id="linear-gradient-2" y1="4.39" x2="35.67" y2="4.39" xlink:href="#linear-gradient"/>
    <linearGradient id="linear-gradient-3" y1="9.54" x2="30.52" y2="9.54" xlink:href="#linear-gradient"/>
    <linearGradient id="linear-gradient-4" y1="17.22" x2="25.47" y2="17.22" xlink:href="#linear-gradient"/>
    <linearGradient id="linear-gradient-5" y1="19.9" x2="24.48" y2="19.9" xlink:href="#linear-gradient"/>
  </defs>
  <path class="cls-6" d="M48.62,10.17L54.25,0l1.87,10.03,6.88-.45-6.17,7.09,2.37,3.93s-4.35,2.06-4.18,2.22,4.27,8.56,4.27,8.56l-11.55-4.45-6.11,5.06,1.44-6.31,1.84.73,2.16-2.04s4.81,1.17,4.73,1.1-2.09-4.23-2.09-4.23l4.59-1.2-3.23-2.25,2.91-4.13-3.16-.67.5-3.05-2.69.22Z"/>
  <g>
    <g>
      <path d="M34.66,9.54l-1.6-1.45,3.9-5.13c.34-.44,3.4,1.8,4.53,3.08,0,.09-.01.18-.02.25-.08.62-.44,1.26-1.09,1.91-.34-.1-.72-.04-.99.2l-.83.71c-.56-.47-1.29-.69-2.02-.61-.74.08-1.41.46-1.86,1.04Z"/>
      <path d="M28.58,22.32c-.23.29-4.14-2.93-3.9-3.21l4.13-5.43,1.74,1.58-1.71,2.38c-.69.95-.55,2.27.32,3.06l.45.41-1.04,1.22Z"/>
      <path d="M39,22.91l1.57,1.42-5.17,4.7c-.21.2-3.55-3.31-3.34-3.51l1.16-1.16.5.45c.87.79,2.19.8,3.07.03l2.21-1.93Z"/>
      <path d="M50.51,15.29l-4.74,4.31-1.47-1.33c.54-.51.85-1.21.85-1.95,0-.77-.32-1.51-.89-2.03l-.49-.45,2.79-2.78c.6-.56,4.56,3.67,3.96,4.23Z"/>
      <path d="M30.23,21.66l2.39,2.16-.81.81c-.53-.32-1.88-1.53-2.34-2.09l.76-.88Z"/>
      <path d="M34.17,10.23l-3.12,4.34-1.97-1.78c-.21-.19-.24-.51-.07-.73l2.54-3.4c.19-.26.56-.29.8-.08l1.82,1.65Z"/>
      <path d="M45.33,21.14l-3.13,2.87c-.21.19-.53.19-.73,0l-1.83-1.66,4.03-3.52,1.66,1.51c.24.22.24.59,0,.81Z"/>
      <path d="M34.06,16.84l-1.69,2.21c-.15.19-.12.46.05.62l1.98,1.79c.17.16.44.16.62,0l2.08-1.86c.21-.18.21-.5,0-.69l-2.37-2.15c-.2-.18-.51-.15-.68.07Z"/>
      <path d="M43.49,15.13l-3.45-3.12,1.23-1.77c.11-.15.07-.38-.08-.52l-.08-.07c1.14-1.01,1.78-2.09,1.92-3.2.02-.18.03-.36.04-.54.01-.32.03-.69.13-1.27.19-1.05.29-1.62.72-2.16.55-.69,1.16-1.03,1.81-.99.85.04,1.39.7,1.45.78.09.12.17.24.22.36.28.59.19,1.2.15,1.49-.17,1.16-1.03,1.9-1.4,2.21-.19.16-.31.24-.46.33-.14.09-.3.19-.54.37l-.03-.03c-.15-.14-.39-.14-.54,0l-1.4,1.19c-.29.55-.69,1.08-1.2,1.6.08.29.03.61-.15.86l-.62.89,1.93,1.75,2.53-2.53c-.18-.24-.5-.58-.88-.94l1.11-1.61c.12-.17.09-.4-.06-.54l-.02-.02c.13-.09.23-.15.32-.21.17-.11.33-.21.57-.41.41-.35,1.5-1.28,1.72-2.79.05-.33.16-1.09-.17-1.88-.09-.22-.21-.44-.38-.65-.14-.17-.87-1.04-2.08-1.1-.66-.03-1.65.17-2.58,1.35-.58.73-.71,1.47-.91,2.58-.11.64-.13,1.05-.15,1.39,0,.17-.01.32-.03.47-.11.91-.68,1.81-1.69,2.68l-.11-.1c-.16-.14-.38-.15-.52-.03l-1.63,1.4-.32-.29c-.69-.63-1.78-.51-2.33.25l-5.76,8.02c-.35.48-.27,1.14.16,1.54l4.55,4.12c.44.4,1.1.4,1.55.01l7.44-6.5c.71-.62.72-1.71.02-2.35ZM37.76,20.02l-2.37,2.12c-.39.35-.96.35-1.34,0l-2.26-2.04c-.38-.35-.43-.94-.12-1.36l1.93-2.52c.17-.22.43-.37.71-.39.28-.03.56.06.77.25l2.71,2.45c.21.19.33.46.33.75s-.13.56-.34.75ZM40.3,17.73c-.2.22-.55.23-.78.02l-4.01-3.63c-.23-.21-.26-.56-.05-.78l.87-.96c.2-.22.55-.23.78-.02l4.01,3.63c.23.21.26.56.05.78l-.87.96Z"/>
    </g>
    <path class="cls-5" d="M33.77,29.02H4v-3.64h27.06c-.07.55.38,1.12.63,1.43.29.36.71.82,1.16,1.3.33.33.64.65.92.91Z"/>
    <polygon class="cls-1" points="35.67 3 33.56 5.78 4 5.78 4 3 35.67 3"/>
    <polygon class="cls-3" points="30.52 8.36 28.75 10.73 4 10.73 4 8.36 30.52 8.36"/>
    <polygon class="cls-2" points="25.47 16.43 24.27 18.01 4 18.01 4 16.43 25.47 16.43"/>
    <path class="cls-4" d="M24.48,20.49H4v-1.17h19.66l.08.22c.09.22.36.56.74.95Z"/>
  </g>
</svg>