<?xml version="1.0" encoding="UTF-8"?>
<svg id="Layer_1" class="color" data-name="Layer 1" xmlns="http://www.w3.org/2000/svg" xmlns:xlink="http://www.w3.org/1999/xlink" viewBox="0 0 65 32">
  <defs>
    <style>
      .cls-1 {
        fill: url(#linear-gradient-2);
      }

      .cls-2 {
        fill: url(#linear-gradient);
      }
    </style>
    <linearGradient id="linear-gradient" x1="33.75" y1="7.18" x2="44.84" y2="7.18" gradientUnits="userSpaceOnUse">
      <stop offset="0" stop-color="#000" stop-opacity="0"/>
      <stop offset=".8" stop-color="#000" stop-opacity=".5"/>
    </linearGradient>
    <linearGradient id="linear-gradient-2" x1="39.67" y1="12.66" x2="50.74" y2="12.66" xlink:href="#linear-gradient"/>
  </defs>
  <g>
    <path d="M14.61,14.99s-.67-.53-.78-.66c-.62-.71-.95-1.66-1.09-2.58h-.77s-3.94-.79-3.94-.79c-.25-.35-.67-.88-.67-.88l-5.42.3L.01,9.56V2.3s2.21-.81,2.21-.81c0,0,3.49.23,5.23.34l.7.67,7.81.04,1.42,1.4v1.06h6.25v-.97l.45-.32,1.61-.04L27.28.12l.36-.12,1.23.58.13.34-2.03,4.2h.79l.05.09c.06.36,0,.69.3.95s1.49.28,1.49.28v1.43h-1.87v.69l-.05.06h-2.34l2.89.57c.91.18.99,1.17,1.27,1.86.46.21.76.1.98-.33l.58-2.52c.05-.06.09-.09.17-.09.07,0,.68.13.74.17.07.04.12.13.11.21-.43,1.47-.32,4.2-2.71,3.61-1.05-.26-.81-.88-1.18-1.62-.17-.35-.45-.32-.8-.39-.87-.18-1.77-.29-2.64-.45v6.17l-2.37-.49v-4.44h-1.25v2.38l-.2.16-2.09-.55-.17-1.18-.66-.2v-.61h-.51s-.44-.44-.44-.44c0,0,0-.45-.02-.48-.33.09-2.86.52-2.86.52,0,0-.07.25-.08.32-.24,1.24.02,2.69.79,3.69.05.07.24.24.24.24"/>
    <path d="M10.51,21.61l.62.52v.61l2.75.04.37-2.14,1.06-.64,1.59-7.7s.27-.17.27-.17l.82.22.16,1.08.05.06,2.15.63-2.03,10.27,2.25,1.52,4.6-1.03,2.19-10.79s.85.19.96.22c.42.14.48.31.59.74.37,1.54.04,4.11-.19,5.71-.33,2.37-.87,4.85-1.58,7.13-.34,1.09-.83,2.6-1.48,3.54-.17.25-.44.66-.78.56l-6.71-1.37-.04-.75-3.94-.8-1.11-1.44.5-3.15-2.46-.07v.83s-.5.52-.57.57c-.9,0-1.8-.07-2.69-.11q-.37-.02-1.11-.07c-.11-.19-.39-.65-.39-.65l.34-3.17s.59-.49.66-.52"/>
    <polygon points="25.88 17.07 24.5 24 20.88 24.88 19.32 23.85 20.9 16.09 25.88 17.07"/>
    <path d="M7.56,20.64c-.14-.29-.38-.89-.38-.89l.67-7.48.86-.62,2.45.46c.15.22.71,1.03.71,1.03l-.75,7.33c-.1.14-.52.55-.52.55l-3.03-.38Z"/>
  </g>
  <polygon points="47.59 6.37 58.54 6.37 63.49 7.22 59.03 8 47.59 7.99 47.59 10.41 46.25 9.38 46.21 9.28 46.22 5.21 47.59 3.96 47.59 6.37"/>
  <rect class="cls-2" x="33.75" y="6.37" width="11.09" height="1.62"/>
  <polygon points="53.18 11.98 61.29 11.98 65 12.64 61.78 13.22 53.18 13.22 53.18 15.11 52.18 14.29 52.17 11.16 52.23 10.99 53.18 10.12 53.18 11.98"/>
  <rect class="cls-1" x="39.67" y="11.98" width="11.07" height="1.37"/>
</svg>