<?xml version="1.0" encoding="UTF-8"?>
<svg id="Layer_1" data-name="Layer 1" class="color" xmlns="http://www.w3.org/2000/svg" xmlns:xlink="http://www.w3.org/1999/xlink" viewBox="0 0 92 32">
  <defs>
    <style>
      .cls-1 {
        fill: url(#linear-gradient-2);
      }

      .cls-2 {
        fill: url(#linear-gradient-3);
      }

      .cls-3 {
        fill: url(#linear-gradient);
      }

      .cls-4 {
        opacity: .5;
      }
    </style>
    <linearGradient id="linear-gradient" x1="56.37" y1="4.18" x2="88" y2="4.18" gradientUnits="userSpaceOnUse">
      <stop offset=".2" stop-color="#000" stop-opacity="0"/>
      <stop offset=".4" stop-color="#000" stop-opacity=".5"/>
      <stop offset=".8" stop-color="#000" stop-opacity=".5"/>
      <stop offset="1" stop-color="#000"/>
    </linearGradient>
    <linearGradient id="linear-gradient-2" x1="48.65" y1="2.13" x2="80.28" y2="2.13" xlink:href="#linear-gradient"/>
    <linearGradient id="linear-gradient-3" x1="43.53" y1="6.24" x2="75.15" y2="6.24" xlink:href="#linear-gradient"/>
  </defs>
  <polygon class="cls-4" points="44.3 4.3 42.17 5.47 42.17 6.04 47.76 8.88 47.16 6.61 54.24 4.6 47.11 3.03 48.12 .87 42.17 3.27 42.17 3.67 44.3 4.3"/>
  <g>
    <path d="M34.06,28.25c-.18,0-.37.02-.56.05-.69.12-1.21.65-1.35,1.32l-3.56-3.9-1.31-1.79-2.31-2.69-.58.07c-.49.05-1-.03-1.44-.26-.25-.13-.53-.19-.82-.19-.44,0-.87.1-1.26.29l-.79.39-.47-.92,3.89-2.06c.64-.34,1.43-.18,1.89.38l3.1,3.76,1.99,1.49,3.5,3.94s.05.07.07.11Z"/>
    <path d="M35.44,30.63h-.2v-.66c0-.34-.24-.65-.57-.71s-.67-.06-1,0-.57.37-.57.71v.66h-.2c-.3,0-.54.24-.54.54v.39c0,.17.12.31.29.34,1.02.13,2.04.13,3.06,0,.17-.02.29-.17.29-.34v-.39c0-.3-.24-.54-.54-.54Z"/>
    <polygon points="9.99 30 8.67 30 8.92 29.25 6.86 29.25 6.54 30 6.1 30 5.86 31.79 11.01 31.79 9.99 30"/>
    <path d="M30.86,3.11v-.61h-1.03v-.94h-1.24c-.19,0-.34.15-.34.34v4.58c0,.19.15.34.34.34h1.24v-.94h1.03v-.66h-1.03v-.52h1.03v-.97h-1.03v-.61h1.03Z"/>
    <path d="M40.42,3.11v-.61h-1.02v-.85h-.78c-.19,0-.34.15-.34.34v4.4c0,.19.15.34.34.34h.78v-.85h1.02v-.66h-1.02v-.52h1.02v-.97h-1.02v-.61h1.02Z"/>
    <path d="M26.68,1.55c.21,0,.38.17.38.38v4.51c0,.21-.17.38-.38.38h-.61c.02-.61.04-1.24.04-1.88v-1.14s-7.43,0-7.43,0l-.27-2.93h3c.36,0,.75.23.74.7"/>
    <path d="M37.33,3.11v-.61h-3.81v-.94h-1.24c-.19,0-.34.15-.34.34v4.58c0,.19.15.34.34.34h1.24v-.94h3.81v-.66h-3.81v-.52h3.81v-.97h-3.81v-.61h3.81Z"/>
    <path d="M25.01,4.93c-.01,6.84-1.03,11.67-6.71,14.48h-5.29c6.45-2.8,6.88-9.67,6.84-14.48h5.15Z"/>
    <path d="M15.04,16.71c-.69.67-1.51,1.24-2.47,1.66l-.85.37c-1.55-2.02-1.94-4.96-2-8.23h4.33c0,2.01-.01,3.91,1,6.2Z"/>
    <path d="M27.47,17.98l-.37-1.04c-.08-.28-.4-.43-.66-.32l-1.46.55-.57-2.11c-.6,1.19-1.38,2.26-2.4,3.2l1.05-.56c.84-.45,1.86-.36,2.61.18.05-.11.13-.2.25-.25.25-.11.54,0,.65.24.16.35.3.83.33,1.36l.74.9c.14-.7.09-1.44-.16-2.16ZM24.58,22.27h-.07c-.69.09-1.37-.03-1.99-.34-.12-.06-.25-.09-.39-.09-.28,0-.57.07-.83.19l-1.65.82-.06-.13-6.02,2.96c-.25.13-.6.18-.81.05l-1.26-.92c-.2-.14-.5-.05-.71.11l-4.18,3.35h2.76l1.03-.96c.59-.47,1.41-.5,2.04-.09.36.24.82.29,1.23.14l7.95-2.93,3.36-1.19c.12-.04.23-.09.34-.14l-.73-.85Z"/>
    <g>
      <path d="M17.91,7.5c-2.44-.07-4.82-.09-6.89-.09-2.08,0-4.45.02-6.89.09l-.12,1.27c-.03.32.21.61.51.61h13c.31,0,.54-.29.51-.61l-.12-1.27Z"/>
      <path d="M17.37,1.75l-.06-.63c-.04-.41-.34-.74-.72-.78-1.86-.22-3.72-.33-5.57-.33s-3.71.11-5.57.33c-.38.04-.69.38-.72.78l-.06.63c2.25-.14,4.44-.18,6.35-.18,1.91,0,4.1.04,6.35.18Z"/>
      <path d="M17.84,6.83l-.41-4.41c-2.27-.14-4.49-.18-6.42-.18-1.93,0-4.15.04-6.42.18l-.41,4.41c2.42-.07,4.77-.09,6.83-.09s4.41.02,6.83.09Z"/>
    </g>
  </g>
  <polygon class="cls-4" points="42.22 7.2 44.63 8.63 43.96 10.55 42.22 7.2"/>
  <polygon class="cls-4" points="42.22 2.44 44.77 1.35 43.89 0 42.22 2.44"/>
  <g>
    <path class="cls-3" d="M56.37,3.63h31.07c.31,0,.56.25.56.56h0c0,.31-.25.56-.56.56h-31.07v-1.11h0Z"/>
    <path class="cls-1" d="M48.65,1.57h31.07c.31,0,.56.25.56.56h0c0,.31-.25.56-.56.56h-31.07v-1.11h0Z"/>
    <path class="cls-2" d="M43.53,5.68h31.07c.31,0,.56.25.56.56h0c0,.31-.25.56-.56.56h-31.07v-1.11h0Z"/>
  </g>
</svg>