<?xml version="1.0" encoding="UTF-8"?>
<svg id="Layer_1" data-name="Layer 1" class="color" xmlns="http://www.w3.org/2000/svg" viewBox="0 0 86 32">
  <defs>
    <style>
      .cls-1 {
        fill: #00e1ff;
      }
    </style>
  </defs>
  <path d="M26.27,31.2c0,.44.36.8.8.8h31.85c.44,0,.8-.36.8-.8V13.14s-33.46,0-33.46,0v18.06ZM40.24,19.75c0-.79.56-1.45,1.34-1.59,4.43-.81,8.85-.81,13.28,0,.77.14,1.34.81,1.34,1.59v7.48c0,.89-.72,1.61-1.61,1.61h-12.73c-.89,0-1.61-.72-1.61-1.61v-7.48ZM36.1,15.04c1.04,0,1.89.85,1.89,1.89s-.85,1.89-1.89,1.89-1.89-.85-1.89-1.89.84-1.89,1.89-1.89ZM37.12,24.72c0,2.27-1.84,4.12-4.12,4.12s-4.12-1.85-4.12-4.12,1.84-4.12,4.12-4.12,4.12,1.84,4.12,4.12ZM29.9,15.04c1.04,0,1.89.85,1.89,1.89s-.84,1.89-1.89,1.89-1.89-.85-1.89-1.89.85-1.89,1.89-1.89ZM58.93,9.2h-31.85c-.45,0-.8.36-.8.8v1.85h33.46v-1.85c0-.44-.36-.8-.8-.8Z"/>
  <path d="M52.95,19.58c-3.16-.54-6.32-.54-9.48,0-.55.09-.96.54-.96,1.08v5.06c0,.6.52,1.09,1.15,1.09h9.08c.64,0,1.15-.49,1.15-1.09v-5.06c0-.53-.41-.98-.96-1.08ZM52.8,24.86l-.14-.02c-.17-.03-.34-.06-.51-.08h-.1v-2.45c-.16-.02-.32-.05-.48-.07v1.99s-.52-.06-.52-.06v-1.99c-.16-.02-.32-.03-.48-.05v1.99h-.13c-.09-.02-.19-.02-.28-.03h-.11v-2c-.16-.01-.31-.02-.47-.03v1.99s-.13,0-.13,0c-.09,0-.19,0-.28-.01h-.12s0-1.99,0-1.99c-.16,0-.33,0-.49-.01v2.43h-.12c-.17,0-.34,0-.51,0h-.12v-.12s0-2.31,0-2.31c-.16,0-.32,0-.48.01v1.99h-.11c-.09,0-.19.01-.28.02h-.12s0-1.99,0-1.99c-.16,0-.32.02-.48.03v1.99h-.11c-.09.02-.18.02-.28.03h-.13s0-1.98,0-1.98c-.16.01-.32.03-.47.05v1.99s-.52.06-.52.06v-1.99c-.16.02-.32.05-.48.07v2.43h-.1c-.17.04-.34.07-.51.1l-.14.02v-3.32l.1-.02c2.97-.52,6-.52,8.97,0l.1.02v3.32Z"/>
  <ellipse cx="33" cy="24.38" rx="2.44" ry="2.23"/>
  <ellipse cx="29.9" cy="16.74" rx=".9" ry=".81"/>
  <ellipse cx="36.1" cy="16.74" rx=".9" ry=".81"/>
  <path d="M57.31,0h-28.61c-3.42,0-6.21,2.79-6.21,6.21v5.92c0,1.64.64,3.13,1.68,4.24v-6.37c0-.93.45-1.77,1.13-2.3v-1.49c0-1.87,1.52-3.4,3.4-3.4h28.61c1.87,0,3.4,1.52,3.4,3.4v1.49c.69.53,1.13,1.37,1.13,2.3v6.37c1.04-1.11,1.68-2.6,1.68-4.24v-5.92c0-3.42-2.78-6.21-6.21-6.21Z"/>
  <path d="M48.33,5.8v1.52h-5.81v-1.52c0-.96,5.81-.96,5.81,0Z"/>
  <path d="M57.39,5.8v1.52h-5.81v-1.52c0-.96,5.81-.96,5.81,0Z"/>
  <path class="cls-1" d="M64.89,23.66c1.9-5.19,2.55-9.91,2.43-13.38-.02-.53.35-.44.78.15,2.16,3.01,3.74,5.83,4.96,8.18,1.81-2.96,3.06-4.88,4.3-5.64.13-.08.45.08.75.36,3.54,3.35,5.77,5.76,7.89,6.46-2.61.06-5.18-.41-7.84-1.41-.99,2.37-2.51,5.47-4.98,8.68-.41.53-.9.81-.97.55-.48-1.71-1.23-4.57-2.72-8.28-1.44,1.21-2.95,2.66-4.59,4.32Z"/>
  <path class="cls-1" d="M21.11,24c-1.9-5.19-2.55-9.91-2.43-13.38.02-.53-.35-.44-.78.15-2.16,3.01-3.74,5.83-4.96,8.18-1.81-2.96-3.06-4.88-4.3-5.64-.13-.08-.45.08-.75.36-3.54,3.35-5.77,5.76-7.89,6.46,2.61.06,5.18-.41,7.84-1.41.99,2.37,2.51,5.47,4.98,8.68.41.53.9.81.97.55.48-1.71,1.23-4.57,2.72-8.28,1.44,1.21,2.95,2.66,4.59,4.32Z"/>
</svg>