<?xml version="1.0" encoding="UTF-8"?>
<svg id="Layer_1" data-name="Layer 1" class="color" xmlns="http://www.w3.org/2000/svg" xmlns:xlink="http://www.w3.org/1999/xlink" viewBox="0 0 86 32">
  <defs>
    <style>
      .cls-1 {
        fill: url(#linear-gradient);
      }

      .cls-2 {
        opacity: .5;
      }
    </style>
    <linearGradient id="linear-gradient" x1="44.81" y1="5.13" x2="82" y2="5.13" gradientUnits="userSpaceOnUse">
      <stop offset=".2" stop-color="#000" stop-opacity="0"/>
      <stop offset=".4" stop-color="#000" stop-opacity=".5"/>
      <stop offset=".8" stop-color="#000" stop-opacity=".5"/>
      <stop offset="1" stop-color="#000"/>
    </linearGradient>
  </defs>
  <path d="M21.07,7.72l-.29,1.95H7.77c-.31,0-.56-.29-.53-.62l.12-1.31c6.15-.18,11.88-.06,13.71-.02Z"/>
  <path d="M7.91,1.8l.06-.65c.04-.42.35-.76.75-.81,3.83-.45,7.67-.45,11.5,0,.4.05.71.39.75.81v.13s.04.52.04.52c-1.08-.06-6.85-.38-13.09,0Z"/>
  <path d="M21.25,6.54l-.07.49c-1.73-.04-7.52-.17-13.75.01l.42-4.54c6.43-.39,12.38-.05,13.2,0l.21,4.05Z"/>
  <path d="M31.72,1.96v6.13c0,.37-.3.68-.68.68h-2.25l-.57-3.74c-.12-1.03-1.03-1.8-2.15-1.8h-2.43c-.6,0-1.15.22-1.54.6l-.12-2.54h9.06c.37,0,.68.3.68.68Z"/>
  <path d="M37.26,7.26c-.05.19-.23.31-.42.31h-4.01v-3.95h1.5c.1.71.13,1.82.05,2.81h1.31c.17-1.04.11-2.08-.06-2.81h1.22c.19,0,.37.12.42.3.33,1.11.33,2.23,0,3.34Z"/>
  <path d="M26.07,4.29h-2.43c-.57,0-1.04.38-1.09.87l-.81,5.33h6.24l-.81-5.33c-.05-.49-.52-.87-1.09-.87Z"/>
  <path d="M30.03,16.05l-.57-1.43c-.14-.35-.55-.51-.89-.35l-1.81.86.3-3.45h-4.45l.36,4.29.3-.16c1.17-.62,2.63-.33,3.47.7l.99,1.2c-.06-.45-.2-.77-.25-.86-.19-.37-.04-.82.33-1,.36-.19.81-.05,1,.31.03.06.75,1.48.24,3.15l.82,1c.62-1.29.71-2.83.14-4.26ZM26.12,22.45c-.11.05-.22.08-.34.08-.27,0-.53-.15-.67-.41-.16-.31-.07-.68.18-.9l-.27-.32-.1.02c-.77.09-1.54-.05-2.24-.39-.25-.12-.52-.14-.79-.09l.03.11c.17.67-.12,1.38-.73,1.73l-8.27,4.85c-.31.19-.75.29-1.04.13l-1.71-1.06c-.28-.15-.65-.01-.9.2l-5.27,4.91h3.02l1.96-1.8c.71-.65,1.76-.77,2.61-.3.49.27,1.09.3,1.6.06l13.68-6.21-.6-.7s-.1.06-.15.09ZM21.01,17.01l1.59-.84c-.11-.04-.23-.05-.35-.02l-1.01.29c-.2.05-.31.26-.26.45l.03.11Z"/>
  <path d="M35.79,27.78c-.21,0-.44.02-.65.06-.77.13-1.36.73-1.5,1.49l-4.07-4.46-1.49-2.04-2.62-3.06-.66.08c-.56.06-1.13-.04-1.64-.29-.29-.14-.61-.22-.93-.22-.5,0-.99.12-1.43.34l-.9.45-.53-1.05,4.42-2.34c.73-.38,1.62-.2,2.14.43l3.52,4.27,2.26,1.69,3.97,4.48c.04.05.08.11.11.17Z"/>
  <path d="M37.34,30.44h-.23v-.75c0-.39-.27-.74-.65-.8s-.76-.06-1.14,0-.65.42-.65.8v.75h-.23c-.34,0-.61.28-.61.61v.44c0,.19.14.36.33.38,1.16.15,2.31.15,3.47,0,.19-.03.33-.19.33-.38v-.44c0-.34-.28-.61-.61-.61Z"/>
  <path d="M21.57,14.12h-1.16l-1.15,1.35c-.42.49-1.17.47-1.56-.04l-1.58-2.08c-.19.08-.38.14-.59.18-.17.04-.35.05-.53.05-1.57,0-2.85-1.28-2.85-2.85h5.71c0,.49-.12.95-.35,1.35-.08.15-.18.29-.29.43l1.29,1.7.94-1.11c.19-.23.48-.36.78-.36h1.23l.1,1.39Z"/>
  <polygon class="cls-2" points="40.51 5.92 38.2 4.45 38.2 3.65 43.26 .58 42.61 3.42 51.3 4.7 42.56 7.66 43.65 10 38.2 7.39 38.2 6.96 40.51 5.92"/>
  <path class="cls-1" d="M44.81,4.58h36.64c.31,0,.56.25.56.56h0c0,.31-.25.56-.56.56h-36.64v-1.11h0Z"/>
</svg>