<?xml version="1.0" encoding="UTF-8"?>
<svg id="Layer_1" data-name="Layer 1" class="color" xmlns="http://www.w3.org/2000/svg" xmlns:xlink="http://www.w3.org/1999/xlink" viewBox="0 0 97 32">
  <defs>
    <style>
      .cls-1 {
        fill: url(#linear-gradient-2);
      }

      .cls-2 {
        fill: url(#linear-gradient-4);
      }

      .cls-2, .cls-3 {
        opacity: .5;
      }

      .cls-4 {
        fill: url(#linear-gradient-3);
      }

      .cls-5 {
        fill: url(#linear-gradient);
      }
    </style>
    <linearGradient id="linear-gradient" x1="54.37" y1="9.18" x2="86" y2="9.18" gradientUnits="userSpaceOnUse">
      <stop offset=".2" stop-color="#000" stop-opacity="0"/>
      <stop offset=".4" stop-color="#000" stop-opacity=".5"/>
      <stop offset=".8" stop-color="#000" stop-opacity=".5"/>
      <stop offset="1" stop-color="#000"/>
    </linearGradient>
    <linearGradient id="linear-gradient-2" x1="46.65" y1="7.13" x2="78.28" y2="7.13" xlink:href="#linear-gradient"/>
    <linearGradient id="linear-gradient-3" x1="41.53" y1="11.24" x2="73.15" y2="11.24" xlink:href="#linear-gradient"/>
    <linearGradient id="linear-gradient-4" x1="15.07" y1="2.33" x2="74.88" y2="2.33" gradientUnits="userSpaceOnUse">
      <stop offset=".1" stop-color="#000" stop-opacity="0"/>
      <stop offset=".8" stop-color="#000"/>
    </linearGradient>
  </defs>
  <g>
    <path class="cls-5" d="M54.37,8.63h31.07c.31,0,.56.25.56.56h0c0,.31-.25.56-.56.56h-31.07v-1.11h0Z"/>
    <path class="cls-1" d="M46.65,6.57h31.07c.31,0,.56.25.56.56h0c0,.31-.25.56-.56.56h-31.07v-1.11h0Z"/>
    <path class="cls-4" d="M41.53,10.68h31.07c.31,0,.56.25.56.56h0c0,.31-.25.56-.56.56h-31.07v-1.11h0Z"/>
  </g>
  <g>
    <path d="M11.3,10.18l-.37,4.72-.37,4.73c-.02.22-.24.38-.47.34l-.6-.1v-.11c.32-5.82.77-9.88.78-9.92v-.05s.63,0,.63,0c.23,0,.43.18.41.41Z"/>
    <path d="M4.91,19.07l-.35-.06c-.29-.05-.52-.29-.53-.57-.05-1.37-.03-2.72.08-4.07.11-1.35.29-2.69.56-4.03.05-.28.31-.48.61-.48h.39c-.25,1.14-.88,4.56-.76,9.22Z"/>
    <path d="M9.17,9.8c-.07.62-.48,4.51-.77,9.88l-2.39-.42c-.15-5.05.62-8.73.79-9.43l2.37-.03Z"/>
  </g>
  <path d="M27.32,8.48v-.43h-2.54v-.66h-.86c-.13,0-.24.11-.24.24v3.19c0,.13.11.24.24.24h.86v-.66h2.54v-.46h-2.54v-.36h2.54v-.68h-2.54v-.43h2.54Z"/>
  <path d="M34.99,8.48v-.43h-.71v-.6h-.54c-.13,0-.24.11-.24.24v3.07c0,.13.11.24.24.24h.54v-.6h.71v-.46h-.71v-.36h.71v-.68h-.71v-.43h.71Z"/>
  <path d="M32.83,8.48v-.43h-3.66v-.66h-.86c-.13,0-.24.11-.24.24v3.19c0,.13.11.24.24.24h.86v-.66h3.66v-.46h-3.66v-.36h3.66v-.68h-3.66v-.43h3.66Z"/>
  <path d="M14.26,5.28l-7.71.22c-.23,0-.43-.18-.43-.41V.41C6.12.18,6.32,0,6.55,0l7.71.22c.22,0,.4.19.4.41v4.24c0,.22-.18.41-.4.41Z"/>
  <path d="M9.03,7.07l-1,1.01.65.76-2.12.03-.17-.2c-.32-.38-.3-.95.05-1.31l.93-.94,3.27-.09-1.6.73Z"/>
  <path d="M22.71,7.57v3.33l-1.06.03c0-.37,0-.7,0-1v-.96h-5.43l-.02.93c-.01.37-.01.75-.02,1.15h0s-.33.02-.33.02c-.25,0-.46-.2-.46-.46v-.47h-2.24c-.23,0-.41-.18-.41-.41v-1.05c0-.23.19-.41.41-.41h2.24v-.41c0-.25.2-.46.46-.46l6.87.17Z"/>
  <path d="M15.94,15.61c-.15,1.24-.4,2.52-.84,3.82-.97-1.54-2.03-2.4-3.35-2.93l.26-3.34c1.2.51,2.58,1.22,3.92,2.45Z"/>
  <path d="M18.92,19.59l-3.2.95c1.53-3.95,1.36-7.83,1.42-10.61h3.55c0,2.19,0,7.11-1.77,9.66Z"/>
  <path d="M24.71,30.63h-.2v-.66c0-.34-.24-.65-.57-.71s-.67-.06-1,0-.57.37-.57.71v.66h-.2c-.3,0-.54.24-.54.54v.39c0,.17.12.31.29.34,1.02.13,2.04.13,3.05,0,.17-.02.29-.17.29-.34v-.39c0-.3-.24-.54-.54-.54Z"/>
  <path d="M22.23,24.66l-.71-1.13.91-1.53c.99-1.65.44-3.8-1.22-4.78l-.21-.13c-.06.23-.12.45-.19.67.86.52,1.96,1.76,1.16,3.53-.03.07-.08.12-.14.16-.12.08-.27.1-.41.04-.21-.1-.3-.34-.21-.55.57-1.25-.22-2.04-.69-2.38-.22.56-.49,1.08-.81,1.55l-.19.28-2.05.61-.07.13c-.16.28-.09.63.16.83l1.22.96c.23.29.29.7.13,1.05l-.81,1.8-1.66-1.51-4.76,1.04.43-1.9c.02-.08-.02-.16-.09-.19-.38-.19-.8-.28-1.28-.28-.08,0-.15.06-.17.14l-1.69,7.53-1.89.39c-.12.02-.2.13-.2.25v.36c0,.13.1.25.23.26,1.69.17,3.38.17,5.07,0,.13-.01.23-.13.23-.26v-.36c0-.12-.08-.22-.2-.25l-1.65-.34.84-3.76,4.69-.94,2.85,2.11,1.61-2.77,1.38,3.52c.23-.26.56-.44.92-.5.27-.05.54-.06.81-.05l-1.35-3.61Z"/>
  <path d="M17.37,28.16l-.68.6c-.22.19-.52.27-.8.21-.49-.1-.99.11-1.25.55l-.5,1.03h.94l.68,1.2h-2.49s0-.09,0-.13v-.36c0-.34-.14-.66-.38-.88l1.42-2.44c.09-.14.26-.27.42-.24l1.01.26c.17.04.37-.08.49-.22l.23-.25.91.68Z"/>
  <g>
    <polygon class="cls-3" points="37.57 9.03 36.02 9.88 36.02 10.3 40.08 12.36 39.65 10.71 44.8 9.25 39.61 8.11 40.34 6.54 36.02 8.29 36.02 8.58 37.57 9.03"/>
    <polygon class="cls-3" points="36.05 11.14 37.81 12.18 37.32 13.57 36.05 11.14"/>
    <polygon class="cls-3" points="36.05 7.68 37.91 6.89 37.27 5.91 36.05 7.68"/>
  </g>
  <g>
    <polygon points="88.45 1.25 84.43 .23 82.85 .23 80.97 .9 76.18 .72 76.18 2.78 80.97 2.6 82.85 3.27 84.43 3.27 88.45 2.25 88.45 1.25"/>
    <polygon points="93 3.72 93 4.72 88.97 5.74 87.39 5.74 85.52 5.07 80.72 5.25 80.72 3.6 80.82 3.6 82.68 4.27 84.55 4.27 89.45 3.03 89.45 2.82 93 3.72"/>
    <path class="cls-2" d="M64.27,3.09c.39.06.6.13.65.29.25.76,3.52,1.45,5.92,1.24,2.4-.21,4.2-1,4.03-1.76-.17-.77-3.31-1.89-5.4-1.13-1.17.42-2.81.73-3.7.5l-1.09-.36c-.58-.26-.66-.63-.92-.93-.78-.9-4.7-1.27-6.84-.56-.53.18-1,.39-1.39.63-.87.53-1.99.87-3.2.94l-1.25.08c-.56.03-1.13.02-1.68-.07-1.17-.18-2.66-.26-3.92-.15-1.21.11-2.29.31-3.03.55h-.17s-1.84-.34-1.84-.34c-.56-.11-1.05-.29-1.54-.49-.81-.33-2.24-.56-3.36-.47-.67.06-1.26.18-1.73.35-.53.19-1.09.33-1.69.41l-2.61.32c-.77.09-1.55.08-2.31-.04-1.63-.25-3.86-.45-5.76-.45-3.51,0-6.36.37-6.36.84s4.59,1.13,8.11,1.13c1.73,0,3.29-.09,4.44-.24h.07s5.6-.69,5.6-.69h.13c.8.34,2.27.59,3.41.49.23-.02.46-.05.67-.08,1.01-.17,2.07-.19,3.08,0h0c.47.09.9.23,1.32.38,1.04.37,3.43.62,5.29.46,1.26-.11,2.36-.32,3.11-.58.58-.2,1.11-.39,1.85-.39h1.28c.44.01.93.19,1.06.33.78.9,4.7,1.27,6.84.56.81-.27,1.6-.85,2.45-.8l.5.05Z"/>
  </g>
</svg>