<?xml version="1.0" encoding="UTF-8"?>
<svg id="Layer_1" class="color" data-name="Layer 1" xmlns="http://www.w3.org/2000/svg" viewBox="0 0 49 32">
  <defs>
    <style>
      .cls-1 {
        opacity: .5;
      }
    </style>
  </defs>
  <path d="M33.76,7.77v.96c0,.73-.97,1.53-1.56,1.85-1.83.99-3.85.81-5.87.83l-2.64,6.03c-.95,1.51-2.6,2.2-4.36,1.87-1.53-.3-3.42-1.33-4.48.48l-2.08,6.52.71,1.76-.86,3.94-11.23-3.19c-1.17-.39-1.73-1.68-1.21-2.81l5.58-11.33v-2.12s-2.03-1.77-2.03-1.77l-.05-.75h23.71c.58-.82.99-1.73,2.01-2.06.2-.07.66-.19.85-.19h3.5ZM17.24,14.59c-.74,3.22,3.73,4.95,5.32,2.04,1.33-2.46-1.18-5.1-3.71-4.01-.24.78-.14,1.87.2,2.61.07.16.52.87.64.99s.85.59.85.59l-.26.64c-1.21-.49-2.09-1.54-2.48-2.78l-.55-.08Z"/>
  <path d="M32.5,2.37v1.38h1.27v2.78c-.05.08-.11.08-.19.09-1.8.21-3.55-.38-5.31.53-.75.39-1.23,1.02-1.8,1.62h-11.81l.83-3.69h-1.05l-.83,3.69h-.94l.77-3.69h-1.05l-.83,3.69h-.94l.83-3.69h-1.1l-.83,3.69h-.94l.83-3.69h-1.1l-.83,3.69h-3.3l3.78-5h19.55s.17-.06.17-.06l1.32-1.32h3.5Z"/>
  <path class="cls-1" d="M36.17,7.27l2.15.17-.38-2,2.2-2.13-3.88.61c-.12.01-.07,0-.08-.08-.01-.09-.02-.4.03-.47l6-3.36-.74,3.08,7.55,2.7-9.64,2.26,1.05,2.2-4.24-2.17v-.8Z"/>
</svg>