<?xml version="1.0" encoding="UTF-8"?>
<svg id="Layer_1" class="color" xmlns="http://www.w3.org/2000/svg" version="1.1" viewBox="0 0 54 32">
  <!-- Generator: Adobe Illustrator 29.7.1, SVG Export Plug-In . SVG Version: 2.1.1 Build 8)  -->
  <defs>
    <style>
      .st0 {
        isolation: isolate;
        opacity: .5;
      }
    </style>
  </defs>
  <path class="st0" d="M42.31,23.26s4.91,4.91,4.79,4.95-8.17-1.69-8.17-1.69l-4.05,5.36-.91-4.38c1.91-1.23,3.93-3.36,5.59-6.06,1.8-2.95,2.79-5.97,2.89-8.33l3.46-1.76-2.46,4.97,6.56,1.22-7.69,5.73h-.01Z"/>
  <path class="st0" d="M17.22-.12l1.56,4.54c-1.81,1.12-3.55,2.88-4.91,5.12-2.09,3.44-2.76,7.16-2.03,9.9l-3.44,2.04,1.28-5.69-5.69,1.57,6.51-8.18-5.4-3.52,9.11.66L17.22-.12Z"/>
  <g>
    <path d="M37.86,12.53c-.57-3.31-5.91-5.17-11.9-4.12-6,1.04-10.39,4.57-9.82,7.89s5.91,5.16,11.9,4.12,10.39-4.57,9.82-7.89ZM27.37,16.5c-3.9.68-7.32-.21-7.63-1.98-.3-1.77,2.61-3.76,6.52-4.43s7.32.21,7.63,1.98c.31,1.77-2.61,3.76-6.52,4.43Z"/>
    <path d="M37.28,17.5l-.04.26h0c-.41,2.6-3.84,5.1-8.33,5.89-4.27.74-8.14-.31-9.61-2.39h0l-.08-.12c1.56.61,3.45.95,5.54.95,1.16,0,2.36-.1,3.54-.31,3.85-.66,7.04-2.27,8.99-4.29h0Z"/>
    <ellipse cx="26.79" cy="12.79" rx="4.45" ry="1.98" transform="translate(-1.79 4.76) rotate(-9.83)"/>
  </g>
</svg>