<?xml version="1.0" encoding="UTF-8"?>
<svg id="Layer_1" data-name="Layer 1" class="color" xmlns="http://www.w3.org/2000/svg" viewBox="0 0 75 32">
  <defs>
    <style>
      .cls-1 {
        fill: #ed7900;
      }

      .cls-2 {
        opacity: .5;
      }
    </style>
  </defs>
  <path class="cls-1" d="M28.29,21.97c-.43.17-.9.35-1.4.55-2.4.95-5.36,2.12-8.38,3.22.36,1.12.92,2.15,1.99,2.86,2.27,1.51,5.13.47,5.38.38.66-.25.6-.37,3.38-2.38.03-.02.06-.04.09-.06.34-2.24.63-4.42.83-6.18-.06.1-.13.19-.19.28-.42.59-1,1.05-1.69,1.32ZM40.04,4.04c-.94-.03-1.98.44-3.17,1.17-.06.04-.12.07-.17.1-1.02-1.27-2.52-1.54-3.02-1.63-2.58-.46-4.61,1.09-5.18,1.57-.17.14-.6.52-1.05,1.13-1.27-.15-3.14-.12-4.76.91-.13.08-.71.46-1.43,1.29-.42.49-1.03,1.42-1.71,3.36,2.87-.28,5.43-.47,7.71-.57,1.44-.07,2.81.69,3.49,1.92.3.55.62,1.33.73,2.29.78-1.16,1.66-1.59,2.32-1.74.63-.14,1.5-.12,2.48.52-.41-1.36-.26-2.99.49-4.87.22-.55.55-1.05.98-1.48,1.02-1.01,2.28-2.24,3.68-3.53-.44-.26-.91-.42-1.39-.44ZM47.41,18.02l-7.12-.44c-.66-.04-1.28-.23-1.84-.52,1.04,2.56,3.47,6.87,4.86,9.34.6-.03,1.21-.17,1.79-.54.79-.51,1.22-1.28,1.57-2.19.78-2.08.84-4.21.75-5.65ZM22.45,3.37c1.62.32,3.08.81,4.34,1.49.23-.25.47-.48.71-.68.44-.37,1.25-.97,2.32-1.42.59-.25.69-1.04.18-1.42-2.85-2.08-5.49-1.54-7.89.28-.64.49-.43,1.6.35,1.75Z"/>
  <g class="cls-2">
    <path d="M1.47,8.25l14.02,3.13c.37.08.77-.05,1.01-.35.68-.88.58-1.79-.3-2.72-.19-.2-.45-.31-.72-.31l-13.97-.16c-.25,0-.29.35-.05.4ZM17.73,5.2c.48.46,1.24.44,1.67-.06l.28-.33c.25-.28.17-.73-.15-.91-1.34-.74-2.62-.99-3.83-.64-.23.07-.26.37-.05.48.82.44,1.52.92,2.08,1.46ZM8.55,25.69c-1.41.79-2.9,1.85-4.44,3.06-.08.06-.03.19.07.18,1.75-.11,3.36-.24,4.62-.41.21-.03.4-.16.48-.35.42-.91.34-1.69-.14-2.36-.13-.19-.4-.24-.6-.12ZM40.47,14.94c2.94.18,18.43,1.15,23.43,1.47.33.02.44-.43.15-.57l-9.74-4.59c-.07-.03-.07-.14,0-.16,2.51-.82,5.82-2.08,8.63-3.44.46-.22.24-.92-.26-.84-5.35.83-11.15,1.62-15.31,1.78-.22,0-.38-.2-.33-.41.42-1.64,1.25-3.78,1.97-5.74.11-.31-.25-.57-.5-.36-3.01,2.42-6.16,5.39-8.77,8.01-.15.15-.27.33-.35.54-.62,1.59-.73,2.89-.08,3.73.28.36.71.57,1.16.6ZM74.91,10.05l-6.39-1.82c-.29-.08-.6.08-.68.37-.29.99-.31,1.87.09,2.59.11.2.35.3.57.26l6.39-1.15c.13-.02.14-.21.01-.24ZM26.86,14.18c-7.48.35-17.29,1.64-26.6,3.06-.35.05-.35.56,0,.61,5.06.67,11.29.92,16.67,1.23.17,0,.24.23.1.34l-5.73,4.38c-.57.44-.11,1.34.58,1.12,5.16-1.61,11.16-4.09,14.83-5.56.16-.06.3-.17.4-.31,1.06-1.53,1.34-3.01.58-4.41-.16-.3-.49-.47-.82-.45ZM51.64,24.49c-.17-.17-.44-.18-.63-.03-.59.46-1.04,1.14-1.33,2.03-.09.27.08.57.37.62,1.45.27,2.87.45,4.23.5.1,0,.16-.12.09-.2-.91-1.06-1.83-2.05-2.73-2.92ZM68.4,24.66l-13.56-4.74c-.36-.13-.77-.04-1.04.23-.78.8-.78,1.71-.02,2.73.16.22.41.36.68.39l13.85,1.78c.24.03.33-.32.09-.4ZM36.26,20.29c-.1-.18-.23-.35-.38-.49-.95-.82-1.74-.74-2.36.33-.05.16-.11.32-.16.48-.28,2.49-1.15,7.22-2.1,11.12-.06.23.25.36.38.17.76-1.14,1.97-2.98,2.63-3.98.23-.34.73-.35.96-.02l2.41,3.38c.31.43.98.2.97-.32l-.07-2.87c-.01-.44.47-.73.85-.5l1.66.97c.33.19.68-.2.46-.5-1.96-2.67-4.17-5.72-5.25-7.77Z"/>
  </g>
</svg>