<?xml version="1.0" encoding="UTF-8"?>
<svg id="Layer_1" data-name="Layer 1" class="color" xmlns="http://www.w3.org/2000/svg" viewBox="0 0 71 32">
  <defs>
    <style>
      .cls-1 {
        opacity: .5;
      }
    </style>
  </defs>
  <g>
    <path d="M23.03,7.44v4.14c-.82-.05-1.48-.95-1.48-2.07s.66-2.02,1.48-2.07Z"/>
    <path d="M26.79,11.33h-2.86v-3.63h2.86c.12,1.21.12,2.42,0,3.63Z"/>
    <polygon points="52 10.7 51.71 12.59 31.61 13.01 32.1 12 32.1 10.7 52 10.7"/>
    <path d="M17.5,15.74c-.41-1.01-1.04-1.62-1.47-2.04-.46-.44-1.74-1.68-3.32-1.7-.45,0-.74.1-.94.21-.53.31-.7.86-.85,1.27-.24.64-.7,1.35-1.61,2.77-.64,1-.9,1.09-1.67,2.08-.52.68-1.55,2.12-2.31,4.03-.75,1.87-.93,3.41-1.1,4.88-.24,2.09-.36,3.15-.02,3.78,2.33,1.18,5.77,1.26,10.19.36.12-.49.23-1.22.12-2.06-.1-.76-.29-1.03-.55-1.81-.15-.47-.75-2.43-.37-4.64.15-.89.4-1.47.46-1.61.28-.63.33-.74.95-1.54.32-.4.93-.67,1.17-.77.4-.17.42-.17.82-.33.43-.18.64-.56.71-.67.42-.74.05-1.65-.19-2.22ZM13.3,18.05c-.82,0-1.47-.66-1.47-1.47s.66-1.47,1.47-1.47,1.47.66,1.47,1.47-.66,1.47-1.47,1.47Z"/>
    <path d="M52.74,5.49l-.47.02-.32-2.11c-.09-.55-.46-1.4-1.24-1.2l-5.9,1.35c-.25.06-.46.25-.53.49l-.14.46-12.04.52v4.51h20.64c.74,0,.74-4.03,0-4.03ZM43.54,5.39v1.1h-4.18v-.92l4.18-.18ZM33.1,5.84l3.73-.16v.81h-3.73v-.65ZM50.56,6.5h-4.37v-1.22l4.37-.19v1.41Z"/>
    <path d="M19.98,5.09c-.16.53-.4,1.02-.66,1.5h-1.37l-.42.34c-.53.44-1.31.4-1.79-.09l-.05-.05c-.4-.4-.94-.62-1.5-.62h-2.3c-.16,0-.29.13-.29.29v.92c0,.16.14.29.3.29l1.19-.06c1.21-.06,2.34.57,2.92,1.63l.24.43c-.78.44-1.63.78-2.54.94l-.55.1.07.06c1.78.23,3.1,1.48,3.63,1.98.5.48,1.28,1.23,1.79,2.5l.3,1.14c.4,1.8,1.79,3.39,3.82,3.39s3.67-1.55,3.67-3.44v-.66c0-.57.43-1.05.99-1.12l2.21-.28,1.25-2.58v-6.63h-10.93ZM22.78,18.52c-1.33,0-2.41-.97-2.41-2.17,0-.17.03-.34.07-.5h.96c.09.51.29,1.05.6,1.62l.76-.26c-.52-1.34-.51-2.21.31-3.01,1.18.13,2.11,1.04,2.11,2.15,0,1.2-1.08,2.17-2.4,2.17ZM27.85,12.44h-6.21c-1.1,0-2-1.32-2-2.93s.9-2.92,2-2.92h6.21c.19,1.95.19,3.9,0,5.86Z"/>
  </g>
  <path class="cls-1" d="M55.32,4.08c.16,0,7.5-4.08,7.5-4.08l-1.9,3.2,6.08,3.98-5.6,4.7,1.41,2.32-7.5-2.53,3.2-3.87-3.2-1.96v-1.76Z"/>
</svg>