<?xml version="1.0" encoding="UTF-8"?>
<svg id="Layer_1" xmlns="http://www.w3.org/2000/svg" class="color" version="1.1" xmlns:xlink="http://www.w3.org/1999/xlink" viewBox="0 0 117 32">
  <!-- Generator: Adobe Illustrator 29.7.1, SVG Export Plug-In . SVG Version: 2.1.1 Build 8)  -->
  <defs>
    <style>
      .st0 {
        fill: url(#linear-gradient);
      }
    </style>
    <linearGradient id="linear-gradient" x1="73.26" y1="19.11" x2="117" y2="19.11" gradientTransform="translate(0 34) scale(1 -1)" gradientUnits="userSpaceOnUse">
      <stop offset=".43" stop-color="#000" stop-opacity=".5"/>
      <stop offset=".61" stop-color="#000"/>
    </linearGradient>
  </defs>
  <g>
    <path d="M15.87,16.79c-.26-1.64-.26-3.29,0-4.93l-3.56-.21-7.22-3.9c-.18-1.24-.4-2.49-.68-3.73-.05-.2-.3-.34-.6-.34h-1.79c-.29,0-.54.14-.59.33-1.92,6.88-1.92,13.75,0,20.63.05.19.3.33.59.33h1.79c.3,0,.55-.15.6-.34.28-1.24.5-2.49.68-3.73l7.22-3.9,3.56-.21h0Z"/>
    <path d="M24.49,8.57c-.32,3.84-.32,7.68,0,11.51l-6.45-2.57c-.53-2.12-.53-4.25,0-6.38l6.46-2.57h0Z"/>
    <path d="M70.87,17.12h-7.17l-1.09.89c-.06.05-.13.08-.21.08h-11.88l-23.94,1.94c-.18-3.8-.18-7.6,0-11.39l4.61.37c-.22,2.22-.19,4.43.08,6.64l.2,1.61,21.27-1.23-.04-5.45h9.72c.08,0,.15.02.21.07l1.09.9h7.17c1.4,0,1.4,5.59,0,5.59h0Z"/>
    <g>
      <path d="M33.3,6.35l5.26.62c-.07,1.28-.12,2.54-.13,3.78h0l-5.64-.18h0c.07-1.41.24-2.82.51-4.23h0Z"/>
      <path d="M50.97,11.17l-5.94-.2c0-1.07.03-2.15.07-3.24l5.85.69.02,2.75Z"/>
      <path d="M45.11,14.74l-6.55.37h0c-.09-1.43-.13-2.88-.12-4.35l6.6.21c0,1.27.03,2.53.08,3.76h0Z"/>
    </g>
    <path d="M44.05,22.94l-.25-.02.77,7.3c.04.37-.18.71-.5.77l-2.4.47c-.36.07-.7-.25-.7-.67l-.12-8.11-.34-.03c-.25-.02-.44-.2-.49-.43l-.44-2.04,6.14-.5-1.09,2.92c-.09.23-.32.36-.56.34h-.02Z"/>
    <path d="M63.68,23.31l-.62,3.91c-.21,1.28-1.04,2.35-2.24,2.84l-1.01.42-.05-1.31.59-.25c.8-.34,1.36-1.04,1.49-1.9l.63-3.91c.06-.34-.04-.69-.27-.95-.23-.27-.55-.41-.89-.41h-2.41c-.29,0-.53.24-.53.53l-.04,2.6c0,.1-.09.18-.2.18h-.42l.26,6.21c0,.39-.26.73-.6.73h-1.95c-.33,0-.59-.32-.59-.69v-6.33h-.19c-.09,0-.17-.04-.23-.1l-.71-.62v-1.93s-.03-.09-.06-.14l-.97-.8s-.07-.09-.07-.14v-1.97h8.57l-.29,1.23h.42c.7,0,1.37.31,1.82.85.46.53.66,1.24.54,1.94h.02Z"/>
    <path d="M67.76,8.58l.73,1.6h-4.45l-.63-.51c-.37-.3-.82-.46-1.29-.46h-.52l.23-.94c.16-.65.81-1.05,1.46-.92l3.08.67,2.13-3.48-.7-4.04c-.03-.17.09-.34.26-.37l.84-.14c.17-.03.33.09.36.26l.79,4.59-2.29,3.73h0Z"/>
  </g>
  <path class="st0" d="M110.1,16.52c-.33,2.09-1.31,3.93-2.93,5.52l8.04,2.55c.25.08.54.07.76-.07.75-.46,1.09-1.14,1.03-2.05-.02-.26-.16-.49-.36-.65l-6.54-5.3ZM107.02,13.61c-.94,2.75-2.27,5.21-3.99,7.37l2.49,1.35c1.88-2.13,3.21-4.59,3.99-7.37l-2.49-1.35ZM100.82,13.28l-1.45,2.67,3.08,3.31c1.23-1.58,2.21-3.29,2.84-5.18l-4.47-.8ZM105.58,15.59h0ZM82.95,11.34l2.49-3.12-7.71,2.18,1.12-5.27-5.6,6.03v1.34l4.28-.39-2.49,1.88,1.57,2.14-3.36-.19v1.4l4.64,6.75-.62-6.38,7.38.78-4.02-3.62c4.7-1.13,11.04-1.67,17.4.57l1.19-2.72c-5.9-2.18-11.58-2.08-16.27-1.37h0Z"/>
</svg>