<?xml version="1.0" encoding="UTF-8"?>
<svg id="Layer_1" data-name="Layer 1" class="color" xmlns="http://www.w3.org/2000/svg" xmlns:xlink="http://www.w3.org/1999/xlink" viewBox="0 0 64 32">
  <defs>
    <style>
      .cls-1 {
        fill: url(#linear-gradient-2);
      }

      .cls-2 {
        fill: url(#linear-gradient);
      }

      .cls-3 {
        opacity: .5;
      }
    </style>
    <linearGradient id="linear-gradient" x1="0" y1="24.7" x2="18.28" y2="24.7" gradientUnits="userSpaceOnUse">
      <stop offset=".2" stop-color="#000" stop-opacity="0"/>
      <stop offset=".7" stop-color="#000"/>
    </linearGradient>
    <linearGradient id="linear-gradient-2" x1="6.34" y1="9.54" x2="30.69" y2="9.54" gradientUnits="userSpaceOnUse">
      <stop offset="0" stop-color="#000" stop-opacity="0"/>
      <stop offset=".5" stop-color="#000"/>
    </linearGradient>
  </defs>
  <g>
    <path d="M58.13,29.17c1.67-.46,2.68-1.47,2.89-3.16-.97.68-1.84.56-2.65-.09,1.57-.74,2.38-1.91,2.3-3.61-.84.84-1.72.87-2.63.37,1.42-1,2.01-2.3,1.64-3.96-.68.97-1.54,1.16-2.52.82,1.22-1.23,1.58-2.61.92-4.18-.5,1.07-1.32,1.41-2.34,1.25.99-1.42,1.11-2.85.18-4.28-.31,1.15-1.06,1.62-2.09,1.64.73-1.58.59-3-.56-4.24-.1,1.18-.76,1.77-1.77,1.97.44-1.68.06-3.06-1.29-4.08.1,1.18-.44,1.88-1.4,2.25.14-1.73-.47-3.02-1.98-3.8.3,1.15-.1,1.93-.99,2.46-.16-1.73-.99-2.89-2.61-3.39.5,1.08.23,1.92-.55,2.6-.45-1.67-1.47-2.68-3.16-2.89.68.97.56,1.84-.09,2.65-.74-1.57-1.92-2.38-3.62-2.3.84.84.87,1.72.38,2.63-1-1.42-2.3-2.01-3.96-1.64.97.68,1.16,1.54.82,2.52-1.23-1.22-2.61-1.58-4.18-.92,1.07.5,1.41,1.32,1.25,2.34-1.43-.99-2.85-1.11-4.28-.18,1.14.31,1.61,1.06,1.64,2.09-1.58-.73-3-.59-4.25.56,1.18.1,1.77.76,1.98,1.77-1.68-.44-3.06-.06-4.09,1.29,1.18-.1,1.88.44,2.26,1.4-1.73-.14-3.02.47-3.8,1.98,1.14-.3,1.92.1,2.46.99-1.73.16-2.89.99-3.39,2.61,1.07-.5,1.91-.23,2.6.55-1.67.45-2.68,1.47-2.89,3.16.97-.68,1.85-.56,2.65.09-1.57.74-2.38,1.92-2.3,3.62.84-.84,1.72-.87,2.63-.38-.91.64-1.47,1.4-1.67,2.3h6.16c-.75-1.79-1.16-3.75-1.16-5.81,0-8.29,6.73-15.02,15.02-15.02s15.02,6.73,15.02,15.02c0,2.06-.42,4.02-1.16,5.81h5.18c.97-.4,1.64-1.14,1.99-2.28-1.08.5-1.92.23-2.6-.55Z"/>
    <path d="M39.7,12.58c-7.52,0-13.61,6.09-13.61,13.61,0,2.08.47,4.05,1.3,5.81h4.25c-1.18-1.63-1.88-3.64-1.88-5.81,0-5.49,4.45-9.94,9.94-9.94s9.94,4.45,9.94,9.94c0,2.17-.69,4.18-1.88,5.81h4.25c.83-1.76,1.3-3.73,1.3-5.81,0-7.52-6.09-13.61-13.61-13.61Z"/>
    <path d="M39.7,19.09c-3.92,0-7.1,3.18-7.1,7.1,0,2.4,1.19,4.53,3.02,5.81h8.14c1.83-1.28,3.02-3.41,3.02-5.81,0-3.92-3.18-7.1-7.09-7.1ZM39.7,29.97c-2.09,0-3.79-1.69-3.79-3.78s1.7-3.78,3.79-3.78,3.78,1.69,3.78,3.78-1.7,3.78-3.78,3.78Z"/>
    <g class="cls-3">
      <path class="cls-2" d="M0,26.19v5.81h17.29c-.48-1.86-.74-3.8-.74-5.81H0ZM18.28,17.41H0v4.88h16.88c.29-1.7.76-3.33,1.4-4.88Z"/>
    </g>
    <g class="cls-3">
      <path class="cls-1" d="M6.34,14.22h13.55c.57-.94,1.2-1.83,1.9-2.68H6.34v2.68ZM6.34,4.86v1.24h21.85c.8-.46,1.64-.88,2.5-1.24H6.34ZM6.34,9.33h17.51c.72-.68,1.49-1.32,2.3-1.9H6.34v1.9Z"/>
    </g>
  </g>
  <path d="M60.35,6.48c-.38.2-.67.55-.84,1-.08.23,0,.56.13.73.14.17.29.11.39-.09.2-.41.53-.71.94-.87.27-.11.39-.31.21-.53-.18-.22-.58-.37-.83-.24Z"/>
  <path d="M15.98,24.25c.27,0,.55-.16.78-.44.12-.14.18-.42.15-.6-.03-.18-.13-.19-.25-.08-.24.23-.52.34-.8.3-.18-.02-.31.09-.28.32.03.23.21.5.39.49Z"/>
  <path d="M52.87,5.76c-.09.03-.18.05-.27.08-.44.14-.72.37-.62.49.1.12.47.19.77.15.06-.01.13-.02.19-.04.25-.04.46-.25.5-.47s-.21-.32-.57-.21Z"/>
  <path d="M47.31,3.31c.09,0,.18-.02.26-.03.44-.07.74-.32.66-.52-.08-.2-.41-.41-.71-.44-.06,0-.13,0-.19,0-.24-.01-.47.22-.54.53-.07.31.15.52.51.47Z"/>
  <path d="M61.04,14.5c-.07,0-.14,0-.21,0-.34,0-.6.13-.55.24.05.11.29.25.52.28.05,0,.1.01.15.02.19.02.38-.09.45-.25.07-.16-.08-.29-.37-.29Z"/>
  <path d="M13.98,24.66c-.04-.07-.07-.13-.11-.2-.19-.32-.47-.51-.59-.42-.12.09-.16.38-.07.61.02.05.04.1.06.15.07.19.31.33.56.33.24,0,.31-.2.16-.46Z"/>
  <path d="M18.76,9.74s-.08.04-.12.06c-.16.07-.15.4.01.76.17.36.45.51.64.34.05-.04.1-.08.15-.12.23-.22.26-.6.07-.79s-.54-.32-.75-.25Z"/>
  <path d="M63.44,15.09c-.05-.23-.38-.36-.76-.31t0,0c-.38.05-.57.33-.42.65.03.08.07.16.11.23.19.38.57.57.78.43s.38-.53.34-.82c-.01-.06-.03-.12-.04-.18Z"/>
  <path d="M62.95,10.15c-.3-.55-.83-.87-1.12-.72-.29.16-.48.66-.39,1.05.02.08.05.17.07.25.08.32.55.55,1.08.55h0c.52,0,.76-.35.52-.8-.05-.11-.11-.22-.17-.33Z"/>
  <path d="M26.16.83c-.07.03-.13.06-.19.09-.25.11-.32.52-.17.95.15.43.52.57.84.33.08-.06.16-.12.24-.18.39-.31.52-.79.3-1-.22-.21-.7-.31-1.02-.19Z"/>
  <path d="M54.75,5.28c-.04.06-.07.12-.11.18-.14.22-.09.61.12.9h0c.21.29.49.22.65-.16.04-.09.08-.18.12-.28.19-.47.16-.94-.04-1.01-.2-.07-.55.1-.73.37Z"/>
  <path d="M49.3,2.9c-.07.02-.14.05-.21.08-.35.14-.56.4-.46.56.1.15.42.27.68.24.05,0,.11-.02.16-.03.2-.03.36-.27.35-.54,0-.27-.22-.4-.52-.3Z"/>
  <path d="M30.16,2.66c-.02-.27-.26-.38-.55-.24-.07.03-.14.06-.22.1-.35.17-.55.46-.43.6.11.14.45.22.71.17.05-.01.11-.03.16-.05.21-.05.35-.3.33-.57Z"/>
  <path d="M59.94,10.43c.08-.23-.07-.51-.33-.66-.26-.14-.5.02-.55.38-.01.09-.03.18-.04.26-.05.44.09.8.29.78.2-.02.48-.3.58-.58.02-.06.04-.12.06-.18Z"/>
  <path d="M50.86.02c-.29.11-.52.33-.66.63-.07.15-.03.38.07.5.1.12.21.1.29-.04.16-.26.42-.45.73-.53.2-.06.3-.18.17-.34-.12-.16-.41-.29-.6-.21Z"/>
  <path d="M63.74,18.56c-.11-.22-.38-.47-.57-.56-.19-.1-.23,0-.14.21.17.41.21.77.1,1.05-.07.18,0,.39.25.51.25.12.56.12.6-.08.06-.3-.02-.68-.24-1.12Z"/>
</svg>