<?xml version="1.0" encoding="UTF-8"?>
<svg id="Layer_1" data-name="Layer 1" class="color" xmlns="http://www.w3.org/2000/svg" viewBox="0 0 100 32">
  <defs>
    <style>
      .cls-1 {
        opacity: .5;
      }
    </style>
  </defs>
  <g class="cls-1">
    <polygon points="92.18 3.85 87.24 10.96 100 15.31 87.85 18.57 94.51 23.78 79 19.26 79 18 83.61 16.1 80.58 14.36 84.29 12.77 79 11.62 79 10.37 92.18 3.85"/>
  </g>
  <g>
    <path d="M69.1,19.86c-.29.42-.6.82-.92,1.22-.87,1.08-2.14,1.77-3.53,1.85l-16.6,1c.07-1.42.12-2.82.14-4.22l20.91.15Z"/>
    <path d="M25.48,9.94c-.44,0-1.8.5-2.32.66C15.35,12.94,5.31,16.99.16,23.81c-.28.37-.17.9.21,1.16l2.91,1.92c.34.23.79.16,1.06-.14,3.9-4.38,11.02-8.05,14.01-8.05h4.21v1.13c.01,1.04.45,1.96,1.43,2.39l.85-.65c-.83-.61-1.03-1.96-.42-2.87h2.96c.31.64.41,1.39.18,2.18-.32,1.1-1.24,1.96-2.36,2.18-1.98.38-3.71-1.13-3.71-3.04,0-.12.01-.23.02-.35h-3.03c-.13.01-.46.03-.76.1-1.17.26-2.45.84-3.67,1.42-1.57.76-2.73,1.35-4.55,2.7-.64.49-1.04.82-1.28,1.09-.71.72-1.36,1.58-1.36,2.99,0,1.27.61,2.49,1.63,3.23,1.81,1.32,4.08.93,5.4-.54.04-.04.06-.06.09-.09,1.95-2.05,3.36-2.89,4.49-3.44.36-.17.75-.37,1.01-.51.17-.09.34-.18.49-.28h0c1.31-.72,1.91-1.5,2.03-2.69.73.52,1.63.83,2.59.83,2.46,0,4.46-2,4.46-4.46l1.85-1.32h.97c-.04-2.92,0-5.85.12-8.76h-6.51ZM19.31,25.16h-.03c-.11.07-.79.45-1.41.74-1.75.85-3.22,1.97-4.88,3.73l-.1.1c-.51.58-1.24.91-1.99.91-1.48,0-2.67-1.19-2.67-2.66,0-.79.25-1.32.98-2.06h0c.09-.09.74-.66,1.1-.93,1.71-1.28,2.82-1.85,4.32-2.57,1.14-.55,2.34-1.08,3.38-1.32.16-.04.37-.06.51-.06.54-.02,1.06.18,1.46.56.42.41.67.98.67,1.57,0,.84-.21,1.35-1.35,1.99Z"/>
    <path d="M45.43,25.96h-10.82c-.28,0-.52-.22-.53-.5-.31-5.82-.31-11.65,0-17.47.02-.29.26-.51.54-.5l10.82.27c.27,0,.5.22.52.5.36,5.68.35,11.41,0,17.21-.02.28-.25.5-.53.5Z"/>
    <path d="M76.6,11.88c-.07-.2-.23-.33-.41-.34l-.98-.04-.12-1.98h-.78l-.71,1.53-.62.36-18.66-.81v-1.77l-3.04-.11v1.75l-3.2-.14c.11,2.22.16,4.47.15,6.74,0,.22,0,.43-.01.65l22.17.16,5.78.04c.19.01.36-.13.43-.34.62-1.96.6-3.85,0-5.69Z"/>
  </g>
</svg>