<?xml version="1.0" encoding="UTF-8"?>
<svg id="Layer_1" data-name="Layer 1" class="color" xmlns="http://www.w3.org/2000/svg" viewBox="0 0 106 32">
  <defs>
    <style>
      .cls-1 {
        isolation: isolate;
        opacity: .5;
      }
    </style>
  </defs>
  <path class="cls-1" d="M106,0l-4.4,8.37,3.6,2.7-4.99,2.21,5.2,6.43-7.98-.83.04,3.29c-1.22-1.44-4.53-5.13-4.53-5.13l.03-.68,3.14-1.24-1.9-1.81,2.78-1.65-4.05-2.62.03-1L106,0Z"/>
  <g>
    <path d="M87.14,16.1c-.68.84-1.06,1.72-1.16,2.62-.04.34-.3.6-.6.6h-1.22v-3.23l2.98.02Z"/>
    <g>
      <path d="M18.25,20.21c-5.68,3.05-9.77,8.77-11.3,11.16-.39.62-1.21.81-1.84.45l-4.42-2.52c-.71-.41-.91-1.35-.43-2.01,5.67-7.65,12.45-11.75,15.71-13.4l2.28,6.33Z"/>
      <path d="M43.58,19.43l9.13-.02v-3.55l-2.97-.02v-1.13h3.38c.24-.34.59-.61.99-.76l1.85-.7c1.93-.73,3.96-1.1,6.04-1.1h19.95c1.21,0,2.2.96,2.2,2.16v.4h6.02c.97,0,.97-4.66,0-4.66h-46.6v9.38Z"/>
      <path d="M54.52,15.98v3.79c0,.14.09.27.24.33l1.82.71c.06.02.11.06.15.1l1.22,1.38c.53.59,1.34.91,2.17.84l16.87-1.35c1.53-.12,3.01-.51,4.39-1.13l.76-.35c.13-.06.22-.18.22-.32v-5.66c0-.2-.17-.36-.39-.36h-19.95c-1.85,0-3.68.33-5.4.98l-1.86.7c-.15.06-.24.19-.24.33Z"/>
      <path d="M40.1,8.9l-11.89.68c-1.54.07-3.06.33-4.54.76l-5.11,1.48c-.24.07-.37.33-.27.57l3.41,9.44c.46,1.74,2.18,3.17,4.38,3.41.22.02.43.03.64.03,2.37,0,4.37-1.38,4.72-3.38v-.04s.1-.57.1-.57c.13-.8.85-1.36,1.66-1.31l6.9.47c.38.02.69-.28.69-.65v-10.22c0-.37-.31-.67-.69-.65ZM26.23,23.77c-1.93-.21-3.38-1.6-3.21-3.09.02-.14.05-.28.09-.42h1.9c.05.63.2,1.29.49,1.99l.92-.25c-.28-.94-.34-1.77-.26-2.53l3.29.22c.42.51.64,1.11.58,1.74-.16,1.5-1.87,2.55-3.8,2.33Z"/>
    </g>
  </g>
</svg>