<?xml version="1.0" encoding="UTF-8"?>
<svg id="Layer_1" class="color" data-name="Layer 1" xmlns="http://www.w3.org/2000/svg" viewBox="0 0 85 32">
  <defs>
    <style>
      .cls-1 {
        opacity: .5;
      }
    </style>
  </defs>
  <polyline class="cls-1" points="85 15.48 73.65 17.2 80.62 23.06 70.2 22.01 74.02 32 64.12 20.94 64.16 20.1 69.52 19.54 67.92 16.03 73.22 14.18 67.24 13.13 69.95 9.28 64.84 6.63 64.93 5.61 70.29 0 68.6 5.3 82.6 1.36 72.61 11.13 85 15.48"/>
  <g>
    <path d="M56.04,26.5l-18.55,1.71-1.42-6.14,6.41-2.35-1.35-6.13-6.84.52-1.34-6.1L50.41,1.66l11.03,7.16c.19.17.37.45.49.68.34.7.99,3.59,1.08,4.41.08.76,0,1.38-.46,1.99l-6.51,10.6Z"/>
    <polygon points="26.7 18.31 27.44 21.58 24.26 22.32 18.5 24.57 8.2 25.93 1.77 29.24 1.54 29.29 0 22.38 7.61 22.56 17.5 19.38 23.64 18.98 26.7 18.31"/>
    <polygon points="33.11 15.73 33.36 17.08 39.73 15.79 40.36 18.38 33.91 19.85 34.22 21.27 29.47 23 27.99 16.09 33.11 15.73"/>
  </g>
</svg>