<?xml version="1.0" encoding="UTF-8"?>
<svg id="Layer_1" data-name="Layer 1" class="color" xmlns="http://www.w3.org/2000/svg" viewBox="0 0 50 32">
  <defs>
    <style>
    </style>
  </defs>
  <g>
    <path d="M46.69,7.25c-.08-7.53-4.95-.4-4.95-.4l-5.2,2.12c.21,1.12.22,1.98.22,2.32.01.13.02.33.03.58l7.6-1.2c3.62,1.06,4.33.35,4.33.35,3.76-2.44-2.04-3.77-2.04-3.77ZM37.22,14.41l-.59-.29c-.21,1.33-.65,3.01-1.54,4.88l.35.3c1.33,3.61,2.42,3.63,2.42,3.63,4.6,1.12,2.13-4.37,2.13-4.37,6.78-5.66-2.77-4.15-2.77-4.15ZM5.55,8.82l.45.06c.16-1.32.53-2.58,1.11-3.73.13-.24.25-.5.41-.74l-1.83-.74C3.31.66,2.27.97,2.27.97c-4.69.35-.65,4.78-.65,4.78-4.64,7.41,3.93,3.07,3.93,3.07ZM7.28,17.21l-.81.15c-3.63-1.21-4.34-.38-4.34-.38-3.74,2.85,2.07,4.35,2.07,4.35.15,8.74,4.96.44,4.96.44l.68-.33c-.59-.69-1.13-1.43-1.59-2.2-.37-.63-.69-1.3-.97-2.02ZM34.91,11.44S35.44,0,21.19,0c-7.62,0-10.97,3.13-12.42,6.03-1,1.99-1.22,4.3-.8,6.5l.25,1.34c.3,1.59.8,3.15,1.61,4.54,1.22,2.07,2.93,3.75,5.1,5.08.52,1.21,1.15,2.33,1.87,3.34.31.43.81.79,1.34.97,3.84,1.13,7.55,1.43,11.13.7,1.1-.33,1.96-.93,1.93-1.99-.03-1.44-.16-2.81-.41-4.09,4.78-5.77,4.12-10.99,4.12-10.99ZM17.32,19.69l-1.74-1.17-1.25,1.39-.95-.8.86-1.77-1.07-1.1.97-1.22,1.25.88,1.14-1.31,1.14.91-1.04,1.58,1.52,1.61-.82,1.01ZM21.9,23.58c-.46.69-1.09.36-1.6-.11-.65-.6-.75-1.47-.28-2.18.03-.04.06-.09.1-.13.38-.54.9-.98,1.26-1.24.21-.15.49-.02.53.24.23,1.26.3,2.24-.01,3.42ZM24.71,23.63c-.46.45-1.04.77-1.48.14-.31-1.08-.28-1.98-.1-3.16.04-.25.3-.36.49-.24.34.25.83.63,1.19,1.11.03.04.06.09.1.13.46.63.38,1.45-.2,2.01ZM31.22,17.3l-1.1,1.18-1.22-1.01-1.28,1.25-1.1-1.04,1.2-1.54-1.43-1.79.93-.98,1.7,1.35,1.42-1.34.91.91-1.03,1.77,1.01,1.23ZM17.81,28.68l.06.85c.02.39.23.71.51.75l.53.09c.31.04.58-.3.61-.77l.02-.5-.53-.04c-.42-.03-.83-.16-1.19-.38ZM20.48,30.63c.03.41.27.74.58.78l.6.09c.36.05.67-.31.7-.8l.08-1.36-2.05-.16.1,1.46ZM23.17,29.4l.27,1.85c.06.41.31.72.62.73l.6.03c.35,0,.64-.38.63-.88l-.03-1.56-2.09-.16ZM26.24,30.82c.03.37.25.66.52.69l.53.06c.32.03.59-.29.61-.73l.04-1.06-1.81-.14.11,1.19ZM28.74,29.78l.16.66c.08.32.34.53.62.49l.55-.06c.32-.05.56-.4.52-.79l-.12-1.28c-.48.54-1.09.88-1.73.97Z"/>
  </g>
</svg>