<?xml version="1.0" encoding="UTF-8"?>
<svg id="Layer_1" data-name="Layer 1" class="color" xmlns="http://www.w3.org/2000/svg" viewBox="0 0 83 32">
  <defs>
    <style>
      .cls-1 {
        opacity: .5;
      }
    </style>
  </defs>
  <g>
    <polygon points="25.89 6.95 25.89 9.23 23.8 9.18 23.8 7.98 18.13 7.87 18.13 9.04 13.76 8.94 13.76 6.95 25.89 6.95"/>
    <polygon points="28.36 30.42 28.32 32 22.76 31.88 23.05 16.8 27.87 16.97 27.61 29.96 28.36 30.42"/>
    <path d="M14.46,12.12v2.81c0,.22-.07.44-.2.61l-3.56,4.84c-.44.59-.56,1.36-.32,2.05l.25.74c-.25.71-.75,1.21-1.44,1.53l-5.19-3.67,5.52-7.44v-1.47c1.57-.79,3.22-.76,4.94,0Z"/>
    <path d="M19.54,5.4l-.14.68-3.58-.03c.07-.67-.27-1.3-.85-1.5-.7-.24-1.5.24-1.77,1.05-.05.14-.08.29-.08.42h-1.52s-.19-.5-.19-.5l1.52-2.54,4.56-.5,2.03,2.9Z"/>
    <polygon points="35.53 7.32 51.61 7.32 51.61 10.7 35.53 10.7 34.76 11.11 33.44 11.11 32.65 11.6 31.57 11.6 31.57 6.42 32.65 6.42 33.44 6.9 34.76 6.9 35.53 7.32"/>
    <path d="M54.95,5.75h-.24v5.36h-.91l-.77-.41v-4.95h-.27c-.45,0-.45-5.75,0-5.75h2.2c.48,0,.48,5.75,0,5.75Z"/>
    <path d="M59.83,11.6h-2.74l-1.15-.45v-4.28l1.15-.45h2.74c.82,0,.82,5.19,0,5.19Z"/>
    <path d="M30.31,6.95v5.86c-.84.87-1.41,1.97-1.6,3.17l-.03.14-6.27-.22v-4.93h-8.05c-1.76-.62-3.45-.56-5.06.21l-.54-.65,1.94-3.59h2.65v2.62l12.99.29v-2.9h3.97Z"/>
    <path d="M15.47,11.82v2.64c.25.92,1.13,1.6,2.17,1.6.95,0,1.76-.57,2.08-1.38l1.82.06v-2.93h-6.07ZM17.63,15.32c-.8,0-1.44-.59-1.48-1.33l.93.19.38-1.65c.06,0,.12-.02.18-.02.82,0,1.49.63,1.49,1.41s-.67,1.4-1.49,1.4Z"/>
  </g>
  <g class="cls-1">
    <path d="M61.81,7c.43-.24,7.71-2.28,7.71-2.28l-.8,1.79,10.28,1.72-11.01,3.07,2.14,1.07-3.85,1.09-5.32-1.98,2.68-1.47-1.59-.7,2.55-.84-2.78-1.47h0Z"/>
    <polygon points="61.81 13.4 66.92 15.73 63.26 16.67 61.81 13.4"/>
    <polygon points="61.56 5.38 65.7 .64 65.39 4.13 61.56 5.38"/>
  </g>
</svg>