<?xml version="1.0" encoding="UTF-8"?>
<svg id="Layer_1" data-name="Layer 1" class="color" xmlns="http://www.w3.org/2000/svg" viewBox="0 0 98 32">
  <defs>
    <style>
      .cls-1 {
        opacity: .5;
      }
    </style>
  </defs>
  <g>
    <path d="M81.16,25.02c.57-1.21.57-2.61.16-3.87-.67-2.02-1.65-3.94-2.94-5.76l-1.03-1.78c-1.38-2.69-1.97-4.72-1.46-8.13.23-1.59.85-3.12,1.77-4.47.2-.56-.3-1.12-.89-1-2.4.5-4.76,1.44-7.01,3.34-.72.61-1.15,3.41-.9,4.29.44,1.59,1.43,3.18,2.51,4.65.49.66.13,1.6-.68,1.75l-6.64,1.27.79,4.12,4.79-.92c2.18-.42,4.39.63,5.43,2.59.34.64.69,1.29,1.04,1.97.52,1.23.45,2.63-.2,3.81l-1.11,2c3.08-.56,5.36-1.73,6.37-3.87ZM72.58,12.31c-.98-1.18-1.33-2.22-1.66-3.22-.15-.44-.25-.84-.32-1.19-.23-1.2-.07-1.95.09-2.45.22-.7.51-1.12.99-1.39.33-.19.73-.29,1.17-.31l.8-.03-.7.4c-.15.09-.09.43.15.93l.41.85-.72-.62c-.47-.4-1-.67-1.14-.58,0,0-.25.2.33,1.69l.2.5-.47-.25c-.26-.14-.59-.24-.66-.21.02,0,0,.34,1.36,1.92l.4.47-.6-.15c-.43-.11-.8-.09-.84-.02,0,0-.14.37,1.96,2.02l1.18.92-1.37-.59c-.57-.24-.87-.32-1.01-.35.15.22.68.78,2.45,2.14l.65.5-.8-.15c-.06-.01-.13-.01-.18,0,.04.08.19.29.67.69l-.23.32c-.8-.51-1.51-1.14-2.1-1.84ZM77.22,23.62c-.16-.8.37-1.57,1.18-1.72s1.6.37,1.76,1.17-.38,1.56-1.19,1.71-1.59-.37-1.75-1.16Z"/>
    <path d="M59.21,21.23l-1.05-5.5c-.04-.2.09-.4.29-.45l3.42-.8c.21-.05.42.09.46.3l1.11,5.78c.04.21-.1.42-.32.45l-3.48.52c-.2.03-.4-.11-.43-.31Z"/>
    <path d="M26.57,22.35c-.91-.27-1.86-.29-2.84-.06-.28.06-.51.3-.61.6l-1.03,2.95-.46-2.39-8.23,2.24.55,2.85,8.16-.93c.07.06.15.11.24.13.91.26,1.85.29,2.82.07.28-.06.51-.3.61-.6l1.28-3.67c.17-.5-.05-1.05-.49-1.18Z"/>
    <path d="M27.56,25.45l1.27-3.66c.1-.3.33-.53.61-.6.98-.23,1.93-.21,2.84.06.44.13.66.68.49,1.18l-1.28,3.67c-.1.3-.34.54-.61.6-.97.22-1.91.2-2.82-.07-.45-.13-.68-.69-.51-1.19Z"/>
    <path d="M33.25,24.36l1.27-3.66c.1-.3.33-.53.61-.6.98-.23,1.93-.21,2.84.06.44.13.66.68.49,1.18l-1.28,3.67c-.1.3-.34.54-.61.6-.97.22-1.91.2-2.82-.07-.45-.13-.68-.69-.51-1.19Z"/>
    <path d="M39.12,23.23l1.27-3.66c.1-.3.33-.53.61-.6.98-.23,1.93-.21,2.84.06.44.13.66.68.49,1.18l-1.28,3.67c-.1.3-.34.54-.61.6-.97.22-1.91.2-2.82-.07-.45-.13-.68-.69-.51-1.19Z"/>
    <path d="M44.83,22.13l1.27-3.66c.1-.3.33-.53.61-.6.98-.23,1.93-.21,2.84.06.44.13.66.68.49,1.18l-1.28,3.67c-.1.3-.34.54-.61.6-.97.22-1.91.2-2.82-.07-.45-.13-.68-.69-.51-1.19Z"/>
    <path d="M57.49,20.61l-.7-3.67-1.2.15c-.09-.11-.2-.2-.34-.24-.91-.27-1.86-.29-2.84-.06-.28.06-.51.3-.61.6l-1.27,3.66c-.18.5.06,1.06.51,1.19.91.26,1.85.29,2.82.07.28-.06.51-.3.61-.6l.12-.35,2.91-.75Z"/>
    <ellipse cx="78.88" cy="23.31" rx=".47" ry=".45" transform="translate(49.33 100.07) rotate(-85.41)"/>
    <path d="M9.78,30.51l-.98-5.13c-.04-.19.07-.37.23-.41l2.82-.68c.17-.04.35.09.39.29l1.03,5.39c.04.2-.08.39-.26.41l-2.87.41c-.17.02-.33-.11-.37-.29Z"/>
    <polygon points="7.96 26.51 8.59 29.77 .9 32 0 27.28 7.96 26.51"/>
  </g>
  <polygon class="cls-1" points="82.46 27.64 86.69 32 86.25 27.64 92.89 31.45 88.78 24.11 98 22.05 86.8 16.86 89.99 8.93 82.96 13.85 85.98 14.13 83.45 19.13 88.83 20.99 84.5 24.41 84.94 27.57 82.46 27.64"/>
</svg>