<?xml version="1.0" encoding="UTF-8"?>
<svg id="Layer_1" data-name="Layer 1" class="color" xmlns="http://www.w3.org/2000/svg" xmlns:xlink="http://www.w3.org/1999/xlink" viewBox="0 0 119 32">
  <defs>
    <style>
      .cls-1 {
        fill: url(#linear-gradient-2);
      }

      .cls-2 {
        fill: url(#linear-gradient);
      }
    </style>
    <linearGradient id="linear-gradient" x1="352.89" y1="-231.54" x2="371.41" y2="-231.54" gradientTransform="translate(-292.31 -226) scale(1 -1)" gradientUnits="userSpaceOnUse">
      <stop offset="0" stop-color="#000" stop-opacity="0"/>
      <stop offset=".8" stop-color="#000" stop-opacity=".5"/>
    </linearGradient>
    <linearGradient id="linear-gradient-2" x1="349.08" y1="-239.54" x2="359.5" y2="-239.54" xlink:href="#linear-gradient"/>
  </defs>
  <g>
    <path d="M111.59,12.75h-20.08v-1.38l-2.26-.13v-.67c0-.19-.18-.32-.36-.27l-1.14.3-.37,1.01h-9.56v-1.61c0-.48-.36-.88-.84-.93l-.85-.09v1.98l-1.72-.37c-.32-.07-.64.11-.76.42l-.52,1.41h-2.83v-1.64c0-.48-.36-.88-.84-.94l-.79-.09v7.62l.79-.09c.48-.05.84-.46.84-.94v-1.64h2.83l.52,1.41c.11.31.44.49.76.42l1.72-.37v1.98l.85-.09c.48-.05.84-.45.84-.94v-1.61h9.56l.37,1.01,1.14.3c.18.05.36-.09.36-.27v-.67l2.26-.13v-1.38h23.41c.09,0,.11-.13.02-.16-1.37-.43-2.52-.9-3.35-1.44Z"/>
    <path d="M81.59,7.62v-1.23h2.12l.39,1.06c.08.23.33.37.57.31l1.28-.27v1.48l.64-.07c.36-.04.63-.34.63-.7v-1.2h7.15l.27.75.85.22c.13.04.27-.06.27-.2v-.5l1.69-.1v-1.03h17.5c.07,0,.08-.1.01-.12-1.03-.32-1.88-.67-2.51-1.07h-15.01v-1.03l-1.69-.1v-.5c0-.14-.13-.24-.27-.2l-.85.22-.27.75h-7.15v-1.2c0-.36-.27-.66-.63-.7l-.64-.07v1.48l-1.28-.27c-.24-.05-.48.08-.57.31l-.39,1.06h-2.12v-1.23c0-.36-.27-.66-.62-.7l-.59-.07v5.69l.59-.07c.36-.04.62-.34.62-.7Z"/>
  </g>
  <rect class="cls-2" x="60.58" y="4.57" width="18.53" height="1.95"/>
  <rect class="cls-1" x="56.77" y="12.57" width="10.42" height="1.95"/>
  <g>
    <path d="M46.68,11.3c0-.43-.35-.78-.78-.78h-1.15c-.08.45-.18.86-.26,1.29-.21,1.07-.27,1.32-1.04,1.33h-3.34c-.58,1.17-1.79,1.96-3.18,1.96h-16.16c-1.81,0-2.55-1.08-2.54-2.93-1.24-.02-1.64-.11-1.64-.92h-2.55c-.34,0-.61.27-.61.61v5.54l.64.79c.16.2.17.49.03.72l-7.12,10.85c-.24.36-.11.84.27,1.04l2.18,1.12c.31.16.69.07.9-.21l7.47-10.06h.99l-.83,2.67c-.16.5-.15,1.03.01,1.53l1.53,3.55,1.63-.62-.79-3.3c-.06-.33-.04-.68.06-1l1.27-4.1c.21-.66.82-1.11,1.51-1.11h1.33l2.25,4.9c.4.87,1.26,1.42,2.22,1.42h14.79c1.61,0,2.91-1.3,2.91-2.91v-7.26h2.54v-3.34h-2.54v-.79Z"/>
    <path d="M43,3.8c-.05-.22-.25-.37-.48-.37h-4.42c-.05-.85-.11-1.7-.19-2.55-.05-.5-.47-.88-.98-.88h-2.02c.12,2.94.16,5.87.12,8.81h-7.15c-.02-2.37,0-4.74.05-7.1.01-.4-.31-.74-.72-.74h-.54c-.39,0-.71.3-.72.69-.11,2.38-.14,4.77-.09,7.15h-3.2c-.04-2.94,0-5.87.12-8.81h-2.02c-.5,0-.93.38-.98.88-.06.59-.1,1.17-.14,1.76h-.4c-.71,0-1.35.48-1.52,1.17-.49,1.98-.49,3.95,0,5.93.17.69.8,1.17,1.52,1.17h.4c.04.59.09,1.17.14,1.76.05.5.47.88.98.88h16.16c.5,0,.93-.38.98-.88.04-.36.06-.72.09-1.08h4.52c.22,0,.42-.15.48-.37.19-.8.32-1.6.38-2.4h5.84v-2.61h-5.84c-.07-.8-.19-1.6-.38-2.4Z"/>
    <path d="M5.17,3.22c-.18,0-.35.11-.43.27-1,2.19-1,4.37,0,6.55.07.17.24.27.43.27h1.22s.05,0,.08-.01V3.4c0-.06,0-.11,0-.17-.03,0-.05-.01-.08-.01h-1.22Z"/>
    <path d="M12.19,8.22v-.21h3.4c-.09-.83-.1-1.66,0-2.49h-3.4v-.2c0-.66-.43-1.2-1.02-1.38v5.65c.59-.18,1.02-.73,1.02-1.38Z"/>
    <path d="M56.3,11.12h-2.35v-5.9c0-.99-.8-1.79-1.79-1.79h-1.79v15.59h1.79c.99,0,1.79-.8,1.79-1.79v-.77h2.35c1.02,0,1.02-5.33,0-5.33Z"/>
    <path d="M9.37,17.4h2.78v-4.34h-2.26V2.37h-1.1c-.57,0-1.03.46-1.03,1.03v14h1.62Z"/>
    <path d="M24.28,4.04v.68l.49-.04s.05,0,.07-.01c.02-1.01.05-2.02.1-3.02-.05-.03-.1-.05-.16-.06l-.49-.04v.69l-.42-.12c-.03.68-.04,1.35-.05,2.03,0,0,.01,0,.02,0l.46-.12Z"/>
    <path d="M29.28,4.36v-.27l.84-.05v-.33h3.77c0-.22,0-.9-.02-1.11h-3.76v-.33l-.84-.05v-.27c0-.07-.06-.13-.13-.11l-.19.05c-.02.84-.04,1.69-.05,2.53l.24.07c.07.02.13-.04.13-.11Z"/>
    <path d="M24.28,7.71v.68l.49-.03s.04,0,.06-.01c-.01-1.02-.01-2.04,0-3.06-.02-.01-.04-.02-.06-.02l-.49-.03v.68l-.46-.12s-.03,0-.04,0c0,.68,0,1.37,0,2.05.01,0,.03,0,.04,0l.46-.13Z"/>
    <path d="M29.28,8.05v-.28l.84-.06v-.33h3.81v-1.14h-3.81v-.33l-.84-.06v-.28c0-.08-.06-.14-.13-.12l-.25.07c0,.85,0,1.69,0,2.54l.25.07c.07.02.13-.04.13-.11Z"/>
  </g>
</svg>