<?xml version="1.0" encoding="UTF-8"?>
<svg id="Layer_1" data-name="Layer 1" class="color" xmlns="http://www.w3.org/2000/svg" xmlns:xlink="http://www.w3.org/1999/xlink" viewBox="0 0 104 32">
  <defs>
    <style>
      .cls-1 {
        fill: url(#linear-gradient);
      }

      .cls-2 {
        fill: #00e1ff;
      }
    </style>
    <linearGradient id="linear-gradient" x1="4" y1="12.85" x2="22.28" y2="12.85" gradientUnits="userSpaceOnUse">
      <stop offset="0" stop-color="#000" stop-opacity="0"/>
      <stop offset=".9" stop-color="#000"/>
    </linearGradient>
  </defs>
  <path d="M62.87,15.62l6.4-1.65-.64,3.1s0,.02,0,.03l-5.75-1.48Z"/>
  <path d="M35.98,10.24l.36,1.3h0c-.04.08-.07.15-.09.22-.71,2.02-.86,4.05-.45,6.09l-.79,1.6c-.87,1.77-1.22,2.86-1.82,4.92l-8.75.73s-3.28-11.16.73-21.17h9.56c.22,2.26.39,3.33.97,5.38.08.27.17.58.27.93Z"/>
  <path d="M65.38,22.41c-.06.01-.12.03-.18.04l-2.14.29-1.51,3.22c-.21.45-.68.73-1.17.7l-6.52-.36c-1.24-.07-2.46-.3-3.64-.71l-.74-.25c-1.17-.4-2.39-.64-3.62-.71l-5.7-.33c.1-.22.22-.43.35-.69l.76-1.45,1.24-.04,12.09.25v.16s3.79.14,3.79.14h.11c.58,0,1.14-.17,1.62-.5l1.24-.84,4.02,1.08Z"/>
  <polygon class="cls-2" points="86.39 6.26 90.3 7.82 86.63 10.01 90.37 12.06 83.56 15.14 92.17 18.26 88.02 20.37 90.75 22.78 86.95 24.52 90.17 26.21 96.04 24.21 92.8 20.6 97.68 18.06 92.2 14.82 98.74 12.5 91.27 9.21 94.47 6.55 89.11 5.07 86.39 6.26"/>
  <path d="M71.92,6.99v.08s-10.56,2.84-10.56,2.84l-1.24-.84c-.51-.35-1.11-.52-1.72-.5l-3.79.14v.16s-11.92.25-11.92.25l-.53-1.88c-.16-.56-.28-.96-.39-1.29-.1-.3-.17-.53-.24-.79l1.48.42c1.59.45,3.25.6,4.9.42l5.97-.65c.79-.09,1.57-.13,2.37-.14l5.01-.04c.82,0,1.63.01,2.45.07l7.16.51c.63.04,1.11.59,1.05,1.23Z"/>
  <path d="M98.86,5.07c-.56.15-1.12-.12-1.5-.62l-34.3,8.82c-.03-.43-.08-.86-.13-1.28,0-.06-.01-.13-.04-.19L96.97,2.65c.13-.63.53-1.14,1.08-1.28.82-.21,1.66.45,1.89,1.47.22,1.02-.26,2.02-1.08,2.23Z"/>
  <path d="M54.75,20.13l-10.93-.23c-.28-2.85-.28-5.71,0-8.56l10.93-.23c-.2,3-.2,6.03,0,9.02Z"/>
  <path d="M58.47,10.8l-1.77.06c-.2,3.17-.2,6.34,0,9.51l1.77.06c.14,0,.28-.03.4-.11l1.28-.86c.16-.11.27-.29.29-.49.25-2.24.25-4.47,0-6.71-.02-.2-.13-.37-.29-.49l-1.28-.86c-.12-.08-.26-.12-.4-.11Z"/>
  <path d="M40.22,11.25l1.58.06c-.58,2.88-.58,5.76,0,8.63l-1.58.06c-.14,0-.28-.03-.4-.11l-1.19-.81c-.12-.08-.21-.2-.26-.34-.74-2.08-.74-4.15,0-6.23.05-.14.14-.26.26-.34l1.19-.81c.12-.08.26-.12.4-.11Z"/>
  <path d="M99.95,28.4c-.23,1.02-1.08,1.68-1.89,1.46-.56-.14-.95-.65-1.08-1.28l-34.07-9.14c.01-.06.02-.13.03-.19.05-.43.1-.85.13-1.28l34.3,8.81c.38-.5.94-.76,1.5-.62.82.22,1.31,1.21,1.08,2.23Z"/>
  <path class="cls-1" d="M21.72,23.86l-6.23.48c-1.75.13-3.5-.14-5.14-.79l-6.35-2.49V1.33l6.65,2.42c1.05.39,2.16.62,3.28.68l8.34.57c-2.34,7.64-1.26,15.39-.56,18.86Z"/>
  <path d="M58.17,28.44l-.72,2.44c-.2.7-.86,1.17-1.59,1.12-1.72-.13-3.34-.6-4.86-1.43-.64-.35-.94-1.11-.74-1.8l.31-1.07c1.02.27,2.08.43,3.14.49l4.45.25Z"/>
  <path d="M41.43,9.06l-1.14-.04h-.13c-.57,0-1.12.17-1.59.5l-.73.49c-.13-.48-.25-.88-.35-1.23-.6-2.1-.72-3.05-.97-5.67-.07-.76.61-1.38,1.36-1.24l1.24.25c.49.1.86.5.91,1,.3,2.77.45,2.58,1.03,4.63.1.37.22.79.36,1.3Z"/>
  <path d="M39.86,22.2c-.68,1.29-.85,1.42-1.54,3.76-.15.48-.59.81-1.09.81h-1.25c-.76.01-1.32-.72-1.11-1.46.69-2.37.99-3.32,1.83-5.05.19.25.42.48.69.65l1.19.8c.39.26.82.42,1.29.48Z"/>
  <path d="M65.47,3.23l-.06.19-1.51-.11c-.85-.06-1.76-.09-2.67-.08l-5.02.03c-.92.01-1.79.06-2.64.16l-1.98.22c2.55-1.69,5.4-1.89,6.51-1.91l.18-.6c.21-.69.87-1.17,1.6-1.12,1.72.12,3.34.6,4.86,1.42.64.35.94,1.1.74,1.8Z"/>
</svg>