<?xml version="1.0" encoding="UTF-8"?>
<svg id="Layer_1" data-name="Layer 1" class="color" xmlns="http://www.w3.org/2000/svg" viewBox="0 0 100 32">
  <defs>
    <style>
      .cls-1 {
        opacity: .5;
      }
    </style>
  </defs>
  <g>
    <path d="M30.21,18.19l.1-1.04c.02-.16-.1-.31-.27-.32L1.31,14.53c-.18,0-.36.06-.47.21-.74,1.05-.94,2.4-.78,3.95.03.26.27.47.53.46l28.42.11c.62,0,1.13-.46,1.19-1.09h0ZM1.15,16.85c0-.78.64-1.41,1.42-1.4.78,0,1.41.64,1.4,1.42s-.64,1.41-1.42,1.4-1.41-.64-1.4-1.42Z"/>
    <path d="M29.01,20.14l-28.42-.11c-.26,0-.49.21-.53.46-.18,1.56.01,2.92.74,3.95.11.15.29.22.47.21l28.74-2.07c.17,0,.29-.16.27-.32l-.09-1.04c-.06-.61-.56-1.09-1.19-1.09ZM2.55,20.95c.78,0,1.41.64,1.4,1.42s-.64,1.41-1.42,1.4-1.41-.64-1.4-1.42.64-1.41,1.42-1.4Z"/>
    <path d="M50.8,23.04l-18.38-1.24-.09-.77c-.05-.48-.24-.93-.52-1.33.28-.4.47-.84.54-1.32l.04-.39,22.3-1.64c3.22,1.45,7.05,2.6,11.35,3.5-2.05,2.95-7.39,3.85-15.25,3.18h.01Z"/>
  </g>
  <path class="cls-1" d="M100,22.04l-7.81,6.17-.28-4.16-6.7-.04-1.39-16.63-2.96.41-1.61,24.21-7.68-.38-5.27-21.48-4.24,5.9c-2.34-.66-4.44-1.4-6.26-2.23l-.64-.29-2.1.16L67.85,0l5.99,27.23,2.31-.38,1.07-24.85,10.03-2.01-.83,19,5.97-.13.32-4.01,7.3,7.19Z"/>
</svg>