<?xml version="1.0" encoding="UTF-8"?>
<svg id="Layer_1" data-name="Layer 1" class="color" xmlns="http://www.w3.org/2000/svg" viewBox="0 0 60 32">
  <defs>
    <style>
      .cls-1 {
        opacity: .5;
      }
    </style>
  </defs>
  <g>
    <g>
      <path d="M24.75,9.87s-.03,0-.04,0c-.89.1-1.83.24-2.79.43-.09.02-.17.07-.22.14-.61.94-1.09,1.94-1.42,2.97-.03.09,0,.19.06.27.06.07.16.11.27.11,0,0,.01,0,.02,0,1.24-.05,2.5-.09,3.75-.11.18,0,.32-.12.33-.28.09-1.08.22-2.15.39-3.21.01-.09-.02-.19-.09-.25-.06-.06-.15-.09-.24-.09Z"/>
      <path d="M26.34,13.66s0,0,0,0c.8,0,1.59,0,2.39,0,1,0,1.99,0,2.93.02,0,0,0,0,0,0,.09,0,.18-.03.25-.09.07-.06.1-.14.09-.23-.08-1.11-.21-2.24-.38-3.35-.02-.14-.15-.25-.32-.26-.83-.05-1.68-.07-2.51-.07-.7,0-1.41.02-2.1.05-.16,0-.3.12-.32.26-.17,1.16-.3,2.29-.38,3.37,0,.08.03.17.09.23.06.06.15.09.25.09Z"/>
      <path d="M33.64,13.7c1.01.02,2.12.05,3.39.1,0,0,0,0,.01,0,.1,0,.2-.04.27-.11.07-.08.09-.17.06-.27-.33-1.03-.8-2.03-1.41-2.97-.05-.07-.13-.13-.22-.14-.79-.16-1.61-.3-2.43-.4-.02,0-.03,0-.05,0-.09,0-.18.03-.24.09-.08.07-.11.16-.1.25.16,1.02.28,2.06.38,3.18.01.15.16.27.33.28Z"/>
      <path d="M24.33,20.86c-1.14-.01-2.39-.03-3.8-.06,0,0,0,0,0,0-.1,0-.2.04-.26.11-.07.07-.09.16-.07.25.26,1.02.62,2.1,1.07,3.19.04.11.15.18.28.19,1.04.11,2.1.19,3.14.24,0,0,.01,0,.02,0,.09,0,.18-.03.25-.1.07-.07.1-.15.09-.24-.16-1.09-.29-2.2-.38-3.32-.01-.16-.16-.28-.34-.28Z"/>
      <path d="M31.7,20.88s0,0,0,0c-.99,0-1.98,0-2.97,0-.81,0-1.62,0-2.42,0,0,0,0,0,0,0-.09,0-.18.03-.25.09-.06.06-.1.14-.09.22.08,1.18.2,2.32.36,3.42.02.15.16.26.33.26.7.01,1.41.02,2.11.02.86,0,1.73-.01,2.59-.03.17,0,.31-.12.33-.26.15-1.09.27-2.24.36-3.41,0-.08-.03-.16-.09-.22-.06-.06-.15-.09-.25-.09Z"/>
      <path d="M37.14,20.81s0,0,0,0c-1.03.02-2.16.04-3.45.05-.18,0-.32.12-.34.28-.08,1.09-.21,2.2-.37,3.3-.01.09.02.18.09.24.06.06.15.09.25.09,0,0,.01,0,.02,0,.92-.05,1.85-.13,2.79-.22.13-.01.24-.09.28-.2.45-1.1.81-2.17,1.07-3.19.02-.09,0-.18-.07-.25-.06-.07-.16-.11-.26-.11Z"/>
      <path d="M24.21,19.55c.09,0,.18-.03.24-.09.07-.06.1-.14.1-.22-.05-1.29-.04-2.59.01-3.85,0-.08-.03-.16-.1-.22-.06-.06-.15-.09-.24-.09,0,0,0,0,0,0-1.28.02-2.61.05-4.08.09-.17,0-.31.12-.33.26-.17,1.2-.18,2.48,0,3.8.02.15.16.26.33.27,1.52.03,2.85.04,4.06.06h0Z"/>
      <path d="M31.79,15.06c-1.02,0-2.05,0-3.07,0-.84,0-1.67,0-2.51,0-.18,0-.33.13-.34.29-.05,1.3-.06,2.62-.01,3.92,0,.16.16.29.34.29.77,0,1.55,0,2.32,0,1.09,0,2.19,0,3.28,0,.18,0,.33-.13.34-.29.05-1.3.04-2.62-.01-3.92,0-.16-.16-.29-.34-.29Z"/>
      <path d="M37.84,15.43c-.02-.15-.16-.26-.33-.26-1.24-.04-2.49-.06-3.72-.08,0,0,0,0,0,0-.09,0-.18.03-.24.09-.07.06-.1.14-.1.22.06,1.26.06,2.55.01,3.84,0,.08.03.16.1.22.06.06.15.09.24.09,0,0,0,0,0,0,1.39-.01,2.6-.03,3.71-.05.17,0,.31-.12.33-.27.17-1.32.17-2.6,0-3.8Z"/>
    </g>
    <path d="M33.06,29.69c-2.76.87-5.53.87-8.29,0-.21-.07-.39-.23-.49-.45l-1.43-3.09c4.04.5,8.09.5,12.13,0l-1.43,3.09c-.1.22-.28.39-.49.45Z"/>
    <path d="M34.95,8.84c-3.3-.56-6.52-.66-9.54-.44l-.11-4.26,4.34,2.19c1.48.74,3.05,1.26,4.68,1.55.22.31.44.62.64.95Z"/>
    <path d="M24.14.45L34.55,0c.88-.04,1.7.48,2.04,1.3,1.61,3.87,5.97,15.02,5.5,21.15-.02.26-.22.47-.47.52l-.91.18c-.36.07-.7-.21-.7-.58-.02-6.5-1.43-12.04-4.74-16.26l-.13-.02c-1.65-.24-3.24-.74-4.73-1.48l-6.25-3.16V.45Z"/>
  </g>
  <path class="cls-1" d="M43.85,28.13c.83-2.84,1.22-6.15,1.02-9.66-.28-4.7-1.56-8.91-3.45-12L58.48.28l-7.49,6.09,8.14,2.6-9.84,8.51,7.02,3.25-7.48.83,11.17,10.46-16.15-3.87Z"/>
  <path class="cls-1" d="M16.25,18.11c0,3.76.89,7.2,2.37,9.89L0,31.17l13.12-11.05-11.55-3.99,11.06-2.51L.65,1.87l18.99,4.73c-2.08,2.84-3.39,6.95-3.39,11.51Z"/>
</svg>