<?xml version="1.0" encoding="UTF-8"?>
<svg id="Layer_1" data-name="Layer 1" class="color" xmlns="http://www.w3.org/2000/svg" xmlns:xlink="http://www.w3.org/1999/xlink" viewBox="0 0 93 32">
  <defs>
    <style>
      .cls-1 {
        fill: url(#linear-gradient-2);
      }

      .cls-2 {
        fill: url(#linear-gradient-3);
      }

      .cls-2, .cls-3, .cls-4, .cls-5 {
        opacity: .5;
      }

      .cls-3 {
        fill: url(#linear-gradient-4);
      }

      .cls-4 {
        fill: url(#linear-gradient-6);
      }

      .cls-5 {
        fill: url(#linear-gradient-5);
      }

      .cls-6 {
        fill: #e17800;
      }

      .cls-7 {
        fill: url(#linear-gradient);
      }
    </style>
    <linearGradient id="linear-gradient" x1="4" y1="7.55" x2="35.15" y2="7.55" gradientUnits="userSpaceOnUse">
      <stop offset="0" stop-color="#000" stop-opacity="0"/>
      <stop offset=".5" stop-color="#000"/>
      <stop offset="1" stop-color="#000"/>
    </linearGradient>
    <linearGradient id="linear-gradient-2" y1="24.45" y2="24.45" xlink:href="#linear-gradient"/>
    <linearGradient id="linear-gradient-3" x1="37.12" y1="3.93" x2="66.06" y2="3.93" gradientUnits="userSpaceOnUse">
      <stop offset="0" stop-color="#e17800" stop-opacity="0"/>
      <stop offset=".05" stop-color="#e17800" stop-opacity=".23"/>
      <stop offset=".11" stop-color="#e17800" stop-opacity=".44"/>
      <stop offset=".16" stop-color="#e17800" stop-opacity=".61"/>
      <stop offset=".22" stop-color="#e17800" stop-opacity=".75"/>
      <stop offset=".28" stop-color="#e17800" stop-opacity=".86"/>
      <stop offset=".34" stop-color="#e17800" stop-opacity=".94"/>
      <stop offset=".41" stop-color="#e17800" stop-opacity=".99"/>
      <stop offset=".49" stop-color="#e17800"/>
      <stop offset=".66" stop-color="#e17800" stop-opacity=".99"/>
      <stop offset=".73" stop-color="#e17800" stop-opacity=".96"/>
      <stop offset=".78" stop-color="#e17800" stop-opacity=".9"/>
      <stop offset=".83" stop-color="#e17800" stop-opacity=".82"/>
      <stop offset=".87" stop-color="#e17800" stop-opacity=".72"/>
      <stop offset=".9" stop-color="#e17800" stop-opacity=".6"/>
      <stop offset=".93" stop-color="#e17800" stop-opacity=".44"/>
      <stop offset=".96" stop-color="#e17800" stop-opacity=".27"/>
      <stop offset=".99" stop-color="#e17800" stop-opacity=".08"/>
      <stop offset="1" stop-color="#e17800" stop-opacity="0"/>
    </linearGradient>
    <linearGradient id="linear-gradient-4" x1="42.2" y1="11.93" x2="60.98" y2="11.93" xlink:href="#linear-gradient-3"/>
    <linearGradient id="linear-gradient-5" x1="45.96" y1="19.93" x2="57.21" y2="19.93" xlink:href="#linear-gradient-3"/>
    <linearGradient id="linear-gradient-6" y1="27.93" y2="27.93" xlink:href="#linear-gradient-3"/>
  </defs>
  <path class="cls-7" d="M35.15,8.18c0,.28-.11.55-.31.76l-2.98,3.11-2.31,2.03c-.5.44-1.07.79-1.68,1.03H4V5.84l10.72,1.89c1.45.25,2.93.31,4.4.15l.22-.03c.5-.05.98-.18,1.43-.39.67-.31,1.27-.73,1.8-1.24l2.6-2.55c.36-.35.66-.76.88-1.21l.18-.36c.17-.33.51-.53.89-.51l1.44.07c.62.05,1.23.21,1.79.48l.59.29c.16.08.28.24.32.42l.08.41c.05.24.02.5-.09.73l-.23.49c-.11.25-.19.5-.22.77v.1c-.05.26-.24.45-.5.48l-.46.05c-.23.03-.46-.08-.57-.28-.17-.29-.26-.62-.26-.96,0-.05,0-.11,0-.16l.06-.71h-.2c-.2,0-.4-.05-.58-.13l-.12-.06-.07.19c-.25.73-.64,1.4-1.15,1.98l-1.06,1.22.46.87c.26.49.45,1.01.56,1.56l.16.78.2-1.09c.11-.6.19-1.2-.03-1.77l-.18-.51c.63-.34,1.03-1.14,1.26-1.82l.1.02.21.6c.2.59.79.95,1.4.85l.28-.04c.59-.09,1.06-.55,1.16-1.13l.08-.44.21-.63c.06-.13.11-.27.14-.41h0c.07-.33.09-.66.04-.98l-.04-.25c-.05-.34-.28-.63-.61-.75l-.63-.25c-.69-.27-1.43-.43-2.17-.47l-.86-.03.25-.66c.12-.29.43-.47.74-.41l3.89.64c.37.06.65.39.64.77l-.05,2.96c0,.26-.16.48-.4.57l-.49.19-.27,1.02c-.05.21-.23.37-.44.4l-.47.07c-.3.05-.6.03-.89-.03l-.28-.06-.11.66c-.06.34.02.69.2.97-.59.41-.95,1.09-.95,1.83v.41l.21-.39c.05-.09.11-.18.17-.27.28-.38.67-.7,1.06-.95l.38-.26.08-.05,2.02-1.62c.31-.25.73-.28,1.07-.09l.48.27c.38.21.63.6.67,1.02,0,.04,0,.07,0,.1Z"/>
  <path class="cls-1" d="M35.15,23.82s0,.07,0,.1c-.04.43-.29.81-.67,1.02l-.48.27c-.34.19-.76.16-1.07-.09l-2.02-1.62-.08-.05-.38-.26c-.4-.25-.78-.57-1.06-.95-.06-.09-.11-.18-.17-.27l-.21-.39v.41c0,.74.36,1.42.95,1.84-.18.28-.26.63-.2.97l.11.67.28-.06c.29-.06.59-.08.89-.03l.47.07c.21.03.39.19.44.4l.27,1.02.49.19c.24.09.4.31.4.57l.05,2.96c0,.38-.27.71-.64.77l-3.89.64c-.31.05-.63-.12-.74-.42l-.25-.66.86-.03c.74-.04,1.48-.2,2.17-.47l.63-.24c.32-.13.55-.41.61-.76l.04-.25c.05-.32.03-.65-.04-.97h0c-.03-.15-.08-.29-.14-.42l-.21-.63-.08-.44c-.1-.59-.57-1.04-1.16-1.13l-.28-.04c-.62-.09-1.2.27-1.4.85l-.21.6-.1.02c-.23-.68-.63-1.47-1.26-1.81l.18-.51c.22-.57.14-1.17.03-1.77l-.2-1.09-.16.78c-.11.54-.3,1.06-.56,1.56l-.46.87,1.06,1.22c.5.58.89,1.25,1.15,1.98l.07.19.12-.06c.19-.09.38-.13.58-.13h.2l-.06-.71c0-.05,0-.11,0-.16,0-.33.09-.67.26-.96.12-.2.34-.31.57-.28l.46.05c.25.03.45.23.49.48v.11c.04.27.12.53.23.77l.23.5c.11.23.14.48.09.73l-.08.4c-.04.18-.16.34-.32.42l-.59.29c-.56.28-1.17.44-1.79.48l-1.44.07c-.37.02-.72-.19-.89-.52l-.18-.36c-.23-.45-.52-.86-.88-1.21l-2.6-2.55c-.52-.51-1.13-.93-1.8-1.24-.45-.21-.93-.34-1.43-.4l-.22-.02c-1.47-.16-2.94-.11-4.4.15l-10.72,1.89v-9.25h23.9c.6.24,1.16.59,1.65,1.02l2.31,2.02,2.98,3.12c.2.21.31.48.31.76Z"/>
  <g>
    <path class="cls-6" d="M75.98,7.3c-5.17,0-9.35,4.19-9.35,9.35s4.19,9.35,9.35,9.35,9.35-4.19,9.35-9.35-4.19-9.35-9.35-9.35ZM76.96,21.26c-3.22,0-5.82-2.61-5.82-5.82s2.61-5.82,5.82-5.82,5.82,2.61,5.82,5.82-2.61,5.82-5.82,5.82Z"/>
    <path class="cls-6" d="M77.65,31.36l-.77-1.1c4.96-3.62,11.07-7.21,9.98-15.22-1.15-8.43-11.03-11.58-16.32-13.38l.33-1.18c3.69,1.28,16.49,4.6,17.96,14.23,1.04,6.79-2.96,11.21-11.18,16.65Z"/>
  </g>
  <rect class="cls-2" x="37.12" y="3.08" width="28.94" height="1.71"/>
  <rect class="cls-3" x="42.2" y="11.08" width="18.78" height="1.71"/>
  <rect class="cls-5" x="45.96" y="19.08" width="11.25" height="1.71"/>
  <rect class="cls-4" x="37.12" y="27.08" width="28.94" height="1.71"/>
</svg>