<?xml version="1.0" encoding="UTF-8"?>
<svg id="Layer_1" data-name="Layer 1" class="color" xmlns="http://www.w3.org/2000/svg" xmlns:xlink="http://www.w3.org/1999/xlink" viewBox="0 0 135 32">
  <defs>
    <style>
      .cls-1 {
        fill: url(#linear-gradient);
      }

      .cls-2 {
        opacity: .5;
      }
    </style>
    <linearGradient id="linear-gradient" x1="4" y1="19.45" x2="22.56" y2="19.45" gradientUnits="userSpaceOnUse">
      <stop offset="0" stop-color="#000" stop-opacity="0"/>
      <stop offset=".7" stop-color="#000"/>
    </linearGradient>
  </defs>
  <path d="M88.59,13.18l-1.28.31c-.09.52-.33,1.01-.69,1.41-.17.19-.41.29-.66.29l-2.48-.14c.28-2.44.24-5.07-.03-7.84l2.48-.16c.25,0,.49.1.66.29.37.4.61.89.7,1.41l1.28.3c.37.09.64.42.64.81v2.53c0,.38-.25.72-.63.81Z"/>
  <path d="M111.58,10l-21.01-.1v2.4s26.23-.32,26.23-.32c.21,0,.27-.29.08-.38l-2.04-.91c-1.03-.46-2.14-.69-3.26-.7Z"/>
  <path d="M81.48,7.62l-9.95.45v-.14c0-.3-.24-.45-.54-.47l-1.72-.02c-.4,0-.73-.27-.83-.66l-.1-.45c-.38-1.95-2.1-3.45-4.17-3.45-.23,0-.48.02-.72.06-.87.14-1.64.55-2.25,1.14l.89.13c.42.06.8.21,1.15.43.28-.1.6-.17.92-.17,1.46-.01,2.67,1.18,2.67,2.64.01,1.39-1.05,2.53-2.39,2.65-.2,1.15-1.1,2.05-2.28,2.24l-.14.02c.24.22.42.48.55.76.09-.01.19-.01.28-.01,1.63-.01,2.97,1.32,2.97,2.95.01,1.64-1.32,2.97-2.95,2.98-.41,0-.78-.07-1.14-.22-.33.4-.79.68-1.31.8l-.06.26c.48.32,1.03.55,1.63.66,2.87.53,5.38-1.65,5.41-4.42v-.16c.03-.47.43-.84.9-.82l2.7.1c.3.02.55-.22.55-.52v-.15l9.95.39c.21-2.15.17-4.53-.02-7.02ZM79.85,11.46c.01.88-.72,1.16-1.6,1.14h-.77v-1.43c0-.25-.2-.45-.44-.45h-.23c-.24.01-.44.21-.44.45v1.41l-1.52-.03v-1.38c-.01-.24-.21-.44-.45-.44h-.22c-.25,0-.45.2-.45.45v1.36s-2.19-.03-2.19-.03v-2.67l6.7-.15c.88-.02,1.61.26,1.61,1.14v.63Z"/>
  <path d="M61.21,14.01c.07-.37-.09-.75-.41-.94l-3.2-1.91,4.3-.69c.58-.09,1-.59,1-1.18v-2.34c0-.6-.44-1.1-1.03-1.18l-4.9-.68c-1.76-.24-3.54-.31-5.31-.19l-9.19.6c-.75.05-1.49.14-2.23.29l-1.41.27c-.85.17-1.71.27-2.58.31l-4.12.27c-1.56.07-2.1.28-3.62.63l-6.6,1.53c-.55.13-.97.56-1.08,1.12-.57,2.92-1.84,12.22,3.72,18.12.39.41,1,.52,1.52.31l8.62-3.39c1.19-.35,2.44-.46,3.66-.3l4.9.62c1.01.13,2.02.22,3.04.27l2.05.11c1.39.07,2.79.01,4.16-.19l.94-.14c.53-.08.99-.43,1.2-.93l1.19-2.85,1.45.26c.53.1,1.03-.24,1.15-.77l.71-3.33.59.08c.48.06.92-.27.99-.75l.47-3.03Z"/>
  <path class="cls-1" d="M22.56,28.12l-1.63.37c-3.14.71-6.37.82-9.53.31l-7.4-1.16V9.79l2.51,1.12c1.88.83,3.97,1.08,6,.71l6.65-1.22c-.61,3.6-1.31,11.79,3.41,17.73Z"/>
  <path class="cls-2" d="M119.89,14.92l1.06,8.35-9.14-6.39-5.09,3.98,3.31-7.18c1.66,1.04,6.96,3.26,6.96,3.26l-.36-2.67,4.87-3.36-4.87-1.88,1.29-2.06-5.16.8.86-2.51L122.84.4l-2.59,6.83,10.75,4.18-11.11,3.51Z"/>
</svg>