<?xml version="1.0" encoding="UTF-8"?>
<svg id="Layer_1" data-name="Layer 1" class="color" xmlns="http://www.w3.org/2000/svg" xmlns:xlink="http://www.w3.org/1999/xlink" viewBox="0 0 103 32">
  <defs>
    <style>
      .cls-1 {
        fill: url(#linear-gradient);
      }

      .cls-2 {
        opacity: .5;
      }
    </style>
    <linearGradient id="linear-gradient" x1="25.14" y1="10.64" x2="25.14" y2="0" gradientUnits="userSpaceOnUse">
      <stop offset=".5" stop-color="#000"/>
      <stop offset="1" stop-color="#000" stop-opacity="0"/>
    </linearGradient>
  </defs>
  <g>
    <g>
      <path d="M17.63,17.86c-3.91-.08-7.67-.19-11.26-.34l-3.08-4.45c4.14.89,8.2,1.39,12.15,1.41l2.19,3.37Z"/>
      <path d="M17.53,23.52l-1.9,3.01c-1.67.03-3.35.14-5.05.34l-.62-2.62-2.34,3.03c-1.37.22-2.74.49-4.13.8l3.28-4.88c3.44.14,7.03.24,10.75.33Z"/>
      <path d="M4.66,18.99c-.12.82-.13,1.69-.03,2.58-1.45-.07-2.88-.14-4.28-.21-.45-.87-.47-1.73-.01-2.57,1.41.07,2.86.14,4.33.2Z"/>
      <path d="M17.8,19.4c-.05.87-.05,1.73,0,2.6-4.04-.09-7.92-.21-11.65-.36-.09-.87-.08-1.73.02-2.58,3.72.15,7.6.26,11.63.35Z"/>
      <path d="M22.8,19.48l1.04,2.62c-1.53-.01-3.03-.04-4.51-.07-.05-.86-.04-1.73,0-2.6,1.15.02,2.31.04,3.48.05Z"/>
      <path d="M63.19,21.72c-6.07.17-11.91.29-17.53.36l-.66-2.6c5.84-.07,11.92-.19,18.24-.35l-.05,2.59Z"/>
      <path d="M85.69,20.1l-13.53,5.15c-.31-1.34-.89-2.59-1.76-3.74-.63.02-1.24.04-1.86.06l.12-2.59c.55-.02,1.1-.03,1.65-.05.88-1.16,1.48-2.44,1.79-3.82l13.59,4.99Z"/>
      <path d="M65.12,23.89h1.4c.41-.01.74-.33.76-.74l.27-5.82c.02-.44-.33-.8-.77-.8h-1.55c-.41.01-.75.34-.76.76l-.12,5.82c0,.43.34.78.77.78Z"/>
    </g>
    <path d="M35.85,14.19c.16.42.01,1.33-.96,2.53-1.27,1.57-3.57,3.06-5.5,2.86-.68-.07-1.33-.37-1.77-.82-.37-.37-.57-.81-.57-1.25,0-.82.74-1.81,1.96-2.65,1.71-1.16,4.02-1.78,5.5-1.47.12.02,1.13.26,1.35.79Z"/>
    <path d="M42.94,17.75l2.92-.11v-.03c-.43-1.24-1.31-2.28-2.47-2.92l-5.86-3.2-.36-4.11c-.06-.67-.68-1.15-1.34-1.03-5.28.9-10.11,3.15-14.44,6.87-.5.43-.55,1.2-.08,1.68l2.34,2.41,4.29,10.88c7.29.3,13.04-.47,17.04-2.44l-2.04-8.02ZM35.64,17.39c-1.43,1.85-4,3.82-6.29,3.77-.65-.01-1.28-.19-1.82-.51-.3-.18-.56-.4-.79-.65-.59-.65-.87-1.48-.79-2.34.05-.55.25-1.11.58-1.67.43-.72,1.08-1.43,1.92-2.1,1.62-1.28,4.13-2.44,6.09-2.15.46.07,2,.4,2.39,1.77.4,1.39-.64,3.03-1.29,3.88Z"/>
    <path d="M30.69,31.79h-.38c-.5-.02-.95-.31-1.17-.76l-.58-1.23c1.26.04,2.47.05,3.62.02l-.17.89c-.12.63-.68,1.08-1.32,1.07Z"/>
    <path d="M45.33,31.33l-1.15.47c-.66.27-1.42-.04-1.71-.69l-1.05-2.4c1.45-.37,2.77-.84,3.96-1.4l.71,2.43c.19.65-.14,1.34-.77,1.59Z"/>
    <path d="M39.57,31.89l-.34.08c-.62.14-1.25-.18-1.5-.76l-.74-1.69c1.25-.15,2.43-.34,3.53-.59l.07,1.61c.03.64-.4,1.21-1.02,1.35Z"/>
    <path d="M35.05,31.83l-.54.03c-.73.03-1.36-.54-1.39-1.27l-.03-.79c1.11-.04,2.17-.11,3.19-.21l.03.89c.02.72-.54,1.32-1.25,1.36Z"/>
    <path class="cls-1" d="M33.52,5.23c-4.12.99-7.95,2.8-11.42,5.41L16.75,0h16.37l.4,5.23Z"/>
  </g>
  <polygon class="cls-2" points="91.41 25.6 96.25 30.71 85.79 27.93 87.95 25.96 86.22 23.78 91.81 23.12 87.28 19.59 90.21 16.9 84.97 14.03 92.21 8.46 89.41 13.44 102.02 12.59 91.81 19.87 103 26.53 91.41 25.6"/>
</svg>