<?xml version="1.0" encoding="UTF-8"?>
<svg id="Layer_1" data-name="Layer 1" class="color" xmlns="http://www.w3.org/2000/svg" xmlns:xlink="http://www.w3.org/1999/xlink" viewBox="0 0 68 32">
  <defs>
    <style>
      .cls-1 {
        fill: url(#linear-gradient);
      }

      .cls-2 {
        opacity: .5;
      }
    </style>
    <linearGradient id="linear-gradient" x1="0" y1="23.23" x2="18.6" y2="23.23" gradientUnits="userSpaceOnUse">
      <stop offset=".1" stop-color="#231f20" stop-opacity="0"/>
      <stop offset=".5" stop-color="#000"/>
    </linearGradient>
  </defs>
  <path d="M26.91,14.9l.77-.32c.92-.39,1.92.34,2.07,1.51l.8,6.32c.15,1.15-.6,2.17-1.56,2.13l-.94-.04c-.77-.03-1.42-.74-1.51-1.66l-.62-5.96c-.09-.87.33-1.69,1.01-1.98Z"/>
  <path class="cls-1" d="M18.6,19.91c0,3.78-.38,7.29-1.04,10.15-2.79,1.01-5.89,1.5-8.75,1.73-3.85.32-7.24.17-8.81.21V14.47c2.01-.09,4.78.45,7.54.71,1.07.1,2.14.16,3.17.12,3.88-.14,5.97-.25,7.66-.4.15,1.59.23,3.27.23,5.01Z"/>
  <path d="M53.48,10.91v1.32l-11.58.57h-.09s-.32-3.39-.32-3.39c0-.11-.02-.22-.04-.34l6.43.25c1.04.05,2.08.13,3.11.27l1.74.23c.41.06.73.53.73,1.08Z"/>
  <path d="M54.97,15.77c.06.48-.25.91-.71,1l-1.91.39c-1.13.24-2.27.42-3.42.57l-6.08.79c.05-.27.05-.54,0-.82l-.55-3.06c-.04-.23-.12-.45-.23-.65-.02-.05-.06-.1-.09-.14l10.73-.46h.03s1.09-.05,1.09-.05c.49-.01.9.36.96.85l.18,1.58Z"/>
  <path d="M33.62,5.93v.11c-.28-.08-.57-.14-.85-.15l-3.62-.27h-.07c.07-.77.04-1.55-.08-2.33l-.34-2.05c-.06-.4.15-.8.52-.96l.28-.12c.92-.4,1.98-.03,2.46.84l1.14,2.06c.48.87.68,1.87.57,2.86Z"/>
  <path d="M40.86,19.77l-1.42-.26,1.21-.47c.45-.17.71-.64.63-1.11l-.55-3.29c-.06-.37-.36-.65-.73-.69l-1.61-.19,1.32-.24c.37-.19.59-.58.54-1l-.34-2.99c-.05-.51-.47-.91-.99-.92l-3.29-.06c-.39,0-.78-.11-1.12-.3l-.85-.47c-.32-.17-.66-.28-1.01-.3l-3.61-.27c-.39-.02-.76.16-.98.49l-.37.57c-1.38,1.63-2.59,2.58-4.27,3.82l-1.87,1.49h0c0-.43-.39-.74-.79-.65-.22.05-.44.1-.66.15-.32.07-.53.36-.51.68.36,5.14.43,10.3.21,15.45-.01.32.2.6.52.67s.64.13.96.2c.4.09.78-.22.79-.63,0-.35,0-.43,0-.78.15.12.33.2.53.2l1.83-.09c.77-.04,1.4-.09,2.24-.02.23.02.47.06.69.12l.76.2c1.38.38,2.82.51,4.26.41l5.93-.38c.48-.03.87-.39.94-.86l.34-2.23c.08-.53-.25-1.03-.77-1.15l-.46-.12,2.2-.7c.39-.13.67-.49.7-.91l.17-2.37c.02-.42-.21-.81-.59-.99ZM29.2,26.08l-1.5-.1c-1.22-.07-2.21-1.03-2.3-2.26l-.64-7.86c-.1-1.14.62-2.19,1.71-2.54l1.24-.39c1.48-.47,3.02.54,3.18,2.08l.9,8.35c.17,1.51-1.07,2.81-2.59,2.72Z"/>
  <path class="cls-2" d="M56.76,2.1c-4.29,0-8.02,2.4-9.92,5.94l1.08.04c1.13.05,2.18.14,3.23.28l.12.02c.98-.7,2.18-1.1,3.46-1.1,3.35,0,6.07,2.72,6.07,6.07s-2.72,6.06-6.07,6.06c-1.12,0-2.17-.31-3.07-.84-.82.15-1.68.28-2.59.4l-1.91.25c1.98,3.22,5.54,5.37,9.6,5.37,6.21,0,11.24-5.03,11.24-11.24s-5.03-11.25-11.24-11.25Z"/>
</svg>