<?xml version="1.0" encoding="UTF-8"?>
<svg id="Layer_1" data-name="Layer 1" class="color" xmlns="http://www.w3.org/2000/svg" xmlns:xlink="http://www.w3.org/1999/xlink" viewBox="0 0 69 32">
  <defs>
    <style>
      .cls-1 {
        fill: url(#linear-gradient);
      }
    </style>
    <linearGradient id="linear-gradient" x1="34.5" y1="0" x2="34.5" y2="29.3" gradientUnits="userSpaceOnUse">
      <stop offset="0" stop-color="#000" stop-opacity="0"/>
      <stop offset=".7" stop-color="#000"/>
    </linearGradient>
  </defs>
  <path d="M25.74,4.2c-2.89,0-5.23,2.34-5.23,5.23s2.34,5.23,5.23,5.23,5.23-2.35,5.23-5.23-2.34-5.23-5.23-5.23ZM25.85,13.19c-1.85,0-3.35-1.48-3.35-3.3,2.23-.24,4.46-.24,6.69,0,0,1.83-1.49,3.3-3.35,3.3Z"/>
  <path d="M42.63,3.68c-1.36-.07-2.55.93-2.88,2.25l-1.52,6.21-5.22,2.38c-1.75.8-3.64,1.27-5.56,1.39-1.1.07-2.21.14-3.31.21-1.89.11-3.78,0-5.65-.31l-3-.5.58-4.62c.17-1.35-.57-2.7-1.86-3.13-1.73-.58-3.5.58-3.72,2.32l-1.05,8.4c-.12.95.53,1.83,1.48,1.99l8.21,1.92c-.02,3.28-.29,6.57-.81,9.83h16.84c-.12-3.68-.56-7.39-1.31-11.08l8.56-4.64c.44-.24.77-.66.89-1.15l1.95-7.96c.41-1.69-.79-3.4-2.62-3.49Z"/>
  <path d="M50.26,14.87c.41-.18.82-.29,1.21-.33.18-.57.22-1.15.16-1.72-.5.26-1.26.28-1.98-.03-.25-.1-.46-.24-.65-.39l-1.71,1.07c.24.07.46.2.65.4.56.57.62,1.42.12,1.9s-1.35.41-1.9-.16c-.15-.15-.26-.32-.33-.5-.2.18-.41.35-.66.51-.48.3-.97.48-1.38.53.15.25.32.49.53.7,1,1.02,2.48,1.32,3.88.91-.32-.97.61-2.27,2.06-2.9Z"/>
  <path d="M63.7,23.5c-.63-.68-2.11-.62-3.49.18-1.48.84-2.28,2.2-1.86,3.08-.67.35-1.42.49-2.18.41h-.12c.08-.12.13-.25.13-.37,0-.55-.96-1-2.15-1-1.12,0-2.04.4-2.14.91l-1.24-.13c-.16.35-.32.71-.46,1.05h-.04c-1.75,0-3.2,1.92-3.38,4.38h-9.09c-.02-1.04-.22-2.32-.48-3.43,1.19-.4,2.08-2.08,2.08-4.1,0-.47-.05-.92-.14-1.34.08-.14.17-.3.27-.44.96.17,1.85-.13,2.1-.8.21-.51,0-1.11-.48-1.59.11-.16.25-.34.38-.5l1.5-.81c.24-.12.45-.27.66-.44,1.31.49,2.63.97,3.95,1.48,1.19.45,2.41.82,3.65,1.11-.32.23-.53.53-.59.9-.14.88.65,1.73,1.75,1.91,1.12.18,2.13-.38,2.27-1.25.05-.32-.02-.63-.18-.91l.48.09c.3,1.08,1.35,1.75,2.42,1.52.83-.18,1.42-.87,1.55-1.69.65-.25,1.34-.58,2.04-.98.8-.46,1.51-.95,2.08-1.46.47.12.9.4,1.21.82.84,1.1.58,2.63-.46,3.43Z"/>
  <path d="M16.61,28.62c-.38.91-.83,2.34-1.09,3.38h-6.25c-.04-.34-.1-.69-.17-1.05.85-.59,1.01-2.17.35-3.7-.67-1.52-1.94-2.46-2.95-2.24-.08-.13-.17-.26-.27-.39.51-.38.63-1.24.26-2.03-.42-.87-1.28-1.33-1.94-1.01-.15.07-.29.18-.39.33-.48-.89-.28-2.02.56-2.66.39-.3.77-.58,1.13-.87.45-.34,1-.48,1.54-.41-.28,2.51,1.42,4.82,3.91,5.29l2.37.55c.06.5.18,1.03.38,1.56.55,1.55,1.55,2.73,2.57,3.25Z"/>
  <path class="cls-1" d="M8.92,7.72c-.47-.16-1.26.06-1.57.58-.49.79-.72,1.73-.67,2.69.03.48.41.95.77,1.07.36.12.57-.15.59-.62.03-.93.36-1.84.94-2.6.38-.5.42-.98-.05-1.14ZM30.2.01c-.22-.06-.34.11-.34.4,0,.58-.18,1.15-.51,1.64-.21.32-.23.62.05.7.28.08.75-.08.93-.41.28-.51.4-1.09.35-1.68-.02-.3-.26-.58-.47-.64ZM34.92,3.2c-.14.14-.28.29-.42.43-.68.74-.96,1.48-.64,1.6.32.12,1.09-.14,1.61-.56.11-.09.22-.19.33-.28.42-.35.6-.96.42-1.43-.17-.46-.74-.37-1.3.23ZM53.07,7.41c-.41-.07-1.11.3-1.44.77-.07.11-.13.21-.2.32-.26.4-.09,1.02.37,1.43.46.42,1.03.25,1.3-.41.07-.16.14-.32.2-.48.31-.81.19-1.57-.23-1.64ZM62.22,8.81c.27-.14.55-.8.58-1.38,0-.12,0-.25,0-.37,0-.47-.32-.93-.74-1.07-.43-.14-.7.29-.62.99.02.17.03.34.05.52.11.86.46,1.46.74,1.32ZM68.1,7.31c-.17-.02-.34-.04-.52-.06-.86-.08-1.52.14-1.44.43.08.3.66.71,1.22.86.12.03.24.05.36.08.46.11.98-.11,1.21-.49.23-.39-.13-.75-.83-.82ZM59.69,10.9c-.16-.68-.85-1.14-1.42-1-.57.14-1.19.69-1.29,1.15-.01.1-.02.2-.03.3-.05.38.59.72,1.46.8s1.46-.29,1.35-.85c-.02-.14-.05-.27-.07-.41ZM64.02,13.41c-.11-.03-.22-.07-.33-.1-.41-.14-.93.28-1.2.94-.27.66,0,1.22.65,1.27.16.02.31.03.47.05.79.04,1.44-.39,1.41-.87-.03-.48-.51-1.11-1.01-1.3ZM57.41,18.21c-.13-.02-.26-.04-.39-.07-.65-.09-1.19.12-1.16.41.03.29.43.71.85.87.09.03.18.06.27.09.34.12.76-.09.98-.47s-.02-.74-.56-.82ZM18.38,5.49c-.36.1-.76.56-.82.96,0,.09-.02.17-.02.26-.04.33.36.66.9.76s.92-.2.86-.69c-.01-.12-.03-.24-.04-.36-.09-.6-.52-1.03-.88-.93ZM5.32,4.74c-.32.11-.72.72-.83,1.29-.02.12-.03.25-.05.37-.07.47.24.97.7,1.16.46.2.83-.19.83-.9,0-.17,0-.35,0-.52-.01-.86-.34-1.51-.66-1.4ZM3.62,11.97c-.39-.22-.76-.01-.84.49-.02.12-.05.24-.07.37-.09.61.11,1.13.42,1.11s.73-.38.89-.77c.03-.08.06-.17.09-.25.12-.32-.09-.73-.48-.95ZM11.94,3.37c-.3-.14-.56.05-.59.44-.01.1-.02.19-.03.29-.03.48.15.86.37.82.22-.03.51-.34.61-.65.02-.07.03-.13.05-.2.07-.25-.11-.55-.41-.69ZM7.7,14.37c-.08-.02-.15-.03-.23-.04-.29-.06-.62.15-.76.48s.09.61.53.63c.11,0,.22.01.33.02.54.01.96-.21.91-.44s-.42-.54-.77-.63ZM1.8,20.02c.13-.51-.03-.88-.54-.81-.51.07-1.15.54-1.22,1.05-.11.77.07,1.55.54,2.23.23.34.8.54,1.19.48.39-.05.47-.33.29-.68-.37-.69-.46-1.48-.25-2.27ZM63.67,28.23c-.7-.28-1.47-.43-2.23-.41-.38,0-.7.21-.75.41-.05.2.2.32.57.34.75.03,1.51.23,2.2.56.45.22.83.25.9-.01.06-.26-.22-.71-.68-.89Z"/>
</svg>