<?xml version="1.0" encoding="UTF-8"?>
<svg id="Layer_1" class="color" data-name="Layer 1" xmlns="http://www.w3.org/2000/svg" xmlns:xlink="http://www.w3.org/1999/xlink" viewBox="0 0 117 32">
  <defs>
    <style>
      .cls-1 {
        fill: url(#linear-gradient);
      }
    </style>
    <linearGradient id="linear-gradient" x1="73.19" y1="16" x2="117" y2="16" gradientUnits="userSpaceOnUse">
      <stop offset=".3" stop-color="#000" stop-opacity=".5"/>
      <stop offset=".5" stop-color="#000"/>
    </linearGradient>
  </defs>
  <path d="M15.87,18.13c-.26-1.64-.26-3.29,0-4.93l-3.56-.21-7.22-3.9c-.18-1.24-.4-2.48-.68-3.73-.05-.2-.3-.34-.6-.34h-1.79c-.29,0-.54.14-.59.33C-.48,12.23-.48,19.11,1.43,25.99c.05.19.3.33.59.33h1.79c.3,0,.55-.15.6-.34.28-1.24.5-2.48.68-3.73l7.22-3.9,3.56-.21Z"/>
  <path d="M23.66,10.61c-.28,3.37-.28,6.74,0,10.11l-5.67-2.26c-.47-1.86-.47-3.73,0-5.6l5.67-2.26Z"/>
  <path d="M66.55,9.83l.59,1.29h-4.7c-.4-.54-.94-.68-1.41-.68h-.65l.22-.91c.16-.65.81-1.06,1.46-.92l3.09.67,2.55-4.47-.87-4.3c-.03-.17.09-.34.26-.36l.84-.15c.17-.02.33.09.36.26l.96,4.84-2.7,4.73Z"/>
  <path class="cls-1" d="M86.24,12.15l-8.38-.55,1.17-5.49-5.84,6.28v1.41l4.47-.41-2.61,1.96,1.64,2.23-3.5-.28v1.55l4.88,7.04-.76-6.66,7.97,2.61-3.57-5.08,13.96-.04v-3.19h-11.08l1.65-1.38ZM96.99,13.05v4.26h2.54c.08-1.41.08-2.83,0-4.26h-2.54ZM109.43,11.85c-1.06,0-3.41-.01-3.41-.01l-3.53,1.52h-1.59c.13,1.22.13,2.44,0,3.65h1.59s3.53,1.53,3.53,1.53c0,0,2.35-.01,3.41-.01l4.04-1.72c.16-1.08.16-2.16,0-3.25l-4.04-1.71ZM116.78,14.28c-.07-.14-.21-.25-.36-.3l-1.69-.55c.16,1.17.16,2.34,0,3.51l1.69-.55c.15-.05.29-.16.36-.3.29-.61.29-1.21,0-1.8Z"/>
  <path d="M37.66,15.67c0,1.27,0,2.37.14,3.21l-12.12,1.84c-.2-3.37-.2-6.74,0-10.11l12.12,1.84c-.14.83-.14,1.93-.14,3.22Z"/>
  <path d="M57.43,15.19c.17-1.64.1-3.62-.09-5.78-.01-.13-.12-.23-.25-.22l-13.77.74c-.12,0-.22.11-.22.23-.06,1.94-.11,3.72-.08,5.02h14.4Z"/>
  <path d="M68.9,12.87h-7.65c-.06-.42-.13-.68-.22-.68h-1.94c.04,1.21,0,2.25-.09,3.17l-.15,1.44h-17.37l-.03-1.57c-.01-.78-.01-1.75.02-3.04h-2.01c-.4,0-.4,6.95,0,6.95h2.63v.93c0,.12.05.23.13.31l.85.83c.08.08.12.18.12.29v1.76s.7.63.7.63c.06.05.14.08.23.08h.19v7.34c0,.37.26.69.59.69h1.95c.34,0,.61-.34.6-.73l-.26-7.22.84-.02c.53.56,1.32.86,2.19.65.8-.19,1.46-.84,1.65-1.64.32-1.33-.54-2.53-1.75-2.77l.28-1.13h4.62l.51,2.36c.05.24.25.41.49.43l.34.03.12,8.11c0,.42.34.74.7.67l2.4-.47c.33-.06.54-.39.5-.77l-.77-7.3.25.02c.25.02.47-.12.56-.34l1.28-3.42h7.48c1.4,0,1.4-5.59,0-5.59ZM50.98,22.48c0,.72-.58,1.3-1.3,1.3-.49,0-.9-.28-1.13-.69l.92-.46-.48-1.23c.2-.13.43-.23.69-.23.72,0,1.3.58,1.3,1.3Z"/>
</svg>