<?xml version="1.0" encoding="UTF-8"?>
<svg id="Layer_1" data-name="Layer 1" class="color" xmlns="http://www.w3.org/2000/svg" viewBox="0 0 54 32">
  <defs>
    <style>
      .cls-1 {
        isolation: isolate;
        opacity: .5;
      }
    </style>
  </defs>
  <g>
    <path d="M19.8,15.66c4.51,1.02,8.82,2.58,12.93,4.7l5.69-.21-4.23-3.82c-4.07-2.22-8.39-3.79-12.93-4.7l-5.69.21s4.23,3.82,4.23,3.82Z"/>
    <path d="M22.13,10.35l-.27-5.36,3.93,3.66c.58-.1,1.17-.12,1.77-.08l3.6-3.98.19,5.36c.48.35.92.75,1.3,1.2l5.36-.27-3.66,3.93c.02.12.04.25.05.37-3.89-2.3-8.08-3.82-12.54-4.56.09-.09.18-.17.27-.25h0Z"/>
    <path d="M31.87,21.65l.27,5.36-3.93-3.66c-.57.1-1.17.12-1.77.08l-3.6,3.98-.2-5.36c-.48-.35-.92-.75-1.3-1.2l-5.36.27,3.66-3.93c-.02-.12-.04-.25-.05-.37,4.33,1.13,8.5,2.65,12.54,4.56-.09.09-.18.17-.27.25h0Z"/>
  </g>
  <path class="cls-1" d="M42.31,23.26s4.91,4.91,4.79,4.95-8.17-1.69-8.17-1.69l-4.05,5.36-.91-4.38c1.91-1.23,3.93-3.36,5.59-6.06,1.8-2.95,2.79-5.97,2.89-8.33l3.46-1.76-2.46,4.97,6.56,1.22-7.69,5.73h-.01Z"/>
  <path class="cls-1" d="M17.22-.12l1.56,4.54c-1.81,1.12-3.55,2.88-4.91,5.12-2.09,3.44-2.76,7.16-2.03,9.9l-3.44,2.04,1.28-5.69-5.69,1.57,6.51-8.18-5.4-3.52,9.11.66L17.22-.12Z"/>
</svg>