<?xml version="1.0" encoding="UTF-8"?>
<svg id="Layer_1" data-name="Layer 1" class="color" xmlns="http://www.w3.org/2000/svg" viewBox="0 0 99 32">
  <defs>
    <style>
      .cls-1 {
        isolation: isolate;
        opacity: .5;
      }
    </style>
  </defs>
  <path class="cls-1" d="M99,21.8l-6.32-4.12,5.51-11.23-11.2,8.11c-.77-1.59-1.61-2.27-2.83-2.53-1.6-.35-2.77.39-2.77.39,0,0-1.77-2.48-4.44-2-3.17.57-3.09,4.17-3.09,4.17,0,0,1.71-1.9,4.05-1.22,1.43.42,1.9,2.34,1.9,2.34,0,0,1.42-.85,3.04-.19,1.5.61,1.9,2.75,1.9,2.75l4.13-1.66-1.94,3.36,5.02,1.7-5.28,1,2.14,3.46-3.96-.28,4.56,6.19v-3.92l8.35.97-4.18-5.33,5.41-1.93h.01Z"/>
  <g>
    <path d="M73.29,24.26l-.75.66-.17-.19-1.28,1.12c-.55.48,3.62,5.22,4.17,4.74l1.28-1.12-.17-.19.75-.66c-1.32-1.42-2.6-2.86-3.83-4.36h0Z"/>
    <path d="M78.22,19.95c-.27-.31-.66-.38-.9-.19l-2.86,2.51c-.22.2-.2.6.07.91,1.21,1.5,2.48,2.93,3.79,4.3.27.31.66.38.9.19l2.86-2.51c.22-.2.2-.6-.07-.91-1.14-1.51-2.41-2.94-3.79-4.3Z"/>
    <path d="M80.84,18.35c-.55,0-1.1.12-1.63.35,1.57,1.42,2.96,3,4.17,4.74.3-.49.5-1.03.56-1.56.11-.89-.13-1.79-.75-2.48-.6-.69-1.46-1.04-2.36-1.05h0Z"/>
  </g>
  <g>
    <path d="M70.5,20.33c-.11.27-.38.43-.67.43h-18.94v-.35c0-2.5-.13-4.91-.42-7.23h19.36c.29,0,.56.16.67.43.94,2.24.94,4.47,0,6.72Z"/>
    <path d="M48.37,11.53c-.02-.15-.13-.29-.28-.33l-1.86-.61h-5.24l-2.04-2.04-6.9-.67-1.42,2.4c-.51,6.15-.52,12.36-.07,18.63.04.53.49.96,1.04.96l5.34-.03,2.77,2.16h6.12l2.39-2.03c.07-.06.12-.16.14-.26.86-6.32.95-12.41.01-18.19ZM44.15,28.65h-2.89l-1.83-1.01h-6.94c-.31-4.87-.31-9.69,0-14.46h11.66c.55,5.09.53,10.24,0,15.47Z"/>
    <path d="M67.09,22.56c-.45,1.3-1.16,2.37-2.17,3.22-.47.39-1.07.61-1.69.61l-12.59.16c.1-1.36.17-2.68.2-3.99h16.25Z"/>
    <path d="M27.39,13.1l-1.77,1.77v.68c-.71.15-1.39.34-1.86.56-.64.3-1.51.75-2.3,1.17-1.28.68-2.49,1.46-3.63,2.36l-1.36,1.06s-.86.55-1.48.16c-.13-.08-.25-.16-.35-.25-.73-.59-.95-1.49-2.72-1.84-.49-.09-3.3-.37-3.95-.4-1.92-.08-5.15-.22-7.46-.37-.32-.02-.57.26-.5.57.35,3.06.87,5.97,1.53,8.74.05.27.31.44.58.39l5.82-1.75s1.88-.38,2.94-.2c1.05.2,2.32,1.3,2.32,1.3,0,0,.7.73,1.65.65.53-.04.95-.28,1.21-.47.19-.13.33-.31.45-.5.37-.59,1.47-2.24,2.9-3.5.42-.37.95-.58,1.5-.58h.32c.38,0,.69.31.69.69v.24c0,1.56,1.28,2.83,2.83,2.83s2.83-1.27,2.83-2.83v-.53c0-.46.36-.83.82-.85-.05-3.07.01-6.1.19-9.08h-1.2ZM24.72,25.65c-1.11,0-2.02-.89-2.02-2.02,0-.17.03-.32.06-.48h1.21c.03.48.08.69.37,1.23l.64-.18c-.43-1.13-.26-1.75.18-2.54.9.2,1.57,1.01,1.57,1.96,0,1.12-.91,2.02-2.02,2.02Z"/>
    <path d="M42.51,24.87h-7.56c-.53,0-.97-.41-.99-.94-.12-2.55-.1-5.27,0-8.11.02-.53.46-.96.99-.96h7.55c.14,3.34.14,6.67,0,10.01Z"/>
    <polygon points="66.64 4.9 67.27 4.99 66.76 7.9 66.24 7.83 65.71 11.7 62.03 11.7 62.96 10.77 64.16 10.7 64.43 7.57 63.86 7.5 64.08 4.54 64.68 4.63 65.09 0 67.28 .31 66.64 4.9"/>
  </g>
</svg>