<?xml version="1.0" encoding="UTF-8"?>
<svg id="Layer_1" data-name="Layer 1" class="color" xmlns="http://www.w3.org/2000/svg" xmlns:xlink="http://www.w3.org/1999/xlink" viewBox="0 0 97 32">
  <defs>
    <style>
      .cls-1 {
        fill: url(#linear-gradient-2);
      }

      .cls-2 {
        fill: url(#linear-gradient);
      }

      .cls-3 {
        opacity: .5;
      }
    </style>
    <linearGradient id="linear-gradient" x1="37.61" y1="5.46" x2="89.84" y2="35.62" gradientUnits="userSpaceOnUse">
      <stop offset=".02" stop-color="#000" stop-opacity="0"/>
      <stop offset=".2" stop-color="#000"/>
    </linearGradient>
    <linearGradient id="linear-gradient-2" x1="-10.74" y1="14.16" x2="12.22" y2="19.9" gradientTransform="translate(23.02) skewX(-15)" gradientUnits="userSpaceOnUse">
      <stop offset=".1" stop-color="#000" stop-opacity="0"/>
      <stop offset=".6" stop-color="#000" stop-opacity=".5"/>
      <stop offset=".9" stop-color="#000" stop-opacity=".5"/>
      <stop offset="1" stop-color="#000" stop-opacity=".02"/>
    </linearGradient>
  </defs>
  <path class="cls-2" d="M72.15,3.53l-1.26-1.47h-5.95l-2.03,1.47h-24.18l-4.95,9.23h35.9l2.47-9.23ZM63.86,19.37l4.23-2.29h.42l.27-1.02h-36.79l-2.49,4.65h33.99l.36-1.34ZM74.88,30.05h-2.68l-.15-.42c-.14-.4-.2-.8-.18-1.22h-.75c-.13.23-.24.49-.31.74-.42,1.57.51,2.85,2.09,2.85.9,0,1.81-.41,2.51-1.07-.05-.07-.11-.14-.15-.22-.14-.2-.27-.41-.39-.66ZM87.26,29.64l-.37.41h-2.67c-.25.24-.52.48-.79.69-.07.06-.14.12-.22.18.35.66,1.04,1.07,1.94,1.07,1.58,0,3.2-1.28,3.62-2.85.07-.25.11-.5.1-.74h-.78c-.19.41-.47.84-.82,1.23ZM83.72,29.15h2.64c.22-.24.4-.49.54-.74h-13.86c0,.25.05.5.14.74h2.64c.13.34.3.66.52.96.32.51.75.96,1.28,1.35h3.07c.73-.39,1.41-.84,2-1.35.38-.3.71-.61,1.03-.96ZM83.43,17.05l3.75.03,3,2.29-.36,1.34h1.95l1.85-8.61c.16-.86-.17-1.54-.94-1.69l-2.38-.5-4.94-.03-1.92,7.17ZM83.98,7.63h-3.19l-.98,2.96h-4.56l.6-2.96h-2.87l-1.09,4.08h11.01l1.09-4.08ZM70.44,17.08h11.01l.55-2.06h-11.01l-.55,2.06ZM86.64,3.57c-3.96-.16-8.47-.15-12.58,0l-1.2,2.95h13.95l-.16-2.95ZM69.4,13.78h-36.17l-.63,1.16h36.49l.31-1.16ZM82.65,12.63h-11.01l-.31,1.15h11.01l.31-1.15ZM62,.97c.03-.11-.02-.21-.12-.23-2.4-.55-4.94-.55-7.63,0-.11.02-.22.12-.25.23l-.34,1.27h8l.34-1.27ZM50.33.97c.03-.11-.02-.21-.12-.23-2.4-.55-4.94-.55-7.63,0-.11.02-.22.12-.25.23l-.34,1.27h8l.34-1.27ZM42.38,27.04l-2.52,1.54h-14.57l-1.05,1.97h40.49c.74,0,1.52-.5,1.9-1.22l.93-1.76-.58-.53h-24.61ZM95.83,13.78l-2.16,8.82h-5.8l.53-1.98-2.15-1.64h-18.25l-3.03,1.64-.53,1.98H28.5l-2.23,4.15h13.73l2.52-1.54h25.31l1.7,1.54h25.44l2.03-12.97h-1.17ZM84.95,0l-3.72.6-1.76,1.92c1.61-.02,3.19,0,4.8.05.51-.86.74-1.71.68-2.57Z"/>
  <g class="cls-3">
    <path class="cls-1" d="M0,30.54h23.92l2.03-3.78H2.03L0,30.54ZM14.49,3.51l-1.55,2.89h23.92l1.55-2.89H14.49ZM10.18,11.54h23.92l1.32-2.46H11.5l-1.32,2.46ZM6.13,19.1h23.92l.88-1.64H7.01l-.88,1.64ZM4.75,21.68h23.92l.65-1.22H5.4l-.65,1.22Z"/>
  </g>
</svg>