<?xml version="1.0" encoding="UTF-8"?>
<svg id="Layer_1" data-name="Layer 1" class="color" xmlns="http://www.w3.org/2000/svg" xmlns:xlink="http://www.w3.org/1999/xlink" viewBox="0 0 98 32">
  <defs>
    <style>
      .cls-1 {
        fill: url(#linear-gradient);
        opacity: .5;
      }
    </style>
    <linearGradient id="linear-gradient" x1="54.83" y1="5.35" x2="72.83" y2="5.35" gradientUnits="userSpaceOnUse">
      <stop offset=".5" stop-color="#000"/>
      <stop offset=".9" stop-color="#000" stop-opacity="0"/>
    </linearGradient>
  </defs>
  <g>
    <path d="M51.93,8.05h-7.58l-1.5-.63H4.48c-.76,0-.76-3.23,0-3.23h5.3l1.29,1.25c.23.23.55.35.87.35h12.85c.32,0,.64-.13.87-.35l1.3-1.26h15.87l1.5-.64h7.58c1.06,0,1.06,4.49,0,4.49Z"/>
    <path d="M3.32,12.58h29.91c.48,0,.48-3.79,0-3.79H3.32c-1.06,0-1.06,3.79,0,3.79Z"/>
    <path d="M12.92,13.77H4.1v.55c0,.38.21.72.54.9l.36.19c.47.24.56.85.22,1.25C1.8,20.56.14,24.59,0,28.71v.72c0,1.47,1.23,2.64,2.69,2.56,1.68-.08,3.84-.18,5.55-.26,1.5-.08,2.62-1.43,2.42-2.92-.64-4.86-.37-7.41,1.35-9.39.23-.27.44-.56.58-.89l1.38-3.16c.33-.76-.23-1.61-1.06-1.61ZM6.01,25.54c-.94,0-1.71-.76-1.71-1.7s.77-1.7,1.71-1.7,1.7.76,1.7,1.7-.76,1.7-1.7,1.7Z"/>
    <path d="M25.06,4.26l-.63.65h-12.04l-1.34-1.37V.3h1.17v2.88c0,.17.14.31.31.3l3.41-.18c.3,0,.59.1.79.32l.6.64h7.72Z"/>
    <path d="M51.64.26v2.17h-7.74l-1.5.64h-.55v-.52l2.53-1.27h4.22c.14,0,.27-.09.32-.21l.27-.63c.11-.27.38-.44.67-.44h1.54c.13,0,.25.11.25.26Z"/>
    <path d="M14.96,13.77c.37.64.41,1.41.11,2.09l-.8,1.83h1.36l1.64,1.59c.65.65,1.51,1.08,2.49,1.13,2.2.12,4-1.79,4-3.99v-1.19c0-.16.13-.3.3-.3h3.02c.28,0,.53-.14.68-.38l.47-.78h-13.25ZM19.98,19.15c-.86,0-2.21-.49-2.21-1.84,0-.18.02-.36.06-.53h1.13c-.03.55.05,1.1.25,1.68l.93-.21c-.32-1.09.02-2.25.63-3.3.93,0,1.62.9,1.62,1.99,0,1.39-1.01,2.22-2.4,2.22Z"/>
  </g>
  <path d="M98,6.71c-.47-.91-1.11-1.58-1.91-2.01l-6.28.23s-.04-.06-.06-.09l-.83-.75c-.26-.24-.6-.37-.96-.37l-10.24.54-2.45-1.35c-.12-.06-.27-.06-.39,0l-1.08.58v.31l1.13.38v.73l-1.02.41c-.07.03-.11.1-.11.18v.5c0,.07.04.14.11.18l1.02.41v.73l-1.13.38v.31l1.08.58c.12.07.27.07.39,0l2.44-1.35,10.25.54c.35,0,.69-.13.96-.37l.83-.75s.06-.07.08-.12l8.17.15Z"/>
  <path class="cls-1" d="M62.61.14s-5.34,2.44-7.78,3.66l3.59.75s-3.2,1.65-3.2,1.71c.03.05,1.24,1.25,1.24,1.25l-1.63.85,7.42,2.21-1.64-2.51,12.22-.44v-3.61l-11.49-.57,1.27-3.3Z"/>
</svg>