<?xml version="1.0" encoding="UTF-8"?>
<svg id="Layer_1" data-name="Layer 1" class="color" xmlns="http://www.w3.org/2000/svg" viewBox="0 0 85 32">
  <defs>
    <style>
      .cls-1 {
        opacity: .5;
      }
    </style>
  </defs>
  <g>
    <path d="M36.63,14.66l-1.03-.65c.07-.48.01-.98-.19-1.44-.09-.21-.27-.38-.49-.45l-2.21-.62c-.49,2.21-1.31,4.51-2.37,6.85l2.12.88c.22.08.46.06.66-.05.44-.24.8-.59,1.04-1.02l1.21.12c.35.04.69-.18.8-.51l.76-2.21c.12-.34-.01-.71-.31-.9Z"/>
    <path d="M60.63,26l-23.01-7.8.73-2.1,27.45,9.73c.18.07.15.34-.04.35l-2.06.18c-1.04.09-2.08-.03-3.06-.37Z"/>
    <path d="M30.87,11.26l-10.25-3.14.04-.13c.09-.26-.06-.55-.32-.63l-2.39-.71c-.42-.12-.66-.57-.53-.99l.04-.14h0c.8-2.43-.74-5.09-3.41-5.49-1.68-.25-3.39.58-4.23,2.06-.86,1.51-.69,3.23.18,4.5l-2.7-.94c-.21-.07-.32-.3-.25-.5l.33-.95c.1-.3-.05-.63-.36-.73l-.73-.25c-.2-.07-.42-.03-.57.11-1.4,1.28-1.95,2.86-1.64,4.73.03.2.18.37.38.44l.73.25c.3.1.63-.05.73-.36l.33-.95c.07-.21.3-.32.5-.24l3.77,1.31c-1.22.5-2.19,1.6-2.41,3.08-.24,1.6.58,3.22,2,3.99,1.96,1.06,4.27.29,5.29-1.5h0s.23-.36.23-.36c.19-.31.57-.44.92-.33l1.51.51c.26.07.52.01.61-.25l.04-.12,10,3.87c.92-2.13,1.66-4.19,2.13-6.13ZM14.35,1.62c1.43.5,2.19,2.06,1.69,3.49s-2.06,2.19-3.49,1.69-2.19-2.06-1.69-3.49,2.06-2.19,3.49-1.69ZM11.21,14.46c-1.28-.44-1.96-1.84-1.52-3.13s1.84-1.96,3.13-1.52,1.96,1.84,1.52,3.13-1.84,1.96-3.13,1.52ZM26.85,13.61c-.27.77-.99.8-1.75.51l-5.82-2.14.81-2.33,1.93.63-.41,1.19c-.07.21.04.45.25.52l.2.07c.21.07.45-.04.52-.25l.42-1.2,1.34.44-.43,1.23c-.07.21.04.45.25.52l.2.07c.21.07.45-.04.52-.25l.43-1.25.68.22c.77.25,1.32.71,1.06,1.48l-.19.55Z"/>
  </g>
  <polygon class="cls-1" points="67.57 24.28 74.78 21.25 71.71 25.04 81 27.82 72.38 28.53 72.82 32 67.71 30.02 65.96 31.64 64.29 28.27 68.22 28.4 67.6 26.4 69.2 26.13 67.57 24.28"/>
</svg>