<?xml version="1.0" encoding="UTF-8"?>
<svg id="Layer_1" data-name="Layer 1" class="color" xmlns="http://www.w3.org/2000/svg" viewBox="0 0 94 32">
  <defs>
    <style>
      .cls-1 {
        opacity: .5;
      }
    </style>
  </defs>
  <g>
    <polygon points="21.96 29.26 8.46 30.32 7.83 27.99 20.06 22.08 26.68 21.21 27.94 26.76 27.95 26.79 21.96 29.26"/>
    <path d="M.12,31.48l-.1-.36c-.09-.35.09-.72.43-.83l5.51-1.87.65,2.42-5.7,1.15c-.35.07-.7-.15-.79-.5Z"/>
    <path d="M33.61,18.09l-4.79,1.48c-.28.09-.44.43-.36.78l1.47,6.25c.09.36.4.61.7.54l5.57-1.15c.34-.07.51-.48.38-.86l-2.25-6.58c-.12-.34-.44-.54-.73-.45Z"/>
    <path d="M48.38,23.58l-9.98.99-2.18-6.34,9.55-4.35c2.27.72,4.55,1.1,6.83,1,0,.03,0,.07.02.11.15.69.32,1.38.51,2.07s.39,1.37.6,2.05c.02.07.05.13.07.19-2.02,1.05-3.8,2.52-5.41,4.29Z"/>
    <path d="M57.7,13.92l-1.28-.46c-.08-.03-.15-.02-.22,0l-1.94.98c-.05.03-.08.1-.06.18.3,1.34.65,2.67,1.07,3.98.02.08.08.13.14.13l2.17-.13c.07,0,.14-.04.19-.1l.87-1.04c.06-.07.09-.19.09-.31-.08-1.04-.36-2.04-.81-3-.05-.11-.14-.19-.23-.23Z"/>
    <path d="M72.18,6.26c-.79-2.19-3.08-3.49-5.14-2.88l-.09.02c-.75.22-1.55-.24-1.78-1.03s.17-1.59.9-1.81c.03-.01.05-.02.08-.03,3.4-1.06,7.37,1.17,8.85,4.97,1.47,3.79-.59,7.64-4.59,8.58-2,.48-8.41,2.14-10.4,2.61-.13-.95-.38-1.89-.73-2.81,1.94-.48,8.3-2.16,10.24-2.65,2.25-.55,3.45-2.79,2.67-4.97Z"/>
  </g>
  <polygon class="cls-1" points="83.94 15.78 87.46 23.34 81.88 20.05 81.76 26.88 78.24 21.7 77.15 26.88 76.55 18.92 74.12 20.77 76.36 16.38 80.16 17.24 79.7 13.92 83.95 12.06 80.55 8.88 82.43 6.47 77.55 7.09 81.64 .98 82.36 4.16 89.76 1.8 84.54 8.99 94 16.38 83.94 15.78"/>
</svg>