<?xml version="1.0" encoding="UTF-8"?>
<svg id="Layer_1" data-name="Layer 1" class="color" xmlns="http://www.w3.org/2000/svg" viewBox="0 0 87 32">
  <defs>
    <style>
      .cls-1 {
        opacity: .5;
      }
    </style>
  </defs>
  <g>
    <path d="M60.99.02l-6.29,1.71c-.27.07-.43.36-.35.63l5.03,17.2c.08.26.34.41.61.35l1.32-.33c.18-.04.32-.18.37-.36l2.38-8.84c.02-.08.02-.17,0-.25L61.61.38c-.07-.27-.35-.44-.62-.36Z"/>
    <path d="M49.89,4.73l-5.09,1.66c-.14.05-.22.2-.17.34l2.91,8.9s.03.07.06.1l4.92,5.12c.45.47,1.12.63,1.74.43l.94-.31c.14-.05.22-.2.17-.34l-5.15-15.74c-.05-.14-.2-.22-.34-.17Z"/>
    <path d="M4.73,24.51l-.61-1.88c-.42-1.3.32-2.69,1.64-3.05l18.39-5.08c.85-.24,1.74.24,2.02,1.08l.52,1.59c.28.84-.16,1.75-.99,2.06l-17.84,6.77c-1.28.48-2.7-.2-3.12-1.49Z"/>
    <path d="M33.82,22.2s-.01,0-.02,0l-1.08-3.31,6.32-2.07.57,1.74-4.29,1.4.27.73c.15.32,0,.71-.33.86l-1.44.64Z"/>
    <polygon points="54.81 9.9 53.74 10.25 52.26 5.73 53.47 5.33 54.81 9.9"/>
    <path d="M45.15,18.24l-.37-1.12,2.03.21-.41-.43c-.2-.21-.36-.47-.45-.74l-2.47-7.56-1.34.44-.44-1.36c-.13-.41-.57-.63-.97-.49l-2.05.67c-.41.13-.63.57-.49.97l.44,1.36-11.49,3.76c.27.32.48.69.62,1.11l.52,1.59c.29.89.19,1.81-.21,2.58h0s0,.02-.01.03c-.05.09-.1.18-.16.27-.03.04-.06.08-.08.12-.05.07-.11.14-.17.21-.34.4-.78.72-1.3.93.89.4,1.64,1.06,2.16,1.91l3.35-1.1-1.53-4.69,9.5-3.11,1.83,5.59c.13.4.57.63.97.49l2.05-.67c.41-.13.63-.57.49-.97Z"/>
  </g>
  <polygon class="cls-1" points="70.25 23.48 73.22 32 59.89 26.16 56.02 30.49 53.06 24.03 64.34 24.03 63.82 19.93 69.85 19.52 65.01 17.63 66.72 11.34 76.28 8.59 69.95 16.26 83 21.92 70.25 23.48"/>
</svg>