<?xml version="1.0" encoding="UTF-8"?>
<svg id="Layer_1" data-name="Layer 1" xmlns="http://www.w3.org/2000/svg" viewBox="0 0 32 32">
  <defs>
    <style>
      .cls-1 {
        fill: #d39f43;
      }
    </style>
  </defs>
  <path class="cls-1" d="M16,0C7.16,0,0,7.16,0,16s7.16,16,16,16,16-7.16,16-16S24.84,0,16,0ZM16,4.69c3.34,0,6.34,1.45,8.41,3.75L5.24,19.51c-.36-1.1-.56-2.28-.56-3.51,0-6.25,5.07-11.31,11.32-11.31ZM16,27.31c-3.34,0-6.34-1.45-8.42-3.75l19.17-11.07c.36,1.1.56,2.28.56,3.51,0,6.25-5.07,11.31-11.31,11.31Z"/>
</svg>