<?xml version="1.0" encoding="UTF-8"?>
<svg id="Layer_1" data-name="Layer 1" xmlns="http://www.w3.org/2000/svg" viewBox="0 0 32 32">
  <defs>
    <style>
      .cls-1 {
        fill: #d39f43;
      }
    </style>
  </defs>
  <path class="cls-1" d="M9.62,13.34L2.98,6.7c-3.97,5.55-3.97,13.06,0,18.6l6.64-6.64c-.71-1.7-.71-3.63,0-5.32ZM6.7,2.98l6.64,6.64c1.7-.71,3.62-.71,5.32,0l6.64-6.64C19.75-.99,12.25-1,6.7,2.98ZM22.38,18.65l6.64,6.64c3.97-5.54,3.97-13.05,0-18.59l-6.64,6.64c.71,1.7.71,3.61,0,5.31ZM13.34,22.38l-6.64,6.64c5.55,3.97,13.05,3.97,18.6,0l-6.64-6.64c-1.7.71-3.62.71-5.32,0Z"/>
</svg>