<?xml version="1.0" encoding="UTF-8"?>
<svg id="Calque_1" xmlns="http://www.w3.org/2000/svg" version="1.1" viewBox="0 0 128 128">
  <!-- Generator: Adobe Illustrator 29.6.1, SVG Export Plug-In . SVG Version: 2.1.1 Build 9)  -->
  <defs>
    <style>
      .st0 {
        fill: #fff;
      }
    </style>
  </defs>
  <path class="st0" d="M111.96,100.24c-.21,0-.41-.06-.59-.19-.44-.33-.54-.95-.21-1.4,7.43-10.1,11.36-22.08,11.36-34.64s-3.93-24.54-11.36-34.65c-.33-.44-.23-1.07.21-1.4.45-.33,1.07-.23,1.4.21,7.69,10.45,11.75,22.84,11.75,35.83s-4.06,25.38-11.75,35.83c-.2.27-.5.41-.81.41Z"/>
  <path class="st0" d="M28.76,17.04c-.31,0-.61-.14-.81-.41-.33-.44-.23-1.07.21-1.4,10.45-7.69,22.84-11.75,35.83-11.75s25.38,4.06,35.83,11.75c.44.33.54.95.21,1.4-.33.44-.95.54-1.4.21-10.1-7.43-22.08-11.36-34.64-11.36s-24.54,3.93-34.64,11.36c-.18.13-.39.19-.59.19Z"/>
  <path class="st0" d="M16.04,100.24c-.31,0-.61-.14-.81-.41-7.69-10.45-11.75-22.84-11.75-35.83s4.06-25.38,11.75-35.83c.33-.44.95-.54,1.4-.21.44.33.54.95.21,1.4-7.43,10.1-11.36,22.08-11.36,34.65s3.93,24.54,11.36,34.64c.33.44.23,1.07-.21,1.4-.18.13-.39.19-.59.19Z"/>
  <path class="st0" d="M64,124.52c-12.99,0-25.38-4.06-35.83-11.75-.44-.33-.54-.95-.21-1.4.33-.44.95-.54,1.4-.21,10.1,7.43,22.08,11.36,34.64,11.36s24.54-3.93,34.64-11.36c.45-.33,1.07-.23,1.4.21.33.44.23,1.07-.21,1.4-10.45,7.69-22.84,11.75-35.83,11.75Z"/>
</svg>