<?xml version="1.0" encoding="UTF-8"?>
<svg id="Calque_1" xmlns="http://www.w3.org/2000/svg" version="1.1" viewBox="0 0 128 128">
  <!-- Generator: Adobe Illustrator 29.6.1, SVG Export Plug-In . SVG Version: 2.1.1 Build 9)  -->
  <defs>
    <style>
      .st0 {
        fill: #fff;
      }
    </style>
  </defs>
  <path class="st0" d="M86.49,81.84c-.21,0-.42-.06-.6-.2-.44-.33-.53-.96-.2-1.4,3.56-4.74,5.44-10.36,5.44-16.24s-1.88-11.5-5.44-16.24c-.33-.44-.24-1.07.2-1.4.44-.33,1.07-.24,1.4.2,3.82,5.09,5.84,11.12,5.84,17.44s-2.02,12.35-5.84,17.44c-.2.26-.5.4-.8.4Z"/>
  <path class="st0" d="M41.51,81.84c-.3,0-.6-.14-.8-.4-3.82-5.09-5.83-11.12-5.83-17.44s2.02-12.35,5.83-17.44c.33-.44.96-.53,1.4-.2.44.33.53.96.2,1.4-3.56,4.74-5.44,10.36-5.44,16.24s1.88,11.5,5.44,16.24c.33.44.24,1.07-.2,1.4-.18.13-.39.2-.6.2Z"/>
  <path class="st0" d="M47.16,42.51c-.3,0-.6-.14-.8-.4-.33-.44-.24-1.07.2-1.4,5.09-3.82,11.12-5.83,17.44-5.83s12.35,2.02,17.44,5.83c.44.33.53.96.2,1.4-.33.44-.96.53-1.4.2-4.74-3.56-10.36-5.43-16.24-5.43s-11.5,1.88-16.24,5.44c-.18.13-.39.2-.6.2Z"/>
  <path class="st0" d="M64,93.13c-6.32,0-12.35-2.02-17.44-5.83-.44-.33-.53-.96-.2-1.4.33-.44.96-.53,1.4-.2,4.74,3.56,10.36,5.43,16.24,5.43s11.5-1.88,16.24-5.43c.44-.33,1.07-.24,1.4.2.33.44.24,1.07-.2,1.4-5.09,3.82-11.12,5.83-17.44,5.83Z"/>
</svg>