<svg width="128" height="128" xmlns="http://www.w3.org/2000/svg" version="1.1">
 <!-- Generator: Adobe Illustrator 29.6.1, SVG Export Plug-In . SVG Version: 2.1.1 Build 9)  -->

 <g>
  <title>Layer 1</title>
  <circle id="svg_1" opacity="0.5" fill="#fff" r="4.2" cy="64" cx="64" class="st1"/>
  <g id="svg_5">
   <path stroke="null" id="svg_3" fill="#fff" d="m7.88,81.48716c-0.29,0 -0.58,-0.13 -0.78,-0.38c-3.99,-4.99 -6.1,-11 -6.1,-17.37s2.11,-12.38 6.1,-17.37c0.35,-0.43 0.97,-0.5 1.41,-0.16c0.43,0.35 0.5,0.97 0.16,1.41c-3.71,4.63 -5.67,10.21 -5.67,16.12s1.96,11.49 5.67,16.12c0.35,0.43 0.28,1.06 -0.16,1.41c-0.18,0.15 -0.41,0.22 -0.62,0.22l-0.01,0z" class="st0"/>
   <path stroke="null" id="svg_4" fill="#fff" d="m120.00251,81.48716c-0.22,0 -0.44,-0.07 -0.62,-0.22c-0.43,-0.35 -0.5,-0.97 -0.16,-1.41c3.71,-4.63 5.67,-10.21 5.67,-16.12s-1.96,-11.49 -5.67,-16.12c-0.35,-0.43 -0.28,-1.06 0.16,-1.41c0.43,-0.35 1.06,-0.28 1.41,0.16c3.99,4.99 6.1,11 6.1,17.37s-2.11,12.38 -6.1,17.37c-0.2,0.25 -0.49,0.38 -0.78,0.38l-0.01,0z" class="st0"/>
  </g>
 </g>
</svg>