<?xml version="1.0" encoding="UTF-8"?>
<svg id="Calque_1" xmlns="http://www.w3.org/2000/svg" version="1.1" viewBox="0 0 128 128">
  <!-- Generator: Adobe Illustrator 29.6.1, SVG Export Plug-In . SVG Version: 2.1.1 Build 9)  -->
  <defs>
    <style>
      .st0 {
        fill: #fff;
      }
    </style>
  </defs>
  <path class="st0" d="M72.84,93h-17.68c-.55,0-1-.45-1-1v-18.16h-18.16c-.55,0-1-.45-1-1v-17.68c0-.55.45-1,1-1h18.16v-18.16c0-.55.45-1,1-1h17.68c.55,0,1,.45,1,1v18.16h18.16c.55,0,1,.45,1,1v17.68c0,.55-.45,1-1,1h-18.16v18.16c0,.55-.45,1-1,1ZM56.16,91h15.68v-18.16c0-.55.45-1,1-1h18.16v-15.68h-18.16c-.55,0-1-.45-1-1v-18.16h-15.68v18.16c0,.55-.45,1-1,1h-18.16v15.68h18.16c.55,0,1,.45,1,1v18.16Z"/>
</svg>